<svg width="32" height="32" fill="none" xmlns="http://www.w3.org/2000/svg"><path d="M25.966 9.138a.5.5 0 0 0-.806-.592l.806.592Zm-4.602 5.426.403.296-.403-.296Zm-1.71.366-.247.435.246-.435Zm-4.26-2.415.247-.435a.5.5 0 0 0-.648.137l.401.298Zm-7.257 8.93a.5.5 0 0 0 .802.596l-.802-.596Zm5.66.631a.5.5 0 1 0-.139-.99l.14.99Zm-5.802.308-.493.088a.5.5 0 0 0 .562.407l-.07-.495Zm-.485-5.575a.5.5 0 0 0-.985.175l.985-.175Zm17.65-8.263-4.2 5.722.807.591 4.2-5.721-.807-.592Zm-5.26 5.949-4.259-2.415-.493.87 4.259 2.415.493-.87Zm-4.907-2.278-6.856 9.228.802.596 6.857-9.228-.803-.596Zm5.968 2.05a.82.82 0 0 1-1.061.228l-.493.87a1.82 1.82 0 0 0 2.36-.505l-.806-.592Zm-7.302 6.819-5.734.803.139.99 5.733-.803-.139-.99Zm-5.172 1.21L7.51 16.81l-.985.175.977 5.488.985-.176Z" fill="#000"/></svg>