<svg width="32" height="32" fill="none" xmlns="http://www.w3.org/2000/svg"><path d="M12.556 6.068a.5.5 0 0 0-.503.864l.503-.864ZM16 8.652l.417.276a.5.5 0 0 0-.165-.708L16 8.652Zm-2.634 3.065a.5.5 0 0 0 .833.553l-.833-.553Zm8.695-1.238a.5.5 0 0 0-.67.742l.67-.742ZM12.053 6.932l3.695 2.152.504-.864-3.696-2.152-.503.864Zm3.53 1.444-2.217 3.341.833.553 2.218-3.342-.834-.552Zm8.417 8.7C24 21.448 20.422 25 16 25v1c4.966 0 9-3.991 9-8.924h-1ZM16 25c-4.422 0-8-3.552-8-7.924H7C7 22.009 11.034 26 16 26v-1Zm-8-7.924c0-4.372 3.578-7.924 8-7.924v-1c-4.966 0-9 3.991-9 8.924h1Zm13.39-5.855A7.868 7.868 0 0 1 24 17.076h1a8.869 8.869 0 0 0-2.94-6.597l-.67.742Z" fill="#000"/></svg>