<svg width="32" height="32" fill="none" xmlns="http://www.w3.org/2000/svg"><path d="M6.676 22.486a.5.5 0 0 0 .806.591l-.806-.591Zm4.602-5.426-.403-.296.403.296Zm1.71-.367.247-.435-.246.435Zm4.26 2.415-.247.435a.5.5 0 0 0 .648-.137l-.401-.298Zm7.258-8.93a.5.5 0 0 0-.803-.596l.803.597Zm-5.661-.63a.5.5 0 0 0 .139.99l-.14-.99Zm5.802-.309.493-.087a.5.5 0 0 0-.562-.408l.07.495Zm.486 5.576a.5.5 0 0 0 .984-.176l-.985.176Zm-17.65 8.262 4.199-5.722-.807-.591-4.199 5.722.806.591Zm5.26-5.949L17 19.543l.493-.87-4.259-2.415-.493.87Zm4.906 2.278 6.857-9.227-.803-.597-6.857 9.228.803.596Zm-5.968-2.05a.82.82 0 0 1 1.061-.228l.493-.87a1.82 1.82 0 0 0-2.36.506l.806.591Zm7.303-6.818 5.733-.804-.139-.99-5.733.803.139.99Zm5.171-1.211.977 5.488.985-.176-.977-5.487-.985.175Z" fill="#000"/></svg>