<svg width="32" height="32" viewBox="0 0 32 32" fill="none" xmlns="http://www.w3.org/2000/svg">
<path d="M25.5 16C25.5 17.8789 24.9428 19.7157 23.899 21.2779C22.8551 22.8402 21.3714 24.0578 19.6355 24.7769C17.8996 25.4959 15.9895 25.684 14.1466 25.3175C12.3038 24.9509 10.6111 24.0461 9.28249 22.7175C7.95389 21.3889 7.0491 19.6962 6.68254 17.8534C6.31598 16.0105 6.50412 14.1004 7.22315 12.3645C7.94218 10.6286 9.15982 9.14491 10.7221 8.10104C12.2844 7.05717 14.1211 6.5 16 6.5M25.5 16H16L16 6.5M25.5 16C25.5 15.3807 25.4395 14.7599 25.3175 14.1466C24.9509 12.3038 24.0461 10.6111 22.7175 9.28248C21.3889 7.95388 19.6962 7.04909 17.8534 6.68253C17.2401 6.56054 16.6193 6.5 16 6.5" stroke="black"/>
</svg>
