<svg width="32" height="32" fill="none" xmlns="http://www.w3.org/2000/svg"><path d="M15.97 25.5V25v.5Zm9.53-9.548h.5-.5Zm-.03 9.482.004.5a.5.5 0 0 0 .465-.671l-.47.171Zm-1.553-4.255L23.5 20.9a.5.5 0 0 0-.054.449l.47-.171ZM16.5 11.615a.5.5 0 1 0-1 0h1Zm-1 6.09a.5.5 0 0 0 1 0h-1Zm0 2.574a.5.5 0 0 0 1 0h-1Zm1-.433a.5.5 0 0 0-1 0h1Zm9.5-3.894C26 10.453 21.52 6 16 6v1c4.973 0 9 4.01 9 8.952h1ZM16 6c-5.52 0-10 4.453-10 9.952h1C7 11.01 11.027 7 16 7V6ZM6 15.952C6 21.442 10.44 26 15.97 26v-1C11.005 25 7 20.902 7 15.952H6Zm18.332 5.504A9.874 9.874 0 0 0 26 15.952h-1c0 1.83-.552 3.531-1.5 4.949l.832.555Zm1.607 3.807-1.553-4.256-.939.343L25 25.606l.94-.343ZM15.97 26c3.177 0 6.323-.035 9.505-.066l-.01-1c-3.184.031-6.324.066-9.494.066v1ZM15.5 11.615v6.09h1v-6.09h-1Zm1 8.664v-.433h-1v.433h1Z" fill="#000"/></svg>