<svg width="32" height="32" fill="none" xmlns="http://www.w3.org/2000/svg"><path d="M6.5 10.5H6h.5Zm0 3.134H7h-.5ZM18.393 6.5V6v.5Zm-7.894 0V7v-.5Zm-.493 5.667v-.5H9.77l-.15.182.386.318Zm-1.735 2.104.386.318-.386-.319Zm10.122-2.104v.5-.5Zm2.834-2.833h-.5.5ZM24.5 20.29h.5-.5Zm0 2.777H24h.5Zm-11.894-6.777v.5-.5Zm7.894 0v-.5.5Zm.493 5.667.355-.352-.146-.148h-.209v.5Zm1.796 1.814.355-.352-.355.352Zm-10.183-1.814v.5-.5ZM6 10.5v3.134h1V10.5H6ZM18.393 6H10.5v1h7.894V6ZM9.62 11.85l-1.735 2.102.772.637 1.735-2.104-.772-.636Zm8.773-.183h-8.387v1h8.387v-1Zm3.334-2.333A3.334 3.334 0 0 0 18.393 6v1a2.334 2.334 0 0 1 2.334 2.334h1ZM7 10.5A3.5 3.5 0 0 1 10.5 7V6A4.5 4.5 0 0 0 6 10.5h1Zm-1 3.134c0 1.407 1.761 2.04 2.657.955l-.772-.637A.5.5 0 0 1 7 13.634H6Zm14.727-4.3a2.334 2.334 0 0 1-2.334 2.333v1a3.334 3.334 0 0 0 3.334-3.333h-1ZM24 20.29v2.777h1v-2.777h-1Zm-11.394-3.5H20.5v-1h-7.894v1Zm8.032 5.519 1.795 1.814.711-.704-1.796-1.814-.71.704Zm-8.032.148h8.387v-1h-8.387v1Zm-2.334-3.334a2.334 2.334 0 0 1 2.334-2.333v-1a3.334 3.334 0 0 0-3.334 3.333h1ZM25 20.291a4.5 4.5 0 0 0-4.5-4.5v1a3.5 3.5 0 0 1 3.5 3.5h1Zm-1 2.777a.5.5 0 0 1-.856.352l-.71.704c.942.952 2.566.285 2.566-1.056h-1ZM9.272 19.124a3.334 3.334 0 0 0 3.334 3.334v-1a2.334 2.334 0 0 1-2.334-2.334h-1Z" fill="#000"/></svg>