<svg width="32" height="32" viewBox="0 0 32 32" fill="none" xmlns="http://www.w3.org/2000/svg">
<path d="M6.79981 10.5H7.29981H6.79981ZM6.7998 23.5568H6.2998H6.7998ZM25.0961 10.5H24.5961H25.0961ZM25.0961 17.9815H25.5961H25.0961ZM21.0961 6.50002L21.0961 6.00002L21.0961 6.50002ZM10.7998 6.5L10.7998 6L10.7998 6.5ZM11.7257 21.9815V21.4815H11.5655L11.4351 21.5746L11.7257 21.9815ZM8.38104 24.3705L8.67166 24.7774H8.67166L8.38104 24.3705ZM21.0961 21.9815V21.4815V21.9815ZM20.1702 12.6296C20.4463 12.6296 20.6702 12.4058 20.6702 12.1296C20.6702 11.8535 20.4463 11.6296 20.1702 11.6296V12.6296ZM11.7257 11.6296C11.4496 11.6296 11.2257 11.8535 11.2257 12.1296C11.2257 12.4058 11.4496 12.6296 11.7257 12.6296V11.6296ZM17.3554 16.8518C17.6315 16.8518 17.8554 16.628 17.8554 16.3518C17.8554 16.0757 17.6315 15.8518 17.3554 15.8518V16.8518ZM11.7257 15.8518C11.4496 15.8518 11.2257 16.0757 11.2257 16.3518C11.2257 16.628 11.4496 16.8518 11.7257 16.8518V15.8518ZM6.29981 10.5L6.2998 23.5568H7.2998L7.29981 10.5H6.29981ZM24.5961 10.5V17.9815H25.5961V10.5H24.5961ZM21.0961 6.00002L10.7998 6L10.7998 7L21.0961 7.00002L21.0961 6.00002ZM11.4351 21.5746L8.09043 23.9637L8.67166 24.7774L12.0163 22.3883L11.4351 21.5746ZM21.0961 21.4815L11.7257 21.4815V22.4815L21.0961 22.4815V21.4815ZM25.5961 10.5C25.5961 8.01474 23.5814 6.00003 21.0961 6.00002L21.0961 7.00002C23.0291 7.00002 24.5961 8.56703 24.5961 10.5H25.5961ZM7.29981 10.5C7.29981 8.567 8.86682 7 10.7998 7L10.7998 6C8.31453 5.99999 6.29981 8.01471 6.29981 10.5H7.29981ZM6.2998 23.5568C6.2998 24.7769 7.67886 25.4865 8.67166 24.7774L8.09043 23.9637C7.75949 24.2 7.2998 23.9635 7.2998 23.5568H6.2998ZM24.5961 17.9815C24.5961 19.9145 23.0291 21.4815 21.0961 21.4815V22.4815C23.5814 22.4815 25.5961 20.4668 25.5961 17.9815H24.5961ZM20.1702 11.6296L11.7257 11.6296V12.6296L20.1702 12.6296V11.6296ZM17.3554 15.8518H11.7257V16.8518H17.3554V15.8518Z" fill="black"/>
</svg>
