<svg width="32" height="32" fill="none" xmlns="http://www.w3.org/2000/svg"><path d="M7 10.5h.5H7Zm0 13.038h-.5.5ZM25 10.5h-.5.5Zm0 7.482h.5-.5ZM21 6.5V6v.5Zm-10 0V7v-.5Zm.846 15.482v-.5h-.162l-.132.095.294.404Zm-3.258 2.365-.294-.404.294.404ZM21 21.981v-.5.5ZM13 14a.5.5 0 1 0 0 1v-1Zm6 1a.5.5 0 1 0 0-1v1Zm-2.5-3.5a.5.5 0 1 0-1 0h1Zm-1 6a.5.5 0 0 0 1 0h-1Zm-9-7v13.038h1V10.5h-1Zm18 0v7.482h1V10.5h-1ZM21 6H11v1h10V6Zm-9.448 15.577-3.258 2.366.587.809 3.259-2.366-.588-.81ZM21 21.48h-9.154v1H21v-1ZM25.5 10.5A4.5 4.5 0 0 0 21 6v1a3.5 3.5 0 0 1 3.5 3.5h1Zm-18 0A3.5 3.5 0 0 1 11 7V6a4.5 4.5 0 0 0-4.5 4.5h1Zm-1 13.038c0 1.226 1.39 1.934 2.381 1.214l-.587-.81a.5.5 0 0 1-.794-.404h-1Zm18-5.556a3.5 3.5 0 0 1-3.5 3.5v1a4.5 4.5 0 0 0 4.5-4.5h-1ZM13 15h6v-1h-6v1Zm2.5-3.5v6h1v-6h-1Z" fill="#000"/></svg>