<svg width="32" height="32" fill="none" xmlns="http://www.w3.org/2000/svg"><path d="M6.8 10.5h.5-.5Zm0 13.057h-.5.5ZM25.096 10.5h-.5.5Zm0 7.482h.5-.5Zm-4-11.482V6v.5ZM10.8 6.5V6v.5Zm.926 15.482v-.5h-.16l-.13.093.29.407ZM8.381 24.37l.29.406-.29-.407Zm12.715-2.39v-.5.5Zm-.926-9.351a.5.5 0 1 0 0-1v1Zm-8.444-1a.5.5 0 1 0 0 1v-1Zm5.63 5.222a.5.5 0 1 0 0-1v1Zm-5.63-1a.5.5 0 1 0 0 1v-1ZM6.3 10.5v13.057h1V10.5h-1Zm18.296 0v7.482h1V10.5h-1Zm-3.5-4.5H10.8v1h10.296V6Zm-9.66 15.575L8.09 23.964l.58.813 3.346-2.389-.582-.813Zm9.66-.093h-9.37v1h9.37v-1Zm4.5-10.982a4.5 4.5 0 0 0-4.5-4.5v1a3.5 3.5 0 0 1 3.5 3.5h1ZM7.3 10.5A3.5 3.5 0 0 1 10.8 7V6a4.5 4.5 0 0 0-4.5 4.5h1Zm-1 13.057c0 1.22 1.38 1.93 2.372 1.22l-.581-.813a.5.5 0 0 1-.79-.407H6.299Zm18.296-5.575a3.5 3.5 0 0 1-3.5 3.5v1a4.5 4.5 0 0 0 4.5-4.5h-1ZM20.17 11.63h-8.444v1h8.444v-1Zm-2.814 4.222h-5.63v1h5.63v-1Z" fill="#000"/></svg>