<svg width="32" height="32" viewBox="0 0 32 32" fill="none" xmlns="http://www.w3.org/2000/svg">
<path d="M6.5 10.5H6H6.5ZM6.5 13.6342H7H6.5ZM18.3936 6.50002L18.3936 6.00002L18.3936 6.50002ZM10.5 6.5L10.5 7L10.5 6.5ZM10.0065 12.1673V11.6673H9.77078L9.62079 11.8491L10.0065 12.1673ZM8.27139 14.2705L8.65708 14.5887H8.65708L8.27139 14.2705ZM18.3936 12.1673V12.6673V12.1673ZM21.2272 9.33365H20.7272H21.2272ZM24.5 20.2906H25H24.5ZM24.5 23.0684H24H24.5ZM12.6063 16.2907L12.6063 16.7907L12.6063 16.2907ZM20.4999 16.2906L20.4999 15.7906L20.4999 16.2906ZM20.9935 21.9579L21.3488 21.6062L21.2021 21.4579H20.9935V21.9579ZM22.7893 23.772L23.1446 23.4202L22.7893 23.772ZM12.6063 21.9579V22.4579V21.9579ZM6 10.5L6 13.6342H7L7 10.5H6ZM18.3936 6.00002L10.5 6L10.5 7L18.3936 7.00002L18.3936 6.00002ZM9.62079 11.8491L7.88569 13.9523L8.65708 14.5887L10.3922 12.4855L9.62079 11.8491ZM18.3936 11.6673L10.0065 11.6673V12.6673L18.3936 12.6673V11.6673ZM21.7272 9.33365C21.7272 7.49254 20.2347 6.00002 18.3936 6.00002L18.3936 7.00002C19.6824 7.00002 20.7272 8.04482 20.7272 9.33365H21.7272ZM7 10.5C7 8.567 8.56701 7 10.5 7L10.5 6C8.01473 5.99999 6 8.01471 6 10.5H7ZM6 13.6342C6 15.0408 7.76194 15.6738 8.65708 14.5887L7.88569 13.9523C7.58731 14.314 7 14.103 7 13.6342H6ZM20.7272 9.33365C20.7272 10.6225 19.6824 11.6673 18.3936 11.6673V12.6673C20.2347 12.6673 21.7272 11.1748 21.7272 9.33365H20.7272ZM24 20.2906V23.0684H25V20.2906H24ZM12.6063 16.7907L20.4999 16.7906L20.4999 15.7906L12.6063 15.7907L12.6063 16.7907ZM20.6381 22.3097L22.434 24.1237L23.1446 23.4202L21.3488 21.6062L20.6381 22.3097ZM12.6063 22.4579L20.9935 22.4579V21.4579L12.6063 21.4579V22.4579ZM10.2727 19.1243C10.2727 17.8355 11.3175 16.7907 12.6063 16.7907L12.6063 15.7907C10.7652 15.7907 9.27271 17.2832 9.27271 19.1243H10.2727ZM25 20.2906C25 17.8054 22.9852 15.7906 20.4999 15.7906L20.4999 16.7906C22.4329 16.7906 24 18.3576 24 20.2906H25ZM24 23.0684C24 23.5151 23.4589 23.7376 23.1446 23.4202L22.434 24.1237C23.3767 25.076 25 24.4085 25 23.0684H24ZM9.27271 19.1243C9.27271 20.9654 10.7652 22.4579 12.6063 22.4579V21.4579C11.3175 21.4579 10.2727 20.4131 10.2727 19.1243H9.27271Z" fill="black"/>
</svg>
