<svg width="32" height="32" fill="none" xmlns="http://www.w3.org/2000/svg"><path d="M15.97 25.5V25v.5Zm9.53-9.548h.5-.5Zm0 9.548v.5a.5.5 0 0 0 .47-.672l-.47.172Zm-1.583-4.321L23.5 20.9a.5.5 0 0 0-.054.45l.47-.172Zm-6.306-2.012a.5.5 0 0 0 1 0h-1Zm1-6.334a.5.5 0 1 0-1 0h1Zm-5.222 6.334a.5.5 0 1 0 1 0h-1Zm1-3.167a.5.5 0 0 0-1 0h1ZM26 15.952C26 10.453 21.52 6 16 6v1c4.973 0 9 4.01 9 8.952h1ZM16 6c-5.52 0-10 4.453-10 9.952h1C7 11.01 11.027 7 16 7V6ZM6 15.952C6 21.442 10.44 26 15.97 26v-1C11.005 25 7 20.902 7 15.952H6Zm18.332 5.504A9.874 9.874 0 0 0 26 15.952h-1c0 1.83-.552 3.531-1.5 4.949l.832.555Zm1.637 3.872-1.583-4.321-.939.344 1.584 4.321.939-.344Zm-10 .672H25.5v-1h-9.53v1Zm2.642-6.833v-6.334h-1v6.334h1Zm-4.222 0V16h-1v3.167h1Z" fill="#000"/></svg>