<svg width="32" height="32" fill="none" xmlns="http://www.w3.org/2000/svg"><mask id="a" fill="#fff"><path fill-rule="evenodd" clip-rule="evenodd" d="M24.008 8h-10.45c-.783 0-1.567.3-2.194.8l-.157.15L4.73 14.9c-.314.3-.47.7-.47 1.1 0 .4.156.8.47 1.1l6.478 5.95.157.15c.627.55 1.41.8 2.194.8h10.398c1.829 0 3.292-1.4 3.292-3.15v-9.7C27.3 9.4 25.837 8 24.008 8Z"/></mask><path d="M15.27 12.639a.5.5 0 1 0-.69.723l.69-.723Zm5.231 6.38a.5.5 0 0 0 .69-.724l-.69.723Zm-5.921-.724a.5.5 0 0 0 .69.723l-.69-.723Zm6.612-4.934a.5.5 0 0 0-.69-.723l.69.723Zm-6.612 0 5.921 5.657.69-.723-5.92-5.657-.691.723Zm.69 5.657 5.922-5.657-.69-.723-5.922 5.657.69.723ZM11.365 8.8l-.623-.782-.036.028-.032.032.691.722Zm-.157.15.677.737.007-.007.008-.008-.692-.722ZM4.73 14.9l-.677-.736-.007.006-.008.008.692.722Zm0 2.2-.692.723.008.007.007.007.677-.737Zm6.478 5.95.692-.723-.008-.007-.007-.006-.677.736Zm.157.15-.691.723.015.015.017.014.66-.752Zm15.884-12.05-1-.03v.03h1ZM13.558 7c-1.034 0-2.033.392-2.817 1.018l1.247 1.564c.469-.374 1.037-.582 1.57-.582V7Zm-2.885 1.078-.157.15 1.383 1.444.157-.15-1.383-1.444Zm-.142.135-6.479 5.95 1.353 1.473 6.479-5.95-1.353-1.473Zm-6.494 5.965A2.517 2.517 0 0 0 3.258 16h2c0-.139.054-.274.162-.377l-1.383-1.445ZM3.258 16c0 .662.26 1.326.78 1.823l1.382-1.445A.517.517 0 0 1 5.258 16h-2Zm.794 1.837 6.479 5.95 1.353-1.473-6.479-5.95-1.353 1.473Zm6.464 5.936.157.15 1.383-1.445-.157-.15-1.383 1.445Zm.189.179c.831.729 1.858 1.048 2.854 1.048v-2c-.572 0-1.113-.181-1.535-.552l-1.32 1.504ZM23.956 25c2.339 0 4.292-1.807 4.292-4.15h-2c0 1.157-.974 2.15-2.292 2.15v2Zm4.292-4.15v-9.7h-2v9.7h2Zm0-9.67C28.317 8.807 26.34 7 24.007 7v2c1.326 0 2.274.993 2.24 2.12l2 .06ZM24.007 7h-10.45v2h10.45V7Zm-10.45 18h10.398v-2H13.559v2Z" fill="#000" mask="url(#a)"/></svg>