<svg width="32" height="32" fill="none" xmlns="http://www.w3.org/2000/svg"><path d="M19.177 23.077a.5.5 0 0 0 0-1v1Zm-6.354-1a.5.5 0 0 0 0 1v-1ZM20 6.5V7v-.5Zm-8 0V6v.5Zm-2 17h.5-.5Zm0-15h-.5.5Zm10 17V25v.5Zm-8 0v.5-.5Zm10-2h.5-.5Zm0-15h-.5.5ZM20 6h-8v1h8V6Zm-9.5 17.5v-15h-1v15h1ZM20 25h-8v1h8v-1Zm2.5-1.5v-15h-1v15h1ZM20 26a2.5 2.5 0 0 0 2.5-2.5h-1A1.5 1.5 0 0 1 20 25v1Zm0-19a1.5 1.5 0 0 1 1.5 1.5h1A2.5 2.5 0 0 0 20 6v1Zm-8-1a2.5 2.5 0 0 0-2.5 2.5h1A1.5 1.5 0 0 1 12 7V6ZM9.5 23.5A2.5 2.5 0 0 0 12 26v-1a1.5 1.5 0 0 1-1.5-1.5h-1Zm3.323-.423h6.354v-1h-6.354v1Z" fill="#000"/></svg>