<svg width="32" height="32" fill="none" xmlns="http://www.w3.org/2000/svg"><path d="m13.5 10 .354.354L13.5 10Zm-4 4-.354-.354L9.5 14Zm13 5 .354.354L22.5 19Zm-4 4-.354-.354.354.354Zm4-13 .354-.354L22.5 10Zm-13 13 .354-.354L9.5 23Zm3.646-13.354-4 4 .707.707 4-4-.707-.707Zm9 9-4 4 .707.707 4-4-.707-.707Zm.707.707a6.864 6.864 0 0 0 0-9.707l-.707.707a5.864 5.864 0 0 1 0 8.293l.707.707Zm-9-9a5.864 5.864 0 0 1 8.293 0l.707-.707a6.864 6.864 0 0 0-9.707 0l.707.707Zm-4.707 3.293a6.864 6.864 0 0 0 0 9.707l.707-.707a5.864 5.864 0 0 1 0-8.293l-.707-.707Zm0 9.707a6.864 6.864 0 0 0 9.707 0l-.707-.707a5.864 5.864 0 0 1-8.293 0l-.707.707Zm12.75-13.457-5 5 .708.707 5-5-.707-.707Zm-5 5.707 4.5 4.5.708-.707-4.5-4.5-.707.707Zm.708-.707-4.5-4.5-.707.707 4.5 4.5.707-.707Z" fill="#000"/></svg>