<svg width="32" height="32" fill="none" xmlns="http://www.w3.org/2000/svg"><path d="m23 20.966.262.426a.5.5 0 0 0 .017-.84l-.279.414ZM15.632 25.5h-.5a.5.5 0 0 0 .762.426l-.262-.426Zm0-19 .247-.435a.5.5 0 0 0-.747.435h.5ZM23 10.685l.293.406a.5.5 0 0 0-.046-.84l-.247.434Zm-13.701-.032a.5.5 0 0 0-.598.801l.598-.801Zm-.56 8.984a.5.5 0 0 0 .522.852l-.522-.852Zm13.999.903-7.368 4.534.524.852 7.368-4.534-.524-.852Zm-6.606 4.96V16h-1v9.5h1Zm0-9.5V6.5h-1V16h1Zm7.147 4.551-7.368-4.966-.559.83 7.369 4.966.558-.83Zm-7.355-4.145 7.369-5.315-.585-.811-7.369 5.315.585.81Zm7.323-6.155-7.368-4.186-.494.87 7.368 4.185.494-.87Zm-7.316 5.348-6.632-4.946-.598.801 6.632 4.947.598-.802Zm-6.67 4.89 6.632-4.063-.523-.852-6.631 4.063.522.852Z" fill="#000"/></svg>