<svg width="32" height="32" fill="none" xmlns="http://www.w3.org/2000/svg"><path d="M23.5 21.115v-.5.5Zm-15 0v.5-.5ZM25.5 8.5H25h.5Zm0 10.615h.5-.5ZM6.5 8.5H6h.5Zm0 10.615H7h-.5ZM23.5 6.5V7v-.5Zm-15 0V6v.5Zm17 11.462a.5.5 0 1 0 0-1v1Zm-19-1a.5.5 0 0 0 0 1v-1ZM20.385 26a.5.5 0 1 0 0-1v1Zm-8.77-1a.5.5 0 1 0 0 1v-1Zm.962.5a.5.5 0 0 0 1 0h-1Zm1-4.385a.5.5 0 1 0-1 0h1Zm4.846 4.385a.5.5 0 1 0 1 0h-1Zm1-4.385a.5.5 0 1 0-1 0h1Zm4.077-.5h-15v1h15v-1ZM25 8.5v10.615h1V8.5h-1Zm-19 0v10.615h1V8.5H6ZM23.5 6h-15v1h15V6ZM26 8.5A2.5 2.5 0 0 0 23.5 6v1A1.5 1.5 0 0 1 25 8.5h1Zm-19 0A1.5 1.5 0 0 1 8.5 7V6A2.5 2.5 0 0 0 6 8.5h1Zm1.5 12.115a1.5 1.5 0 0 1-1.5-1.5H6a2.5 2.5 0 0 0 2.5 2.5v-1Zm15 1a2.5 2.5 0 0 0 2.5-2.5h-1a1.5 1.5 0 0 1-1.5 1.5v1Zm2-4.653h-19v1h19v-1ZM20.385 25h-8.77v1h8.77v-1Zm-6.808.5v-4.385h-1V25.5h1Zm5.846 0v-4.385h-1V25.5h1Z" fill="#000"/></svg>