<svg width="32" height="32" fill="none" xmlns="http://www.w3.org/2000/svg"><path d="M7.929 23.5v.5-.5Zm10.182-2.357a.5.5 0 0 0 0-1v1Zm-10.182-.5v.5-.5ZM24.093 10.5h-.5.5Zm-16.186 0h-.5.5Zm14.186-2V9v-.5Zm-12.186 0V9v-.5Zm13.593 5v.5-.5Zm-2.442 0V13v.5Zm-2 8h.5-.5Zm0-6h.5-.5Zm4.442 8V23v.5Zm-2.442 0v.5-.5Zm4.442-2h.5-.5Zm0-6H25h.5ZM19.87 23H7.93v1H19.87v-1Zm-1.759-2.857H7.93v1H18.11v-1ZM7 22.07c0-.513.416-.928.929-.928v-1A1.929 1.929 0 0 0 6 22.07h1Zm.929.929A.929.929 0 0 1 7 22.07H6C6 23.137 6.863 24 7.929 24v-1Zm15.664-12.5v3h1v-3h-1Zm-16.186 0v10.143h1V10.5h-1ZM22.093 8H9.907v1h12.186V8Zm2.5 2.5a2.5 2.5 0 0 0-2.5-2.5v1a1.5 1.5 0 0 1 1.5 1.5h1Zm-16.186 0a1.5 1.5 0 0 1 1.5-1.5V8a2.5 2.5 0 0 0-2.5 2.5h1ZM23.5 13h-2.442v1H23.5v-1Zm-3.942 8.5v-6h-1v6h1ZM23.5 23h-2.442v1H23.5v-1Zm2.5-1.5v-6h-1v6h1ZM23.5 24a2.5 2.5 0 0 0 2.5-2.5h-1a1.5 1.5 0 0 1-1.5 1.5v1Zm0-10a1.5 1.5 0 0 1 1.5 1.5h1a2.5 2.5 0 0 0-2.5-2.5v1Zm-2.442-1a2.5 2.5 0 0 0-2.5 2.5h1a1.5 1.5 0 0 1 1.5-1.5v-1Zm-2.5 8.5a2.5 2.5 0 0 0 2.5 2.5v-1a1.5 1.5 0 0 1-1.5-1.5h-1Z" fill="#000"/></svg>