<svg width="32" height="32" fill="none" xmlns="http://www.w3.org/2000/svg"><path d="M6.5 11H7h-.5Zm0 10H6h.5Zm16 3v.5-.5Zm-13 0v-.5.5Zm16-13H25h.5Zm0 10h.5-.5Zm-3-13v.5V8Zm-13 0v-.5.5Zm12.346 12.864a.5.5 0 1 0 0-1v1Zm-11.692-1a.5.5 0 1 0 0 1v-1Zm.5-3.88v1a1 1 0 0 0 1-1h-1Zm0 0h-1a1 1 0 0 0 1 1v-1Zm0 0v-1a1 1 0 0 0-1 1h1Zm0 0h1a1 1 0 0 0-1-1v1Zm0-3.636v1a1 1 0 0 0 1-1h-1Zm0 0h-1a1 1 0 0 0 1 1v-1Zm0 0v-1a1 1 0 0 0-1 1h1Zm0 0h1a1 1 0 0 0-1-1v1Zm3.654 3.637v1a1 1 0 0 0 1-1h-1Zm0 0h-1a1 1 0 0 0 1 1v-1Zm0 0v-1a1 1 0 0 0-1 1h1Zm0 0h1a1 1 0 0 0-1-1v1Zm0-3.637v1a1 1 0 0 0 1-1h-1Zm0 0h-1a1 1 0 0 0 1 1v-1Zm0 0v-1a1 1 0 0 0-1 1h1Zm0 0h1a1 1 0 0 0-1-1v1Zm3.653 3.637v1a1 1 0 0 0 1-1h-1Zm0 0h-1a1 1 0 0 0 1 1v-1Zm0 0v-1a1 1 0 0 0-1 1h1Zm0 0h1a1 1 0 0 0-1-1v1Zm0-3.637v1a1 1 0 0 0 1-1h-1Zm0 0h-1a1 1 0 0 0 1 1v-1Zm0 0v-1a1 1 0 0 0-1 1h1Zm0 0h1a1 1 0 0 0-1-1v1Zm3.654 3.637v1a1 1 0 0 0 1-1h-1Zm0 0h-1a1 1 0 0 0 1 1v-1Zm0 0v-1a1 1 0 0 0-1 1h1Zm0 0h1a1 1 0 0 0-1-1v1Zm0-3.637v1a1 1 0 0 0 1-1h-1Zm0 0h-1a1 1 0 0 0 1 1v-1Zm0 0v-1a1 1 0 0 0-1 1h1Zm0 0h1a1 1 0 0 0-1-1v1ZM6 11v10h1V11H6Zm16.5 12.5h-13v1h13v-1ZM25 11v10h1V11h-1Zm1 0a3.5 3.5 0 0 0-3.5-3.5v1A2.5 2.5 0 0 1 25 11h1ZM7 11a2.5 2.5 0 0 1 2.5-2.5v-1A3.5 3.5 0 0 0 6 11h1ZM6 21a3.5 3.5 0 0 0 3.5 3.5v-1A2.5 2.5 0 0 1 7 21H6Zm16.5 3.5A3.5 3.5 0 0 0 26 21h-1a2.5 2.5 0 0 1-2.5 2.5v1Zm-.654-4.636H10.154v1h11.692v-1ZM22.5 7.5h-13v1h13v-1Z" fill="#000"/></svg>