<svg width="32" height="32" fill="none" xmlns="http://www.w3.org/2000/svg"><path d="m18.895 18.301.424-.265-.424.265Zm-1.694-.937v-.5.5Zm-2.402 0v-.5.5Zm-8.402 3.558-.495-.076.495.076Zm17.453-8.106 1.26 8.182.988-.152-1.26-8.182-.988.152Zm-16.689-.152-1.259 8.182.989.152 1.259-8.182-.989-.152ZM19.403 8h-6.806v1h6.806V8ZM12.68 18.036l-2.6 4.15.846.53 2.601-4.149-.847-.531Zm9.239 4.15-2.6-4.15-.848.531 2.6 4.15.848-.532Zm-4.72-5.322h-2.4v1h2.4v-1Zm2.12 1.172a2.5 2.5 0 0 0-2.12-1.172v1a1.5 1.5 0 0 1 1.272.703l.847-.531Zm-9.24 4.15A1.737 1.737 0 0 1 8.608 23v1c.943 0 1.819-.485 2.32-1.284l-.848-.53ZM23.392 23a1.737 1.737 0 0 1-1.472-.815l-.847.531A2.738 2.738 0 0 0 23.392 24v-1Zm-9.864-4.433a1.5 1.5 0 0 1 1.271-.703v-1a2.5 2.5 0 0 0-2.118 1.172l.847.531Zm11.31-5.903A5.5 5.5 0 0 0 19.404 8v1a4.5 4.5 0 0 1 4.447 3.816l.989-.152Zm-16.688.152A4.5 4.5 0 0 1 12.597 9V8a5.5 5.5 0 0 0-5.436 4.664l.989.152Zm-2.248 8.03A2.737 2.737 0 0 0 8.608 24v-1c-1.065 0-1.88-.95-1.717-2.002l-.989-.152Zm19.207.152A1.737 1.737 0 0 1 23.392 23v1a2.737 2.737 0 0 0 2.706-3.154l-.989.152Z" fill="#000"/></svg>