<svg width="32" height="32" fill="none" xmlns="http://www.w3.org/2000/svg"><path d="M24.071 23.5V23v.5Zm-16.142 0v.5-.5Zm16.142-2.857v.5-.5Zm-16.142 0v-.5.5ZM6.5 22.07H7h-.5ZM24.093 10.5h-.5.5Zm-.5 10.143a.5.5 0 0 0 1 0h-1ZM7.907 10.5h.5-.5Zm-.5 10.143a.5.5 0 0 0 1 0h-1ZM22.093 8.5V9v-.5Zm-12.186 0V8v.5ZM24.071 23H7.93v1H24.07v-1Zm0-2.857H7.93v1H24.07v-1ZM26 22.07a1.929 1.929 0 0 0-1.929-1.928v1c.513 0 .929.416.929.928h1Zm-19 0c0-.512.416-.928.929-.928v-1A1.929 1.929 0 0 0 6 22.07h1Zm.929.93A.929.929 0 0 1 7 22.07H6c0 1.066.863 1.93 1.929 1.93v-1Zm16.142 1A1.929 1.929 0 0 0 26 22.07h-1a.929.929 0 0 1-.929.93v1ZM23.592 10.5v10.143h1V10.5h-1Zm-16.185 0v10.143h1V10.5h-1ZM22.093 8H9.907v1h12.186V8Zm2.5 2.5a2.5 2.5 0 0 0-2.5-2.5v1a1.5 1.5 0 0 1 1.5 1.5h1Zm-16.186 0a1.5 1.5 0 0 1 1.5-1.5V8a2.5 2.5 0 0 0-2.5 2.5h1Z" fill="#000"/></svg>