<svg width="32" height="32" fill="none" xmlns="http://www.w3.org/2000/svg"><path d="M21.5 6.5V6v.5Zm-11 0V7v-.5Zm-4 15H7h-.5Zm0-11H6h.5Zm15 15V25v.5Zm-11 0v.5-.5Zm15-4H25h.5Zm0-11h.5-.5Zm-14.646 2.625a.5.5 0 1 0 0 1v-1Zm3.959 1a.5.5 0 0 0 0-1v1Zm-2.48 4.25a.5.5 0 0 0 1 0h-1Zm4.92-4.942a.5.5 0 1 0-.923.384l.923-.384Zm1.518 4.942-.462.192a.5.5 0 0 0 .923 0l-.461-.192Zm2.44-4.558a.5.5 0 1 0-.922-.384l.922.384ZM21.5 6h-11v1h11V6ZM7 21.5v-11H6v11h1ZM21.5 25h-11v1h11v-1Zm4.5-3.5v-11h-1v11h1ZM21.5 26a4.5 4.5 0 0 0 4.5-4.5h-1a3.5 3.5 0 0 1-3.5 3.5v1Zm0-19a3.5 3.5 0 0 1 3.5 3.5h1A4.5 4.5 0 0 0 21.5 6v1Zm-11-1A4.5 4.5 0 0 0 6 10.5h1A3.5 3.5 0 0 1 10.5 7V6ZM6 21.5a4.5 4.5 0 0 0 4.5 4.5v-1A3.5 3.5 0 0 1 7 21.5H6Zm4.854-7.375h1.98v-1h-1.98v1Zm1.98 0h1.979v-1h-1.98v1Zm-.5-.5v4.75h1v-4.75h-1Zm3.996.192 1.98 4.75.922-.384-1.979-4.75-.923.384Zm2.902 4.75 1.98-4.75-.924-.384-1.979 4.75.923.384Z" fill="#000"/></svg>