<svg width="32" height="32" viewBox="0 0 32 32" fill="none" xmlns="http://www.w3.org/2000/svg">
<path d="M13.4997 9.99995L13.8532 10.3535L13.4997 9.99995ZM9.49971 13.9999L9.14615 13.6464H9.14615L9.49971 13.9999ZM22.4997 18.9999L22.8532 19.3535L22.4997 18.9999ZM18.4997 22.9999L18.1461 22.6464L18.4997 22.9999ZM22.4997 9.99996L22.8533 9.64641L22.4997 9.99996ZM9.4997 22.9999L9.85326 22.6464H9.85326L9.4997 22.9999ZM13.1461 9.64639L9.14615 13.6464L9.85326 14.3535L13.8532 10.3535L13.1461 9.64639ZM22.1461 18.6464L18.1461 22.6464L18.8533 23.3535L22.8532 19.3535L22.1461 18.6464ZM22.8532 19.3535C25.5338 16.673 25.5338 12.327 22.8533 9.64641L22.1461 10.3535C24.4362 12.6435 24.4361 16.3564 22.1461 18.6464L22.8532 19.3535ZM13.8532 10.3535C16.1433 8.06348 19.8561 8.06348 22.1461 10.3535L22.8533 9.64641C20.1727 6.96585 15.8267 6.96585 13.1461 9.64639L13.8532 10.3535ZM9.14615 13.6464C6.46561 16.3269 6.4656 20.6729 9.14615 23.3535L9.85326 22.6464C7.56323 20.3564 7.56324 16.6435 9.85326 14.3535L9.14615 13.6464ZM9.14615 23.3535C11.8267 26.034 16.1727 26.034 18.8533 23.3535L18.1461 22.6464C15.8561 24.9364 12.1433 24.9364 9.85326 22.6464L9.14615 23.3535ZM21.8963 9.89638L16.8963 14.8964L17.6034 15.6035L22.6034 10.6035L21.8963 9.89638ZM16.8963 15.6035L21.3963 20.1035L22.1034 19.3964L17.6034 14.8964L16.8963 15.6035ZM17.6034 14.8964L13.1034 10.3964L12.3963 11.1035L16.8963 15.6035L17.6034 14.8964Z" fill="black"/>
</svg>
