<svg width="32" height="32" fill="none" xmlns="http://www.w3.org/2000/svg"><path d="m6.529 9.084.5.001-.5-.001ZM6.503 21.47l.5.001-.5-.001Zm16.49-14.313-.127-.483.127.483Zm-6.2 1.625.127.484-.127-.484Zm7.213 14.628-.126-.484.126.484Zm-7.23 1.892.126.483-.127-.483ZM15.274 8.783l.126-.484-.126.484Zm-6.24-1.63.126-.484-.127.484Zm6.224 18.15-.126.483.126-.484Zm-7.26-1.894.126-.483-.126.483ZM16.5 9.423a.5.5 0 0 0-1 0h1Zm-1 15.346a.5.5 0 1 0 1 0h-1ZM25 9.092v12.383h1V9.092h-1Zm-18.971-.01L6.003 21.47l1 .002.026-12.386-1-.002Zm16.837-2.408-6.2 1.625.254.967 6.2-1.625-.254-.967Zm1.014 16.252-7.232 1.892.254.967 7.23-1.892-.252-.967ZM15.4 8.299l-6.24-1.63-.253.968 6.24 1.63.253-.968Zm-.016 16.52-7.26-1.893-.253.967 7.26 1.893.253-.968Zm1.282-16.52a2.5 2.5 0 0 1-1.266 0l-.253.968a3.5 3.5 0 0 0 1.772-.001l-.253-.967Zm-.019 16.519a2.5 2.5 0 0 1-1.263 0l-.252.968a3.5 3.5 0 0 0 1.769 0l-.254-.968ZM7.028 9.085a1.5 1.5 0 0 1 1.88-1.448l.253-.968a2.5 2.5 0 0 0-3.132 2.414l1 .002ZM6.004 21.469a2.5 2.5 0 0 0 1.87 2.424l.252-.968a1.5 1.5 0 0 1-1.122-1.454l-1-.002ZM25 21.475a1.5 1.5 0 0 1-1.12 1.45l.253.968A2.5 2.5 0 0 0 26 21.475h-1Zm1-12.383a2.5 2.5 0 0 0-3.134-2.418l.254.967A1.5 1.5 0 0 1 25 9.09h1Zm-10.5.331V24.77h1V9.423h-1Z" fill="#000"/></svg>