<svg width="32" height="32" fill="none" xmlns="http://www.w3.org/2000/svg"><path d="M23.5 10.692H23h.5Zm0 12.808h.5-.5Zm-13 2v.5-.5Zm11 0V25v.5Zm-13-14.808H9h-.5Zm0 12.808H8h.5Zm12-15.308a.5.5 0 0 0 0 1v-1Zm-9 1a.5.5 0 0 0 0-1v1Zm3.335-2.151.384.32-.384-.32Zm2.33 0-.384.32.384-.32Zm-4.915 9.19a.5.5 0 1 0 0 1v-1Zm6 1a.5.5 0 1 0 0-1v1Zm-6 2.654a.5.5 0 0 0 0 1v-1Zm3 1a.5.5 0 1 0 0-1v1ZM23 10.692V23.5h1V10.692h-1ZM10.5 26h11v-1h-11v1ZM8 10.692V23.5h1V10.692H8Zm12.5-1.5h1v-1h-1v1Zm-10 0h1v-1h-1v1Zm-1.5 1.5a1.5 1.5 0 0 1 1.5-1.5v-1a2.5 2.5 0 0 0-2.5 2.5h1ZM10.5 25A1.5 1.5 0 0 1 9 23.5H8a2.5 2.5 0 0 0 2.5 2.5v-1ZM23 23.5a1.5 1.5 0 0 1-1.5 1.5v1a2.5 2.5 0 0 0 2.5-2.5h-1Zm1-12.808a2.5 2.5 0 0 0-2.5-2.5v1a1.5 1.5 0 0 1 1.5 1.5h1ZM16 7c.318 0 .599.142.78.36l.769-.64A2.012 2.012 0 0 0 16 6v1Zm-.78.36c.181-.218.462-.36.78-.36V6c-.622 0-1.181.28-1.549.72l.768.64ZM12.5 8.463h1v-1h-1v1ZM12 9.885v-.923h-1v.923h1Zm7.5.5h-7v1h7v-1Zm.5-1.423v.923h1v-.923h-1Zm-1.5-.5h1v-1h-1v1Zm2.5.5a1.5 1.5 0 0 0-1.5-1.5v1a.5.5 0 0 1 .5.5h1Zm-1.5 2.423a1.5 1.5 0 0 0 1.5-1.5h-1a.5.5 0 0 1-.5.5v1Zm-8.5-1.5a1.5 1.5 0 0 0 1.5 1.5v-1a.5.5 0 0 1-.5-.5h-1Zm1.5-2.423a1.5 1.5 0 0 0-1.5 1.5h1a.5.5 0 0 1 .5-.5v-1Zm1.951-.742c-.18.216-.346.409-.522.55-.173.14-.31.192-.429.192v1c.434 0 .787-.197 1.055-.412.265-.213.49-.48.664-.69l-.768-.64Zm2.33.64c.174.21.399.477.664.69.268.215.621.412 1.055.412v-1c-.119 0-.256-.053-.429-.192a3.957 3.957 0 0 1-.522-.55l-.768.64Zm-4.531 9.87h6v-1h-6v1Zm0 3.655h3v-1h-3v1Z" fill="#000"/></svg>