<svg width="32" height="32" fill="none" xmlns="http://www.w3.org/2000/svg"><path d="M6.5 12.423H6h.5Zm0 10.077H7h-.5Zm16 3V25v.5Zm-13 0v.5-.5Zm16-13.077H25h.5Zm0 10.077h.5-.5Zm-3-13.077v.5-.5Zm-13 0v-.5.5ZM17.462 6.5V6v.5Zm-2.923 0V7v-.5ZM6 12.423V22.5h1V12.423H6ZM22.5 25h-13v1h13v-1ZM25 12.423V22.5h1V12.423h-1Zm-2.5-3.5h-13v1h13v-1Zm3.5 3.5a3.5 3.5 0 0 0-3.5-3.5v1a2.5 2.5 0 0 1 2.5 2.5h1Zm-19 0a2.5 2.5 0 0 1 2.5-2.5v-1a3.5 3.5 0 0 0-3.5 3.5h1ZM6 22.5A3.5 3.5 0 0 0 9.5 26v-1A2.5 2.5 0 0 1 7 22.5H6ZM22.5 26a3.5 3.5 0 0 0 3.5-3.5h-1a2.5 2.5 0 0 1-2.5 2.5v1Zm-8.692-9.77H6.5v1h7.308v-1Zm11.692 0h-7.308v1H25.5v-1ZM17.462 6h-2.923v1h2.923V6Zm3.423 3.423A3.423 3.423 0 0 0 17.462 6v1a2.423 2.423 0 0 1 2.423 2.423h1Zm-8.77 0A2.423 2.423 0 0 1 14.54 7V6a3.423 3.423 0 0 0-3.424 3.423h1Zm5.577 8.039c0 .934-.757 1.692-1.692 1.692v1a2.692 2.692 0 0 0 2.692-2.692h-1ZM16 19.154a1.692 1.692 0 0 1-1.692-1.692h-1A2.692 2.692 0 0 0 16 20.154v-1Zm-1.692-1.692c0-.935.757-1.693 1.692-1.693v-1a2.692 2.692 0 0 0-2.692 2.693h1ZM16 15.769c.935 0 1.692.758 1.692 1.693h1A2.692 2.692 0 0 0 16 14.769v1Z" fill="#000"/></svg>