<svg width="32" height="32" fill="none" xmlns="http://www.w3.org/2000/svg"><path d="M24.944 6.971a.5.5 0 1 0-.334-.942l.334.942ZM23.5 25H8.71v1H23.5v-1Zm1.5-9.192V23.5h1v-7.692h-1Zm-12.858-1.5H23.5v-1H12.142v1Zm-3.433-2.193h1.24v-1H8.71v1ZM7.21 23.5v-9.885h-1V23.5h1Zm2.74-11.385c.33 0 .597.267.597.596h1c0-.881-.715-1.596-1.597-1.596v1Zm-1.24-1a2.5 2.5 0 0 0-2.5 2.5h1a1.5 1.5 0 0 1 1.5-1.5v-1Zm3.433 2.193a.596.596 0 0 1-.596-.597h-1c0 .882.714 1.597 1.596 1.597v-1ZM26 15.808a2.5 2.5 0 0 0-2.5-2.5v1a1.5 1.5 0 0 1 1.5 1.5h1ZM8.71 25a1.5 1.5 0 0 1-1.5-1.5h-1a2.5 2.5 0 0 0 2.5 2.5v-1Zm14.79 1a2.5 2.5 0 0 0 2.5-2.5h-1a1.5 1.5 0 0 1-1.5 1.5v1Zm-17-5.5h18.486v-1H6.5v1Zm3.99-8.413L24.944 6.97l-.334-.942-14.454 5.115.334.943Z" fill="#000"/></svg>