<svg width="32" height="32" fill="none" xmlns="http://www.w3.org/2000/svg"><path d="m8.5 10.685-.356-.35a.5.5 0 0 0-.144.35h.5ZM12.627 6.5V6a.5.5 0 0 0-.356.149l.356.351Zm7.565 2h-.5.5Zm0 11.346h.5-.5Zm0-10.192a.5.5 0 0 0 0 1v-1Zm3.654 2.5h-.5.5Zm0 11.346h.5-.5Zm-11.192-1.654a.5.5 0 0 0-1 0h1Zm1.461-14.615a.5.5 0 0 0-1 0h1Zm-.5 4.384v.5a.5.5 0 0 0 .5-.5h-.5Zm-4.384-.5a.5.5 0 0 0 0 1v-1Zm-.375-.079 4.127-4.185-.712-.702-4.127 4.185.712.702Zm1.644 11.31h7.692v-1H10.5v1ZM12.627 7h5.565V6h-5.565v1Zm7.065 1.5v11.346h1V8.5h-1ZM8 10.685v9.161h1v-9.16H8Zm2.5 10.661a1.5 1.5 0 0 1-1.5-1.5H8a2.5 2.5 0 0 0 2.5 2.5v-1Zm7.692 1a2.5 2.5 0 0 0 2.5-2.5h-1a1.5 1.5 0 0 1-1.5 1.5v1Zm0-15.346a1.5 1.5 0 0 1 1.5 1.5h1a2.5 2.5 0 0 0-2.5-2.5v1Zm-4.038 19h7.692v-1h-7.692v1Zm6.038-15.346h1.654v-1h-1.654v1Zm3.154 1.5V23.5h1V12.154h-1Zm-11.692 9.692V23.5h1v-1.654h-1Zm2.5 3.154a1.5 1.5 0 0 1-1.5-1.5h-1a2.5 2.5 0 0 0 2.5 2.5v-1Zm7.692 1a2.5 2.5 0 0 0 2.5-2.5h-1a1.5 1.5 0 0 1-1.5 1.5v1Zm0-15.346a1.5 1.5 0 0 1 1.5 1.5h1a2.5 2.5 0 0 0-2.5-2.5v1Zm-8.73-3.423v4.384h1V7.231h-1Zm.5 3.884H9.23v1h4.384v-1Z" fill="#000"/></svg>