<svg width="32" height="32" fill="none" xmlns="http://www.w3.org/2000/svg"><path d="m8.5 11.615-.349-.358a.5.5 0 0 0-.151.358h.5ZM13.75 6.5V6a.5.5 0 0 0-.349.142l.349.358ZM8.5 22.577H9h-.5Zm15.5 0a.5.5 0 0 0-1 0h1Zm-.5-13.154H23h.5Zm-15 2.923H8h.5Zm6 0v.5a.5.5 0 0 0 .5-.5h-.5Zm8.5 0a.5.5 0 0 0 1 0h-1Zm-8.5 4.616a.5.5 0 1 0 0 1v-1Zm8.25.5.349.358a.5.5 0 0 0 0-.717l-.349.358Zm-2.651-3.282a.5.5 0 0 0-.698.717l.698-.717Zm-.698 5.846a.5.5 0 1 0 .698.717l-.698-.716ZM8.849 11.973l5.25-5.115-.698-.716-5.25 5.115.698.716ZM11.5 26h9v-1h-9v1Zm0-1C10.107 25 9 23.903 9 22.577H8C8 24.48 9.58 26 11.5 26v-1Zm9 1c1.92 0 3.5-1.52 3.5-3.423h-1C23 23.903 21.893 25 20.5 25v1Zm0-19C21.893 7 23 8.097 23 9.423h1C24 7.52 22.42 6 20.5 6v1Zm-6.75 0h.75V6h-.75v1Zm.75 0h6V6h-6v1ZM8 11.615v.731h1v-.73H8Zm0 .731v10.23h1v-10.23H8ZM14 6.5v5.846h1V6.5h-1Zm.5 5.346h-6v1h6v-1ZM23 9.423v2.923h1V9.423h-1Zm-8.5 8.539h8.25v-1H14.5v1Zm8.599-.859-3-2.923-.698.717 3 2.923.698-.717Zm-.698 0-3 2.923.698.717 3-2.923-.698-.717Z" fill="#000"/></svg>