<svg width="32" height="32" viewBox="0 0 32 32" fill="none" xmlns="http://www.w3.org/2000/svg">
<path d="M7.89349 19.6034C7.62679 18.7778 7.4827 17.8971 7.4827 16.9827C7.4827 13.1932 9.9576 9.98165 13.3793 8.8763M10.9224 23.8216C12.3402 24.8761 14.0972 25.5 15.9999 25.5C17.9027 25.5 19.6597 24.8761 21.0775 23.8216M24.1064 19.6034C24.3731 18.7778 24.5172 17.8971 24.5172 16.9827C24.5172 13.1932 22.0423 9.98165 18.6206 8.8763M18.6206 9.12069C18.6206 10.5681 17.4473 11.7414 15.9999 11.7414C14.5526 11.7414 13.3792 10.5681 13.3792 9.12069C13.3792 7.67332 14.5526 6.5 15.9999 6.5C17.4473 6.5 18.6206 7.67332 18.6206 9.12069ZM11.7414 21.8965C11.7414 23.3439 10.5681 24.5172 9.12069 24.5172C7.67332 24.5172 6.5 23.3439 6.5 21.8965C6.5 20.4492 7.67332 19.2758 9.12069 19.2758C10.5681 19.2758 11.7414 20.4492 11.7414 21.8965ZM25.5001 21.8965C25.5001 23.3439 24.3267 24.5172 22.8794 24.5172C21.432 24.5172 20.2587 23.3439 20.2587 21.8965C20.2587 20.4492 21.432 19.2758 22.8794 19.2758C24.3267 19.2758 25.5001 20.4492 25.5001 21.8965Z" stroke="black"/>
</svg>
