<svg width="32" height="32" fill="none" xmlns="http://www.w3.org/2000/svg"><path d="M7 10.662h-.5.5ZM7 22h.5H7Zm14.338 3v-.5.5ZM10 25v.5-.5Zm3.668-16.837a.5.5 0 0 0 0-1v1ZM10 7.663v.5-.5Zm14.838 10.669a.5.5 0 0 0-1 0h1Zm-.5 3.668h.5-.5Zm-10.356-4.689a.5.5 0 1 0 .707.707l-.707-.707Zm10.71-9.295a.5.5 0 1 0-.708-.707l.707.707Zm-5.688-.854a.5.5 0 1 0-.002 1l.002-1Zm5.333.51h.5a.5.5 0 0 0-.499-.5v.5Zm-.5 5.325a.5.5 0 0 0 1 0h-1ZM6.5 10.662V22h1V10.662h-1ZM21.338 24.5H10v1h11.338v-1Zm-7.67-17.337H10v1h3.668v-1Zm10.17 11.169V22h1v-3.668h-1ZM7.5 10.662a2.5 2.5 0 0 1 2.5-2.5v-1a3.5 3.5 0 0 0-3.5 3.5h1ZM6.5 22a3.5 3.5 0 0 0 3.5 3.5v-1A2.5 2.5 0 0 1 7.5 22h-1Zm14.838 3.5a3.5 3.5 0 0 0 3.5-3.5h-1a2.5 2.5 0 0 1-2.5 2.5v1Zm-6.65-7.482L24.692 8.016l-.707-.707-10.002 10.002.707.707Zm4.314-9.856 5.335.01.001-1-5.334-.01-.002 1Zm4.835-.49v5.325h1V7.672h-1Z" fill="#000"/></svg>