<svg width="32" height="32" viewBox="0 0 32 32" fill="none" xmlns="http://www.w3.org/2000/svg">
<path d="M13.8077 21.8462C13.8077 23.8641 12.1718 25.5 10.1538 25.5C8.13588 25.5 6.5 23.8641 6.5 21.8462C6.5 19.8282 8.13588 18.1923 10.1538 18.1923C12.1718 18.1923 13.8077 19.8282 13.8077 21.8462ZM13.8077 21.8462H18.1923M18.1923 21.8462C18.1923 23.8641 19.8282 25.5 21.8462 25.5C23.8641 25.5 25.5 23.8641 25.5 21.8462C25.5 19.8282 23.8641 18.1923 21.8462 18.1923C19.8282 18.1923 18.1923 19.8282 18.1923 21.8462ZM12.3462 6.5C10.7318 6.5 9.78847 7.59615 9.42308 9.42308L6.5 21.4809M19.6538 6.5C21.2682 6.5 22.2115 7.59615 22.5769 9.42308L25.5 21.4809" stroke="black" stroke-linecap="round"/>
</svg>
