<svg width="32" height="32" fill="none" xmlns="http://www.w3.org/2000/svg"><path d="M22.5 10.154v-.5.5Zm-5.77 0-.428.257.146.243h.283v-.5ZM14.54 6.5l.428-.257L14.822 6h-.283v.5ZM9.5 6.5V6v.5Zm-3 3H7h-.5Zm19 3.654H25h.5Zm-.5 6.134a.5.5 0 0 0 1 0h-1ZM6.5 20H7h-.5Zm0 2.5H6h.5Zm16 3V25v.5Zm-13 0v.5-.5Zm16-5.5H25h.5Zm0 2.5h.5-.5Zm-4-6.5v-.5.5Zm-11 0v.5-.5Zm12-6.346h-5.77v1h5.77v-1Zm-5.34.243-2.193-3.654-.857.514 2.192 3.654.858-.514ZM14.539 6H9.5v1h5.039V6ZM6 9.5v9.788h1V9.5H6Zm19 3.654v6.134h1v-6.134h-1Zm-2.5-2.5a2.5 2.5 0 0 1 2.5 2.5h1a3.5 3.5 0 0 0-3.5-3.5v1ZM9.5 6A3.5 3.5 0 0 0 6 9.5h1A2.5 2.5 0 0 1 9.5 7V6ZM6 20v2.5h1V20H6Zm16.5 5h-13v1h13v-1Zm2.5-5v2.5h1V20h-1Zm-3.5-4.5h-11v1h11v-1ZM26 20a4.5 4.5 0 0 0-4.5-4.5v1A3.5 3.5 0 0 1 25 20h1ZM7 20a3.5 3.5 0 0 1 3.5-3.5v-1A4.5 4.5 0 0 0 6 20h1Zm-1 2.5A3.5 3.5 0 0 0 9.5 26v-1A2.5 2.5 0 0 1 7 22.5H6ZM22.5 26a3.5 3.5 0 0 0 3.5-3.5h-1a2.5 2.5 0 0 1-2.5 2.5v1Z" fill="#000"/></svg>