<svg width="32" height="32" fill="none" xmlns="http://www.w3.org/2000/svg"><path d="m9.423 9.423.486.118.002-.01.002-.01-.49-.098ZM12.346 7a.5.5 0 0 0 0-1v1ZM6.014 21.363a.5.5 0 1 0 .972.236l-.972-.236Zm16.563-11.94-.49.098.002.01.002.01.486-.118ZM19.654 6a.5.5 0 0 0 0 1V6Zm5.36 15.599a.5.5 0 1 0 .972-.236l-.972.236Zm-11.706.247A3.154 3.154 0 0 1 10.154 25v1a4.154 4.154 0 0 0 4.154-4.154h-1ZM10.154 25A3.154 3.154 0 0 1 7 21.846H6A4.154 4.154 0 0 0 10.154 26v-1ZM7 21.846a3.154 3.154 0 0 1 3.154-3.154v-1A4.154 4.154 0 0 0 6 21.846h1Zm3.154-3.154a3.154 3.154 0 0 1 3.154 3.154h1a4.154 4.154 0 0 0-4.154-4.154v1ZM25 21.846A3.154 3.154 0 0 1 21.846 25v1A4.154 4.154 0 0 0 26 21.846h-1ZM21.846 25a3.154 3.154 0 0 1-3.154-3.154h-1A4.154 4.154 0 0 0 21.846 26v-1Zm-3.154-3.154a3.154 3.154 0 0 1 3.154-3.154v-1a4.154 4.154 0 0 0-4.154 4.154h1Zm3.154-3.154A3.154 3.154 0 0 1 25 21.846h1a4.154 4.154 0 0 0-4.154-4.154v1Zm-3.654 2.654h-4.384v1h4.384v-1ZM9.913 9.521c.172-.858.469-1.488.864-1.898.382-.397.887-.623 1.57-.623V6c-.933 0-1.707.322-2.291.93-.572.594-.93 1.426-1.123 2.395l.98.196Zm-.976-.216L6.014 21.363l.972.236L9.909 9.54l-.972-.236Zm14.13.02c-.194-.969-.55-1.8-1.123-2.395-.584-.608-1.357-.93-2.29-.93v1c.682 0 1.187.226 1.57.623.394.41.691 1.04.863 1.898l.98-.196Zm-.976.216 2.923 12.058.972-.236-2.923-12.058-.972.236Z" fill="#000"/></svg>