<svg width="32" height="32" viewBox="0 0 32 32" fill="none" xmlns="http://www.w3.org/2000/svg">
<path d="M6.52908 9.08394L7.02908 9.08498L6.52908 9.08394ZM6.50342 21.4699L7.00342 21.471L6.50342 21.4699ZM22.9931 7.15721L22.8663 6.67355V6.67355L22.9931 7.15721ZM16.7937 8.7823L16.9205 9.26596H16.9205L16.7937 8.7823ZM24.0065 23.4095L23.8799 22.9258L24.0065 23.4095ZM16.7753 25.3016L16.9019 25.7853L16.7753 25.3016ZM15.2749 8.78297L15.4012 8.2992L15.2749 8.78297ZM9.03451 7.15301L9.16087 6.66924L9.03451 7.15301ZM15.259 25.3023L15.1329 25.7861L15.259 25.3023ZM7.99883 23.4094L8.12498 22.9255H8.12498L7.99883 23.4094ZM16.5002 9.42309C16.5002 9.14695 16.2764 8.92309 16.0002 8.92309C15.7241 8.92309 15.5002 9.14695 15.5002 9.42309H16.5002ZM15.5002 24.7692C15.5002 25.0454 15.7241 25.2692 16.0002 25.2692C16.2764 25.2692 16.5002 25.0454 16.5002 24.7692H15.5002ZM25.0002 9.09185V21.4746H26.0002V9.09185H25.0002ZM6.02908 9.08291L6.00342 21.4689L7.00342 21.471L7.02908 9.08498L6.02908 9.08291ZM22.8663 6.67355L16.667 8.29864L16.9205 9.26596L23.1199 7.64087L22.8663 6.67355ZM23.8799 22.9258L16.6488 24.8179L16.9019 25.7853L24.1331 23.8932L23.8799 22.9258ZM15.4012 8.2992L9.16087 6.66924L8.90815 7.63678L15.1485 9.26674L15.4012 8.2992ZM15.3852 24.8185L8.12498 22.9255L7.87268 23.8932L15.1329 25.7861L15.3852 24.8185ZM16.667 8.29864C16.2521 8.4074 15.8162 8.40759 15.4012 8.2992L15.1485 9.26674C15.7295 9.41849 16.3397 9.41822 16.9205 9.26596L16.667 8.29864ZM16.6488 24.8179C16.2346 24.9263 15.7995 24.9265 15.3852 24.8185L15.1329 25.7861C15.7129 25.9373 16.322 25.9371 16.9019 25.7853L16.6488 24.8179ZM7.02908 9.08498C7.03111 8.1039 7.95891 7.38884 8.90815 7.63678L9.16087 6.66924C7.57881 6.25601 6.03247 7.44777 6.02908 9.08291L7.02908 9.08498ZM6.00342 21.4689C6.00106 22.6086 6.76983 23.6056 7.87268 23.8932L8.12498 22.9255C7.46327 22.753 7.002 22.1548 7.00342 21.471L6.00342 21.4689ZM25.0002 21.4746C25.0002 22.1568 24.5399 22.7531 23.8799 22.9258L24.1331 23.8932C25.233 23.6054 26.0002 22.6116 26.0002 21.4746H25.0002ZM26.0002 9.09185C26.0002 7.45365 24.4509 6.25815 22.8663 6.67355L23.1199 7.64087C24.0707 7.39163 25.0002 8.10893 25.0002 9.09185H26.0002ZM15.5002 9.42309V24.7692H16.5002V9.42309H15.5002Z" fill="black"/>
</svg>
