<svg width="32" height="32" fill="none" xmlns="http://www.w3.org/2000/svg"><path d="M12.115 9.423a.5.5 0 0 0-1 0h1Zm-1 2.192a.5.5 0 1 0 1 0h-1ZM10.5 25.5V25v.5Zm11 0v.5-.5Zm-15-15H7h-.5Zm0 11H6h.5Zm4-15V6v.5Zm8.959 0V6v.5Zm6.041 6.041h.5-.5Zm0 8.959H25h.5ZM22.287 7.672l-.354.353.354-.353Zm2.041 2.041.354-.354-.354.354Zm-5.174 8.48A3.154 3.154 0 0 1 16 21.345v1a4.154 4.154 0 0 0 4.154-4.154h-1ZM16 21.345a3.154 3.154 0 0 1-3.154-3.154h-1A4.154 4.154 0 0 0 16 22.346v-1Zm-3.154-3.154A3.154 3.154 0 0 1 16 15.038v-1a4.154 4.154 0 0 0-4.154 4.154h1ZM16 15.038a3.154 3.154 0 0 1 3.154 3.154h1A4.154 4.154 0 0 0 16 14.038v1Zm-4.885-5.615v2.192h1V9.423h-1ZM10.5 26h11v-1h-11v1ZM6 10.5v11h1v-11H6ZM10.5 7h8.959V6H10.5v1ZM25 12.541V21.5h1v-8.959h-1Zm-3.067-4.516 2.042 2.042.707-.708-2.041-2.041-.708.707ZM26 12.541a4.5 4.5 0 0 0-1.318-3.182l-.707.708A3.5 3.5 0 0 1 25 12.54h1ZM19.459 7a3.5 3.5 0 0 1 2.474 1.025l.707-.707A4.5 4.5 0 0 0 19.46 6v1ZM7 10.5A3.5 3.5 0 0 1 10.5 7V6A4.5 4.5 0 0 0 6 10.5h1ZM21.5 26a4.5 4.5 0 0 0 4.5-4.5h-1a3.5 3.5 0 0 1-3.5 3.5v1Zm-11-1A3.5 3.5 0 0 1 7 21.5H6a4.5 4.5 0 0 0 4.5 4.5v-1Z" fill="#000"/></svg>