<svg width="32" height="32" fill="none" xmlns="http://www.w3.org/2000/svg"><path d="M9.423 25.5v.5-.5ZM6.5 22.577H7h-.5Zm0-13.154H6h.5Zm19 0H25h.5Zm-5.846 10.23v-.5a.5.5 0 0 0-.5.5h.5Zm0 5.847v.5a.5.5 0 0 0 .5-.5h-.5Zm5.33-4.599.353.354-.354-.354Zm-.354-.353-4.082 4.082.707.707 4.082-4.082-.707-.707ZM22.577 6H9.423v1h13.154V6ZM7 22.577V9.423H6v13.154h1ZM22.577 7A2.423 2.423 0 0 1 25 9.423h1A3.423 3.423 0 0 0 22.577 6v1ZM9.423 6A3.423 3.423 0 0 0 6 9.423h1A2.423 2.423 0 0 1 9.423 7V6Zm0 19A2.423 2.423 0 0 1 7 22.577H6A3.423 3.423 0 0 0 9.423 26v-1Zm10.23 0H9.424v1h10.23v-1ZM26 19.654V9.424h-1v10.23h1ZM20.154 25.5v-5.846h-1V25.5h1Zm-.5-5.346H25.5v-1h-5.846v1Zm.894 4.476c-.237.237-.559.37-.894.37v1c.6 0 1.176-.238 1.6-.663l-.706-.707Zm4.789-3.375c.424-.425.663-1 .663-1.601h-1c0 .335-.133.657-.37.894l.707.707Z" fill="#000"/></svg>