<svg width="32" height="32" fill="none" xmlns="http://www.w3.org/2000/svg"><path d="M19.5 11a.5.5 0 0 0-1 0h1Zm-1 .737a.5.5 0 1 0 1 0h-1Zm2.474 1.473a.5.5 0 1 0-1 0h1Zm-1 .737a.5.5 0 0 0 1 0h-1Zm-.474 1.474a.5.5 0 0 0-1 0h1Zm-1 .737a.5.5 0 1 0 1 0h-1Zm2.474 1.474a.5.5 0 1 0-1 0h1Zm-1 .736a.5.5 0 1 0 1 0h-1Zm-.474 1.474a.5.5 0 0 0-1 0h1Zm-1 .737a.5.5 0 1 0 1 0h-1Zm2.474 1.474a.5.5 0 1 0-1 0h1Zm-1 .736a.5.5 0 0 0 1 0h-1Zm-.474 1.474a.5.5 0 1 0-1 0h1Zm-1 .737a.5.5 0 1 0 1 0h-1ZM6.5 9.5H7h-.5Zm0 13H6h.5Zm16 3V25v.5Zm-13 0v.5-.5Zm16-12.346H25h.5Zm0 9.346h.5-.5Zm-3-12.346v.5-.5Zm-5.77 0-.428.257.146.243h.283v-.5ZM14.54 6.5l.428-.257L14.821 6h-.282v.5ZM9.5 6.5V6v.5Zm9 4.5v.737h1V11h-1Zm1.474 2.21v.737h1v-.737h-1ZM18.5 15.421v.737h1v-.737h-1Zm1.474 2.21v.737h1v-.736h-1ZM18.5 19.843v.737h1v-.737h-1Zm1.474 2.21v.738h1v-.737h-1ZM18.5 24.264V25h1v-.737h-1ZM6 9.5v13h1v-13H6ZM22.5 25h-13v1h13v-1ZM25 13.154V22.5h1v-9.346h-1Zm-2.5-3.5h-5.77v1h5.77v-1Zm-5.34.243-2.193-3.654-.857.514 2.192 3.654.858-.514ZM14.539 6H9.5v1h5.039V6ZM26 13.154a3.5 3.5 0 0 0-3.5-3.5v1a2.5 2.5 0 0 1 2.5 2.5h1ZM7 9.5A2.5 2.5 0 0 1 9.5 7V6A3.5 3.5 0 0 0 6 9.5h1Zm-1 13A3.5 3.5 0 0 0 9.5 26v-1A2.5 2.5 0 0 1 7 22.5H6ZM22.5 26a3.5 3.5 0 0 0 3.5-3.5h-1a2.5 2.5 0 0 1-2.5 2.5v1Z" fill="#000"/></svg>