<svg width="32" height="32" fill="none" xmlns="http://www.w3.org/2000/svg"><path d="M21 10v.5-.5Zm-5.1 0-.429.257.146.243h.283V10ZM14 6.833l.429-.257-.146-.243H14v.5Zm-3.967 0v-.5.5ZM24 13h-.5.5ZM7.033 9.833h-.5.5Zm1.038 7.764-.49-.101.49.1ZM6.995 22.83l.49.1-.49-.1Zm14.975 2.403v.5-.5Zm-13.017 0v.5-.5Zm16.053-6.83-.49-.1.49.1Zm-1.077 5.233.49.101-.49-.1ZM23.047 16v-.5.5ZM10.03 16v.5-.5ZM21 9.5h-5.1v1H21v-1Zm-4.671.243-1.9-3.167-.858.514 1.9 3.167.858-.514ZM14 6.333h-3.967v1H14v-1ZM23.5 13v3h1v-3h-1ZM21 10.5a2.5 2.5 0 0 1 2.5 2.5h1A3.5 3.5 0 0 0 21 9.5v1ZM10.033 6.333a3.5 3.5 0 0 0-3.5 3.5h1a2.5 2.5 0 0 1 2.5-2.5v-1ZM7.582 17.496l-1.077 5.233.98.202 1.076-5.233-.98-.202Zm14.388 7.237H8.953v1H21.97v-1Zm2.546-6.43-1.077 5.233.98.201 1.076-5.233-.98-.202Zm-1.47-2.803H10.03v1h13.017v-1Zm2.45 3.004a2.5 2.5 0 0 0-2.45-3.004v1a1.5 1.5 0 0 1 1.47 1.802l.98.202ZM8.56 17.698a1.5 1.5 0 0 1 1.47-1.198v-1a2.5 2.5 0 0 0-2.45 1.996l.98.202Zm-2.056 5.031a2.5 2.5 0 0 0 2.448 3.004v-1a1.5 1.5 0 0 1-1.469-1.802l-.98-.202Zm15.465 3.004a2.5 2.5 0 0 0 2.448-1.996l-.98-.201a1.5 1.5 0 0 1-1.468 1.197v1ZM6.533 9.833V22.5h1V9.833h-1Z" fill="#000"/></svg>