<svg width="32" height="32" viewBox="0 0 32 32" fill="none" xmlns="http://www.w3.org/2000/svg">
<path d="M20.5 8.69231H21.5C22.6046 8.69231 23.5 9.58774 23.5 10.6923L23.5 23.5C23.5 24.6046 22.6046 25.5 21.5 25.5L10.5 25.5C9.39545 25.5 8.50002 24.6046 8.50002 23.5L8.5 10.6923C8.5 9.58774 9.39543 8.69231 10.5 8.69231H11.5M12.25 16.7308H18.25M12.25 20.3846H15.25M16 6.5C16.4702 6.5 16.8899 6.71079 17.1649 7.04067C17.5186 7.46487 17.9477 7.96154 18.5 7.96154H19.5C20.0523 7.96154 20.5 8.40925 20.5 8.96154V9.88462C20.5 10.4369 20.0523 10.8846 19.5 10.8846H12.5C11.9477 10.8846 11.5 10.4369 11.5 9.88462V8.96154C11.5 8.40925 11.9477 7.96154 12.5 7.96154H13.5C14.0523 7.96154 14.4815 7.46487 14.8351 7.04067C15.1102 6.71079 15.5298 6.5 16 6.5Z" stroke="black" stroke-linecap="round"/>
</svg>
