<svg width="32" height="32" fill="none" xmlns="http://www.w3.org/2000/svg"><path d="m8.692 11.615-.353-.353-.147.146v.207h.5ZM13.808 6.5V6H13.6l-.147.146.354.354Zm9.5 2.923h-.5.5Zm0 9.5v.5h.5v-.5h-.5Zm-14.616 0h-.5v.5h.5v-.5Zm5.847-6.577v.5h.5v-.5h-.5ZM6.5 18.423a.5.5 0 0 0 0 1v-1Zm19 1a.5.5 0 0 0 0-1v1ZM9.654 23.308a.5.5 0 1 0 1 0h-1Zm1-1.462a.5.5 0 0 0-1 0h1Zm2.654 3.654a.5.5 0 1 0 1 0h-1Zm1-3.654a.5.5 0 1 0-1 0h1Zm2.654 1.462a.5.5 0 1 0 1 0h-1Zm1-1.462a.5.5 0 1 0-1 0h1Zm2.653 3.654a.5.5 0 1 0 1 0h-1Zm1-3.654a.5.5 0 1 0-1 0h1ZM9.045 11.97l5.116-5.115-.707-.708-5.115 5.116.707.707Zm13.763-2.546v9.5h1v-9.5h-1ZM20.385 7a2.423 2.423 0 0 1 2.423 2.423h1A3.423 3.423 0 0 0 20.385 6v1Zm-6.577 0h.73V6h-.73v1Zm.73 0h5.847V6h-5.847v1Zm-6.346 4.615v.731h1v-.73h-1Zm0 .731v6.577h1v-6.577h-1ZM14.04 6.5v5.846h1V6.5h-1Zm.5 5.346H8.692v1h5.847v-1Zm-5.847 7.577h14.616v-1H8.692v1Zm-2.192 0h19v-1h-19v1Zm4.154 3.885v-1.462h-1v1.462h1Zm3.654 2.192v-3.654h-1V25.5h1Zm3.654-2.192v-1.462h-1v1.462h1Zm3.653 2.192v-3.654h-1V25.5h1Z" fill="#000"/></svg>