<svg width="32" height="32" fill="none" xmlns="http://www.w3.org/2000/svg"><path d="m8.5 11.615-.349-.358-.151.148v.21h.5ZM13.75 6.5V6h-.203l-.146.142.349.358Zm9.75 2.923H23h.5Zm0 13.154h.5-.5Zm-15 0H9h-.5Zm6-10.23v.5h.5v-.5h-.5Zm-6 0H8h.5Zm4.5 6.076a.5.5 0 0 0 0 1v-1Zm6 1a.5.5 0 0 0 0-1v1Zm-10.151-7.45 5.25-5.115-.698-.716-5.25 5.115.698.716ZM11.5 26h9v-1h-9v1ZM23 9.423v13.154h1V9.423h-1ZM11.5 25C10.107 25 9 23.903 9 22.577H8C8 24.48 9.58 26 11.5 26v-1Zm9 1c1.92 0 3.5-1.52 3.5-3.423h-1C23 23.903 21.893 25 20.5 25v1Zm0-19C21.893 7 23 8.097 23 9.423h1C24 7.52 22.42 6 20.5 6v1Zm-6.75 0h.75V6h-.75v1Zm.75 0h6V6h-6v1ZM8 11.615v.731h1v-.73H8Zm0 .731v10.23h1v-10.23H8ZM14 6.5v5.846h1V6.5h-1Zm.5 5.346h-6v1h6v-1ZM13 19.423h6v-1h-6v1Z" fill="#000"/></svg>