<svg width="32" height="32" viewBox="0 0 32 32" fill="none" xmlns="http://www.w3.org/2000/svg">
<path d="M25.1468 25.8539C25.3422 26.049 25.6588 26.0487 25.8539 25.8532C26.049 25.6578 26.0487 25.3412 25.8532 25.1461L25.1468 25.8539ZM20.842 20.8505L20.4887 20.4967L20.842 20.8505ZM14.9038 22.8077C10.5387 22.8077 7 19.269 7 14.9038H6C6 19.8213 9.98639 23.8077 14.9038 23.8077V22.8077ZM7 14.9038C7 10.5387 10.5387 7 14.9038 7V6C9.98639 6 6 9.98639 6 14.9038H7ZM14.9038 7C19.269 7 22.8077 10.5387 22.8077 14.9038H23.8077C23.8077 9.98639 19.8213 6 14.9038 6V7ZM22.8077 14.9038C22.8077 17.0886 21.9219 19.0656 20.4887 20.4967L21.1953 21.2044C22.8087 19.5933 23.8077 17.3647 23.8077 14.9038H22.8077ZM20.4887 20.4967C19.0581 21.9252 17.0845 22.8077 14.9038 22.8077V23.8077C17.3601 23.8077 19.5849 22.8124 21.1953 21.2044L20.4887 20.4967ZM20.4888 21.2044L25.1468 25.8539L25.8532 25.1461L21.1952 20.4967L20.4888 21.2044Z" fill="black"/>
</svg>
