<svg width="32" height="32" viewBox="0 0 32 32" fill="none" xmlns="http://www.w3.org/2000/svg">
<path d="M15.5 19C15.5 19.2761 15.7238 19.5 16 19.5C16.2761 19.5 16.5 19.2761 16.5 19H15.5ZM16 4L16.3325 3.62662C16.143 3.45779 15.857 3.45779 15.6674 3.62662L16 4ZM11.6253 7.22662C11.4191 7.41028 11.4008 7.72633 11.5845 7.93254C11.7681 8.13876 12.0842 8.15704 12.2904 7.97338L11.6253 7.22662ZM19.7095 7.97338C19.9157 8.15704 20.2318 8.13876 20.4155 7.93254C20.5991 7.72633 20.5808 7.41028 20.3746 7.22662L19.7095 7.97338ZM12.16 11.5001C12.4362 11.5001 12.66 11.2762 12.66 11.0001C12.66 10.7239 12.4362 10.5001 12.16 10.5001V11.5001ZM19.84 10.5001C19.5639 10.5001 19.34 10.7239 19.34 11.0001C19.34 11.2762 19.5639 11.5001 19.84 11.5001V10.5001ZM16.5 19V4H15.5V19H16.5ZM12.2904 7.97338L16.3325 4.37338L15.6674 3.62662L11.6253 7.22662L12.2904 7.97338ZM15.6674 4.37338L19.7095 7.97338L20.3746 7.22662L16.3325 3.62662L15.6674 4.37338ZM25.1 12.7143V26.2858H26.1V12.7143H25.1ZM23.8857 27.5001H8.11431V28.5001H23.8857V27.5001ZM6.90002 26.2858V12.7143H5.90002V26.2858H6.90002ZM8.11431 11.5001H12.16V10.5001H8.11431V11.5001ZM19.84 11.5001H23.8857V10.5001H19.84V11.5001ZM8.11431 27.5001C7.44368 27.5001 6.90002 26.9564 6.90002 26.2858H5.90002C5.90002 27.5087 6.89139 28.5001 8.11431 28.5001V27.5001ZM25.1 26.2858C25.1 26.9564 24.5564 27.5001 23.8857 27.5001V28.5001C25.1087 28.5001 26.1 27.5087 26.1 26.2858H25.1ZM26.1 12.7143C26.1 11.4914 25.1087 10.5001 23.8857 10.5001V11.5001C24.5564 11.5001 25.1 12.0437 25.1 12.7143H26.1ZM6.90002 12.7143C6.90002 12.0437 7.44368 11.5001 8.11431 11.5001V10.5001C6.89139 10.5001 5.90002 11.4914 5.90002 12.7143H6.90002Z" fill="black"/>
</svg>
