<svg width="32" height="32" viewBox="0 0 32 32" fill="none" xmlns="http://www.w3.org/2000/svg">
<path d="M20.1456 22.9248C19.3659 23.7549 19.5551 23.6757 17.8434 24.565C17.3589 24.7197 16.7868 24.7939 16.127 24.7877C15.1153 24.778 14.3244 24.5315 13.7543 24.0879C13.1842 23.6443 12.9225 23.0841 12.9254 22.3672C12.9265 22.0884 12.9276 21.8095 12.9727 21.5311C13.0178 21.2527 13.063 20.9345 13.1964 20.5773L14.2654 17.2416C14.3546 16.9238 14.4438 16.6059 14.4889 16.3276C14.534 16.0492 14.5791 15.7708 14.5801 15.5318C14.5818 15.0936 14.4949 14.814 14.2756 14.6526C14.1003 14.4916 13.7047 14.4081 13.1769 14.4031C12.913 14.4006 12.6489 14.4379 12.3407 14.5146C12.0764 14.5917 11.9183 14.6001 11.6982 14.6378L11.8497 14.458C12.3637 13.8258 13.1816 13.2082 13.8421 13.0551C14.4587 12.8618 15.0748 12.7881 15.6027 12.7931C16.6144 12.8027 17.3612 13.0489 17.9313 13.4924C18.4574 13.9356 18.7632 14.4962 18.7603 15.2132C18.7597 15.3725 18.7587 15.6115 18.7133 15.9695C18.6679 16.3276 18.6225 16.6856 18.4894 16.9632L17.4205 20.2989C17.3314 20.5769 17.2423 20.8549 17.1969 21.2129C17.1075 21.5706 17.1066 21.8096 17.1058 22.0087C17.104 22.4469 17.1907 22.7663 17.41 22.9278C17.6293 23.0892 18.0249 23.1726 18.5528 23.1777C18.8167 23.1802 19.0808 23.1429 19.433 23.0666C19.7412 22.9898 19.9615 22.9123 20.1376 22.8741L20.1456 22.9248Z" stroke="black" stroke-miterlimit="10" stroke-linecap="round" stroke-linejoin="round"/>
<path d="M20.4136 8.3195C20.5959 9.4678 19.8288 10.5439 18.7001 10.7231C17.5715 10.9023 16.5088 10.1167 16.3265 8.96837C16.1442 7.82008 16.9113 6.74395 18.04 6.56477C19.1686 6.38559 20.2313 7.17121 20.4136 8.3195Z" stroke="black" stroke-miterlimit="10" stroke-linecap="round" stroke-linejoin="round"/>
</svg>
