<svg width="32" height="32" fill="none" xmlns="http://www.w3.org/2000/svg"><path d="M15.042 6.5V7v-.5Zm-7.065 0V7v-.5ZM6.5 7.968H7h-.5Zm0 7.028H6h.5Zm9.078-8.266-.362.344.362-.344Zm9.114 9.575-.362.345.362-.345Zm-.057 4.094-.353-.355.353.355Zm-4.267 4.241.353.355-.352-.355ZM6.726 15.524l-.347.36.347-.36Zm9.5 9.149-.347.36.347-.36ZM15.042 7H7.977V6h7.065v1ZM7 7.968v7.028H6V7.968h1Zm8.94-1.583 9.114 9.576-.724.69-9.114-9.577.725-.69Zm9.048 14.368-4.267 4.242-.705-.71 4.267-4.24.704.708ZM7.07 15.163l9.501 9.15-.693.72-9.501-9.15.693-.72Zm13.65 9.832a3.466 3.466 0 0 1-4.842.038l.693-.72a2.466 2.466 0 0 0 3.444-.027l.705.709Zm4.333-9.034a3.423 3.423 0 0 1-.066 4.792l-.706-.709a2.423 2.423 0 0 0 .048-3.394l.724-.69ZM7.977 7A.972.972 0 0 0 7 7.968H6C6 6.878 6.888 6 7.977 6v1Zm7.065-1c.34 0 .664.139.899.385l-.725.69A.24.24 0 0 0 15.042 7V6ZM7 14.996c0 .063.025.123.071.167l-.693.72A1.232 1.232 0 0 1 6 14.997h1Zm5.645-3.725c0-.735-.6-1.335-1.346-1.335v-1a2.34 2.34 0 0 1 2.346 2.335h-1Zm-1.346-1.335c-.746 0-1.346.6-1.346 1.335h-1A2.34 2.34 0 0 1 11.3 8.936v1ZM9.953 11.27c0 .734.6 1.334 1.346 1.334v1a2.34 2.34 0 0 1-2.346-2.334h1Zm1.346 1.334c.746 0 1.346-.6 1.346-1.334h1a2.34 2.34 0 0 1-2.346 2.334v-1Z" fill="#000"/></svg>