<svg width="32" height="32" fill="none" xmlns="http://www.w3.org/2000/svg"><path d="m5.542 10.52.496.06-.496-.06Zm.107 17.568-.494.077.494-.077Zm15.106.19-.322.384.322-.383Zm-1.485-1.247.321-.383-.322.383Zm-.842-.027.296.402-.296-.402Zm-1.855 1.364-.296-.403.296.403Zm-.807 0 .296-.403-.296.403Zm-1.884-1.385-.296.403.296-.403Zm-.807 0 .296.403-.296-.403Zm-1.884 1.385-.296-.403.296.403Zm-.807 0 .296-.403-.296.403ZM8.53 27.004l-.296.402.296-.402Zm-.842.027-.321-.383.321.383Zm-1.492 1.254.322.382-.322-.383Zm15.106-.207-.495-.069.495.07ZM7.213 8.901l.05.497-.05-.497Zm14.924 15.978a.5.5 0 1 0-.997-.072l.997.072ZM8.617 9.282a.5.5 0 1 0-.07-.998l.07.998Zm16.19-5.5.042-.498-.042.499Zm-12.403-.027.051.497-.05-.497Zm-1.67 1.619.496.061-.496-.061Zm.106 17.568-.494.078.494-.078Zm15.724-17.44-.498.045.498-.045Zm-.071 17.43-.495-.068.495.069Zm-.547.201-.321.383.321-.383Zm-1.485-1.248.322-.383-.322.383Zm-.841-.027.296.403-.296-.403Zm-1.856 1.364-.296-.402.296.402Zm-.807 0 .296-.402-.296.402Zm-1.883-1.385-.297.403.297-.402Zm-.808 0 .297.403-.296-.402Zm-1.883 1.386-.296-.403.296.402Zm-.807 0 .296-.403-.296.402Zm-1.856-1.365-.296.403.296-.403Zm-.841.027.322.383-.322-.383Zm-1.492 1.254.322.383-.322-.383ZM13.289 7.85a.5.5 0 0 0 0 1v-1Zm5.045 1a.5.5 0 1 0 0-1v1Zm-5.045 2.957a.5.5 0 0 0 0 1v-1Zm10.762 1a.5.5 0 1 0 0-1v1ZM13.29 15.764a.5.5 0 0 0 0 1v-1Zm10.762 1a.5.5 0 1 0 0-1v1ZM7.675 19.32a.5.5 0 0 0 0 1v-1Zm2.142 1a.5.5 0 1 0 0-1v1Zm-2.142-4.975a.5.5 0 0 0 0 1v-1Zm2.142 1a.5.5 0 1 0 0-1v1Zm-4.771-5.887c-.502 4.068-.97 10.797.109 17.707l.988-.154c-1.06-6.783-.601-13.409-.105-17.43l-.992-.123Zm16.03 17.438-1.485-1.248-.643.765 1.485 1.249.644-.766Zm-2.944-1.295-1.855 1.364.592.806 1.855-1.364-.592-.806Zm-2.07 1.364-1.884-1.385-.592.806 1.883 1.385.593-.806Zm-3.283-1.385-1.884 1.385.593.806 1.883-1.385-.592-.806Zm-2.098 1.385-1.856-1.364-.592.806 1.855 1.364.593-.806Zm-3.315-1.317-1.492 1.254.643.765 1.492-1.254-.643-.765Zm1.46-.047a1.183 1.183 0 0 0-1.46.047l.643.765a.183.183 0 0 1 .224-.006l.592-.806Zm2.07 1.364a.183.183 0 0 1-.216 0l-.592.806c.415.305.984.305 1.4 0l-.593-.806Zm3.282-1.385a1.183 1.183 0 0 0-1.4 0l.593.806a.183.183 0 0 1 .215 0l.592-.806Zm2.099 1.385a.183.183 0 0 1-.215 0l-.593.806c.416.305.985.305 1.4 0l-.592-.806Zm3.314-1.317a1.183 1.183 0 0 0-1.459-.047l.592.806a.183.183 0 0 1 .224.006l.643-.765Zm1.215 1.361a.18.18 0 0 1 .112-.14.163.163 0 0 1 .159.027l-.644.766c.484.406 1.27.153 1.363-.514l-.99-.139Zm-15.651.156c.103.658.88.907 1.362.502l-.643-.765a.163.163 0 0 1 .157-.029c.048.018.1.067.112.138l-.988.154ZM7.162 8.403a2.361 2.361 0 0 0-2.116 2.055l.992.123a1.361 1.361 0 0 1 1.226-1.183l-.102-.995ZM21.14 24.807a48.33 48.33 0 0 1-.334 3.202l.99.139c.15-1.067.261-2.163.341-3.27l-.997-.071ZM8.547 8.284c-.467.033-.93.072-1.385.12l.102.994c.443-.046.895-.084 1.353-.116l-.07-.998Zm16.302-5c-3.104-.257-8.158-.472-12.496-.026l.102.994c4.25-.436 9.234-.227 12.31.029l.084-.997ZM10.238 5.313c-.503 4.067-.97 10.796.108 17.707l.988-.155c-1.059-6.782-.6-13.409-.104-17.43l-.992-.122Zm15.828.234c.397 4.401.765 11.364-.068 17.317l.99.138c.85-6.069.473-13.125.074-17.545l-.996.09Zm.202 17.203-1.485-1.248-.644.766 1.486 1.248.643-.765Zm-2.945-1.295-1.855 1.365.593.805 1.855-1.364-.593-.806Zm-2.07 1.365-1.883-1.385-.593.805 1.884 1.385.592-.805Zm-3.283-1.385-1.883 1.385.592.805 1.884-1.385-.593-.805Zm-2.098 1.385-1.855-1.365-.593.806 1.856 1.364.592-.805Zm-3.315-1.318-1.492 1.254.644.766 1.492-1.254-.644-.766Zm1.46-.047a1.183 1.183 0 0 0-1.46.047l.644.766a.183.183 0 0 1 .223-.007l.593-.806Zm2.07 1.365a.183.183 0 0 1-.215 0l-.592.805c.415.306.984.306 1.4 0l-.593-.805Zm3.283-1.385a1.183 1.183 0 0 0-1.4 0l.593.805a.183.183 0 0 1 .214 0l.593-.805Zm2.098 1.385a.183.183 0 0 1-.215 0l-.592.805c.415.306.984.306 1.4 0l-.593-.805Zm3.315-1.318a1.183 1.183 0 0 0-1.46-.047l.593.806a.183.183 0 0 1 .223.007l.644-.766Zm1.215 1.362a.179.179 0 0 1 .112-.141.163.163 0 0 1 .158.027l-.643.766c.484.407 1.27.154 1.363-.514l-.99-.138Zm-15.652.156c.103.658.88.907 1.363.502l-.644-.766a.163.163 0 0 1 .158-.028c.048.017.1.066.111.137l-.988.155Zm2.007-19.762a2.361 2.361 0 0 0-2.115 2.055l.992.122a1.361 1.361 0 0 1 1.225-1.183l-.102-.994ZM24.766 4.28c.7.058 1.239.595 1.3 1.266l.996-.09a2.405 2.405 0 0 0-2.213-2.173l-.083.997ZM13.289 8.85h5.045v-1h-5.045v1Zm0 3.957H24.05v-1H13.29v1Zm0 3.957H24.05v-1H13.29v1ZM7.675 20.32h2.142v-1H7.675v1Zm0-3.975h2.142v-1H7.675v1Z" fill="#000"/></svg>