<svg width="32" height="32" viewBox="0 0 32 32" fill="none" xmlns="http://www.w3.org/2000/svg">
<path d="M4 10C4 8.89543 4.85961 8 5.92 8H26.08C27.1404 8 28 8.89543 28 10V12C28 12.5523 27.5382 12.9831 27.0213 13.1777C25.9125 13.595 25.12 14.7011 25.12 16C25.12 17.2989 25.9125 18.405 27.0213 18.8223C27.5382 19.0169 28 19.4477 28 20V22C28 23.1046 27.1404 24 26.08 24H5.92C4.85961 24 4 23.1046 4 22V20C4 19.4477 4.46184 19.0169 4.97873 18.8223C6.08752 18.405 6.88 17.2989 6.88 16C6.88 14.7011 6.08752 13.595 4.97873 13.1777C4.46184 12.9831 4 12.5523 4 12V10Z" stroke="#1A212A" stroke-linecap="round"/>
<line x1="10.5" y1="8.5" x2="10.5" y2="23.5" stroke="#1A212A" stroke-linecap="round" stroke-dasharray="2.6 3.2"/>
</svg>
