<svg width="32" height="32" fill="none" xmlns="http://www.w3.org/2000/svg"><path d="M16.5 19.8a.5.5 0 0 0-1 0h1Zm-1 .95a.5.5 0 0 0 1 0h-1Zm.5-3.087-.374-.332a.5.5 0 0 0-.126.332h.5Zm-.5 2.137v.95h1v-.95h-1Zm-1.85-5.7A2.35 2.35 0 0 1 16 11.75v-1a3.35 3.35 0 0 0-3.35 3.35h1ZM16 11.75a2.35 2.35 0 0 1 2.35 2.35h1c0-1.85-1.5-3.35-3.35-3.35v1Zm-.5 5.913v.237h1v-.237h-1Zm2.85-3.563c0 .53-.346 1.038-.934 1.603-.286.275-.599.535-.916.805a8.94 8.94 0 0 0-.874.823l.748.663a8.03 8.03 0 0 1 .776-.725c.302-.258.645-.544.959-.845.612-.588 1.241-1.352 1.241-2.324h-1ZM25 16a9 9 0 0 1-9 9v1c5.523 0 10-4.477 10-10h-1Zm-9 9a9 9 0 0 1-9-9H6c0 5.523 4.477 10 10 10v-1Zm-9-9a9 9 0 0 1 9-9V6C10.477 6 6 10.477 6 16h1Zm9-9a9 9 0 0 1 9 9h1c0-5.523-4.477-10-10-10v1Z" fill="#000"/></svg>