<svg width="32" height="32" fill="none" xmlns="http://www.w3.org/2000/svg"><path d="m8.842 25.202.301.4-.301-.4Zm4.085-3.084.302.399-.302-.4Zm1.761 0 .301-.4-.3.4Zm4.085 3.084.302-.399-.302.4Zm2.342-12.622a.5.5 0 1 0 0 1v-1ZM6 8.693v15.342h1V8.693H6Zm3.143 16.908 4.086-3.084-.603-.798-4.085 3.084.602.798Zm5.244-3.084 4.085 3.084.603-.798-4.086-3.084-.602.798Zm7.228 1.518V8.525h-1v15.51h1Zm-3.143 1.566c1.293.976 3.143.053 3.143-1.566h-1a.961.961 0 0 1-1.54.768l-.603.798Zm-5.243-3.084a.96.96 0 0 1 1.158 0l.602-.798a1.961 1.961 0 0 0-2.363 0l.603.798ZM6 24.035c0 1.62 1.85 2.542 3.143 1.566l-.602-.798A.961.961 0 0 1 7 24.035H6Zm15.615-15.51c0-.806.72-1.525 1.693-1.525V6c-1.449 0-2.693 1.094-2.693 2.525h1ZM23.308 7C24.28 7 25 7.72 25 8.525h1C26 7.094 24.756 6 23.308 6v1ZM25 8.525v3.093h1V8.525h-1Zm-.962 4.055h-2.923v1h2.924v-1Zm.962-.962c0 .531-.43.962-.962.962v1A1.962 1.962 0 0 0 26 11.618h-1ZM7 8.693C7 7.731 7.73 7 8.574 7V6C7.127 6 6 7.232 6 8.693h1ZM8.574 7h14.734V6H8.574v1Z" fill="#000"/></svg>