<svg width="32" height="32" fill="none" xmlns="http://www.w3.org/2000/svg"><path d="m23.021 5.328.043-.499-.043.499Zm-14.02-.033.052.498-.052-.498ZM7.113 7.171l.496.06-.496-.06Zm.12 20.352-.494.075.494-.075ZM25.007 7.319l-.498.044.498-.044Zm-.08 20.193-.496-.068.496.068Zm-.618.232.326-.379-.326.379Zm-1.679-1.446.326-.38-.326.38Zm-.951-.031.3.399-.3-.4Zm-2.097 1.58-.301-.4.3.4Zm-.913 0 .301-.4-.3.4Zm-2.129-1.604-.3.4.3-.4Zm-.912 0 .3.4-.3-.4Zm-2.13 1.604-.3-.4.3.4Zm-.912 0 .301-.4-.3.4Zm-2.097-1.58-.301.399.301-.4Zm-.951.03.326.38-.326-.38ZM7.85 27.75l.327.38-.327-.38Zm2.15-17.632a.5.5 0 0 0 0 1v-1Zm5.703 1a.5.5 0 1 0 0-1v1ZM10 14.703a.5.5 0 1 0 0 1v-1Zm12.166 1a.5.5 0 0 0 0-1v1Zm-12.166 3.584a.5.5 0 0 0 0 1v-1Zm12.166 1a.5.5 0 1 0 0-1v1Zm.897-15.458c-3.507-.298-9.216-.546-14.115-.03l.104.994c4.809-.506 10.447-.264 13.926.033l.085-.997ZM6.617 7.111c-.568 4.708-1.096 12.493.122 20.487l.989-.15c-1.2-7.87-.68-15.555-.119-20.217l-.992-.12Zm17.892.252c.45 5.1.866 13.175-.078 20.081l.991.135c.96-7.02.534-15.185.083-20.303l-.996.087Zm.126 20.002-1.679-1.446-.652.758 1.679 1.446.652-.758Zm-3.257-1.498-2.097 1.58.602.8 2.097-1.581-.602-.799Zm-2.408 1.58-2.129-1.604-.602.8 2.13 1.604.601-.8Zm-3.643-1.604-2.13 1.605.603.799 2.129-1.605-.602-.799Zm-2.44 1.605-2.097-1.58-.602.798 2.097 1.58.602-.798Zm-3.675-1.53-1.687 1.454.653.757 1.686-1.452-.652-.758Zm1.578-.05a1.258 1.258 0 0 0-1.578.05l.652.759a.257.257 0 0 1 .324-.011l.602-.799Zm2.408 1.58a.257.257 0 0 1-.31 0l-.603.799a1.257 1.257 0 0 0 1.515 0l-.602-.8Zm3.643-1.605a1.257 1.257 0 0 0-1.514 0l.602.8a.257.257 0 0 1 .31 0l.602-.8Zm2.44 1.605a.257.257 0 0 1-.31 0l-.603.799a1.257 1.257 0 0 0 1.515 0l-.602-.8Zm3.675-1.53a1.258 1.258 0 0 0-1.578-.05l.602.798a.258.258 0 0 1 .324.01l.652-.757Zm1.475 1.526a.125.125 0 0 1 .204-.079l-.652.758a.875.875 0 0 0 1.439-.544l-.99-.135Zm-17.692.154a.876.876 0 0 0 1.439.531l-.653-.758a.124.124 0 0 1 .203.076l-.989.151Zm2.21-22.8a2.628 2.628 0 0 0-2.332 2.313l.992.12a1.628 1.628 0 0 1 1.444-1.438l-.104-.995Zm14.03 1.028a1.68 1.68 0 0 1 1.53 1.537l.996-.087a2.68 2.68 0 0 0-2.441-2.447l-.085.997Zm-12.978 5.292h5.703v-1H10v1Zm0 4.585h12.166v-1H10.001v1Zm0 4.584h12.166v-1H10.001v1Z" fill="#000"/></svg>