<svg width="32" height="32" viewBox="0 0 32 32" fill="none" xmlns="http://www.w3.org/2000/svg">
<path d="M6.50001 13.077L25.1829 13.077M10 10.1053C10 10.3814 9.77614 10.6053 9.5 10.6053C9.22386 10.6053 9 10.3814 9 10.1053C9 9.82916 9.22386 9.6053 9.5 9.6053C9.77614 9.6053 10 9.82916 10 10.1053ZM13 10.1053C13 10.3814 12.7761 10.6053 12.5 10.6053C12.2239 10.6053 12 10.3814 12 10.1053C12 9.82916 12.2239 9.6053 12.5 9.6053C12.7761 9.6053 13 9.82916 13 10.1053ZM16 10.1053C16 10.3814 15.7761 10.6053 15.5 10.6053C15.2239 10.6053 15 10.3814 15 10.1053C15 9.82916 15.2239 9.6053 15.5 9.6053C15.7761 9.6053 16 9.82916 16 10.1053ZM22.5769 6.5L9.42308 6.5C7.80871 6.5 6.5 7.8087 6.5 9.42308L6.5 22.5769C6.5 24.1913 7.80871 25.5 9.42308 25.5L22.5769 25.5C24.1913 25.5 25.5 24.1913 25.5 22.5769L25.5 9.42308C25.5 7.80871 24.1913 6.5 22.5769 6.5Z" stroke="black" stroke-linecap="round"/>
</svg>
