<svg width="32" height="32" fill="none" xmlns="http://www.w3.org/2000/svg"><path d="M25 16a9 9 0 0 1-9 9v1c5.523 0 10-4.477 10-10h-1Zm-9 9a9 9 0 0 1-9-9H6c0 5.523 4.477 10 10 10v-1Zm-9-9a9 9 0 0 1 9-9V6C10.477 6 6 10.477 6 16h1Zm9-9a9 9 0 0 1 9 9h1c0-5.523-4.477-10-10-10v1ZM20.053 12.7a.5.5 0 0 0-.707-.707l.707.707Zm-8.106 6.691a.5.5 0 1 0 .707.707l-.707-.707Zm7.399.707a.5.5 0 1 0 .707-.707l-.707.707Zm-6.692-8.105a.5.5 0 0 0-.707.707l.707-.707Zm6.692 0-7.399 7.398.707.707 7.399-7.398-.707-.707Zm.707 7.398a2.717 2.717 0 0 1-.017-.017l-.017-.017a2.733 2.733 0 0 1-.034-.034l-.017-.017-.017-.017-.018-.017-.017-.017-.017-.018-.017-.017-.018-.017-.017-.017-.017-.018-.018-.017-.017-.018a2.88 2.88 0 0 1-.018-.017l-.017-.018-.018-.017-.017-.018-.018-.017-.018-.018-.017-.018-.018-.017-.017-.018-.018-.018-.018-.018-.018-.017-.018-.018a3.012 3.012 0 0 1-.018-.018l-.018-.018-.017-.018-.018-.018-.018-.018-.018-.018a1.544 1.544 0 0 0-.055-.054l-.018-.018-.018-.018-.018-.019-.018-.018a3.132 3.132 0 0 1-.018-.018l-.019-.018-.018-.019-.018-.018-.019-.018-.018-.019-.018-.018-.019-.018-.018-.019-.019-.018-.018-.019-.019-.018a3.236 3.236 0 0 1-.018-.019l-.019-.018-.018-.019-.019-.019-.019-.018-.018-.019-.019-.018a3.288 3.288 0 0 1-.018-.02l-.02-.018-.018-.018-.019-.02-.018-.018-.02-.019a3.323 3.323 0 0 1-.037-.037l-.019-.02-.018-.018-.02-.019-.018-.019-.02-.019-.018-.019-.019-.018-.019-.02L18.66 18l-.019-.02-.019-.018-.019-.02-.019-.018-.019-.02-.019-.019-.019-.019-.02-.019-.018-.019-.02-.019-.018-.019-.02-.02a1.72 1.72 0 0 0-.019-.018l-.019-.02-.02-.019-.018-.019-.02-.02-.019-.018-.019-.02-.02-.019-.018-.019-.02-.02-.019-.019-.02-.019-.018-.019-.02-.02-.019-.019-.02-.019-.019-.02-.019-.019-.02-.019-.019-.02-.019-.019-.02-.019-.019-.02-.02-.019-.018-.019-.02-.02-.02-.019-.019-.02-.019-.019-.02-.019-.019-.02-.02-.019-.019-.02-.019-.019-.02-.02-.019-.018-.02-.02-.019-.02-.02-.019-.019-.02-.019-.019-.02-.02-.019-.018-.02-.02a3.558 3.558 0 0 1-.019-.02l-.02-.019-.019-.02-.02-.019-.018-.02-.02-.019-.02-.019-.019-.02a3.558 3.558 0 0 1-.02-.019l-.019-.02-.02-.019-.018-.02-.02-.019-.02-.019-.019-.02-.02-.019-.019-.02-.019-.019-.02-.019-.019-.02-.02-.019-.019-.02-.019-.019-.02-.019a3.54 3.54 0 0 1-.019-.02l-.02-.019-.018-.02-.02-.018-.02-.02-.018-.02-.02-.018a3.521 3.521 0 0 1-.038-.04l-.02-.018-.02-.02a3.503 3.503 0 0 1-.018-.019l-.02-.02-.019-.018-.02-.02-.018-.019-.02-.02-.019-.018-.02-.02-.018-.019-.02-.02-.019-.018-.019-.02a3.449 3.449 0 0 1-.019-.019l-.02-.019a3.449 3.449 0 0 1-.018-.019l-.02-.019-.018-.02-.02-.018-.019-.02-.019-.018-.019-.02-.019-.018a3.413 3.413 0 0 1-.019-.02l-.019-.018a3.395 3.395 0 0 1-.038-.038l-.019-.02-.019-.018-.019-.02-.019-.018-.018-.02-.02-.018-.018-.019-.019-.019a3.341 3.341 0 0 1-.038-.037l-.018-.019-.02-.019-.018-.018-.019-.02-.018-.018-.019-.019a3.288 3.288 0 0 1-.019-.018l-.018-.019a3.288 3.288 0 0 1-.019-.019l-.019-.018-.018-.019-.019-.018-.018-.019-.019-.018-.018-.019-.019-.018-.018-.019-.019-.018-.018-.019-.018-.018-.019-.018-.018-.019-.018-.018-.019-.018a3.132 3.132 0 0 1-.018-.018l-.018-.019-.018-.018-.018-.018-.019-.018-.018-.018-.018-.018-.018-.018a3.08 3.08 0 0 1-.036-.037l-.018-.018-.018-.017-.018-.018a1.51 1.51 0 0 1-.036-.036l-.017-.018a1.494 1.494 0 0 1-.018-.018l-.018-.018-.018-.017-.017-.018-.018-.018a1.46 1.46 0 0 0-.018-.017l-.017-.018-.018-.018-.018-.017-.017-.018-.018-.017-.017-.018-.017-.017-.018-.017-.017-.018-.018-.017-.017-.017-.017-.018-.017-.017-.017-.017-.018-.017-.017-.017-.017-.017-.017-.017-.017-.017-.017-.017-.017-.017-.017-.017-.016-.017-.017-.017-.017-.017-.017-.016a1.315 1.315 0 0 1-.05-.05 1.299 1.299 0 0 1-.016-.017l-.017-.017-.017-.016-.016-.017-.016-.016-.017-.016-.016-.017a1.253 1.253 0 0 1-.016-.016l-.017-.016-.016-.017-.016-.016-.016-.016-.016-.016-.016-.016-.016-.016-.016-.016-.016-.016-.016-.016-.016-.016-.016-.015-.016-.016-.015-.016-.016-.016-.015-.015-.016-.016-.016-.015-.015-.016-.015-.015-.016-.016-.015-.015-.015-.015-.016-.015-.015-.016a2.157 2.157 0 0 1-.03-.03l-.015-.015-.015-.015-.015-.015-.015-.015-.015-.015-.015-.014-.014-.015-.015-.015-.015-.014-.014-.015-.015-.014-.014-.015-.015-.014-.014-.015-.014-.014-.015-.014-.014-.014-.014-.015-.014-.014-.014-.014-.014-.014-.014-.014-.014-.014-.014-.014-.014-.013-.014-.014-.013-.014a1.75 1.75 0 0 1-.014-.013l-.013-.014-.014-.013-.013-.014-.014-.013-.013-.014-.013-.013a1.662 1.662 0 0 0-.013-.013l-.014-.013-.013-.013-.013-.013-.013-.013-.013-.013-.013-.013-.012-.013-.013-.013-.013-.012-.012-.013-.013-.013a.737.737 0 0 1-.012-.012L13.66 13l-.012-.013-.012-.012-.013-.012-.012-.012-.012-.013a1.375 1.375 0 0 1-.024-.024l-.012-.012a1.33 1.33 0 0 1-.012-.011l-.012-.012-.011-.012-.012-.012-.012-.011a1.252 1.252 0 0 1-.023-.023l-.011-.012-.011-.011-.012-.011-.01-.011-.012-.012-.011-.01-.011-.012-.011-.01-.01-.011a.55.55 0 0 0-.012-.011l-.01-.011a1.074 1.074 0 0 1-.011-.01l-.01-.011-.011-.01-.01-.011-.01-.01a1.005 1.005 0 0 1-.011-.01l-.01-.011a.967.967 0 0 1-.01-.01l-.01-.01-.01-.01-.01-.01-.01-.01-.01-.01-.01-.01-.01-.01-.01-.009-.009-.01-.01-.009-.009-.01-.009-.009-.01-.009-.008-.009-.01-.009-.008-.009-.01-.009-.008-.009-.009-.008-.009-.01-.008-.008-.009-.008-.008-.009-.008-.008-.009-.008-.008-.009a.63.63 0 0 1-.016-.016l-.008-.008-.008-.008-.008-.008-.008-.007-.007-.008a.541.541 0 0 1-.008-.008l-.007-.007-.008-.008-.007-.007-.008-.007-.007-.007-.007-.007a.465.465 0 0 1-.007-.007l-.007-.007-.006-.007-.007-.007-.007-.007a.205.205 0 0 1-.006-.006l-.007-.007-.006-.006-.007-.006-.006-.007-.006-.006-.006-.006a.17.17 0 0 1-.006-.006l-.006-.006-.006-.006-.006-.005-.005-.006-.006-.006a.283.283 0 0 1-.006-.005l-.005-.006a.132.132 0 0 1-.005-.005l-.006-.005-.005-.005-.005-.005-.005-.005-.004-.005a.21.21 0 0 0-.005-.005l-.005-.005-.005-.004-.004-.005-.004-.004-.005-.004-.004-.005-.004-.004-.004-.004-.004-.004-.004-.004-.004-.003-.003-.004-.004-.004-.003-.003-.004-.004-.003-.003-.003-.003-.003-.003-.003-.003-.003-.003-.003-.003-.003-.003-.003-.002-.002-.003-.003-.002-.002-.003-.002-.002-.002-.002-.002-.002-.002-.002-.002-.002-.002-.002-.002-.001-.001-.002-.002-.001-.001-.002-.001-.001-.002-.001v-.001l-.002-.001v-.001h-.001v-.002h-.002v-.001l-.354.353-.354.354h.001v.001h.001v.001l.001.001h.001l.001.002h.001l.002.002v.001l.002.002.002.001.001.002.002.001.002.002.002.002.001.002.002.002.003.002.002.002.002.003.003.002.002.003.003.002.003.003.002.003.003.003.003.003.004.003.003.003.003.004.003.003.004.004.003.003.004.004.004.003.004.004.004.004.004.004.004.004.004.005.005.004c0 .002.002.003.004.005l.004.004.005.005.005.004.004.005.005.005.005.005.005.005.005.005.006.005a.267.267 0 0 0 .005.006l.005.005a.283.283 0 0 0 .006.005l.005.006.006.006.006.005.006.006.005.006.007.006.006.006.006.006.006.007.006.006.007.006.006.007.007.007.007.006.006.007.007.007.007.007.007.007.007.007.007.007.008.007.007.008.008.007.007.008a14928072282.3 14928072282.3 0 0 0 .015.015l.008.007.008.008.008.008a.6.6 0 0 0 .024.024l.008.009.008.008.009.008.008.009.009.008.008.009.009.009.009.008.009.01.008.008.01.01.009.008.009.01.009.008.01.01.009.01.009.009.01.01.01.009.009.01.01.01.01.009.01.01.01.01.01.01.01.01.01.01.01.01.01.01.01.01.01.011.011.01.01.011.011.011.011.01.011.012.01.01.012.011a63649915451.111 63649915451.111 0 0 1 .022.023l.011.01.011.012.011.011.012.011.011.012a1.242 1.242 0 0 0 .023.023l.012.011.012.012.011.012.012.012.012.011a76405821024.314 76405821024.314 0 0 1 .024.024l.012.013.012.012.012.012.013.012a.713.713 0 0 0 .024.025l.013.012.012.013.013.012.012.013.013.013.013.012.012.013.013.013.013.013.013.013.013.013.013.013.014.013.013.013.013.014.013.013.014.013.013.014.014.013a1.737 1.737 0 0 0 .027.027l.013.014.014.014.014.014.014.013.014.014.014.014.014.014.014.014.014.014.014.015.014.014.014.014.015.014.014.015.015.014.014.015.015.014.014.015.015.014.014.015.015.015.015.015.015.014.015.015.015.015.015.015.015.015.015.015.015.016.015.015.015.015.016.015.015.016a62931923733.18 62931923733.18 0 0 0 .046.046l.016.015a129125837531.106 129125837531.106 0 0 0 .047.047l.015.016.016.016.016.016.016.015.016.016.016.016.016.016.016.016.016.016.016.016.016.016.016.017.016.016.017.016.016.016.016.017a142768114078.77 142768114078.77 0 0 1 .05.049l.016.016.017.017.016.017.017.016.016.017.017.017.017.016.017.017.016.017.017.017.017.017.017.017.017.017.017.017.017.017.017.017.017.017.018.017.017.017.017.017.017.018.017.017.018.017.017.018.018.017.017.018.017.017.018.018.017.017.018.018.018.017.017.018.018.017.018.018.017.018.018.018a2.979 2.979 0 0 0 .071.07l.018.019.018.018.018.018a172107569134.25 172107569134.25 0 0 0 .036.036l.018.018.018.018.018.018.018.018.019.018.018.018.018.018a3.132 3.132 0 0 0 .036.037l.019.018.018.018.018.019.018.018.019.019.018.018.019.018.018.019.019.018a3.218 3.218 0 0 0 .055.056l.019.018.018.019.019.018.019.02.018.018.019.018.018.02.02.018a187601495837.848 187601495837.848 0 0 1 .056.056l.018.019a188619176699.348 188619176699.348 0 0 0 .038.038l.019.018.019.02.018.018.02.019.018.019.02.019.018.019.02.019.018.019.019.019.019.019.02.019.018.019.02.019.018.019a193583897666.519 193583897666.519 0 0 0 .096.095l.019.02.02.019.018.019.02.019.019.02.019.018a97851278919.03 97851278919.03 0 0 0 .077.077l.019.02.02.019.019.02.019.018.02.02.018.019a3.521 3.521 0 0 0 .04.039l.018.019.02.02.02.019.018.019.02.02a100407484830.962 100407484830.962 0 0 0 .058.058l.02.019.019.02.02.019.018.02.02.018.02.02.019.02.02.019.019.02.019.018.02.02.019.02.02.019a3.558 3.558 0 0 0 .038.039l.02.02a3.558 3.558 0 0 0 .038.038l.02.02.02.019.019.02.02.019.019.02.019.019.02.019.019.02.02.019a3.558 3.558 0 0 0 .058.058l.019.02.02.02.019.018.02.02.019.02.02.019.018.02.02.018.02.02.019.02.02.019.018.02.02.018.02.02.019.02.019.019.02.019.019.02.019.019.02.019.019.02.019.018.02.02.018.02.02.018.019.02.02.019.018.02.02.018.019.02.02.019.018.019.02.02.019.018.019.02.02.019.018.019.02.02.019.018.019.02.019.018.019.02.019.018.019.02.02.019.018.019.02.019.018.019.02.019.018.019.019.019.019.018.019.02.019.018.019.02.018.018.02.019a94309588349.687 94309588349.687 0 0 1 .037.038l.019.018a93800747918.937 93800747918.937 0 0 1 .056.057l.019.018.018.019.02.019.018.018.018.019.019.018.018.02.02.018.018.018.018.019.019.018.018.019.019.018.018.019.018.018.019.018.018.019.018.018.019.018.018.019a3.132 3.132 0 0 0 .037.036l.018.018.018.019.018.018a3.097 3.097 0 0 0 .036.036l.018.018.018.018.018.018.018.018.018.018.018.018.018.018.018.018.018.018.018.017.018.018a2.979 2.979 0 0 0 .035.036l.018.017.017.018.018.018.018.017.017.018.018.017.017.018a2.88 2.88 0 0 0 .035.035l.018.017.017.018.017.017.018.017.017.018.017.017.017.017.018.017c.005.006.01.012.017.017l.017.017.017.017a77161986346.532 77161986346.532 0 0 0 .05.051l.708-.707Z" fill="#000"/></svg>