<svg width="32" height="32" fill="none" xmlns="http://www.w3.org/2000/svg"><path d="M6.5 9.423H6h.5Zm0 13.154H6h.5ZM22.577 25.5V25v.5Zm-13.154 0v.5-.5ZM25.5 9.423h.5-.5Zm0 13.154H25h.5ZM22.577 6.5V6v.5Zm-13.154 0V7v-.5Zm1.462 8.77.353-.354a.5.5 0 0 0-.707 0l.354.353Zm9.877 10.584a.5.5 0 0 0 .707-.708l-.707.708Zm4.384-3.654a.5.5 0 1 0 .708-.707l-.707.707Zm-4.03-4.738.353-.354a.5.5 0 0 0-.707 0l.353.354ZM7.23 18.922l-.354-.353.354.353ZM22.577 25H9.423v1h13.154v-1ZM25 9.423v13.154h1V9.423h-1ZM22.577 6H9.423v1h13.154V6ZM26 9.423A3.423 3.423 0 0 0 22.577 6v1A2.423 2.423 0 0 1 25 9.423h1Zm-19 0A2.423 2.423 0 0 1 9.423 7V6A3.423 3.423 0 0 0 6 9.423h1ZM6 22.577A3.423 3.423 0 0 0 9.423 26v-1A2.423 2.423 0 0 1 7 22.577H6ZM22.577 26A3.423 3.423 0 0 0 26 22.577h-1A2.423 2.423 0 0 1 22.577 25v1Zm-.5-14.385c0 .935-.758 1.693-1.692 1.693v1a2.692 2.692 0 0 0 2.692-2.693h-1Zm-1.692 1.693a1.692 1.692 0 0 1-1.693-1.693h-1a2.692 2.692 0 0 0 2.693 2.693v-1Zm-1.693-1.693c0-.934.758-1.692 1.693-1.692v-1a2.692 2.692 0 0 0-2.693 2.692h1Zm1.693-1.692c.934 0 1.692.758 1.692 1.692h1a2.692 2.692 0 0 0-2.692-2.692v1Zm5.469 11.57-4.385-4.385-.707.707 4.384 4.385.708-.707Zm-15.323-5.87 6.212 6.211.707-.707-6.212-6.211-.707.707Zm6.212 6.211 4.019 4.02.707-.708-4.02-4.019-.706.707Zm4.019-4.726-4.02 4.02.708.706 4.019-4.019-.707-.707ZM7.584 19.277l3.654-3.654-.707-.707-3.654 3.654.707.707ZM6 9.423v10.23h1V9.424H6Zm0 10.23v2.924h1v-2.923H6Zm.877-1.083-.73.73.707.707.73-.73-.707-.707Z" fill="#000"/></svg>