<svg width="32" height="32" viewBox="0 0 32 32" fill="none" xmlns="http://www.w3.org/2000/svg">
<path d="M20.3846 12.3462V19.2885C20.3846 21.1154 21.1643 21.8462 22.5769 21.8462C24.7692 21.8462 25.5 18.0153 25.5 16C25.5 10.7533 21.2467 6.5 16 6.5C10.7533 6.5 6.5 10.7533 6.5 16C6.5 21.2467 10.7533 25.5 16 25.5M16 20.3846C13.5784 20.3846 11.6154 18.4216 11.6154 16C11.6154 13.5784 13.5784 11.6154 16 11.6154C18.4216 11.6154 20.3846 13.5784 20.3846 16C20.3846 18.4216 18.4216 20.3846 16 20.3846Z" stroke="black" stroke-linecap="round" stroke-linejoin="round"/>
</svg>
