<svg width="32" height="32" fill="none" xmlns="http://www.w3.org/2000/svg"><path d="M16.5 21a.5.5 0 1 0-1 0h1Zm-1 .7a.5.5 0 0 0 1 0h-1Zm1-8.4a.5.5 0 0 0-1 0h1Zm-1 5.25a.5.5 0 1 0 1 0h-1Zm7.652 6.65v-.5.5Zm-14.304 0v.5-.5Zm8.184-17.584.44-.237-.44.237Zm7.88 14.636.44-.237-.44.237ZM14.969 7.616l-.44-.237.44.237Zm-7.88 14.636.44.237-.44-.237ZM15.5 21v.7h1V21h-1Zm0-7.7v5.25h1V13.3h-1Zm7.652 11.4H8.848v1h14.304v-1Zm-6.56-16.847 7.88 14.636.88-.474-7.88-14.636-.88.474Zm-2.064-.474-7.88 14.636.88.474 7.88-14.636-.88-.474ZM16 6.5c-.615 0-1.18.338-1.472.88l.88.473A.672.672 0 0 1 16 7.5v-1Zm1.472.88A1.672 1.672 0 0 0 16 6.5v1c.247 0 .474.136.592.353l.88-.474ZM8.848 24.7a1.5 1.5 0 0 1-1.32-2.211l-.88-.474c-.898 1.665.309 3.685 2.2 3.685v-1Zm14.304 1c1.891 0 3.098-2.02 2.2-3.685l-.88.474a1.5 1.5 0 0 1-1.32 2.211v1Z" fill="#000"/></svg>