<svg width="32" height="32" fill="none" xmlns="http://www.w3.org/2000/svg"><path d="M16 6.5c1.21 0 2.192.982 2.192 2.192 0 .2.13.374.317.442.194.071.385.15.57.237.182.084.397.052.538-.089a2.192 2.192 0 1 1 3.1 3.1.475.475 0 0 0-.088.538c.087.186.166.377.237.57a.475.475 0 0 0 .442.318 2.192 2.192 0 1 1 0 4.384c-.2 0-.374.13-.442.317-.071.194-.15.385-.237.57a.475.475 0 0 0 .088.538 2.192 2.192 0 1 1-3.1 3.1.475.475 0 0 0-.537-.088 7.287 7.287 0 0 1-.57.237.475.475 0 0 0-.318.442 2.192 2.192 0 1 1-4.384 0c0-.2-.13-.374-.317-.442a7.269 7.269 0 0 1-.57-.237.475.475 0 0 0-.538.088 2.192 2.192 0 1 1-3.1-3.1.475.475 0 0 0 .088-.537 7.279 7.279 0 0 1-.237-.57.475.475 0 0 0-.442-.318 2.192 2.192 0 1 1 0-4.384c.2 0 .374-.13.442-.317a7.26 7.26 0 0 1 .237-.57.475.475 0 0 0-.089-.538 2.192 2.192 0 0 1 3.1-3.1c.142.14.357.172.538.088.186-.087.377-.166.57-.237a.475.475 0 0 0 .318-.442c0-1.21.981-2.192 2.192-2.192Z" stroke="#000"/><path d="M20.222 16a4.222 4.222 0 1 1-8.444 0 4.222 4.222 0 0 1 8.444 0Z" stroke="#000"/></svg>