<svg width="32" height="32" viewBox="0 0 32 32" fill="none" xmlns="http://www.w3.org/2000/svg">
<path d="M25 16C25 20.9706 20.9706 25 16 25V26C21.5228 26 26 21.5228 26 16H25ZM16 25C11.0294 25 7 20.9706 7 16H6C6 21.5228 10.4772 26 16 26V25ZM7 16C7 11.0294 11.0294 7 16 7V6C10.4772 6 6 10.4772 6 16H7ZM16 7C20.9706 7 25 11.0294 25 16H26C26 10.4772 21.5228 6 16 6V7Z" fill="black"/>
<path d="M20.0528 12.6998C20.2481 12.5045 20.2481 12.1879 20.0528 11.9926C19.8576 11.7974 19.541 11.7974 19.3457 11.9926L20.0528 12.6998ZM11.9472 19.3912C11.7519 19.5865 11.7519 19.9031 11.9472 20.0983C12.1424 20.2936 12.459 20.2936 12.6543 20.0983L11.9472 19.3912ZM19.3457 20.0983C19.541 20.2936 19.8576 20.2936 20.0528 20.0983C20.2481 19.903 20.2481 19.5865 20.0528 19.3912L19.3457 20.0983ZM12.6543 11.9926C12.459 11.7974 12.1424 11.7974 11.9472 11.9926C11.7519 12.1879 11.7519 12.5045 11.9472 12.6997L12.6543 11.9926ZM19.3457 11.9926L11.9472 19.3912L12.6543 20.0983L20.0528 12.6998L19.3457 11.9926ZM20.0528 19.3912C20.0472 19.3856 20.0415 19.3799 20.0359 19.3742C20.0302 19.3686 20.0246 19.3629 20.0189 19.3573C20.0132 19.3516 20.0075 19.3459 20.0019 19.3402C19.9962 19.3346 19.9905 19.3289 19.9848 19.3232C19.9791 19.3175 19.9734 19.3118 19.9677 19.3061C19.962 19.3004 19.9563 19.2947 19.9506 19.289C19.9449 19.2832 19.9391 19.2775 19.9334 19.2718C19.9277 19.2661 19.922 19.2603 19.9162 19.2546C19.9105 19.2489 19.9047 19.2431 19.899 19.2374C19.8932 19.2316 19.8875 19.2259 19.8817 19.2201C19.876 19.2143 19.8702 19.2086 19.8644 19.2028C19.8586 19.197 19.8529 19.1912 19.8471 19.1855C19.8413 19.1797 19.8355 19.1739 19.8297 19.1681C19.8239 19.1623 19.8181 19.1565 19.8123 19.1507C19.8065 19.1449 19.8007 19.1391 19.7949 19.1332C19.789 19.1274 19.7832 19.1216 19.7774 19.1158C19.7716 19.1099 19.7657 19.1041 19.7599 19.0983C19.754 19.0924 19.7482 19.0866 19.7423 19.0807C19.7365 19.0749 19.7306 19.069 19.7248 19.0632C19.7189 19.0573 19.713 19.0514 19.7072 19.0456C19.7013 19.0397 19.6954 19.0338 19.6895 19.0279C19.6837 19.022 19.6778 19.0162 19.6719 19.0103C19.666 19.0044 19.6601 18.9985 19.6542 18.9926C19.6483 18.9867 19.6424 18.9808 19.6365 18.9748C19.6305 18.9689 19.6246 18.963 19.6187 18.9571C19.6128 18.9512 19.6069 18.9452 19.6009 18.9393C19.595 18.9334 19.589 18.9274 19.5831 18.9215C19.5772 18.9155 19.5712 18.9096 19.5653 18.9036C19.5593 18.8977 19.5533 18.8917 19.5474 18.8858C19.5414 18.8798 19.5355 18.8738 19.5295 18.8679C19.5235 18.8619 19.5175 18.8559 19.5115 18.8499C19.5056 18.8439 19.4996 18.838 19.4936 18.832C19.4876 18.826 19.4816 18.82 19.4756 18.814C19.4696 18.808 19.4636 18.802 19.4576 18.796C19.4516 18.7899 19.4456 18.7839 19.4395 18.7779C19.4335 18.7719 19.4275 18.7659 19.4215 18.7598C19.4154 18.7538 19.4094 18.7478 19.4034 18.7417C19.3973 18.7357 19.3913 18.7297 19.3852 18.7236C19.3792 18.7176 19.3731 18.7115 19.3671 18.7055C19.361 18.6994 19.355 18.6933 19.3489 18.6873C19.3428 18.6812 19.3368 18.6751 19.3307 18.6691C19.3246 18.663 19.3185 18.6569 19.3125 18.6508C19.3064 18.6448 19.3003 18.6387 19.2942 18.6326C19.2881 18.6265 19.282 18.6204 19.2759 18.6143C19.2698 18.6082 19.2637 18.6021 19.2576 18.596C19.2515 18.5899 19.2454 18.5838 19.2393 18.5777C19.2332 18.5715 19.227 18.5654 19.2209 18.5593C19.2148 18.5532 19.2087 18.547 19.2025 18.5409C19.1964 18.5348 19.1903 18.5286 19.1841 18.5225C19.178 18.5164 19.1718 18.5102 19.1657 18.5041C19.1596 18.4979 19.1534 18.4918 19.1472 18.4856C19.1411 18.4795 19.1349 18.4733 19.1288 18.4672C19.1226 18.461 19.1164 18.4548 19.1103 18.4487C19.1041 18.4425 19.0979 18.4363 19.0918 18.4301C19.0856 18.424 19.0794 18.4178 19.0732 18.4116C19.067 18.4054 19.0608 18.3992 19.0546 18.393C19.0485 18.3868 19.0423 18.3806 19.0361 18.3744C19.0299 18.3682 19.0237 18.362 19.0174 18.3558C19.0112 18.3496 19.005 18.3434 18.9988 18.3372C18.9926 18.331 18.9864 18.3248 18.9802 18.3185C18.9739 18.3123 18.9677 18.3061 18.9615 18.2999C18.9553 18.2936 18.949 18.2874 18.9428 18.2812C18.9366 18.275 18.9303 18.2687 18.9241 18.2625C18.9179 18.2562 18.9116 18.25 18.9054 18.2437C18.8991 18.2375 18.8929 18.2312 18.8866 18.225C18.8804 18.2187 18.8741 18.2125 18.8678 18.2062C18.8616 18.2 18.8553 18.1937 18.8491 18.1874C18.8428 18.1812 18.8365 18.1749 18.8302 18.1686C18.824 18.1623 18.8177 18.1561 18.8114 18.1498C18.8051 18.1435 18.7989 18.1372 18.7926 18.131C18.7863 18.1247 18.78 18.1184 18.7737 18.1121C18.7674 18.1058 18.7611 18.0995 18.7548 18.0932C18.7485 18.0869 18.7422 18.0806 18.7359 18.0743C18.7296 18.068 18.7233 18.0617 18.717 18.0554C18.7107 18.0491 18.7044 18.0428 18.6981 18.0365C18.6918 18.0302 18.6855 18.0238 18.6791 18.0175C18.6728 18.0112 18.6665 18.0049 18.6602 17.9986C18.6538 17.9922 18.6475 17.9859 18.6412 17.9796C18.6349 17.9732 18.6285 17.9669 18.6222 17.9606C18.6159 17.9542 18.6095 17.9479 18.6032 17.9416C18.5968 17.9352 18.5905 17.9289 18.5842 17.9225C18.5778 17.9162 18.5715 17.9098 18.5651 17.9035C18.5588 17.8971 18.5524 17.8908 18.5461 17.8844C18.5397 17.8781 18.5333 17.8717 18.527 17.8654C18.5206 17.859 18.5143 17.8526 18.5079 17.8463C18.5015 17.8399 18.4952 17.8336 18.4888 17.8272C18.4824 17.8208 18.4761 17.8144 18.4697 17.8081C18.4633 17.8017 18.4569 17.7953 18.4506 17.789C18.4442 17.7826 18.4378 17.7762 18.4314 17.7698C18.4251 17.7634 18.4187 17.757 18.4123 17.7507C18.4059 17.7443 18.3995 17.7379 18.3931 17.7315C18.3867 17.7251 18.3803 17.7187 18.3739 17.7123C18.3676 17.7059 18.3612 17.6995 18.3548 17.6931C18.3484 17.6867 18.342 17.6803 18.3356 17.6739C18.3292 17.6675 18.3228 17.6611 18.3163 17.6547C18.3099 17.6483 18.3035 17.6419 18.2971 17.6355C18.2907 17.6291 18.2843 17.6227 18.2779 17.6163C18.2715 17.6099 18.2651 17.6034 18.2587 17.597C18.2522 17.5906 18.2458 17.5842 18.2394 17.5778C18.233 17.5714 18.2266 17.5649 18.2201 17.5585C18.2137 17.5521 18.2073 17.5457 18.2009 17.5392C18.1944 17.5328 18.188 17.5264 18.1816 17.52C18.1752 17.5135 18.1687 17.5071 18.1623 17.5007C18.1559 17.4942 18.1494 17.4878 18.143 17.4814C18.1366 17.4749 18.1301 17.4685 18.1237 17.4621C18.1172 17.4556 18.1108 17.4492 18.1044 17.4428C18.0979 17.4363 18.0915 17.4299 18.085 17.4234C18.0786 17.417 18.0722 17.4105 18.0657 17.4041C18.0593 17.3976 18.0528 17.3912 18.0464 17.3848C18.0399 17.3783 18.0335 17.3719 18.027 17.3654C18.0206 17.359 18.0141 17.3525 18.0077 17.3461C18.0012 17.3396 17.9948 17.3331 17.9883 17.3267C17.9819 17.3202 17.9754 17.3138 17.9689 17.3073C17.9625 17.3009 17.956 17.2944 17.9496 17.288C17.9431 17.2815 17.9367 17.275 17.9302 17.2686C17.9237 17.2621 17.9173 17.2557 17.9108 17.2492C17.9043 17.2427 17.8979 17.2363 17.8914 17.2298C17.885 17.2233 17.8785 17.2169 17.872 17.2104C17.8656 17.2039 17.8591 17.1975 17.8526 17.191C17.8462 17.1845 17.8397 17.1781 17.8332 17.1716C17.8268 17.1651 17.8203 17.1587 17.8138 17.1522C17.8073 17.1457 17.8009 17.1393 17.7944 17.1328C17.7879 17.1263 17.7815 17.1198 17.775 17.1134C17.7685 17.1069 17.762 17.1004 17.7556 17.0939C17.7491 17.0875 17.7426 17.081 17.7361 17.0745C17.7297 17.068 17.7232 17.0616 17.7167 17.0551C17.7102 17.0486 17.7038 17.0421 17.6973 17.0357C17.6908 17.0292 17.6843 17.0227 17.6779 17.0162C17.6714 17.0098 17.6649 17.0033 17.6584 16.9968C17.652 16.9903 17.6455 16.9839 17.639 16.9774C17.6325 16.9709 17.626 16.9644 17.6196 16.9579C17.6131 16.9515 17.6066 16.945 17.6001 16.9385C17.5936 16.932 17.5872 16.9255 17.5807 16.9191C17.5742 16.9126 17.5677 16.9061 17.5613 16.8996C17.5548 16.8932 17.5483 16.8867 17.5418 16.8802C17.5353 16.8737 17.5289 16.8672 17.5224 16.8608C17.5159 16.8543 17.5094 16.8478 17.5029 16.8413C17.4965 16.8348 17.49 16.8284 17.4835 16.8219C17.477 16.8154 17.4705 16.8089 17.4641 16.8024C17.4576 16.796 17.4511 16.7895 17.4446 16.783C17.4381 16.7765 17.4317 16.77 17.4252 16.7636C17.4187 16.7571 17.4122 16.7506 17.4058 16.7441C17.3993 16.7377 17.3928 16.7312 17.3863 16.7247C17.3799 16.7182 17.3734 16.7118 17.3669 16.7053C17.3604 16.6988 17.3539 16.6923 17.3475 16.6859C17.341 16.6794 17.3345 16.6729 17.328 16.6664C17.3216 16.66 17.3151 16.6535 17.3086 16.647C17.3022 16.6405 17.2957 16.6341 17.2892 16.6276C17.2827 16.6211 17.2763 16.6146 17.2698 16.6082C17.2633 16.6017 17.2569 16.5952 17.2504 16.5888C17.2439 16.5823 17.2374 16.5758 17.231 16.5694C17.2245 16.5629 17.218 16.5564 17.2116 16.55C17.2051 16.5435 17.1986 16.537 17.1922 16.5306C17.1857 16.5241 17.1792 16.5176 17.1728 16.5112C17.1663 16.5047 17.1599 16.4982 17.1534 16.4918C17.1469 16.4853 17.1405 16.4789 17.134 16.4724C17.1276 16.4659 17.1211 16.4595 17.1146 16.453C17.1082 16.4466 17.1017 16.4401 17.0953 16.4336C17.0888 16.4272 17.0824 16.4207 17.0759 16.4143C17.0694 16.4078 17.063 16.4014 17.0565 16.3949C17.0501 16.3885 17.0436 16.382 17.0372 16.3756C17.0307 16.3691 17.0243 16.3627 17.0178 16.3562C17.0114 16.3498 17.005 16.3433 16.9985 16.3369C16.9921 16.3304 16.9856 16.324 16.9792 16.3176C16.9727 16.3111 16.9663 16.3047 16.9599 16.2982C16.9534 16.2918 16.947 16.2854 16.9405 16.2789C16.9341 16.2725 16.9277 16.2661 16.9212 16.2596C16.9148 16.2532 16.9084 16.2468 16.9019 16.2403C16.8955 16.2339 16.8891 16.2275 16.8827 16.221C16.8762 16.2146 16.8698 16.2082 16.8634 16.2018C16.857 16.1953 16.8505 16.1889 16.8441 16.1825C16.8377 16.1761 16.8313 16.1696 16.8249 16.1632C16.8184 16.1568 16.812 16.1504 16.8056 16.144C16.7992 16.1376 16.7928 16.1312 16.7864 16.1247C16.78 16.1183 16.7735 16.1119 16.7671 16.1055C16.7607 16.0991 16.7543 16.0927 16.7479 16.0863C16.7415 16.0799 16.7351 16.0735 16.7287 16.0671C16.7223 16.0607 16.7159 16.0543 16.7095 16.0479C16.7031 16.0415 16.6967 16.0351 16.6903 16.0287C16.6839 16.0223 16.6776 16.0159 16.6712 16.0095C16.6648 16.0032 16.6584 15.9968 16.652 15.9904C16.6456 15.984 16.6392 15.9776 16.6329 15.9712C16.6265 15.9649 16.6201 15.9585 16.6137 15.9521C16.6074 15.9457 16.601 15.9394 16.5946 15.933C16.5882 15.9266 16.5819 15.9202 16.5755 15.9139C16.5691 15.9075 16.5628 15.9011 16.5564 15.8948C16.55 15.8884 16.5437 15.8821 16.5373 15.8757C16.531 15.8693 16.5246 15.863 16.5183 15.8566C16.5119 15.8503 16.5056 15.8439 16.4992 15.8376C16.4929 15.8312 16.4865 15.8249 16.4802 15.8186C16.4738 15.8122 16.4675 15.8059 16.4612 15.7995C16.4548 15.7932 16.4485 15.7869 16.4421 15.7805C16.4358 15.7742 16.4295 15.7679 16.4232 15.7615C16.4168 15.7552 16.4105 15.7489 16.4042 15.7426C16.3979 15.7362 16.3915 15.7299 16.3852 15.7236C16.3789 15.7173 16.3726 15.711 16.3663 15.7047C16.36 15.6984 16.3537 15.692 16.3474 15.6857C16.3411 15.6794 16.3347 15.6731 16.3284 15.6668C16.3221 15.6605 16.3159 15.6542 16.3096 15.6479C16.3033 15.6416 16.297 15.6354 16.2907 15.6291C16.2844 15.6228 16.2781 15.6165 16.2718 15.6102C16.2655 15.6039 16.2593 15.5976 16.253 15.5914C16.2467 15.5851 16.2404 15.5788 16.2342 15.5725C16.2279 15.5663 16.2216 15.56 16.2154 15.5537C16.2091 15.5475 16.2028 15.5412 16.1966 15.535C16.1903 15.5287 16.1841 15.5225 16.1778 15.5162C16.1716 15.5099 16.1653 15.5037 16.1591 15.4975C16.1528 15.4912 16.1466 15.485 16.1404 15.4787C16.1341 15.4725 16.1279 15.4663 16.1216 15.46C16.1154 15.4538 16.1092 15.4476 16.103 15.4413C16.0967 15.4351 16.0905 15.4289 16.0843 15.4227C16.0781 15.4165 16.0719 15.4102 16.0657 15.404C16.0594 15.3978 16.0532 15.3916 16.047 15.3854C16.0408 15.3792 16.0346 15.373 16.0284 15.3668C16.0222 15.3606 16.016 15.3544 16.0099 15.3482C16.0037 15.342 15.9975 15.3359 15.9913 15.3297C15.9851 15.3235 15.9789 15.3173 15.9728 15.3111C15.9666 15.305 15.9604 15.2988 15.9542 15.2926C15.9481 15.2865 15.9419 15.2803 15.9358 15.2741C15.9296 15.268 15.9234 15.2618 15.9173 15.2557C15.9111 15.2495 15.905 15.2434 15.8988 15.2372C15.8927 15.2311 15.8866 15.2249 15.8804 15.2188C15.8743 15.2127 15.8682 15.2065 15.862 15.2004C15.8559 15.1943 15.8498 15.1882 15.8437 15.182C15.8375 15.1759 15.8314 15.1698 15.8253 15.1637C15.8192 15.1576 15.8131 15.1515 15.807 15.1454C15.8009 15.1393 15.7948 15.1332 15.7887 15.1271C15.7826 15.121 15.7765 15.1149 15.7704 15.1088C15.7643 15.1027 15.7582 15.0966 15.7522 15.0905C15.7461 15.0845 15.74 15.0784 15.7339 15.0723C15.7279 15.0662 15.7218 15.0602 15.7157 15.0541C15.7097 15.0481 15.7036 15.042 15.6976 15.0359C15.6915 15.0299 15.6855 15.0238 15.6794 15.0178C15.6734 15.0118 15.6673 15.0057 15.6613 14.9997C15.6553 14.9937 15.6492 14.9876 15.6432 14.9816C15.6372 14.9756 15.6312 14.9695 15.6252 14.9635C15.6191 14.9575 15.6131 14.9515 15.6071 14.9455C15.6011 14.9395 15.5951 14.9335 15.5891 14.9275C15.5831 14.9215 15.5771 14.9155 15.5711 14.9095C15.5651 14.9035 15.5592 14.8975 15.5532 14.8916C15.5472 14.8856 15.5412 14.8796 15.5353 14.8736C15.5293 14.8677 15.5233 14.8617 15.5174 14.8557C15.5114 14.8498 15.5054 14.8438 15.4995 14.8379C15.4935 14.8319 15.4876 14.826 15.4817 14.82C15.4757 14.8141 15.4698 14.8082 15.4639 14.8022C15.4579 14.7963 15.452 14.7904 15.4461 14.7845C15.4402 14.7785 15.4342 14.7726 15.4283 14.7667C15.4224 14.7608 15.4165 14.7549 15.4106 14.749C15.4047 14.7431 15.3988 14.7372 15.3929 14.7313C15.3871 14.7254 15.3812 14.7195 15.3753 14.7137C15.3694 14.7078 15.3635 14.7019 15.3577 14.696C15.3518 14.6902 15.3459 14.6843 15.3401 14.6785C15.3342 14.6726 15.3284 14.6667 15.3225 14.6609C15.3167 14.6551 15.3108 14.6492 15.305 14.6434C15.2992 14.6375 15.2933 14.6317 15.2875 14.6259C15.2817 14.6201 15.2759 14.6142 15.27 14.6084C15.2642 14.6026 15.2584 14.5968 15.2526 14.591C15.2468 14.5852 15.241 14.5794 15.2352 14.5736C15.2294 14.5678 15.2236 14.562 15.2179 14.5562C15.2121 14.5505 15.2063 14.5447 15.2005 14.5389C15.1948 14.5331 15.189 14.5274 15.1832 14.5216C15.1775 14.5159 15.1717 14.5101 15.166 14.5044C15.1602 14.4986 15.1545 14.4929 15.1488 14.4871C15.143 14.4814 15.1373 14.4757 15.1316 14.47C15.1259 14.4642 15.1201 14.4585 15.1144 14.4528C15.1087 14.4471 15.103 14.4414 15.0973 14.4357C15.0916 14.43 15.0859 14.4243 15.0802 14.4186C15.0745 14.4129 15.0689 14.4072 15.0632 14.4016C15.0575 14.3959 15.0518 14.3902 15.0462 14.3846C15.0405 14.3789 15.0349 14.3732 15.0292 14.3676C15.0236 14.3619 15.0179 14.3563 15.0123 14.3507C15.0066 14.345 15.001 14.3394 14.9954 14.3338C14.9897 14.3281 14.9841 14.3225 14.9785 14.3169C14.9729 14.3113 14.9673 14.3057 14.9617 14.3001C14.9561 14.2945 14.9505 14.2889 14.9449 14.2833C14.9393 14.2777 14.9337 14.2721 14.9282 14.2665C14.9226 14.261 14.917 14.2554 14.9115 14.2498C14.9059 14.2443 14.9003 14.2387 14.8948 14.2332C14.8892 14.2276 14.8837 14.2221 14.8782 14.2165C14.8726 14.211 14.8671 14.2055 14.8616 14.1999C14.856 14.1944 14.8505 14.1889 14.845 14.1834C14.8395 14.1779 14.834 14.1724 14.8285 14.1669C14.823 14.1614 14.8175 14.1559 14.812 14.1504C14.8065 14.1449 14.8011 14.1395 14.7956 14.134C14.7901 14.1285 14.7847 14.123 14.7792 14.1176C14.7738 14.1121 14.7683 14.1067 14.7629 14.1012C14.7574 14.0958 14.752 14.0904 14.7466 14.0849C14.7411 14.0795 14.7357 14.0741 14.7303 14.0687C14.7249 14.0633 14.7195 14.0578 14.7141 14.0524C14.7087 14.047 14.7033 14.0417 14.6979 14.0363C14.6925 14.0309 14.6871 14.0255 14.6817 14.0201C14.6764 14.0148 14.671 14.0094 14.6657 14.004C14.6603 13.9987 14.6549 13.9933 14.6496 13.988C14.6443 13.9826 14.6389 13.9773 14.6336 13.972C14.6283 13.9666 14.6229 13.9613 14.6176 13.956C14.6123 13.9507 14.607 13.9454 14.6017 13.9401C14.5964 13.9348 14.5911 13.9295 14.5858 13.9242C14.5805 13.9189 14.5753 13.9136 14.57 13.9084C14.5647 13.9031 14.5594 13.8978 14.5542 13.8926C14.5489 13.8873 14.5437 13.8821 14.5384 13.8768C14.5332 13.8716 14.528 13.8664 14.5227 13.8611C14.5175 13.8559 14.5123 13.8507 14.5071 13.8455C14.5019 13.8403 14.4967 13.8351 14.4915 13.8299C14.4863 13.8247 14.4811 13.8195 14.4759 13.8143C14.4707 13.8091 14.4656 13.8039 14.4604 13.7988C14.4552 13.7936 14.4501 13.7885 14.4449 13.7833C14.4398 13.7782 14.4346 13.773 14.4295 13.7679C14.4244 13.7628 14.4192 13.7576 14.4141 13.7525C14.409 13.7474 14.4039 13.7423 14.3988 13.7372C14.3937 13.7321 14.3886 13.727 14.3835 13.7219C14.3784 13.7168 14.3734 13.7117 14.3683 13.7067C14.3632 13.7016 14.3582 13.6965 14.3531 13.6915C14.348 13.6864 14.343 13.6814 14.338 13.6763C14.3329 13.6713 14.3279 13.6663 14.3229 13.6613C14.3179 13.6562 14.3128 13.6512 14.3078 13.6462C14.3028 13.6412 14.2978 13.6362 14.2928 13.6312C14.2879 13.6262 14.2829 13.6213 14.2779 13.6163C14.2729 13.6113 14.268 13.6063 14.263 13.6014C14.2581 13.5964 14.2531 13.5915 14.2482 13.5865C14.2432 13.5816 14.2383 13.5767 14.2334 13.5718C14.2285 13.5668 14.2235 13.5619 14.2186 13.557C14.2137 13.5521 14.2088 13.5472 14.2039 13.5423C14.1991 13.5374 14.1942 13.5326 14.1893 13.5277C14.1844 13.5228 14.1796 13.518 14.1747 13.5131C14.1699 13.5082 14.165 13.5034 14.1602 13.4986C14.1554 13.4937 14.1505 13.4889 14.1457 13.4841C14.1409 13.4793 14.1361 13.4745 14.1313 13.4697C14.1265 13.4649 14.1217 13.4601 14.1169 13.4553C14.1121 13.4505 14.1073 13.4457 14.1026 13.4409C14.0978 13.4362 14.093 13.4314 14.0883 13.4267C14.0835 13.4219 14.0788 13.4172 14.0741 13.4125C14.0693 13.4077 14.0646 13.403 14.0599 13.3983C14.0552 13.3936 14.0505 13.3889 14.0458 13.3842C14.0411 13.3795 14.0364 13.3748 14.0317 13.3701C14.0271 13.3654 14.0224 13.3608 14.0177 13.3561C14.0131 13.3515 14.0084 13.3468 14.0038 13.3422C13.9991 13.3375 13.9945 13.3329 13.9899 13.3283C13.9853 13.3237 13.9807 13.319 13.9761 13.3144C13.9715 13.3098 13.9669 13.3052 13.9623 13.3007C13.9577 13.2961 13.9531 13.2915 13.9485 13.2869C13.944 13.2824 13.9394 13.2778 13.9349 13.2733C13.9303 13.2687 13.9258 13.2642 13.9213 13.2596C13.9167 13.2551 13.9122 13.2506 13.9077 13.2461C13.9032 13.2416 13.8987 13.2371 13.8942 13.2326C13.8897 13.2281 13.8852 13.2236 13.8808 13.2191C13.8763 13.2147 13.8718 13.2102 13.8674 13.2058C13.8629 13.2013 13.8585 13.1969 13.854 13.1924C13.8496 13.188 13.8452 13.1836 13.8408 13.1792C13.8364 13.1747 13.832 13.1703 13.8276 13.1659C13.8232 13.1615 13.8188 13.1572 13.8144 13.1528C13.81 13.1484 13.8057 13.144 13.8013 13.1397C13.797 13.1353 13.7926 13.131 13.7883 13.1267C13.7839 13.1223 13.7796 13.118 13.7753 13.1137C13.771 13.1094 13.7667 13.1051 13.7624 13.1008C13.7581 13.0965 13.7538 13.0922 13.7495 13.0879C13.7453 13.0836 13.741 13.0794 13.7367 13.0751C13.7325 13.0709 13.7282 13.0666 13.724 13.0624C13.7198 13.0581 13.7155 13.0539 13.7113 13.0497C13.7071 13.0455 13.7029 13.0413 13.6987 13.0371C13.6945 13.0329 13.6903 13.0287 13.6862 13.0245C13.682 13.0204 13.6778 13.0162 13.6737 13.012C13.6695 13.0079 13.6654 13.0037 13.6612 12.9996C13.6571 12.9955 13.653 12.9914 13.6489 12.9872C13.6448 12.9831 13.6406 12.979 13.6366 12.9749C13.6325 12.9708 13.6284 12.9668 13.6243 12.9627C13.6202 12.9586 13.6162 12.9546 13.6121 12.9505C13.6081 12.9465 13.604 12.9424 13.6 12.9384C13.596 12.9344 13.592 12.9304 13.588 12.9263C13.584 12.9223 13.58 12.9183 13.576 12.9144C13.572 12.9104 13.568 12.9064 13.5641 12.9024C13.5601 12.8985 13.5561 12.8945 13.5522 12.8906C13.5482 12.8866 13.5443 12.8827 13.5404 12.8788C13.5365 12.8749 13.5326 12.8709 13.5287 12.867C13.5248 12.8631 13.5209 12.8593 13.517 12.8554C13.5131 12.8515 13.5093 12.8476 13.5054 12.8438C13.5015 12.8399 13.4977 12.8361 13.4939 12.8322C13.49 12.8284 13.4862 12.8246 13.4824 12.8208C13.4786 12.817 13.4748 12.8132 13.471 12.8094C13.4672 12.8056 13.4634 12.8018 13.4596 12.798C13.4559 12.7943 13.4521 12.7905 13.4484 12.7868C13.4446 12.783 13.4409 12.7793 13.4372 12.7756C13.4335 12.7718 13.4297 12.7681 13.426 12.7644C13.4223 12.7607 13.4187 12.757 13.415 12.7534C13.4113 12.7497 13.4076 12.746 13.404 12.7424C13.4003 12.7387 13.3967 12.7351 13.393 12.7314C13.3894 12.7278 13.3858 12.7242 13.3822 12.7206C13.3786 12.7169 13.375 12.7133 13.3714 12.7098C13.3678 12.7062 13.3642 12.7026 13.3607 12.699C13.3571 12.6955 13.3535 12.6919 13.35 12.6884C13.3465 12.6848 13.3429 12.6813 13.3394 12.6778C13.3359 12.6743 13.3324 12.6708 13.3289 12.6673C13.3254 12.6638 13.3219 12.6603 13.3184 12.6568C13.315 12.6534 13.3115 12.6499 13.3081 12.6465C13.3046 12.643 13.3012 12.6396 13.2978 12.6361C13.2943 12.6327 13.2909 12.6293 13.2875 12.6259C13.2841 12.6225 13.2807 12.6191 13.2774 12.6157C13.274 12.6124 13.2706 12.609 13.2673 12.6057C13.2639 12.6023 13.2606 12.599 13.2573 12.5956C13.2539 12.5923 13.2506 12.589 13.2473 12.5857C13.244 12.5824 13.2407 12.5791 13.2374 12.5758C13.2341 12.5725 13.2309 12.5693 13.2276 12.566C13.2244 12.5627 13.2211 12.5595 13.2179 12.5563C13.2147 12.553 13.2114 12.5498 13.2082 12.5466C13.205 12.5434 13.2018 12.5402 13.1986 12.537C13.1955 12.5338 13.1923 12.5307 13.1891 12.5275C13.186 12.5244 13.1828 12.5212 13.1797 12.5181C13.1766 12.5149 13.1734 12.5118 13.1703 12.5087C13.1672 12.5056 13.1641 12.5025 13.161 12.4994C13.158 12.4963 13.1549 12.4933 13.1518 12.4902C13.1488 12.4871 13.1457 12.4841 13.1427 12.4811C13.1397 12.478 13.1366 12.475 13.1336 12.472C13.1306 12.469 13.1276 12.466 13.1246 12.463C13.1217 12.46 13.1187 12.4571 13.1157 12.4541C13.1128 12.4511 13.1098 12.4482 13.1069 12.4453C13.104 12.4423 13.101 12.4394 13.0981 12.4365C13.0952 12.4336 13.0923 12.4307 13.0894 12.4278C13.0866 12.4249 13.0837 12.4221 13.0808 12.4192C13.078 12.4164 13.0751 12.4135 13.0723 12.4107C13.0695 12.4079 13.0667 12.405 13.0639 12.4022C13.061 12.3994 13.0583 12.3966 13.0555 12.3939C13.0527 12.3911 13.0499 12.3883 13.0472 12.3856C13.0444 12.3828 13.0417 12.3801 13.039 12.3773C13.0362 12.3746 13.0335 12.3719 13.0308 12.3692C13.0281 12.3665 13.0254 12.3638 13.0228 12.3611C13.0201 12.3585 13.0174 12.3558 13.0148 12.3532C13.0121 12.3505 13.0095 12.3479 13.0069 12.3453C13.0043 12.3426 13.0016 12.34 12.9991 12.3374C12.9965 12.3348 12.9939 12.3323 12.9913 12.3297C12.9887 12.3271 12.9862 12.3246 12.9836 12.322C12.9811 12.3195 12.9786 12.317 12.9761 12.3144C12.9736 12.3119 12.9711 12.3094 12.9686 12.3069C12.9661 12.3045 12.9636 12.302 12.9611 12.2995C12.9587 12.2971 12.9562 12.2946 12.9538 12.2922C12.9514 12.2898 12.949 12.2873 12.9465 12.2849C12.9441 12.2825 12.9417 12.2801 12.9394 12.2778C12.937 12.2754 12.9346 12.273 12.9323 12.2707C12.9299 12.2683 12.9276 12.266 12.9253 12.2636C12.9229 12.2613 12.9206 12.259 12.9183 12.2567C12.916 12.2544 12.9138 12.2521 12.9115 12.2499C12.9092 12.2476 12.907 12.2453 12.9047 12.2431C12.9025 12.2409 12.9003 12.2386 12.8981 12.2364C12.8958 12.2342 12.8936 12.232 12.8915 12.2298C12.8893 12.2277 12.8871 12.2255 12.8849 12.2233C12.8828 12.2212 12.8806 12.219 12.8785 12.2169C12.8764 12.2148 12.8743 12.2127 12.8722 12.2106C12.8701 12.2085 12.868 12.2064 12.8659 12.2043C12.8638 12.2022 12.8618 12.2002 12.8597 12.1981C12.8577 12.1961 12.8557 12.1941 12.8537 12.192C12.8516 12.19 12.8496 12.188 12.8477 12.186C12.8457 12.1841 12.8437 12.1821 12.8417 12.1801C12.8398 12.1782 12.8378 12.1762 12.8359 12.1743C12.834 12.1724 12.8321 12.1704 12.8302 12.1685C12.8283 12.1666 12.8264 12.1648 12.8245 12.1629C12.8226 12.161 12.8208 12.1592 12.8189 12.1573C12.8171 12.1555 12.8153 12.1537 12.8135 12.1518C12.8117 12.15 12.8099 12.1482 12.8081 12.1464C12.8063 12.1447 12.8045 12.1429 12.8028 12.1411C12.801 12.1394 12.7993 12.1376 12.7975 12.1359C12.7958 12.1342 12.7941 12.1325 12.7924 12.1308C12.7907 12.1291 12.789 12.1274 12.7874 12.1258C12.7857 12.1241 12.7841 12.1224 12.7824 12.1208C12.7808 12.1192 12.7792 12.1175 12.7776 12.1159C12.776 12.1143 12.7744 12.1127 12.7728 12.1112C12.7712 12.1096 12.7697 12.108 12.7681 12.1065C12.7666 12.1049 12.765 12.1034 12.7635 12.1019C12.762 12.1004 12.7605 12.0989 12.759 12.0974C12.7575 12.0959 12.7561 12.0944 12.7546 12.093C12.7531 12.0915 12.7517 12.0901 12.7503 12.0887C12.7488 12.0872 12.7474 12.0858 12.746 12.0844C12.7446 12.083 12.7433 12.0816 12.7419 12.0803C12.7405 12.0789 12.7392 12.0776 12.7379 12.0762C12.7365 12.0749 12.7352 12.0736 12.7339 12.0723C12.7326 12.071 12.7313 12.0697 12.73 12.0684C12.7288 12.0671 12.7275 12.0659 12.7263 12.0646C12.725 12.0634 12.7238 12.0622 12.7226 12.061C12.7214 12.0598 12.7202 12.0586 12.719 12.0574C12.7178 12.0562 12.7167 12.055 12.7155 12.0539C12.7144 12.0527 12.7132 12.0516 12.7121 12.0505C12.711 12.0494 12.7099 12.0483 12.7088 12.0472C12.7077 12.0461 12.7067 12.045 12.7056 12.044C12.7046 12.0429 12.7035 12.0419 12.7025 12.0409C12.7015 12.0398 12.7005 12.0388 12.6995 12.0378C12.6985 12.0369 12.6975 12.0359 12.6965 12.0349C12.6956 12.034 12.6946 12.033 12.6937 12.0321C12.6928 12.0312 12.6919 12.0303 12.691 12.0294C12.6901 12.0285 12.6892 12.0276 12.6883 12.0267C12.6875 12.0259 12.6866 12.025 12.6858 12.0242C12.685 12.0233 12.6842 12.0225 12.6834 12.0217C12.6826 12.0209 12.6818 12.0201 12.681 12.0194C12.6802 12.0186 12.6795 12.0179 12.6787 12.0171C12.678 12.0164 12.6773 12.0157 12.6766 12.015C12.6759 12.0143 12.6752 12.0136 12.6745 12.0129C12.6739 12.0122 12.6732 12.0116 12.6726 12.011C12.6719 12.0103 12.6713 12.0097 12.6707 12.0091C12.6701 12.0085 12.6695 12.0079 12.6689 12.0073C12.6684 12.0068 12.6678 12.0062 12.6673 12.0057C12.6667 12.0051 12.6662 12.0046 12.6657 12.0041C12.6652 12.0036 12.6647 12.0031 12.6642 12.0026C12.6638 12.0022 12.6633 12.0017 12.6629 12.0013C12.6624 12.0008 12.662 12.0004 12.6616 12C12.6612 11.9996 12.6608 11.9992 12.6604 11.9988C12.6601 11.9984 12.6597 11.9981 12.6594 11.9978C12.659 11.9974 12.6587 11.9971 12.6584 11.9968C12.6581 11.9965 12.6578 11.9962 12.6575 11.9959C12.6573 11.9956 12.657 11.9954 12.6568 11.9952C12.6565 11.9949 12.6563 11.9947 12.6561 11.9945C12.6559 11.9943 12.6557 11.9941 12.6555 11.9939C12.6554 11.9938 12.6552 11.9936 12.6551 11.9935C12.6549 11.9933 12.6548 11.9932 12.6547 11.9931C12.6546 11.993 12.6545 11.9929 12.6545 11.9928C12.6544 11.9928 12.6543 11.9927 12.6543 11.9927C12.6543 11.9927 12.6543 11.9926 12.3007 12.3462C11.9472 12.6997 11.9472 12.6998 11.9472 12.6998C11.9472 12.6998 11.9473 12.6999 11.9474 12.7C11.9474 12.7 11.9475 12.7001 11.9476 12.7002C11.9477 12.7003 11.9478 12.7004 11.948 12.7006C11.9481 12.7007 11.9483 12.7009 11.9484 12.701C11.9486 12.7012 11.9488 12.7014 11.949 12.7016C11.9492 12.7018 11.9494 12.702 11.9497 12.7023C11.9499 12.7025 11.9502 12.7028 11.9504 12.703C11.9507 12.7033 11.951 12.7036 11.9513 12.7039C11.9516 12.7042 11.9519 12.7045 11.9523 12.7049C11.9526 12.7052 11.953 12.7056 11.9533 12.7059C11.9537 12.7063 11.9541 12.7067 11.9545 12.7071C11.9549 12.7075 11.9553 12.7079 11.9558 12.7084C11.9562 12.7088 11.9567 12.7093 11.9571 12.7097C11.9576 12.7102 11.9581 12.7107 11.9586 12.7112C11.9591 12.7117 11.9596 12.7122 11.9602 12.7128C11.9607 12.7133 11.9613 12.7139 11.9618 12.7144C11.9624 12.715 11.963 12.7156 11.9636 12.7162C11.9642 12.7168 11.9648 12.7174 11.9655 12.7181C11.9661 12.7187 11.9668 12.7194 11.9674 12.72C11.9681 12.7207 11.9688 12.7214 11.9695 12.7221C11.9702 12.7228 11.9709 12.7235 11.9716 12.7242C11.9724 12.725 11.9731 12.7257 11.9739 12.7265C11.9747 12.7273 11.9754 12.728 11.9762 12.7288C11.977 12.7296 11.9779 12.7305 11.9787 12.7313C11.9795 12.7321 11.9804 12.733 11.9812 12.7338C11.9821 12.7347 11.983 12.7356 11.9839 12.7365C11.9848 12.7374 11.9857 12.7383 11.9866 12.7392C11.9875 12.7401 11.9885 12.7411 11.9894 12.742C11.9904 12.743 11.9914 12.744 11.9924 12.745C11.9934 12.7459 11.9944 12.747 11.9954 12.748C11.9964 12.749 11.9974 12.75 11.9985 12.7511C11.9996 12.7521 12.0006 12.7532 12.0017 12.7543C12.0028 12.7554 12.0039 12.7565 12.005 12.7576C12.0061 12.7587 12.0073 12.7599 12.0084 12.761C12.0096 12.7622 12.0107 12.7633 12.0119 12.7645C12.0131 12.7657 12.0143 12.7669 12.0155 12.7681C12.0167 12.7693 12.0179 12.7705 12.0192 12.7718C12.0204 12.773 12.0217 12.7743 12.0229 12.7755C12.0242 12.7768 12.0255 12.7781 12.0268 12.7794C12.0281 12.7807 12.0294 12.782 12.0308 12.7833C12.0321 12.7847 12.0334 12.786 12.0348 12.7874C12.0362 12.7888 12.0375 12.7901 12.0389 12.7915C12.0403 12.7929 12.0417 12.7943 12.0432 12.7958C12.0446 12.7972 12.046 12.7986 12.0475 12.8001C12.0489 12.8015 12.0504 12.803 12.0519 12.8045C12.0534 12.806 12.0549 12.8075 12.0564 12.809C12.0579 12.8105 12.0595 12.812 12.061 12.8136C12.0625 12.8151 12.0641 12.8167 12.0657 12.8183C12.0673 12.8198 12.0688 12.8214 12.0705 12.823C12.0721 12.8247 12.0737 12.8263 12.0753 12.8279C12.077 12.8295 12.0786 12.8312 12.0803 12.8329C12.0819 12.8345 12.0836 12.8362 12.0853 12.8379C12.087 12.8396 12.0887 12.8413 12.0904 12.843C12.0922 12.8448 12.0939 12.8465 12.0957 12.8482C12.0974 12.85 12.0992 12.8518 12.101 12.8536C12.1027 12.8553 12.1045 12.8571 12.1064 12.8589C12.1082 12.8608 12.11 12.8626 12.1118 12.8644C12.1137 12.8663 12.1155 12.8681 12.1174 12.87C12.1193 12.8719 12.1212 12.8738 12.1231 12.8757C12.125 12.8776 12.1269 12.8795 12.1288 12.8814C12.1307 12.8833 12.1327 12.8853 12.1346 12.8872C12.1366 12.8892 12.1386 12.8912 12.1405 12.8931C12.1425 12.8951 12.1445 12.8971 12.1466 12.8991C12.1486 12.9012 12.1506 12.9032 12.1526 12.9052C12.1547 12.9073 12.1567 12.9093 12.1588 12.9114C12.1609 12.9135 12.163 12.9156 12.1651 12.9177C12.1672 12.9198 12.1693 12.9219 12.1714 12.924C12.1735 12.9261 12.1757 12.9283 12.1778 12.9304C12.18 12.9326 12.1822 12.9348 12.1843 12.9369C12.1865 12.9391 12.1887 12.9413 12.1909 12.9435C12.1932 12.9457 12.1954 12.948 12.1976 12.9502C12.1999 12.9525 12.2021 12.9547 12.2044 12.957C12.2067 12.9592 12.2089 12.9615 12.2112 12.9638C12.2135 12.9661 12.2158 12.9684 12.2182 12.9708C12.2205 12.9731 12.2228 12.9754 12.2252 12.9778C12.2275 12.9801 12.2299 12.9825 12.2323 12.9849C12.2346 12.9872 12.237 12.9896 12.2394 12.992C12.2418 12.9944 12.2443 12.9969 12.2467 12.9993C12.2491 13.0017 12.2516 13.0042 12.254 13.0066C12.2565 13.0091 12.259 13.0116 12.2615 13.0141C12.2639 13.0165 12.2664 13.019 12.269 13.0216C12.2715 13.0241 12.274 13.0266 12.2765 13.0291C12.2791 13.0317 12.2816 13.0342 12.2842 13.0368C12.2868 13.0394 12.2894 13.0419 12.2919 13.0445C12.2945 13.0471 12.2971 13.0497 12.2998 13.0524C12.3024 13.055 12.305 13.0576 12.3077 13.0603C12.3103 13.0629 12.313 13.0656 12.3157 13.0682C12.3183 13.0709 12.321 13.0736 12.3237 13.0763C12.3264 13.079 12.3291 13.0817 12.3319 13.0844C12.3346 13.0872 12.3373 13.0899 12.3401 13.0927C12.3428 13.0954 12.3456 13.0982 12.3484 13.101C12.3511 13.1037 12.3539 13.1065 12.3567 13.1093C12.3595 13.1121 12.3624 13.115 12.3652 13.1178C12.368 13.1206 12.3709 13.1235 12.3737 13.1263C12.3766 13.1292 12.3795 13.132 12.3823 13.1349C12.3852 13.1378 12.3881 13.1407 12.391 13.1436C12.3939 13.1465 12.3968 13.1494 12.3998 13.1524C12.4027 13.1553 12.4057 13.1582 12.4086 13.1612C12.4116 13.1642 12.4145 13.1671 12.4175 13.1701C12.4205 13.1731 12.4235 13.1761 12.4265 13.1791C12.4295 13.1821 12.4325 13.1851 12.4356 13.1882C12.4386 13.1912 12.4417 13.1943 12.4447 13.1973C12.4478 13.2004 12.4509 13.2034 12.4539 13.2065C12.457 13.2096 12.4601 13.2127 12.4632 13.2158C12.4663 13.2189 12.4695 13.222 12.4726 13.2252C12.4757 13.2283 12.4789 13.2315 12.482 13.2346C12.4852 13.2378 12.4884 13.2409 12.4915 13.2441C12.4947 13.2473 12.4979 13.2505 12.5011 13.2537C12.5043 13.2569 12.5075 13.2601 12.5108 13.2634C12.514 13.2666 12.5173 13.2698 12.5205 13.2731C12.5238 13.2764 12.527 13.2796 12.5303 13.2829C12.5336 13.2862 12.5369 13.2895 12.5402 13.2928C12.5435 13.2961 12.5468 13.2994 12.5501 13.3027C12.5535 13.3061 12.5568 13.3094 12.5602 13.3128C12.5635 13.3161 12.5669 13.3195 12.5703 13.3229C12.5736 13.3262 12.577 13.3296 12.5804 13.333C12.5838 13.3364 12.5872 13.3398 12.5907 13.3433C12.5941 13.3467 12.5975 13.3501 12.601 13.3536C12.6044 13.357 12.6079 13.3605 12.6113 13.3639C12.6148 13.3674 12.6183 13.3709 12.6218 13.3744C12.6253 13.3779 12.6288 13.3814 12.6323 13.3849C12.6358 13.3884 12.6394 13.3919 12.6429 13.3955C12.6464 13.399 12.65 13.4026 12.6535 13.4061C12.6571 13.4097 12.6607 13.4133 12.6643 13.4169C12.6679 13.4205 12.6715 13.4241 12.6751 13.4277C12.6787 13.4313 12.6823 13.4349 12.6859 13.4385C12.6896 13.4422 12.6932 13.4458 12.6969 13.4495C12.7005 13.4531 12.7042 13.4568 12.7079 13.4605C12.7115 13.4641 12.7152 13.4678 12.7189 13.4715C12.7226 13.4752 12.7263 13.4789 12.7301 13.4827C12.7338 13.4864 12.7375 13.4901 12.7413 13.4939C12.745 13.4976 12.7488 13.5014 12.7525 13.5051C12.7563 13.5089 12.7601 13.5127 12.7639 13.5165C12.7677 13.5203 12.7715 13.5241 12.7753 13.5279C12.7791 13.5317 12.7829 13.5355 12.7868 13.5393C12.7906 13.5432 12.7944 13.547 12.7983 13.5509C12.8021 13.5547 12.806 13.5586 12.8099 13.5625C12.8138 13.5664 12.8177 13.5702 12.8216 13.5741C12.8255 13.578 12.8294 13.582 12.8333 13.5859C12.8372 13.5898 12.8411 13.5937 12.8451 13.5977C12.849 13.6016 12.853 13.6056 12.8569 13.6095C12.8609 13.6135 12.8649 13.6175 12.8689 13.6215C12.8729 13.6254 12.8769 13.6294 12.8809 13.6335C12.8849 13.6375 12.8889 13.6415 12.8929 13.6455C12.8969 13.6495 12.901 13.6536 12.905 13.6576C12.9091 13.6617 12.9131 13.6657 12.9172 13.6698C12.9213 13.6739 12.9254 13.678 12.9295 13.682C12.9335 13.6861 12.9376 13.6902 12.9418 13.6943C12.9459 13.6985 12.95 13.7026 12.9541 13.7067C12.9583 13.7108 12.9624 13.715 12.9666 13.7191C12.9707 13.7233 12.9749 13.7275 12.979 13.7316C12.9832 13.7358 12.9874 13.74 12.9916 13.7442C12.9958 13.7484 13 13.7526 13.0042 13.7568C13.0084 13.761 13.0127 13.7652 13.0169 13.7695C13.0211 13.7737 13.0254 13.778 13.0296 13.7822C13.0339 13.7865 13.0381 13.7907 13.0424 13.795C13.0467 13.7993 13.051 13.8036 13.0553 13.8079C13.0596 13.8122 13.0639 13.8165 13.0682 13.8208C13.0725 13.8251 13.0768 13.8294 13.0812 13.8338C13.0855 13.8381 13.0899 13.8424 13.0942 13.8468C13.0986 13.8512 13.1029 13.8555 13.1073 13.8599C13.1117 13.8643 13.1161 13.8687 13.1205 13.873C13.1249 13.8774 13.1293 13.8818 13.1337 13.8863C13.1381 13.8907 13.1425 13.8951 13.1469 13.8995C13.1514 13.904 13.1558 13.9084 13.1603 13.9129C13.1647 13.9173 13.1692 13.9218 13.1737 13.9262C13.1781 13.9307 13.1826 13.9352 13.1871 13.9397C13.1916 13.9442 13.1961 13.9487 13.2006 13.9532C13.2051 13.9577 13.2096 13.9622 13.2142 13.9667C13.2187 13.9713 13.2232 13.9758 13.2278 13.9804C13.2323 13.9849 13.2369 13.9895 13.2414 13.994C13.246 13.9986 13.2506 14.0032 13.2552 14.0078C13.2598 14.0123 13.2643 14.0169 13.269 14.0215C13.2736 14.0261 13.2782 14.0308 13.2828 14.0354C13.2874 14.04 13.292 14.0446 13.2967 14.0493C13.3013 14.0539 13.306 14.0586 13.3106 14.0632C13.3153 14.0679 13.32 14.0726 13.3246 14.0772C13.3293 14.0819 13.334 14.0866 13.3387 14.0913C13.3434 14.096 13.3481 14.1007 13.3528 14.1054C13.3575 14.1101 13.3622 14.1148 13.367 14.1196C13.3717 14.1243 13.3764 14.129 13.3812 14.1338C13.3859 14.1385 13.3907 14.1433 13.3955 14.1481C13.4002 14.1528 13.405 14.1576 13.4098 14.1624C13.4146 14.1672 13.4194 14.172 13.4242 14.1768C13.429 14.1816 13.4338 14.1864 13.4386 14.1912C13.4434 14.196 13.4482 14.2008 13.4531 14.2057C13.4579 14.2105 13.4628 14.2154 13.4676 14.2202C13.4725 14.2251 13.4773 14.2299 13.4822 14.2348C13.4871 14.2397 13.492 14.2445 13.4968 14.2494C13.5017 14.2543 13.5066 14.2592 13.5115 14.2641C13.5164 14.269 13.5213 14.2739 13.5263 14.2789C13.5312 14.2838 13.5361 14.2887 13.5411 14.2937C13.546 14.2986 13.5509 14.3035 13.5559 14.3085C13.5609 14.3135 13.5658 14.3184 13.5708 14.3234C13.5758 14.3284 13.5807 14.3333 13.5857 14.3383C13.5907 14.3433 13.5957 14.3483 13.6007 14.3533C13.6057 14.3583 13.6107 14.3633 13.6158 14.3684C13.6208 14.3734 13.6258 14.3784 13.6309 14.3834C13.6359 14.3885 13.6409 14.3935 13.646 14.3986C13.651 14.4036 13.6561 14.4087 13.6612 14.4138C13.6662 14.4188 13.6713 14.4239 13.6764 14.429C13.6815 14.4341 13.6866 14.4392 13.6917 14.4443C13.6968 14.4494 13.7019 14.4545 13.707 14.4596C13.7121 14.4647 13.7173 14.4699 13.7224 14.475C13.7275 14.4801 13.7327 14.4853 13.7378 14.4904C13.743 14.4956 13.7481 14.5007 13.7533 14.5059C13.7585 14.5111 13.7636 14.5162 13.7688 14.5214C13.774 14.5266 13.7792 14.5318 13.7844 14.537C13.7896 14.5422 13.7948 14.5474 13.8 14.5526C13.8052 14.5578 13.8104 14.563 13.8156 14.5682C13.8209 14.5735 13.8261 14.5787 13.8313 14.5839C13.8366 14.5892 13.8418 14.5944 13.8471 14.5997C13.8523 14.6049 13.8576 14.6102 13.8629 14.6155C13.8681 14.6207 13.8734 14.626 13.8787 14.6313C13.884 14.6366 13.8893 14.6419 13.8946 14.6472C13.8999 14.6525 13.9052 14.6578 13.9105 14.6631C13.9158 14.6684 13.9212 14.6737 13.9265 14.6791C13.9318 14.6844 13.9371 14.6897 13.9425 14.6951C13.9478 14.7004 13.9532 14.7058 13.9585 14.7111C13.9639 14.7165 13.9693 14.7219 13.9746 14.7272C13.98 14.7326 13.9854 14.738 13.9908 14.7434C13.9962 14.7488 14.0016 14.7542 14.007 14.7596C14.0124 14.765 14.0178 14.7704 14.0232 14.7758C14.0286 14.7812 14.034 14.7866 14.0395 14.792C14.0449 14.7975 14.0503 14.8029 14.0558 14.8084C14.0612 14.8138 14.0667 14.8192 14.0721 14.8247C14.0776 14.8302 14.083 14.8356 14.0885 14.8411C14.094 14.8466 14.0994 14.852 14.1049 14.8575C14.1104 14.863 14.1159 14.8685 14.1214 14.874C14.1269 14.8795 14.1324 14.885 14.1379 14.8905C14.1434 14.896 14.1489 14.9015 14.1545 14.9071C14.16 14.9126 14.1655 14.9181 14.171 14.9236C14.1766 14.9292 14.1821 14.9347 14.1877 14.9403C14.1932 14.9458 14.1988 14.9514 14.2043 14.9569C14.2099 14.9625 14.2155 14.9681 14.2211 14.9736C14.2266 14.9792 14.2322 14.9848 14.2378 14.9904C14.2434 14.996 14.249 15.0016 14.2546 15.0072C14.2602 15.0128 14.2658 15.0184 14.2714 15.024C14.277 15.0296 14.2826 15.0352 14.2883 15.0409C14.2939 15.0465 14.2995 15.0521 14.3052 15.0578C14.3108 15.0634 14.3164 15.069 14.3221 15.0747C14.3278 15.0803 14.3334 15.086 14.3391 15.0917C14.3447 15.0973 14.3504 15.103 14.3561 15.1087C14.3618 15.1143 14.3674 15.12 14.3731 15.1257C14.3788 15.1314 14.3845 15.1371 14.3902 15.1428C14.3959 15.1485 14.4016 15.1542 14.4073 15.1599C14.413 15.1656 14.4188 15.1713 14.4245 15.1771C14.4302 15.1828 14.4359 15.1885 14.4417 15.1943C14.4474 15.2 14.4531 15.2057 14.4589 15.2115C14.4646 15.2172 14.4704 15.223 14.4761 15.2287C14.4819 15.2345 14.4877 15.2403 14.4934 15.246C14.4992 15.2518 14.505 15.2576 14.5108 15.2634C14.5165 15.2691 14.5223 15.2749 14.5281 15.2807C14.5339 15.2865 14.5397 15.2923 14.5455 15.2981C14.5513 15.3039 14.5571 15.3097 14.5629 15.3155C14.5688 15.3213 14.5746 15.3272 14.5804 15.333C14.5862 15.3388 14.5921 15.3446 14.5979 15.3505C14.6037 15.3563 14.6096 15.3622 14.6154 15.368C14.6213 15.3739 14.6271 15.3797 14.633 15.3856C14.6388 15.3914 14.6447 15.3973 14.6506 15.4032C14.6564 15.409 14.6623 15.4149 14.6682 15.4208C14.6741 15.4267 14.6799 15.4325 14.6858 15.4384C14.6917 15.4443 14.6976 15.4502 14.7035 15.4561C14.7094 15.462 14.7153 15.4679 14.7212 15.4738C14.7271 15.4797 14.7331 15.4856 14.739 15.4916C14.7449 15.4975 14.7508 15.5034 14.7568 15.5093C14.7627 15.5153 14.7686 15.5212 14.7746 15.5271C14.7805 15.5331 14.7864 15.539 14.7924 15.545C14.7983 15.5509 14.8043 15.5569 14.8103 15.5628C14.8162 15.5688 14.8222 15.5748 14.8281 15.5807C14.8341 15.5867 14.8401 15.5927 14.8461 15.5987C14.8521 15.6046 14.858 15.6106 14.864 15.6166C14.87 15.6226 14.876 15.6286 14.882 15.6346C14.888 15.6406 14.894 15.6466 14.9 15.6526C14.906 15.6586 14.912 15.6646 14.918 15.6706C14.9241 15.6767 14.9301 15.6827 14.9361 15.6887C14.9421 15.6947 14.9482 15.7008 14.9542 15.7068C14.9602 15.7128 14.9663 15.7189 14.9723 15.7249C14.9784 15.731 14.9844 15.737 14.9905 15.7431C14.9965 15.7491 15.0026 15.7552 15.0086 15.7612C15.0147 15.7673 15.0208 15.7734 15.0268 15.7794C15.0329 15.7855 15.039 15.7916 15.0451 15.7976C15.0511 15.8037 15.0572 15.8098 15.0633 15.8159C15.0694 15.822 15.0755 15.8281 15.0816 15.8342C15.0877 15.8403 15.0938 15.8464 15.0999 15.8525C15.106 15.8586 15.1121 15.8647 15.1182 15.8708C15.1243 15.8769 15.1304 15.883 15.1365 15.8891C15.1427 15.8953 15.1488 15.9014 15.1549 15.9075C15.1611 15.9136 15.1672 15.9198 15.1733 15.9259C15.1795 15.932 15.1856 15.9382 15.1917 15.9443C15.1979 15.9505 15.204 15.9566 15.2102 15.9628C15.2163 15.9689 15.2225 15.9751 15.2287 15.9812C15.2348 15.9874 15.241 15.9936 15.2471 15.9997C15.2533 16.0059 15.2595 16.0121 15.2657 16.0182C15.2718 16.0244 15.278 16.0306 15.2842 16.0368C15.2904 16.043 15.2966 16.0492 15.3027 16.0553C15.3089 16.0615 15.3151 16.0677 15.3213 16.0739C15.3275 16.0801 15.3337 16.0863 15.3399 16.0925C15.3461 16.0987 15.3523 16.1049 15.3586 16.1111C15.3648 16.1174 15.371 16.1236 15.3772 16.1298C15.3834 16.136 15.3896 16.1422 15.3959 16.1485C15.4021 16.1547 15.4083 16.1609 15.4145 16.1671C15.4208 16.1734 15.427 16.1796 15.4332 16.1858C15.4395 16.1921 15.4457 16.1983 15.452 16.2046C15.4582 16.2108 15.4645 16.2171 15.4707 16.2233C15.477 16.2296 15.4832 16.2358 15.4895 16.2421C15.4957 16.2483 15.502 16.2546 15.5083 16.2609C15.5145 16.2671 15.5208 16.2734 15.5271 16.2797C15.5333 16.2859 15.5396 16.2922 15.5459 16.2985C15.5522 16.3048 15.5584 16.311 15.5647 16.3173C15.571 16.3236 15.5773 16.3299 15.5836 16.3362C15.5899 16.3425 15.5962 16.3487 15.6025 16.355C15.6087 16.3613 15.615 16.3676 15.6213 16.3739C15.6276 16.3802 15.6339 16.3865 15.6403 16.3928C15.6466 16.3991 15.6529 16.4055 15.6592 16.4118C15.6655 16.4181 15.6718 16.4244 15.6781 16.4307C15.6844 16.437 15.6908 16.4433 15.6971 16.4497C15.7034 16.456 15.7097 16.4623 15.7161 16.4686C15.7224 16.475 15.7287 16.4813 15.735 16.4876C15.7414 16.494 15.7477 16.5003 15.754 16.5066C15.7604 16.513 15.7667 16.5193 15.7731 16.5257C15.7794 16.532 15.7858 16.5383 15.7921 16.5447C15.7985 16.551 15.8048 16.5574 15.8112 16.5637C15.8175 16.5701 15.8239 16.5765 15.8302 16.5828C15.8366 16.5892 15.8429 16.5955 15.8493 16.6019C15.8557 16.6083 15.862 16.6146 15.8684 16.621C15.8748 16.6274 15.8811 16.6337 15.8875 16.6401C15.8939 16.6465 15.9002 16.6528 15.9066 16.6592C15.913 16.6656 15.9194 16.672 15.9258 16.6783C15.9321 16.6847 15.9385 16.6911 15.9449 16.6975C15.9513 16.7039 15.9577 16.7103 15.9641 16.7167C15.9704 16.723 15.9768 16.7294 15.9832 16.7358C15.9896 16.7422 15.996 16.7486 16.0024 16.755C16.0088 16.7614 16.0152 16.7678 16.0216 16.7742C16.028 16.7806 16.0344 16.787 16.0408 16.7934C16.0472 16.7998 16.0536 16.8062 16.06 16.8126C16.0664 16.819 16.0728 16.8254 16.0793 16.8319C16.0857 16.8383 16.0921 16.8447 16.0985 16.8511C16.1049 16.8575 16.1113 16.8639 16.1177 16.8703C16.1242 16.8768 16.1306 16.8832 16.137 16.8896C16.1434 16.896 16.1498 16.9024 16.1563 16.9089C16.1627 16.9153 16.1691 16.9217 16.1756 16.9281C16.182 16.9346 16.1884 16.941 16.1948 16.9474C16.2013 16.9539 16.2077 16.9603 16.2141 16.9667C16.2206 16.9732 16.227 16.9796 16.2334 16.986C16.2399 16.9925 16.2463 16.9989 16.2528 17.0053C16.2592 17.0118 16.2656 17.0182 16.2721 17.0247C16.2785 17.0311 16.285 17.0376 16.2914 17.044C16.2978 17.0504 16.3043 17.0569 16.3107 17.0633C16.3172 17.0698 16.3236 17.0762 16.3301 17.0827C16.3365 17.0891 16.343 17.0956 16.3494 17.102C16.3559 17.1085 16.3623 17.1149 16.3688 17.1214C16.3752 17.1278 16.3817 17.1343 16.3882 17.1408C16.3946 17.1472 16.4011 17.1537 16.4075 17.1601C16.414 17.1666 16.4204 17.173 16.4269 17.1795C16.4334 17.186 16.4398 17.1924 16.4463 17.1989C16.4528 17.2053 16.4592 17.2118 16.4657 17.2183C16.4721 17.2247 16.4786 17.2312 16.4851 17.2377C16.4915 17.2441 16.498 17.2506 16.5045 17.2571C16.5109 17.2635 16.5174 17.27 16.5239 17.2765C16.5303 17.2829 16.5368 17.2894 16.5433 17.2959C16.5497 17.3023 16.5562 17.3088 16.5627 17.3153C16.5692 17.3218 16.5756 17.3282 16.5821 17.3347C16.5886 17.3412 16.595 17.3476 16.6015 17.3541C16.608 17.3606 16.6145 17.3671 16.6209 17.3735C16.6274 17.38 16.6339 17.3865 16.6404 17.393C16.6468 17.3994 16.6533 17.4059 16.6598 17.4124C16.6663 17.4189 16.6727 17.4253 16.6792 17.4318C16.6857 17.4383 16.6922 17.4448 16.6987 17.4512C16.7051 17.4577 16.7116 17.4642 16.7181 17.4707C16.7246 17.4772 16.731 17.4836 16.7375 17.4901C16.744 17.4966 16.7505 17.5031 16.757 17.5095C16.7634 17.516 16.7699 17.5225 16.7764 17.529C16.7829 17.5355 16.7894 17.5419 16.7958 17.5484C16.8023 17.5549 16.8088 17.5614 16.8153 17.5679C16.8217 17.5743 16.8282 17.5808 16.8347 17.5873C16.8412 17.5938 16.8477 17.6003 16.8541 17.6067C16.8606 17.6132 16.8671 17.6197 16.8736 17.6262C16.8801 17.6327 16.8865 17.6391 16.893 17.6456C16.8995 17.6521 16.906 17.6586 16.9125 17.665C16.9189 17.6715 16.9254 17.678 16.9319 17.6845C16.9384 17.691 16.9448 17.6974 16.9513 17.7039C16.9578 17.7104 16.9643 17.7169 16.9708 17.7233C16.9772 17.7298 16.9837 17.7363 16.9902 17.7428C16.9967 17.7493 17.0031 17.7557 17.0096 17.7622C17.0161 17.7687 17.0226 17.7752 17.029 17.7816C17.0355 17.7881 17.042 17.7946 17.0485 17.8011C17.0549 17.8075 17.0614 17.814 17.0679 17.8205C17.0744 17.8269 17.0808 17.8334 17.0873 17.8399C17.0938 17.8464 17.1002 17.8528 17.1067 17.8593C17.1132 17.8658 17.1196 17.8722 17.1261 17.8787C17.1326 17.8852 17.1391 17.8916 17.1455 17.8981C17.152 17.9046 17.1585 17.911 17.1649 17.9175C17.1714 17.924 17.1778 17.9304 17.1843 17.9369C17.1908 17.9434 17.1972 17.9498 17.2037 17.9563C17.2102 17.9628 17.2166 17.9692 17.2231 17.9757C17.2295 17.9821 17.236 17.9886 17.2425 17.9951C17.2489 18.0015 17.2554 18.008 17.2618 18.0144C17.2683 18.0209 17.2748 18.0273 17.2812 18.0338C17.2877 18.0403 17.2941 18.0467 17.3006 18.0532C17.307 18.0596 17.3135 18.0661 17.3199 18.0725C17.3264 18.079 17.3328 18.0854 17.3393 18.0919C17.3457 18.0983 17.3522 18.1048 17.3586 18.1112C17.3651 18.1176 17.3715 18.1241 17.3779 18.1305C17.3844 18.137 17.3908 18.1434 17.3973 18.1499C17.4037 18.1563 17.4101 18.1627 17.4166 18.1692C17.423 18.1756 17.4295 18.182 17.4359 18.1885C17.4423 18.1949 17.4488 18.2013 17.4552 18.2078C17.4616 18.2142 17.4681 18.2206 17.4745 18.2271C17.4809 18.2335 17.4873 18.2399 17.4938 18.2464C17.5002 18.2528 17.5066 18.2592 17.513 18.2656C17.5195 18.272 17.5259 18.2785 17.5323 18.2849C17.5387 18.2913 17.5451 18.2977 17.5515 18.3041C17.558 18.3106 17.5644 18.317 17.5708 18.3234C17.5772 18.3298 17.5836 18.3362 17.59 18.3426C17.5964 18.349 17.6028 18.3554 17.6092 18.3618C17.6156 18.3682 17.6221 18.3746 17.6285 18.381C17.6349 18.3874 17.6413 18.3938 17.6477 18.4002C17.654 18.4066 17.6604 18.413 17.6668 18.4194C17.6732 18.4258 17.6796 18.4322 17.686 18.4386C17.6924 18.445 17.6988 18.4514 17.7052 18.4578C17.7116 18.4642 17.7179 18.4705 17.7243 18.4769C17.7307 18.4833 17.7371 18.4897 17.7435 18.4961C17.7498 18.5024 17.7562 18.5088 17.7626 18.5152C17.769 18.5216 17.7753 18.5279 17.7817 18.5343C17.7881 18.5407 17.7944 18.547 17.8008 18.5534C17.8072 18.5598 17.8135 18.5661 17.8199 18.5725C17.8262 18.5788 17.8326 18.5852 17.839 18.5915C17.8453 18.5979 17.8517 18.6043 17.858 18.6106C17.8644 18.617 17.8707 18.6233 17.8771 18.6296C17.8834 18.636 17.8897 18.6423 17.8961 18.6487C17.9024 18.655 17.9088 18.6613 17.9151 18.6677C17.9214 18.674 17.9278 18.6803 17.9341 18.6867C17.9404 18.693 17.9467 18.6993 17.9531 18.7057C17.9594 18.712 17.9657 18.7183 17.972 18.7246C17.9783 18.7309 17.9847 18.7373 17.991 18.7436C17.9973 18.7499 18.0036 18.7562 18.0099 18.7625C18.0162 18.7688 18.0225 18.7751 18.0288 18.7814C18.0351 18.7877 18.0414 18.794 18.0477 18.8003C18.054 18.8066 18.0603 18.8129 18.0666 18.8192C18.0729 18.8255 18.0792 18.8318 18.0855 18.8381C18.0917 18.8443 18.098 18.8506 18.1043 18.8569C18.1106 18.8632 18.1169 18.8695 18.1231 18.8757C18.1294 18.882 18.1357 18.8883 18.1419 18.8945C18.1482 18.9008 18.1545 18.9071 18.1607 18.9133C18.167 18.9196 18.1732 18.9258 18.1795 18.9321C18.1858 18.9384 18.192 18.9446 18.1983 18.9508C18.2045 18.9571 18.2107 18.9633 18.217 18.9696C18.2232 18.9758 18.2295 18.9821 18.2357 18.9883C18.2419 18.9945 18.2482 19.0008 18.2544 19.007C18.2606 19.0132 18.2668 19.0194 18.2731 19.0257C18.2793 19.0319 18.2855 19.0381 18.2917 19.0443C18.2979 19.0505 18.3041 19.0567 18.3103 19.0629C18.3165 19.0691 18.3228 19.0753 18.3289 19.0815C18.3351 19.0877 18.3413 19.0939 18.3475 19.1001C18.3537 19.1063 18.3599 19.1125 18.3661 19.1187C18.3723 19.1249 18.3785 19.1311 18.3846 19.1372C18.3908 19.1434 18.397 19.1496 18.4032 19.1558C18.4093 19.1619 18.4155 19.1681 18.4217 19.1743C18.4278 19.1804 18.434 19.1866 18.4401 19.1927C18.4463 19.1989 18.4524 19.205 18.4586 19.2112C18.4647 19.2173 18.4709 19.2235 18.477 19.2296C18.4832 19.2358 18.4893 19.2419 18.4954 19.248C18.5016 19.2542 18.5077 19.2603 18.5138 19.2664C18.5199 19.2725 18.5261 19.2786 18.5322 19.2848C18.5383 19.2909 18.5444 19.297 18.5505 19.3031C18.5566 19.3092 18.5627 19.3153 18.5688 19.3214C18.5749 19.3275 18.581 19.3336 18.5871 19.3397C18.5932 19.3458 18.5993 19.3519 18.6054 19.3579C18.6114 19.364 18.6175 19.3701 18.6236 19.3762C18.6297 19.3822 18.6357 19.3883 18.6418 19.3944C18.6479 19.4004 18.6539 19.4065 18.66 19.4126C18.666 19.4186 18.6721 19.4247 18.6781 19.4307C18.6842 19.4368 18.6902 19.4428 18.6963 19.4488C18.7023 19.4549 18.7083 19.4609 18.7144 19.4669C18.7204 19.473 18.7264 19.479 18.7324 19.485C18.7384 19.491 18.7445 19.4971 18.7505 19.5031C18.7565 19.5091 18.7625 19.5151 18.7685 19.5211C18.7745 19.5271 18.7805 19.5331 18.7865 19.5391C18.7925 19.5451 18.7985 19.551 18.8044 19.557C18.8104 19.563 18.8164 19.569 18.8224 19.575C18.8283 19.5809 18.8343 19.5869 18.8403 19.5929C18.8462 19.5988 18.8522 19.6048 18.8582 19.6107C18.8641 19.6167 18.8701 19.6226 18.876 19.6286C18.8819 19.6345 18.8879 19.6405 18.8938 19.6464C18.8997 19.6523 18.9057 19.6583 18.9116 19.6642C18.9175 19.6701 18.9234 19.676 18.9294 19.6819C18.9353 19.6879 18.9412 19.6938 18.9471 19.6997C18.953 19.7056 18.9589 19.7115 18.9648 19.7174C18.9707 19.7233 18.9766 19.7291 18.9824 19.735C18.9883 19.7409 18.9942 19.7468 19.0001 19.7527C19.0059 19.7585 19.0118 19.7644 19.0177 19.7703C19.0235 19.7761 19.0294 19.782 19.0352 19.7878C19.0411 19.7937 19.0469 19.7995 19.0528 19.8054C19.0586 19.8112 19.0644 19.817 19.0703 19.8229C19.0761 19.8287 19.0819 19.8345 19.0878 19.8403C19.0936 19.8462 19.0994 19.852 19.1052 19.8578C19.111 19.8636 19.1168 19.8694 19.1226 19.8752C19.1284 19.881 19.1342 19.8868 19.14 19.8926C19.1458 19.8983 19.1515 19.9041 19.1573 19.9099C19.1631 19.9157 19.1688 19.9214 19.1746 19.9272C19.1804 19.933 19.1861 19.9387 19.1919 19.9445C19.1976 19.9502 19.2034 19.956 19.2091 19.9617C19.2149 19.9674 19.2206 19.9732 19.2263 19.9789C19.232 19.9846 19.2378 19.9904 19.2435 19.9961C19.2492 20.0018 19.2549 20.0075 19.2606 20.0132C19.2663 20.0189 19.272 20.0246 19.2777 20.0303C19.2834 20.036 19.2891 20.0417 19.2948 20.0474C19.3004 20.053 19.3061 20.0587 19.3118 20.0644C19.3174 20.07 19.3231 20.0757 19.3288 20.0814C19.3344 20.087 19.3401 20.0927 19.3457 20.0983L20.0528 19.3912Z" fill="black"/>
</svg>
