<svg width="32" height="32" fill="none" xmlns="http://www.w3.org/2000/svg"><path d="M20.885 12.346a.5.5 0 1 0-1 0h1ZM16 26a.5.5 0 0 0 0-1v1Zm0-6.115A3.885 3.885 0 0 1 12.115 16h-1A4.885 4.885 0 0 0 16 20.885v-1ZM19.885 16A3.885 3.885 0 0 1 16 19.885v1A4.885 4.885 0 0 0 20.885 16h-1ZM16 12.115A3.885 3.885 0 0 1 19.885 16h1A4.885 4.885 0 0 0 16 11.115v1Zm0-1A4.885 4.885 0 0 0 11.115 16h1A3.885 3.885 0 0 1 16 12.115v-1Zm3.885 1.231v6.942h1v-6.942h-1Zm2.692 9c-.624 0-1.012-.16-1.255-.429-.253-.28-.437-.773-.437-1.629h-1c0 .972.205 1.758.695 2.3.5.553 1.209.758 1.997.758v-1ZM16 25a9 9 0 0 1-9-9H6c0 5.523 4.477 10 10 10v-1Zm-9-9a9 9 0 0 1 9-9V6C10.477 6 6 10.477 6 16h1Zm9-9a9 9 0 0 1 9 9h1c0-5.523-4.477-10-10-10v1Zm9 9c0 .963-.177 2.362-.607 3.502-.448 1.186-1.065 1.844-1.816 1.844v1c1.44 0 2.286-1.257 2.751-2.49.483-1.28.672-2.804.672-3.856h-1Z" fill="#000"/></svg>