<svg width="32" height="32" viewBox="0 0 32 32" fill="none" xmlns="http://www.w3.org/2000/svg">
<path d="M14.7997 6.88591C15.2438 5.81823 16.7562 5.81823 17.2003 6.88591L18.8691 10.8982C19.0563 11.3483 19.4796 11.6558 19.9655 11.6948L24.2971 12.042C25.4498 12.1344 25.9171 13.5729 25.0389 14.3252L21.7387 17.1521C21.3685 17.4693 21.2068 17.9669 21.3199 18.4411L22.3282 22.6679C22.5965 23.7927 21.3729 24.6817 20.3861 24.079L16.6776 21.8139C16.2616 21.5598 15.7384 21.5598 15.3224 21.8139L11.6139 24.079C10.6271 24.6817 9.40349 23.7927 9.67179 22.6679L10.6801 18.4411C10.7932 17.9669 10.6315 17.4693 10.2613 17.1521L6.96106 14.3252C6.08287 13.5729 6.55025 12.1344 7.7029 12.042L12.0345 11.6948C12.5204 11.6558 12.9437 11.3483 13.1309 10.8982L14.7997 6.88591Z" stroke="black"/>
</svg>
