<svg width="32" height="32" viewBox="0 0 32 32" fill="none" xmlns="http://www.w3.org/2000/svg">
<path d="M6.5 12.6572C6.91081 10.6 9.40991 8.37144 10.6081 7.5143C11.9775 7.17144 16.0514 6.69144 21.3919 7.5143C23.4459 8.33715 24.9865 11.2857 25.5 12.6572M6.5 12.6572C6.84234 15.4 9.17027 21.7086 15.7432 25M6.5 12.6572C10.6081 12.1429 16.7703 11.6286 25.5 12.6572M15.7432 25C18.3108 23.9714 23.8568 20.0629 25.5 12.6572M15.7432 25C12.8676 19.24 11.2928 14.0286 11.1216 12.1429L14.2027 7M15.7432 25C18.6189 19.24 20.1937 14.0286 20.3649 12.1429L17.2838 7" stroke="black"/>
</svg>
