<svg width="32" height="32" fill="none" xmlns="http://www.w3.org/2000/svg"><path d="m20.783 3 .475.155a.5.5 0 0 0-.84-.498l.365.343ZM17.13 14.238l-.475-.155a.5.5 0 0 0 .475.655v-.5Zm7.87 0 .366.34a.5.5 0 0 0-.366-.84v.5ZM11.217 29l-.473-.16a.5.5 0 0 0 .839.501L11.217 29Zm3.952-10.166a.5.5 0 0 0-.947-.319l.947.32ZM6 18.674l-.364-.342a.5.5 0 0 0 .364.843v-.5Zm5.957.5a.5.5 0 1 0 0-1v1Zm8.35-16.329-3.652 11.238.951.31 3.652-11.238-.95-.31ZM17.13 14.738H25v-1h-7.87v1Zm7.505-.842L10.851 28.66l.73.682L25.367 14.58l-.732-.683ZM11.69 29.16l3.478-10.326-.947-.319-3.478 10.325.947.32ZM20.42 2.657 5.636 18.332l.728.686L21.146 3.343l-.727-.686ZM6 19.175h5.957v-1H6v1Z" fill="#000"/></svg>