<svg width="32" height="32" viewBox="0 0 32 32" fill="none" xmlns="http://www.w3.org/2000/svg">
<path d="M15.2237 19.5386L17.0436 22.8198M12.5935 21.685L13.7728 23.7379M19.3938 23.5679C18.8635 23.7932 17.8496 24.2139 17.0351 22.8071M15.6903 24.4477C15.6903 24.4477 14.5831 25.2128 13.7771 23.7379M10.9985 8.07109H8.0024C6.34461 8.07109 5.00108 9.4157 5.0024 11.0735L5.00768 17.6765C5.00813 18.2285 5.45571 18.6757 6.00768 18.6757H6.8496L9.887 23.8994C10.6082 25.1193 11.7366 25.0555 12.2541 24.945M24.0474 20.5841C23.8268 21.2132 22.3972 24.8983 20.5561 21.6722L17.9896 17.6429M24.0474 20.3844H24.9938C26.1008 20.3844 26.9972 19.4852 26.9938 18.3782L26.9721 11.3591C26.9684 10.1694 26.2621 9.09436 25.1717 8.61865L23.1954 7.75648C22.0645 7.2631 20.8442 7.00753 19.6103 7.00566L15.8812 7C15.8812 7 14.6255 7.017 13.3783 8.58963L10.4067 12.47C9.94756 13.0696 9.84265 13.916 10.4103 14.4142C11.0369 14.9641 12.0447 15.3584 13.3953 14.3234L15.6291 12.0525C16.0492 11.6255 16.3819 11.3863 16.9786 11.4393V11.4393C17.9675 11.5273 19.1247 12.1053 19.6321 12.9586L24.0474 20.3844Z" stroke="black" stroke-linecap="round"/>
</svg>
