<svg width="32" height="32" viewBox="0 0 32 32" fill="none" xmlns="http://www.w3.org/2000/svg">
<path d="M19.084 10.8074C19.5129 12.1248 20.751 13.0769 22.2115 13.0769C24.0277 13.0769 25.5 11.6046 25.5 9.78846C25.5 7.97229 24.0277 6.5 22.2115 6.5C20.3954 6.5 18.9231 7.97229 18.9231 9.78846C18.9231 10.1441 18.9795 10.4866 19.084 10.8074ZM19.084 10.8074L12.6572 14.0258M12.6572 14.0258C12.0938 13.0234 11.0202 12.3462 9.78846 12.3462C7.97229 12.3462 6.5 13.8184 6.5 15.6346C6.5 17.4508 7.97229 18.9231 9.78846 18.9231C10.9576 18.9231 11.9842 18.313 12.5673 17.3938M12.6572 14.0258C13.2426 15.0675 13.2076 16.3845 12.5673 17.3938M12.5673 17.3938L19.3554 20.5805M19.3554 20.5805C19.0803 21.0612 18.9231 21.618 18.9231 22.2115C18.9231 24.0277 20.3954 25.5 22.2115 25.5C24.0277 25.5 25.5 24.0277 25.5 22.2115C25.5 20.3954 24.0277 18.9231 22.2115 18.9231C20.9889 18.9231 19.9221 19.5903 19.3554 20.5805Z" stroke="black"/>
</svg>
