<svg width="32" height="32" fill="none" xmlns="http://www.w3.org/2000/svg"><path d="M6.5 16.524H7h-.5Zm0 7.52H6h.5ZM24.038 25.5V25v.5Zm-16.076 0v.5-.5ZM25.5 16.524H25h.5Zm0 7.52h.5-.5Zm-.773-9.494-.367.34.367-.34ZM18.15 7.44l-.367.34.367-.34Zm-4.3 0 .367.34-.367-.34ZM7.273 14.55l-.367-.34.367.34Zm5.804 3.67h.5-.5Zm0 6.552h-.5.5Zm5.115.728V25v.5Zm-4.384 0v.5-.5Zm5.115-7.28h.5-.5Zm0 6.552h-.5.5Zm-.73-7.28v.5-.5Zm-4.385 0v.5-.5ZM6 16.523v7.52h1v-7.52H6ZM24.038 25H7.962v1h16.076v-1ZM25 16.524v7.52h1v-7.52h-1Zm.094-2.313-6.577-7.112-.734.68 6.576 7.11.735-.678Zm-11.61-7.112-6.578 7.112.734.679 6.577-7.112-.734-.679Zm5.033 0a3.43 3.43 0 0 0-5.034 0l.734.68a2.43 2.43 0 0 1 3.566 0l.734-.68ZM26 16.524c0-.858-.324-1.683-.906-2.313l-.735.679c.412.445.641 1.029.641 1.634h1Zm-19 0c0-.605.228-1.189.64-1.634l-.734-.68A3.406 3.406 0 0 0 6 16.525h1Zm-1 7.52C6 25.126 6.88 26 7.962 26v-1A.959.959 0 0 1 7 24.044H6ZM24.038 26A1.959 1.959 0 0 0 26 24.044h-1a.959.959 0 0 1-.962.956v1Zm-11.461-7.78v6.552h1v-6.553h-1ZM18.192 25h-4.384v1h4.384v-1Zm.231-6.78v6.552h1V18.22h-1Zm-.23-1.229h-4.385v1h4.384v-1Zm1.23 1.229a1.23 1.23 0 0 0-1.23-1.229v1c.128 0 .23.104.23.229h1Zm-5.846 0a.23.23 0 0 1 .23-.229v-1a1.23 1.23 0 0 0-1.23 1.228h1Zm-1 6.552c0 .68.553 1.228 1.23 1.228v-1a.23.23 0 0 1-.23-.228h-1ZM18.192 26a1.23 1.23 0 0 0 1.231-1.228h-1a.23.23 0 0 1-.23.228v1Z" fill="#000"/></svg>