<svg width="32" height="32" fill="none" xmlns="http://www.w3.org/2000/svg"><path d="M22.577 6.5V6v.5Zm-13.154 0V7v-.5ZM6.5 22.577H7h-.5Zm0-13.154H6h.5ZM22.577 25.5v.5-.5Zm-13.154 0V25v.5ZM25.5 22.577H25h.5Zm0-13.154h.5-.5Zm-19 3.154a.5.5 0 1 0 0 1v-1Zm18.683 1a.5.5 0 0 0 0-1v1ZM9.5 10.105v1a1 1 0 0 0 1-1h-1Zm0 0h-1a1 1 0 0 0 1 1v-1Zm0 0v-1a1 1 0 0 0-1 1h1Zm0 0h1a1 1 0 0 0-1-1v1Zm3 0v1a1 1 0 0 0 1-1h-1Zm0 0h-1a1 1 0 0 0 1 1v-1Zm0 0v-1a1 1 0 0 0-1 1h1Zm0 0h1a1 1 0 0 0-1-1v1Zm3 0v1a1 1 0 0 0 1-1h-1Zm0 0h-1a1 1 0 0 0 1 1v-1Zm0 0v-1a1 1 0 0 0-1 1h1Zm0 0h1a1 1 0 0 0-1-1v1ZM22.577 6H9.423v1h13.154V6ZM7 22.577V9.423H6v13.154h1ZM22.577 25H9.423v1h13.154v-1ZM26 22.577V9.423h-1v13.154h1ZM22.577 26A3.423 3.423 0 0 0 26 22.577h-1A2.423 2.423 0 0 1 22.577 25v1Zm0-19A2.423 2.423 0 0 1 25 9.423h1A3.423 3.423 0 0 0 22.577 6v1ZM9.423 6A3.423 3.423 0 0 0 6 9.423h1A2.423 2.423 0 0 1 9.423 7V6ZM6 22.577A3.423 3.423 0 0 0 9.423 26v-1A2.423 2.423 0 0 1 7 22.577H6Zm.5-9h18.683v-1H6.5v1Z" fill="#000"/></svg>