<svg width="32" height="32" fill="none" xmlns="http://www.w3.org/2000/svg"><path d="M24.647 25.354a.5.5 0 1 0 .706-.708l-.706.708Zm-9.685-2.93A7.462 7.462 0 0 1 7.5 14.96h-1a8.462 8.462 0 0 0 8.461 8.462v-1ZM7.5 14.96c0-4.12 3.34-7.461 7.461-7.461v-1A8.462 8.462 0 0 0 6.5 14.961h1ZM14.961 7.5c4.121 0 7.462 3.34 7.462 7.461h1A8.462 8.462 0 0 0 14.962 6.5v1Zm7.462 7.461a7.436 7.436 0 0 1-2.19 5.28l.707.708a8.437 8.437 0 0 0 2.483-5.988h-1Zm-2.19 5.28a7.436 7.436 0 0 1-5.272 2.182v1a8.437 8.437 0 0 0 5.98-2.474l-.707-.708Zm0 .708 4.414 4.405.706-.708-4.413-4.405-.706.708Z" fill="#000"/></svg>