<svg width="32" height="32" fill="none" xmlns="http://www.w3.org/2000/svg"><path d="m17.33 8.903.355.354-.354-.354Zm6.768 6.775-.353-.353a.633.633 0 0 0-.014.014l.367.34ZM16 24.464l-.368.34a.5.5 0 0 0 .736 0l-.368-.34Zm-1.33-15.56-.354.353.353-.354Zm-6.768 0 .353.353-.353-.354Zm0 6.774.367-.339a.472.472 0 0 0-.014-.014l-.353.353ZM16 10.235l-.354.354a.5.5 0 0 0 .708 0L16 10.235Zm1.684-.978a4.282 4.282 0 0 1 6.06 0l.708-.707a5.282 5.282 0 0 0-7.475 0l.707.707Zm6.06 0a4.294 4.294 0 0 1 0 6.068l.708.707a5.294 5.294 0 0 0 0-7.482l-.707.707Zm-.013 6.082-8.099 8.786.736.678 8.098-8.786-.735-.678ZM7.548 8.55a5.295 5.295 0 0 0 0 7.483l.707-.707a4.295 4.295 0 0 1 0-6.068l-.707-.707Zm-.014 7.468 8.098 8.786.736-.678-8.099-8.786-.735.678Zm9.443-7.467-1.33 1.332.707.707 1.33-1.332-.707-.707Zm-1.954 0a5.282 5.282 0 0 0-7.475 0l.707.707a4.282 4.282 0 0 1 6.06 0l.708-.707Zm1.33 1.332-1.33-1.332-.707.707 1.33 1.332.708-.707Z" fill="#000"/></svg>