<svg width="32" height="32" fill="none" xmlns="http://www.w3.org/2000/svg"><path d="M7.23 11.885h-.5.5Zm0 9.615h.5-.5Zm13.54 4v.5-.5Zm-9.54 0V25v.5Zm13.54-13.615h-.5.5Zm0 9.615h.5-.5Zm-1-10.615v.5-.5Zm-15.54 0v-.5.5ZM6.5 8.5H6h.5Zm0 .385H7h-.5Zm17 2v-.5.5Zm-15 0v.5-.5Zm17-2.385H25h.5Zm0 .385h.5-.5Zm-2-2.385V7v-.5Zm-15 0V6v.5Zm9.692 9.27a.5.5 0 1 0 0-1v1Zm-4.384-1a.5.5 0 1 0 0 1v-1ZM6.73 11.884V21.5h1v-9.615h-1ZM20.769 25h-9.538v1h9.538v-1Zm3.5-13.115V21.5h1v-9.615h-1Zm-.5-1.5H8.231v1h15.538v-1Zm1.5 1.5a1.5 1.5 0 0 0-1.5-1.5v1a.5.5 0 0 1 .5.5h1Zm-17.538 0a.5.5 0 0 1 .5-.5v-1a1.5 1.5 0 0 0-1.5 1.5h1Zm-1 9.615a4.5 4.5 0 0 0 4.5 4.5v-1a3.5 3.5 0 0 1-3.5-3.5h-1ZM20.769 26a4.5 4.5 0 0 0 4.5-4.5h-1a3.5 3.5 0 0 1-3.5 3.5v1ZM6 8.5v.385h1V8.5H6Zm17.5 1.885h-15v1h15v-1ZM25 8.5v.385h1V8.5h-1ZM23.5 6h-15v1h15V6ZM26 8.5A2.5 2.5 0 0 0 23.5 6v1A1.5 1.5 0 0 1 25 8.5h1Zm-19 0A1.5 1.5 0 0 1 8.5 7V6A2.5 2.5 0 0 0 6 8.5h1Zm-1 .385a2.5 2.5 0 0 0 2.5 2.5v-1a1.5 1.5 0 0 1-1.5-1.5H6Zm17.5 2.5a2.5 2.5 0 0 0 2.5-2.5h-1a1.5 1.5 0 0 1-1.5 1.5v1Zm-5.308 3.384h-4.384v1h4.384v-1Z" fill="#000"/></svg>