<svg width="32" height="32" viewBox="0 0 32 32" fill="none" xmlns="http://www.w3.org/2000/svg">
<path d="M23.5 25.5001V26.0001V25.5001ZM8.5 25.5001V26.0001V25.5001ZM25.5 12.8334H26C26 12.6663 25.9164 12.5101 25.7773 12.4174L25.5 12.8334ZM25.5 23.5001H26H25.5ZM6.5 12.8335L6.22265 12.4174C6.08355 12.5102 6 12.6663 6 12.8335H6.5ZM6.5 23.5001H7H6.5ZM14.8906 7.23971L14.6132 6.82368V6.82368L14.8906 7.23971ZM17.1094 7.23971L17.3868 6.82368L17.3868 6.82368L17.1094 7.23971ZM13.5442 18.3123L13.8512 17.9176H13.8512L13.5442 18.3123ZM18.4558 18.3123L18.1488 17.9176L18.4558 18.3123ZM23.5 25.0001H8.5V26.0001H23.5V25.0001ZM25 12.8334V23.5001H26V12.8334H25ZM6 12.8335L6 23.5001H7L7 12.8335H6ZM8.5 25.0001C7.67157 25.0001 7 24.3285 7 23.5001H6C6 24.8808 7.11929 26.0001 8.5 26.0001V25.0001ZM23.5 26.0001C24.8807 26.0001 26 24.8808 26 23.5001H25C25 24.3285 24.3284 25.0001 23.5 25.0001V26.0001ZM6.77735 13.2495L15.168 7.65573L14.6132 6.82368L6.22265 12.4174L6.77735 13.2495ZM16.8321 7.65573L25.2227 13.2495L25.7773 12.4174L17.3868 6.82368L16.8321 7.65573ZM15.168 7.65573C15.6718 7.31983 16.3282 7.31983 16.8321 7.65573L17.3868 6.82368C16.547 6.26385 15.453 6.26385 14.6132 6.82368L15.168 7.65573ZM13.8512 17.9176L6.80697 12.4388L6.19303 13.2281L13.2373 18.707L13.8512 17.9176ZM18.7627 18.707L25.807 13.2281L25.193 12.4388L18.1488 17.9176L18.7627 18.707ZM13.2373 18.707C14.8623 19.9709 17.1377 19.9709 18.7627 18.707L18.1488 17.9176C16.8849 18.9006 15.1151 18.9006 13.8512 17.9176L13.2373 18.707Z" fill="black"/>
</svg>
