<svg width="32" height="32" fill="none" xmlns="http://www.w3.org/2000/svg"><path d="m17.508 23.89-.432.25.432-.25Zm-3.796-5.81-.208.454.208-.455Zm.896.813-.432.251.432-.25Zm7.79-11.645-.163-.472.163.472Zm2.583 2.425-.482-.134.482.134Zm-2.746-2.897L8.543 11.522l.327.945 13.692-4.746-.327-.945Zm-13.916 9.38 5.184 2.378.417-.91-5.184-2.376-.417.909Zm5.857 2.988 2.9 4.997.865-.502-2.9-4.997-.865.502Zm7.47 4.41 3.816-13.747-.963-.268-3.816 13.748.964.267Zm-4.57.587c1.111 1.914 3.979 1.546 4.57-.587l-.963-.267c-.355 1.28-2.076 1.5-2.742.352l-.865.502Zm-3.572-5.607a1.5 1.5 0 0 1 .672.61l.864-.502a2.5 2.5 0 0 0-1.12-1.017l-.416.909Zm-4.961-7.012c-2.13.738-2.272 3.695-.224 4.635l.417-.91c-1.229-.563-1.143-2.337.134-2.78l-.327-.945Zm14.02-3.801c1.142-.396 2.26.653 1.936 1.818l.963.268c.54-1.942-1.323-3.691-3.227-3.031l.327.945Z" fill="#000"/></svg>