<svg width="32" height="32" viewBox="0 0 32 32" fill="none" xmlns="http://www.w3.org/2000/svg">
<path d="M7.90179 22.2017L7.41853 22.0734L7.90179 22.2017ZM9.32591 15.4088L8.85716 15.5828L9.32591 15.4088ZM9.38398 16.618L8.90072 16.4897L9.38398 16.618ZM23.1269 13.8924L23.3451 13.4426L23.1269 13.8924ZM23.2383 17.4327L22.9922 16.9975L23.2383 17.4327ZM23.3451 13.4426L10.3074 7.11684L9.87086 8.01654L22.9086 14.3423L23.3451 13.4426ZM6.87236 10.2361L8.85716 15.5828L9.79465 15.2348L7.80985 9.8881L6.87236 10.2361ZM8.90072 16.4897L7.41853 22.0734L8.38506 22.33L9.86725 16.7463L8.90072 16.4897ZM11.0655 24.891L23.4844 17.8679L22.9922 16.9975L10.5732 24.0205L11.0655 24.891ZM7.41853 22.0734C6.85057 24.213 9.13853 25.9807 11.0655 24.891L10.5732 24.0205C9.41706 24.6743 8.04428 23.6137 8.38506 22.33L7.41853 22.0734ZM8.85716 15.5828C8.96501 15.8734 8.98023 16.1902 8.90072 16.4897L9.86725 16.7463C9.99976 16.247 9.9744 15.719 9.79465 15.2348L8.85716 15.5828ZM10.3074 7.11684C8.27982 6.1331 6.08808 8.12338 6.87236 10.2361L7.80985 9.8881C7.33928 8.62046 8.65433 7.42629 9.87086 8.01654L10.3074 7.11684ZM22.9086 14.3423C23.9965 14.8701 24.0448 16.4023 22.9922 16.9975L23.4844 17.8679C25.2387 16.8759 25.1583 14.3223 23.3451 13.4426L22.9086 14.3423Z" fill="black"/>
</svg>
