<svg width="32" height="32" fill="none" xmlns="http://www.w3.org/2000/svg"><path d="m18.077 17.5-.364-.343-.136.144v.199h.5Zm-4.154 0h.5v-.199l-.136-.144-.364.343Zm1.286 6.62.217-.451-.217.45ZM7.521 10.717l-.364.343.364-.343Zm16.958 0-.363-.343.363.343ZM23.092 7H8.908v1h14.184V7Zm1.024 3.375-6.403 6.782.727.686 6.403-6.782-.727-.686Zm-9.83 6.782-6.402-6.782-.727.686 6.402 6.782.728-.686Zm3.29.343v4.817h1V17.5h-1Zm-3.153 4.743V17.5h-1v4.743h1Zm1.003 1.426-.154-.074-.434.9.154.075.434-.901Zm-2.003-1.426a2.5 2.5 0 0 0 1.415 2.253l.434-.901a1.5 1.5 0 0 1-.849-1.352h-1ZM25.5 9.408A2.408 2.408 0 0 0 23.092 7v1c.777 0 1.408.63 1.408 1.408h1Zm-18 0C7.5 8.63 8.13 8 8.908 8V7A2.408 2.408 0 0 0 6.5 9.408h1Zm10.077 12.91a1.5 1.5 0 0 1-2.15 1.35l-.435.902c1.66.799 3.585-.41 3.585-2.253h-1ZM6.5 9.407c0 .615.235 1.206.657 1.653l.727-.686a1.408 1.408 0 0 1-.384-.967h-1Zm18 0c0 .36-.137.706-.384.967l.727.686a2.408 2.408 0 0 0 .657-1.653h-1Z" fill="#000"/></svg>