<svg width="32" height="32" fill="none" xmlns="http://www.w3.org/2000/svg"><path d="m13.822 15.753-.272.42.272-.42ZM6.5 11H6h.5Zm11.678 4.753-.272-.42.272.42ZM23.5 23v-.5.5Zm-15 0v.5-.5Zm17-2h.5-.5Zm-19 0H7h-.5Zm17-12v.5V9Zm-15 0v-.5.5Zm5.594 6.334L6.772 10.58l-.544.838 7.322 4.753.544-.838Zm4.356.838 7.322-4.753-.544-.838-7.322 4.753.544.838Zm-4.9 0a4.5 4.5 0 0 0 4.9 0l-.544-.838a3.5 3.5 0 0 1-3.812 0l-.544.838ZM23.5 22.5h-15v1h15v-1ZM25 11v10h1V11h-1ZM6 11v10h1V11H6Zm17.5-2.5h-15v1h15v-1ZM26 11a2.5 2.5 0 0 0-2.5-2.5v1A1.5 1.5 0 0 1 25 11h1ZM7 11a1.5 1.5 0 0 1 1.5-1.5v-1A2.5 2.5 0 0 0 6 11h1Zm1.5 11.5A1.5 1.5 0 0 1 7 21H6a2.5 2.5 0 0 0 2.5 2.5v-1Zm15 1A2.5 2.5 0 0 0 26 21h-1a1.5 1.5 0 0 1-1.5 1.5v1Z" fill="#000"/></svg>