<svg width="32" height="32" fill="none" xmlns="http://www.w3.org/2000/svg"><path d="M13.54 17.903h.5v-.204l-.142-.146-.358.35Zm-5.278-6.106a.5.5 0 0 0-.715.7l.715-.7ZM13.54 22.93h-.5.5Zm.914 1.685.3-.4-.3.4Zm-.11-.082-.299.4.3-.4Zm8.181-17.48-.002.5.002-.5ZM10.74 6.5a.5.5 0 1 0-.004 1l.004-1Zm13.315 3.788.388.315-.388-.315Zm-4.8 5.107a.5.5 0 0 0 .776.63l-.776-.63Zm-1.105 6.528a.5.5 0 0 0-1 0h1Zm-.5 1.089h.5-.5ZM24.5 9.036h.5-.5ZM7.84 7.425a.5.5 0 1 0-.68.734l.68-.734ZM22.54 22.412a.5.5 0 0 0 .68-.734l-.68.733Zm-8.643-4.859-5.636-5.756-.715.7 5.636 5.756.715-.7Zm.142 5.377v-5.027h-1v5.027h1Zm.713 1.284-.11-.082-.598.802.11.082.598-.802Zm7.774-17.662L10.74 6.5l-.004 1 11.787.052.004-1Zm1.14 3.42-4.412 5.423.776.63 4.412-5.422-.776-.63ZM17.15 21.923v1.089h1v-1.089h-1Zm-2.995 3.093c1.649 1.23 3.995.053 3.995-2.004h-1c0 1.234-1.408 1.94-2.397 1.202l-.598.802ZM25 9.036a2.484 2.484 0 0 0-2.473-2.484l-.004 1A1.484 1.484 0 0 1 24 9.036h1ZM13.04 22.93a2.5 2.5 0 0 0 1.005 2.004l.598-.802a1.5 1.5 0 0 1-.603-1.202h-1ZM24 9.036c0 .341-.117.672-.333.936l.776.631c.36-.442.557-.996.557-1.567h-1ZM7.16 8.159 22.541 22.41l.68-.733L7.84 7.425l-.68.734Z" fill="#000"/></svg>