<svg width="32" height="32" fill="none" xmlns="http://www.w3.org/2000/svg"><path d="M23.5 25.5v.5-.5Zm-15 0v.5-.5Zm17-12.667h.5a.5.5 0 0 0-.223-.416l-.277.416Zm0 10.667h.5-.5Zm-19-10.666-.277-.417a.5.5 0 0 0-.223.417h.5Zm0 10.666H7h-.5Zm8.39-16.26-.277-.416.278.416Zm2.22 0 .277-.416-.278.416Zm-3.566 11.072.307-.394-.307.394Zm4.912 0-.307-.394.307.394ZM23.5 25h-15v1h15v-1ZM25 12.833V23.5h1V12.833h-1Zm-19 0V23.5h1V12.834H6ZM8.5 25A1.5 1.5 0 0 1 7 23.5H6A2.5 2.5 0 0 0 8.5 26v-1Zm15 1a2.5 2.5 0 0 0 2.5-2.5h-1a1.5 1.5 0 0 1-1.5 1.5v1ZM6.777 13.25l8.391-5.594-.555-.832-8.39 5.593.554.832Zm10.055-5.594 8.39 5.593.555-.832-8.39-5.593-.555.832Zm-1.664 0a1.5 1.5 0 0 1 1.664 0l.555-.832a2.5 2.5 0 0 0-2.774 0l.555.832Zm-1.317 10.262-7.044-5.48-.614.79 7.044 5.479.614-.79Zm4.912.789 7.044-5.479-.614-.79-7.044 5.48.614.789Zm-5.526 0a4.5 4.5 0 0 0 5.526 0l-.614-.79a3.5 3.5 0 0 1-4.298 0l-.614.79Z" fill="#000"/></svg>