<svg width="32" height="32" fill="none" xmlns="http://www.w3.org/2000/svg"><path d="M15.5 25.5a.5.5 0 1 0 1 0h-1Zm1-5.115a.5.5 0 0 0-1 0h1Zm7 0v.5a.5.5 0 0 0 .5-.5h-.5Zm-15 0H8a.5.5 0 0 0 .5.5v-.5Zm3-6.465h.5-.5Zm0-4.497H11h.5Zm-.697 5.795-.307-.394.307.394Zm10.393 0 .308-.394-.308.394ZM16.5 25.5v-5.115h-1V25.5h1Zm7-5.615h-15v1h15v-1ZM14.5 7h3V6h-3v1ZM20 9.423v4.497h1V9.423h-1Zm-8 4.497V9.423h-1v4.497h1ZM17.5 7C18.893 7 20 8.097 20 9.423h1C21 7.52 19.42 6 17.5 6v1Zm-3-1C12.58 6 11 7.52 11 9.423h1C12 8.097 13.107 7 14.5 7V6Zm-4.004 8.824C8.823 16.13 8 18.072 8 20.384h1c0-2.062.723-3.689 2.11-4.771l-.614-.789Zm10.393.789C22.277 16.695 23 18.322 23 20.385h1c0-2.314-.823-4.256-2.496-5.56l-.615.788ZM11 13.92c0 .322-.181.652-.504.904l.615.789c.5-.39.889-.988.889-1.693h-1Zm9 0c0 .705.39 1.303.89 1.693l.614-.789c-.323-.252-.504-.582-.504-.904h-1Z" fill="#000"/></svg>