<svg width="32" height="32" fill="none" xmlns="http://www.w3.org/2000/svg"><path d="m13.1 6.5.185-.464-.685-.274V6.5l.5.001Zm10.342.825-.186-.464.186.464Zm-3.017 1.21-.186-.465.186.465Zm4.447 14.735.185.464-.185-.464Zm-4.46 1.785-.185-.465.185.465ZM18.196 8.536 18.01 9l.186-.464Zm-.01 16.52.186-.464-.186.464ZM13.077 6.5h.5v-.724l-.677.256.177.468ZM7.804 8.493l-.177-.468.177.468Zm.727 16.24.177.468-.177-.467Zm-2.02-14.37h-.5.5ZM6.5 23.328h-.5.5ZM19.424 9.423a.5.5 0 0 0-1 0h1Zm-1 15.346a.5.5 0 1 0 1 0h-1ZM25 8.717v13.625h1V8.717h-1ZM12.6 6.5l-.023 16.519 1 .001.022-16.518-1-.002Zm10.656.362-3.017 1.21.372.928 3.017-1.21-.372-.928Zm1.43 15.945-4.46 1.784.372.929 4.46-1.785-.372-.928ZM18.38 8.072l-5.096-2.036-.371.928L18.01 9l.371-.928Zm-.01 16.52-5.109-2.038-.37.93 5.11 2.036.37-.928Zm1.856-.002a2.5 2.5 0 0 1-1.855.002l-.37.928a3.5 3.5 0 0 0 2.596-.001l-.371-.928ZM25 22.342a.5.5 0 0 1-.314.464l.371.928A1.5 1.5 0 0 0 26 22.342h-1ZM20.24 8.07a2.5 2.5 0 0 1-1.859 0l-.37.93a3.5 3.5 0 0 0 2.6-.002l-.372-.929Zm5.76.646a2 2 0 0 0-2.744-1.856l.372.928A1 1 0 0 1 25 8.717h1ZM12.577 6.5v16.519h1V6.5h-1Zm.323-.468L7.627 8.025l.354.936 5.273-1.993-.354-.936Zm0 16.519-4.545 1.715.353.936 4.545-1.716-.353-.935ZM6.01 10.362 6.003 23.33h1l.009-12.966h-1Zm1.617-2.337a2.5 2.5 0 0 0-1.616 2.337h1a1.5 1.5 0 0 1 .97-1.401l-.354-.936Zm.728 16.24a1 1 0 0 1-1.353-.935l-1-.001A2 2 0 0 0 8.708 25.2l-.353-.935ZM18.423 9.424V24.77h1V9.423h-1Z" fill="#000"/></svg>