<svg width="32" height="32" viewBox="0 0 32 32" fill="none" xmlns="http://www.w3.org/2000/svg">
<path d="M13.0992 6.5L13.2847 6.03568L12.6002 5.76224L12.5992 6.49932L13.0992 6.5ZM23.4417 7.32517L23.2557 6.86107L23.4417 7.32517ZM20.4251 8.53459L20.239 8.0705L20.4251 8.53459ZM24.8715 23.2701L25.0572 23.7343L24.8715 23.2701ZM20.4122 25.0547L20.2264 24.5905L20.4122 25.0547ZM18.1958 8.53597L18.0103 9.0003L18.1958 8.53597ZM18.1863 25.0561L18.3715 24.5917V24.5917L18.1863 25.0561ZM13.0768 6.5H13.5768V5.77649L12.9001 6.03229L13.0768 6.5ZM7.80367 8.49307L7.62689 8.02536L7.80367 8.49307ZM8.53096 24.7337L8.70745 25.2015L8.70745 25.2015L8.53096 24.7337ZM6.51078 10.3625L6.01078 10.3621L6.51078 10.3625ZM6.50147 23.3292L6.00147 23.3288L6.50147 23.3292ZM19.423 9.42308C19.423 9.14693 19.1991 8.92308 18.923 8.92308C18.6468 8.92308 18.423 9.14693 18.423 9.42308H19.423ZM18.423 24.7692C18.423 25.0454 18.6468 25.2692 18.923 25.2692C19.1991 25.2692 19.423 25.0454 19.423 24.7692H18.423ZM24.9999 8.71744V22.3417H25.9999V8.71744H24.9999ZM12.5992 6.49932L12.5768 23.018L13.5768 23.0193L13.5992 6.50068L12.5992 6.49932ZM23.2557 6.86107L20.239 8.0705L20.6111 8.99868L23.6278 7.78926L23.2557 6.86107ZM24.6857 22.8059L20.2264 24.5905L20.5979 25.5189L25.0572 23.7343L24.6857 22.8059ZM18.3813 8.07165L13.2847 6.03568L12.9137 6.96432L18.0103 9.0003L18.3813 8.07165ZM18.3715 24.5917L13.262 22.5542L12.8916 23.4831L18.0011 25.5205L18.3715 24.5917ZM20.2264 24.5905C19.6311 24.8287 18.9671 24.8292 18.3715 24.5917L18.0011 25.5205C18.8349 25.853 19.7646 25.8524 20.5979 25.5189L20.2264 24.5905ZM24.9999 22.3417C24.9999 22.5461 24.8755 22.73 24.6857 22.8059L25.0572 23.7343C25.6266 23.5065 25.9999 22.955 25.9999 22.3417H24.9999ZM20.239 8.0705C19.6429 8.30949 18.9777 8.30991 18.3813 8.07165L18.0103 9.0003C18.8453 9.33385 19.7766 9.33327 20.6111 8.99868L20.239 8.0705ZM25.9999 8.71744C25.9999 7.30183 24.5696 6.33429 23.2557 6.86107L23.6278 7.78926C24.2847 7.52587 24.9999 8.00964 24.9999 8.71744H25.9999ZM12.5768 6.5V23.0186H13.5768V6.5H12.5768ZM12.9001 6.03229L7.62689 8.02536L7.98045 8.96078L13.2536 6.96771L12.9001 6.03229ZM12.9003 22.5508L8.35446 24.2659L8.70745 25.2015L13.2533 23.4864L12.9003 22.5508ZM6.01078 10.3621L6.00147 23.3288L7.00147 23.3296L7.01078 10.3628L6.01078 10.3621ZM7.62689 8.02536C6.65492 8.39273 6.01153 9.32302 6.01078 10.3621L7.01078 10.3628C7.01123 9.73937 7.39727 9.1812 7.98045 8.96078L7.62689 8.02536ZM8.35446 24.2659C7.70012 24.5128 7.00096 24.0289 7.00147 23.3296L6.00147 23.3288C6.00046 24.7276 7.39877 25.6953 8.70745 25.2015L8.35446 24.2659ZM18.423 9.42308V24.7692H19.423V9.42308H18.423Z" fill="black"/>
</svg>
