<svg width="32" height="32" viewBox="0 0 32 32" fill="none" xmlns="http://www.w3.org/2000/svg">
<path d="M7.8748 10.2283L8.22167 10.5885L8.22495 10.5852L7.8748 10.2283ZM12.4202 5.76926L12.0732 5.40919L12.07 5.41234L12.4202 5.76926ZM21.5382 26.5H10.4618V27.5H21.5382V26.5ZM10.4618 26.5C8.8387 26.5 7.5 25.1447 7.5 23.4453H6.5C6.5 25.6719 8.26162 27.5 10.4618 27.5V26.5ZM7.5 23.4453V12.3021H6.5V23.4453H7.5ZM7.5 12.3021C7.5 11.6504 7.763 11.0302 8.22166 10.5884L7.52794 9.8682C6.8706 10.5013 6.5 11.3828 6.5 12.3021H7.5ZM8.22495 10.5852L12.7703 6.12619L12.07 5.41234L7.52465 9.8714L8.22495 10.5852ZM12.7671 6.12932C13.1884 5.72339 13.742 5.5 14.3145 5.5V4.5C13.4801 4.5 12.6786 4.82588 12.0732 5.4092L12.7671 6.12932ZM14.3145 5.5H21.5382V4.5H14.3145V5.5ZM21.5382 5.5C23.1613 5.5 24.5 6.85526 24.5 8.5547H25.5C25.5 6.3281 23.7384 4.5 21.5382 4.5V5.5ZM24.5 8.5547V23.4453H25.5V8.5547H24.5ZM24.5 23.4453C24.5 25.1448 23.162 26.5 21.5382 26.5V27.5C23.7392 27.5 25.5 25.6718 25.5 23.4453H24.5ZM13.6885 5.01034V9.79128H14.6885V5.01034H13.6885ZM13.6885 9.79128C13.6885 10.7053 12.9703 11.4241 12.1113 11.4241V12.4241C13.5476 12.4241 14.6885 11.2323 14.6885 9.79128H13.6885ZM12.1113 11.4241H7.0252V12.4241H12.1113V11.4241Z" fill="black"/>
<path d="M14.6633 16C14.6633 15.7239 14.4395 15.5 14.1633 15.5C13.8872 15.5 13.6633 15.7239 13.6633 16H14.6633ZM13.6633 20C13.6633 20.2761 13.8872 20.5 14.1633 20.5C14.4395 20.5 14.6633 20.2761 14.6633 20H13.6633ZM14.3173 17.5C14.0412 17.5 13.8173 17.7239 13.8173 18C13.8173 18.2761 14.0412 18.5 14.3173 18.5V17.5ZM17.438 18.5C17.7141 18.5 17.938 18.2761 17.938 18C17.938 17.7239 17.7141 17.5 17.438 17.5V18.5ZM17.998 16C17.998 15.7239 17.7741 15.5 17.498 15.5C17.2219 15.5 16.998 15.7239 16.998 16H17.998ZM16.998 20C16.998 20.2761 17.2219 20.5 17.498 20.5C17.7741 20.5 17.998 20.2761 17.998 20H16.998ZM9.5 20C9.5 20.2761 9.72386 20.5 10 20.5C10.2761 20.5 10.5 20.2761 10.5 20H9.5ZM10 16V15.5C9.72386 15.5 9.5 15.7239 9.5 16H10ZM10 17.6587C9.72386 17.6587 9.5 17.8825 9.5 18.1587C9.5 18.4348 9.72386 18.6587 10 18.6587V17.6587ZM18.7787 20C18.7787 20.2761 19.0025 20.5 19.2787 20.5C19.5548 20.5 19.7787 20.2761 19.7787 20H18.7787ZM19.2787 16V15.5C19.0025 15.5 18.7787 15.7239 18.7787 16H19.2787ZM19.2787 17.6587C19.0025 17.6587 18.7787 17.8825 18.7787 18.1587C18.7787 18.4348 19.0025 18.6587 19.2787 18.6587V17.6587ZM13.6633 16V20H14.6633V16H13.6633ZM14.3173 18.5H17.438V17.5H14.3173V18.5ZM16.998 16V20H17.998V16H16.998ZM10.5 20V16H9.5V20H10.5ZM10 18.6587H11.5013V17.6587H10V18.6587ZM11.5013 18.6587C12.045 18.6587 12.486 18.4736 12.7905 18.1578C13.0879 17.8494 13.2213 17.451 13.2213 17.0793H12.2213C12.2213 17.219 12.1704 17.3602 12.0707 17.4637C11.978 17.5598 11.809 17.6587 11.5013 17.6587V18.6587ZM13.2213 17.0793C13.2213 16.7077 13.0879 16.3092 12.7905 16.0008C12.486 15.6851 12.045 15.5 11.5013 15.5V16.5C11.809 16.5 11.978 16.5989 12.0707 16.695C12.1704 16.7984 12.2213 16.9396 12.2213 17.0793H13.2213ZM11.5013 15.5H10V16.5H11.5013V15.5ZM19.7787 20V16H18.7787V20H19.7787ZM19.2787 18.6587H20.78V17.6587H19.2787V18.6587ZM20.78 18.6587C21.3236 18.6587 21.7647 18.4736 22.0692 18.1578C22.3666 17.8494 22.5 17.451 22.5 17.0793H21.5C21.5 17.219 21.4491 17.3602 21.3493 17.4637C21.2567 17.5598 21.0877 17.6587 20.78 17.6587V18.6587ZM22.5 17.0793C22.5 16.7075 22.3663 16.309 22.0688 16.0008C21.7643 15.6851 21.3234 15.5 20.78 15.5V16.5C21.0873 16.5 21.2563 16.5989 21.3492 16.6951C21.4491 16.7986 21.5 16.9399 21.5 17.0793H22.5ZM20.78 15.5H19.2787V16.5H20.78V15.5Z" fill="black"/>
</svg>
