<svg width="32" height="32" fill="none" xmlns="http://www.w3.org/2000/svg"><path d="M11.846 22.212a.5.5 0 1 0 1 0h-1Zm.5-12.058-.134-.482a.5.5 0 0 0-.366.482h.5ZM25.5 6.5h.5a.5.5 0 0 0-.634-.482l.134.482ZM25 19.654a.5.5 0 1 0 1 0h-1Zm-13.154 2.923A2.423 2.423 0 0 1 9.423 25v1a3.423 3.423 0 0 0 3.423-3.423h-1ZM9.423 25A2.423 2.423 0 0 1 7 22.577H6A3.423 3.423 0 0 0 9.423 26v-1ZM7 22.577a2.423 2.423 0 0 1 2.423-2.423v-1A3.423 3.423 0 0 0 6 22.577h1Zm2.423-2.423a2.423 2.423 0 0 1 2.423 2.423h1a3.423 3.423 0 0 0-3.423-3.423v1Zm15.577.23a2.423 2.423 0 0 1-2.423 2.424v1A3.423 3.423 0 0 0 26 20.385h-1Zm-2.423 2.424a2.423 2.423 0 0 1-2.423-2.423h-1a3.423 3.423 0 0 0 3.423 3.423v-1Zm-2.423-2.423a2.423 2.423 0 0 1 2.423-2.424v-1a3.423 3.423 0 0 0-3.423 3.424h1Zm2.423-2.424A2.423 2.423 0 0 1 25 20.386h1a3.423 3.423 0 0 0-3.423-3.424v1Zm-9.73 4.25V10.155h-1v12.058h1Zm-.367-11.575 13.154-3.654-.268-.964-13.154 3.654.268.964ZM25 6.5v13.154h1V6.5h-1Z" fill="#000"/></svg>