<svg width="32" height="32" fill="none" xmlns="http://www.w3.org/2000/svg"><path d="m16.276 7.086.343.364-.343-.364Zm0 17.828-.342.364.342-.364Zm4.828-11.33a.5.5 0 0 0-.708.707l.708-.707Zm3.417 4.832a.5.5 0 0 0 .708-.707l-.708.707Zm.708-4.125a.5.5 0 0 0-.708-.707l.708.707Zm-4.833 3.418a.5.5 0 0 0 .708.707l-.708-.707ZM8 17.731v-3.462H7v3.462h1Zm1.5-4.962h.476v-1H9.5v1Zm.476 6.462H9.5v1h.476v-1ZM7 17.73a2.5 2.5 0 0 0 2.5 2.5v-1a1.5 1.5 0 0 1-1.5-1.5H7Zm1-3.462a1.5 1.5 0 0 1 1.5-1.5v-1a2.5 2.5 0 0 0-2.5 2.5h1Zm3.69-2.18 4.929-4.639-.685-.728-4.93 4.64.686.728Zm5.772-4.275v16.372h1V7.814h-1Zm-.843 16.736-4.93-4.64-.685.728 4.93 4.64.685-.728Zm.843-.364a.5.5 0 0 1-.843.364l-.685.728c.957.9 2.528.222 2.528-1.092h-1ZM16.619 7.45a.5.5 0 0 1 .843.364h1c0-1.314-1.571-1.993-2.528-1.092l.685.728Zm3.777 6.841 4.125 4.125.708-.707-4.125-4.125-.708.707Zm4.125-.707-4.125 4.125.708.707 4.125-4.125-.708-.707ZM9.976 20.231a1.5 1.5 0 0 1 1.028.407l.686-.728a2.5 2.5 0 0 0-1.714-.68v1Zm0-7.462a2.5 2.5 0 0 0 1.713-.68l-.685-.727a1.5 1.5 0 0 1-1.028.407v1Z" fill="#000"/></svg>