<svg width="32" height="32" viewBox="0 0 32 32" fill="none" xmlns="http://www.w3.org/2000/svg">
<path d="M15.1055 18.0899L14.7746 17.7151L15.1055 18.0899ZM10.1607 22.4547L10.4916 22.8295L10.1607 22.4547ZM10.1607 9.54534L10.4916 9.17049V9.17049L10.1607 9.54534ZM15.1055 13.9101L14.7746 14.2849L15.1055 13.9101ZM6.5 20.3647H6H6.5ZM6.5 11.6353H7H6.5ZM24.6055 18.0899L24.2746 17.7151L24.6055 18.0899ZM19.6607 22.4547L19.3298 22.0798L19.6607 22.4547ZM19.6607 9.54534L19.9916 9.17049V9.17049L19.6607 9.54534ZM24.6055 13.9101L24.2746 14.2849L24.6055 13.9101ZM16 20.3647H15.5H16ZM16 11.6353H16.5H16ZM14.7746 17.7151L9.8298 22.0798L10.4916 22.8295L15.4363 18.4648L14.7746 17.7151ZM9.8298 9.9202L14.7746 14.2849L15.4363 13.5352L10.4916 9.17049L9.8298 9.9202ZM7 20.3647L7 11.6353H6L6 20.3647H7ZM15.4363 18.4648C16.8546 17.2129 16.8546 14.7871 15.4363 13.5352L14.7746 14.2849C15.7418 15.1387 15.7418 16.8613 14.7746 17.7151L15.4363 18.4648ZM9.8298 22.0798C9.2497 22.5919 8.56881 22.6041 8.0162 22.2886C7.4529 21.967 7 21.2847 7 20.3647H6C6 21.6234 6.62805 22.6476 7.5204 23.157C8.42345 23.6726 9.5729 23.6404 10.4916 22.8295L9.8298 22.0798ZM10.4916 9.17049C9.5729 8.35958 8.42345 8.32743 7.5204 8.84299C6.62805 9.35244 6 10.3766 6 11.6353H7C7 10.7153 7.4529 10.033 8.0162 9.71143C8.5688 9.39594 9.2497 9.40814 9.8298 9.9202L10.4916 9.17049ZM24.2746 17.7151L19.3298 22.0798L19.9916 22.8295L24.9363 18.4648L24.2746 17.7151ZM19.3298 9.9202L24.2746 14.2849L24.9363 13.5352L19.9916 9.17049L19.3298 9.9202ZM16.5 20.3647V11.6353H15.5V20.3647H16.5ZM24.9363 18.4648C26.3546 17.2129 26.3546 14.7871 24.9363 13.5352L24.2746 14.2849C25.2418 15.1387 25.2418 16.8613 24.2746 17.7151L24.9363 18.4648ZM19.3298 22.0798C18.7497 22.5919 18.0688 22.6041 17.5162 22.2886C16.9529 21.967 16.5 21.2847 16.5 20.3647H15.5C15.5 21.6234 16.1281 22.6476 17.0204 23.157C17.9234 23.6726 19.0729 23.6404 19.9916 22.8295L19.3298 22.0798ZM19.9916 9.17049C19.0729 8.35958 17.9234 8.32743 17.0204 8.84299C16.1281 9.35244 15.5 10.3766 15.5 11.6353H16.5C16.5 10.7153 16.9529 10.033 17.5162 9.71143C18.0688 9.39594 18.7497 9.40814 19.3298 9.9202L19.9916 9.17049Z" fill="black"/>
</svg>
