<svg width="32" height="32" fill="none" xmlns="http://www.w3.org/2000/svg"><path d="M21.483 10.317a.5.5 0 1 0-.505.863l.505-.863Zm-.505 11.125a.5.5 0 1 0 .505.863l-.505-.863Zm-.084-7.072a.5.5 0 0 0-.634.773l.634-.773Zm-.634 3.109a.5.5 0 0 0 .634.773l-.634-.773ZM16.276 7.085l.343.364-.343-.364Zm0 17.828-.342.364.342-.364Zm-4.93-4.64.344-.364-.343.364Zm0-8.548.344.364-.343-.364Zm9.632-.546C22.8 12.247 24 14.152 24 16.31h1c0-2.544-1.415-4.762-3.517-5.993l-.505.863ZM24 16.31c0 2.16-1.2 4.064-3.022 5.132l.505.863C23.585 21.074 25 18.855 25 16.31h-1Zm-3.74-1.167c.256.21.47.633.47 1.168h1c0-.78-.308-1.509-.836-1.941l-.634.773Zm.47 1.168c0 .535-.213.958-.47 1.168l.634.773c.528-.432.837-1.162.837-1.941h-1ZM8 17.731v-3.462H7v3.462h1Zm1.5-4.962h.476v-1H9.5v1Zm.476 6.462H9.5v1h.476v-1ZM7 17.73a2.5 2.5 0 0 0 2.5 2.5v-1a1.5 1.5 0 0 1-1.5-1.5H7Zm1-3.462a1.5 1.5 0 0 1 1.5-1.5v-1a2.5 2.5 0 0 0-2.5 2.5h1Zm3.69-2.18 4.929-4.639-.685-.728-4.93 4.64.686.728Zm5.772-4.275v16.372h1V7.814h-1Zm-.843 16.736-4.93-4.64-.685.728 4.93 4.64.685-.728Zm.843-.364a.5.5 0 0 1-.843.364l-.685.728c.957.9 2.528.222 2.528-1.092h-1ZM16.619 7.45a.5.5 0 0 1 .843.364h1c0-1.314-1.571-1.993-2.528-1.092l.685.728ZM9.976 20.23a1.5 1.5 0 0 1 1.028.408l.686-.728a2.5 2.5 0 0 0-1.714-.68v1Zm0-7.46a2.5 2.5 0 0 0 1.713-.68l-.685-.728a1.5 1.5 0 0 1-1.028.407v1Z" fill="#000"/></svg>