<svg width="32" height="32" fill="none" xmlns="http://www.w3.org/2000/svg"><path d="m7.213 20.558-.412-.284.412.284Zm12.51-1.386a.5.5 0 0 0-.593-.805l.593.805Zm-8.284 5.483-.297-.402.296.402Zm-3.88-.292-.354.354.354-.354Zm7.89-16.412a.5.5 0 0 0-.707.707l.707-.707Zm7.6 9.015a.5.5 0 0 0 .708-.707l-.707.707ZM12.52 11.99 6.8 20.274l.823.568 5.718-8.284-.823-.568Zm6.61 6.377-7.987 5.886.593.805 7.988-5.886-.593-.805ZM6.802 20.274a3.484 3.484 0 0 0 .404 4.442l.707-.707a2.484 2.484 0 0 1-.288-3.167l-.823-.568Zm.404 4.442a3.484 3.484 0 0 0 4.53.342l-.593-.805a2.484 2.484 0 0 1-3.23-.244l-.707.707ZM24.7 12.636a5.635 5.635 0 0 1-5.635 5.635v1a6.635 6.635 0 0 0 6.635-6.635h-1Zm-5.635 5.635a5.635 5.635 0 0 1-5.635-5.635h-1a6.635 6.635 0 0 0 6.635 6.635v-1Zm-5.635-5.635A5.635 5.635 0 0 1 19.065 7V6a6.635 6.635 0 0 0-6.635 6.635h1ZM19.065 7a5.635 5.635 0 0 1 5.635 5.635h1A6.635 6.635 0 0 0 19.065 6v1Zm-4.323 1.658 8.308 8.308.707-.707-8.308-8.308-.707.707Z" fill="#000"/></svg>