<svg width="32" height="32" viewBox="0 0 32 32" fill="none" xmlns="http://www.w3.org/2000/svg">
<path d="M7.8748 10.2283L8.22167 10.5885L8.22495 10.5852L7.8748 10.2283ZM12.4202 5.76926L12.0732 5.40919L12.07 5.41234L12.4202 5.76926ZM21.5382 26.5H10.4618V27.5H21.5382V26.5ZM10.4618 26.5C8.8387 26.5 7.5 25.1447 7.5 23.4453H6.5C6.5 25.6719 8.26162 27.5 10.4618 27.5V26.5ZM7.5 23.4453V12.3021H6.5V23.4453H7.5ZM7.5 12.3021C7.5 11.6504 7.763 11.0302 8.22166 10.5884L7.52794 9.8682C6.8706 10.5013 6.5 11.3828 6.5 12.3021H7.5ZM8.22495 10.5852L12.7703 6.12619L12.07 5.41234L7.52465 9.8714L8.22495 10.5852ZM12.7671 6.12932C13.1884 5.72339 13.742 5.5 14.3145 5.5V4.5C13.4801 4.5 12.6786 4.82588 12.0732 5.4092L12.7671 6.12932ZM14.3145 5.5H21.5382V4.5H14.3145V5.5ZM21.5382 5.5C23.1613 5.5 24.5 6.85526 24.5 8.5547H25.5C25.5 6.3281 23.7384 4.5 21.5382 4.5V5.5ZM24.5 8.5547V23.4453H25.5V8.5547H24.5ZM24.5 23.4453C24.5 25.1448 23.162 26.5 21.5382 26.5V27.5C23.7392 27.5 25.5 25.6718 25.5 23.4453H24.5ZM13.6885 5.01034V9.79128H14.6885V5.01034H13.6885ZM13.6885 9.79128C13.6885 10.7053 12.9703 11.4241 12.1113 11.4241V12.4241C13.5476 12.4241 14.6885 11.2323 14.6885 9.79128H13.6885ZM12.1113 11.4241H7.0252V12.4241H12.1113V11.4241Z" fill="black"/>
<path d="M9.5 20.3789C9.5 20.6551 9.72386 20.8789 10 20.8789C10.2761 20.8789 10.5 20.6551 10.5 20.3789H9.5ZM10 16.0001V15.5001C9.72386 15.5001 9.5 15.724 9.5 16.0001H10ZM10 17.8632C9.72386 17.8632 9.5 18.0871 9.5 18.3632C9.5 18.6394 9.72386 18.8632 10 18.8632V17.8632ZM16.4355 16.6291C16.699 16.7116 16.9796 16.5649 17.0621 16.3014C17.1446 16.0378 16.9979 15.7573 16.7344 15.6748L16.4355 16.6291ZM14.5493 19.4533C14.3102 19.3152 14.0044 19.3971 13.8663 19.6362C13.7281 19.8753 13.81 20.1811 14.0491 20.3193L14.5493 19.4533ZM18.7524 16.0001V15.5001C18.4763 15.5001 18.2524 15.724 18.2524 16.0001H18.7524ZM18.7524 20.3789H18.2524C18.2524 20.6551 18.4763 20.8789 18.7524 20.8789V20.3789ZM10.5 20.3789V16.0001H9.5V20.3789H10.5ZM10 18.8632H11.645V17.8632H10V18.8632ZM11.645 18.8632C12.2291 18.8632 12.6993 18.6648 13.0229 18.3297C13.3394 18.0019 13.4819 17.5778 13.4819 17.1817H12.4819C12.4819 17.3453 12.4223 17.512 12.3035 17.635C12.1918 17.7508 11.9935 17.8632 11.645 17.8632V18.8632ZM13.4819 17.1817C13.4819 16.7854 13.3391 16.3613 13.0225 16.0336C12.699 15.6986 12.2288 15.5001 11.645 15.5001V16.5001C11.993 16.5001 12.1914 16.6125 12.3033 16.7284C12.4223 16.8515 12.4819 17.0183 12.4819 17.1817H13.4819ZM11.645 15.5001H10V16.5001H11.645V15.5001ZM16.7344 15.6748C16.0542 15.4618 15.4092 15.4373 14.9008 15.6352C14.3615 15.845 14.0021 16.3037 14.0021 16.9124H15.0021C15.0021 16.757 15.0689 16.6428 15.2634 16.5671C15.4888 16.4794 15.8852 16.4568 16.4355 16.6291L16.7344 15.6748ZM14.0021 16.9124C14.0021 17.4323 14.2667 17.796 14.5843 18.0457C14.8791 18.2774 15.2558 18.4395 15.5542 18.5696C15.8843 18.7135 16.1343 18.8247 16.3106 18.9598C16.4642 19.0777 16.506 19.1697 16.506 19.2828H17.506C17.506 18.7656 17.2348 18.4084 16.919 18.1663C16.6258 17.9414 16.2498 17.7819 15.9539 17.6529C15.6263 17.5101 15.3771 17.3969 15.2024 17.2596C15.0504 17.1401 15.0021 17.0409 15.0021 16.9124H14.0021ZM16.506 19.2828C16.506 19.4479 16.4562 19.5461 16.3954 19.6115C16.3285 19.6834 16.213 19.7523 16.0311 19.7884C15.6589 19.8621 15.1052 19.7745 14.5493 19.4533L14.0491 20.3193C14.7616 20.7308 15.5613 20.9008 16.2254 20.7693C16.5616 20.7027 16.885 20.5533 17.1275 20.2926C17.376 20.0256 17.506 19.677 17.506 19.2828H16.506ZM18.2524 16.0001V20.3789H19.2524V16.0001H18.2524ZM18.7524 20.8789H19.8581V19.8789H18.7524V20.8789ZM19.8581 20.8789C21.3818 20.8789 22.5 19.6977 22.5 18.1895H21.5C21.5 19.1714 20.8039 19.8789 19.8581 19.8789V20.8789ZM22.5 18.1895C22.5 16.6815 21.3827 15.5001 19.8581 15.5001V16.5001C20.8045 16.5001 21.5 17.2075 21.5 18.1895H22.5ZM19.8581 15.5001H18.7524V16.5001H19.8581V15.5001Z" fill="black"/>
</svg>
