<svg width="32" height="32" viewBox="0 0 32 32" fill="none" xmlns="http://www.w3.org/2000/svg">
<path d="M20.9013 24.9833L20.5478 24.6297L20.9013 24.9833ZM25.5 9.42309L25 9.42308L25.5 9.42309ZM25.5 19.6538L26 19.6538V19.6538L25.5 19.6538ZM19.6539 19.6538V19.1538C19.3777 19.1538 19.1539 19.3777 19.1539 19.6538H19.6539ZM17.1034 11.0507C17.1034 10.7745 16.8796 10.5507 16.6034 10.5507C16.3273 10.5507 16.1034 10.7745 16.1034 11.0507H17.1034ZM16.1034 17C16.1034 17.2761 16.3273 17.5 16.6034 17.5C16.8796 17.5 17.1034 17.2761 17.1034 17H16.1034ZM18.8793 17C18.8793 17.2761 19.1032 17.5 19.3793 17.5C19.6555 17.5 19.8793 17.2761 19.8793 17H18.8793ZM23 11.5507C23.2762 11.5507 23.5 11.3268 23.5 11.0507C23.5 10.7745 23.2762 10.5507 23 10.5507V11.5507ZM22.5173 14.5255C22.7934 14.5255 23.0173 14.3016 23.0173 14.0255C23.0173 13.7493 22.7934 13.5255 22.5173 13.5255V14.5255ZM19.3793 13.5255C19.1032 13.5255 18.8793 13.7493 18.8793 14.0255C18.8793 14.3016 19.1032 14.5255 19.3793 14.5255V13.5255ZM12.138 13.7731C11.8618 13.7731 11.638 13.997 11.638 14.2731C11.638 14.5493 11.8618 14.7731 12.138 14.7731V13.7731ZM11.2931 11.0506L11.2205 10.5559C11.2132 10.557 11.2059 10.5582 11.1986 10.5596L11.2931 11.0506ZM13.4972 11.9217C13.7045 12.1041 14.0205 12.084 14.2029 11.8767C14.3854 11.6695 14.3653 11.3535 14.158 11.1711L13.4972 11.9217ZM24.6297 20.5478L20.5478 24.6297L21.2549 25.3368L25.3368 21.2549L24.6297 20.5478ZM22.5769 6H9.42307V7H22.5769V6ZM7 22.5769V9.42308H6V22.5769H7ZM22.5769 7C23.9152 7 25 8.08485 25 9.42308L26 9.42309C26 7.53257 24.4675 6 22.5769 6V7ZM9.42307 6C7.53256 6 6 7.53256 6 9.42308H7C7 8.08485 8.08485 7 9.42307 7V6ZM9.42308 25C8.08485 25 7 23.9151 7 22.5769H6C6 24.4674 7.53256 26 9.42308 26V25ZM19.6539 25H9.42308V26H19.6539V25ZM26 19.6538L26 9.42309L25 9.42308L25 19.6538L26 19.6538ZM20.1539 25.5V19.6538H19.1539V25.5H20.1539ZM19.6539 20.1538H25.5V19.1538H19.6539V20.1538ZM20.5478 24.6297C20.3107 24.8668 19.9892 25 19.6539 25V26C20.2544 26 20.8303 25.7615 21.2549 25.3368L20.5478 24.6297ZM25.3368 21.2549C25.7614 20.8303 26 20.2544 26 19.6538L25 19.6538C25 19.9891 24.8668 20.3107 24.6297 20.5478L25.3368 21.2549ZM16.1034 11.0507V17H17.1034V11.0507H16.1034ZM19.8793 17V11.4225H18.8793V17H19.8793ZM19.8793 11.4225C19.8793 11.3724 19.8916 11.4272 19.8281 11.4925C19.7621 11.5602 19.7012 11.5507 19.7414 11.5507V10.5507C19.5402 10.5507 19.2983 10.6031 19.1116 10.7948C18.9274 10.984 18.8793 11.2248 18.8793 11.4225H19.8793ZM19.7414 11.5507H23V10.5507H19.7414V11.5507ZM22.5173 13.5255H19.3793V14.5255H22.5173V13.5255ZM12.138 14.7731H13.7069V13.7731H12.138V14.7731ZM13.7069 14.7731C13.7471 14.7731 13.6862 14.7827 13.6202 14.7149C13.5567 14.6496 13.569 14.5948 13.569 14.645H14.569C14.569 14.4472 14.5209 14.2065 14.3367 14.0173C14.15 13.8256 13.9081 13.7731 13.7069 13.7731V14.7731ZM13.569 14.645V15.7605H14.569V14.645H13.569ZM13.569 15.7605C13.569 15.937 13.4465 16.1061 13.3036 16.155L13.6275 17.1011C14.2087 16.9022 14.569 16.3276 14.569 15.7605H13.569ZM13.3036 16.155C12.9963 16.2602 12.5685 16.376 11.6552 16.376V17.376C12.673 17.376 13.2107 17.2438 13.6275 17.1011L13.3036 16.155ZM11.6552 16.376C10.8185 16.376 10.3006 16.0866 9.98406 15.7151C9.65573 15.3297 9.50002 14.8032 9.50002 14.2731H8.50002C8.50002 14.9826 8.70638 15.7574 9.22288 16.3636C9.75116 16.9836 10.5608 17.376 11.6552 17.376V16.376ZM9.50002 14.2731C9.50002 13.6916 9.58682 13.0758 9.86067 12.5772C10.1211 12.103 10.5687 11.6993 11.3877 11.5416L11.1986 10.5596C10.0866 10.7737 9.38752 11.3615 8.9842 12.0958C8.59426 12.8057 8.50002 13.6153 8.50002 14.2731H9.50002ZM11.3657 11.5453C12.1236 11.4341 12.6732 11.5471 13.0218 11.6749C13.1976 11.7394 13.3252 11.8088 13.4047 11.8583C13.4444 11.8831 13.472 11.9029 13.4875 11.9145C13.4953 11.9204 13.4999 11.9241 13.5016 11.9255C13.5024 11.9261 13.5024 11.9262 13.5017 11.9256C13.5014 11.9252 13.5008 11.9248 13.5001 11.9241C13.4997 11.9238 13.4993 11.9234 13.4988 11.923C13.4986 11.9228 13.4983 11.9226 13.498 11.9224C13.4979 11.9223 13.4977 11.9221 13.4977 11.922C13.4974 11.9219 13.4972 11.9217 13.8276 11.5464C14.158 11.1711 14.1578 11.1709 14.1575 11.1707C14.1575 11.1706 14.1572 11.1704 14.1571 11.1703C14.1568 11.17 14.1565 11.1697 14.1561 11.1694C14.1554 11.1688 14.1547 11.1682 14.1539 11.1675C14.1524 11.1662 14.1506 11.1646 14.1485 11.1629C14.1445 11.1595 14.1396 11.1554 14.1338 11.1507C14.1223 11.1413 14.1071 11.1293 14.0885 11.1153C14.0512 11.0872 13.9996 11.0508 13.9337 11.0098C13.802 10.9276 13.6128 10.8266 13.3662 10.7361C12.8699 10.5541 12.1523 10.4192 11.2205 10.5559L11.3657 11.5453Z" fill="black"/>
</svg>
