<svg width="32" height="32" fill="none" xmlns="http://www.w3.org/2000/svg"><path d="M6.5 10.5H6h.5Zm0 11H6h.5Zm15 4V25v.5Zm-11 0v.5-.5Zm15-15H25h.5Zm0 11h.5-.5Zm-4-15V7v-.5Zm-11 0V7v-.5Zm.615 18.683a.5.5 0 1 0 1 0h-1Zm1-17.952a.5.5 0 1 0-1 0h1Zm7.77 17.952a.5.5 0 0 0 1 0h-1Zm1-17.952a.5.5 0 0 0-1 0h1Zm-9.27 12.923a.5.5 0 1 0 0-1v1Zm-5.115-1a.5.5 0 0 0 0 1v-1Zm5.115-6.308a.5.5 0 1 0 0-1v1Zm-5.115-1a.5.5 0 0 0 0 1v-1Zm18.27 8.308a.5.5 0 1 0 0-1v1Zm-4.385-1a.5.5 0 0 0 0 1v-1Zm4.384-6.308a.5.5 0 1 0 0-1v1Zm-4.384-1a.5.5 0 0 0 0 1v-1ZM6 10.5v11h1v-11H6ZM21.5 25h-11v1h11v-1ZM25 10.5v11h1v-11h-1ZM21.5 6h-11v1h11V6Zm4.5 4.5A4.5 4.5 0 0 0 21.5 6v1a3.5 3.5 0 0 1 3.5 3.5h1Zm-19 0A3.5 3.5 0 0 1 10.5 7V6A4.5 4.5 0 0 0 6 10.5h1Zm-1 11a4.5 4.5 0 0 0 4.5 4.5v-1A3.5 3.5 0 0 1 7 21.5H6ZM21.5 26a4.5 4.5 0 0 0 4.5-4.5h-1a3.5 3.5 0 0 1-3.5 3.5v1Zm-9.385-.817V7.23h-1v17.952h1Zm8.77 0V7.23h-1v17.952h1Zm-9.27-6.03H6.5v1h5.115v-1Zm0-7.307H6.5v1h5.115v-1Zm13.154 7.308h-4.384v1h4.384v-1Zm0-7.308h-4.384v1h4.384v-1Z" fill="#000"/></svg>