<svg width="32" height="32" viewBox="0 0 32 32" fill="none" xmlns="http://www.w3.org/2000/svg">
<path d="M7.8748 10.2283L8.22167 10.5885L8.22495 10.5852L7.8748 10.2283ZM12.4202 5.76926L12.0732 5.40919L12.07 5.41234L12.4202 5.76926ZM21.5382 26.5H10.4618V27.5H21.5382V26.5ZM10.4618 26.5C8.8387 26.5 7.5 25.1447 7.5 23.4453H6.5C6.5 25.6719 8.26162 27.5 10.4618 27.5V26.5ZM7.5 23.4453V12.3021H6.5V23.4453H7.5ZM7.5 12.3021C7.5 11.6504 7.763 11.0302 8.22166 10.5884L7.52794 9.8682C6.8706 10.5013 6.5 11.3828 6.5 12.3021H7.5ZM8.22495 10.5852L12.7703 6.12619L12.07 5.41234L7.52465 9.8714L8.22495 10.5852ZM12.7671 6.12932C13.1884 5.72339 13.742 5.5 14.3145 5.5V4.5C13.4801 4.5 12.6786 4.82588 12.0732 5.4092L12.7671 6.12932ZM14.3145 5.5H21.5382V4.5H14.3145V5.5ZM21.5382 5.5C23.1613 5.5 24.5 6.85526 24.5 8.5547H25.5C25.5 6.3281 23.7384 4.5 21.5382 4.5V5.5ZM24.5 8.5547V23.4453H25.5V8.5547H24.5ZM24.5 23.4453C24.5 25.1448 23.162 26.5 21.5382 26.5V27.5C23.7392 27.5 25.5 25.6718 25.5 23.4453H24.5ZM13.6885 5.01034V9.79128H14.6885V5.01034H13.6885ZM13.6885 9.79128C13.6885 10.7053 12.9703 11.4241 12.1113 11.4241V12.4241C13.5476 12.4241 14.6885 11.2323 14.6885 9.79128H13.6885ZM12.1113 11.4241H7.0252V12.4241H12.1113V11.4241Z" fill="black"/>
<path d="M17.484 16.2984C17.6487 16.0768 17.6027 15.7636 17.3811 15.5988C17.1595 15.434 16.8463 15.4801 16.6815 15.7016L17.484 16.2984ZM13.716 19.6896C13.5512 19.9112 13.5973 20.2244 13.8189 20.3892C14.0404 20.554 14.3537 20.5079 14.5184 20.2864L13.716 19.6896ZM14.5184 15.7016C14.3537 15.4801 14.0404 15.434 13.8189 15.5988C13.5973 15.7636 13.5512 16.0768 13.716 16.2984L14.5184 15.7016ZM16.6815 20.2864C16.8463 20.5079 17.1595 20.554 17.3811 20.3892C17.6027 20.2244 17.6487 19.9112 17.484 19.6896L16.6815 20.2864ZM10.7321 20C10.7321 20.2761 10.956 20.5 11.2321 20.5C11.5082 20.5 11.7321 20.2761 11.7321 20H10.7321ZM11.7321 16.1113C11.7321 15.8352 11.5082 15.6113 11.2321 15.6113C10.956 15.6113 10.7321 15.8352 10.7321 16.1113H11.7321ZM12.8642 16.5C13.1404 16.5 13.3642 16.2761 13.3642 16C13.3642 15.7239 13.1404 15.5 12.8642 15.5V16.5ZM9.59998 15.5C9.32383 15.5 9.09998 15.7239 9.09998 16C9.09998 16.2761 9.32383 16.5 9.59998 16.5V15.5ZM19.4678 20C19.4678 20.2761 19.6917 20.5 19.9678 20.5C20.244 20.5 20.4678 20.2761 20.4678 20H19.4678ZM20.4678 16.1113C20.4678 15.8352 20.244 15.6113 19.9678 15.6113C19.6917 15.6113 19.4678 15.8352 19.4678 16.1113H20.4678ZM21.6 16.5C21.8761 16.5 22.1 16.2761 22.1 16C22.1 15.7239 21.8761 15.5 21.6 15.5V16.5ZM18.3357 15.5C18.0596 15.5 17.8357 15.7239 17.8357 16C17.8357 16.2761 18.0596 16.5 18.3357 16.5V15.5ZM16.6815 15.7016L13.716 19.6896L14.5184 20.2864L17.484 16.2984L16.6815 15.7016ZM13.716 16.2984L16.6815 20.2864L17.484 19.6896L14.5184 15.7016L13.716 16.2984ZM11.7321 20V16.1113H10.7321V20H11.7321ZM12.8642 15.5H9.59998V16.5H12.8642V15.5ZM20.4678 20V16.1113H19.4678V20H20.4678ZM21.6 15.5H18.3357V16.5H21.6V15.5Z" fill="black"/>
</svg>
