<svg width="32" height="32" fill="none" xmlns="http://www.w3.org/2000/svg"><path d="m20.901 24.983-.353-.353.353.353ZM25.5 9.423H25h.5Zm0 10.23h.5-.5Zm-5.846 0v-.5a.5.5 0 0 0-.5.5h.5Zm-2.55-8.602a.5.5 0 1 0-1 0h1Zm-1 5.949a.5.5 0 0 0 1 0h-1Zm2.775 0a.5.5 0 0 0 1 0h-1ZM23 11.55a.5.5 0 0 0 0-1v1Zm-.483 2.975a.5.5 0 1 0 0-1v1Zm-3.138-1a.5.5 0 1 0 0 1v-1Zm-7.241.248a.5.5 0 0 0 0 1v-1Zm-.845-2.722-.072-.495a.526.526 0 0 0-.022.004l.094.49Zm2.204.87a.5.5 0 0 0 .66-.75l-.66.75Zm11.133 8.627-4.082 4.082.707.707 4.082-4.082-.707-.707ZM22.577 6H9.423v1h13.154V6ZM7 22.577V9.423H6v13.154h1ZM22.577 7A2.423 2.423 0 0 1 25 9.423h1A3.423 3.423 0 0 0 22.577 6v1ZM9.423 6A3.423 3.423 0 0 0 6 9.423h1A2.423 2.423 0 0 1 9.423 7V6Zm0 19A2.423 2.423 0 0 1 7 22.577H6A3.423 3.423 0 0 0 9.423 26v-1Zm10.23 0H9.424v1h10.23v-1ZM26 19.654V9.424h-1v10.23h1ZM20.154 25.5v-5.846h-1V25.5h1Zm-.5-5.346H25.5v-1h-5.846v1Zm.894 4.476c-.237.237-.559.37-.894.37v1c.6 0 1.176-.238 1.6-.663l-.706-.707Zm4.789-3.375c.424-.425.663-1 .663-1.601h-1c0 .335-.133.657-.37.894l.707.707ZM16.103 11.05V17h1v-5.95h-1ZM19.88 17v-5.578h-1V17h1Zm0-5.578c0-.05.013.005-.051.07-.066.068-.127.059-.087.059v-1a.858.858 0 0 0-.63.244.88.88 0 0 0-.232.627h1Zm-.138.129H23v-1h-3.259v1Zm2.776 1.974H19.38v1h3.138v-1Zm-10.38 1.248h1.57v-1h-1.57v1Zm1.57 0c.04 0-.02.01-.087-.058-.063-.065-.051-.12-.051-.07h1a.88.88 0 0 0-.232-.628.858.858 0 0 0-.63-.244v1Zm-.138-.128v1.116h1v-1.116h-1Zm0 1.116a.432.432 0 0 1-.265.394l.323.946c.582-.199.942-.773.942-1.34h-1Zm-.265.394c-.308.105-.736.221-1.649.221v1c1.018 0 1.556-.132 1.972-.275l-.323-.946Zm-1.649.221c-.836 0-1.354-.29-1.671-.66-.328-.386-.484-.913-.484-1.443h-1c0 .71.206 1.484.723 2.09.528.62 1.338 1.013 2.432 1.013v-1ZM9.5 14.273c0-.581.087-1.197.36-1.696.261-.474.709-.878 1.528-1.035l-.19-.982c-1.112.214-1.81.801-2.214 1.536-.39.71-.484 1.52-.484 2.177h1Zm1.866-2.728c.758-.11 1.307.002 1.656.13a2.09 2.09 0 0 1 .466.24c.007.005.012.01.014.01 0 .001 0 .001 0 0H13.5l-.001-.002h-.001v-.001l.33-.376.33-.375-.002-.002-.002-.002a.81.81 0 0 0-.065-.052 2.138 2.138 0 0 0-.155-.105 3.074 3.074 0 0 0-.568-.274c-.496-.182-1.214-.317-2.146-.18l.146.99Z" fill="#000"/></svg>