<svg width="32" height="32" viewBox="0 0 32 32" fill="none" xmlns="http://www.w3.org/2000/svg">
<path d="M7.8748 10.2283L8.22167 10.5885L8.22495 10.5852L7.8748 10.2283ZM12.4202 5.76926L12.0732 5.40919L12.07 5.41234L12.4202 5.76926ZM21.5382 26.5H10.4618V27.5H21.5382V26.5ZM10.4618 26.5C8.8387 26.5 7.5 25.1447 7.5 23.4453H6.5C6.5 25.6719 8.26162 27.5 10.4618 27.5V26.5ZM7.5 23.4453V12.3021H6.5V23.4453H7.5ZM7.5 12.3021C7.5 11.6504 7.763 11.0302 8.22166 10.5884L7.52794 9.8682C6.8706 10.5013 6.5 11.3828 6.5 12.3021H7.5ZM8.22495 10.5852L12.7703 6.12619L12.07 5.41234L7.52465 9.8714L8.22495 10.5852ZM12.7671 6.12932C13.1884 5.72339 13.742 5.5 14.3145 5.5V4.5C13.4801 4.5 12.6786 4.82588 12.0732 5.4092L12.7671 6.12932ZM14.3145 5.5H21.5382V4.5H14.3145V5.5ZM21.5382 5.5C23.1613 5.5 24.5 6.85526 24.5 8.5547H25.5C25.5 6.3281 23.7384 4.5 21.5382 4.5V5.5ZM24.5 8.5547V23.4453H25.5V8.5547H24.5ZM24.5 23.4453C24.5 25.1448 23.162 26.5 21.5382 26.5V27.5C23.7392 27.5 25.5 25.6718 25.5 23.4453H24.5ZM13.6885 5.01034V9.79128H14.6885V5.01034H13.6885ZM13.6885 9.79128C13.6885 10.7053 12.9703 11.4241 12.1113 11.4241V12.4241C13.5476 12.4241 14.6885 11.2323 14.6885 9.79128H13.6885ZM12.1113 11.4241H7.0252V12.4241H12.1113V11.4241Z" fill="black"/>
<path d="M10.3753 18.9949C10.1928 18.7876 9.8769 18.7675 9.66963 18.9499C9.46235 19.1324 9.44223 19.4483 9.62469 19.6556L10.3753 18.9949ZM12.3834 16.0654H12.8834C12.8834 15.7893 12.6596 15.5654 12.3834 15.5654V16.0654ZM11.6862 15.5654C11.4101 15.5654 11.1862 15.7893 11.1862 16.0654C11.1862 16.3415 11.4101 16.5654 11.6862 16.5654V15.5654ZM14.0434 19.9346C14.0434 20.2107 14.2673 20.4346 14.5434 20.4346C14.8196 20.4346 15.0434 20.2107 15.0434 19.9346H14.0434ZM15.0434 16C15.0434 15.7239 14.8196 15.5 14.5434 15.5C14.2673 15.5 14.0434 15.7239 14.0434 16H15.0434ZM14.5434 17.6234C14.2673 17.6234 14.0434 17.8472 14.0434 18.1234C14.0434 18.3995 14.2673 18.6234 14.5434 18.6234V17.6234ZM14.5434 15.5006C14.2673 15.5006 14.0434 15.7245 14.0434 16.0006C14.0434 16.2768 14.2673 16.5006 14.5434 16.5006V15.5006ZM21.695 16.7698C21.9138 16.9383 22.2277 16.8975 22.3962 16.6787C22.5646 16.4599 22.5238 16.146 22.305 15.9775L21.695 16.7698ZM22 19.561L22.3046 19.9575C22.4278 19.8628 22.5 19.7163 22.5 19.561H22ZM22 18.1758H22.5C22.5 17.8997 22.2761 17.6758 22 17.6758V18.1758ZM21.4034 17.6758C21.1273 17.6758 20.9034 17.8997 20.9034 18.1758C20.9034 18.452 21.1273 18.6758 21.4034 18.6758V17.6758ZM9.62469 19.6556C9.99211 20.073 10.545 20.5 11.3 20.5V19.5C10.9543 19.5 10.652 19.3092 10.3753 18.9949L9.62469 19.6556ZM11.3 20.5C11.6043 20.5 11.9974 20.4053 12.3233 20.1286C12.6661 19.8377 12.8834 19.3885 12.8834 18.7878H11.8834C11.8834 19.1299 11.7698 19.2868 11.6762 19.3663C11.5657 19.4601 11.4171 19.5 11.3 19.5V20.5ZM12.8834 18.7878V16.0654H11.8834V18.7878H12.8834ZM12.3834 15.5654H11.6862V16.5654H12.3834V15.5654ZM15.0434 19.9346V16H14.0434V19.9346H15.0434ZM14.5434 18.6234H16.1159V17.6234H14.5434V18.6234ZM16.1159 18.6234C16.6703 18.6234 17.1221 18.4469 17.438 18.1394C17.7491 17.8365 17.8938 17.439 17.8938 17.062H16.8938C16.8938 17.1875 16.8454 17.3207 16.7404 17.4229C16.6403 17.5204 16.4532 17.6234 16.1159 17.6234V18.6234ZM17.8938 17.062C17.8938 16.685 17.7491 16.2875 17.438 15.9846C17.1221 15.6771 16.6703 15.5006 16.1159 15.5006V16.5006C16.4532 16.5006 16.6403 16.6036 16.7404 16.7011C16.8454 16.8033 16.8938 16.9365 16.8938 17.062H17.8938ZM16.1159 15.5006H14.5434V16.5006H16.1159V15.5006ZM22.305 15.9775C21.9192 15.6804 21.5019 15.5 20.8379 15.5V16.5C21.2705 16.5 21.4753 16.6007 21.695 16.7698L22.305 15.9775ZM20.8379 15.5C19.3974 15.5 18.2903 16.5568 18.2903 17.9673H19.2903C19.2903 17.1411 19.9171 16.5 20.8379 16.5V15.5ZM18.2903 17.9673C18.2903 19.3777 19.3966 20.4346 20.8379 20.4346V19.4346C19.9165 19.4346 19.2903 18.7936 19.2903 17.9673H18.2903ZM20.8379 20.4346C21.5014 20.4346 21.9185 20.2541 22.3046 19.9575L21.6954 19.1645C21.4746 19.3341 21.2696 19.4346 20.8379 19.4346V20.4346ZM22.5 19.561V18.1758H21.5V19.561H22.5ZM22 17.6758H21.4034V18.6758H22V17.6758Z" fill="black"/>
</svg>
