<svg width="32" height="32" fill="none" xmlns="http://www.w3.org/2000/svg"><path d="M6.5 13.594H7h-.5Zm0 8.906H6h.5Zm16 3V25v.5Zm-13 0v.5-.5Zm16-11.905H25h.5Zm0 8.905h.5-.5ZM20.366 9.387l-.447.223.447-.223Zm-.614-1.229.448-.223-.448.223ZM17.07 6.5V7v-.5Zm-2.138 0V7v-.5Zm-2.683 1.658-.447-.223.447.223Zm-.614 1.229-.448-.224.448.224ZM9.21 10.885v-.5.5Zm13.58 0v.5-.5Zm-3.636 6.577A3.154 3.154 0 0 1 16 20.614v1a4.154 4.154 0 0 0 4.154-4.153h-1ZM16 20.614a3.154 3.154 0 0 1-3.154-3.153h-1A4.154 4.154 0 0 0 16 21.614v-1Zm-3.154-3.153A3.154 3.154 0 0 1 16 14.308v-1a4.154 4.154 0 0 0-4.154 4.154h1ZM16 14.308a3.154 3.154 0 0 1 3.154 3.154h1A4.154 4.154 0 0 0 16 13.308v1Zm-10-.714V22.5h1v-8.906H6ZM22.5 25h-13v1h13v-1ZM25 13.595V22.5h1v-8.905h-1Zm-4.186-4.432L20.2 7.935l-.895.447.614 1.228.895-.447ZM17.069 6h-2.138v1h2.138V6Zm-5.268 1.935-.615 1.228.895.447.614-1.228-.895-.447ZM14.93 6a3.5 3.5 0 0 0-3.13 1.935l.894.447A2.5 2.5 0 0 1 14.931 7V6ZM9.21 11.385a3.21 3.21 0 0 0 2.87-1.775l-.894-.447a2.21 2.21 0 0 1-1.976 1.222v1Zm13.58-1a2.21 2.21 0 0 1-1.976-1.222l-.895.447a3.21 3.21 0 0 0 2.871 1.775v-1Zm-2.59-2.45A3.5 3.5 0 0 0 17.069 6v1a2.5 2.5 0 0 1 2.236 1.382l.895-.447Zm5.8 5.66a3.21 3.21 0 0 0-3.21-3.21v1c1.22 0 2.21.989 2.21 2.21h1Zm-19 0c0-1.221.99-2.21 2.21-2.21v-1A3.21 3.21 0 0 0 6 13.595h1ZM6 22.5A3.5 3.5 0 0 0 9.5 26v-1A2.5 2.5 0 0 1 7 22.5H6ZM22.5 26a3.5 3.5 0 0 0 3.5-3.5h-1a2.5 2.5 0 0 1-2.5 2.5v1Z" fill="#000"/></svg>