<svg width="32" height="32" viewBox="0 0 32 32" fill="none" xmlns="http://www.w3.org/2000/svg">
<path d="M14.1885 5.01034V9.79128C14.1885 10.9688 13.259 11.9241 12.1113 11.9241H7.0252M21.5382 27H10.4618C8.55016 27 7 25.4083 7 23.4453V12.3021C7 11.5166 7.3168 10.7658 7.8748 10.2283L12.4202 5.76926C12.9335 5.27463 13.611 5 14.3145 5H21.5382C23.4498 5 25 6.59168 25 8.5547V23.4453C25 25.4083 23.4506 27 21.5382 27Z" stroke="black" stroke-linejoin="round"/>
<path d="M15.6673 20V16H17.138C17.972 16 18.3333 16.5681 18.3333 17.0793C18.3333 17.5905 17.972 18.1586 17.138 18.1586H15.6673M13.8007 20V16L11.9 18.5959L10 16V20M21.382 20V16L19.114 18.8529H22" stroke="black" stroke-linecap="round" stroke-linejoin="round"/>
</svg>
