<svg width="32" height="32" viewBox="0 0 32 32" fill="none" xmlns="http://www.w3.org/2000/svg">
<path d="M7.8748 10.2283L8.22167 10.5885L8.22495 10.5852L7.8748 10.2283ZM12.4202 5.76926L12.0732 5.40919L12.07 5.41234L12.4202 5.76926ZM21.5382 26.5H10.4618V27.5H21.5382V26.5ZM10.4618 26.5C8.8387 26.5 7.5 25.1447 7.5 23.4453H6.5C6.5 25.6719 8.26162 27.5 10.4618 27.5V26.5ZM7.5 23.4453V12.3021H6.5V23.4453H7.5ZM7.5 12.3021C7.5 11.6504 7.763 11.0302 8.22166 10.5884L7.52794 9.8682C6.8706 10.5013 6.5 11.3828 6.5 12.3021H7.5ZM8.22495 10.5852L12.7703 6.12619L12.07 5.41234L7.52465 9.8714L8.22495 10.5852ZM12.7671 6.12932C13.1884 5.72339 13.742 5.5 14.3145 5.5V4.5C13.4801 4.5 12.6786 4.82588 12.0732 5.4092L12.7671 6.12932ZM14.3145 5.5H21.5382V4.5H14.3145V5.5ZM21.5382 5.5C23.1613 5.5 24.5 6.85526 24.5 8.5547H25.5C25.5 6.3281 23.7384 4.5 21.5382 4.5V5.5ZM24.5 8.5547V23.4453H25.5V8.5547H24.5ZM24.5 23.4453C24.5 25.1448 23.162 26.5 21.5382 26.5V27.5C23.7392 27.5 25.5 25.6718 25.5 23.4453H24.5ZM13.6885 5.01034V9.79128H14.6885V5.01034H13.6885ZM13.6885 9.79128C13.6885 10.7053 12.9703 11.4241 12.1113 11.4241V12.4241C13.5476 12.4241 14.6885 11.2323 14.6885 9.79128H13.6885ZM12.1113 11.4241H7.0252V12.4241H12.1113V11.4241Z" fill="black"/>
<path d="M12.4969 16.5C12.773 16.5 12.9969 16.2761 12.9969 16C12.9969 15.7239 12.773 15.5 12.4969 15.5V16.5ZM10 16V15.5C9.72386 15.5 9.5 15.7239 9.5 16H10ZM10 20H9.5C9.5 20.2761 9.72386 20.5 10 20.5V20ZM12.5672 20.5C12.8434 20.5 13.0672 20.2761 13.0672 20C13.0672 19.7239 12.8434 19.5 12.5672 19.5V20.5ZM10 17.416C9.72386 17.416 9.5 17.6399 9.5 17.916C9.5 18.1921 9.72386 18.416 10 18.416V17.416ZM12.5672 18.416C12.8434 18.416 13.0672 18.1921 13.0672 17.916C13.0672 17.6399 12.8434 17.416 12.5672 17.416V18.416ZM21.9297 16.5C22.2058 16.5 22.4297 16.2761 22.4297 16C22.4297 15.7239 22.2058 15.5 21.9297 15.5V16.5ZM19.4328 16V15.5C19.1566 15.5 18.9328 15.7239 18.9328 16H19.4328ZM19.4328 20H18.9328C18.9328 20.2761 19.1566 20.5 19.4328 20.5V20ZM22 20.5C22.2761 20.5 22.5 20.2761 22.5 20C22.5 19.7239 22.2761 19.5 22 19.5V20.5ZM19.4328 17.416C19.1566 17.416 18.9328 17.6399 18.9328 17.916C18.9328 18.1921 19.1566 18.416 19.4328 18.416V17.416ZM22 18.416C22.2761 18.416 22.5 18.1921 22.5 17.916C22.5 17.6399 22.2761 17.416 22 17.416V18.416ZM18.0934 16.326C18.2735 16.1166 18.2496 15.8009 18.0402 15.6209C17.8308 15.4408 17.5152 15.4646 17.3351 15.674L18.0934 16.326ZM13.9066 19.662C13.7265 19.8714 13.7504 20.1871 13.9598 20.3671C14.1692 20.5472 14.4848 20.5234 14.6649 20.314L13.9066 19.662ZM14.6649 15.674C14.4848 15.4646 14.1692 15.4408 13.9598 15.6209C13.7504 15.8009 13.7265 16.1166 13.9066 16.326L14.6649 15.674ZM17.3351 20.314C17.5152 20.5234 17.8308 20.5472 18.0402 20.3671C18.2496 20.1871 18.2735 19.8714 18.0934 19.662L17.3351 20.314ZM12.4969 15.5H10V16.5H12.4969V15.5ZM9.5 16V20H10.5V16H9.5ZM10 20.5H12.5672V19.5H10V20.5ZM10 18.416H12.5672V17.416H10V18.416ZM21.9297 15.5H19.4328V16.5H21.9297V15.5ZM18.9328 16V20H19.9328V16H18.9328ZM19.4328 20.5H22V19.5H19.4328V20.5ZM19.4328 18.416H22V17.416H19.4328V18.416ZM17.3351 15.674L13.9066 19.662L14.6649 20.314L18.0934 16.326L17.3351 15.674ZM13.9066 16.326L17.3351 20.314L18.0934 19.662L14.6649 15.674L13.9066 16.326Z" fill="black"/>
</svg>
