<svg width="32" height="32" viewBox="0 0 32 32" fill="none" xmlns="http://www.w3.org/2000/svg">
<path d="M11.3846 14.5385C11.3846 14.2623 11.1608 14.0385 10.8846 14.0385C10.6085 14.0385 10.3846 14.2623 10.3846 14.5385H11.3846ZM10.3846 25.5C10.3846 25.7761 10.6085 26 10.8846 26C11.1608 26 11.3846 25.7761 11.3846 25.5H10.3846ZM11.3846 6.5C11.3846 6.22386 11.1608 6 10.8846 6C10.6085 6 10.3846 6.22386 10.3846 6.5H11.3846ZM10.3846 9.42308C10.3846 9.69922 10.6085 9.92308 10.8846 9.92308C11.1608 9.92308 11.3846 9.69922 11.3846 9.42308H10.3846ZM21.6154 22.5769C21.6154 22.3008 21.3915 22.0769 21.1154 22.0769C20.8392 22.0769 20.6154 22.3008 20.6154 22.5769H21.6154ZM20.6154 25.5C20.6154 25.7761 20.8392 26 21.1154 26C21.3915 26 21.6154 25.7761 21.6154 25.5H20.6154ZM21.6154 6.5C21.6154 6.22386 21.3915 6 21.1154 6C20.8392 6 20.6154 6.22386 20.6154 6.5H21.6154ZM20.6154 17.4615C20.6154 17.7377 20.8392 17.9615 21.1154 17.9615C21.3915 17.9615 21.6154 17.7377 21.6154 17.4615H20.6154ZM10.3846 14.5385L10.3846 25.5H11.3846L11.3846 14.5385H10.3846ZM10.3846 6.5V9.42308H11.3846V6.5H10.3846ZM20.6154 22.5769V25.5H21.6154V22.5769H20.6154ZM20.6154 6.5V17.4615H21.6154V6.5H20.6154ZM8.5 9.9231H13.2692V8.9231H8.5V9.9231ZM14.7692 11.4231V12.5385H15.7692V11.4231H14.7692ZM13.2692 14.0385H8.5V15.0385H13.2692V14.0385ZM7 12.5385V11.4231H6V12.5385H7ZM8.5 14.0385C7.67157 14.0385 7 13.3669 7 12.5385H6C6 13.9192 7.11929 15.0385 8.5 15.0385V14.0385ZM14.7692 12.5385C14.7692 13.3669 14.0977 14.0385 13.2692 14.0385V15.0385C14.6499 15.0385 15.7692 13.9192 15.7692 12.5385H14.7692ZM13.2692 9.9231C14.0977 9.9231 14.7692 10.5947 14.7692 11.4231H15.7692C15.7692 10.0424 14.6499 8.9231 13.2692 8.9231V9.9231ZM8.5 8.9231C7.11929 8.9231 6 10.0424 6 11.4231H7C7 10.5947 7.67157 9.9231 8.5 9.9231V8.9231ZM18.7308 17.9615H23.5V16.9615H18.7308V17.9615ZM25 19.4615V20.5769H26V19.4615H25ZM23.5 22.0769H18.7308V23.0769H23.5V22.0769ZM17.2308 20.5769V19.4615H16.2308V20.5769H17.2308ZM18.7308 22.0769C17.9023 22.0769 17.2308 21.4054 17.2308 20.5769H16.2308C16.2308 21.9576 17.3501 23.0769 18.7308 23.0769V22.0769ZM25 20.5769C25 21.4054 24.3284 22.0769 23.5 22.0769V23.0769C24.8807 23.0769 26 21.9576 26 20.5769H25ZM23.5 17.9615C24.3284 17.9615 25 18.6331 25 19.4615H26C26 18.0808 24.8807 16.9615 23.5 16.9615V17.9615ZM18.7308 16.9615C17.3501 16.9615 16.2308 18.0808 16.2308 19.4615H17.2308C17.2308 18.6331 17.9023 17.9615 18.7308 17.9615V16.9615Z" fill="black"/>
</svg>
