<svg width="32" height="32" fill="none" xmlns="http://www.w3.org/2000/svg"><path d="M13.808 22.615a1.5 1.5 0 0 1 1.5-1.5h1.384a1.5 1.5 0 0 1 1.5 1.5V24a1.5 1.5 0 0 1-1.5 1.5h-1.384a1.5 1.5 0 0 1-1.5-1.5v-1.385ZM13.808 15.308a1.5 1.5 0 0 1 1.5-1.5h1.384a1.5 1.5 0 0 1 1.5 1.5v1.384a1.5 1.5 0 0 1-1.5 1.5h-1.384a1.5 1.5 0 0 1-1.5-1.5v-1.384ZM6.5 22.615a1.5 1.5 0 0 1 1.5-1.5h1.385a1.5 1.5 0 0 1 1.5 1.5V24a1.5 1.5 0 0 1-1.5 1.5H8A1.5 1.5 0 0 1 6.5 24v-1.385ZM21.115 22.615a1.5 1.5 0 0 1 1.5-1.5H24a1.5 1.5 0 0 1 1.5 1.5V24a1.5 1.5 0 0 1-1.5 1.5h-1.385a1.5 1.5 0 0 1-1.5-1.5v-1.385ZM21.115 15.308a1.5 1.5 0 0 1 1.5-1.5H24a1.5 1.5 0 0 1 1.5 1.5v1.384a1.5 1.5 0 0 1-1.5 1.5h-1.385a1.5 1.5 0 0 1-1.5-1.5v-1.384ZM13.808 8a1.5 1.5 0 0 1 1.5-1.5h1.384a1.5 1.5 0 0 1 1.5 1.5v1.385a1.5 1.5 0 0 1-1.5 1.5h-1.384a1.5 1.5 0 0 1-1.5-1.5V8Z" stroke="#000" stroke-linecap="round"/></svg>