<svg width="32" height="32" viewBox="0 0 32 32" fill="none" xmlns="http://www.w3.org/2000/svg">
<path d="M7.8748 10.2283L8.22167 10.5885L8.22495 10.5852L7.8748 10.2283ZM12.4202 5.76926L12.0732 5.40919L12.07 5.41234L12.4202 5.76926ZM21.5382 26.5H10.4618V27.5H21.5382V26.5ZM10.4618 26.5C8.8387 26.5 7.5 25.1447 7.5 23.4453H6.5C6.5 25.6719 8.26162 27.5 10.4618 27.5V26.5ZM7.5 23.4453V12.3021H6.5V23.4453H7.5ZM7.5 12.3021C7.5 11.6504 7.763 11.0302 8.22166 10.5884L7.52794 9.8682C6.8706 10.5013 6.5 11.3828 6.5 12.3021H7.5ZM8.22495 10.5852L12.7703 6.12619L12.07 5.41234L7.52465 9.8714L8.22495 10.5852ZM12.7671 6.12932C13.1884 5.72339 13.742 5.5 14.3145 5.5V4.5C13.4801 4.5 12.6786 4.82588 12.0732 5.4092L12.7671 6.12932ZM14.3145 5.5H21.5382V4.5H14.3145V5.5ZM21.5382 5.5C23.1613 5.5 24.5 6.85526 24.5 8.5547H25.5C25.5 6.3281 23.7384 4.5 21.5382 4.5V5.5ZM24.5 8.5547V23.4453H25.5V8.5547H24.5ZM24.5 23.4453C24.5 25.1448 23.162 26.5 21.5382 26.5V27.5C23.7392 27.5 25.5 25.6718 25.5 23.4453H24.5ZM13.6885 5.01034V9.79128H14.6885V5.01034H13.6885ZM13.6885 9.79128C13.6885 10.7053 12.9703 11.4241 12.1113 11.4241V12.4241C13.5476 12.4241 14.6885 11.2323 14.6885 9.79128H13.6885ZM12.1113 11.4241H7.0252V12.4241H12.1113V11.4241Z" fill="black"/>
<path d="M13.7417 19.7719C13.9567 19.5986 13.9906 19.2838 13.8173 19.0688C13.644 18.8538 13.3292 18.82 13.1142 18.9933L13.7417 19.7719ZM13.1154 16.2071C13.3306 16.3801 13.6454 16.3459 13.8184 16.1307C13.9914 15.9155 13.9572 15.6007 13.7419 15.4277L13.1154 16.2071ZM17.2019 16.0783C17.4658 16.1596 17.7457 16.0116 17.827 15.7477C17.9083 15.4838 17.7603 15.204 17.4963 15.1227L17.2019 16.0783ZM15.2788 18.8916C15.0387 18.7552 14.7335 18.8392 14.5971 19.0792C14.4606 19.3193 14.5446 19.6245 14.7847 19.761L15.2788 18.8916ZM21.4259 16.0783C21.6898 16.1596 21.9696 16.0116 22.0509 15.7477C22.1322 15.4838 21.9842 15.204 21.7203 15.1227L21.4259 16.0783ZM19.5027 18.8916C19.2627 18.7552 18.9574 18.8392 18.821 19.0792C18.6845 19.3193 18.7685 19.6245 19.0086 19.761L19.5027 18.8916ZM13.1142 18.9933C12.9808 19.1009 12.8644 19.1719 12.7342 19.2194C12.6033 19.2672 12.4339 19.3 12.187 19.3V20.3C12.5253 20.3 12.8145 20.2546 13.0769 20.1589C13.34 20.0629 13.5515 19.9252 13.7417 19.7719L13.1142 18.9933ZM12.187 19.3C11.2074 19.3 10.5 18.58 10.5 17.5997H9.5C9.5 19.1211 10.644 20.3 12.187 20.3V19.3ZM10.5 17.5997C10.5 16.6198 11.2077 15.9 12.1877 15.9V14.9C10.6451 14.9 9.5 16.0779 9.5 17.5997H10.5ZM12.1877 15.9C12.6503 15.9 12.8741 16.0131 13.1154 16.2071L13.7419 15.4277C13.3359 15.1014 12.8942 14.9 12.1877 14.9V15.9ZM17.4963 15.1227C16.8083 14.9107 16.1581 14.887 15.6465 15.0829C15.1048 15.2904 14.7375 15.7467 14.7375 16.3591H15.7375C15.7375 16.2095 15.802 16.0942 16.0042 16.0168C16.2364 15.9278 16.642 15.9058 17.2019 16.0783L17.4963 15.1227ZM14.7375 16.3591C14.7375 16.8818 15.0078 17.2453 15.3282 17.4932C15.6262 17.7237 16.007 17.8849 16.3097 18.0148C16.6441 18.1583 16.8987 18.2697 17.0783 18.4052C17.2358 18.524 17.2761 18.6153 17.2761 18.7242H18.2761C18.2761 18.2043 17.9991 17.8473 17.6806 17.6069C17.3842 17.3833 17.0041 17.2246 16.704 17.0958C16.372 16.9534 16.1182 16.84 15.9401 16.7023C15.7846 16.5819 15.7375 16.4835 15.7375 16.3591H14.7375ZM17.2761 18.7242C17.2761 18.8865 17.2266 18.9832 17.1648 19.0486C17.0964 19.121 16.9776 19.1909 16.7906 19.2273C16.4089 19.3017 15.844 19.2129 15.2788 18.8916L14.7847 19.761C15.5058 20.1709 16.3131 20.3392 16.9819 20.2088C17.3203 20.1429 17.6464 19.9949 17.8916 19.7355C18.1433 19.4692 18.2761 19.1201 18.2761 18.7242H17.2761ZM21.7203 15.1227C21.0322 14.9107 20.382 14.887 19.8704 15.0829C19.3288 15.2904 18.9615 15.7467 18.9615 16.3591H19.9615C19.9615 16.2095 20.026 16.0942 20.2281 16.0168C20.4603 15.9278 20.8659 15.9058 21.4259 16.0783L21.7203 15.1227ZM18.9615 16.3591C18.9615 16.8818 19.2318 17.2453 19.5521 17.4932C19.8501 17.7237 20.2309 17.8849 20.5336 18.0148C20.868 18.1583 21.1226 18.2697 21.3022 18.4052C21.4597 18.524 21.5 18.6153 21.5 18.7242H22.5C22.5 18.2043 22.223 17.8473 21.9045 17.6069C21.6081 17.3833 21.228 17.2246 20.9279 17.0958C20.5959 16.9534 20.3421 16.84 20.1641 16.7023C20.0085 16.5819 19.9615 16.4835 19.9615 16.3591H18.9615ZM21.5 18.7242C21.5 18.8865 21.4506 18.9832 21.3887 19.0486C21.3203 19.121 21.2015 19.1909 21.0146 19.2273C20.6328 19.3017 20.068 19.2129 19.5027 18.8916L19.0086 19.761C19.7297 20.1709 20.537 20.3392 21.2059 20.2088C21.5442 20.1429 21.8703 19.9949 22.1155 19.7355C22.3672 19.4692 22.5 19.1201 22.5 18.7242H21.5Z" fill="black"/>
</svg>
