<svg width="32" height="32" viewBox="0 0 32 32" fill="none" xmlns="http://www.w3.org/2000/svg">
<path d="M14.1885 5.01034V9.79128C14.1885 10.9688 13.259 11.9241 12.1113 11.9241H7.0252M21.5382 27H10.4618C8.55016 27 7 25.4083 7 23.4453V12.3021C7 11.5166 7.3168 10.7658 7.8748 10.2283L12.4202 5.76926C12.9335 5.27463 13.611 5 14.3145 5H21.5382C23.4498 5 25 6.59168 25 8.5547V23.4453C25 25.4083 23.4506 27 21.5382 27Z" stroke="black" stroke-linejoin="round"/>
<path d="M10 20.3789V16.0001H11.645C12.5769 16.0001 12.9819 16.6219 12.9819 17.1817C12.9819 17.7414 12.5776 18.3632 11.645 18.3632H10M16.5849 16.1519C15.3545 15.7666 14.5021 16.1483 14.5021 16.9124C14.5021 18.2092 17.006 18.0224 17.006 19.2828C17.006 20.4015 15.5676 20.619 14.2992 19.8863M18.7524 16.0001V20.3789H19.8581C21.0929 20.3789 22 19.4346 22 18.1895C22 16.9445 21.0936 16.0001 19.8581 16.0001H18.7524Z" stroke="black" stroke-linecap="round" stroke-linejoin="round"/>
</svg>
