<svg width="32" height="32" viewBox="0 0 32 32" fill="none" xmlns="http://www.w3.org/2000/svg">
<path d="M14.1885 5.01034V9.79128C14.1885 10.9688 13.259 11.9241 12.1113 11.9241H7.0252M21.5382 27H10.4618C8.55016 27 7 25.4083 7 23.4453V12.3021C7 11.5166 7.3168 10.7658 7.8748 10.2283L12.4202 5.76926C12.9335 5.27463 13.611 5 14.3145 5H21.5382C23.4498 5 25 6.59168 25 8.5547V23.4453C25 25.4083 23.4506 27 21.5382 27Z" stroke="black" stroke-linejoin="round"/>
<path d="M14.1633 16V20M14.3173 18H17.438M17.498 16V20M10 20V16H11.5013C12.3527 16 12.7213 16.568 12.7213 17.0793C12.7213 17.5907 12.3527 18.1587 11.5013 18.1587H10M19.2787 20V16H20.78C21.6307 16 22 16.568 22 17.0793C22 17.5907 21.6313 18.1587 20.78 18.1587H19.2787" stroke="black" stroke-linecap="round" stroke-linejoin="round"/>
</svg>
