<svg width="32" height="32" viewBox="0 0 32 32" fill="none" xmlns="http://www.w3.org/2000/svg">
<path d="M14.1885 5.01034V9.79128C14.1885 10.9688 13.259 11.9241 12.1113 11.9241H7.0252M21.5382 27H10.4618C8.55016 27 7 25.4083 7 23.4453V12.3021C7 11.5166 7.3168 10.7658 7.8748 10.2283L12.4202 5.76926C12.9335 5.27463 13.611 5 14.3145 5H21.5382C23.4498 5 25 6.59168 25 8.5547V23.4453C25 25.4083 23.4506 27 21.5382 27Z" stroke="black" stroke-linejoin="round"/>
<path d="M13.428 19.3826C13.1043 19.6435 12.7722 19.8 12.187 19.8C10.9257 19.8 10 18.8505 10 17.5997C10 16.3488 10.9264 15.4 12.1877 15.4C12.7722 15.4 13.105 15.5572 13.4287 15.8174M17.3491 15.6005C16.1012 15.216 15.2375 15.5971 15.2375 16.3591C15.2375 17.6532 17.7761 17.4665 17.7761 18.7242C17.7761 19.8405 16.3181 20.0575 15.0317 19.3263M21.5731 15.6005C20.3251 15.216 19.4615 15.5971 19.4615 16.3591C19.4615 17.6532 22 17.4665 22 18.7242C22 19.8405 20.542 20.0575 19.2557 19.3263" stroke="black" stroke-linecap="round" stroke-linejoin="round"/>
</svg>
