<svg width="32" height="32" viewBox="0 0 32 32" fill="none" xmlns="http://www.w3.org/2000/svg">
<path d="M7.8748 10.2283L8.22167 10.5885L8.22495 10.5852L7.8748 10.2283ZM12.4202 5.76926L12.0732 5.40919L12.07 5.41234L12.4202 5.76926ZM21.5382 26.5H10.4618V27.5H21.5382V26.5ZM10.4618 26.5C8.8387 26.5 7.5 25.1447 7.5 23.4453H6.5C6.5 25.6719 8.26162 27.5 10.4618 27.5V26.5ZM7.5 23.4453V12.3021H6.5V23.4453H7.5ZM7.5 12.3021C7.5 11.6504 7.763 11.0302 8.22166 10.5884L7.52794 9.8682C6.8706 10.5013 6.5 11.3828 6.5 12.3021H7.5ZM8.22495 10.5852L12.7703 6.12619L12.07 5.41234L7.52465 9.8714L8.22495 10.5852ZM12.7671 6.12932C13.1884 5.72339 13.742 5.5 14.3145 5.5V4.5C13.4801 4.5 12.6786 4.82588 12.0732 5.4092L12.7671 6.12932ZM14.3145 5.5H21.5382V4.5H14.3145V5.5ZM21.5382 5.5C23.1613 5.5 24.5 6.85526 24.5 8.5547H25.5C25.5 6.3281 23.7384 4.5 21.5382 4.5V5.5ZM24.5 8.5547V23.4453H25.5V8.5547H24.5ZM24.5 23.4453C24.5 25.1448 23.162 26.5 21.5382 26.5V27.5C23.7392 27.5 25.5 25.6718 25.5 23.4453H24.5ZM13.6885 5.01034V9.79128H14.6885V5.01034H13.6885ZM13.6885 9.79128C13.6885 10.7053 12.9703 11.4241 12.1113 11.4241V12.4241C13.5476 12.4241 14.6885 11.2323 14.6885 9.79128H13.6885ZM12.1113 11.4241H7.0252V12.4241H12.1113V11.4241Z" fill="black"/>
<path d="M17.9335 20.4C17.9335 20.6761 18.1574 20.9 18.4335 20.9C18.7096 20.9 18.9335 20.6761 18.9335 20.4H17.9335ZM18.9335 16C18.9335 15.7239 18.7096 15.5 18.4335 15.5C18.1574 15.5 17.9335 15.7239 17.9335 16H18.9335ZM18.4335 17.9509C18.1574 17.9509 17.9335 18.1748 17.9335 18.4509C17.9335 18.7271 18.1574 18.9509 18.4335 18.9509V17.9509ZM18.4335 15.5007C18.1574 15.5007 17.9335 15.7245 17.9335 16.0007C17.9335 16.2768 18.1574 16.5007 18.4335 16.5007V15.5007ZM16.4308 16C16.4308 15.7239 16.2069 15.5 15.9308 15.5C15.6547 15.5 15.4308 15.7239 15.4308 16H16.4308ZM15.4308 20.4C15.4308 20.6761 15.6547 20.9 15.9308 20.9C16.2069 20.9 16.4308 20.6761 16.4308 20.4H15.4308ZM10.6424 15.5007C10.3662 15.5008 10.1424 15.7247 10.1425 16.0008C10.1426 16.2769 10.3665 16.5008 10.6426 16.5007L10.6424 15.5007ZM13.5222 16L13.932 16.2865C14.0388 16.1337 14.0517 15.9342 13.9656 15.7689C13.8794 15.6036 13.7085 15.5 13.5221 15.5L13.5222 16ZM10.5 20.323L10.0902 20.0365C9.98342 20.1893 9.97046 20.3887 10.0566 20.554C10.1427 20.7193 10.3136 20.823 10.5 20.823V20.323ZM13.5713 20.823C13.8474 20.823 14.0713 20.5991 14.0713 20.323C14.0713 20.0469 13.8474 19.823 13.5713 19.823V20.823ZM18.9335 20.4V16H17.9335V20.4H18.9335ZM18.4335 18.9509H20.1249V17.9509H18.4335V18.9509ZM20.1249 18.9509C20.7237 18.9509 21.2038 18.7458 21.5333 18.4018C21.8554 18.0655 22 17.631 22 17.2258H21C21 17.4009 20.9367 17.579 20.8111 17.7101C20.6928 17.8336 20.4854 17.9509 20.1249 17.9509V18.9509ZM22 17.2258C22 16.8206 21.8554 16.3862 21.5333 16.0498C21.2038 15.7058 20.7237 15.5007 20.1249 15.5007V16.5007C20.4854 16.5007 20.6928 16.618 20.8111 16.7415C20.9367 16.8727 21 17.0507 21 17.2258H22ZM20.1249 15.5007H18.4335V16.5007H20.1249V15.5007ZM15.4308 16V20.4H16.4308V16H15.4308ZM10.6426 16.5007L13.5223 16.5L13.5221 15.5L10.6424 15.5007L10.6426 16.5007ZM13.1124 15.7135L10.0902 20.0365L10.9098 20.6095L13.932 16.2865L13.1124 15.7135ZM10.5 20.823H13.5713V19.823H10.5V20.823Z" fill="black"/>
</svg>
