<svg width="32" height="32" fill="none" xmlns="http://www.w3.org/2000/svg"><path d="M10.154 22.577v.5-.5Zm0-7.308v.5-.5Zm.192 7.308v.5-.5Zm0-7.308v.5-.5Zm11.5 7.308v.5-.5Zm0-7.308v.5-.5Zm-.192 7.308v.5-.5Zm0-7.308v.5-.5Zm1.323 7.608a.5.5 0 0 0-.8-.6l.8.6ZM21.285 24.3l-.4-.3.4.3ZM16 25a.5.5 0 0 0 0 1v-1ZM9.192 13.681C9.192 10 12.232 7 16 7V6c-4.304 0-7.808 3.43-7.808 7.681h1ZM16 7c3.768 0 6.808 3 6.808 6.681h1C23.808 9.431 20.304 6 16 6v1Zm6.808 6.681v2.035h1V13.68h-1Zm-14.616 0v2.035h1V13.68h-1Zm1.962 8.396A3.154 3.154 0 0 1 7 18.923H6a4.154 4.154 0 0 0 4.154 4.154v-1ZM7 18.923a3.154 3.154 0 0 1 3.154-3.154v-1A4.154 4.154 0 0 0 6 18.923h1Zm3.154-3.154h.192v-1h-.192v1Zm1.692 1.5v3.308h1v-3.308h-1Zm-1.5 4.808h-.192v1h.192v-1Zm1.5-1.5a1.5 1.5 0 0 1-1.5 1.5v1a2.5 2.5 0 0 0 2.5-2.5h-1Zm-1.5-4.808a1.5 1.5 0 0 1 1.5 1.5h1a2.5 2.5 0 0 0-2.5-2.5v1Zm11.5 7.308A4.154 4.154 0 0 0 26 18.923h-1a3.154 3.154 0 0 1-3.154 3.154v1ZM26 18.923a4.154 4.154 0 0 0-4.154-4.154v1A3.154 3.154 0 0 1 25 18.923h1Zm-4.154-4.154h-.192v1h.192v-1Zm-2.692 2.5v3.308h1v-3.308h-1Zm2.5 5.808h.192v-1h-.192v1Zm-2.5-2.5a2.5 2.5 0 0 0 2.5 2.5v-1a1.5 1.5 0 0 1-1.5-1.5h-1Zm2.5-5.808a2.5 2.5 0 0 0-2.5 2.5h1a1.5 1.5 0 0 1 1.5-1.5v-1Zm.523 7.508L20.885 24l.8.6 1.292-1.723-.8-.6ZM18.885 25H16v1h2.885v-1Zm2-1a2.5 2.5 0 0 1-2 1v1a3.5 3.5 0 0 0 2.8-1.4l-.8-.6Z" fill="#000"/></svg>