<svg width="32" height="32" viewBox="0 0 32 32" fill="none" xmlns="http://www.w3.org/2000/svg">
<path d="M7.8748 10.2283L8.22167 10.5885L8.22495 10.5852L7.8748 10.2283ZM12.4202 5.76926L12.0732 5.40919L12.07 5.41234L12.4202 5.76926ZM21.5382 26.5H10.4618V27.5H21.5382V26.5ZM10.4618 26.5C8.8387 26.5 7.5 25.1447 7.5 23.4453H6.5C6.5 25.6719 8.26162 27.5 10.4618 27.5V26.5ZM7.5 23.4453V12.3021H6.5V23.4453H7.5ZM7.5 12.3021C7.5 11.6504 7.763 11.0302 8.22166 10.5884L7.52794 9.8682C6.8706 10.5013 6.5 11.3828 6.5 12.3021H7.5ZM8.22495 10.5852L12.7703 6.12619L12.07 5.41234L7.52465 9.8714L8.22495 10.5852ZM12.7671 6.12932C13.1884 5.72339 13.742 5.5 14.3145 5.5V4.5C13.4801 4.5 12.6786 4.82588 12.0732 5.4092L12.7671 6.12932ZM14.3145 5.5H21.5382V4.5H14.3145V5.5ZM21.5382 5.5C23.1613 5.5 24.5 6.85526 24.5 8.5547H25.5C25.5 6.3281 23.7384 4.5 21.5382 4.5V5.5ZM24.5 8.5547V23.4453H25.5V8.5547H24.5ZM24.5 23.4453C24.5 25.1448 23.162 26.5 21.5382 26.5V27.5C23.7392 27.5 25.5 25.6718 25.5 23.4453H24.5ZM13.6885 5.01034V9.79128H14.6885V5.01034H13.6885ZM13.6885 9.79128C13.6885 10.7053 12.9703 11.4241 12.1113 11.4241V12.4241C13.5476 12.4241 14.6885 11.2323 14.6885 9.79128H13.6885ZM12.1113 11.4241H7.0252V12.4241H12.1113V11.4241Z" fill="black"/>
<path d="M9.5 20C9.5 20.2761 9.72386 20.5 10 20.5C10.2761 20.5 10.5 20.2761 10.5 20H9.5ZM10 16V15.5C9.72386 15.5 9.5 15.7239 9.5 16H10ZM10 17.6587C9.72386 17.6587 9.5 17.8825 9.5 18.1587C9.5 18.4348 9.72386 18.6587 10 18.6587V17.6587ZM13.9765 20C13.9765 20.2761 14.2003 20.5 14.4765 20.5C14.7526 20.5 14.9765 20.2761 14.9765 20H13.9765ZM14.4765 16V15.5C14.2003 15.5 13.9765 15.7239 13.9765 16H14.4765ZM14.4765 17.6587C14.2003 17.6587 13.9765 17.8825 13.9765 18.1587C13.9765 18.4348 14.2003 18.6587 14.4765 18.6587V17.6587ZM19.697 20C19.697 20.2761 19.9209 20.5 20.197 20.5C20.4732 20.5 20.697 20.2761 20.697 20H19.697ZM20.697 16.1113C20.697 15.8352 20.4732 15.6113 20.197 15.6113C19.9209 15.6113 19.697 15.8352 19.697 16.1113H20.697ZM22 16.5C22.2761 16.5 22.5 16.2761 22.5 16C22.5 15.7239 22.2761 15.5 22 15.5V16.5ZM18.3948 15.5C18.1186 15.5 17.8948 15.7239 17.8948 16C17.8948 16.2761 18.1186 16.5 18.3948 16.5V15.5ZM10.5 20V16H9.5V20H10.5ZM10 18.6587H11.5141V17.6587H10V18.6587ZM11.5141 18.6587C12.06 18.6587 12.5032 18.4745 12.8097 18.1594C13.1095 17.8513 13.2447 17.4524 13.2447 17.0793H12.2447C12.2447 17.2176 12.1939 17.3583 12.093 17.4621C11.9988 17.5588 11.8267 17.6587 11.5141 17.6587V18.6587ZM13.2447 17.0793C13.2447 16.7061 13.1092 16.3071 12.8094 15.9992C12.5029 15.6842 12.0598 15.5 11.5141 15.5V16.5C11.8263 16.5 11.9985 16.5998 12.0928 16.6967C12.1939 16.8005 12.2447 16.9413 12.2447 17.0793H13.2447ZM11.5141 15.5H10V16.5H11.5141V15.5ZM14.9765 20V16H13.9765V20H14.9765ZM14.4765 18.6587H15.9906V17.6587H14.4765V18.6587ZM15.9906 18.6587C16.5365 18.6587 16.9797 18.4745 17.2862 18.1594C17.586 17.8513 17.7212 17.4524 17.7212 17.0793H16.7212C16.7212 17.2176 16.6704 17.3583 16.5695 17.4621C16.4753 17.5588 16.3032 17.6587 15.9906 17.6587V18.6587ZM17.7212 17.0793C17.7212 16.7063 17.586 16.3073 17.2862 15.9992C16.9797 15.6842 16.5365 15.5 15.9906 15.5V16.5C16.3032 16.5 16.4753 16.5998 16.5695 16.6966C16.6704 16.8003 16.7212 16.941 16.7212 17.0793H17.7212ZM15.9906 15.5H14.4765V16.5H15.9906V15.5ZM20.697 20V16.1113H19.697V20H20.697ZM22 15.5H18.3948V16.5H22V15.5Z" fill="black"/>
</svg>
