<svg width="32" height="32" viewBox="0 0 32 32" fill="none" xmlns="http://www.w3.org/2000/svg">
<path d="M15.5 25.5C15.5 25.7761 15.7238 26 16 26C16.2761 26 16.5 25.7761 16.5 25.5L15.5 25.5ZM16.5 6.5C16.5 6.22386 16.2762 6 16.0001 6C15.7239 6 15.5 6.22386 15.5 6.5L16.5 6.5ZM10.75 21.6329C10.75 21.909 10.9739 22.1329 11.25 22.1329C11.5262 22.1329 11.75 21.909 11.75 21.6329L10.75 21.6329ZM11.75 10.3671C11.75 10.091 11.5262 9.86711 11.25 9.86711C10.9739 9.86711 10.75 10.091 10.75 10.3671L11.75 10.3671ZM6.0001 18.5392C6.00011 18.8153 6.22397 19.0392 6.50011 19.0392C6.77626 19.0392 7.00011 18.8153 7.0001 18.5391L6.0001 18.5392ZM7 13.4608C6.99999 13.1847 6.77613 12.9608 6.49999 12.9608C6.22385 12.9608 5.99999 13.1847 6 13.4608L7 13.4608ZM20.25 21.6329C20.25 21.909 20.4739 22.1329 20.75 22.1329C21.0262 22.1329 21.25 21.909 21.25 21.6329L20.25 21.6329ZM21.25 10.3671C21.25 10.091 21.0262 9.86711 20.75 9.86711C20.4739 9.86711 20.25 10.091 20.25 10.3671L21.25 10.3671ZM25 18.5391C25 18.8153 25.2238 19.0392 25.5 19.0392C25.7761 19.0392 26 18.8153 26 18.5392L25 18.5391ZM26.0001 13.4608C26.0001 13.1847 25.7762 12.9608 25.5001 12.9608C25.2239 12.9608 25.0001 13.1847 25.0001 13.4608L26.0001 13.4608ZM16.5 25.5L16.5 6.5L15.5 6.5L15.5 25.5L16.5 25.5ZM11.75 21.6329L11.75 10.3671L10.75 10.3671L10.75 21.6329L11.75 21.6329ZM7.0001 18.5391L7 13.4608L6 13.4608L6.0001 18.5392L7.0001 18.5391ZM21.25 21.6329L21.25 10.3671L20.25 10.3671L20.25 21.6329L21.25 21.6329ZM26 18.5392L26.0001 13.4608L25.0001 13.4608L25 18.5391L26 18.5392Z" fill="black"/>
</svg>
