<svg width="32" height="32" viewBox="0 0 32 32" fill="none" xmlns="http://www.w3.org/2000/svg">
<path d="M18.7021 22.6852H19.2021V22.1852H18.7021V22.6852ZM12.9269 22.6852V22.1852H12.4269V22.6852H12.9269ZM23.9923 21.2487L23.4944 21.2943V21.2943L23.9923 21.2487ZM8.01032 21.2236L8.5076 21.2757L8.01032 21.2236ZM18.1658 9.02725H17.6658V9.35943L17.972 9.48817L18.1658 9.02725ZM21.5403 13.0573L22.0168 12.9057L21.5403 13.0573ZM10.4301 13.1531L10.9087 13.298V13.298L10.4301 13.1531ZM13.8344 9.02724L14.0282 9.48816L14.3344 9.35942V9.02724H13.8344ZM23.7818 20.6855L24.2089 20.4255V20.4255L23.7818 20.6855ZM22.4975 18.5762L22.0704 18.8362L22.4975 18.5762ZM21.926 16.8057L21.4275 16.8444L21.926 16.8057ZM21.7108 14.0349L21.2123 14.0736V14.0736L21.7108 14.0349ZM8.19925 20.7036L8.63262 20.953L8.63262 20.953L8.19925 20.7036ZM9.46872 18.4976L9.90208 18.747H9.90208L9.46872 18.4976ZM9.98079 16.9119L9.48341 16.8607L9.98079 16.9119ZM10.2872 13.9339L9.78979 13.8827L10.2872 13.9339ZM18.2021 22.6852C18.2021 23.9517 17.1452 25 15.8145 25V26C17.6733 26 19.2021 24.5279 19.2021 22.6852H18.2021ZM15.8145 25C14.4837 25 13.4269 23.9517 13.4269 22.6852H12.4269C12.4269 24.5279 13.9557 26 15.8145 26V25ZM12.9269 23.1852H18.7021V22.1852H12.9269V23.1852ZM9.1717 23.1852H22.8284V22.1852H9.1717V23.1852ZM22.8284 23.1852C23.3911 23.1852 23.8519 22.9506 24.1479 22.5539C24.4334 22.1711 24.534 21.6816 24.4902 21.2032L23.4944 21.2943C23.5209 21.5839 23.4533 21.8125 23.3463 21.956C23.2497 22.0855 23.0934 22.1852 22.8284 22.1852V23.1852ZM7.51304 21.1715C7.46236 21.6553 7.55847 22.1521 7.84302 22.5414C8.13814 22.9451 8.60252 23.1852 9.1717 23.1852V22.1852C8.90423 22.1852 8.74714 22.0837 8.65035 21.9513C8.54298 21.8044 8.47673 21.5703 8.5076 21.2757L7.51304 21.1715ZM14.3344 8.61111C14.3344 7.73328 15.068 7 16.0001 7V6C14.54 6 13.3344 7.15708 13.3344 8.61111H14.3344ZM16.0001 7C16.9321 7 17.6658 7.73328 17.6658 8.61111H18.6658C18.6658 7.15708 17.4602 6 16.0001 6V7ZM17.972 9.48817C19.9205 10.3074 20.7671 12.2763 21.0638 13.2089L22.0168 12.9057C21.7001 11.9103 20.7337 9.5645 18.3596 8.56633L17.972 9.48817ZM18.6658 9.02725V8.61111H17.6658V9.02725H18.6658ZM10.9087 13.298C11.1755 12.4165 12.0109 10.3363 14.0282 9.48816L13.6406 8.56632C11.1854 9.59854 10.235 12.0721 9.95157 13.0082L10.9087 13.298ZM14.3344 9.02724V8.61111H13.3344V9.02724H14.3344ZM24.2089 20.4255L22.9245 18.3162L22.0704 18.8362L23.3547 20.9456L24.2089 20.4255ZM22.4245 16.767L22.2093 13.9962L21.2123 14.0736L21.4275 16.8444L22.4245 16.767ZM8.63262 20.953L9.90208 18.747L9.03535 18.2482L7.76588 20.4542L8.63262 20.953ZM10.4782 16.963L10.7845 13.9851L9.78979 13.8827L9.48341 16.8607L10.4782 16.963ZM24.4902 21.2032C24.4617 20.8908 24.3311 20.6262 24.2089 20.4255L23.3547 20.9456C23.4436 21.0915 23.486 21.2025 23.4944 21.2943L24.4902 21.2032ZM8.5076 21.2757C8.51646 21.191 8.55447 21.0888 8.63262 20.953L7.76588 20.4542C7.65813 20.6414 7.543 20.8855 7.51304 21.1715L8.5076 21.2757ZM22.9245 18.3162C22.6384 17.8462 22.4671 17.3155 22.4245 16.767L21.4275 16.8444C21.4823 17.5496 21.7025 18.232 22.0704 18.8362L22.9245 18.3162ZM9.90208 18.747C10.2172 18.1994 10.4135 17.5915 10.4782 16.963L9.48341 16.8607C9.43312 17.3495 9.28046 17.8223 9.03535 18.2482L9.90208 18.747ZM9.95157 13.0082C9.86096 13.3074 9.81826 13.606 9.78979 13.8827L10.7845 13.9851C10.8105 13.733 10.8452 13.5075 10.9087 13.298L9.95157 13.0082ZM21.0638 13.2089C21.1477 13.4724 21.1878 13.7576 21.2123 14.0736L22.2093 13.9962C22.1824 13.649 22.1346 13.276 22.0168 12.9057L21.0638 13.2089Z" fill="black"/>
<path d="M24.1818 12.8787C24.1148 13.1466 24.2777 13.4181 24.5456 13.4851C24.8135 13.552 25.0849 13.3892 25.1519 13.1213L24.1818 12.8787ZM21.4709 6.51924C21.2054 6.44338 20.9286 6.59712 20.8528 6.86264C20.7769 7.12816 20.9306 7.4049 21.1962 7.48076L21.4709 6.51924ZM6.79194 13.1213C6.85891 13.3892 7.13037 13.552 7.39827 13.4851C7.66617 13.4181 7.82906 13.1466 7.76209 12.8787L6.79194 13.1213ZM10.7477 7.48076C11.0132 7.4049 11.1669 7.12816 11.0911 6.86264C11.0152 6.59712 10.7385 6.44338 10.473 6.51924L10.7477 7.48076ZM25.1519 13.1213C25.8838 10.1934 24.0639 7.26009 21.4709 6.51924L21.1962 7.48076C23.2697 8.0732 24.7831 10.4732 24.1818 12.8787L25.1519 13.1213ZM7.76209 12.8787C7.16077 10.4732 8.67415 8.0732 10.7477 7.48076L10.473 6.51924C7.87999 7.26009 6.06005 10.1934 6.79194 13.1213L7.76209 12.8787Z" fill="black"/>
</svg>
