<svg width="32" height="32" fill="none" xmlns="http://www.w3.org/2000/svg"><path d="M25.5 18.154a.5.5 0 0 1 0 1v-1Zm-19 1a.5.5 0 1 1 0-1v1Zm13.47-6.156.495.066-.495-.066Zm-9.53 3.988.492.083-.493-.083Zm4.761 5.59-.89-13.687.997-.065.891 13.688-.998.065Zm2.987.003 1.286-9.647.991.132-1.285 9.647-.992-.132Zm3.444-9.768 1.051 4.207-.97.242-1.052-4.207.97-.242Zm2.506 5.343H25.5v1h-1.361v-1ZM12.327 8.788l-1.394 8.28-.986-.165 1.394-8.28.986.165ZM8.467 19.154H6.5v-1h1.967v1Zm14.216-2.136a1.5 1.5 0 0 0 1.456 1.136v1a2.5 2.5 0 0 1-2.426-1.894l.97-.242Zm-3.209-4.086c.16-1.202 1.863-1.298 2.157-.121l-.97.242c-.01-.042-.026-.054-.034-.06a.112.112 0 0 0-.068-.015.114.114 0 0 0-.066.023c-.008.006-.022.02-.028.063l-.991-.132Zm-8.542 4.137a2.5 2.5 0 0 1-2.465 2.085v-1a1.5 1.5 0 0 0 1.48-1.251l.985.166Zm5.267 5.443c.079 1.205 1.83 1.264 1.99.067l.99.132c-.319 2.394-3.82 2.276-3.978-.134l.998-.065ZM14.31 8.889c-.077-1.184-1.786-1.271-1.984-.1l-.986-.167c.395-2.341 3.814-2.167 3.968.202l-.998.065Z" fill="#000"/></svg>