<svg width="32" height="32" fill="none" xmlns="http://www.w3.org/2000/svg"><path d="M19.308 25.5v.5-.5Zm-8.808 0V25v.5Zm-4-12.808H7h-.5Zm0 8.808H6h.5ZM18.923 9.192a.5.5 0 0 0 0-1v1Zm-8.423-.5v-.5.5Zm13.308 4.385a.5.5 0 0 0-1 0h1Zm-.5 8.423h.5-.5ZM25 9.788a2.788 2.788 0 0 1-2.788 2.789v1A3.788 3.788 0 0 0 26 9.788h-1Zm-2.788 2.789a2.788 2.788 0 0 1-2.789-2.789h-1a3.788 3.788 0 0 0 3.789 3.789v-1Zm-2.789-2.789A2.788 2.788 0 0 1 22.212 7V6a3.788 3.788 0 0 0-3.789 3.788h1ZM22.212 7A2.788 2.788 0 0 1 25 9.788h1A3.788 3.788 0 0 0 22.212 6v1Zm-2.904 18H10.5v1h8.808v-1ZM6 12.692V21.5h1v-8.808H6Zm12.923-4.5H10.5v1h8.423v-1Zm3.885 4.885V21.5h1v-8.423h-1ZM7 12.692a3.5 3.5 0 0 1 3.5-3.5v-1a4.5 4.5 0 0 0-4.5 4.5h1ZM10.5 25A3.5 3.5 0 0 1 7 21.5H6a4.5 4.5 0 0 0 4.5 4.5v-1Zm8.808 1a4.5 4.5 0 0 0 4.5-4.5h-1a3.5 3.5 0 0 1-3.5 3.5v1Z" fill="#000"/></svg>