<svg width="32" height="32" fill="none" xmlns="http://www.w3.org/2000/svg"><path d="m13.59 21.533.433.25.25-.433-.433-.25-.25.433Zm-4.972-2.87.25-.433-.433-.25-.25.433.433.25Zm-.62-.553-.25.433.25-.433Zm11.628 6.714.25-.433-.25.433Zm1.723-.7.456.205-.456-.206ZM7.75 16.256l-.404-.294.404.294Zm11.314-8.145.433.25-.433-.25Zm3.688 2.129.433.25-.433-.25Zm-.21.363-.433-.25-.164.285.196.264.401-.299Zm.831 5.224.487.113-.487-.113Zm-9.507-5.415.345.362-.345-.362Zm4.988-1.938-.058.497.327.038.164-.285-.433-.25Zm2.596 15.09h-.5.5Zm0-1.678h.5-.5Zm.762-3.407-.453-.213.453.213Zm.848-1.802-.452-.213.452.213Zm-14.896-.773.255.43-.255-.43Zm1.497-.89-.255-.43.255.43Zm2.41-2.207-.406-.291.405.292Zm1.296-1.802.406.292-.406-.292Zm-.21 10.277a2.37 2.37 0 0 1-3.239.868l-.5.866a3.37 3.37 0 0 0 4.605-1.234l-.866-.5Zm-3.239.868a2.37 2.37 0 0 1-.867-3.238l-.866-.5a3.37 3.37 0 0 0 1.233 4.604l.5-.866Zm-1.55-3.055 4.972 2.87.5-.866-4.972-2.87-.5.866Zm-.62-.553 11.628 6.714.5-.866-11.628-6.714-.5.866Zm11.628 6.714c.49.283 1.01.3 1.463.095.437-.198.766-.58.966-1.023l-.911-.412c-.124.275-.301.448-.468.524-.15.068-.33.077-.55-.05l-.5.866Zm-12.03-9.294c-.288.395-.457.873-.413 1.353.047.498.322.943.815 1.227l.5-.866c-.222-.128-.304-.29-.32-.454-.016-.184.047-.426.226-.672l-.808-.588Zm12.15-7.601a1.629 1.629 0 0 1 2.226-.596l.5-.866a2.629 2.629 0 0 0-3.591.962l.866.5Zm2.226-.596a1.63 1.63 0 0 1 .597 2.225l.866.5a2.629 2.629 0 0 0-.963-3.591l-.5.866Zm.42 3.137c1.262 1.696.963 3.872.744 4.811l.974.227c.231-.992.627-3.562-.917-5.635l-.802.597Zm.833-.049.21-.363-.866-.5-.21.363.866.5Zm-8.764-.08c.668-.636 2.435-2.054 4.585-1.802l.116-.994c-2.626-.307-4.689 1.403-5.39 2.073l.69.724Zm5.076-2.049.21-.363-.866-.5-.21.363.866.5Zm2.663 14.84v-1.678h-1v1.677h1Zm.714-4.872.848-1.802-.904-.426-.849 1.802.905.426ZM8.419 16.335l1.497-.89-.51-.86-1.497.89.51.86Zm4.057-3.235 1.297-1.802-.812-.584-1.296 1.803.811.584Zm9.33 11.23c.12-.268.143-.543.143-.765h-1c0 .16-.019.271-.055.352l.911.412ZM8.153 16.55a.868.868 0 0 1 .265-.216l-.51-.86a1.843 1.843 0 0 0-.563.488l.808.588Zm13.796 5.337a7.5 7.5 0 0 1 .714-3.195l-.905-.426a8.5 8.5 0 0 0-.81 3.62h1ZM9.915 15.444a8.498 8.498 0 0 0 2.56-2.345l-.811-.583a7.5 7.5 0 0 1-2.26 2.069l.511.86Zm3.605-5.394c-.22.21-.401.442-.56.663l.812.584c.145-.201.283-.375.438-.523l-.69-.724Zm9.365 5.663a3.81 3.81 0 0 1-.278.751l.904.426c.136-.287.267-.604.348-.95l-.974-.227Z" fill="#000"/></svg>