<svg width="32" height="32" fill="none" xmlns="http://www.w3.org/2000/svg"><path d="M13.43 12.723a.5.5 0 0 0-.707.707l.707-.707Zm5.14 6.554a.5.5 0 1 0 .707-.707l-.707.707Zm.707-5.847a.5.5 0 0 0-.707-.707l.707.707Zm-6.554 5.14a.5.5 0 1 0 .707.707l-.707-.707Zm0-5.14 2.923 2.924.708-.708-2.923-2.923-.708.707Zm2.923 2.924 2.924 2.923.707-.707-2.923-2.924-.708.707Zm2.924-3.63-2.924 2.922.708.707 2.923-2.923-.707-.707Zm-2.924 2.922-2.923 2.924.707.707 2.924-2.924-.708-.707ZM25 16a9 9 0 0 1-9 9v1c5.523 0 10-4.477 10-10h-1Zm-9 9a9 9 0 0 1-9-9H6c0 5.523 4.477 10 10 10v-1Zm-9-9a9 9 0 0 1 9-9V6C10.477 6 6 10.477 6 16h1Zm9-9a9 9 0 0 1 9 9h1c0-5.523-4.477-10-10-10v1Z" fill="#000"/></svg>