<svg width="32" height="32" fill="none" xmlns="http://www.w3.org/2000/svg"><path d="M18.782 22.685h.5a.5.5 0 0 0-.5-.5v.5Zm-5.63 0v-.5a.5.5 0 0 0-.5.5h.5ZM8.36 21.22l-.497-.052.497.052Zm9.9-12.192h-.5v.33l.301.13.198-.46Zm3.295 4.052-.478.146.478-.146Zm-7.518-4.052.198.46.302-.13v-.33h-.5Zm7.85 7.176.498-.04-.498.04Zm-.172-2.191-.499.039.498-.04ZM8.542 20.707l-.436-.245.436.245Zm.837-1.492.436.244-.436-.244Zm3.684-10.233a.5.5 0 0 0 .54.84l-.54-.84Zm-2.7 7.117.497.05-.498-.05Zm.612-1.105a.5.5 0 0 0-.995-.1l.995.1Zm7.636 8.191a.5.5 0 0 0 0-1v1Zm3.822-3.46a.5.5 0 1 0 .894-.448l-.894.447Zm.274-.57-.447.224.447-.223ZM7.354 6.85a.5.5 0 1 0-.708.707l.708-.707Zm17.589 19.004a.5.5 0 0 0 .707-.708l-.707.708Zm-6.66-3.169A2.315 2.315 0 0 1 15.966 25v1a3.315 3.315 0 0 0 3.315-3.315h-1ZM15.966 25a2.315 2.315 0 0 1-2.315-2.315h-1A3.315 3.315 0 0 0 15.967 26v-1Zm-2.815-1.815h5.63v-1h-5.63v1Zm-5.289-2.018c-.05.481.042.977.318 1.367.288.406.746.651 1.31.651v-1c-.251 0-.4-.097-.494-.23-.106-.148-.17-.386-.14-.684l-.994-.104ZM14.537 8.61c0-.89.721-1.611 1.611-1.611V6a2.611 2.611 0 0 0-2.611 2.611h1ZM16.148 7c.89 0 1.611.721 1.611 1.611h1A2.611 2.611 0 0 0 16.15 6v1Zm1.913 2.486c1.908.823 2.732 2.813 3.016 3.74l.956-.294c-.3-.98-1.239-3.356-3.576-4.364l-.396.918Zm.698-.459v-.416h-1v.416h1Zm-4.222 0v-.416h-1v.416h1Zm7.848 7.137-.172-2.192-.997.079.172 2.19.997-.077ZM8.978 20.95l.837-1.492-.872-.49-.837 1.493.872.49Zm4.626-11.128c.195-.126.405-.24.631-.337l-.396-.918c-.278.12-.536.26-.776.414l.54.84Zm-2.744 6.326.115-1.155-.995-.1-.115 1.155.995.1Zm-1.368 7.036h9.12v-1h-9.12v1Zm13.835-3.908-.173-.345-.894.447.173.345.894-.447Zm-13.512.182a8.5 8.5 0 0 0 1.045-3.31l-.995-.1a7.5 7.5 0 0 1-.922 2.92l.872.49Zm11.573-3.217a8.498 8.498 0 0 0 .872 3.137l.894-.447a7.5 7.5 0 0 1-.769-2.768l-.997.078Zm-.31-3.017c.077.252.114.525.138.826l.997-.079a4.806 4.806 0 0 0-.18-1.04l-.956.293Zm-12.22 8.046a.863.863 0 0 1 .12-.32l-.872-.49a1.84 1.84 0 0 0-.243.706l.995.104ZM6.646 7.557l18.297 18.297.707-.708L7.354 6.85l-.708.707Z" fill="#000"/></svg>