<svg width="32" height="32" viewBox="0 0 32 32" fill="none" xmlns="http://www.w3.org/2000/svg">
<path d="M13.5899 21.5335L14.0229 21.7835L14.2729 21.3505L13.8399 21.1005L13.5899 21.5335ZM8.61786 18.6629L8.86786 18.2299L8.43484 17.9799L8.18484 18.4129L8.61786 18.6629ZM7.99778 18.1104L7.74778 18.5434H7.74778L7.99778 18.1104ZM19.626 24.824L19.876 24.3909L19.626 24.824ZM21.3496 24.1233L21.8052 24.3292V24.3292L21.3496 24.1233ZM7.75011 16.2572L7.3458 15.963H7.3458L7.75011 16.2572ZM19.064 8.11166L19.497 8.36167L19.497 8.36166L19.064 8.11166ZM22.752 10.2409L23.185 10.4909V10.4909L22.752 10.2409ZM22.5422 10.6044L22.1092 10.3544L21.9448 10.6392L22.1412 10.903L22.5422 10.6044ZM23.3731 15.828L23.8601 15.9415L23.3731 15.828ZM13.8664 10.4132L14.2115 10.775L13.8664 10.4132ZM18.8542 8.47507L18.7961 8.97168L19.1228 9.0099L19.2872 8.72507L18.8542 8.47507ZM21.4496 23.5647H20.9496V23.5647L21.4496 23.5647ZM21.4496 21.8877H21.9496H21.4496ZM22.2118 18.4798L21.7594 18.2668L22.2118 18.4798ZM23.06 16.6784L22.6076 16.4654L23.06 16.6784ZM8.16396 15.9048L8.41926 16.3347H8.41926L8.16396 15.9048ZM9.66113 15.0157L9.40583 14.5858H9.40583L9.66113 15.0157ZM12.0706 12.8087L11.6648 12.5167H11.6648L12.0706 12.8087ZM13.3674 11.0059L13.7733 11.2979H13.7733L13.3674 11.0059ZM13.1568 21.2835C12.5022 22.4174 11.0524 22.8058 9.91856 22.1512L9.41856 23.0172C11.0307 23.948 13.0921 23.3956 14.0229 21.7835L13.1568 21.2835ZM9.91856 22.1512C8.78473 21.4966 8.39625 20.0468 9.05087 18.9129L8.18484 18.4129C7.25408 20.0251 7.80644 22.0865 9.41856 23.0172L9.91856 22.1512ZM8.36786 19.0959L13.3399 21.9665L13.8399 21.1005L8.86786 18.2299L8.36786 19.0959ZM7.74778 18.5434L19.376 25.257L19.876 24.3909L8.24778 17.6774L7.74778 18.5434ZM19.376 25.257C19.8662 25.54 20.3859 25.5575 20.8395 25.3517C21.2756 25.1537 21.6054 24.7715 21.8052 24.3292L20.894 23.9174C20.7699 24.192 20.5932 24.3653 20.4262 24.441C20.2766 24.5089 20.0966 24.5183 19.876 24.3909L19.376 25.257ZM7.3458 15.963C7.05848 16.3579 6.8887 16.8365 6.9333 17.3157C6.9797 17.8142 7.25479 18.2588 7.74778 18.5434L8.24778 17.6774C8.02619 17.5495 7.94434 17.3879 7.929 17.223C7.91186 17.0389 7.97553 16.7972 8.15441 16.5514L7.3458 15.963ZM19.497 8.36166C19.9468 7.58268 20.9431 7.31572 21.7224 7.76569L22.2224 6.89966C20.965 6.17365 19.357 6.60422 18.631 7.86166L19.497 8.36166ZM21.7224 7.76569C22.5018 8.21565 22.7688 9.21197 22.319 9.99095L23.185 10.4909C23.911 9.23351 23.4799 7.62567 22.2224 6.89966L21.7224 7.76569ZM22.1412 10.903C23.4043 12.5992 23.1051 14.7756 22.8862 15.7145L23.8601 15.9415C24.0913 14.9496 24.4874 12.3793 22.9432 10.3057L22.1412 10.903ZM22.9752 10.8544L23.185 10.4909L22.319 9.99095L22.1092 10.3544L22.9752 10.8544ZM14.2115 10.775C14.8789 10.1382 16.6457 8.72007 18.7961 8.97168L18.9123 7.97846C16.2858 7.67114 14.2236 9.38138 13.5212 10.0515L14.2115 10.775ZM19.2872 8.72507L19.497 8.36167L18.631 7.86166L18.4212 8.22507L19.2872 8.72507ZM21.9496 23.5647L21.9496 21.8877H20.9496L20.9496 23.5647H21.9496ZM22.6642 18.6928L23.5123 16.8914L22.6076 16.4654L21.7594 18.2668L22.6642 18.6928ZM8.41926 16.3347L9.91644 15.4456L9.40583 14.5858L7.90865 15.4749L8.41926 16.3347ZM12.4765 13.1006L13.7733 11.2979L12.9615 10.7139L11.6648 12.5167L12.4765 13.1006ZM21.8052 24.3292C21.9261 24.0617 21.9496 23.787 21.9496 23.5647L20.9496 23.5647C20.9496 23.7248 20.9306 23.8364 20.894 23.9174L21.8052 24.3292ZM8.15441 16.5514C8.20459 16.4824 8.28758 16.4129 8.41926 16.3347L7.90866 15.4749C7.72567 15.5835 7.51094 15.7361 7.3458 15.963L8.15441 16.5514ZM21.9496 21.8877C21.9496 20.7831 22.1936 19.6921 22.6642 18.6928L21.7594 18.2668C21.2262 19.3994 20.9496 20.6358 20.9496 21.8877H21.9496ZM9.91644 15.4456C10.922 14.8484 11.7936 14.0501 12.4765 13.1006L11.6648 12.5167C11.0621 13.3544 10.2931 14.0588 9.40583 14.5858L9.91644 15.4456ZM13.5212 10.0515C13.3007 10.2618 13.1201 10.4934 12.9615 10.7139L13.7733 11.2979C13.9177 11.0971 14.0565 10.9228 14.2115 10.775L13.5212 10.0515ZM22.8862 15.7145C22.8289 15.96 22.7306 16.2041 22.6076 16.4654L23.5123 16.8914C23.6477 16.6039 23.7796 16.2868 23.8601 15.9415L22.8862 15.7145Z" fill="black"/>
</svg>
