<svg width="32" height="32" viewBox="0 0 32 32" fill="none" xmlns="http://www.w3.org/2000/svg">
<path d="M13.5899 21.5335C12.7972 22.9065 11.0415 23.3769 9.66856 22.5842C8.29558 21.7915 7.82517 20.0359 8.61786 18.6629L13.5899 21.5335Z" stroke="black"/>
<path d="M19.626 24.824L7.99778 18.1104C7.2832 17.6979 7.2839 16.8979 7.75011 16.2572C7.85777 16.1092 8.00662 15.9982 8.16396 15.9048L9.66113 15.0157C10.6076 14.4536 11.4279 13.7023 12.0706 12.8087L13.3674 11.0059C13.5189 10.7953 13.6786 10.5923 13.8664 10.4132C14.5512 9.75981 16.4657 8.19561 18.8542 8.47507L19.064 8.11166C19.6519 7.09345 20.954 6.74469 21.9724 7.33267C22.9909 7.92066 23.3399 9.22274 22.752 10.2409L22.5422 10.6044C23.9458 12.4893 23.5982 14.8626 23.3731 15.828C23.3042 16.1234 23.1892 16.404 23.06 16.6784L22.2118 18.4798C21.7099 19.5457 21.4496 20.7094 21.4496 21.8877L21.4496 23.5647C21.4496 23.7559 21.4284 23.9491 21.3496 24.1233C21.0256 24.8402 20.3368 25.2343 19.626 24.824Z" stroke="black"/>
</svg>
