<svg width="32" height="32" viewBox="0 0 32 32" fill="none" xmlns="http://www.w3.org/2000/svg">
<path d="M10.8077 14.6154H21.1923C23.2952 14.6154 25 12.9106 25 10.8077C25 8.70476 23.2952 7 21.1923 7H10.8077M10.8077 14.6154C8.70476 14.6154 7 12.9106 7 10.8077C7 8.70476 8.70476 7 10.8077 7M10.8077 14.6154C12.9106 14.6154 14.6154 12.9106 14.6154 10.8077C14.6154 8.70476 12.9106 7 10.8077 7M21.1923 25H10.8077C8.70476 25 7 23.2952 7 21.1923C7 19.0894 8.70476 17.3846 10.8077 17.3846H21.1923M21.1923 25C23.2952 25 25 23.2952 25 21.1923C25 19.0894 23.2952 17.3846 21.1923 17.3846M21.1923 25C19.0894 25 17.3846 23.2952 17.3846 21.1923C17.3846 19.0894 19.0894 17.3846 21.1923 17.3846" stroke="black"/>
</svg>
