<svg width="32" height="32" fill="none" xmlns="http://www.w3.org/2000/svg"><path d="m22.648 20.125.402.297-.402-.297Zm1.129-2.351.483.127-.483-.127ZM7.527 23a.5.5 0 0 0 1 0h-1Zm1-9.76a.5.5 0 0 0-1 0h1ZM7.5 10.085a.5.5 0 0 0 1 0h-1ZM8.5 9a.5.5 0 0 0-1 0h1Zm8.409.564c3.648 0 6.591 2.904 6.591 6.468h1c0-4.133-3.407-7.468-7.591-7.468v1Zm0-1h-2.847v1h2.847v-1Zm-4.672 1.86V21.64h1V10.424h-1ZM14.062 23.5h2.847v-1h-2.847v1Zm8.184-3.672A6.622 6.622 0 0 1 16.91 22.5v1a7.622 7.622 0 0 0 6.141-3.078l-.804-.594Zm1.254-3.796c0 .558-.072 1.1-.207 1.615l.967.254a7.37 7.37 0 0 0 .24-1.869h-1Zm-.207 1.615a6.384 6.384 0 0 1-1.047 2.18l.804.595c.553-.747.969-1.6 1.21-2.521l-.967-.254ZM12.237 21.64c0 1.015.805 1.86 1.825 1.86v-1c-.444 0-.825-.373-.825-.86h-1Zm1.825-13.076c-1.02 0-1.825.845-1.825 1.86h1c0-.487.381-.86.825-.86v-1ZM8.527 23v-9.76h-1V23h1ZM8.5 10.084V9h-1v1.084h1Z" fill="#000"/></svg>