<svg width="32" height="32" fill="none" xmlns="http://www.w3.org/2000/svg"><path d="M21.958 9.15c.066-.09.142-.173.213-.26.76-.926.126-2.39-1.11-2.39h-5.843c-.41 0-.802.18-1.075.493l-4.28 6.577c-.82.943-.162 2.43 1.076 2.43h.268c1.16 0 1.822 1.314 1.2 2.265a1.49 1.49 0 0 0-.136.246l-2.147 5.23c-.071.173-.18.33-.248.506-.223.573.182 1.253.844 1.253.171 0 .339-.05.484-.143l8.817-7.082c1.024-.661.564-2.275-.65-2.275-1.062 0-1.597-1.283-.898-2.061.037-.042.075-.084.108-.13l3.377-4.658Z" stroke="#000"/></svg>