<svg width="32" height="32" fill="none" xmlns="http://www.w3.org/2000/svg"><path d="M23.308 10.885a2.192 2.192 0 1 0-2.193-2.193m2.193 2.193a2.192 2.192 0 0 1-2.193-2.193m2.193 2.193v10.23M21.115 8.692h-10.23m10.23 14.616a2.192 2.192 0 1 0 2.193-2.193m-2.193 2.193c0-1.211.982-2.193 2.193-2.193m-2.193 2.193h-10.23m0-14.616c0 1.211-.982 2.193-2.193 2.193m2.193-2.193a2.192 2.192 0 1 0-2.193 2.193m0 0v10.23m2.193 2.193a2.192 2.192 0 1 1-2.193-2.193m2.193 2.193c0-1.211-.982-2.193-2.193-2.193" stroke="#000" stroke-linecap="round"/></svg>