<svg width="32" height="32" viewBox="0 0 32 32" fill="none" xmlns="http://www.w3.org/2000/svg">
<path d="M24.2218 18.4139C23.011 18.4139 22.0294 17.4324 22.0294 16.2216C22.0294 15.0108 23.011 14.0293 24.2218 14.0293C25.4325 14.0293 26.4141 15.0108 26.4141 16.2216C26.4141 17.4324 25.4325 18.4139 24.2218 18.4139Z" stroke="black" stroke-linecap="round"/>
<path d="M8.16309 18.414C6.95231 18.414 5.97078 17.4325 5.97078 16.2217C5.97078 15.0109 6.95231 14.0294 8.16309 14.0294C9.37386 14.0294 10.3554 15.0109 10.3554 16.2217C10.3554 17.4325 9.37386 18.414 8.16309 18.414Z" stroke="black" stroke-linecap="round"/>
<path d="M16.1631 18.4139C14.9523 18.4139 13.9708 17.4324 13.9708 16.2216C13.9708 15.0108 14.9523 14.0293 16.1631 14.0293C17.3739 14.0293 18.3554 15.0108 18.3554 16.2216C18.3554 17.4324 17.3739 18.4139 16.1631 18.4139Z" stroke="black" stroke-linecap="round"/>
</svg>
