<svg width="32" height="32" viewBox="0 0 32 32" fill="none" xmlns="http://www.w3.org/2000/svg">
<path d="M21.1155 20.7004C20.1047 18.953 18.2153 17.7773 16.0514 17.7773C13.8503 17.7773 11.9334 18.9937 10.9361 20.791M13.2374 13.1538C13.2374 13.4299 13.0135 13.6538 12.7374 13.6538C12.4612 13.6538 12.2374 13.4299 12.2374 13.1538C12.2374 12.8777 12.4612 12.6538 12.7374 12.6538C13.0135 12.6538 13.2374 12.8777 13.2374 13.1538ZM19.8141 13.1538C19.8141 13.4299 19.5903 13.6538 19.3141 13.6538C19.038 13.6538 18.8141 13.4299 18.8141 13.1538C18.8141 12.8777 19.038 12.6538 19.3141 12.6538C19.5903 12.6538 19.8141 12.8777 19.8141 13.1538ZM25.5 16C25.5 21.2467 21.2467 25.5 16 25.5C10.7533 25.5 6.5 21.2467 6.5 16C6.5 10.7533 10.7533 6.5 16 6.5C21.2467 6.5 25.5 10.7533 25.5 16Z" stroke="black" stroke-linecap="round"/>
</svg>
