<svg width="32" height="32" viewBox="0 0 32 32" fill="none" xmlns="http://www.w3.org/2000/svg">
<path d="M15.6249 17.7955L7.86158 14.3604C7.19853 14.0658 6.41825 14.3538 6.11784 15.0041C5.81744 15.6543 6.11114 16.4196 6.77419 16.7142L13.5568 19.7422M8.2447 17.3708C7.58165 17.0762 6.7733 17.3776 6.47289 18.0278C6.17249 18.6781 6.46619 19.4433 7.12924 19.7379L13.427 22.5505M9.09311 20.6154C8.43005 20.3208 7.6141 20.618 7.31458 21.268C7.01417 21.9182 7.30787 22.6835 7.97092 22.9781L15.2384 26.2215L16.1035 26.5658C19.0618 27.7426 22.4427 26.4502 23.8103 23.6213C24.0698 23.0847 24.2199 22.7789 24.5068 22.1721C25.2485 20.6046 24.725 18.452 23.3414 17.391L23.3031 17.3618C21.5945 15.7315 20.5114 13.6169 19.9693 12.3695C19.7014 11.7525 18.9813 11.4533 18.3331 11.6926L18.3313 11.6932C17.6224 11.9549 17.2921 12.7474 17.6168 13.4075L19.1474 16.4968L10.4143 12.6308C9.75126 12.3362 8.97099 12.6242 8.67058 13.2745C8.37018 13.9247 8.67217 14.7194 9.33522 15.014M16.6395 10.7723L11.1233 6.31548C10.5615 5.86025 9.73493 5.93858 9.27702 6.49019C8.81911 7.04181 8.90218 7.85816 9.464 8.31339L15.2078 12.986M10.7032 9.32319C10.1413 8.86795 9.28922 8.95571 8.83131 9.50733C8.43025 9.98965 8.46344 10.7258 8.8495 11.1946M25.5663 17.4736C26.2334 16.1545 26.1348 14.3914 25.2433 13.2237L25.2144 13.185C23.9931 11.1688 23.501 8.8439 23.3031 7.49801C23.2057 6.8329 22.5901 6.35807 21.9033 6.42327L21.9015 6.42392C21.1503 6.49417 20.626 7.17677 20.767 7.89779L21.4376 11.2799L14.0314 5.29616C13.4696 4.84093 12.643 4.91926 12.1851 5.47087C11.7272 6.02249 11.8069 6.86671 12.3683 7.32108" stroke="black" stroke-linecap="round" stroke-linejoin="round"/>
</svg>
