<svg width="32" height="32" viewBox="0 0 32 32" fill="none" xmlns="http://www.w3.org/2000/svg">
<path d="M18.3846 8.19231C18.3846 9.40309 17.4031 10.3846 16.1923 10.3846C14.9815 10.3846 14 9.40309 14 8.19231C14 6.98153 14.9815 6 16.1923 6C17.4031 6 18.3846 6.98153 18.3846 8.19231Z" stroke="black" stroke-linecap="round"/>
<path d="M18.3847 24.251C18.3847 25.4618 17.4032 26.4433 16.1924 26.4433C14.9816 26.4433 14.0001 25.4618 14.0001 24.251C14.0001 23.0402 14.9816 22.0587 16.1924 22.0587C17.4032 22.0587 18.3847 23.0402 18.3847 24.251Z" stroke="black" stroke-linecap="round"/>
<path d="M18.3846 16.251C18.3846 17.4617 17.4031 18.4433 16.1923 18.4433C14.9815 18.4433 14 17.4617 14 16.251C14 15.0402 14.9815 14.0587 16.1923 14.0587C17.4031 14.0587 18.3846 15.0402 18.3846 16.251Z" stroke="black" stroke-linecap="round"/>
</svg>
