<svg width="32" height="32" viewBox="0 0 32 32" fill="none" xmlns="http://www.w3.org/2000/svg">
<path d="M17.6217 20.688L17.6211 20.6887C17.3127 21.0327 16.8673 21.2296 16.2135 21.2296C15.6092 21.2296 15.1552 21.0351 14.8052 20.6633C14.4711 20.276 14.2754 19.7169 14.2754 18.9257C14.2754 18.1084 14.4679 17.5514 14.7841 17.1844C15.1121 16.822 15.5678 16.6219 16.2135 16.6219C16.9296 16.6219 17.381 16.8246 17.6648 17.151C17.9603 17.4908 18.1516 18.0524 18.1516 18.9257C18.1516 19.7604 17.9506 20.3225 17.6217 20.688ZM10.6253 23.4547L10.6252 23.4548L10.6295 23.4593C11.9952 24.9314 13.8792 25.6429 16.2135 25.6429C18.5076 25.6429 20.3713 25.0598 21.7404 23.833C23.117 22.5994 23.784 20.9009 23.784 18.8038C23.784 16.7967 23.2377 15.192 22.0686 14.0777C20.9049 12.9685 19.2508 12.4524 17.1888 12.4524C16.177 12.4524 15.257 12.6119 14.4376 12.9405C14.6295 12.3147 14.9176 11.8462 15.2836 11.5107C15.8013 11.0361 16.5375 10.7705 17.5545 10.7705C18.3061 10.7705 19.1031 10.8701 19.9468 11.0731C20.4119 11.1887 20.8593 11.1049 21.2434 10.8168L21.2435 10.8168L21.2472 10.814C21.6372 10.5158 21.8579 10.1053 21.8579 9.61223V8.73451C21.8579 8.22191 21.7019 7.75607 21.3887 7.35707C21.0704 6.93498 20.6424 6.66988 20.1236 6.58341L20.1236 6.58339L20.1193 6.58273C19.1683 6.43257 18.232 6.35718 17.3107 6.35718C14.5736 6.35718 12.4045 7.26471 10.8785 9.12345C9.35996 10.9567 8.64307 13.6434 8.64307 17.0972C8.64307 19.8167 9.2766 21.9641 10.6253 23.4547Z" stroke="black"/>
</svg>
