<svg width="32" height="32" fill="none" xmlns="http://www.w3.org/2000/svg"><path d="M7.962 12.346v-.5a.5.5 0 0 0-.5.5h.5Zm16.076 0h.5a.5.5 0 0 0-.5-.5v.5Zm-17.538-.5a.5.5 0 1 0 0 1v-1Zm19 1a.5.5 0 0 0 0-1v1ZM11.385 6.5a.5.5 0 1 0-1 0h1Zm-1 5.846a.5.5 0 0 0 1 0h-1ZM21.615 6.5a.5.5 0 0 0-1 0h1Zm-1 5.846a.5.5 0 1 0 1 0h-1ZM15.5 25.5a.5.5 0 0 0 1 0h-1ZM7.962 12.846h16.076v-1H7.962v1Zm15.576-.5v2.923h1v-2.923h-1ZM8.462 15.27v-2.923h-1v2.923h1ZM16 22.808a7.538 7.538 0 0 1-7.538-7.539h-1A8.538 8.538 0 0 0 16 23.808v-1Zm7.538-7.539A7.538 7.538 0 0 1 16 22.808v1a8.538 8.538 0 0 0 8.538-8.539h-1ZM6.5 12.846h19v-1h-19v1ZM10.385 6.5v5.846h1V6.5h-1Zm10.23 0v5.846h1V6.5h-1ZM15.5 23.308V25.5h1v-2.192h-1Z" fill="#000"/></svg>