<svg width="32" height="32" viewBox="0 0 32 32" fill="none" xmlns="http://www.w3.org/2000/svg">
<path d="M7.26536 15.9107V27.3491C7.29527 27.6496 7.43649 27.9279 7.66126 28.1295C7.88603 28.3311 8.1781 28.4413 8.48002 28.4385H25.9099C26.0465 28.4354 26.1809 28.4041 26.3048 28.3466C26.4287 28.2892 26.5394 28.2067 26.6299 28.1044C26.7204 28.0021 26.7889 27.8822 26.8309 27.7523C26.8729 27.6223 26.8876 27.485 26.874 27.3491V15.9107M7.26536 15.9107H26.874M7.26536 15.9107L6.90833 14.1548M26.874 15.9107L27.9902 7.16126C28.0138 7.08654 28.0198 7.00735 28.0076 6.92993C27.9955 6.8525 27.9655 6.77896 27.9201 6.71508C27.8747 6.6512 27.8151 6.59873 27.746 6.56179C27.6768 6.52485 27.6001 6.50445 27.5218 6.5022L11.7778 6.5022M12.1676 22.9915C12.6009 22.9915 13.0166 22.8193 13.323 22.5129C13.6294 22.2064 13.8016 21.7908 13.8016 21.3574V20.8127C13.8016 20.3794 13.6294 19.9637 13.323 19.6573C13.0166 19.3508 12.6009 19.1787 12.1676 19.1787C11.7342 19.1787 11.3186 19.3508 11.0121 19.6573C10.7057 19.9637 10.5335 20.3794 10.5335 20.8127V21.3574C10.5335 21.7908 10.7057 22.2064 11.0121 22.5129C11.3186 22.8193 11.7342 22.9915 12.1676 22.9915ZM12.1676 22.9915C13.0935 22.9915 14.891 23.449 14.891 24.6255V25.7149M12.1676 22.9915C11.2416 22.9915 9.44413 23.449 9.44413 24.6255V25.7149M16.525 19.1787H18.1542M16.525 20.8127H19.5159M21.4272 20.8127H24.418M13.2569 13.1871H20.3378M16.525 23.5362H18.1542M16.5201 25.1702H19.2435M21.4272 25.1702H24.418" stroke="black" stroke-miterlimit="10" stroke-linecap="round"/>
<path d="M5.24174 13.6218L5.45348 13.263L5.24174 13.6218ZM7.99948 13.6218L7.78773 13.263L7.99948 13.6218ZM7.03727 5.24348C7.03727 5.01336 6.85072 4.82681 6.6206 4.82681C6.39049 4.82681 6.20394 5.01336 6.20394 5.24348H7.03727ZM6.20394 8.57681C6.20394 8.80693 6.39049 8.99348 6.6206 8.99348C6.85072 8.99348 7.03727 8.80693 7.03727 8.57681H6.20394ZM7.03727 10.2261C7.03727 9.996 6.85072 9.80945 6.62061 9.80945C6.39049 9.80945 6.20394 9.996 6.20394 10.2261H7.03727ZM6.20394 10.8684C6.20394 11.0985 6.39049 11.2851 6.62061 11.2851C6.85072 11.2851 7.03727 11.0985 7.03727 10.8684H6.20394ZM4.12061 2.84757H9.12061V2.01424H4.12061V2.84757ZM11.2039 4.93091V8.25638H12.0373V4.93091H11.2039ZM2.03727 8.25638V4.93091H1.20394V8.25638H2.03727ZM5.45348 13.263C3.44725 12.0792 2.03727 10.2972 2.03727 8.25638H1.20394C1.20394 10.7084 2.88915 12.7174 5.02999 13.9807L5.45348 13.263ZM11.2039 8.25638C11.2039 10.2972 9.79396 12.0792 7.78773 13.263L8.21122 13.9807C10.3521 12.7174 12.0373 10.7084 12.0373 8.25638H11.2039ZM5.02999 13.9807C6.0106 14.5593 7.23061 14.5593 8.21122 13.9807L7.78773 13.263C7.0684 13.6874 6.17282 13.6874 5.45348 13.263L5.02999 13.9807ZM9.12061 2.84757C10.2712 2.84757 11.2039 3.78032 11.2039 4.93091H12.0373C12.0373 3.32008 10.7314 2.01424 9.12061 2.01424V2.84757ZM4.12061 2.01424C2.50977 2.01424 1.20394 3.32008 1.20394 4.93091H2.03727C2.03727 3.78032 2.97001 2.84757 4.12061 2.84757V2.01424ZM6.20394 5.24348L6.20394 8.57681H7.03727L7.03727 5.24348H6.20394ZM6.20394 10.2261V10.8684H7.03727V10.2261H6.20394Z" fill="black"/>
</svg>
