<svg width="32" height="32" fill="none" xmlns="http://www.w3.org/2000/svg"><path d="M15.5 25.142a.5.5 0 0 0 1 0h-1Zm-1.706-.736.254-.431-.254.43Zm4.412 0-.254-.431.254.43ZM15.5 7.216v17.925h1V7.216h-1ZM12 7h8V6h-8v1Zm11.5 3.5v5.32h1V10.5h-1Zm-15 5.32V10.5h-1v5.32h1Zm5.548 8.155C10.81 22.065 8.5 19.168 8.5 15.82h-1c0 3.84 2.641 7.01 6.04 9.015l.508-.861ZM23.5 15.82c0 3.347-2.311 6.244-5.548 8.154l.508.861c3.399-2.005 6.04-5.174 6.04-9.015h-1Zm-9.96 9.015a4.844 4.844 0 0 0 4.92 0l-.508-.861a3.845 3.845 0 0 1-3.904 0l-.508.861ZM20 7a3.5 3.5 0 0 1 3.5 3.5h1A4.5 4.5 0 0 0 20 6v1Zm-8-1a4.5 4.5 0 0 0-4.5 4.5h1A3.5 3.5 0 0 1 12 7V6Z" fill="#000"/></svg>