<svg width="32" height="32" fill="none" xmlns="http://www.w3.org/2000/svg"><path d="m22.472 8.717.35.357-.35-.357Zm-1.526 1.498-.35-.356.35.356Zm1.25 3.33a.5.5 0 1 0 .7-.714l-.7.713Zm-1.25-1.929.35-.357-.35.357Zm4.204-.97a.5.5 0 1 0 .7-.714l-.7.713ZM23.9 8.716l-.35.357.35-.357Zm.584-1.36a.5.5 0 1 0-.7-.714l.7.714Zm-8.812 7.248a.5.5 0 0 0 .7.713l-.7-.713Zm6.45-6.245L20.596 9.86l.7.713 1.526-1.498-.7-.714Zm.775 4.47-1.601-1.57-.7.713 1.6 1.571.7-.713Zm2.953-2.898-1.6-1.572-.7.714 1.6 1.571.7-.713Zm-3.028-.858a.523.523 0 0 1 .727 0l.7-.714a1.523 1.523 0 0 0-2.127 0l.7.714Zm-2.226.785a1.478 1.478 0 0 0 0 2.114l.7-.714a.478.478 0 0 1 0-.687l-.7-.713Zm-3.31 9.603c0 2.773-2.294 5.038-5.143 5.038v1c3.383 0 6.142-2.695 6.142-6.038h-1ZM12.142 24.5C9.293 24.5 7 22.235 7 19.462H6c0 3.343 2.759 6.038 6.143 6.038v-1ZM7 19.462c0-2.774 2.294-5.039 5.143-5.039v-1C8.759 13.423 6 16.118 6 19.462h1Zm5.143-5.039c2.849 0 5.142 2.265 5.142 5.039h1c0-3.344-2.759-6.039-6.142-6.039v1Zm11.64-7.78-8.111 7.962.7.713 8.112-7.961-.7-.714Z" fill="#000"/></svg>