<svg width="32" height="32" fill="none" xmlns="http://www.w3.org/2000/svg"><path d="M13.826 6.434c.819-1.912 3.53-1.912 4.348 0A2.364 2.364 0 0 0 21.227 7.7c1.93-.774 3.848 1.143 3.074 3.074a2.364 2.364 0 0 0 1.265 3.053c1.912.819 1.912 3.53 0 4.348a2.364 2.364 0 0 0-1.265 3.053c.774 1.93-1.143 3.848-3.074 3.074a2.364 2.364 0 0 0-3.053 1.265c-.819 1.912-3.53 1.912-4.348 0a2.364 2.364 0 0 0-3.053-1.265c-1.93.774-3.848-1.143-3.074-3.074a2.364 2.364 0 0 0-1.265-3.053c-1.912-.819-1.912-3.53 0-4.348A2.364 2.364 0 0 0 7.7 10.773c-.774-1.93 1.143-3.848 3.074-3.074a2.364 2.364 0 0 0 3.053-1.265Z" stroke="#000" stroke-linecap="round" stroke-linejoin="round"/><path d="m13 16 2.647 2.5L19.5 13" stroke="#000" stroke-linecap="round" stroke-linejoin="round"/></svg>