<svg width="32" height="32" fill="none" xmlns="http://www.w3.org/2000/svg"><path d="M6.5 15.387H6h.5Zm0 7.113H7h-.5Zm16 3V25v.5Zm-13 0v.5-.5Zm16-10.113H25h.5Zm0 7.113h.5-.5Zm-3-10.113v-.5.5Zm-13 0v.5-.5Zm6 7.713a.5.5 0 1 0 1 0h-1Zm1-3.085a.5.5 0 1 0-1 0h1ZM6 15.387V22.5h1v-7.113H6ZM22.5 25h-13v1h13v-1Zm2.5-9.613V22.5h1v-7.113h-1Zm-2.5-3.5h-13v1h13v-1Zm3.5 3.5a3.5 3.5 0 0 0-3.5-3.5v1a2.5 2.5 0 0 1 2.5 2.5h1Zm-19 0a2.5 2.5 0 0 1 2.5-2.5v-1a3.5 3.5 0 0 0-3.5 3.5h1ZM6 22.5A3.5 3.5 0 0 0 9.5 26v-1A2.5 2.5 0 0 1 7 22.5H6ZM22.5 26a3.5 3.5 0 0 0 3.5-3.5h-1a2.5 2.5 0 0 1-2.5 2.5v1ZM10.654 12.67C10.654 9.514 13.072 7 16 7V6c-3.53 0-6.346 3.012-6.346 6.67h1ZM16 7c2.927 0 5.346 2.513 5.346 5.67h1C22.346 9.013 19.53 6 16 6v1Zm.5 13.1v-3.085h-1V20.1h1Z" fill="#000"/></svg>