<svg width="32" height="32" fill="none" xmlns="http://www.w3.org/2000/svg"><path d="M15.252 13.253a.5.5 0 1 0 1 0h-1Zm1-3.457a.5.5 0 0 0-1 0h1Zm-.375 9.815v-.5h-.5v.5h.5Zm3.011 0v.5h.5v-.5h-.5Zm-3.01-4.197h.5v-.5h-.5v.5Zm-5.102.623a.5.5 0 0 0 0-1v1Zm-1.72-1a.5.5 0 1 0 0 1v-1Zm10.693 1a.5.5 0 0 0 0-1v1Zm-1.721-1a.5.5 0 1 0 0 1v-1Zm4.916 1a.5.5 0 1 0 0-1v1Zm-1.72-1a.5.5 0 1 0 0 1v-1ZM9.117 18.5V18h-.5v.5h.5Zm4.302 0h.5V18h-.5v.5Zm0 4.321v.5h.5v-.5h-.5Zm-4.302 0h-.5v.5h.5v-.5Zm0-13.765v-.5h-.5v.5h.5Zm4.302 0h.5v-.5h-.5v.5Zm0 4.32v.5h.5v-.5h-.5Zm-4.302 0h-.5v.5h.5v-.5Zm9.403-4.32v-.5h-.5v.5h.5Zm4.302 0h.5v-.5h-.5v.5Zm0 4.32v.5h.5v-.5h-.5Zm-4.302 0h-.5v.5h.5v-.5ZM11 6.5a.5.5 0 0 0 0-1v1ZM5.5 11a.5.5 0 0 0 1 0h-1ZM11 26.5a.5.5 0 0 0 0-1v1ZM6.5 21a.5.5 0 0 0-1 0h1ZM21 5.5a.5.5 0 0 0 0 1v-1Zm4.5 5.5a.5.5 0 0 0 1 0h-1ZM21 25.5a.5.5 0 0 0 0 1v-1Zm5.5-4.5a.5.5 0 0 0-1 0h1Zm-10.248-7.747V9.796h-1v3.457h1Zm.125 9.691v-3.333h-1v3.333h1Zm-.5-2.833h3.011v-1h-3.01v1Zm3.511-.5v-1.728h-1v1.728h1Zm2.065-1.111v-1.728h-1V18.5h1Zm1.77 2.778v-3.025h-1v3.025h1Zm-1.77 1.666v-1.728h-1v1.728h1Zm-8.157-7.03h2.581v-1h-2.581v1Zm2.081-.5v2.53h1v-2.53h-1Zm-4.6-.377H9.055v1h1.72v-1Zm8.972 0h-1.721v1h1.72v-1Zm3.195 0h-1.72v1h1.72v-1ZM9.117 19h4.302v-1H9.117v1Zm3.802-.5v4.321h1V18.5h-1Zm.5 3.821H9.117v1h4.302v-1Zm-3.802.5V18.5h-1v4.321h1Zm-.5-13.265h4.302v-1H9.117v1Zm3.802-.5v4.32h1v-4.32h-1Zm.5 3.82H9.117v1h4.302v-1Zm-3.802.5v-4.32h-1v4.32h1Zm8.903-3.82h4.302v-1H18.52v1Zm3.802-.5v4.32h1v-4.32h-1Zm.5 3.82H18.52v1h4.302v-1Zm-3.802.5v-4.32h-1v4.32h1ZM7.667 6.5H11v-1H7.667v1ZM6.5 11V7.667h-1V11h1Zm1.167-5.5C6.47 5.5 5.5 6.47 5.5 7.667h1c0-.645.522-1.167 1.167-1.167v-1Zm0 21H11v-1H7.667v1ZM5.5 21v3.333h1V21h-1Zm2.167 4.5A1.167 1.167 0 0 1 6.5 24.333h-1c0 1.197.97 2.167 2.167 2.167v-1Zm16.666-20H21v1h3.333v-1ZM26.5 11V7.667h-1V11h1Zm-2.167-4.5c.645 0 1.167.522 1.167 1.167h1c0-1.197-.97-2.167-2.167-2.167v1Zm0 19H21v1h3.333v-1ZM25.5 21v3.333h1V21h-1Zm-1.167 5.5c1.197 0 2.167-.97 2.167-2.167h-1c0 .645-.522 1.167-1.167 1.167v1Z" fill="#000"/></svg>