<svg width="32" height="32" viewBox="0 0 32 32" fill="none" xmlns="http://www.w3.org/2000/svg">
<path d="M13.6384 16.0747L15.6473 17.9969L18.9956 13.5326M11.5389 8.91506C12.5565 9.32276 13.7134 8.84353 14.1447 7.83569C14.8431 6.20353 17.1569 6.20353 17.8553 7.83569C18.2866 8.84353 19.4435 9.32276 20.4611 8.91506C22.1091 8.25481 23.7452 9.89089 23.0849 11.5389C22.6772 12.5565 23.1564 13.7134 24.1643 14.1447C25.7964 14.8431 25.7964 17.1569 24.1643 17.8553C23.1564 18.2866 22.6772 19.4435 23.0849 20.4611C23.7452 22.1091 22.1091 23.7452 20.4611 23.0849C19.4435 22.6772 18.2866 23.1564 17.8553 24.1643C17.1569 25.7964 14.8431 25.7964 14.1447 24.1643C13.7134 23.1564 12.5565 22.6772 11.5389 23.0849C9.89089 23.7452 8.25481 22.1091 8.91506 20.4611C9.32276 19.4435 8.84353 18.2866 7.83569 17.8553C6.20353 17.1569 6.20353 14.8431 7.83569 14.1447C8.84353 13.7134 9.32276 12.5565 8.91506 11.5389C8.25481 9.89089 9.89089 8.25481 11.5389 8.91506Z" stroke="black" stroke-linecap="round" stroke-linejoin="round"/>
</svg>
