<svg width="32" height="32" viewBox="0 0 32 32" fill="none" xmlns="http://www.w3.org/2000/svg">
<path d="M13.518 25.4869L13.2639 25.9176L13.518 25.4869ZM18.482 25.4869L18.7361 25.9176L18.482 25.4869ZM11.5 5.84326H20.5V4.84326H11.5V5.84326ZM24.5 9.84326V15.8291H25.5V9.84326H24.5ZM7.5 15.8291V9.84326H6.5V15.8291H7.5ZM13.7721 25.0563C10.1205 22.9016 7.5 19.626 7.5 15.8291H6.5C6.5 20.1195 9.45081 23.6675 13.2639 25.9176L13.7721 25.0563ZM24.5 15.8291C24.5 19.626 21.8795 22.9016 18.2279 25.0563L18.7361 25.9176C22.5492 23.6675 25.5 20.1195 25.5 15.8291H24.5ZM13.2639 25.9176C14.9507 26.9128 17.0493 26.9128 18.7361 25.9176L18.2279 25.0563C16.8547 25.8666 15.1453 25.8666 13.7721 25.0563L13.2639 25.9176ZM20.5 5.84326C22.7091 5.84326 24.5 7.63412 24.5 9.84326H25.5C25.5 7.08184 23.2614 4.84326 20.5 4.84326V5.84326ZM11.5 4.84326C8.73858 4.84326 6.5 7.08184 6.5 9.84326H7.5C7.5 7.63413 9.29086 5.84326 11.5 5.84326V4.84326Z" fill="black"/>
<path d="M21.5 17.5C21.5 18.0523 21.0881 18.5 20.58 18.5L12.1042 18.5M12.1042 10.5L20.58 10.5C21.0881 10.5 21.5 10.9477 21.5 11.5L21.5 11.996C21.5 12.0999 21.415 12.1823 21.3128 12.2018C20.8963 12.2812 20.5833 12.6202 20.5833 13.0263C20.5833 13.4325 20.8963 13.7715 21.3128 13.8509C21.415 13.8703 21.5 13.9527 21.5 14.0567L21.5 14.9433C21.5 15.0473 21.415 15.1297 21.3128 15.1491C20.8963 15.2285 20.5833 15.5675 20.5833 15.9737C20.5833 16.3798 20.8963 16.7188 21.3128 16.7982C21.415 16.8177 21.5 16.9001 21.5 17.004L21.5 17.4474M10.5 17.5C10.5 18.0523 10.9119 18.5 11.42 18.5L12.33 18.5M12.33 10.5L11.42 10.5C10.9119 10.5 10.5 10.9477 10.5 11.5L10.5 11.996C10.5 12.0999 10.585 12.1823 10.6872 12.2018C11.1037 12.2812 11.4167 12.6202 11.4167 13.0263C11.4167 13.4325 11.1037 13.7715 10.6872 13.8509C10.585 13.8703 10.5 13.9527 10.5 14.0567L10.5 14.9433C10.5 15.0473 10.585 15.1297 10.6872 15.1491C11.1037 15.2285 11.4167 15.5675 11.4167 15.9737C11.4167 16.3798 11.1037 16.7188 10.6872 16.7982C10.585 16.8177 10.5 16.9001 10.5 17.004L10.5 17.4474M17.9479 18.1842L17.9479 17.5526M17.9479 16.5L17.9479 15.8684M17.9479 14.8158L17.9479 14.1842M17.9479 13.1316L17.9479 12.5M17.9479 11.4474L17.9479 10.8158" stroke="black" stroke-width="0.8" stroke-linecap="round"/>
</svg>
