<svg width="32" height="32" fill="none" xmlns="http://www.w3.org/2000/svg"><path d="M10.885 7a.5.5 0 1 0 0-1v1ZM6 10.885a.5.5 0 1 0 1 0H6ZM21.115 6a.5.5 0 1 0 0 1V6ZM25 10.885a.5.5 0 1 0 1 0h-1ZM10.885 26a.5.5 0 1 0 0-1v1ZM7 21.115a.5.5 0 1 0-1 0h1ZM21.115 25a.5.5 0 1 0 0 1v-1ZM26 21.115a.5.5 0 1 0-1 0h1ZM12.577 14.54a.5.5 0 0 0 1 0h-1Zm1-2.193a.5.5 0 1 0-1 0h1Zm4.846 2.193a.5.5 0 1 0 1 0h-1Zm1-2.193a.5.5 0 1 0-1 0h1Zm-6.73 6.948a.5.5 0 0 0-.694.72l.694-.72ZM16 21.115v.5-.5Zm4.001-1.101a.5.5 0 0 0-.695-.72l.695.72ZM10.5 7h.385V6H10.5v1ZM7 10.885V10.5H6v.385h1ZM10.5 6A4.5 4.5 0 0 0 6 10.5h1A3.5 3.5 0 0 1 10.5 7V6Zm11 0h-.385v1h.385V6Zm4.5 4.885V10.5h-1v.385h1ZM21.5 7a3.5 3.5 0 0 1 3.5 3.5h1A4.5 4.5 0 0 0 21.5 6v1Zm-11 19h.385v-1H10.5v1ZM6 21.115v.385h1v-.385H6ZM10.5 25A3.5 3.5 0 0 1 7 21.5H6a4.5 4.5 0 0 0 4.5 4.5v-1Zm11 0h-.385v1h.385v-1Zm3.5-3.885v.385h1v-.385h-1ZM21.5 26a4.5 4.5 0 0 0 4.5-4.5h-1a3.5 3.5 0 0 1-3.5 3.5v1Zm-7.923-11.461v-2.193h-1v2.193h1Zm5.846 0v-2.193h-1v2.193h1ZM12 20.014A5.762 5.762 0 0 0 16 21.614v-1a4.762 4.762 0 0 1-3.306-1.32l-.695.718ZM16 21.614a5.762 5.762 0 0 0 4.001-1.601l-.695-.72A4.762 4.762 0 0 1 16 20.615v1Z" fill="#000"/></svg>