<svg width="32" height="32" fill="none" xmlns="http://www.w3.org/2000/svg"><path d="M6.5 16.077H6h.5Zm0 6.423H7h-.5Zm16 3v.5-.5Zm-13 0v.5-.5Zm16-9.423H25h.5Zm0 6.423h.5-.5Zm-3-9.423v.5-.5Zm-13 0v.5-.5Zm.154-.73a.5.5 0 0 0 1 0h-1Zm9.687-4.175a.5.5 0 0 0 .626-.78l-.626.78ZM15.5 20.385a.5.5 0 1 0 1 0h-1Zm1-2.924a.5.5 0 0 0-1 0h1ZM6 16.078V22.5h1v-6.423H6ZM22.5 25h-13v1h13v-1Zm2.5-8.923V22.5h1v-6.423h-1Zm-2.5-3.5h-13v1h13v-1Zm3.5 3.5a3.5 3.5 0 0 0-3.5-3.5v1a2.5 2.5 0 0 1 2.5 2.5h1Zm-19 0a2.5 2.5 0 0 1 2.5-2.5v-1a3.5 3.5 0 0 0-3.5 3.5h1ZM6 22.5A3.5 3.5 0 0 0 9.5 26v-1A2.5 2.5 0 0 1 7 22.5H6ZM22.5 26a3.5 3.5 0 0 0 3.5-3.5h-1a2.5 2.5 0 0 1-2.5 2.5v1ZM10.654 12.346A5.346 5.346 0 0 1 16 7V6a6.346 6.346 0 0 0-6.346 6.346h1ZM16 7c1.265 0 2.426.439 3.341 1.172l.626-.78A6.322 6.322 0 0 0 16 6v1Zm.5 13.385V17.46h-1v2.924h1Z" fill="#000"/></svg>