<svg width="32" height="32" fill="none" xmlns="http://www.w3.org/2000/svg"><path d="M6.5 10.385a.5.5 0 0 0 0 1v-1Zm5.115 1a.5.5 0 1 0 0-1v1Zm8.77-1a.5.5 0 0 0 0 1v-1Zm5.115 1a.5.5 0 1 0 0-1v1Zm-19 0h5.115v-1H6.5v1Zm13.885 0H25.5v-1h-5.115v1ZM8.5 7h1.115V6H8.5v1ZM7 16V8.5H6V16h1Zm9 9a9 9 0 0 1-9-9H6c0 5.523 4.477 10 10 10v-1Zm9-9a9 9 0 0 1-9 9v1c5.523 0 10-4.477 10-10h-1Zm0-7.5V16h1V8.5h-1ZM22.385 7H23.5V6h-1.115v1Zm-2.5 1.5V16h1V8.5h-1Zm0 7.5A3.885 3.885 0 0 1 16 19.885v1A4.885 4.885 0 0 0 20.885 16h-1ZM16 19.885A3.885 3.885 0 0 1 12.115 16h-1A4.885 4.885 0 0 0 16 20.885v-1ZM12.115 16V8.5h-1V16h1Zm10.27-10a2.5 2.5 0 0 0-2.5 2.5h1a1.5 1.5 0 0 1 1.5-1.5V6ZM9.615 7a1.5 1.5 0 0 1 1.5 1.5h1a2.5 2.5 0 0 0-2.5-2.5v1ZM26 8.5A2.5 2.5 0 0 0 23.5 6v1A1.5 1.5 0 0 1 25 8.5h1ZM8.5 6A2.5 2.5 0 0 0 6 8.5h1A1.5 1.5 0 0 1 8.5 7V6Z" fill="#000"/></svg>