<svg width="32" height="32" fill="none" xmlns="http://www.w3.org/2000/svg"><path d="m22.364 10.44-.35.358.35-.357Zm-12.728 0-.35-.356.35.357Zm-2.578 5.24.496.058-.496-.057ZM8 16.68v-.5.5Zm16.942-.998.497-.058-.497.058ZM16 21.357h-.5.5Zm-5.039 0a.5.5 0 1 0-1 0h1ZM16.5 6.5a.5.5 0 0 0-1 0h1Zm8.939 9.123a9.253 9.253 0 0 0-2.725-5.54l-.7.715a8.252 8.252 0 0 1 2.432 4.94l.993-.115Zm-2.725-5.54A9.593 9.593 0 0 0 16 7.358v1c2.258 0 4.42.88 6.014 2.441l.7-.714ZM16 7.358c-2.516 0-4.932.98-6.714 2.727l.7.714A8.593 8.593 0 0 1 16 8.358v-1Zm-6.714 2.727a9.253 9.253 0 0 0-2.725 5.54l.993.114a8.253 8.253 0 0 1 2.432-4.94l-.7-.714ZM8 17.179h8v-1H8v1Zm8 0h8v-1h-8v1Zm-9.439-1.556c-.103.885.628 1.556 1.439 1.556v-1c-.294 0-.47-.228-.446-.44l-.993-.116Zm17.885.115c.024.213-.152.44-.446.44v1c.81 0 1.542-.67 1.439-1.555l-.993.115Zm-8.946.94v4.68h1v-4.68h-1Zm0 4.68a2.278 2.278 0 0 1-2.27 2.285v1a3.278 3.278 0 0 0 3.27-3.286h-1Zm-2.27 2.285c-1.25 0-2.269-1.02-2.269-2.286h-1a3.278 3.278 0 0 0 3.27 3.286v-1ZM15.5 6.5v1.357h1V6.5h-1Z" fill="#000"/></svg>