<svg width="32" height="32" viewBox="0 0 32 32" fill="none" xmlns="http://www.w3.org/2000/svg">
<path d="M16 28.5C22.9036 28.5 28.5 22.9036 28.5 16C28.5 9.09644 22.9036 3.5 16 3.5C9.09644 3.5 3.5 9.09644 3.5 16C3.5 22.9036 9.09644 28.5 16 28.5Z" stroke="black" stroke-linecap="round" stroke-linejoin="round"/>
<path d="M10.5 11.5H18C18.663 11.5 19.2989 11.7633 19.7678 12.2322C20.2366 12.701 20.5 13.337 20.5 14C20.5 14.663 20.2366 15.299 19.7678 15.7678C19.2989 16.2367 18.663 16.5 18 16.5" stroke="black" stroke-linecap="round" stroke-linejoin="round"/>
<path d="M10.5 21.5H19C19.663 21.5 20.2989 21.2367 20.7678 20.7678C21.2366 20.299 21.5 19.663 21.5 19C21.5 18.337 21.2366 17.701 20.7678 17.2322C20.2989 16.7633 19.663 16.5 19 16.5H12.5" stroke="black" stroke-linecap="round" stroke-linejoin="round"/>
<path d="M12.5 11.5V21.5" stroke="black" stroke-linecap="round" stroke-linejoin="round"/>
<path d="M14.5 11.5V8.5" stroke="black" stroke-linecap="round" stroke-linejoin="round"/>
<path d="M17.5 11.5V8.5" stroke="black" stroke-linecap="round" stroke-linejoin="round"/>
<path d="M14.5 24.5V21.5" stroke="black" stroke-linecap="round" stroke-linejoin="round"/>
<path d="M17.5 24.5V21.5" stroke="black" stroke-linecap="round" stroke-linejoin="round"/>
</svg>
