<svg width="32" height="32" fill="none" xmlns="http://www.w3.org/2000/svg"><path d="M6.5 10.5H6h.5Zm0 11H7h-.5Zm15 4V25v.5Zm-11 0v.5-.5Zm15-15H25h.5Zm0 11h.5-.5Zm-4-15V7v-.5Zm-11 0V7v-.5Zm15 13.154v.5a.5.5 0 0 0 .5-.5h-.5Zm-5.846 0v.5-.5Zm5.846-7.308h.5v-.5h-.5v.5Zm-5.846 0v-.5.5Zm.23 3.654a.23.23 0 0 1-.23.23v1c.68 0 1.23-.55 1.23-1.23h-1Zm-.23.23a.23.23 0 0 1-.23-.23h-1c0 .68.55 1.23 1.23 1.23v-1Zm-.23-.23a.23.23 0 0 1 .23-.23v-1c-.68 0-1.23.55-1.23 1.23h1Zm.23-.23a.23.23 0 0 1 .23.23h1c0-.68-.55-1.23-1.23-1.23v1ZM6 10.5v11h1v-11H6ZM21.5 25h-11v1h11v-1ZM25 10.5v11h1v-11h-1ZM21.5 6h-11v1h11V6Zm4.5 4.5A4.5 4.5 0 0 0 21.5 6v1a3.5 3.5 0 0 1 3.5 3.5h1Zm-19 0A3.5 3.5 0 0 1 10.5 7V6A4.5 4.5 0 0 0 6 10.5h1Zm-1 11a4.5 4.5 0 0 0 4.5 4.5v-1A3.5 3.5 0 0 1 7 21.5H6ZM21.5 26a4.5 4.5 0 0 0 4.5-4.5h-1a3.5 3.5 0 0 1-3.5 3.5v1Zm4-6.846h-5.846v1H25.5v-1Zm-.5-6.808v7.308h1v-7.308h-1Zm.5-.5h-5.846v1H25.5v-1ZM16.5 16a3.154 3.154 0 0 1 3.154-3.154v-1A4.154 4.154 0 0 0 15.5 16h1Zm-1 0a4.154 4.154 0 0 0 4.154 4.154v-1A3.154 3.154 0 0 1 16.5 16h-1Z" fill="#000"/></svg>