<svg width="32" height="32" fill="none" xmlns="http://www.w3.org/2000/svg"><path d="M21 25.5V25v.5Zm-10 0v.5-.5Zm14-15h-.5.5Zm0 11h.5-.5Zm-18-11h.5H7Zm14-4V7v-.5Zm-10 0V6v.5Zm9.5 5.115H20h.5Zm-9 0H11h.5Zm.5-1.461a.5.5 0 1 0-1 0h1Zm9 0a.5.5 0 1 0-1 0h1ZM21 25H11v1h10v-1Zm3.5-14.5v11h1v-11h-1Zm-18 0v11h1v-11h-1ZM21 6H11v1h10V6Zm4.5 4.5A4.5 4.5 0 0 0 21 6v1a3.5 3.5 0 0 1 3.5 3.5h1Zm-18 0A3.5 3.5 0 0 1 11 7V6a4.5 4.5 0 0 0-4.5 4.5h1ZM11 25a3.5 3.5 0 0 1-3.5-3.5h-1A4.5 4.5 0 0 0 11 26v-1Zm10 1a4.5 4.5 0 0 0 4.5-4.5h-1A3.5 3.5 0 0 1 21 25v1Zm-1-14.385c0 2.134-1.779 3.885-4 3.885v1c2.75 0 5-2.175 5-4.885h-1ZM16 15.5c-2.222 0-4-1.751-4-3.885h-1c0 2.71 2.25 4.885 5 4.885v-1Zm-4-3.885v-1.461h-1v1.461h1Zm9 0v-1.461h-1v1.461h1Z" fill="#000"/></svg>