<svg width="32" height="32" fill="none" xmlns="http://www.w3.org/2000/svg"><path d="M19.18 25.5V25v.5Zm-6.36 0v.5-.5Zm11.716-12.373a.5.5 0 1 0-.995-.1l.995.1Zm-1.376 8.77.498.049-.498-.05Zm-14.7-8.87a.5.5 0 0 0-.996.1l.995-.1Zm.38 8.87-.498.049.497-.05Zm7.66-3.705a.5.5 0 0 0-1 0h1Zm-1 2.923a.5.5 0 0 0 1 0h-1Zm4.654-2.923a.5.5 0 1 0-1 0h1Zm-1 2.923a.5.5 0 0 0 1 0h-1Zm-6.308-2.923a.5.5 0 0 0-1 0h1Zm-1 2.923a.5.5 0 1 0 1 0h-1Zm2.43-14.44a.5.5 0 0 0-.936-.35l.936.35Zm-3.129 5.496a.5.5 0 1 0 .937.35l-.937-.35Zm-4.647.406a.5.5 0 0 0 0 1v-1Zm19 1a.5.5 0 1 0 0-1v1Zm-6.84-7.253a.5.5 0 0 0-.936.352l.936-.352Zm1.256 6.198a.5.5 0 1 0 .937-.351l-.937.35ZM19.18 25h-6.36v1h6.36v-1Zm4.36-11.973-.877 8.82.995.099.878-8.82-.995-.099Zm-16.076.1.878 8.819.995-.1-.878-8.819-.995.1ZM12.82 25a3.5 3.5 0 0 1-3.483-3.153l-.995.099A4.5 4.5 0 0 0 12.82 26v-1Zm6.36 1a4.5 4.5 0 0 0 4.478-4.054l-.995-.1A3.5 3.5 0 0 1 19.18 25v1Zm-3.68-7.808v2.923h1v-2.923h-1Zm3.654 0v2.923h1v-2.923h-1Zm-7.308 0v2.923h1v-2.923h-1ZM13.34 6.324l-2.193 5.847.937.35 2.192-5.845-.936-.352ZM6.5 13.577h19v-1h-19v1Zm11.224-6.901 2.192 5.846.937-.351-2.193-5.847-.936.352Z" fill="#000"/></svg>