<svg width="32" height="32" fill="none" xmlns="http://www.w3.org/2000/svg"><path d="M7.934 8.692h15.118a2 2 0 0 1 1.96 2.4l-.559 2.738a2 2 0 0 1-1.753 1.59l-12.663 1.31M7.934 8.693 6.5 6.5m1.434 2.192 2.103 8.039m12.954 2.923h-9.168a3.914 3.914 0 0 1-3.786-2.923m3.633 7.307c0 .808-.642 1.462-1.434 1.462-.792 0-1.434-.654-1.434-1.462 0-.807.642-1.461 1.434-1.461.792 0 1.434.654 1.434 1.461Zm9.32 0c0 .808-.641 1.462-1.433 1.462s-1.434-.654-1.434-1.462c0-.807.642-1.461 1.434-1.461.792 0 1.434.654 1.434 1.461Z" stroke="#000" stroke-linecap="round"/></svg>