<svg width="32" height="32" fill="none" xmlns="http://www.w3.org/2000/svg"><path d="M6.5 12H6h.5Zm0 8H7h-.5Zm15 4v.5-.5Zm-11 0v.5-.5Zm15-12H25h.5Zm0 8h.5-.5Zm-4-12v-.5.5Zm-11 0v-.5.5Zm-3.27 3.864a.5.5 0 0 0 0 1v-1Zm17.54 1a.5.5 0 1 0 0-1v1ZM7.23 16.227a.5.5 0 1 0 0 1v-1Zm17.54 1a.5.5 0 1 0 0-1v1ZM6 12v8h1v-8H6Zm15.5 11.5h-11v1h11v-1ZM25 12v8h1v-8h-1Zm-3.5-4.5h-11v1h11v-1ZM26 12a4.5 4.5 0 0 0-4.5-4.5v1A3.5 3.5 0 0 1 25 12h1ZM7 12a3.5 3.5 0 0 1 3.5-3.5v-1A4.5 4.5 0 0 0 6 12h1Zm-1 8a4.5 4.5 0 0 0 4.5 4.5v-1A3.5 3.5 0 0 1 7 20H6Zm15.5 4.5A4.5 4.5 0 0 0 26 20h-1a3.5 3.5 0 0 1-3.5 3.5v1ZM7.23 12.864h17.54v-1H7.23v1Zm0 4.363h17.54v-1H7.23v1Z" fill="#000"/></svg>