<svg width="32" height="32" viewBox="0 0 32 32" fill="none" xmlns="http://www.w3.org/2000/svg">
<path d="M11.6829 11.1262C11.8801 10.9329 11.8832 10.6163 11.6898 10.4191C11.4964 10.222 11.1799 10.2189 10.9827 10.4123L11.6829 11.1262ZM7.42738 14.5996L7.07728 14.2426L7.42738 14.5996ZM10.9827 21.5878C11.1799 21.7811 11.4964 21.778 11.6898 21.5809C11.8832 21.3838 11.8801 21.0672 11.6829 20.8738L10.9827 21.5878ZM7.42738 17.4004L7.07728 17.7574H7.07728L7.42738 17.4004ZM21.1436 10.5371C20.9465 10.3438 20.6299 10.3468 20.4366 10.544C20.2432 10.7411 20.2463 11.0577 20.4434 11.2511L21.1436 10.5371ZM24.5716 14.5996L24.9217 14.2426L24.5716 14.5996ZM20.4434 20.7489C20.2463 20.9423 20.2432 21.2588 20.4366 21.456C20.6299 21.6531 20.9465 21.6562 21.1436 21.4628L20.4434 20.7489ZM24.5716 17.4004L24.9217 17.7574L24.5716 17.4004ZM18.8938 7.63236C18.9669 7.36607 18.8103 7.09094 18.544 7.01784C18.2777 6.94474 18.0025 7.10135 17.9294 7.36764L18.8938 7.63236ZM13.2628 24.3676C13.1897 24.6339 13.3463 24.9091 13.6126 24.9822C13.8789 25.0553 14.154 24.8986 14.2271 24.6324L13.2628 24.3676ZM10.9827 10.4123L7.07728 14.2426L7.77749 14.9566L11.6829 11.1262L10.9827 10.4123ZM11.6829 20.8738L7.77749 17.0435L7.07728 17.7574L10.9827 21.5878L11.6829 20.8738ZM7.07728 14.2426C6.08882 15.2121 6.08882 16.788 7.07728 17.7574L7.77749 17.0435C7.18875 16.4661 7.18875 15.534 7.77749 14.9566L7.07728 14.2426ZM20.4434 11.2511L24.2215 14.9565L24.9217 14.2426L21.1436 10.5371L20.4434 11.2511ZM21.1436 21.4628L24.9217 17.7574L24.2215 17.0434L20.4434 20.7489L21.1436 21.4628ZM24.2215 14.9565C24.8103 15.5339 24.8103 16.466 24.2215 17.0434L24.9217 17.7574C25.9102 16.7879 25.9102 15.212 24.9217 14.2426L24.2215 14.9565ZM17.9294 7.36764L13.2628 24.3676L14.2271 24.6324L18.8938 7.63236L17.9294 7.36764Z" fill="black"/>
</svg>
