<svg width="32" height="32" fill="none" xmlns="http://www.w3.org/2000/svg"><path d="m20.225 15.223 5.24-7.185c.354-.442.512-1 .439-1.549a2.049 2.049 0 0 0-.826-1.381 2.223 2.223 0 0 0-1.606-.406 2.223 2.223 0 0 0-1.446.809l-5.256 7.186-11.076 2.526c-.117 2.504 1.903 5.829 5.35 8.363 3.448 2.534 6.842 4.22 9.333 3.46l-.152-11.823Z" stroke="#000" stroke-miterlimit="10"/><path d="M20.371 15.031c-.288.351-1.294.077-2.241-.62-.948-.696-1.485-1.556-1.207-1.914" stroke="#000" stroke-miterlimit="10"/><path d="m11.664 17.2-4.338 2.373M13.261 20.6l-2.036 2.663M17.346 21.642l-1.648 4.427" stroke="#000" stroke-miterlimit="10" stroke-linecap="round"/></svg>