<svg width="32" height="32" fill="none" xmlns="http://www.w3.org/2000/svg"><path d="M11.683 11.126a.5.5 0 1 0-.7-.714l.7.714ZM7.428 14.6l-.35-.357.35.357Zm3.555 6.988a.5.5 0 0 0 .7-.714l-.7.714ZM7.428 17.4l-.35.357.35-.357Zm13.716-6.863a.5.5 0 0 0-.7.714l.7-.714Zm3.428 4.063.35-.357-.35.357Zm-4.128 6.149a.5.5 0 0 0 .7.714l-.7-.714Zm4.128-3.349.35.357-.35-.357Zm-5.678-9.768a.5.5 0 0 0-.964-.264l.964.264Zm-5.63 16.736a.5.5 0 0 0 .964.264l-.965-.264Zm-2.28-13.956-3.906 3.83.7.715 3.905-3.83-.7-.715Zm.7 10.462-3.906-3.83-.7.713 3.905 3.83.7-.713Zm-4.606-6.631a2.454 2.454 0 0 0 0 3.514l.7-.713a1.454 1.454 0 0 1 0-2.087l-.7-.714Zm13.366-2.992 3.778 3.706.7-.714-3.778-3.706-.7.714Zm.7 10.212 3.778-3.706-.7-.714-3.778 3.706.7.714Zm3.078-6.507c.589.578.589 1.51 0 2.087l.7.714a2.454 2.454 0 0 0 0-3.514l-.7.713ZM17.93 7.369l-4.667 17 .965.264 4.666-17-.964-.264Z" fill="#000"/></svg>