<svg width="32" height="32" fill="none" xmlns="http://www.w3.org/2000/svg"><path d="M16.5 15.27a.5.5 0 0 0-1 0h1ZM16 25.5l-.354.354a.5.5 0 0 0 .708 0L16 25.5Zm4.007-3.3a.5.5 0 1 0-.707-.707l.707.707Zm-7.307-.707a.5.5 0 1 0-.707.707l.707-.707Zm-1.76-3.534a.5.5 0 0 0-.11-.994l.11.994Zm-1.152-7.074.002-.5h-.002v.5Zm.01 0-.002.5h.355l.118-.334-.472-.166Zm12.095-.73-.447.222.136.273.305.004.006-.5Zm-1.508 6.807a.5.5 0 0 0 0 1v-1ZM15.5 15.269V25.5h1V15.27h-1Zm3.8 6.224-3.654 3.653.708.708 3.653-3.654-.707-.707Zm-2.946 3.653L12.7 21.493l-.707.707 3.653 3.654.708-.708Zm-5.524-8.181a25.734 25.734 0 0 1-.488.002l-.554-.005v1l.546.005h.35c.087 0 .194-.002.256-.008l-.11-.994Zm-1.042-.003A2.788 2.788 0 0 1 7 14.173H6a3.788 3.788 0 0 0 3.788 3.789v-1ZM7 14.173a2.788 2.788 0 0 1 2.788-2.788v-1A3.788 3.788 0 0 0 6 14.173h1Zm2.787-2.788h.009l.003-1h-.01l-.002 1Zm.482-.334A6.08 6.08 0 0 1 16 7V6a7.08 7.08 0 0 0-6.674 4.718l.943.333ZM16 7a6.077 6.077 0 0 1 5.446 3.377l.895-.445A7.077 7.077 0 0 0 16 6v1Zm5.887 3.654A3.154 3.154 0 0 1 25 13.808h1a4.154 4.154 0 0 0-4.1-4.154l-.013 1ZM25 13.808a3.154 3.154 0 0 1-3.154 3.154v1A4.154 4.154 0 0 0 26 13.808h-1Zm-3.154 3.154h-1.461v1h1.461v-1Z" fill="#000"/></svg>