<svg width="32" height="32" viewBox="0 0 32 32" fill="none" xmlns="http://www.w3.org/2000/svg">
<path d="M23.8527 25.5C23.857 25.5 23.8613 25.5 23.8656 25.4999M23.8656 25.4999C24.7678 25.4929 25.5 24.7452 25.5 23.8271L25.5 12.3481C25.5 11.4255 24.7639 10.6758 23.8558 10.6758L22.1202 10.6758C21.2121 10.6758 20.476 9.92799 20.476 9.0055C20.476 7.62175 19.3717 6.5 18.0096 6.5C16.6475 6.5 15.5433 7.62175 15.5433 9.0055C15.5433 9.92799 14.8071 10.6758 13.899 10.6758L12.2548 10.6758C11.3467 10.6758 10.6106 11.4238 10.6106 12.3463L10.6106 13.912C10.6106 14.8345 9.87443 15.5824 8.96635 15.5824C7.60422 15.5824 6.5 16.7042 6.5 18.0879C6.5 19.4717 7.60422 20.5934 8.96635 20.5934C9.87443 20.5934 10.6106 21.3412 10.6106 22.2637L10.6106 23.8297C10.6106 24.7522 11.3492 25.5 12.2573 25.5L15.5433 25.4999L15.5433 23.8296C15.5433 22.4459 16.6475 21.3241 18.0096 21.3241C19.3718 21.3241 20.476 22.4459 20.476 23.8296L20.476 25.4999L23.8656 25.4999Z" stroke="black" stroke-linecap="round" stroke-linejoin="round"/>
</svg>
