<svg width="32" height="32" fill="none" xmlns="http://www.w3.org/2000/svg"><path d="M15.5 13.537a.5.5 0 1 0 1 0h-1Zm1-7.037a.5.5 0 1 0-1 0h1Zm2.499 2.12a.5.5 0 1 0-.331.943l.331-.943Zm-5.667.943a.5.5 0 1 0-.331-.943l.331.943Zm3.168 3.974V6.5h-1v7.037h1Zm7.5 3.519C24 21.44 20.421 25 16 25v1c4.968 0 9-4.002 9-8.944h-1ZM16 25c-4.421 0-8-3.56-8-7.944H7C7 21.998 11.033 26 16 26v-1Zm2.668-15.437C21.777 10.655 24 13.6 24 17.056h1c0-3.898-2.507-7.21-6.001-8.436l-.331.943ZM8 17.056c0-3.457 2.223-6.4 5.332-7.493l-.331-.943C9.507 9.847 7 13.158 7 17.056h1Z" fill="#000"/></svg>