<svg width="32" height="32" fill="none" xmlns="http://www.w3.org/2000/svg"><path d="M21.793 13.31a.5.5 0 1 0 .106.995l-.106-.995ZM26 10.154a.5.5 0 0 0-1 0h1Zm-15.9 4.15a.5.5 0 0 0 .107-.994l-.106.995ZM7 10.155a.5.5 0 0 0-1 0h1Zm14.889 11.194a.5.5 0 1 0-.085.996l.085-.996ZM25 24.769a.5.5 0 1 0 1 0h-1Zm-14.804-2.425a.5.5 0 1 0-.085-.996l.085.996ZM6 24.77a.5.5 0 1 0 1 0H6Zm3.423-6.807a.5.5 0 1 0 0-1v1Zm-2.192-1a.5.5 0 0 0 0 1v-1Zm15.346 0a.5.5 0 0 0 0 1v-1Zm2.192 1a.5.5 0 1 0 0-1v1ZM15.5 21.01a.5.5 0 1 0 1 0h-1Zm1-6.264a.5.5 0 1 0-1 0h1Zm1.923-5.324v1.462h1V9.423h-1Zm-4.846 1.462V9.423h-1v1.462h1ZM16 7a2.423 2.423 0 0 1 2.423 2.423h1A3.423 3.423 0 0 0 16 6v1Zm0-1a3.423 3.423 0 0 0-3.423 3.423h1A2.423 2.423 0 0 1 16 7V6Zm5.9 8.305c2.963-.317 4.1-2.73 4.1-4.151h-1c0 1.015-.85 2.905-3.207 3.156l.106.995Zm-11.693-.995C7.85 13.06 7 11.17 7 10.154H6c0 1.42 1.137 3.834 4.1 4.15l.107-.994Zm11.597 9.034c2.44.209 3.196 1.748 3.196 2.425h1c0-1.272-1.232-3.175-4.111-3.421l-.085.996Zm-11.693-.996C7.232 21.594 6 23.498 6 24.769h1c0-.677.755-2.216 3.196-2.425l-.085-.996Zm-.688-4.386H7.231v1h2.192v-1Zm13.154 1h2.192v-1h-2.192v1Zm-9.15-6.577h5.145v-1h-5.144v1Zm7.92 2.773v5.496h1v-5.496h-1Zm-10.693 5.496v-5.496h-1v5.496h1ZM16 25a5.346 5.346 0 0 1-5.346-5.346h-1A6.346 6.346 0 0 0 16 26v-1Zm5.346-5.346A5.346 5.346 0 0 1 16 25v1a6.346 6.346 0 0 0 6.346-6.346h-1Zm-2.774-8.27a2.774 2.774 0 0 1 2.774 2.774h1a3.774 3.774 0 0 0-3.774-3.773v1Zm-5.144-1a3.774 3.774 0 0 0-3.774 3.774h1a2.774 2.774 0 0 1 2.774-2.773v-1ZM16.5 21.012v-6.264h-1v6.264h1Z" fill="#000"/></svg>