<svg width="32" height="32" fill="none" xmlns="http://www.w3.org/2000/svg"><path d="m13.395 22.525.89-2.269a.96.96 0 0 0-.046-.746l-2.647-5.236a2.158 2.158 0 0 1 1.034-2.938l5.967-2.803m2.724 3.086.945 2.016c.095.196.27.353.475.425l2.026.701c.572.199.876.824.675 1.387a1.114 1.114 0 0 1-1.41.665l-3.037-1.053a.846.846 0 0 1-.475-.424l-1.322-2.764-3.582 1.715a.542.542 0 0 0-.254.756l1.81 3.517c.13.24.15.506.062.752l-1.47 4.144M6.5 20.592l16.636 5.335c.455.157.968.06 1.303-.28.336-.338.537-.901.002-1.801m-1.48-7.364-14.06-5.131m15.395-4.194a2.023 2.023 0 0 1-.972 2.717c-1.03.486-2.266.058-2.76-.956a2.023 2.023 0 0 1 .971-2.717c1.031-.487 2.267-.058 2.761.956Z" stroke="#000" stroke-miterlimit="10" stroke-linecap="round" stroke-linejoin="round"/></svg>