<svg width="32" height="32" viewBox="0 0 32 32" fill="none" xmlns="http://www.w3.org/2000/svg">
<path d="M13.4932 14.5556L16 13.1115M13.4932 14.5556V17.4303M13.4932 14.5556L10.9997 13.1115M16 13.1115L18.4932 14.5556M16 13.1115L16 10.2232M18.4932 14.5556V17.4303M18.4932 14.5556L20.9863 13.1118M18.4932 17.4303L16 18.8745M18.4932 17.4303L20.9863 18.8746M16 18.8745L13.4932 17.4303M16 18.8745V21.763M13.4932 17.4303L10.9997 18.8747M10.2095 9.77357L10.9997 10.2232L10.9997 13.1115M10.9997 13.1115L8.49289 14.5557L7.71631 14.0924M7.71631 17.8937L8.49289 17.4305L10.9997 18.8747M10.9997 18.8747V21.763L10.2095 22.2262M13.4932 24.12V23.2072L16 21.763M16 21.763L18.4932 23.2072V24.12M21.7765 22.2125L20.9863 21.7629V18.8746M20.9863 18.8746L23.4932 17.4304L24.2834 17.8936M24.2697 14.0928L23.4932 14.556L20.9863 13.1118M20.9863 13.1118V10.2235L21.7765 9.7739M18.4932 7.87983L18.4932 8.77902L16 10.2232M16 10.2232L13.4932 8.77902V7.8662M24.5015 16C24.5015 20.6952 20.6952 24.5015 16 24.5015C11.3048 24.5015 7.49854 20.6952 7.49854 16C7.49854 11.3048 11.3048 7.49854 16 7.49854C20.6952 7.49854 24.5015 11.3048 24.5015 16Z" stroke="black" stroke-width="0.8" stroke-miterlimit="10" stroke-linecap="round"/>
</svg>
