<svg width="32" height="32" viewBox="0 0 32 32" fill="none" xmlns="http://www.w3.org/2000/svg">
<path d="M18.4396 15.2106L20.2821 14.6127M19.6338 17.5239L21.191 16.3891M21.4664 19.4083L22.6152 17.8136M18.4244 10.0365L20.2798 10.6193M18.036 12.6061L19.9628 12.6104M13.5551 16.7955L11.6456 17.4151M13.9791 19.4698L11.9745 19.4538M13.5562 22.1597L11.6456 21.5207M10.4066 12.4535L9.22432 14.059M12.3158 14.349L10.7025 15.539M23.2261 9.8331C26.6319 13.8239 26.1577 19.8202 22.1669 23.2261C18.1761 26.6319 12.1798 26.1577 8.77394 22.1669C5.36806 18.1761 5.84226 12.1798 9.8331 8.77394C13.8239 5.36806 19.8202 5.84226 23.2261 9.8331Z" stroke="black" stroke-miterlimit="10" stroke-linecap="round"/>
</svg>
