<svg width="32" height="32" viewBox="0 0 32 32" fill="none" xmlns="http://www.w3.org/2000/svg">
<path d="M13.1033 9.67786C13.2448 9.91502 13.5517 9.9926 13.7889 9.85115C14.026 9.70969 14.1036 9.40276 13.9622 9.1656L13.1033 9.67786ZM11.9398 5.77497C11.7983 5.53781 11.4914 5.46023 11.2542 5.60168C11.0171 5.74314 10.9395 6.05007 11.0809 6.28723L11.9398 5.77497ZM21.9105 18.2161L21.4942 18.4931L21.4981 18.4988L21.9105 18.2161ZM23.785 19.1846L24.1165 19.559L24.1232 19.5529L23.785 19.1846ZM24.2385 17.8724L23.7403 17.8286L23.7398 17.8353L24.2385 17.8724ZM25.871 16.5914L25.746 17.0755L25.871 16.5914ZM26.9896 17.9349L26.492 17.9831L26.4927 17.991L26.4938 17.9989L26.9896 17.9349ZM25.7803 21.2155L25.4163 20.8727L25.4127 20.8766L25.7803 21.2155ZM23.6036 22.2465V21.7465H23.5855L23.5674 21.7478L23.6036 22.2465ZM19.7338 19.6845L20.1735 19.4466L20.1681 19.4366L20.1623 19.4269L19.7338 19.6845ZM13.5295 4.72375C13.3769 4.49359 13.0666 4.43069 12.8364 4.58326C12.6063 4.73583 12.5434 5.0461 12.696 5.27627L13.5295 4.72375ZM14.4343 7.89859C14.5868 8.12875 14.8971 8.19165 15.1273 8.03908C15.3574 7.88651 15.4203 7.57624 15.2678 7.34607L14.4343 7.89859ZM15.9999 20.9372L16.0143 20.4374L16.0071 20.4372H15.9999V20.9372ZM19.303 5.27773C19.4563 5.0481 19.3945 4.73761 19.1649 4.58423C18.9353 4.43084 18.6248 4.49265 18.4714 4.72227L19.303 5.27773ZM10.0592 18.2161L10.4716 18.4988L10.475 18.4938L10.0592 18.2161ZM8.18474 19.1846L7.84644 19.5529L7.85321 19.5589L8.18474 19.1846ZM7.73125 17.8724L8.22991 17.8353L8.22933 17.8286L7.73125 17.8724ZM6.09867 16.5914L6.20497 17.08L6.2144 17.0779L6.22375 17.0755L6.09867 16.5914ZM5.01029 17.9037L5.50618 17.9676L5.5072 17.9597L5.50797 17.9518L5.01029 17.9037ZM6.21961 21.1842L6.5873 20.8454L6.58365 20.8415L6.21961 21.1842ZM8.39637 22.2153L8.43254 21.7166L8.41448 21.7153H8.39637V22.2153ZM12.2662 19.6533L11.8377 19.3956L11.8319 19.4053L11.8265 19.4153L12.2662 19.6533ZM20.8878 6.28875C21.0301 6.05211 20.9536 5.7449 20.717 5.60257C20.4804 5.46024 20.1731 5.5367 20.0308 5.77334L20.8878 6.28875ZM17.499 15.9157L19.4944 14.6034L18.9449 13.7679L16.9496 15.0802L17.499 15.9157ZM18.6173 18.5863L20.7034 17.2428L20.1619 16.4021L18.0759 17.7455L18.6173 18.5863ZM13.9622 9.1656L11.9398 5.77497L11.0809 6.28723L13.1033 9.67786L13.9622 9.1656ZM16.8989 11.5883L21.4943 18.4931L22.3268 17.9391L17.7314 11.0342L16.8989 11.5883ZM21.4981 18.4988C22.0392 19.2883 22.4785 19.6384 22.8965 19.7824L23.2222 18.8369C23.096 18.7934 22.8097 18.6436 22.3229 17.9334L21.4981 18.4988ZM22.8965 19.7824C23.0915 19.8495 23.3045 19.8817 23.5245 19.8462C23.7483 19.8101 23.9471 19.709 24.1165 19.5589L23.4534 18.8104C23.4112 18.8478 23.3833 18.856 23.3651 18.859C23.3433 18.8625 23.2993 18.8635 23.2222 18.8369L22.8965 19.7824ZM24.1232 19.5529C24.3623 19.3333 24.4995 18.9971 24.5804 18.7339C24.6675 18.4502 24.7193 18.1477 24.7371 17.9095L23.7398 17.8353C23.7273 18.0033 23.6884 18.2319 23.6244 18.4403C23.5541 18.6693 23.4798 18.7861 23.4467 18.8164L24.1232 19.5529ZM24.7365 17.9162C24.7598 17.6516 24.8501 17.4281 24.9908 17.2828L24.2722 16.5874C23.9291 16.942 23.7776 17.4058 23.7404 17.8286L24.7365 17.9162ZM24.9908 17.2828C25.1258 17.1432 25.3221 17.0602 25.5687 17.0602V16.0602C25.0897 16.0602 24.6208 16.2271 24.2722 16.5874L24.9908 17.2828ZM25.5687 17.0602C25.6547 17.0602 25.6908 17.0613 25.746 17.0755L25.9961 16.1073C25.8094 16.0591 25.6641 16.0602 25.5687 16.0602V17.0602ZM25.746 17.0755C26.1335 17.1757 26.4504 17.553 26.492 17.9831L27.4873 17.8867C27.408 17.067 26.8178 16.3196 25.9961 16.1073L25.746 17.0755ZM26.4938 17.9989C26.5127 18.1459 26.4967 18.6062 26.3345 19.1819C26.1755 19.7464 25.8899 20.3697 25.4163 20.8727L26.1444 21.5582C26.7592 20.9052 27.1084 20.1226 27.2971 19.453C27.4826 18.7945 27.527 18.1926 27.4855 17.8709L26.4938 17.9989ZM25.4127 20.8766C24.8853 21.4489 24.2564 21.7465 23.6036 21.7465V22.7465C24.5833 22.7465 25.4661 22.2943 26.148 21.5543L25.4127 20.8766ZM23.5674 21.7478C22.8037 21.8032 22.2004 21.6449 21.6773 21.2899C21.1418 20.9265 20.6522 20.3311 20.1735 19.4466L19.294 19.9225C19.813 20.8814 20.3967 21.6294 21.1158 22.1174C21.8474 22.6139 22.6802 22.8148 23.6397 22.7452L23.5674 21.7478ZM20.1623 19.4269L16.4436 13.2407L15.5866 13.7559L19.3052 19.9421L20.1623 19.4269ZM12.696 5.27627L14.4343 7.89859L15.2678 7.34607L13.5295 4.72375L12.696 5.27627ZM18.4332 23.9686C18.4332 25.3666 17.348 26.5 15.9999 26.5V27.5C17.9407 27.5 19.4332 25.8776 19.4332 23.9686H18.4332ZM15.9999 26.5C14.6866 26.5 13.5666 25.4025 13.5666 23.9686H12.5666C12.5666 25.9335 14.1133 27.5 15.9999 27.5V26.5ZM13.5666 23.9686C13.5666 22.5706 14.6518 21.4372 15.9999 21.4372V20.4372C14.0591 20.4372 12.5666 22.0596 12.5666 23.9686H13.5666ZM15.9856 21.437C17.318 21.4753 18.4332 22.5886 18.4332 23.9686H19.4332C19.4332 22.0417 17.8818 20.491 16.0143 20.4374L15.9856 21.437ZM15.0474 15.0783L13.0218 13.766L12.4781 14.6053L14.5037 15.9175L15.0474 15.0783ZM13.6634 17.7455L11.5773 16.4021L11.0359 17.2428L13.122 18.5863L13.6634 17.7455ZM18.4714 4.72227L9.64341 17.9384L10.475 18.4938L19.303 5.27773L18.4714 4.72227ZM9.64676 17.9334C9.15997 18.6436 8.87369 18.7934 8.74748 18.8369L9.07318 19.7824C9.49117 19.6384 9.93047 19.2883 10.4716 18.4988L9.64676 17.9334ZM8.74748 18.8369C8.67037 18.8635 8.62643 18.8625 8.60457 18.859C8.58644 18.8561 8.55851 18.8478 8.51628 18.8104L7.85321 19.5589C8.02261 19.709 8.22142 19.8101 8.44516 19.8462C8.66516 19.8817 8.8782 19.8495 9.07318 19.7824L8.74748 18.8369ZM8.52299 18.8164C8.48995 18.7861 8.41559 18.6693 8.34525 18.4403C8.28125 18.2319 8.24238 18.0033 8.22987 17.8353L7.23263 17.9095C7.25035 18.1477 7.30218 18.4502 7.38934 18.7339C7.47017 18.9971 7.60744 19.3333 7.84649 19.5529L8.52299 18.8164ZM8.22933 17.8286C8.19214 17.4058 8.04061 16.942 7.69754 16.5874L6.9789 17.2828C7.11956 17.4281 7.2099 17.6516 7.23317 17.9162L8.22933 17.8286ZM7.69754 16.5874C7.34886 16.2271 6.87996 16.0602 6.401 16.0602V17.0602C6.64764 17.0602 6.84386 17.1432 6.9789 17.2828L7.69754 16.5874ZM6.401 16.0602C6.30561 16.0602 6.16034 16.0591 5.9736 16.1073L6.22375 17.0755C6.27887 17.0613 6.315 17.0602 6.401 17.0602V16.0602ZM5.99238 16.1028C5.17568 16.2805 4.59089 17.0466 4.51261 17.8555L5.50797 17.9518C5.55062 17.511 5.87282 17.1523 6.20497 17.08L5.99238 16.1028ZM4.5144 17.8397C4.4729 18.1613 4.51735 18.7633 4.70286 19.4218C4.89149 20.0913 5.24078 20.874 5.85556 21.527L6.58365 20.8415C6.11005 20.3385 5.82445 19.7152 5.6654 19.1506C5.50323 18.575 5.48722 18.1146 5.50618 17.9676L4.5144 17.8397ZM5.85193 21.5231C6.53385 22.2631 7.41664 22.7153 8.39637 22.7153V21.7153C7.74353 21.7153 7.11467 21.4177 6.58728 20.8454L5.85193 21.5231ZM8.36021 22.714C9.31974 22.7836 10.1525 22.5826 10.8841 22.0862C11.6033 21.5982 12.187 20.8501 12.7059 19.8913L11.8265 19.4153C11.3477 20.2998 10.8581 20.8953 10.3226 21.2587C9.79956 21.6136 9.19628 21.772 8.43254 21.7166L8.36021 22.714ZM12.6947 19.911L20.8878 6.28875L20.0308 5.77334L11.8377 19.3956L12.6947 19.911Z" fill="black"/>
</svg>
