<svg width="32" height="32" viewBox="0 0 32 32" fill="none" xmlns="http://www.w3.org/2000/svg">
<path d="M16.6218 13.5385C16.7487 13.3314 16.6837 13.0606 16.4766 12.9337C16.2695 12.8067 15.9987 12.8717 15.8717 13.0788L16.6218 13.5385ZM15.702 17.5159L16.123 17.3881L16.1203 17.3798L15.702 17.5159ZM18.6677 20.6708L18.5 21.0774L18.5012 21.0779L18.6677 20.6708ZM20.7544 22.24L21.1302 22.0114C21.1252 22.0032 21.12 21.9952 21.1145 21.9874L20.7544 22.24ZM21.1309 22.8588L20.7551 23.0874L21.1309 22.8588ZM21.7555 24.5339L21.3419 24.6836C21.3683 24.7564 21.4134 24.821 21.4728 24.8708L21.7555 24.5339ZM22.8067 25.4159L22.524 25.7529C22.6515 25.8598 22.8284 25.8857 22.9811 25.8197L22.8067 25.4159ZM25.5231 24.2424L25.6975 24.6461C25.8629 24.5747 25.968 24.4095 25.9627 24.2294L25.5231 24.2424ZM23.7163 9.44018C23.6565 9.20474 23.4172 9.06234 23.1817 9.12212C22.9463 9.18191 22.8039 9.42124 22.8637 9.65669L23.7163 9.44018ZM20.8283 14.5482L20.5455 14.8852L20.8283 14.5482ZM21.7231 13.4818L21.4404 13.8187L21.7231 13.4818ZM21.9618 21.2569C22.2007 21.2131 22.3589 20.984 22.3152 20.745C22.2715 20.5061 22.0423 20.3478 21.8033 20.3916L21.9618 21.2569ZM18.0708 19.9079C17.8598 19.7874 17.5912 19.8607 17.4707 20.0717C17.3502 20.2826 17.4236 20.5513 17.6345 20.6717L18.0708 19.9079ZM16.3331 26.3541C16.4462 26.5691 16.7122 26.6517 16.9272 26.5386C17.1422 26.4255 17.2247 26.1595 17.1116 25.9445L16.3331 26.3541ZM17.0593 19.927C17.2155 19.7409 17.1912 19.4635 17.0051 19.3074C16.819 19.1512 16.5416 19.1755 16.3854 19.3616L17.0593 19.927ZM22.9338 9.21808C22.784 9.40929 22.8176 9.68575 23.0088 9.83558C23.2 9.98541 23.4764 9.95187 23.6263 9.76066L22.9338 9.21808ZM25.0705 7.20451L25.4167 7.4758C25.563 7.2891 25.5349 7.02003 25.3532 6.86757L25.0705 7.20451ZM9.27082 11.09L9.60776 11.3727L9.27082 11.09ZM5.69522 17.8956C5.65707 18.1355 5.82063 18.3609 6.06053 18.399C6.30043 18.4372 6.52584 18.2736 6.56399 18.0337L5.69522 17.8956ZM24.8982 7.05991L25.1809 6.72298V6.72298L24.8982 7.05991ZM23.9471 6.54048L24.0692 6.11793L23.9471 6.54048ZM17.5512 6.83672C17.5128 6.59685 17.2872 6.43352 17.0474 6.47189C16.8075 6.51027 16.6442 6.73584 16.6825 6.9757L17.5512 6.83672ZM18.8818 20.7208C18.9201 20.9606 19.1457 21.124 19.3856 21.0856C19.6254 21.0472 19.7888 20.8217 19.7504 20.5818L18.8818 20.7208ZM7.96782 13.7828C7.93347 13.5423 7.71067 13.3752 7.4702 13.4096C7.22972 13.4439 7.06262 13.6667 7.09698 13.9072L7.96782 13.7828ZM15.4561 22.709C15.6926 22.7646 15.9294 22.618 15.985 22.3816C16.0406 22.1451 15.894 21.9083 15.6576 21.8527L15.4561 22.709ZM15.8717 13.0788C14.9973 14.5055 14.809 16.1929 15.2838 17.652L16.1203 17.3798C15.7274 16.1725 15.878 14.752 16.6218 13.5385L15.8717 13.0788ZM15.2811 17.6437C15.7683 19.2481 16.9738 20.448 18.5 21.0774L18.8353 20.2641C17.5224 19.7227 16.5242 18.71 16.1229 17.3882L15.2811 17.6437ZM18.5012 21.0779C19.2934 21.4018 19.9398 21.8448 20.3944 22.4926L21.1145 21.9874C20.5358 21.1625 19.7313 20.6304 18.8341 20.2636L18.5012 21.0779ZM20.3787 22.4686L20.7551 23.0874L21.5066 22.6302L21.1302 22.0114L20.3787 22.4686ZM20.7551 23.0874C20.9197 23.3579 20.9994 23.5669 21.0692 23.7957C21.137 24.0179 21.2116 24.3235 21.3419 24.6836L22.1691 24.3842C22.0475 24.0482 21.998 23.8256 21.9106 23.539C21.8252 23.2589 21.7185 22.9785 21.5066 22.6302L20.7551 23.0874ZM21.4728 24.8708L22.524 25.7529L23.0894 25.079L22.0382 24.1969L21.4728 24.8708ZM22.9811 25.8197L25.6975 24.6461L25.3486 23.8386L22.6323 25.0121L22.9811 25.8197ZM25.9627 24.2294C25.8092 19.0322 25.0116 14.5411 23.7163 9.44018L22.8637 9.65669C24.1486 14.7168 24.9323 19.1414 25.0834 24.2554L25.9627 24.2294ZM20.5455 14.8852C21.0261 15.2884 21.7429 15.2265 22.1464 14.7456L21.4725 14.1802C21.3819 14.2882 21.22 14.3028 21.111 14.2113L20.5455 14.8852ZM22.1464 14.7456C22.5499 14.2647 22.4864 13.5481 22.0058 13.1449L21.4404 13.8187C21.5494 13.9102 21.5632 14.0721 21.4725 14.1802L22.1464 14.7456ZM22.0058 13.1449C21.5253 12.7416 20.8085 12.8035 20.405 13.2844L21.0789 13.8498C21.1695 13.7418 21.3313 13.7272 21.4404 13.8187L22.0058 13.1449ZM20.405 13.2844C20.0014 13.7653 20.065 14.4819 20.5455 14.8852L21.111 14.2113C21.002 14.1198 20.9882 13.9579 21.0789 13.8498L20.405 13.2844ZM21.8033 20.3916C20.3964 20.6491 19.0895 20.4897 18.0708 19.9079L17.6345 20.6717C18.8763 21.381 20.4056 21.5418 21.9618 21.2569L21.8033 20.3916ZM17.1116 25.9445C16.42 24.63 16.1064 23.4846 16.1126 22.4959C16.1188 21.517 16.4381 20.6673 17.0593 19.927L16.3854 19.3616C15.6345 20.2565 15.2405 21.3035 15.233 22.4904C15.2255 23.6675 15.598 24.957 16.3331 26.3541L17.1116 25.9445ZM23.6263 9.76066L25.4167 7.4758L24.7243 6.93322L22.9338 9.21808L23.6263 9.76066ZM25.3532 6.86757L25.1809 6.72298L24.6154 7.39685L24.7878 7.54145L25.3532 6.86757ZM24.0692 6.11793C18.7588 4.58302 12.7675 6.23853 8.93388 10.8073L9.60776 11.3727C13.2142 7.07479 18.8437 5.52326 23.8249 6.96302L24.0692 6.11793ZM8.93388 10.8073C7.18126 12.896 6.09841 15.3603 5.69522 17.8956L6.56399 18.0337C6.94273 15.6522 7.96001 13.3364 9.60776 11.3727L8.93388 10.8073ZM25.1809 6.72298C24.8614 6.45487 24.4873 6.23878 24.0692 6.11793L23.8249 6.96302C24.1084 7.04497 24.3755 7.19552 24.6154 7.39685L25.1809 6.72298ZM16.6825 6.9757L18.8818 20.7208L19.7504 20.5818L17.5512 6.83672L16.6825 6.9757ZM7.09698 13.9072C7.38759 15.9415 8.47827 17.9037 9.98054 19.4689C11.4834 21.0346 13.4244 22.2309 15.4561 22.709L15.6576 21.8527C13.8148 21.4191 12.0185 20.3218 10.6152 18.8597C9.21131 17.397 8.22701 15.5971 7.96782 13.7828L7.09698 13.9072Z" fill="black"/>
</svg>
