<svg width="32" height="32" viewBox="0 0 32 32" fill="none" xmlns="http://www.w3.org/2000/svg">
<path d="M14.0047 14.0675C14.0047 14.6512 12.437 15.1349 10.5024 15.1349C8.56777 15.1349 7.00006 14.6679 7.00006 14.0675M14.0047 14.0675C14.0047 13.4838 12.437 13.0001 10.5024 13.0001C8.56777 13.0001 7.00006 13.4838 7.00006 14.0675M14.0047 14.0675V16.3523C14.0047 16.9361 12.437 17.4197 10.5024 17.4197C8.56777 17.4197 7.00006 16.9527 7.00006 16.3523V14.0675M20.298 13.7468L23.3515 6.61523M22.2575 14.2749L24.8818 8.36406M9.06708 21.4359L8.67761 25.0835M14.9876 21.0123L14.6861 24.4804M6.9683 24.028C6.90129 24.6479 7.42066 25.1672 8.04057 25.1337L16.3171 24.5976C17.1046 24.5306 17.8417 24.229 18.4617 23.7431L18.8302 23.4416C19.3329 23.0395 19.735 22.5201 20.003 21.9169L22.6334 15.8854C22.8345 15.4331 22.6334 14.8969 22.1643 14.6959L20.1538 13.8247C19.7015 13.6236 19.1821 13.8247 18.981 14.277L16.9705 18.7169C16.7695 19.1525 16.5014 19.5546 16.1496 19.8897C15.4627 20.5766 14.5579 20.9954 13.5862 21.0625L8.09083 21.364C7.60496 21.3975 7.20286 21.7829 7.1526 22.2688L6.9683 24.028Z" stroke="black" stroke-width="0.8" stroke-miterlimit="10" stroke-linecap="round" stroke-linejoin="round"/>
</svg>
