<svg width="32" height="32" viewBox="0 0 32 32" fill="none" xmlns="http://www.w3.org/2000/svg">
<path d="M11.452 17.6672C12.1192 16.332 12.9902 15.108 14.0465 14.0509C15.1029 12.9939 16.326 12.1223 17.6603 11.4546M13.4206 13.4245L14.7834 14.7882M11.6036 15.6974L13.2692 16.758M16.6005 13.273L15.5405 11.6062M7.96709 18.1686C9.45103 20.5475 11.4498 22.5477 13.8271 24.0326M18.1575 7.97088C20.5349 9.45583 22.5336 11.456 24.0176 13.8349M9.04213 24.1235C10.4504 24.4114 13.3577 24.669 16.7798 22.9719C19.46 21.6385 21.6405 19.4565 22.973 16.7745C24.669 13.3652 24.4115 10.4559 24.1238 9.03155C24.0027 8.4406 23.5484 7.98602 22.9579 7.8648C21.5345 7.59206 18.6272 7.33446 15.2202 9.03155C12.54 10.365 10.3595 12.5469 9.02699 15.229C7.33106 18.6383 7.58848 21.5476 7.87618 22.9719C7.99732 23.5477 8.45159 24.0023 9.04213 24.1235Z" stroke="black" stroke-width="0.8" stroke-miterlimit="10" stroke-linecap="round" stroke-linejoin="round"/>
</svg>
