<svg width="32" height="32" fill="none" xmlns="http://www.w3.org/2000/svg"><path d="M8.962 21.546a9.143 9.143 0 0 1-2.443-5.66 9.09 9.09 0 0 1 1.575-5.727m16.88 8.2a9.065 9.065 0 0 0 .507-3.628c-.218-3.424-2.308-6.298-5.236-7.731m-7.294 5.656v7.195a4.247 4.247 0 0 1-1.541 3.262c-.776.646-.308 1.887.711 1.887h10.686c.434 0 .847-.188 1.127-.513l.747-.869c.804-.936.123-2.365-1.128-2.365h-5.03c-.813 0-1.473-.644-1.473-1.44V7.298h-4.479c-1.09 0-1.663 1.265-.928 2.054a4.848 4.848 0 0 1 1.308 3.305Z" stroke="#000" stroke-linecap="round"/></svg>