<svg width="32" height="32" viewBox="0 0 32 32" fill="none" xmlns="http://www.w3.org/2000/svg">
<path d="M12.3038 15.5013L11.8066 15.4485C11.7933 15.5736 11.8276 15.699 11.9027 15.7999L12.3038 15.5013ZM15.031 18.5386L14.7041 18.9169C14.8231 19.0198 14.9837 19.0607 15.1375 19.0271L15.031 18.5386ZM18.9981 17.6739L19.1046 18.1624C19.2429 18.1322 19.362 18.0448 19.4322 17.9219L18.9981 17.6739ZM12.8608 7.15556C13.0396 6.94513 13.014 6.62959 12.8036 6.45078C12.5931 6.27197 12.2776 6.2976 12.0988 6.50803L12.8608 7.15556ZM7.98235 12.688L7.52403 12.4882C7.50101 12.541 7.48728 12.5973 7.48346 12.6548L7.98235 12.688ZM8.79343 16.071L8.34781 16.2978C8.44646 16.4916 8.65909 16.5995 8.87376 16.5645L8.79343 16.071ZM12.3841 15.9932C12.6567 15.9488 12.8416 15.6919 12.7973 15.4193C12.7529 15.1468 12.496 14.9618 12.2234 15.0061L12.3841 15.9932ZM9.22896 16.3183C9.36459 16.0777 9.27955 15.7728 9.03901 15.6372C8.79847 15.5015 8.49353 15.5866 8.35789 15.8271L9.22896 16.3183ZM8.08402 19.4107L7.59174 19.4982C7.59718 19.5288 7.60546 19.5588 7.61647 19.5879L8.08402 19.4107ZM10.6843 22.5147L10.4667 22.9649C10.5251 22.9931 10.5883 23.0096 10.653 23.0137L10.6843 22.5147ZM14.1433 21.9383L14.3197 22.4061C14.4815 22.3451 14.6002 22.2049 14.6338 22.0353L14.1433 21.9383ZM15.4824 18.751C15.6 18.5012 15.4929 18.2033 15.2431 18.0856C14.9933 17.9679 14.6954 18.0751 14.5777 18.3249L15.4824 18.751ZM6.28812 11.9296C6.01306 11.954 5.8098 12.1967 5.83413 12.4717C5.85847 12.7468 6.10118 12.9501 6.37625 12.9257L6.28812 11.9296ZM7.91591 13.0041C8.18986 13.0387 8.44005 12.8448 8.47472 12.5708C8.50939 12.2968 8.31541 12.0466 8.04145 12.012L7.91591 13.0041ZM6.18285 18.9229C5.90736 18.9418 5.6994 19.1805 5.71836 19.456C5.73731 19.7315 5.97601 19.9395 6.2515 19.9205L6.18285 18.9229ZM8.06835 19.7955C8.34384 19.7766 8.5518 19.5379 8.53284 19.2624C8.51389 18.9869 8.27519 18.7789 7.9997 18.7979L8.06835 19.7955ZM11.1622 22.6648C11.2451 22.4014 11.0988 22.1206 10.8354 22.0377C10.572 21.9548 10.2912 22.1012 10.2083 22.3646L11.1622 22.6648ZM10.0957 24.5885C10.1364 24.8616 10.3908 25.0501 10.6639 25.0094C10.9371 24.9687 11.1255 24.7143 11.0848 24.4412L10.0957 24.5885ZM14.4196 21.5209C14.1891 21.3689 13.8789 21.4325 13.7269 21.663C13.5749 21.8935 13.6385 22.2036 13.869 22.3557L14.4196 21.5209ZM19.4056 17.3811C19.2441 17.1571 18.9316 17.1065 18.7076 17.268C18.4837 17.4295 18.433 17.742 18.5946 17.966L19.4056 17.3811ZM24.3136 16.3807L24.8088 16.4496C24.8152 16.4043 24.8152 16.3584 24.809 16.313L24.3136 16.3807ZM23.1016 19.4277C22.9612 19.19 22.6546 19.1111 22.4168 19.2516C22.1791 19.392 22.1002 19.6986 22.2406 19.9364L23.1016 19.4277ZM22.4007 21.901C22.349 22.1723 22.527 22.4341 22.7982 22.4858C23.0695 22.5375 23.3313 22.3595 23.383 22.0882L22.4007 21.901ZM16.7689 25.4049C16.7057 25.6737 16.8724 25.9429 17.1412 26.006C17.41 26.0692 17.6792 25.9025 17.7423 25.6337L16.7689 25.4049ZM16.5658 7.01258C16.8392 7.05128 17.0922 6.86101 17.1309 6.58759C17.1696 6.31417 16.9794 6.06115 16.7059 6.02245L16.5658 7.01258ZM24.2059 14.7117C24.0943 14.4591 23.7991 14.3449 23.5465 14.4565C23.2939 14.5681 23.1797 14.8634 23.2913 15.116L24.2059 14.7117ZM25.3247 14.6617C25.2866 14.3881 25.034 14.1973 24.7605 14.2353C24.487 14.2734 24.2962 14.526 24.3342 14.7995L25.3247 14.6617ZM16.7062 11.4312C16.9796 11.3924 17.1697 11.1393 17.1309 10.8659C17.092 10.5925 16.8389 10.4023 16.5655 10.4412L16.7062 11.4312ZM20.513 14.8192C20.5619 14.5474 20.3813 14.2874 20.1095 14.2385C19.8377 14.1895 19.5777 14.3702 19.5288 14.642L20.513 14.8192ZM26.3805 7.93488V8.43488C26.6566 8.43488 26.8805 8.21103 26.8805 7.93488H26.3805ZM26.6292 10.1499C26.8017 9.93428 26.7668 9.61964 26.5511 9.44713C26.3355 9.27463 26.0208 9.30959 25.8483 9.52522L26.6292 10.1499ZM24.422 16.0727C24.422 21.1266 20.325 25.2237 15.2711 25.2237V26.2237C20.8773 26.2237 25.422 21.6789 25.422 16.0727H24.422ZM15.2711 25.2237C10.2171 25.2237 6.12012 21.1266 6.12012 16.0727H5.12012C5.12012 21.6789 9.66485 26.2237 15.2711 26.2237V25.2237ZM6.12012 16.0727C6.12012 11.0188 10.2171 6.92175 15.2711 6.92175V5.92175C9.66485 5.92175 5.12012 10.4665 5.12012 16.0727H6.12012ZM13.4789 11.7319C13.0216 11.5297 13.0216 11.5298 13.0216 11.5298C13.0215 11.5299 13.0215 11.5299 13.0215 11.53C13.0214 11.5301 13.0214 11.5303 13.0213 11.5305C13.0211 11.5308 13.0209 11.5314 13.0206 11.532C13.02 11.5334 13.0192 11.5353 13.0181 11.5377C13.016 11.5425 13.0129 11.5496 13.0089 11.5586C13.001 11.5768 12.9896 11.6033 12.975 11.6373C12.946 11.7052 12.9046 11.8033 12.8545 11.9254C12.7545 12.1693 12.6195 12.51 12.4793 12.8979C12.2036 13.6613 11.8911 14.6523 11.8066 15.4485L12.801 15.5541C12.8718 14.8869 13.1469 13.9932 13.4198 13.2377C13.5541 12.8662 13.6837 12.539 13.7797 12.3048C13.8277 12.1878 13.8672 12.0944 13.8945 12.0305C13.9081 11.9986 13.9187 11.9741 13.9258 11.9578C13.9294 11.9496 13.9321 11.9435 13.9338 11.9395C13.9347 11.9375 13.9353 11.9361 13.9357 11.9352C13.9359 11.9348 13.936 11.9344 13.9361 11.9343C13.9362 11.9342 13.9362 11.9341 13.9362 11.9341C13.9362 11.9341 13.9362 11.9341 13.9362 11.9341C13.9362 11.9341 13.9362 11.9342 13.4789 11.7319ZM12.3038 15.5013C11.9027 15.7999 11.9027 15.7999 11.9028 15.8C11.9028 15.8 11.9028 15.8 11.9028 15.8001C11.9029 15.8002 11.903 15.8003 11.9031 15.8005C11.9034 15.8008 11.9037 15.8012 11.9041 15.8018C11.9049 15.8028 11.9061 15.8044 11.9075 15.8064C11.9105 15.8104 11.9149 15.8161 11.9205 15.8236C11.9317 15.8386 11.9482 15.8603 11.9694 15.8883C12.012 15.9441 12.0738 16.0247 12.152 16.1248C12.3082 16.3247 12.5302 16.6029 12.7938 16.9172C13.3172 17.5414 14.0194 18.325 14.7041 18.9169L15.358 18.1604C14.7346 17.6214 14.0731 16.8864 13.56 16.2746C13.3052 15.9709 13.0906 15.7019 12.9399 15.509C12.8646 15.4126 12.8054 15.3354 12.7652 15.2826C12.7451 15.2562 12.7298 15.2359 12.7196 15.2224C12.7145 15.2156 12.7107 15.2106 12.7082 15.2073C12.707 15.2056 12.7061 15.2044 12.7055 15.2037C12.7052 15.2033 12.705 15.203 12.7049 15.2029C12.7049 15.2028 12.7048 15.2027 12.7048 15.2027C12.7048 15.2027 12.7048 15.2027 12.7048 15.2027C12.7048 15.2027 12.7049 15.2028 12.3038 15.5013ZM15.1375 19.0271L19.1046 18.1624L18.8916 17.1853L14.9245 18.0501L15.1375 19.0271ZM12.4798 6.8318C12.0988 6.50803 12.0987 6.50811 12.0986 6.5082C12.0986 6.50823 12.0985 6.50833 12.0985 6.5084C12.0983 6.50855 12.0982 6.50872 12.098 6.50891C12.0977 6.5093 12.0973 6.50978 12.0968 6.51036C12.0958 6.51151 12.0945 6.51304 12.0929 6.51493C12.0898 6.51873 12.0854 6.524 12.0798 6.53071C12.0687 6.54412 12.053 6.56328 12.0333 6.58786C11.9937 6.637 11.938 6.70787 11.8703 6.79775C11.7353 6.97726 11.552 7.23392 11.3566 7.5457C10.97 8.16279 10.5177 9.02449 10.3152 9.9473L11.292 10.1616C11.4593 9.39923 11.845 8.64961 12.204 8.07667C12.3815 7.79343 12.548 7.56039 12.6694 7.39897C12.7301 7.31838 12.7792 7.25597 12.8126 7.21444C12.8293 7.19369 12.842 7.17818 12.8502 7.16824C12.8543 7.16328 12.8573 7.15971 12.8591 7.15758C12.86 7.15652 12.8606 7.15582 12.8609 7.15548C12.861 7.15531 12.8611 7.15523 12.8611 7.15524C12.8611 7.15525 12.861 7.15528 12.861 7.15533C12.861 7.15536 12.8609 7.15542 12.8609 7.15543C12.8609 7.15549 12.8608 7.15556 12.4798 6.8318ZM10.8036 10.0544C10.6497 10.5302 10.6496 10.5301 10.6495 10.5301C10.6495 10.5301 10.6494 10.5301 10.6494 10.5301C10.6493 10.53 10.6492 10.53 10.6491 10.53C10.649 10.5299 10.649 10.5299 10.649 10.5299C10.6491 10.53 10.6496 10.5301 10.6504 10.5304C10.6521 10.531 10.6551 10.532 10.6595 10.5335C10.6682 10.5364 10.6824 10.5413 10.7014 10.5482C10.7394 10.5619 10.797 10.5834 10.8706 10.613C11.0179 10.6724 11.2283 10.7641 11.4736 10.8911C11.9673 11.1466 12.5872 11.5371 13.122 12.0821L13.8358 11.3818C13.2031 10.737 12.4854 10.2888 11.9333 10.003C11.6558 9.85932 11.4162 9.75473 11.2443 9.68548C11.1583 9.65081 11.089 9.62489 11.04 9.60727C11.0155 9.59845 10.9961 9.5917 10.9822 9.58696C10.9753 9.58459 10.9697 9.58273 10.9655 9.58135C10.9635 9.58067 10.9618 9.5801 10.9604 9.57967C10.9598 9.57944 10.9592 9.57926 10.9587 9.5791C10.9584 9.57902 10.9582 9.57895 10.958 9.57888C10.9579 9.57885 10.9578 9.57881 10.9577 9.57879C10.9576 9.57875 10.9575 9.57871 10.8036 10.0544ZM10.8036 10.0544C10.5708 9.61195 10.5707 9.612 10.5706 9.61205C10.5706 9.61208 10.5705 9.61214 10.5704 9.61219C10.5702 9.61229 10.57 9.6124 10.5697 9.61254C10.5692 9.6128 10.5686 9.61314 10.5678 9.61355C10.5663 9.61436 10.5642 9.61545 10.5616 9.61682C10.5565 9.61956 10.5494 9.62341 10.5403 9.62834C10.5222 9.6382 10.4963 9.65241 10.4637 9.67076C10.3986 9.70745 10.3062 9.76084 10.1938 9.82938C9.96967 9.96615 9.6636 10.1648 9.33527 10.4132C8.69525 10.8972 7.90265 11.6199 7.52403 12.4882L8.44067 12.8879C8.71245 12.2647 9.33049 11.6706 9.9385 11.2107C10.2342 10.9871 10.5115 10.807 10.7147 10.683C10.816 10.6212 10.8983 10.5737 10.9544 10.5421C10.9824 10.5263 11.0039 10.5145 11.0179 10.5069C11.0249 10.5031 11.03 10.5004 11.0331 10.4987C11.0347 10.4979 11.0357 10.4973 11.0363 10.497C11.0366 10.4969 11.0367 10.4968 11.0367 10.4968C11.0368 10.4968 11.0367 10.4968 11.0367 10.4968C11.0367 10.4968 11.0366 10.4969 11.0366 10.4969C11.0365 10.4969 11.0364 10.4969 10.8036 10.0544ZM7.98235 12.688C7.48346 12.6548 7.48344 12.655 7.48343 12.6552C7.48343 12.6552 7.48342 12.6554 7.48341 12.6555C7.48339 12.6558 7.48337 12.6561 7.48335 12.6564C7.48331 12.657 7.48327 12.6577 7.48322 12.6585C7.48312 12.6602 7.483 12.6622 7.48286 12.6646C7.4826 12.6694 7.48226 12.6757 7.48191 12.6835C7.4812 12.6991 7.48038 12.7207 7.47975 12.7479C7.47848 12.8023 7.47793 12.8792 7.48037 12.976C7.48524 13.1694 7.50206 13.4429 7.54921 13.7746C7.64338 14.4371 7.85945 15.3381 8.34781 16.2978L9.23905 15.8443C8.81099 15.0031 8.62152 14.2126 8.53926 13.6339C8.49819 13.3449 8.48407 13.1103 8.48005 12.9508C8.47805 12.8711 8.47857 12.8104 8.47948 12.7712C8.47994 12.7516 8.48049 12.7374 8.48087 12.729C8.48107 12.7248 8.48122 12.722 8.48129 12.7207C8.48133 12.72 8.48134 12.7198 8.48134 12.7198C8.48133 12.7199 8.48133 12.72 8.48131 12.7203C8.4813 12.7204 8.48129 12.7205 8.48128 12.7207C8.48128 12.7208 8.48127 12.7209 8.48127 12.721C8.48126 12.7211 8.48125 12.7213 7.98235 12.688ZM8.87376 16.5645L12.3841 15.9932L12.2234 15.0061L8.7131 15.5775L8.87376 16.5645ZM8.79343 16.0727C8.35789 15.8271 8.35783 15.8272 8.35776 15.8274C8.35773 15.8274 8.35766 15.8275 8.35761 15.8276C8.35749 15.8278 8.35737 15.8281 8.35723 15.8283C8.35694 15.8288 8.3566 15.8294 8.3562 15.8301C8.3554 15.8316 8.35436 15.8335 8.35309 15.8357C8.35056 15.8403 8.34712 15.8466 8.34284 15.8545C8.33428 15.8703 8.32236 15.8926 8.30764 15.9209C8.27822 15.9776 8.23751 16.0587 8.19005 16.1603C8.09535 16.363 7.97261 16.65 7.85905 16.9904C7.6358 17.6595 7.42991 18.5875 7.59174 19.4982L8.57631 19.3232C8.45711 18.6524 8.60593 17.9114 8.80764 17.3069C8.90655 17.0104 9.01385 16.7595 9.09608 16.5835C9.13708 16.4957 9.17156 16.4272 9.1952 16.3816C9.20701 16.3589 9.2161 16.3419 9.22191 16.3312C9.22482 16.3258 9.2269 16.322 9.2281 16.3198C9.2287 16.3188 9.22908 16.3181 9.22922 16.3178C9.2293 16.3177 9.22931 16.3177 9.22927 16.3177C9.22925 16.3178 9.22921 16.3178 9.22916 16.3179C9.22913 16.318 9.22908 16.3181 9.22907 16.3181C9.22902 16.3182 9.22896 16.3183 8.79343 16.0727ZM8.08402 19.4107C7.61647 19.5879 7.61652 19.588 7.61658 19.5882C7.6166 19.5882 7.61666 19.5884 7.6167 19.5885C7.61679 19.5887 7.6169 19.589 7.61702 19.5893C7.61725 19.5899 7.61754 19.5907 7.61788 19.5916C7.61856 19.5933 7.61945 19.5957 7.62056 19.5985C7.62278 19.6042 7.62586 19.612 7.62979 19.6219C7.63766 19.6416 7.64896 19.6693 7.66372 19.7042C7.69323 19.774 7.73663 19.8726 7.79403 19.9928C7.90857 20.2325 8.08022 20.5608 8.31016 20.9176C8.76322 21.6207 9.47476 22.4855 10.4667 22.9649L10.9018 22.0645C10.1506 21.7014 9.56204 21.0142 9.15076 20.376C8.94854 20.0621 8.79697 19.7723 8.69633 19.5617C8.64614 19.4566 8.60896 19.372 8.58479 19.3148C8.57271 19.2862 8.5639 19.2646 8.55836 19.2507C8.55559 19.2438 8.55364 19.2388 8.55251 19.2359C8.55194 19.2345 8.55158 19.2335 8.55143 19.2331C8.55135 19.2329 8.55132 19.2328 8.55135 19.2329C8.55136 19.2329 8.55138 19.233 8.55142 19.2331C8.55144 19.2332 8.55148 19.2333 8.55149 19.2333C8.55153 19.2334 8.55157 19.2335 8.08402 19.4107ZM10.6843 22.5147C10.653 23.0137 10.6532 23.0137 10.6533 23.0137C10.6533 23.0137 10.6535 23.0137 10.6536 23.0137C10.6538 23.0137 10.654 23.0138 10.6543 23.0138C10.6548 23.0138 10.6554 23.0138 10.6561 23.0139C10.6575 23.014 10.6594 23.0141 10.6616 23.0142C10.6661 23.0144 10.6721 23.0148 10.6797 23.0151C10.6949 23.0158 10.7163 23.0167 10.7435 23.0176C10.7979 23.0192 10.8756 23.0207 10.9736 23.0202C11.1695 23.0193 11.4475 23.0104 11.7835 22.9794C12.4536 22.9174 13.3648 22.7662 14.3197 22.4061L13.9669 21.4704C13.1183 21.7904 12.3 21.9274 11.6915 21.9836C11.3881 22.0117 11.1395 22.0194 10.9687 22.0203C10.8833 22.0207 10.8176 22.0194 10.7744 22.018C10.7528 22.0174 10.7368 22.0167 10.7269 22.0162C10.7219 22.016 10.7185 22.0158 10.7166 22.0157C10.7156 22.0156 10.715 22.0156 10.7149 22.0156C10.7148 22.0156 10.7148 22.0156 10.7149 22.0156C10.715 22.0156 10.715 22.0156 10.7151 22.0156C10.7152 22.0156 10.7153 22.0156 10.7153 22.0156C10.7154 22.0156 10.7155 22.0156 10.6843 22.5147ZM14.1433 21.9383C14.6338 22.0353 14.6338 22.0353 14.6338 22.0353C14.6338 22.0353 14.6338 22.0353 14.6338 22.0352C14.6338 22.0352 14.6338 22.0351 14.6339 22.035C14.6339 22.0347 14.634 22.0343 14.6341 22.0337C14.6343 22.0325 14.6347 22.0308 14.6352 22.0284C14.6361 22.0236 14.6375 22.0164 14.6394 22.007C14.6432 21.9881 14.6489 21.9601 14.6562 21.924C14.6709 21.852 14.6923 21.7478 14.7192 21.6204C14.7729 21.3652 14.8484 21.0173 14.9351 20.6458C15.1142 19.8783 15.3249 19.0853 15.4824 18.751L14.5777 18.3249C14.3658 18.7746 14.1332 19.6818 13.9612 20.4185C13.8724 20.799 13.7954 21.1542 13.7406 21.4141C13.7132 21.5442 13.6914 21.6506 13.6763 21.7246C13.6687 21.7617 13.6629 21.7906 13.6589 21.8104C13.657 21.8203 13.6554 21.8279 13.6544 21.8331C13.6539 21.8357 13.6535 21.8377 13.6532 21.8391C13.6531 21.8398 13.653 21.8403 13.6529 21.8407C13.6529 21.8408 13.6528 21.841 13.6528 21.8411C13.6528 21.8411 13.6528 21.8412 13.6528 21.8412C13.6528 21.8413 13.6528 21.8413 14.1433 21.9383ZM6.33219 12.4277C6.37625 12.9257 6.37616 12.9257 6.37607 12.9258C6.37605 12.9258 6.37596 12.9258 6.37591 12.9258C6.37581 12.9258 6.37571 12.9258 6.37563 12.9258C6.37545 12.9258 6.37532 12.9258 6.37522 12.9258C6.37502 12.9258 6.37496 12.9259 6.37505 12.9258C6.37522 12.9258 6.37596 12.9258 6.37728 12.9257C6.37991 12.9255 6.38481 12.9251 6.39195 12.9246C6.40624 12.9237 6.42948 12.9224 6.46142 12.9211C6.52529 12.9186 6.6239 12.9163 6.7551 12.9179C7.01749 12.9212 7.41018 12.9401 7.91591 13.0041L8.04145 12.012C7.49607 11.943 7.06551 11.9217 6.76744 11.918C6.6184 11.9162 6.50247 11.9187 6.42186 11.9219C6.38155 11.9235 6.35007 11.9253 6.32769 11.9267C6.3165 11.9274 6.30759 11.9281 6.30098 11.9286C6.29768 11.9288 6.29495 11.9291 6.29281 11.9292C6.29174 11.9293 6.29081 11.9294 6.29003 11.9295C6.28964 11.9295 6.28928 11.9295 6.28897 11.9296C6.28881 11.9296 6.28866 11.9296 6.28852 11.9296C6.28845 11.9296 6.28835 11.9296 6.28831 11.9296C6.28822 11.9296 6.28812 11.9296 6.33219 12.4277ZM6.2515 19.9205L8.06835 19.7955L7.9997 18.7979L6.18285 18.9229L6.2515 19.9205ZM10.6853 22.5147C10.2083 22.3646 10.2083 22.3647 10.2083 22.3648C10.2082 22.3649 10.2082 22.365 10.2082 22.3651C10.2081 22.3653 10.208 22.3656 10.208 22.3658C10.2078 22.3663 10.2077 22.3668 10.2075 22.3673C10.2071 22.3685 10.2067 22.3698 10.2062 22.3714C10.2053 22.3745 10.2041 22.3784 10.2027 22.3832C10.1999 22.3927 10.1962 22.4054 10.1919 22.4214C10.1832 22.4532 10.1717 22.4976 10.1589 22.5535C10.1333 22.6652 10.1023 22.8234 10.0774 23.0195C10.0277 23.4108 10.0018 23.9578 10.0957 24.5885L11.0848 24.4412C11.0071 23.9191 11.0287 23.4661 11.0694 23.1455C11.0897 22.9856 11.1146 22.8599 11.1337 22.7767C11.1432 22.7352 11.1512 22.7043 11.1564 22.6853C11.159 22.6758 11.1609 22.6692 11.162 22.6658C11.1625 22.664 11.1628 22.6631 11.1628 22.6629C11.1628 22.6628 11.1628 22.6629 11.1627 22.6632C11.1627 22.6634 11.1626 22.6636 11.1625 22.6639C11.1625 22.664 11.1624 22.6641 11.1624 22.6643C11.1624 22.6643 11.1623 22.6645 11.1623 22.6645C11.1623 22.6646 11.1622 22.6648 10.6853 22.5147ZM14.1443 21.9383C13.869 22.3557 13.8691 22.3557 13.8691 22.3558C13.8692 22.3558 13.8692 22.3558 13.8693 22.3559C13.8694 22.3559 13.8696 22.3561 13.8698 22.3562C13.8701 22.3564 13.8706 22.3568 13.8713 22.3572C13.8725 22.358 13.8743 22.3591 13.8765 22.3606C13.8809 22.3635 13.8873 22.3676 13.8955 22.3729C13.9118 22.3835 13.9355 22.3988 13.9658 22.4181C14.0264 22.4567 14.1136 22.5114 14.2217 22.5771C14.4375 22.7083 14.7384 22.8845 15.0784 23.064C15.7317 23.409 16.6217 23.8175 17.3294 23.8704L17.4038 22.8731C16.9287 22.8377 16.2076 22.5295 15.5454 22.1798C15.2277 22.012 14.9448 21.8464 14.7412 21.7226C14.6396 21.6608 14.5582 21.6097 14.5026 21.5744C14.4749 21.5567 14.4536 21.543 14.4395 21.5339C14.4325 21.5293 14.4272 21.5259 14.4239 21.5237C14.4222 21.5226 14.421 21.5218 14.4203 21.5213C14.4199 21.5211 14.4197 21.521 14.4196 21.5209C14.4195 21.5208 14.4195 21.5208 14.4195 21.5208C14.4195 21.5208 14.4195 21.5208 14.4195 21.5208C14.4195 21.5209 14.4196 21.5209 14.1443 21.9383ZM17.3666 23.3718C17.5653 23.8306 17.5654 23.8305 17.5656 23.8305C17.5656 23.8304 17.5657 23.8304 17.5658 23.8303C17.5661 23.8303 17.5663 23.8301 17.5666 23.83C17.5671 23.8298 17.5678 23.8295 17.5687 23.8291C17.5703 23.8284 17.5726 23.8274 17.5754 23.8262C17.5809 23.8237 17.5886 23.8203 17.5984 23.8159C17.6179 23.8071 17.6457 23.7944 17.6807 23.7779C17.7507 23.7449 17.8498 23.6967 17.9702 23.6342C18.2105 23.5095 18.5385 23.326 18.89 23.0907C19.5747 22.6322 20.4257 21.9267 20.8249 21.0151L19.9089 20.6139C19.6284 21.2545 18.9792 21.8275 18.3337 22.2597C18.0201 22.4696 17.7255 22.6345 17.5094 22.7467C17.4016 22.8027 17.3142 22.8451 17.2546 22.8732C17.2248 22.8872 17.202 22.8976 17.1873 22.9043C17.1799 22.9076 17.1745 22.91 17.1712 22.9115C17.1696 22.9122 17.1685 22.9127 17.1679 22.9129C17.1676 22.9131 17.1675 22.9131 17.1675 22.9131C17.1675 22.9131 17.1675 22.9131 17.1676 22.9131C17.1676 22.9131 17.1677 22.913 17.1677 22.913C17.1678 22.913 17.1679 22.9129 17.3666 23.3718ZM20.3669 20.8145C20.8419 20.6582 20.8418 20.6582 20.8418 20.6581C20.8418 20.6581 20.8418 20.6581 20.8418 20.658C20.8417 20.6579 20.8417 20.6578 20.8416 20.6576C20.8415 20.6572 20.8414 20.6567 20.8411 20.6561C20.8407 20.6548 20.8401 20.653 20.8393 20.6506C20.8378 20.6459 20.8355 20.6391 20.8326 20.6303C20.8267 20.6125 20.818 20.5868 20.8068 20.5538C20.7845 20.4879 20.752 20.3933 20.7112 20.2773C20.6297 20.0455 20.5143 19.7271 20.3792 19.381C20.1168 18.7089 19.7548 17.8652 19.4056 17.3811L18.5946 17.966C18.8585 18.332 19.1799 19.0587 19.4476 19.7446C19.5776 20.0775 19.689 20.3849 19.7679 20.6092C19.8073 20.7213 19.8385 20.8123 19.8598 20.875C19.8704 20.9063 19.8786 20.9306 19.884 20.9469C19.8867 20.955 19.8888 20.9612 19.8901 20.9652C19.8908 20.9672 19.8913 20.9687 19.8916 20.9696C19.8917 20.9701 19.8918 20.9704 19.8919 20.9706C19.8919 20.9707 19.8919 20.9708 19.892 20.9708C19.892 20.9708 19.892 20.9708 19.892 20.9708C19.892 20.9708 19.8919 20.9708 20.3669 20.8145ZM24.3136 16.3807C23.8184 16.3118 23.8184 16.3116 23.8184 16.3115C23.8184 16.3114 23.8185 16.3113 23.8185 16.3112C23.8185 16.3111 23.8185 16.311 23.8185 16.3109C23.8185 16.3109 23.8185 16.311 23.8184 16.3114C23.8183 16.3122 23.8181 16.3139 23.8177 16.3165C23.8169 16.3217 23.8155 16.3305 23.8135 16.3425C23.8095 16.3667 23.8028 16.4041 23.7931 16.453C23.7736 16.551 23.7417 16.6944 23.6932 16.8693C23.5958 17.2205 23.4335 17.691 23.1747 18.1727C22.6571 19.1361 21.7828 20.1 20.2939 20.3199L20.4399 21.3091C22.3507 21.027 23.4497 19.7739 24.0556 18.646C24.3585 18.082 24.5454 17.5382 24.6568 17.1365C24.7127 16.935 24.7502 16.7673 24.7738 16.6483C24.7857 16.5887 24.7942 16.5412 24.7998 16.5075C24.8026 16.4906 24.8047 16.4773 24.8062 16.4675C24.807 16.4627 24.8075 16.4587 24.808 16.4557C24.8082 16.4543 24.8084 16.453 24.8085 16.452C24.8086 16.4515 24.8087 16.451 24.8087 16.4506C24.8087 16.4504 24.8088 16.4502 24.8088 16.4501C24.8088 16.4499 24.8088 16.4496 24.3136 16.3807ZM22.6711 19.6821C22.2406 19.9364 22.2405 19.9362 22.2404 19.936C22.2404 19.9359 22.2402 19.9357 22.2402 19.9356C22.24 19.9353 22.2399 19.9351 22.2397 19.9348C22.2395 19.9344 22.2392 19.934 22.239 19.9336C22.2386 19.9329 22.2383 19.9323 22.2381 19.932C22.2377 19.9313 22.2378 19.9314 22.2382 19.9323C22.2392 19.934 22.2418 19.9388 22.2457 19.9466C22.2536 19.9622 22.2669 19.9899 22.2832 20.0292C22.3159 20.1077 22.3606 20.2323 22.3988 20.3998C22.4748 20.7332 22.5263 21.2414 22.4007 21.901L23.383 22.0882C23.5366 21.2817 23.4778 20.6337 23.3737 20.1773C23.3218 19.9499 23.259 19.7713 23.2066 19.6453C23.1804 19.5823 23.1568 19.5324 23.1384 19.496C23.1293 19.4778 23.1214 19.463 23.1151 19.4516C23.112 19.4459 23.1093 19.4411 23.107 19.4371C23.1059 19.4351 23.1049 19.4333 23.104 19.4318C23.1035 19.431 23.1031 19.4303 23.1027 19.4296C23.1025 19.4292 23.1023 19.4289 23.1021 19.4286C23.102 19.4285 23.1019 19.4282 23.1019 19.4282C23.1017 19.4279 23.1016 19.4277 22.6711 19.6821ZM17.3666 23.3718C16.8668 23.3867 16.8668 23.3866 16.8668 23.3866C16.8668 23.3866 16.8668 23.3866 16.8668 23.3866C16.8668 23.3866 16.8668 23.3867 16.8668 23.3867C16.8668 23.3868 16.8668 23.387 16.8668 23.3873C16.8669 23.3878 16.8669 23.3887 16.8669 23.39C16.867 23.3925 16.8671 23.3964 16.8672 23.4016C16.8675 23.412 16.8679 23.4275 16.8683 23.4478C16.8692 23.4882 16.8703 23.5472 16.8711 23.6201C16.8728 23.7663 16.8735 23.9676 16.8694 24.1885C16.861 24.6472 16.8327 25.1334 16.7689 25.4049L17.7423 25.6337C17.8339 25.2442 17.861 24.6565 17.8693 24.2068C17.8736 23.9734 17.8728 23.7618 17.8711 23.6086C17.8702 23.5319 17.869 23.4695 17.8681 23.4261C17.8676 23.4044 17.8672 23.3874 17.8669 23.3756C17.8667 23.3698 17.8666 23.3652 17.8665 23.3621C17.8665 23.3605 17.8665 23.3593 17.8664 23.3584C17.8664 23.358 17.8664 23.3576 17.8664 23.3574C17.8664 23.3572 17.8664 23.3571 17.8664 23.357C17.8664 23.357 17.8664 23.3569 17.8664 23.3569C17.8664 23.3569 17.8664 23.3568 17.3666 23.3718ZM15.2711 6.92175C15.7108 6.92175 16.1431 6.95274 16.5658 7.01258L16.7059 6.02245C16.2369 5.95606 15.7579 5.92175 15.2711 5.92175V6.92175ZM23.2913 15.116C23.5363 15.6704 23.742 15.8909 23.8182 16.4484L24.809 16.313C24.7075 15.5701 24.3589 15.0579 24.2059 14.7117L23.2913 15.116ZM24.3342 14.7995C24.3921 15.2153 24.422 15.6404 24.422 16.0727H25.422C25.422 15.5941 25.3889 15.1231 25.3247 14.6617L24.3342 14.7995ZM16.5655 10.4412C15.796 10.5505 14.6028 10.7816 13.3049 11.2632L13.6528 12.2007C14.865 11.7509 15.9846 11.5338 16.7062 11.4312L16.5655 10.4412ZM18.9981 17.6739C19.4322 17.9219 19.4323 17.9218 19.4323 17.9217C19.4324 17.9217 19.4324 17.9216 19.4325 17.9215C19.4325 17.9214 19.4326 17.9212 19.4327 17.921C19.433 17.9206 19.4332 17.9202 19.4335 17.9196C19.4341 17.9186 19.4349 17.9172 19.4358 17.9155C19.4377 17.9122 19.4403 17.9076 19.4435 17.9018C19.4499 17.8903 19.4588 17.874 19.4701 17.8531C19.4925 17.8113 19.5241 17.7512 19.5625 17.6744C19.6393 17.5209 19.7437 17.3 19.8577 17.0251C20.085 16.4768 20.3533 15.7057 20.513 14.8192L19.5288 14.642C19.3852 15.4393 19.1422 16.1398 18.9339 16.6422C18.8301 16.8926 18.7357 17.0919 18.6681 17.2271C18.6343 17.2947 18.6073 17.3461 18.5892 17.3798C18.5801 17.3967 18.5733 17.409 18.569 17.4168C18.5669 17.4206 18.5653 17.4234 18.5645 17.4249C18.5641 17.4256 18.5638 17.4261 18.5637 17.4262C18.5637 17.4263 18.5637 17.4263 18.5637 17.4263C18.5637 17.4262 18.5638 17.4262 18.5638 17.4261C18.5638 17.4261 18.5639 17.426 18.5639 17.426C18.5639 17.4259 18.564 17.4258 18.9981 17.6739ZM23.3791 10.6474C22.5891 10.6474 21.9883 10.3672 21.5809 9.91599C21.1683 9.45913 20.916 8.78385 20.916 7.93488H19.916C19.916 8.97912 20.2282 9.91009 20.8387 10.5862C21.4543 11.2679 22.3351 11.6474 23.3791 11.6474V10.6474ZM20.916 7.93488C20.916 7.08612 21.1682 6.41717 21.5793 5.96615C21.9857 5.52034 22.5865 5.24365 23.3791 5.24365V4.24365C22.3377 4.24365 21.457 4.61598 20.8403 5.29248C20.2284 5.96378 19.916 6.89045 19.916 7.93488H20.916ZM23.3791 5.24365C24.1725 5.24365 24.7847 5.52098 25.2012 5.96954C25.6213 6.42201 25.8805 7.09048 25.8805 7.93488H26.8805C26.8805 6.88609 26.556 5.95894 25.934 5.28909C25.3084 4.61534 24.4199 4.24365 23.3791 4.24365V5.24365ZM25.8483 9.52522C25.4501 10.0231 25.0494 10.2946 24.6569 10.4475C24.2579 10.6028 23.8373 10.6474 23.3791 10.6474V11.6474C23.8971 11.6474 24.4574 11.5983 25.0197 11.3793C25.5885 11.1578 26.1296 10.7745 26.6292 10.1499L25.8483 9.52522ZM26.3805 7.43488H20.416V8.43488H26.3805V7.43488Z" fill="black"/>
</svg>
