<svg width="32" height="32" viewBox="0 0 32 32" fill="none" xmlns="http://www.w3.org/2000/svg">
<path d="M10.2623 8.66267C10.0884 8.79887 10.0578 9.05028 10.194 9.22421C10.3302 9.39815 10.5816 9.42874 10.7555 9.29254L10.2623 8.66267ZM21.2447 9.29254C21.4187 9.42874 21.6701 9.39815 21.8063 9.22421C21.9425 9.05028 21.9119 8.79887 21.738 8.66267L21.2447 9.29254ZM8.96771 11.1991C9.09244 11.0167 9.04574 10.7678 8.86341 10.6431C8.68107 10.5184 8.43215 10.5651 8.30742 10.7474L8.96771 11.1991ZM23.6928 10.7474C23.5681 10.5651 23.3192 10.5184 23.1369 10.6431C22.9545 10.7678 22.9078 11.0167 23.0325 11.1991L23.6928 10.7474ZM9.85196 22.0375C9.69803 22.196 9.70169 22.4492 9.86015 22.6032C10.0186 22.7571 10.2718 22.7534 10.4258 22.595L9.85196 22.0375ZM14.7759 17.5431L15.0628 17.8219L14.7759 17.5431ZM15.7414 12.0521C15.7414 11.8312 15.5623 11.6521 15.3414 11.6521C15.1204 11.6521 14.9414 11.8312 14.9414 12.0521H15.7414ZM21.8992 22.5927C22.0519 22.7524 22.3051 22.758 22.4648 22.6054C22.6244 22.4527 22.6301 22.1995 22.4774 22.0398L21.8992 22.5927ZM17.6217 17.5409L17.3327 17.8174H17.3327L17.6217 17.5409ZM17.4672 12.0521C17.4672 11.8312 17.2881 11.6521 17.0672 11.6521C16.8463 11.6521 16.6672 11.8312 16.6672 12.0521H17.4672ZM24.5142 16C24.5142 20.7022 20.7023 24.5141 16.0001 24.5141V25.3141C21.1441 25.3141 25.3142 21.144 25.3142 16H24.5142ZM16.0001 24.5141C11.2979 24.5141 7.48606 20.7022 7.48606 16H6.68606C6.68606 21.144 10.8561 25.3141 16.0001 25.3141V24.5141ZM10.7555 9.29254C12.2012 8.16052 14.0213 7.48594 16.0001 7.48594V6.68594C13.8362 6.68594 11.8437 7.42435 10.2623 8.66267L10.7555 9.29254ZM16.0001 7.48594C17.979 7.48594 19.7991 8.16052 21.2447 9.29254L21.738 8.66267C20.1566 7.42435 18.164 6.68594 16.0001 6.68594V7.48594ZM7.48606 16C7.48606 14.2184 8.03284 12.5657 8.96771 11.1991L8.30742 10.7474C7.28443 12.2428 6.68606 14.0521 6.68606 16H7.48606ZM23.0325 11.1991C23.9674 12.5657 24.5142 14.2184 24.5142 16H25.3142C25.3142 14.0521 24.7158 12.2428 23.6928 10.7474L23.0325 11.1991ZM10.4258 22.595L15.0628 17.8219L14.489 17.2644L9.85196 22.0375L10.4258 22.595ZM15.7414 16.1495V12.0521H14.9414V16.1495H15.7414ZM15.0628 17.8219C15.4979 17.3739 15.7414 16.774 15.7414 16.1495H14.9414C14.9414 16.5659 14.7791 16.9658 14.489 17.2644L15.0628 17.8219ZM22.4774 22.0398L17.9108 17.2645L17.3327 17.8174L21.8992 22.5927L22.4774 22.0398ZM17.4672 16.1587V12.0521H16.6672V16.1587H17.4672ZM17.9108 17.2645C17.6261 16.9667 17.4672 16.5707 17.4672 16.1587H16.6672C16.6672 16.7766 16.9056 17.3708 17.3327 17.8174L17.9108 17.2645Z" fill="black"/>
</svg>
