<svg width="32" height="32" viewBox="0 0 32 32" fill="none" xmlns="http://www.w3.org/2000/svg">
<path d="M13.1923 10.1663C13.3082 10.3544 13.5546 10.4128 13.7427 10.2969C13.9308 10.181 13.9892 9.93457 13.8733 9.74651L13.1923 10.1663ZM11.8509 6.46558C11.735 6.27752 11.4886 6.21904 11.3005 6.33496C11.1125 6.45089 11.054 6.69731 11.1699 6.88536L11.8509 6.46558ZM21.9106 18.4662L21.581 18.6929L21.5842 18.6974L21.9106 18.4662ZM23.785 19.4035L24.0454 19.7072L24.0508 19.7024L23.785 19.4035ZM24.2385 18.1337L23.8401 18.0975L23.8397 18.103L24.2385 18.1337ZM26.9897 18.1941L26.5915 18.234L26.5932 18.247L26.9897 18.1941ZM25.7804 21.3686L25.4937 21.0896L25.4907 21.0927L25.7804 21.3686ZM23.6036 22.3663V21.9663H23.5896L23.5756 21.9673L23.6036 22.3663ZM19.7338 19.8872L20.0829 19.6919L20.0784 19.6839L20.0736 19.6761L19.7338 19.8872ZM13.4428 5.45168C13.3179 5.26943 13.069 5.2229 12.8867 5.34775C12.7045 5.4726 12.6579 5.72156 12.7828 5.90381L13.4428 5.45168ZM14.5211 8.44128C14.6459 8.62353 14.8949 8.67007 15.0771 8.54521C15.2594 8.42036 15.3059 8.17141 15.1811 7.98916L14.5211 8.44128ZM16 21.0993L16.0111 20.6993H16V21.0993ZM19.2164 5.90497C19.3419 5.72317 19.2963 5.47405 19.1145 5.34855C18.9327 5.22305 18.6836 5.26869 18.5581 5.4505L19.2164 5.90497ZM10.0592 18.4662L10.3857 18.6975L10.3884 18.6935L10.0592 18.4662ZM8.1848 19.4035L7.91901 19.7025L7.92449 19.7072L8.1848 19.4035ZM7.73131 18.1337L8.13017 18.103L8.12967 18.0975L7.73131 18.1337ZM6.09873 16.8941L6.18114 17.2856L6.18848 17.284L6.19575 17.2822L6.09873 16.8941ZM5.01035 18.1639L5.40706 18.2168L5.40837 18.2037L5.01035 18.1639ZM6.21967 21.3384L6.50934 21.0625L6.50636 21.0594L6.21967 21.3384ZM8.39643 22.336L8.42443 21.937L8.41045 21.936H8.39643V22.336ZM12.2662 19.857L11.9265 19.6458L11.9216 19.6536L11.9171 19.6617L12.2662 19.857ZM20.7991 6.88658C20.9157 6.69895 20.8581 6.45232 20.6705 6.3357C20.4829 6.21908 20.2362 6.27664 20.1196 6.46426L20.7991 6.88658ZM17.4391 16.1735L19.4345 14.9037L19.005 14.2288L17.0096 15.4985L17.4391 16.1735ZM18.5582 18.7571L20.6443 17.4571L20.2212 16.7782L18.1351 18.0782L18.5582 18.7571ZM13.8733 9.74651L11.8509 6.46558L11.1699 6.88536L13.1923 10.1663L13.8733 9.74651ZM16.9856 12.0114L21.581 18.6929L22.2402 18.2396L17.6448 11.5581L16.9856 12.0114ZM21.5842 18.6974C22.1213 19.4558 22.546 19.7749 22.9329 19.9039L23.1859 19.1449C23.0287 19.0925 22.7277 18.9278 22.237 18.235L21.5842 18.6974ZM22.9329 19.9039C23.3152 20.0313 23.7097 19.9948 24.0453 19.7072L23.5247 19.0998C23.437 19.1749 23.3478 19.1989 23.1859 19.1449L22.9329 19.9039ZM24.0508 19.7024C24.2711 19.5066 24.4034 19.1994 24.4837 18.9463C24.5691 18.6773 24.62 18.3899 24.6373 18.1644L23.8397 18.103C23.8268 18.2705 23.787 18.4971 23.7212 18.7042C23.6504 18.9273 23.5711 19.0585 23.5193 19.1045L24.0508 19.7024ZM24.6369 18.1699C24.6611 17.9035 24.7556 17.6683 24.9144 17.5095L24.3487 16.9439C24.0238 17.2688 23.8764 17.6987 23.8402 18.0975L24.6369 18.1699ZM24.9144 17.5095C25.0699 17.354 25.2949 17.2639 25.5688 17.2639V16.4639C25.117 16.4639 24.6769 16.6157 24.3487 16.9439L24.9144 17.5095ZM25.5688 17.2639C25.6559 17.2639 25.7043 17.2647 25.7741 17.2822L25.9681 16.5061C25.796 16.4631 25.663 16.4639 25.5688 16.4639V17.2639ZM25.7741 17.2822C26.2107 17.3913 26.5476 17.7928 26.5917 18.2339L27.3877 18.1543C27.3109 17.3862 26.7408 16.6993 25.9681 16.5061L25.7741 17.2822ZM26.5932 18.247C26.6138 18.4015 26.5958 18.857 26.4318 19.4201C26.2706 19.9737 25.98 20.5898 25.4937 21.0897L26.0671 21.6475C26.6691 21.0288 27.0134 20.2844 27.1999 19.6438C27.3836 19.0127 27.4261 18.4402 27.3862 18.1413L26.5932 18.247ZM25.4907 21.0927C24.9494 21.6612 24.2939 21.9663 23.6036 21.9663V22.7663C24.5459 22.7663 25.4021 22.3458 26.07 21.6445L25.4907 21.0927ZM23.5756 21.9673C22.7893 22.0224 22.1608 21.8642 21.6162 21.5066C21.0626 21.1431 20.5646 20.5532 20.0829 19.6919L19.3847 20.0824C19.9007 21.0049 20.476 21.715 21.1771 22.1753C21.8871 22.6416 22.6947 22.831 23.6316 22.7653L23.5756 21.9673ZM20.0736 19.6761L16.3549 13.69L15.6754 14.1121L19.394 20.0983L20.0736 19.6761ZM12.7828 5.90381L14.5211 8.44128L15.1811 7.98916L13.4428 5.45168L12.7828 5.90381ZM18.5333 24.0326C18.5333 25.4157 17.4196 26.566 16 26.566V27.366C17.8693 27.366 19.3333 25.8496 19.3333 24.0326H18.5333ZM16 26.566C14.617 26.566 13.4667 25.4522 13.4667 24.0326H12.6667C12.6667 25.9019 14.183 27.366 16 27.366V26.566ZM13.4667 24.0326C13.4667 22.6496 14.5804 21.4993 16 21.4993V20.6993C14.1307 20.6993 12.6667 22.2157 12.6667 24.0326H13.4667ZM15.9889 21.4992C17.3867 21.538 18.5333 22.6633 18.5333 24.0326H19.3333C19.3333 22.202 17.8132 20.7495 16.0111 20.6995L15.9889 21.4992ZM14.9881 15.4971L12.9625 14.2273L12.5376 14.9051L14.5632 16.1749L14.9881 15.4971ZM13.6043 18.0782L11.5182 16.7782L11.0951 17.4571L13.1812 18.7571L13.6043 18.0782ZM18.5581 5.4505L9.73006 18.239L10.3884 18.6935L19.2164 5.90497L18.5581 5.4505ZM9.73283 18.235C9.24209 18.9278 8.94114 19.0925 8.7839 19.1449L9.03688 19.9039C9.42384 19.7749 9.84848 19.4558 10.3857 18.6974L9.73283 18.235ZM8.7839 19.1449C8.622 19.1989 8.53279 19.1749 8.44512 19.0998L7.92449 19.7072C8.26007 19.9948 8.6546 20.0313 9.03688 19.9039L8.7839 19.1449ZM8.45055 19.1045C8.39877 19.0585 8.31942 18.9273 8.24861 18.7042C8.18284 18.4971 8.14302 18.2705 8.13013 18.103L7.33249 18.1644C7.34983 18.3899 7.40071 18.6773 7.48611 18.9463C7.56646 19.1994 7.69874 19.5066 7.91906 19.7024L8.45055 19.1045ZM8.12967 18.0975C8.09341 17.6987 7.94607 17.2688 7.62113 16.9439L7.05544 17.5095C7.21422 17.6683 7.30874 17.9036 7.33295 18.1699L8.12967 18.0975ZM7.62113 16.9439C7.29293 16.6157 6.85279 16.4639 6.40106 16.4639V17.2639C6.67492 17.2639 6.89991 17.354 7.05544 17.5095L7.62113 16.9439ZM6.40106 16.4639C6.30678 16.4639 6.17378 16.4631 6.00172 16.5061L6.19575 17.2822C6.26555 17.2647 6.31395 17.2639 6.40106 17.2639V16.4639ZM6.01633 16.5027C5.25419 16.6632 4.68834 17.3641 4.61234 18.1241L5.40837 18.2037C5.45329 17.7544 5.79443 17.367 6.18114 17.2856L6.01633 16.5027ZM4.61386 18.111C4.574 18.41 4.61641 18.9825 4.80014 19.6135C4.98664 20.2541 5.33091 20.9985 5.93298 21.6173L6.50636 21.0594C6.02004 20.5596 5.72942 19.9435 5.56824 19.3899C5.4043 18.8268 5.38624 18.3713 5.40684 18.2168L4.61386 18.111ZM5.93001 21.6142C6.59797 22.3156 7.45416 22.736 8.39643 22.736V21.936C7.70613 21.936 7.05068 21.6309 6.50932 21.0625L5.93001 21.6142ZM8.36843 22.7351C9.30536 22.8008 10.1129 22.6114 10.823 22.1451C11.5241 21.6848 12.0994 20.9747 12.6153 20.0522L11.9171 19.6617C11.4354 20.523 10.9374 21.1129 10.3839 21.4764C9.83928 21.834 9.21078 21.9922 8.42443 21.937L8.36843 22.7351ZM12.606 20.0681L20.7991 6.88658L20.1196 6.46426L11.9265 19.6458L12.606 20.0681Z" fill="black"/>
</svg>
