<svg width="32" height="32" fill="none" xmlns="http://www.w3.org/2000/svg"><path d="M6.645 8.895a.5.5 0 0 0 0 1v-1Zm2.573 7.977a.5.5 0 0 0 .773.635l-.773-.635Zm-1.978.005a.5.5 0 0 0 .988-.155l-.988.155Zm-.689-10.88a.5.5 0 0 0-.988.154l.988-.155ZM19.966 9.37a.5.5 0 1 0 .003 1l-.003-1Zm1.929-1.427-.5-.004v.002l.5.002ZM19.968 6l.002-.5h-.002V6Zm-3.96 0v-.5a.5.5 0 0 0-.5.5h.5Zm2.742 13.381a.5.5 0 1 0 .95-.31l-.95.31ZM6.057 5.5a.5.5 0 1 0 0 1v-1Zm1.738 1a.5.5 0 0 0 0-1v1Zm-.037 16.597a.5.5 0 0 0 1 0h-1Zm1-3.871a.5.5 0 0 0-1 0h1Zm-1.79 3.895a.5.5 0 0 0 0 1v-1Zm2.58 1a.5.5 0 0 0 0-1v1Zm8.293-9.84a.5.5 0 1 0 .269.963l-.27-.963Zm1.56.314-.02.5.02-.5Zm4.456 4.805-.5-.019.5.019Zm-4.805 4.457-.019.5.019-.5Zm-4.457-4.805-.5-.02.5.02Zm1.902-2.933a.5.5 0 0 0-.66-.75l.66.75ZM6.645 9.895h9.363v-1H6.645v1Zm8.976-.817-6.403 7.794.773.635 6.403-7.794-.772-.635Zm-7.393 7.644L6.551 5.996l-.988.155L7.24 16.877l.988-.155Zm11.742-6.351a2.433 2.433 0 0 0 2.425-2.426l-1-.003a1.433 1.433 0 0 1-1.43 1.429l.005 1Zm2.425-2.424A2.43 2.43 0 0 0 19.97 5.5l-.004 1a1.43 1.43 0 0 1 1.429 1.44l1 .007ZM19.968 5.5h-3.96v1h3.96v-1Zm-4.46.5v3.395h1V6h-1Zm.025 3.55 3.217 9.831.95-.31-3.217-9.831-.95.31ZM6.057 6.5h1.738v-1H6.057v1Zm3.96 12.774c0 .971-.788 1.758-1.759 1.758v1a2.758 2.758 0 0 0 2.758-2.758h-1Zm-1.759 1.758c-.97 0-1.758-.787-1.758-1.758h-1a2.758 2.758 0 0 0 2.758 2.758v-1ZM6.5 19.274c0-.97.787-1.758 1.758-1.758v-1A2.758 2.758 0 0 0 5.5 19.274h1Zm1.758-1.758c.971 0 1.758.787 1.758 1.758h1a2.758 2.758 0 0 0-2.758-2.758v1Zm.5 5.58v-3.87h-1v3.87h1Zm-1.79 1.024h2.58v-1h-2.58v1ZM25.5 19.227a6.274 6.274 0 0 1-6.274 6.274v1a7.274 7.274 0 0 0 7.274-7.274h-1ZM19.226 25.5a6.274 6.274 0 0 1-6.274-6.274h-1a7.274 7.274 0 0 0 7.274 7.274v-1Zm-6.274-6.274a6.274 6.274 0 0 1 6.274-6.274v-1a7.274 7.274 0 0 0-7.274 7.274h1Zm6.274-6.274a6.274 6.274 0 0 1 6.274 6.274h1a7.274 7.274 0 0 0-7.274-7.274v1Zm-1.116 2.292c.403-.112.83-.166 1.271-.15l.038-.999a5.14 5.14 0 0 0-1.578.186l.269.963Zm1.271-.15a4.135 4.135 0 0 1 3.977 4.287l.999.038a5.135 5.135 0 0 0-4.938-5.324l-.038 1Zm3.977 4.287a4.135 4.135 0 0 1-4.287 3.976l-.038 1a5.135 5.135 0 0 0 5.324-4.938l-1-.038Zm-4.287 3.976a4.135 4.135 0 0 1-3.976-4.287l-1-.037a5.135 5.135 0 0 0 4.938 5.324l.038-1Zm-3.976-4.287a4.124 4.124 0 0 1 1.402-2.951l-.66-.75a5.124 5.124 0 0 0-1.742 3.664l1 .037Z" fill="#000"/></svg>