<svg width="32" height="32" viewBox="0 0 32 32" fill="none" xmlns="http://www.w3.org/2000/svg">
<path d="M23.0488 22.475L19.0427 18.4939L17.9219 19.6145L21.928 23.5956M18.3732 12.3424L22.8339 7.88171M19.723 13.4988L24.0873 9.13442M10.1863 6.60566L20.0243 17.1603C20.3044 17.4609 20.2962 17.9293 20.0057 18.2197C19.5092 18.7161 18.7044 18.716 18.208 18.2195L13.7218 13.7323C13.6633 13.6738 13.5685 13.6738 13.51 13.7323L13.1988 14.0435C13.1403 14.102 13.1403 14.1968 13.1987 14.2553L17.6455 18.703C18.1637 19.2213 18.1636 20.0614 17.6453 20.5795C17.3371 20.8877 16.8384 20.8907 16.5265 20.5863L6.23563 10.5445C6.0469 10.3603 6.00079 10.0744 6.12205 9.84023L7.19334 7.77158C7.25081 7.6606 7.34155 7.57038 7.45285 7.51354L9.47564 6.4806C9.71387 6.35894 10.0039 6.40998 10.1863 6.60566ZM22.1782 22.942L21.6675 24.3168C21.6261 24.4283 21.6546 24.5537 21.74 24.6364L22.5565 25.4267C22.674 25.5404 22.861 25.5389 22.9766 25.4233L24.8319 23.5684C24.9502 23.4501 24.9487 23.2578 24.8285 23.1414L24.0121 22.3512C23.9302 22.2719 23.8105 22.246 23.7031 22.2843L22.3583 22.7642C22.275 22.794 22.2091 22.8591 22.1782 22.942ZM24.6014 10.7818C24.6014 12.567 23.1543 14.0141 21.3691 14.0141C19.5839 14.0141 18.1367 12.567 18.1367 10.7818C18.1367 8.99656 19.5839 7.54937 21.3691 7.54937C23.1543 7.54937 24.6014 8.99656 24.6014 10.7818Z" stroke="black" stroke-width="0.8"/>
</svg>
