<svg width="32" height="32" viewBox="0 0 32 32" fill="none" xmlns="http://www.w3.org/2000/svg">
<path d="M12.9998 23.3155L16.2604 28L19.0749 23.2894M21.6825 10.6098C21.1042 10.1912 20.2894 10.2435 19.7899 10.7406C19.2642 11.2638 19.2117 12.0749 19.6585 12.6243M17.8188 14.4295C17.2405 14.0109 16.4256 14.0632 15.9262 14.5603C15.4005 15.0835 15.3479 15.8946 15.7948 16.444M13.9811 18.2752C13.4028 17.8566 12.588 17.9089 12.0886 18.406C11.5628 18.9292 11.5103 19.7403 11.9571 20.2897M13.0427 9.67568C12.4644 9.2571 11.6495 9.30942 11.1501 9.80649C10.6244 10.3297 10.5718 11.1407 11.0187 11.6901M12.6434 14.3205C12.0651 13.9019 11.2502 13.9542 10.7508 14.4513C10.2251 14.9745 10.1725 15.7855 10.6194 16.3349M15.2192 11.7568C14.7987 11.1812 14.8513 10.3702 15.3507 9.87312C15.8764 9.34988 16.6912 9.29755 17.2432 9.74231M16.187 5.50193C21.267 5.60484 25.3013 9.78701 25.1979 14.8431C25.0945 19.8991 20.8925 23.9145 15.8126 23.8115C10.7326 23.7086 6.69835 19.5265 6.80175 14.4704C6.90514 9.41435 11.1071 5.39903 16.187 5.50193Z" stroke="black" stroke-miterlimit="10" stroke-linecap="round" stroke-linejoin="round"/>
</svg>
