<svg width="32" height="32" viewBox="0 0 32 32" fill="none" xmlns="http://www.w3.org/2000/svg">
<path d="M7.76878 7.58859L7.48606 7.30563L7.48549 7.30619L7.76878 7.58859ZM7.58879 7.76916L7.87208 8.05155L7.87208 8.05155L7.58879 7.76916ZM7.58879 11.1042L7.87208 10.8218H7.87208L7.58879 11.1042ZM9.31896 12.8399L9.03566 13.1223C9.11071 13.1976 9.21265 13.2399 9.31896 13.2399C9.42526 13.2399 9.5272 13.1976 9.60225 13.1223L9.31896 12.8399ZM12.8234 9.32427L13.1067 9.60667C13.2623 9.45056 13.2623 9.19799 13.1067 9.04188L12.8234 9.32427ZM11.0932 7.58859L11.3765 7.30619L11.3759 7.30563L11.0932 7.58859ZM14.8471 15.3779C15.003 15.5343 15.2563 15.5347 15.4127 15.3788C15.5692 15.2228 15.5696 14.9695 15.4136 14.8131L14.8471 15.3779ZM11.4537 10.8405C11.2978 10.6841 11.0445 10.6837 10.888 10.8396C10.7316 10.9956 10.7312 11.2488 10.8871 11.4053L11.4537 10.8405ZM21.5403 21.5221L21.4958 21.9196C21.6166 21.9332 21.7371 21.891 21.8231 21.805C21.9092 21.719 21.9514 21.5985 21.9379 21.4776L21.5403 21.5221ZM19.7257 17.9844L20.0095 17.7025L20.009 17.702L19.7257 17.9844ZM15.1339 15.0916L15.1787 14.6941C15.058 14.6805 14.9377 14.7225 14.8517 14.8081C14.7656 14.8938 14.7232 15.0139 14.7363 15.1347L15.1339 15.0916ZM21.6396 18.1658C21.4367 18.0785 21.2014 18.1723 21.1141 18.3753C21.0269 18.5782 21.1207 18.8135 21.3236 18.9007L21.6396 18.1658ZM23.682 19.005L23.6862 19.4049C23.8078 19.4037 23.9222 19.3471 23.9971 19.2513C24.072 19.1556 24.0992 19.0309 24.0712 18.9126L23.682 19.005ZM21.4486 15.7178L21.2019 16.0327L21.202 16.0328L21.4486 15.7178ZM17.6392 13.6321L17.5107 14.0108L17.5107 14.0109L17.6392 13.6321ZM14.8805 12.1064L15.127 11.7914L15.1245 11.7895L14.8805 12.1064ZM12.4246 9.71106C12.2495 9.5763 11.9984 9.60897 11.8636 9.78402C11.7288 9.95908 11.7615 10.2102 11.9366 10.345L12.4246 9.71106ZM12.992 8.96689C12.8048 8.84947 12.558 8.90598 12.4405 9.09311C12.3231 9.28023 12.3796 9.52712 12.5668 9.64453L12.992 8.96689ZM15.6336 11.0967L15.421 11.4355L15.4216 11.4359L15.6336 11.0967ZM18.5356 12.3238L18.4475 12.714L18.4476 12.714L18.5356 12.3238ZM22.5396 13.9969L22.7521 13.658L22.7516 13.6577L22.5396 13.9969ZM25.0999 17.0334L25.1466 17.4307C25.2672 17.4165 25.3748 17.3484 25.4391 17.2454C25.5035 17.1425 25.5176 17.0159 25.4775 16.9014L25.0999 17.0334ZM23.8779 16.6153C23.6592 16.5842 23.4567 16.7363 23.4256 16.955C23.3945 17.1737 23.5466 17.3762 23.7653 17.4073L23.8779 16.6153ZM19.1311 21.4661C19.0493 21.2609 18.8166 21.1609 18.6114 21.2427C18.4062 21.3245 18.3062 21.5572 18.388 21.7624L19.1311 21.4661ZM19.1673 23.6779L19.0744 24.067C19.1927 24.0952 19.3175 24.0681 19.4134 23.9933C19.5093 23.9184 19.566 23.804 19.5673 23.6824L19.1673 23.6779ZM15.8907 21.4374L16.2064 21.1918L16.2063 21.1916L15.8907 21.4374ZM13.8115 17.6159L14.1906 17.4881L14.1906 17.4881L13.8115 17.6159ZM12.2907 14.8484L12.6066 14.6029L12.6064 14.6027L12.2907 14.8484ZM10.4759 11.8647C10.3402 11.6903 10.0889 11.659 9.91452 11.7947C9.74017 11.9303 9.70881 12.1816 9.84448 12.356L10.4759 11.8647ZM17.2659 23.593C17.2291 23.3751 17.0228 23.2283 16.8049 23.265C16.5871 23.3017 16.4403 23.5081 16.477 23.726L17.2659 23.593ZM16.9192 25.1003L16.7853 25.4773C16.9003 25.5181 17.0276 25.5042 17.1311 25.4396C17.2346 25.375 17.3029 25.2667 17.3166 25.1454L16.9192 25.1003ZM13.8923 22.5318L13.5525 22.7429L13.5531 22.7439L13.8923 22.5318ZM12.2246 18.515L11.8342 18.6023L11.8343 18.6025L12.2246 18.515ZM11.0013 15.6038L10.6619 15.8154L10.6622 15.8158L11.0013 15.6038ZM9.5555 12.5288C9.43862 12.3414 9.1919 12.2842 9.00444 12.401C8.81698 12.5179 8.75976 12.7646 8.87665 12.9521L9.5555 12.5288ZM17.2099 12.1825C17.3658 12.0261 17.3654 11.7728 17.209 11.6168C17.0525 11.4609 16.7993 11.4613 16.6433 11.6177L17.2099 12.1825ZM11.4785 16.799C11.3225 16.9555 11.3229 17.2087 11.4794 17.3647C11.6359 17.5207 11.8891 17.5203 12.0451 17.3638L11.4785 16.799ZM14.9507 10.8704C15.1067 10.7139 15.1063 10.4607 14.9498 10.3047C14.7934 10.1487 14.5401 10.1491 14.3841 10.3056L14.9507 10.8704ZM10.2295 14.4735C10.0736 14.6299 10.074 14.8832 10.2304 15.0392C10.3869 15.1951 10.6401 15.1947 10.7961 15.0383L10.2295 14.4735ZM7.48549 7.30619L7.30549 7.48676L7.87208 8.05155L8.05208 7.87098L7.48549 7.30619ZM7.30549 7.48676C6.23153 8.56415 6.23153 10.3092 7.30549 11.3866L7.87208 10.8218C7.10934 10.0566 7.10934 8.81672 7.87208 8.05155L7.30549 7.48676ZM7.30549 11.3866L9.03566 13.1223L9.60225 12.5575L7.87208 10.8218L7.30549 11.3866ZM9.60225 13.1223L13.1067 9.60667L12.5401 9.04188L9.03566 12.5575L9.60225 13.1223ZM13.1067 9.04188L11.3765 7.30619L10.8099 7.87098L12.5401 9.60667L13.1067 9.04188ZM11.3759 7.30563C10.3014 6.23198 8.56059 6.23198 7.48606 7.30563L8.05151 7.87154C8.81368 7.11001 10.0483 7.11001 10.8105 7.87154L11.3759 7.30563ZM8.72423 12.2488L11.5711 9.39283L11.0045 8.82805L8.15765 11.684L8.72423 12.2488ZM15.4136 14.8131L11.4537 10.8405L10.8871 11.4053L14.8471 15.3779L15.4136 14.8131ZM17.7306 19.984C18.8478 21.1049 20.2113 21.7755 21.4958 21.9196L21.5849 21.1246C20.5038 21.0033 19.3031 20.4284 18.2972 19.4193L17.7306 19.984ZM21.9379 21.4776C21.7943 20.1937 21.1262 18.8266 20.0095 17.7025L19.4419 18.2663C20.4484 19.2795 21.0219 20.4847 21.1428 21.5665L21.9379 21.4776ZM20.009 17.702C19.4553 17.1466 18.58 16.4399 17.6944 15.8546C17.2505 15.5613 16.7969 15.2937 16.3733 15.0895C15.9566 14.8886 15.5404 14.7348 15.1787 14.6941L15.0892 15.4891C15.317 15.5147 15.6369 15.6225 16.0258 15.8101C16.4079 15.9943 16.8294 16.2419 17.2534 16.5221C18.1034 17.0838 18.9344 17.7572 19.4424 18.2668L20.009 17.702ZM14.7363 15.1347C14.7757 15.4982 14.9281 15.9163 15.1279 16.335C15.3309 16.7605 15.5973 17.216 15.8895 17.6616C16.4725 18.5505 17.177 19.4286 17.7306 19.984L18.2972 19.4193C17.7892 18.9097 17.118 18.076 16.5585 17.2229C16.2795 16.7974 16.033 16.3742 15.8499 15.9905C15.6635 15.5999 15.5565 15.2782 15.5316 15.0485L14.7363 15.1347ZM21.3236 18.9007C22.1142 19.2407 22.926 19.413 23.6862 19.4049L23.6778 18.605C23.042 18.6117 22.3404 18.4671 21.6396 18.1658L21.3236 18.9007ZM24.0712 18.9126C23.7721 17.6526 22.9436 16.3801 21.6951 15.4028L21.202 16.0328C22.3265 16.9129 23.0408 18.0357 23.2928 19.0973L24.0712 18.9126ZM21.6952 15.403C20.7765 14.6831 19.0878 13.7011 17.7677 13.2533L17.5107 14.0109C18.7327 14.4254 20.3427 15.3596 21.2019 16.0327L21.6952 15.403ZM17.7678 13.2533C16.8183 12.9311 15.9318 12.4209 15.127 11.7914L14.6341 12.4215C15.497 13.0965 16.4619 13.655 17.5107 14.0108L17.7678 13.2533ZM15.1245 11.7895L12.4246 9.71106L11.9366 10.345L14.6365 12.4234L15.1245 11.7895ZM12.5668 9.64453L15.421 11.4355L15.8462 10.7579L12.992 8.96689L12.5668 9.64453ZM15.4216 11.4359C16.3491 12.0155 17.3677 12.4703 18.4475 12.714L18.6236 11.9336C17.6463 11.713 16.7107 11.2981 15.8456 10.7575L15.4216 11.4359ZM18.4476 12.714C19.7045 12.9974 21.4042 13.7589 22.3276 14.3361L22.7516 13.6577C21.7648 13.0409 19.9821 12.2399 18.6235 11.9336L18.4476 12.714ZM22.327 14.3357C23.535 15.0935 24.363 16.1378 24.7224 17.1654L25.4775 16.9014C25.0508 15.6811 24.0935 14.4995 22.7521 13.658L22.327 14.3357ZM25.0533 16.6361C24.6824 16.6797 24.2874 16.6735 23.8779 16.6153L23.7653 17.4073C24.2374 17.4744 24.7019 17.4829 25.1466 17.4307L25.0533 16.6361ZM18.388 21.7624C18.6499 22.4191 18.7741 23.0713 18.7674 23.6735L19.5673 23.6824C19.5753 22.9653 19.4276 22.2097 19.1311 21.4661L18.388 21.7624ZM19.2603 23.2889C18.2028 23.0363 17.0839 22.32 16.2064 21.1918L15.5749 21.6829C16.5489 22.9353 17.8176 23.7668 19.0744 24.067L19.2603 23.2889ZM16.2063 21.1916C15.5353 20.3297 14.6039 18.7143 14.1906 17.4881L13.4325 17.7437C13.8787 19.0676 14.8575 20.7614 15.575 21.6831L16.2063 21.1916ZM14.1906 17.4881C13.8359 16.4363 13.2794 15.4685 12.6066 14.6029L11.9749 15.0939C12.6025 15.9013 13.1112 16.7908 13.4325 17.7437L14.1906 17.4881ZM12.6064 14.6027L10.4759 11.8647L9.84448 12.356L11.975 15.094L12.6064 14.6027ZM16.477 23.726C16.5558 24.1932 16.5686 24.6419 16.5217 25.0552L17.3166 25.1454C17.3726 24.6522 17.3561 24.1281 17.2659 23.593L16.477 23.726ZM17.0531 24.7234C16.0284 24.3594 14.9871 23.5284 14.2315 22.3198L13.5531 22.7439C14.3918 24.0854 15.5693 25.0453 16.7853 25.4773L17.0531 24.7234ZM14.2321 22.3208C13.6567 21.3943 12.8975 19.689 12.6149 18.4276L11.8343 18.6025C12.1394 19.9649 12.9377 21.753 13.5525 22.7429L14.2321 22.3208ZM12.615 18.4278C12.3722 17.3416 11.9228 16.3233 11.3405 15.3918L10.6622 15.8158C11.204 16.6827 11.6141 17.6174 11.8342 18.6023L12.615 18.4278ZM11.3408 15.3922L9.5555 12.5288L8.87665 12.9521L10.6619 15.8154L11.3408 15.3922ZM16.6433 11.6177L11.4785 16.799L12.0451 17.3638L17.2099 12.1825L16.6433 11.6177ZM14.3841 10.3056L10.2295 14.4735L10.7961 15.0383L14.9507 10.8704L14.3841 10.3056Z" fill="#1A212A"/>
</svg>
