<svg width="32" height="32" viewBox="0 0 32 32" fill="none" xmlns="http://www.w3.org/2000/svg">
<path d="M15.6274 25.1061C15.443 25.2279 15.3923 25.476 15.5141 25.6603C15.6358 25.8447 15.8839 25.8954 16.0683 25.7737L15.6274 25.1061ZM19.3831 23.1049L19.4072 22.7056C19.3208 22.7004 19.235 22.7233 19.1627 22.7711L19.3831 23.1049ZM23.6138 23.3601L23.5897 23.7594C23.7235 23.7675 23.8524 23.708 23.9331 23.601C24.0138 23.494 24.0356 23.3538 23.9911 23.2273L23.6138 23.3601ZM21.7543 16.8705C21.6809 16.6621 21.4526 16.5526 21.2442 16.626C21.0358 16.6993 20.9263 16.9277 20.9996 17.1361L21.7543 16.8705ZM18.8849 23.1533C18.9569 23.3622 19.1845 23.4732 19.3934 23.4013C19.6023 23.3294 19.7133 23.1017 19.6414 22.8929L18.8849 23.1533ZM18.3612 19.1751C18.2892 18.9662 18.0616 18.8552 17.8527 18.9271C17.6439 18.999 17.5328 19.2267 17.6048 19.4356L18.3612 19.1751ZM15.5474 25.7653C15.7318 25.887 15.9799 25.8363 16.1016 25.6519C16.2233 25.4676 16.1726 25.2194 15.9882 25.0977L15.5474 25.7653ZM12.6179 23.3517L12.8383 23.0179C12.766 22.9702 12.6802 22.9473 12.5938 22.9525L12.6179 23.3517ZM8.38721 23.607L8.00542 23.4877C7.96619 23.6132 7.99116 23.75 8.07221 23.8535C8.15326 23.9571 8.28003 24.0142 8.4113 24.0063L8.38721 23.607ZM11.0295 16.4939C11.0954 16.283 10.9779 16.0587 10.767 15.9928C10.5562 15.9269 10.3318 16.0444 10.2659 16.2552L11.0295 16.4939ZM12.4125 23.2106C12.3543 23.4238 12.4799 23.6437 12.693 23.7019C12.9061 23.7601 13.126 23.6345 13.1842 23.4214L12.4125 23.2106ZM14.3484 19.1579C14.4066 18.9447 14.281 18.7248 14.0679 18.6666C13.8548 18.6084 13.6349 18.734 13.5767 18.9471L14.3484 19.1579ZM22.1972 12.9606C22.1972 16.3102 19.4818 19.0256 16.1322 19.0256V19.8256C19.9236 19.8256 22.9972 16.752 22.9972 12.9606H22.1972ZM16.1322 19.0256C12.7826 19.0256 10.0672 16.3102 10.0672 12.9606H9.26721C9.26721 16.752 12.3408 19.8256 16.1322 19.8256V19.0256ZM10.0672 12.9606C10.0672 9.61099 12.7826 6.89561 16.1322 6.89561V6.09561C12.3408 6.09561 9.26721 9.16916 9.26721 12.9606H10.0672ZM16.1322 6.89561C19.4818 6.89561 22.1972 9.61099 22.1972 12.9606H22.9972C22.9972 9.16916 19.9236 6.09561 16.1322 6.09561V6.89561ZM13.9522 12.9607C13.9522 12.955 13.9568 12.9504 13.9625 12.9504V13.7504C14.3987 13.7504 14.7522 13.3969 14.7522 12.9607H13.9522ZM13.9625 12.9504C13.9682 12.9504 13.9728 12.955 13.9728 12.9607H13.1728C13.1728 13.3969 13.5264 13.7504 13.9625 13.7504V12.9504ZM13.9728 12.9607C13.9728 12.9664 13.9682 12.971 13.9625 12.971V12.171C13.5264 12.171 13.1728 12.5246 13.1728 12.9607H13.9728ZM13.9625 12.971C13.9568 12.971 13.9522 12.9664 13.9522 12.9607H14.7522C14.7522 12.5246 14.3987 12.171 13.9625 12.171V12.971ZM16.0876 12.9607C16.0876 12.955 16.0923 12.9504 16.0979 12.9504V13.7504C16.5341 13.7504 16.8876 13.3969 16.8876 12.9607H16.0876ZM16.0979 12.9504C16.1036 12.9504 16.1083 12.955 16.1083 12.9607H15.3083C15.3083 13.3969 15.6618 13.7504 16.0979 13.7504V12.9504ZM16.1083 12.9607C16.1083 12.9664 16.1036 12.971 16.0979 12.971V12.171C15.6618 12.171 15.3083 12.5246 15.3083 12.9607H16.1083ZM16.0979 12.971C16.0923 12.971 16.0876 12.9664 16.0876 12.9607H16.8876C16.8876 12.5246 16.5341 12.171 16.0979 12.171V12.971ZM18.2231 12.9607C18.2231 12.955 18.2277 12.9504 18.2334 12.9504V13.7504C18.6695 13.7504 19.0231 13.3969 19.0231 12.9607H18.2231ZM18.2334 12.9504C18.2391 12.9504 18.2437 12.955 18.2437 12.9607H17.4437C17.4437 13.3969 17.7973 13.7504 18.2334 13.7504V12.9504ZM18.2437 12.9607C18.2437 12.9664 18.2391 12.971 18.2334 12.971V12.171C17.7973 12.171 17.4437 12.5246 17.4437 12.9607H18.2437ZM18.2334 12.971C18.2277 12.971 18.2231 12.9664 18.2231 12.9607H19.0231C19.0231 12.5246 18.6695 12.171 18.2334 12.171V12.971ZM16.0683 25.7737L19.6036 23.4386L19.1627 22.7711L15.6274 25.1061L16.0683 25.7737ZM19.3591 23.5041L23.5897 23.7594L23.6379 22.9608L19.4072 22.7056L19.3591 23.5041ZM23.9911 23.2273L21.7543 16.8705L20.9996 17.1361L23.2365 23.4929L23.9911 23.2273ZM19.6414 22.8929L18.3612 19.1751L17.6048 19.4356L18.8849 23.1533L19.6414 22.8929ZM15.9882 25.0977L12.8383 23.0179L12.3975 23.6855L15.5474 25.7653L15.9882 25.0977ZM12.5938 22.9525L8.36312 23.2077L8.4113 24.0063L12.6419 23.751L12.5938 22.9525ZM8.76899 23.7263L11.0295 16.4939L10.2659 16.2552L8.00542 23.4877L8.76899 23.7263ZM13.1842 23.4214L14.3484 19.1579L13.5767 18.9471L12.4125 23.2106L13.1842 23.4214Z" fill="black"/>
</svg>
