<svg width="32" height="32" fill="none" xmlns="http://www.w3.org/2000/svg"><path d="M13.318 14.618a.5.5 0 0 0-1-.034l1 .034Zm.587 2.208a.5.5 0 0 0 .196-.981l-.196.98Zm-5.788-6.438a.5.5 0 0 0 0 1v-1Zm5.45 1a.5.5 0 0 0 0-1v1Zm-5.45.463a.5.5 0 0 0 0 1v-1Zm5.45 1a.5.5 0 1 0 0-1v1Zm13.746-1.163-.004.5h.004v-.5Zm-1.874-.013h-.5v.496l.497.004.003-.5Zm-2.032-.664h-.5v.5h.5v-.5Zm-.774-1.132-.425-.263-.473.763h.898v-.5Zm.175-.774-.497.058.001.007.496-.065ZM21.76 8.096l-.051.498h.006l.045-.498ZM20.625 9.88v.5h.89l-.463-.76-.427.26Zm-2.252 0-.499.039.036.461h.463v-.5Zm-2.387-1.112h-.5v.5h.5v-.5Zm-1.509-.013v.5h.5v-.5h-.5Zm-9.129 1.543v.5h.5v-.5h-.5Zm1.172 2.829h.5v-.5h-.5v.5Zm0 6.437.5.017v-.017h-.5Zm1.123 1.808-.215.451.002.001.213-.453Zm.848.184h.5v-.5h-.5v.5Zm2.78 0v-.5h-.5v.5h.5Zm.475-7.089v-.5h-.5v.5h.5Zm7.04 0h.5v-.5h-.5v.5Zm0 8.35h-.5v.5h.5v-.5Zm2.176-8.559v-.5h-.5v.5h.5Zm2.445-.787v-.5h-.5v.5h.5Zm2.032-.627.004-.5-.504-.004v.504h.5Zm1.874.013-.004.5h.004v-.5ZM6.293 16.89a.5.5 0 0 0 .728.686l-.728-.686Zm2.674-1.38a.5.5 0 0 0-.728-.686l.728.686Zm9.314-1.032a.5.5 0 1 0 1 0h-1Zm1-1.967a.5.5 0 1 0-1 0h1Zm-7.535 5.812h1.883v-1h-1.883v1Zm1.883 0c1.354 0 2.458-1.078 2.458-2.43h-1a1.44 1.44 0 0 1-1.458 1.43v1Zm2.458-2.43v-1.415h-1v1.414h1ZM12.818 14.6l-.5-.016v.01a.985.985 0 0 0 0 .083 2.864 2.864 0 0 0 .157.864c.178.502.58 1.114 1.43 1.284l.196-.981c-.385-.077-.575-.332-.682-.635a1.866 1.866 0 0 1-.1-.557l-.001-.032v-.005.001l-.5-.016Zm-4.701-3.213h5.45v-1h-5.45v1Zm0 1.463h5.45v-1h-5.45v1ZM28 11.872a.69.69 0 0 0-.687-.684v1a.312.312 0 0 1-.22-.089.318.318 0 0 1-.093-.227h1Zm-.684-.684-1.873-.013-.007 1 1.873.013.007-1Zm-1.377.487v-.037h-1v.037h1Zm0-.037c0-.627-.517-1.127-1.136-1.127v1c.08 0 .136.065.136.127h1Zm-1.136-1.127h-1.396v1h1.396v-1Zm-.896.5v-.504h-1v.504h1Zm0-.504c0-.628-.518-1.128-1.137-1.128v1c.08 0 .137.066.137.128h1ZM22.77 9.379h-.137v1h.137v-1Zm.288.764c.19-.306.3-.691.245-1.104l-.99.131a.678.678 0 0 1-.105.446l.85.527Zm.246-1.097a1.672 1.672 0 0 0-1.498-1.448l-.091.996c.306.028.562.28.596.57l.993-.118ZM21.812 7.6c-.993-.103-1.874.655-1.874 1.653h1c0-.379.341-.703.77-.658l.104-.995Zm-1.874 1.653c0 .345.112.643.26.887l.854-.52a.699.699 0 0 1-.114-.367h-1Zm.687.127h-2.252v1h2.252v-1Zm-1.754.462c-.043-.552-.252-.961-.562-1.228a1.435 1.435 0 0 0-.926-.346v1c.074 0 .183.026.274.104.08.069.192.217.217.547l.997-.077Zm-1.488-1.574h-1.397v1h1.397v-1Zm-.897.5v-.824h-1v.824h1Zm0-.824A.944.944 0 0 0 15.537 7v1a.05.05 0 0 1-.033-.015.062.062 0 0 1-.018-.042h1ZM15.537 7h-.611v1h.611V7Zm-.611 0a.944.944 0 0 0-.949.943h1a.062.062 0 0 1-.018.042.05.05 0 0 1-.033.015V7Zm-.949.943v.811h1v-.811h-1Zm.5.311h-8.68v1h8.68v-1Zm-8.68 0a.944.944 0 0 0-.949.943h1a.062.062 0 0 1-.018.042.05.05 0 0 1-.033.015v-1Zm-.949.943v1.1h1v-1.1h-1Zm.5.6h-.412v1h.412v-1Zm-.412 0a.939.939 0 0 0-.936.93h1a.075.075 0 0 1-.02.054.062.062 0 0 1-.044.016v-1Zm-.936.93v1.415h1v-1.414H4Zm0 1.415c0 .824.68 1.484 1.498 1.484v-1A.494.494 0 0 1 5 12.142H4Zm1.498 1.484H6.52v-1H5.498v1Zm.523 5.92a2.435 2.435 0 0 0 1.407 2.276l.43-.903a1.435 1.435 0 0 1-.838-1.34l-1-.033Zm1.41 2.277c.331.156.691.232 1.06.232v-1c-.23 0-.444-.047-.636-.137l-.425.905Zm.56 2.333c0 .467.392.844.849.844v-1c.05 0 .086.02.106.041a.16.16 0 0 1 .045.115h-1ZM8.84 25h2.07v-1H8.84v1Zm2.07 0a.86.86 0 0 0 .862-.857h-1A.14.14 0 0 1 10.91 24v1Zm.862-.857v-2.588h-1v2.588h1Zm-.5-2.088a.97.97 0 0 0 .974-.967h-1a.037.037 0 0 1 .01-.026.025.025 0 0 1 .016-.007v1Zm.974-.967v-6.622h-1v6.622h1Zm-.5-6.122h7.04v-1h-7.04v1Zm6.54-.5v8.35h1v-8.35h-1Zm.5 8.85c.542 0 1.178-.21 1.68-.53.48-.306.996-.821.996-1.508h-1c0 .162-.142.416-.534.665-.371.237-.823.372-1.142.372v1Zm2.676-2.038v-7.021h-1v7.021h1Zm-.5-6.521h1.646v-1h-1.646v1Zm1.646 0c.706 0 1.299-.574 1.299-1.287h-1a.298.298 0 0 1-.299.287v1Zm2.195-.787c.619 0 1.136-.5 1.136-1.127h-1c0 .061-.056.127-.136.127v1Zm.633-.627 1.873.013.007-1-1.873-.013-.007 1Zm1.877.013a.69.69 0 0 0 .687-.684h-1c0-.1.044-.179.093-.227a.312.312 0 0 1 .22-.089v1Zm.687-.684v-.8h-1v.8h1ZM7.021 17.575l1.946-2.066-.728-.686-1.946 2.066.728.686Zm12.26-3.098v-1.967h-1v1.967h1Zm-13.26-1.352v6.437h1v-6.437h-1Zm1.97 8.429v2.6h1v-2.6h-1Zm15.416-7.585h1.396v-1h-1.396v1Z" fill="#000"/></svg>