<svg width="32" height="32" fill="none" xmlns="http://www.w3.org/2000/svg"><path d="m10.38 6.2.364-.343-.364.343Zm10.43 11.054.364-.343-.364.343Zm-3.708 3.588-.347.36.347-.36ZM6.192 10.325l.347-.36-.347.36Zm-.12-.738.442.232-.443-.232Zm1.135-2.166.443.232-.443-.232Zm.275-.27.225.446-.225-.446Zm2.145-1.082.225.446-.225-.446Zm8.66 14.766.352.356-.351-.356Zm2.503-2.472-.351-.355.351.355Zm2.304 4.946.468.176-.468-.176Zm.19-.186-.166-.471.167.471Zm-.655 1.96-.346.362.346-.361Zm-.077-.334-.468-.176.468.176Zm1.388 1.16-.351-.357.351.356Zm-.445.003.345-.362-.345.362Zm2.408-2.394.346-.361-.346.361Zm.004.447.351.356-.351-.356Zm-.87-1.274-.345.361.346-.361Zm-.327-.07.166.471-.166-.471Zm-10.463-9.03a.5.5 0 1 0-.708.706l.708-.706Zm4.623 5.948.351.356-.35-.356Zm1.18-.612-.35.356.35-.356Zm-.56 0 .35.356-.35-.356ZM10.015 6.543l10.43 11.054.728-.686-10.43-11.054-.728.686Zm7.433 13.94L6.539 9.964l-.694.72 10.91 10.517.694-.72ZM6.514 9.818 7.65 7.653l-.886-.464-1.136 2.166.886.464Zm1.193-2.222 2.145-1.082-.45-.893-2.145 1.082.45.893Zm-.057.056a.131.131 0 0 1 .057-.056l-.45-.893c-.21.106-.383.275-.493.485l.886.464ZM6.539 9.965a.122.122 0 0 1-.025-.146l-.886-.464c-.232.443-.143.984.217 1.33l.694-.72Zm10.216 11.237a1.351 1.351 0 0 0 1.884-.011l-.702-.712a.352.352 0 0 1-.488.003l-.694.72Zm3.691-3.605a.292.292 0 0 1-.007.41l.703.712a1.292 1.292 0 0 0 .032-1.808l-.728.686Zm-9.702-11.74A1.14 1.14 0 0 0 9.4 5.622l.45.893a.14.14 0 0 1 .165.028l.728-.686ZM19.7 19.283l3.966 3.894.7-.713-3.965-3.894-.7.713Zm3.479 4.354-3.958-3.885-.7.714 3.957 3.885.7-.714Zm1.513-.585.866.828.69-.723-.865-.828-.69.723Zm.864.558-1.967 1.942.702.712 1.967-1.943-.702-.711Zm-1.716 1.94-.865-.827-.692.722.866.828.691-.723Zm-.82-.625.542-1.44-.936-.352-.542 1.44.936.352Zm.43-1.33 1.427-.503-.333-.943-1.426.503.333.943Zm.112-.11a.184.184 0 0 1-.111.11l-.333-.943a.816.816 0 0 0-.492.481l.936.352Zm-.587 1.238a.19.19 0 0 1 .045.202l-.936-.352a.81.81 0 0 0 .2.872l.69-.722Zm.614.83a.18.18 0 0 1 .251-.003l-.69.723a.82.82 0 0 0 1.141-.01l-.702-.71Zm1.969-1.674a.189.189 0 0 1-.002-.27l.702.712a.811.811 0 0 0-.01-1.164l-.69.723Zm-.175-1.55a.82.82 0 0 0-.839-.18l.332.943a.18.18 0 0 1-.184-.04l.691-.723Zm-.22-11.756c0 1.588-1.305 2.886-2.927 2.886v1c2.163 0 3.927-1.734 3.927-3.886h-1Zm-2.927 2.886c-1.623 0-2.927-1.298-2.927-2.886h-1c0 2.152 1.764 3.886 3.927 3.886v-1Zm-2.927-2.886c0-1.587 1.304-2.885 2.927-2.885v-1c-2.163 0-3.927 1.734-3.927 3.885h1Zm2.927-2.885c1.622 0 2.927 1.298 2.927 2.885h1c0-2.151-1.764-3.885-3.927-3.885v1Zm-2.825 4.876 4.73-4.672-.704-.712-4.729 4.672.703.712Zm1.431 1.21 4.627-4.57-.703-.712-4.627 4.571.703.712Zm-2.203 7.417 2.503-2.472-.703-.711-2.502 2.471.702.712Zm.582-1.296.306-.302-.703-.711-.305.301.702.712Zm.306-.302.313-.31-.702-.711-.314.31.703.711Zm.002-.709-5.282-5.293-.708.706 5.282 5.294.708-.707Zm-.308.868a.1.1 0 0 1 0 .143l-.702-.712a.9.9 0 0 0 .002 1.283l.7-.714Zm1.18-1.182a.9.9 0 0 0-1.263.002l.702.711a.1.1 0 0 1-.14 0l.7-.713Z" fill="#000"/></svg>