<svg width="32" height="32" viewBox="0 0 32 32" fill="none" xmlns="http://www.w3.org/2000/svg">
<path d="M10.7983 11.7174L11.9543 12.8845C12.1066 13.0508 12.2978 13.1528 12.5266 13.1757L14.7381 13.3966M17.5319 12.4731L21.4256 8.75339C21.7432 8.45038 22.2577 8.4603 22.5756 8.77645C22.8951 9.10755 22.8852 9.622 22.5541 9.94143L19.1832 13.1416C18.9345 13.3774 18.8486 13.7332 18.9407 14.0564L20.1882 17.9965L23.2431 23.8607C23.5174 24.3473 23.3368 24.9691 22.8338 25.2299L22.7619 25.2671C22.2889 25.525 21.6835 25.3579 21.4256 24.8848L18.8993 20.2523C18.6817 19.881 18.1778 19.8248 17.8901 20.1249L15.6241 22.3391C15.3904 22.5735 15.0716 22.7105 14.7367 22.683L11.1763 22.4132C10.6126 22.3628 10.1858 21.861 10.2511 21.2958C10.3045 20.762 10.7942 20.3666 11.3266 20.4049L14.0675 20.6343C14.2499 20.6466 14.4399 20.5827 14.5628 20.4498L15.624 19.5015C15.9252 19.185 16.0457 18.7201 15.9134 18.2952L15.0881 15.7333C14.9796 15.3966 14.6839 15.1538 14.3325 15.1127L11.9521 14.8631C11.7383 14.8387 11.5485 14.7516 11.4127 14.5989L9.35351 12.6476C9.11768 12.3989 9.08245 12.0399 9.20414 11.741M9.66309 6.69555C10.6927 6.64083 11.5716 7.4311 11.6264 8.46067C11.6811 9.49024 10.8908 10.3692 9.86124 10.4239C8.83167 10.4787 7.95269 9.68838 7.89797 8.65882C7.84326 7.62925 8.63353 6.75027 9.66309 6.69555ZM17.1821 9.87762C17.292 10.997 16.4736 11.9935 15.3542 12.1033C14.2349 12.2132 13.2384 11.3948 13.1285 10.2754C13.0187 9.15604 13.8371 8.15956 14.9564 8.04971C16.0758 7.93987 17.0723 8.75825 17.1821 9.87762Z" stroke="black" stroke-width="0.8" stroke-miterlimit="10" stroke-linecap="round" stroke-linejoin="round"/>
</svg>
