<svg width="32" height="32" viewBox="0 0 32 32" fill="none" xmlns="http://www.w3.org/2000/svg">
<path d="M13.2091 14.31L15.8057 12.8141M13.2091 14.31L13.2091 17.2877M13.2091 14.31L10.6269 12.8141M15.8057 12.8141L18.3882 14.31M15.8057 12.8141L15.806 9.82238M18.3882 14.31V17.2877M18.3882 14.31L20.9711 12.8143M18.3882 17.2877L15.8057 18.7836M18.3882 17.2877L20.9708 18.7836M15.8057 18.7836L13.2091 17.2877M15.8057 18.7836V21.7754M13.2091 17.2877L10.6269 18.7836M9.80837 9.35663L10.6269 9.82233L10.6269 12.8141M10.6269 12.8141L8.03024 14.31L7.22585 13.8302M7.22585 17.7676L8.03024 17.2877L10.6269 18.7836M10.6269 18.7836L10.6269 21.7754L9.80837 22.2552M13.2091 24.2168V23.2713L15.8057 21.7754M15.8057 21.7754L18.3882 23.2713V24.2168M21.7893 22.2411L20.9708 21.7754V18.7836M20.9708 18.7836L23.5675 17.2877L24.386 17.7676M24.3721 13.8304L23.5678 14.3102L20.9711 12.8143M20.9711 12.8143V9.82253L21.7896 9.35683M18.3885 7.39509L18.3885 8.32649L15.806 9.82238M15.806 9.82238L13.2094 8.3265V7.38098M8.09453 25.1094H27M24.6119 15.806C24.6119 20.6694 20.6694 24.6119 15.806 24.6119C10.9426 24.6119 7 20.6694 7 15.806C7 10.9426 10.9426 7 15.806 7C20.6694 7 24.6119 10.9426 24.6119 15.806Z" stroke="black" stroke-width="0.8" stroke-linecap="round"/>
</svg>
