<svg width="32" height="32" fill="none" xmlns="http://www.w3.org/2000/svg"><path d="M16.008 11.174v.873m-3.054-.04.428.756m-2.663 1.521.74.436M9.9 17.395h.858m-.038 3.11.74-.436m9.838.436-.743-.436m1.56-2.674h-.857m.04-3.11-.743.435m-1.494-2.712-.428.755m-.247 2.209-1.537 1.566m3.19 8.762-1.96-3.36h-4.143l-1.96 3.36m6.815-2.139h3.423a8.622 8.622 0 0 0 2.083-4.387 8.701 8.701 0 0 0-.605-4.834 8.517 8.517 0 0 0-3.099-3.713 8.29 8.29 0 0 0-4.586-1.388 8.29 8.29 0 0 0-4.586 1.388A8.517 8.517 0 0 0 8.32 13.94a8.701 8.701 0 0 0-.605 4.834A8.622 8.622 0 0 0 9.8 23.161h3.423m9.85 2.14a10.738 10.738 0 0 0 3.148-5.456c.485-2.1.335-4.3-.43-6.313a10.665 10.665 0 0 0-3.857-4.96A10.366 10.366 0 0 0 16 6.7c-2.118 0-4.187.653-5.934 1.872a10.665 10.665 0 0 0-3.857 4.96 10.883 10.883 0 0 0-.43 6.313A10.738 10.738 0 0 0 8.927 25.3h14.146Zm-6.224-8.763a1.229 1.229 0 0 1 0 1.715 1.175 1.175 0 0 1-1.683 0 1.228 1.228 0 0 1 0-1.715 1.175 1.175 0 0 1 1.683 0Z" stroke="#000" stroke-linecap="round" stroke-linejoin="round"/></svg>