<svg width="32" height="32" viewBox="0 0 32 32" fill="none" xmlns="http://www.w3.org/2000/svg">
<path d="M12.1544 20.6639C12.1544 21.7274 11.2946 22.5894 10.234 22.5894C9.17341 22.5894 8.31362 21.7274 8.31362 20.6639C8.31362 19.6005 9.17341 18.7384 10.234 18.7384C11.2946 18.7384 12.1544 19.6005 12.1544 20.6639ZM12.1544 20.6639C12.1544 21.7274 13.0144 22.5894 14.075 22.5894C15.1356 22.5894 15.9954 21.7274 15.9954 20.6639M12.1544 20.6639C12.1544 19.6005 13.0144 18.7384 14.075 18.7384C15.1356 18.7384 15.9954 19.6005 15.9954 20.6639M14.0749 17.266C14.0749 18.3294 13.2151 19.1915 12.1545 19.1915C11.0939 19.1915 10.2341 18.3294 10.2341 17.266C10.2341 16.2025 11.0939 15.3405 12.1545 15.3405C13.2151 15.3405 14.0749 16.2025 14.0749 17.266ZM14.0749 17.266C14.0749 18.3294 14.9347 19.1915 15.9952 19.1915C17.0558 19.1915 17.9156 18.3294 17.9156 17.266M14.0749 17.266C14.0749 16.2025 14.9347 15.3405 15.9952 15.3405C17.0558 15.3405 17.9156 16.2025 17.9156 17.266M17.9156 17.266C17.9156 18.3294 18.7754 19.1915 19.836 19.1915C20.8966 19.1915 21.7564 18.3294 21.7564 17.266C21.7564 16.2025 20.8966 15.3405 19.836 15.3405C18.7754 15.3405 17.9156 16.2025 17.9156 17.266ZM15.9954 13.8907C15.9954 14.9541 15.1356 15.8162 14.075 15.8162C13.0144 15.8162 12.1546 14.9541 12.1546 13.8907C12.1546 12.8272 13.0144 11.9651 14.075 11.9651C15.1356 11.9651 15.9954 12.8272 15.9954 13.8907ZM15.9954 13.8907C15.9954 14.9541 16.8552 15.8162 17.9157 15.8162C18.9763 15.8162 19.8361 14.9541 19.8361 13.8907C19.8361 12.8272 18.9763 11.9651 17.9157 11.9651C16.8552 11.9651 15.9954 12.8272 15.9954 13.8907ZM15.9954 20.6639C15.9954 21.7274 16.8552 22.5894 17.9157 22.5894C18.9763 22.5894 19.8361 21.7274 19.8361 20.6639M15.9954 20.6639C15.9954 19.6005 16.8552 18.7384 17.9157 18.7384C18.9763 18.7384 19.8361 19.6005 19.8361 20.6639M19.8361 20.6639C19.8361 21.7274 20.6959 22.5894 21.7565 22.5894C22.8171 22.5894 23.6769 21.7274 23.6769 20.6639C23.6769 19.6005 22.8171 18.7384 21.7565 18.7384C20.6959 18.7384 19.8361 19.6005 19.8361 20.6639ZM8.49905 24.1395H23.4918C24.3913 24.1395 25.2159 23.6635 25.6657 22.8618C26.1155 22.06 26.1155 21.133 25.6407 20.3563L17.9195 7.1024C17.5197 6.40087 16.795 6 15.9954 6C15.1958 6 14.4712 6.40087 14.0713 7.1024L6.35009 20.3563C5.90031 21.133 5.87532 22.0851 6.3251 22.8868C6.77488 23.6635 7.59948 24.1395 8.49905 24.1395ZM17.9156 10.5154C17.9156 11.5788 17.0558 12.4409 15.9952 12.4409C14.9347 12.4409 14.0749 11.5788 14.0749 10.5154C14.0749 9.45195 14.9347 8.58987 15.9952 8.58987C17.0558 8.58987 17.9156 9.45195 17.9156 10.5154Z" stroke="black" stroke-width="0.8" stroke-miterlimit="10"/>
</svg>
