<svg width="32" height="32" viewBox="0 0 32 32" fill="none" xmlns="http://www.w3.org/2000/svg">
<path d="M19.433 13.925L19.8323 13.901L19.433 13.925ZM19.6541 12.9899L19.3079 12.7895H19.3079L19.6541 12.9899ZM19.239 15.3317L19.5849 15.5325L19.239 15.3317ZM19.4613 14.3943L19.062 14.4184L19.4613 14.3943ZM16.4607 8.07732C16.2397 8.07732 16.0607 8.2564 16.0607 8.47732C16.0607 8.69823 16.2397 8.87732 16.4607 8.87732V8.07732ZM19.3657 8.04176L19.5625 8.39C19.5699 8.38578 19.5773 8.38132 19.5844 8.37662L19.3657 8.04176ZM22.3503 6.64697L22.7498 6.62728C22.7393 6.41428 22.5635 6.24697 22.3503 6.24697V6.64697ZM23.6367 12.3516L23.9079 12.0576C23.9018 12.0519 23.8955 12.0465 23.889 12.0412L23.6367 12.3516ZM23.5324 12.2668L23.7847 11.9564C23.7657 11.941 23.7454 11.9273 23.7239 11.9156L23.5324 12.2668ZM22.5898 12.0471L22.571 11.6474L22.5623 11.648L22.5898 12.0471ZM22.2498 12.0355L22.1986 12.4324L22.2088 12.4334L22.2498 12.0355ZM21.0434 10.0094C21.0718 9.79027 20.9172 9.58966 20.6981 9.56127C20.479 9.53289 20.2784 9.68748 20.25 9.90656L21.0434 10.0094ZM24.8746 12.8531L24.5602 12.6059L24.8746 12.8531ZM24.3561 13.0227L24.2485 13.4079L24.3561 13.0227ZM25.2555 11.9808L25.6115 11.7984L25.2555 11.9808ZM25.2116 12.4245L25.5261 12.6717L25.2116 12.4245ZM22.383 7.31032L21.9835 7.33002V7.33002L22.383 7.31032ZM22.5723 7.80227L22.2611 8.05349L22.5723 7.80227ZM24.0852 12.8371L23.7702 13.0836L24.0852 12.8371ZM20.8773 7.05409L20.6585 6.71923V6.71923L20.8773 7.05409ZM24.366 10.2838C24.5141 10.1199 24.5012 9.86695 24.3372 9.7189C24.1732 9.57085 23.9203 9.58375 23.7722 9.74771L24.366 10.2838ZM21.945 11.7713C21.797 11.9353 21.8099 12.1882 21.9738 12.3363C22.1378 12.4843 22.3907 12.4714 22.5388 12.3074L21.945 11.7713ZM14.5565 9.94472C14.3356 9.94472 14.1565 10.1238 14.1565 10.3447C14.1565 10.5656 14.3356 10.7447 14.5565 10.7447V9.94472ZM19.8781 12.3946C20.08 12.4841 20.3163 12.3929 20.4058 12.1909C20.4953 11.9889 20.4041 11.7526 20.2022 11.6632L19.8781 12.3946ZM16.5618 10.4876L16.3998 10.8533L16.5618 10.4876ZM13.392 11.8409C13.171 11.8409 12.992 12.0199 12.992 12.2409C12.992 12.4618 13.171 12.6409 13.392 12.6409V11.8409ZM14.5084 12.6409C14.7293 12.6409 14.9084 12.4618 14.9084 12.2409C14.9084 12.0199 14.7293 11.8409 14.5084 11.8409V12.6409ZM18.8976 15.2549C18.7016 15.3569 18.6255 15.5984 18.7275 15.7944C18.8295 15.9903 19.071 16.0665 19.267 15.9645L18.8976 15.2549ZM21.1472 20.9597C20.962 21.0801 20.9096 21.3279 21.03 21.5131C21.1505 21.6983 21.3982 21.7508 21.5834 21.6303L21.1472 20.9597ZM23.1612 20.1269L22.9431 19.7916L23.1612 20.1269ZM22.9534 16.7288L23.0702 16.3463L22.9534 16.7288ZM19.6433 17.1223C19.4271 17.077 19.2151 17.2156 19.1698 17.4318C19.1245 17.648 19.2631 17.86 19.4793 17.9053L19.6433 17.1223ZM20.4543 19.603C20.2607 19.7093 20.1899 19.9525 20.2962 20.1461C20.4025 20.3398 20.6456 20.4106 20.8393 20.3043L20.4543 19.603ZM22.0879 19.1626L22.2803 19.5133L22.0879 19.1626ZM21.9728 18.0187L21.8908 18.4102L21.9728 18.0187ZM16.0921 16.2973C15.9333 16.1437 15.6801 16.148 15.5265 16.3068C15.3729 16.4656 15.3771 16.7188 15.536 16.8724L16.0921 16.2973ZM19.113 20.289L19.4671 20.1029L19.4503 20.0708L19.4279 20.0423L19.113 20.289ZM22.2266 22.6363L21.8932 22.8573L21.9144 22.8893L21.9414 22.9167L22.2266 22.6363ZM20.2604 19.6684L19.8991 19.8402L19.9113 19.8657L19.9269 19.8893L20.2604 19.6684ZM18.5781 15.1989C18.4832 14.9994 18.2446 14.9146 18.0451 15.0094C17.8455 15.1043 17.7607 15.3429 17.8556 15.5424L18.5781 15.1989ZM23.4785 23.9101L23.1932 24.1905L23.4785 23.9101ZM21.8268 24.6838L21.4671 24.8588L21.8268 24.6838ZM21.1993 23.613L20.9625 23.9353L21.1993 23.613ZM21.4552 23.92L21.8149 23.745L21.4552 23.92ZM20.5573 23.0368L20.9114 22.8507L20.5573 23.0368ZM20.8015 23.3206L21.0383 22.9982L20.8015 23.3206ZM16.5002 17.092L16.3085 17.443L16.5002 17.092ZM16.803 17.3402L17.1179 17.0935L16.803 17.3402ZM13.2051 14.4425C13.426 14.4425 13.6051 14.2634 13.6051 14.0425C13.6051 13.8216 13.426 13.6425 13.2051 13.6425V14.4425ZM7.80799 13.6425C7.58708 13.6425 7.40799 13.8216 7.40799 14.0425C7.40799 14.2634 7.58708 14.4425 7.80799 14.4425V13.6425ZM15.3607 20.7854C15.3607 23.0872 13.4947 24.9532 11.1929 24.9532V25.7532C13.9366 25.7532 16.1607 23.5291 16.1607 20.7854H15.3607ZM11.1929 24.9532C8.89111 24.9532 7.02512 23.0872 7.02512 20.7854H6.22512C6.22512 23.5291 8.44928 25.7532 11.1929 25.7532V24.9532ZM7.02512 20.7854C7.02512 18.4836 8.89111 16.6176 11.1929 16.6176V15.8176C8.44928 15.8176 6.22512 18.0418 6.22512 20.7854H7.02512ZM11.1929 16.6176C13.4947 16.6176 15.3607 18.4836 15.3607 20.7854H16.1607C16.1607 18.0418 13.9366 15.8176 11.1929 15.8176V16.6176ZM19.0765 16.408L19.5849 15.5325L18.893 15.1308L18.3847 16.0062L19.0765 16.408ZM19.8606 14.3702L19.8323 13.901L19.0337 13.9491L19.062 14.4184L19.8606 14.3702ZM20.0003 13.1902L21.1534 11.1976L20.461 10.7969L19.3079 12.7895L20.0003 13.1902ZM19.8323 13.901C19.8173 13.6527 19.8757 13.4055 20.0003 13.1902L19.3079 12.7895C19.1046 13.1407 19.0093 13.5441 19.0337 13.9491L19.8323 13.901ZM19.5849 15.5325C19.7892 15.1807 19.8851 14.7764 19.8606 14.3702L19.062 14.4184C19.0771 14.6673 19.0183 14.9152 18.893 15.1308L19.5849 15.5325ZM16.4607 8.87732C17.5039 8.87732 18.458 9.01418 19.5625 8.39L19.1688 7.69353C18.2954 8.18714 17.6193 8.07732 16.4607 8.07732V8.87732ZM19.5844 8.37662L21.0961 7.38895L20.6585 6.71923L19.1469 7.7069L19.5844 8.37662ZM22.2447 7.04697H22.3503V6.24697H22.2447V7.04697ZM21.9508 6.66666L21.9835 7.33002L22.7825 7.29063L22.7498 6.62728L21.9508 6.66666ZM22.2611 8.05349C23.2886 9.32664 24.1487 10.6975 24.8995 12.1632L25.6115 11.7984C24.8398 10.292 23.9508 8.87339 22.8836 7.55105L22.2611 8.05349ZM24.8972 12.1773L24.5602 12.6059L25.1891 13.1004L25.5261 12.6717L24.8972 12.1773ZM24.4003 12.5906C24.2503 12.399 24.0854 12.2213 23.9079 12.0576L23.3654 12.6456C23.5125 12.7813 23.6479 12.9273 23.7702 13.0836L24.4003 12.5906ZM23.889 12.0412L23.7847 11.9564L23.28 12.5772L23.3843 12.662L23.889 12.0412ZM23.7239 11.9156C23.3717 11.7235 22.9747 11.6286 22.571 11.6475L22.6085 12.4466C22.8616 12.4348 23.1135 12.494 23.3408 12.6179L23.7239 11.9156ZM22.5623 11.648C22.4846 11.6534 22.3955 11.6484 22.2909 11.6376L22.2088 12.4334C22.3282 12.4457 22.4709 12.4562 22.6172 12.4461L22.5623 11.648ZM22.301 11.6388C21.5041 11.536 20.9404 10.8038 21.0434 10.0094L20.25 9.90656C20.0902 11.1395 20.9636 12.2729 22.1987 12.4322L22.301 11.6388ZM24.5602 12.6059C24.5374 12.6349 24.4993 12.6474 24.4638 12.6374L24.2485 13.4079C24.5954 13.5048 24.9665 13.3835 25.1891 13.1004L24.5602 12.6059ZM24.8995 12.1632C24.901 12.166 24.9016 12.1716 24.8972 12.1773L25.5261 12.6717C25.7211 12.4237 25.7572 12.0829 25.6115 11.7984L24.8995 12.1632ZM21.9835 7.33002C21.9966 7.59719 22.0965 7.84956 22.2611 8.05349L22.8836 7.55105C22.8219 7.47464 22.7871 7.38327 22.7825 7.29063L21.9835 7.33002ZM24.4638 12.6374C24.4464 12.6326 24.4227 12.6192 24.4003 12.5906L23.7702 13.0836C23.8862 13.2318 24.0496 13.3524 24.2485 13.4079L24.4638 12.6374ZM21.0961 7.38895C21.4376 7.16581 21.8368 7.04697 22.2447 7.04697V6.24697C21.6813 6.24697 21.1302 6.41108 20.6585 6.71923L21.0961 7.38895ZM23.7722 9.74771L21.945 11.7713L22.5388 12.3074L24.366 10.2838L23.7722 9.74771ZM14.5565 10.7447H15.8866V9.94472H14.5565V10.7447ZM16.3998 10.8533L19.8781 12.3946L20.2022 11.6632L16.7238 10.1219L16.3998 10.8533ZM15.8866 10.7447C16.0634 10.7447 16.2382 10.7817 16.3998 10.8533L16.7238 10.1219C16.4602 10.0051 16.175 9.94472 15.8866 9.94472V10.7447ZM13.392 12.6409H14.5084V11.8409H13.392V12.6409ZM19.267 15.9645C19.1924 16.0033 19.1258 16.0069 19.1149 16.0076C19.0924 16.0092 19.0756 16.0082 19.0696 16.0078C19.0569 16.007 19.0509 16.0057 19.0572 16.0067C19.0677 16.0085 19.09 16.0131 19.1275 16.0219C19.2005 16.0391 19.3071 16.0669 19.4423 16.104C19.7113 16.1777 20.0781 16.2836 20.4825 16.4028C21.2904 16.6408 22.2396 16.9291 22.8366 17.1114L23.0702 16.3463C22.4726 16.1638 21.5204 15.8746 20.7086 15.6354C20.303 15.5159 19.9303 15.4082 19.6537 15.3324C19.5161 15.2947 19.3984 15.2638 19.311 15.2432C19.2683 15.2332 19.2264 15.224 19.1906 15.218C19.1737 15.2151 19.1491 15.2113 19.1224 15.2096C19.1094 15.2087 19.0869 15.2077 19.0598 15.2095C19.0442 15.2106 18.9743 15.2149 18.8976 15.2549L19.267 15.9645ZM23.1402 17.524V19.4283H23.9402V17.524H23.1402ZM22.9431 19.7916L21.1472 20.9597L21.5834 21.6303L23.3793 20.4622L22.9431 19.7916ZM23.1402 19.4283C23.1402 19.575 23.066 19.7116 22.9431 19.7916L23.3793 20.4622C23.7292 20.2347 23.9402 19.8457 23.9402 19.4283H23.1402ZM22.8366 17.1114C23.0169 17.1665 23.1402 17.3328 23.1402 17.524H23.9402C23.9402 16.9836 23.5896 16.5049 23.0702 16.3463L22.8366 17.1114ZM19.4793 17.9053L21.8908 18.4102L22.0548 17.6272L19.6433 17.1223L19.4793 17.9053ZM21.904 18.4265V18.7974H22.704V18.4265H21.904ZM21.8954 18.812L20.4543 19.603L20.8393 20.3043L22.2803 19.5133L21.8954 18.812ZM21.904 18.7974C21.904 18.8035 21.9007 18.8091 21.8954 18.812L22.2803 19.5133C22.5416 19.3699 22.704 19.0955 22.704 18.7974H21.904ZM21.8908 18.4102C21.8985 18.4118 21.904 18.4186 21.904 18.4265H22.704C22.704 18.04 22.4331 17.7064 22.0548 17.6272L21.8908 18.4102ZM15.536 16.8724C15.7642 17.0931 16.0224 17.2868 16.3085 17.443L16.692 16.741C16.4724 16.621 16.2717 16.471 16.0921 16.2973L15.536 16.8724ZM16.4882 17.5869L18.7982 20.5357L19.4279 20.0423L17.1179 17.0935L16.4882 17.5869ZM18.759 20.4751L20.2032 23.2229L20.9114 22.8507L19.4671 20.1029L18.759 20.4751ZM20.5646 23.6429L20.9625 23.9353L21.4362 23.2907L21.0383 22.9982L20.5646 23.6429ZM21.0955 24.0949L21.4671 24.8588L22.1865 24.5088L21.8149 23.745L21.0955 24.0949ZM22.2015 25.3182H23.1814V24.5182H22.2015V25.3182ZM23.998 24.5015V24.2021H23.198V24.5015H23.998ZM23.7638 23.6297L22.5119 22.356L21.9414 22.9167L23.1932 24.1905L23.7638 23.6297ZM22.5601 22.4154L20.5938 19.4475L19.9269 19.8893L21.8932 22.8573L22.5601 22.4154ZM20.6216 19.4966L18.5781 15.1989L17.8556 15.5424L19.8991 19.8402L20.6216 19.4966ZM23.998 24.2021C23.998 23.988 23.9139 23.7824 23.7638 23.6297L23.1932 24.1905C23.1963 24.1936 23.198 24.1978 23.198 24.2021H23.998ZM21.4671 24.8588C21.6038 25.1398 21.8889 25.3182 22.2015 25.3182V24.5182C22.1951 24.5182 22.1893 24.5146 22.1865 24.5088L21.4671 24.8588ZM20.9625 23.9353C21.0191 23.9769 21.0648 24.0317 21.0955 24.0949L21.8149 23.745C21.7274 23.5651 21.5974 23.4092 21.4362 23.2907L20.9625 23.9353ZM20.2032 23.2229C20.2903 23.3885 20.4138 23.5321 20.5646 23.6429L21.0383 22.9982C20.9854 22.9593 20.942 22.9089 20.9114 22.8507L20.2032 23.2229ZM23.1814 25.3182C23.6324 25.3182 23.998 24.9526 23.998 24.5015H23.198C23.198 24.5107 23.1906 24.5182 23.1814 24.5182V25.3182ZM16.3085 17.443C16.3889 17.487 16.4481 17.5358 16.4882 17.5869L17.1179 17.0935C16.9953 16.937 16.843 16.8234 16.692 16.741L16.3085 17.443ZM13.2051 13.6425H7.80799V14.4425H13.2051V13.6425Z" fill="black"/>
</svg>
