<svg width="32" height="32" viewBox="0 0 32 32" fill="none" xmlns="http://www.w3.org/2000/svg">
<path d="M14.0779 22.2366C13.6081 22.5783 13.0101 22.7919 12.3694 22.7919M15.274 23.6461C14.4624 24.2441 13.48 24.5858 12.4122 24.5858C9.80675 24.5858 7.67112 22.4929 7.67112 19.8447C7.67112 17.1965 9.80675 15.1036 12.4122 15.1036C13.5228 15.1036 14.5479 15.488 15.3594 16.1287M19.8438 10.4052C19.2459 11.3449 18.9469 12.2419 18.8615 13.0534C18.6052 15.0609 19.4167 16.684 19.4167 17.5382M12.5828 17.2392C13.8215 14.2066 16.1279 11.3022 18.3917 10.5333C20.0575 9.97808 21.8087 9.97808 23.0474 9.97808M13.0798 12.3422C10.6096 11.7963 8.71534 9.7204 8.71534 9.7204C8.71534 9.7204 11.19 6.76356 14.2662 6.71955C16.0178 6.70041 17.6292 7.57644 18.6866 8.35958M24.3288 19.802C24.3288 22.3969 22.2253 24.5004 19.6304 24.5004C17.0356 24.5004 14.9321 22.3969 14.9321 19.802C14.9321 17.2071 17.0356 15.1036 19.6304 15.1036C22.2253 15.1036 24.3288 17.2071 24.3288 19.802Z" stroke="black" stroke-width="0.8" stroke-miterlimit="10" stroke-linecap="round"/>
</svg>
