<svg width="32" height="32" viewBox="0 0 32 32" fill="none" xmlns="http://www.w3.org/2000/svg">
<path d="M17.7883 18.7166C17.5497 18.9116 17.2949 19.0789 17.032 19.2324C13.781 21.1309 9.61754 20.0374 7.71905 16.7863C5.82055 13.5353 6.9141 9.37182 10.1652 7.47333C12.9597 5.84143 16.4506 6.41868 18.5804 8.6998M9.24214 10.9444C9.19721 11.0263 9.15227 11.1082 9.13268 11.1382C8.48168 12.2789 8.18936 13.5257 8.21876 14.7515M13.15 20.146C13.15 20.146 12.4846 19.9595 11.9457 19.2909C10.2807 17.2021 9.95067 14.2225 11.3564 11.769C11.3956 11.709 11.4658 11.5752 11.5304 11.4634M13.6774 18.3168C13.7708 18.3179 13.8642 18.319 13.8999 18.3167C15.0981 18.3034 16.22 18.0008 17.2045 17.4629M18.7488 13.2773C17.5307 14.9719 15.5558 16.0695 13.3164 16.0786C13.2449 16.0833 13.0938 16.0787 12.9647 16.0799M7.98701 9.58973C7.98701 9.58973 8.41801 9.08812 9.2713 8.96087C11.9165 8.5664 14.6581 9.76671 16.0881 12.2154C16.1285 12.2845 16.2012 12.4091 16.2658 12.5197M7.15039 11.5301C7.15615 11.5082 10.9014 9.4007 13.5774 13.3479M13.5774 13.3479C11.5095 17.6537 15.2624 19.9512 15.2843 19.957M13.5774 13.3479C16.4926 13.1297 17.672 11.4016 18.1465 10.0856M18.4565 21.9714C17.8407 22.3125 17.1973 22.5788 16.5295 22.8052C15.5543 23.1284 14.5456 23.3073 13.5248 23.3468C13.3425 23.3486 13.1603 23.3504 12.9647 23.3604M21.6067 11.2569L21.0611 9.72193C20.9091 9.3422 20.867 8.903 20.9744 8.54294C21.0754 8.20405 21.3894 7.96324 21.7524 7.94463C21.9895 7.92305 22.2035 8.05605 22.315 8.26227L24.3743 12.3011C24.7716 13.1345 24.9478 14.0519 24.8509 14.957C24.7106 16.472 24.5751 17.7 24.457 18.5989C24.3965 19.1113 24.553 19.6307 24.8733 20.0261L25.4712 20.7924M23.1355 15.1029L23.1774 14.2275C23.2067 13.3944 22.9915 12.5691 22.5489 11.8491L22.3865 11.5815C22.2389 11.3415 21.9212 11.2468 21.6738 11.3806C21.6738 11.3806 21.66 11.388 21.6537 11.4092C21.2606 11.7994 21.1251 12.3702 21.2678 12.897C21.5384 13.9233 21.1238 14.7337 21.1238 14.7337C19.6994 16.7653 19.8605 18.7391 20.8602 20.2595L23.0149 24.38" stroke="black" stroke-width="0.8" stroke-miterlimit="10" stroke-linecap="round" stroke-linejoin="round"/>
</svg>
