<svg width="32" height="32" viewBox="0 0 32 32" fill="none" xmlns="http://www.w3.org/2000/svg">
<path d="M12.3952 8.24436C12.2779 8.05714 12.0311 8.00045 11.8439 8.11772C11.6566 8.235 11.5999 8.48184 11.7172 8.66905L12.3952 8.24436ZM12.1883 8.6676L12.5324 8.46336L12.5273 8.45525L12.1883 8.6676ZM16.6728 11.4903L16.7624 11.1004C16.743 11.096 16.7234 11.093 16.7037 11.0914L16.6728 11.4903ZM16.7246 11.4893L16.7544 11.0904C16.7128 11.0873 16.6709 11.0907 16.6304 11.1005L16.7246 11.4893ZM25.4319 12.7154L25.8217 12.8049C25.8543 12.663 25.8072 12.5146 25.6988 12.4175L25.4319 12.7154ZM23.3807 21.6459L23.1126 21.9427C23.2179 22.0378 23.3656 22.07 23.5009 22.0274C23.6362 21.9847 23.7388 21.8736 23.7705 21.7354L23.3807 21.6459ZM19.1719 20.318L19.178 19.9181L19.1747 19.9181L19.1719 20.318ZM14.6734 20.4197L14.642 20.8185L14.6437 20.8186L14.6734 20.4197ZM10.9637 18.8841L11.2452 18.5998L11.2404 18.5952L10.9637 18.8841ZM9.95435 17.6077L9.56382 17.5211C9.5429 17.6155 9.55689 17.7143 9.60321 17.7992L9.95435 17.6077ZM12.1293 7.79121L11.7394 7.70166L11.7387 7.70468L12.1293 7.79121ZM11.5914 6.93256L11.6809 6.54271L11.5914 6.93256ZM10.7327 7.47044L10.3429 7.3809L10.3424 7.38288L10.7327 7.47044ZM9.90956 19.6439C9.95892 19.4286 9.82437 19.214 9.60905 19.1646C9.39372 19.1153 9.17914 19.2498 9.12978 19.4651L9.90956 19.6439ZM7.4391 25.4154L7.34956 25.8053L7.4391 25.4154ZM8.29981 24.876L7.90993 24.7866L8.29981 24.876ZM6.89916 24.5583L6.50886 24.4708L6.89916 24.5583ZM20.6884 13.7152L20.6771 14.115L20.6815 14.1151L20.6884 13.7152ZM20.3012 13.7165L20.3126 13.3167L19.9848 13.3074L19.9114 13.627L20.3012 13.7165ZM19.7948 15.9216L19.4049 15.832L19.2957 16.3076L19.7834 16.3214L19.7948 15.9216ZM20.182 15.9202L20.1706 16.3201L20.1751 16.3202L20.182 15.9202ZM22.2049 16.1527L22.1082 16.5408L22.5035 16.6394L22.5948 16.2423L22.2049 16.1527ZM22.7114 13.9477L23.1012 14.0372L23.1891 13.6545L22.8081 13.5595L22.7114 13.9477ZM17.3031 16.0457L17.2895 15.6459L16.9821 15.6563L16.9132 15.9561L17.3031 16.0457ZM16.7797 18.3242L16.3899 18.2347L16.2734 18.7416L16.7933 18.724L16.7797 18.3242ZM19.2686 18.2124L19.2704 18.6124L19.5875 18.6109L19.6585 18.3019L19.2686 18.2124ZM19.792 15.9338L20.1818 16.0234L20.2948 15.5316L19.7902 15.5338L19.792 15.9338ZM12.6121 15.0198L12.8401 14.6911L12.3545 14.3544L12.2223 14.9302L12.6121 15.0198ZM12.0888 17.2983L11.6989 17.2088L11.6374 17.4769L11.8656 17.6303L12.0888 17.2983ZM14.347 18.191L14.2755 18.5846L14.6513 18.6528L14.7368 18.2806L14.347 18.191ZM14.8675 15.9247L15.2574 16.0143L15.3497 15.6122L14.945 15.5323L14.8675 15.9247ZM15.6835 16.0219L15.7183 15.6234L15.7101 15.6227L15.7018 15.6223L15.6835 16.0219ZM17.3058 16.0334L17.3294 16.4327L17.6285 16.415L17.6956 16.1229L17.3058 16.0334ZM17.8123 13.8283L18.2021 13.9179L18.3181 13.4128L17.8001 13.4285L17.8123 13.8283ZM16.1899 13.8168L16.1564 14.2155L16.1657 14.2161L16.1899 13.8168ZM15.3768 13.7074L15.4485 13.3139L15.0725 13.2454L14.9869 13.6179L15.3768 13.7074ZM14.8703 15.9125L14.4805 15.8229L14.3909 16.2128L14.7808 16.3023L14.8703 15.9125ZM11.7172 8.66905L11.8493 8.87995L12.5273 8.45525L12.3952 8.24436L11.7172 8.66905ZM11.8443 8.87178C12.8565 10.5769 14.6442 11.7345 16.642 11.8891L16.7037 11.0914C14.976 10.9578 13.417 9.95382 12.5323 8.46342L11.8443 8.87178ZM16.5833 11.8801C16.59 11.8816 16.6303 11.8917 16.6817 11.8931C16.7329 11.8946 16.779 11.8877 16.8189 11.878L16.6304 11.1005C16.643 11.0975 16.6693 11.0925 16.7044 11.0935C16.7398 11.0945 16.7679 11.1017 16.7624 11.1004L16.5833 11.8801ZM16.6949 11.8881C17.4702 11.9459 18.243 11.9172 18.9961 11.8767C19.7565 11.8359 20.4893 11.7837 21.221 11.7876L21.2252 10.9876C20.4627 10.9836 19.6944 11.038 18.9531 11.0779C18.2046 11.1181 17.4752 11.1441 16.7544 11.0904L16.6949 11.8881ZM21.221 11.7876C22.6762 11.7953 24.1491 12.1034 25.165 13.0134L25.6988 12.4175C24.4686 11.3155 22.7584 10.9957 21.2252 10.9876L21.221 11.7876ZM25.042 12.6259L22.9908 21.5563L23.7705 21.7354L25.8217 12.8049L25.042 12.6259ZM23.6488 21.349C22.429 20.2475 20.7133 19.9415 19.178 19.9181L19.1658 20.718C20.6377 20.7405 22.1107 21.0379 23.1126 21.9427L23.6488 21.349ZM19.1747 19.9181C18.4056 19.9126 17.6371 19.9671 16.8971 20.0073C16.1499 20.0478 15.4238 20.0745 14.7032 20.0208L14.6437 20.8186C15.4192 20.8764 16.1891 20.8469 16.9405 20.8061C17.6991 20.7649 18.4318 20.7128 19.169 20.718L19.1747 19.9181ZM14.7049 20.0209C13.3984 19.9179 12.1245 19.4706 11.2452 18.5999L10.6823 19.1684C11.7362 20.2119 13.2123 20.7057 14.642 20.8185L14.7049 20.0209ZM10.9637 18.8841C11.2404 18.5952 11.2404 18.5953 11.2404 18.5953C11.2405 18.5953 11.2405 18.5953 11.2405 18.5953C11.2405 18.5954 11.2405 18.5954 11.2405 18.5954C11.2406 18.5954 11.2405 18.5954 11.2405 18.5953C11.2403 18.5952 11.2401 18.5949 11.2396 18.5945C11.2388 18.5937 11.2373 18.5922 11.2352 18.5903C11.2312 18.5863 11.2248 18.58 11.2163 18.5717C11.1994 18.5549 11.1743 18.5297 11.1428 18.4973C11.0796 18.4323 10.9915 18.3387 10.8929 18.2259C10.6925 17.9967 10.462 17.703 10.3055 17.4161L9.60321 17.7992C9.80062 18.1611 10.0748 18.5056 10.2906 18.7524C10.4001 18.8777 10.498 18.9816 10.5688 19.0545C10.6043 19.0911 10.6331 19.12 10.6534 19.1401C10.6636 19.1502 10.6716 19.158 10.6773 19.1636C10.6801 19.1663 10.6824 19.1685 10.684 19.1701C10.6848 19.1709 10.6855 19.1715 10.686 19.172C10.6863 19.1722 10.6865 19.1724 10.6866 19.1726C10.6867 19.1727 10.6868 19.1728 10.6869 19.1728C10.6869 19.1729 10.6869 19.1729 10.687 19.1729C10.687 19.173 10.687 19.173 10.9637 18.8841ZM10.3449 17.6942L12.5198 7.87773L11.7387 7.70468L9.56382 17.5211L10.3449 17.6942ZM12.5191 7.88075C12.6596 7.26899 12.2715 6.67836 11.6809 6.54271L11.5018 7.32241C11.6708 7.36121 11.779 7.52941 11.7394 7.70167L12.5191 7.88075ZM11.6809 6.54271C11.0692 6.4022 10.4785 6.7903 10.3429 7.3809L11.1226 7.55999C11.1614 7.39107 11.3296 7.28284 11.5018 7.32241L11.6809 6.54271ZM10.3424 7.38288L6.50886 24.4708L7.28946 24.6459L11.123 7.55801L10.3424 7.38288ZM8.6897 24.9654L9.90956 19.6439L9.12978 19.4651L7.90993 24.7866L8.6897 24.9654ZM7.34956 25.8053C7.95159 25.9435 8.55168 25.5674 8.6897 24.9654L7.90993 24.7866C7.87066 24.9579 7.69993 25.0649 7.52864 25.0256L7.34956 25.8053ZM6.50886 24.4708C6.37417 25.0711 6.74987 25.6675 7.34956 25.8053L7.52864 25.0256C7.35803 24.9864 7.25114 24.8167 7.28946 24.6459L6.50886 24.4708ZM20.6998 13.3153C20.6246 13.3132 20.5503 13.3147 20.4872 13.3159C20.4207 13.3172 20.3655 13.3182 20.3126 13.3167L20.2899 14.1163C20.3651 14.1185 20.4394 14.117 20.5025 14.1158C20.569 14.1145 20.6242 14.1135 20.6771 14.115L20.6998 13.3153ZM19.9114 13.627L19.4049 15.832L20.1846 16.0111L20.6911 13.806L19.9114 13.627ZM19.7834 16.3214C19.8586 16.3235 19.933 16.322 19.9961 16.3208C20.0625 16.3195 20.1177 16.3186 20.1706 16.3201L20.1933 15.5204C20.1181 15.5182 20.0438 15.5197 19.9807 15.521C19.9143 15.5222 19.8591 15.5232 19.8061 15.5217L19.7834 16.3214ZM20.1751 16.3202C20.8275 16.3314 21.4904 16.3869 22.1082 16.5408L22.3017 15.7646C21.602 15.5902 20.8724 15.5321 20.1889 15.5203L20.1751 16.3202ZM22.5948 16.2423L23.1012 14.0372L22.3215 13.8581L21.8151 16.0632L22.5948 16.2423ZM22.8081 13.5595C22.1085 13.3852 21.3789 13.3271 20.6954 13.3152L20.6815 14.1151C21.334 14.1264 21.9969 14.1818 22.6146 14.3358L22.8081 13.5595ZM16.9132 15.9561L16.3899 18.2347L17.1696 18.4137L17.6929 16.1352L16.9132 15.9561ZM16.7933 18.724C17.6687 18.6943 18.4417 18.616 19.2704 18.6124L19.2669 17.8124C18.4431 17.816 17.5544 17.8977 16.7662 17.9244L16.7933 18.724ZM19.6585 18.3019L20.1818 16.0234L19.4021 15.8443L18.8788 18.1228L19.6585 18.3019ZM19.7902 15.5338C18.9665 15.5375 18.0778 15.6192 17.2895 15.6459L17.3166 16.4454C18.192 16.4158 18.9651 16.3375 19.7938 16.3338L19.7902 15.5338ZM12.2223 14.9302L11.6989 17.2088L12.4786 17.3879L13.002 15.1093L12.2223 14.9302ZM11.8656 17.6303C12.5875 18.1155 13.4238 18.4299 14.2755 18.5846L14.4184 17.7975C13.6607 17.6598 12.9307 17.3823 12.3119 16.9664L11.8656 17.6303ZM14.7368 18.2806L15.2574 16.0143L14.4777 15.8352L13.9571 18.1015L14.7368 18.2806ZM14.945 15.5323C14.1811 15.3814 13.4506 15.1144 12.8401 14.6911L12.3842 15.3485C13.1086 15.8508 13.9501 16.1512 14.79 16.3171L14.945 15.5323ZM15.6487 16.4203C16.217 16.47 16.78 16.4651 17.3294 16.4327L17.2822 15.6341C16.7595 15.6649 16.2372 15.6687 15.7183 15.6234L15.6487 16.4203ZM17.6956 16.1229L18.2021 13.9179L17.4224 13.7388L16.9159 15.9438L17.6956 16.1229ZM17.8001 13.4285C17.2597 13.4449 16.7308 13.4489 16.2142 13.4176L16.1657 14.2161C16.7175 14.2496 17.2739 14.2449 17.8244 14.2282L17.8001 13.4285ZM16.2234 13.4182C15.9716 13.397 15.7093 13.3615 15.4485 13.3139L15.305 14.1009C15.589 14.1527 15.8769 14.1919 16.1564 14.2154L16.2234 13.4182ZM14.9869 13.6179L14.4805 15.8229L15.2602 16.002L15.7666 13.797L14.9869 13.6179ZM14.7808 16.3023C15.0751 16.3699 15.3619 16.4075 15.6651 16.4214L15.7018 15.6223C15.4435 15.6104 15.2045 15.5788 14.9599 15.5226L14.7808 16.3023Z" fill="black"/>
</svg>
