<svg width="32" height="32" fill="none" xmlns="http://www.w3.org/2000/svg"><path d="M16.673 13.57a.5.5 0 1 0-.852-.523l.852.523Zm-.971 3.946.478-.145-.003-.01-.475.155Zm2.966 3.155-.191.462h.001l.19-.462Zm2.086 1.569.428-.26a.53.53 0 0 0-.018-.027l-.41.287Zm.377.619-.427.26.427-.26Zm.625 1.675-.47.17a.5.5 0 0 0 .148.213l.322-.383Zm1.05.882-.32.383a.5.5 0 0 0 .519.076l-.198-.46Zm2.717-1.174.198.46a.5.5 0 0 0 .302-.474l-.5.014ZM23.775 9.425a.5.5 0 1 0-.97.246l.97-.246Zm-2.947 5.123-.321.383.321-.383Zm.895-1.066-.321.383.321-.383Zm.25 7.834a.5.5 0 1 0-.18-.984l.18.984Zm-3.872-1.46a.5.5 0 1 0-.496.868l.496-.868Zm-1.821 6.526a.5.5 0 1 0 .885-.466l-.885.466Zm.825-6.416a.5.5 0 1 0-.766-.643l.766.643ZM22.887 9.18a.5.5 0 0 0 .787.617l-.787-.617Zm2.183-1.976.394.308a.5.5 0 0 0-.072-.692l-.322.384ZM9.27 11.09l.384.321-.383-.321Zm-3.634 6.796a.5.5 0 1 0 .987.157l-.987-.157ZM24.898 7.06l.322-.383-.322.383Zm-.95-.52.138-.48-.139.48Zm-6.337.287a.5.5 0 0 0-.988.158l.988-.158Zm1.211 13.903a.5.5 0 1 0 .988-.158l-.988.158ZM8.027 13.774a.5.5 0 0 0-.99.142l.99-.142Zm7.415 8.993a.5.5 0 0 0 .23-.973l-.23.973Zm.378-9.72c-.883 1.442-1.074 3.147-.594 4.624l.951-.31c-.387-1.19-.239-2.592.496-3.791l-.852-.523Zm-.596 4.614c.493 1.624 1.712 2.837 3.253 3.472l.381-.924c-1.298-.536-2.282-1.536-2.678-2.838l-.956.29Zm3.254 3.473c.785.32 1.421.757 1.867 1.393l.819-.574c-.588-.837-1.403-1.375-2.307-1.745l-.379.926Zm1.85 1.366.376.619.854-.52-.376-.619-.855.52Zm.376.619c.161.265.239.469.308.694.066.218.142.53.273.891l.94-.34c-.12-.335-.168-.552-.257-.843a3.8 3.8 0 0 0-.41-.922l-.854.52Zm.73 1.798 1.051.882.643-.766-1.051-.882-.643.766Zm1.571.958 2.716-1.174-.396-.918-2.717 1.174.397.918Zm3.018-1.647c-.154-5.203-.952-9.699-2.248-14.803l-.97.246c1.285 5.058 2.067 9.478 2.218 14.586l1-.03Zm-5.516-9.297c.506.425 1.26.36 1.685-.147l-.766-.643a.196.196 0 0 1-.276.024l-.643.766Zm1.685-.147a1.196 1.196 0 0 0-.148-1.685l-.642.766c.083.07.094.194.024.277l.767.642Zm-.148-1.685a1.196 1.196 0 0 0-1.685.147l.766.643a.196.196 0 0 1 .277-.024l.642-.766Zm-1.685.147a1.196 1.196 0 0 0 .148 1.685l.643-.766a.196.196 0 0 1-.025-.276l-.766-.643Zm1.433 7.086c-1.396.256-2.688.097-3.691-.476l-.496.868c1.257.718 2.801.879 4.368.592l-.18-.984Zm-4.627 5.584c-.689-1.308-.998-2.444-.992-3.42.006-.964.32-1.8.932-2.53l-.766-.643a4.851 4.851 0 0 0-1.166 3.167c-.008 1.19.369 2.49 1.107 3.892l.885-.466Zm6.509-16.118 1.79-2.285-.787-.617-1.79 2.285.787.617Zm1.718-2.977-.172-.144-.643.766.172.145.643-.767Zm-1.306-.76c-5.333-1.542-11.349.12-15.198 4.708l.766.642c3.59-4.279 9.196-5.823 14.154-4.39l.278-.96ZM8.888 10.768a14.65 14.65 0 0 0-3.252 7.117l.987.157a13.65 13.65 0 0 1 3.03-6.632l-.765-.642ZM25.22 6.677a3.12 3.12 0 0 0-1.134-.617l-.278.96c.274.08.534.226.769.423l.643-.766Zm-8.597.308 2.2 13.745.987-.158-2.2-13.745-.987.158Zm-9.586 6.93c.293 2.05 1.391 4.023 2.9 5.596 1.51 1.572 3.46 2.776 5.505 3.256l.23-.973c-1.83-.43-3.617-1.521-5.013-2.976-1.398-1.456-2.375-3.244-2.632-5.044l-.99.142Z" fill="#000"/></svg>