<svg width="32" height="32" viewBox="0 0 32 32" fill="none" xmlns="http://www.w3.org/2000/svg">
<path d="M20.3131 20.0599C19.3332 20.0599 18.0456 20.9958 18.0456 22.0143C18.0456 23.0327 18.8416 23.86 19.8215 23.86H20.7253M12.798 21.1974L12.7594 23.7036C12.7445 24.6723 13.5313 25.4627 14.5 25.4521L19.3606 25.3991C20.3099 25.3887 21.0718 24.612 21.0638 23.6626L21.0325 19.9388M11.1673 13.3845C11.1673 12.7501 10.7012 12.1689 10.0602 12.1075C9.31939 12.0338 8.69508 12.6028 8.69508 13.3149V15.0179C8.69508 18.6115 11.8582 19.3482 13.6104 20.0358H21.0271C21.2519 19.2868 22.488 15.6442 22.4713 10.6181V8.51437M12.6282 15.2799C12.6282 15.2799 14.5927 16.0821 14.5927 19.9498M22.4378 8.74767C21.9675 15.9839 11.1463 15.9798 10.6801 8.74358C10.6552 8.39159 10.6937 8.92216 10.6635 7.98178C10.6593 7.17957 11.3211 6.52881 12.1368 6.52881H20.9853C21.801 6.52881 22.4586 7.17958 22.4586 7.97768C22.4586 8.63933 22.4628 8.3875 22.4378 8.74767Z" stroke="black" stroke-width="0.8" stroke-miterlimit="10" stroke-linecap="round"/>
</svg>
