<svg width="32" height="32" viewBox="0 0 32 32" fill="none" xmlns="http://www.w3.org/2000/svg">
<path d="M20.7274 13.7109C19.0355 10.6031 15.3395 8.0969 10.5714 8.30951M16 16.1991C19.2526 15.1406 22.3921 13.0325 23.5412 10.0377M16 16.1991C15.3124 19.411 15.4752 22.9848 17.1355 25.5M16 16.1991C13.4712 13.8513 10.119 12.1277 6.99762 12.6163M15.7557 21.6231C17.7874 21.6315 19.7801 21.0657 21.5041 19.9907C23.2281 18.9158 24.6133 17.3756 25.5 15.5476M11.5259 13.2857C10.5461 15.0175 10.0493 16.9807 10.0875 18.9702C10.1257 20.9596 10.6975 22.9023 11.7431 24.5952M25.5 16C25.5 21.2467 21.2467 25.5 16 25.5C10.7533 25.5 6.5 21.2467 6.5 16C6.5 10.7533 10.7533 6.5 16 6.5C21.2467 6.5 25.5 10.7533 25.5 16Z" stroke="black" stroke-miterlimit="10"/>
</svg>
