<svg width="32" height="32" viewBox="0 0 32 32" fill="none" xmlns="http://www.w3.org/2000/svg">
<path d="M24.2923 14.652L24.5965 14.3923L24.2923 14.652ZM23.8611 20.1036L23.6015 19.7993L23.8611 20.1036ZM18.4096 19.6724L18.7139 19.4128L18.4096 19.6724ZM18.8407 14.2209L18.5811 13.9166L18.8407 14.2209ZM22.2205 16.4604C22.0104 16.5286 21.8953 16.7542 21.9635 16.9644C22.0317 17.1745 22.2573 17.2896 22.4674 17.2214L22.2205 16.4604ZM23.2174 16.978C23.4275 16.9098 23.5426 16.6842 23.4744 16.4741C23.4062 16.264 23.1806 16.1489 22.9705 16.2171L23.2174 16.978ZM22.5945 17.4592C22.416 17.5893 22.3767 17.8395 22.5068 18.0181C22.6369 18.1966 22.8871 18.2359 23.0656 18.1058L22.5945 17.4592ZM23.6995 17.6439C23.878 17.5138 23.9173 17.2636 23.7872 17.085C23.6571 16.9065 23.4069 16.8672 23.2283 16.9973L23.6995 17.6439ZM23.2515 18.3157C23.1223 18.495 23.163 18.745 23.3422 18.8741C23.5215 19.0032 23.7714 18.9626 23.9006 18.7833L23.2515 18.3157ZM24.3682 18.1342C24.4973 17.955 24.4567 17.705 24.2774 17.5759C24.0982 17.4468 23.8482 17.4874 23.7191 17.6666L24.3682 18.1342ZM22.4577 14.3532C22.2469 14.287 22.0224 14.4041 21.9562 14.6149C21.89 14.8257 22.0072 15.0502 22.2179 15.1164L22.4577 14.3532ZM22.9731 15.3536C23.1839 15.4198 23.4084 15.3027 23.4746 15.0919C23.5408 14.8811 23.4236 14.6566 23.2129 14.5904L22.9731 15.3536ZM22.1806 15.3808C21.9596 15.3803 21.7802 15.559 21.7797 15.7799C21.7792 16.0008 21.9579 16.1803 22.1788 16.1808L22.1806 15.3808ZM22.9631 16.1825C23.184 16.183 23.3635 16.0043 23.364 15.7834C23.3644 15.5624 23.1858 15.383 22.9648 15.3825L22.9631 16.1825ZM20.4792 17.8665C20.6893 17.7983 20.8044 17.5727 20.7362 17.3626C20.668 17.1524 20.4424 17.0374 20.2323 17.1056L20.4792 17.8665ZM19.455 17.3578C19.2449 17.4259 19.1299 17.6516 19.198 17.8617C19.2662 18.0718 19.4918 18.1869 19.702 18.1187L19.455 17.3578ZM20.5251 18.9746C20.7461 18.9763 20.9266 18.7987 20.9283 18.5778C20.9301 18.3569 20.7524 18.1764 20.5315 18.1746L20.5251 18.9746ZM19.7155 18.1681C19.4946 18.1663 19.3141 18.344 19.3124 18.5649C19.3106 18.7858 19.4883 18.9663 19.7092 18.9681L19.7155 18.1681ZM20.2293 20.0488C20.4388 20.1189 20.6655 20.0059 20.7356 19.7963C20.8056 19.5868 20.6926 19.3602 20.4831 19.2901L20.2293 20.0488ZM19.7054 19.0301C19.4959 18.96 19.2692 19.073 19.1992 19.2825C19.1291 19.492 19.2421 19.7187 19.4516 19.7887L19.7054 19.0301ZM19.3963 15.9558C19.5272 15.7779 19.4892 15.5275 19.3113 15.3965C19.1334 15.2655 18.8831 15.3035 18.7521 15.4814L19.3963 15.9558ZM18.2708 16.135C18.1398 16.3128 18.1779 16.5632 18.3557 16.6942C18.5336 16.8252 18.784 16.7872 18.915 16.6093L18.2708 16.135ZM20.0887 16.8121C20.2665 16.6809 20.3043 16.4305 20.1732 16.2527C20.0421 16.075 19.7917 16.0371 19.6139 16.1683L20.0887 16.8121ZM18.9572 16.6526C18.7794 16.7838 18.7416 17.0342 18.8727 17.212C19.0038 17.3898 19.2543 17.4276 19.432 17.2965L18.9572 16.6526ZM22.6416 22.6522C22.6823 22.435 22.5394 22.226 22.3223 22.1852C22.1051 22.1445 21.8961 22.2874 21.8553 22.5046L22.6416 22.6522ZM21.2612 23.7118L21.3846 24.0922L21.2612 23.7118ZM17.3516 24.9804L17.2281 24.5999L17.3516 24.9804ZM14.934 25.1358L14.7429 25.4871C14.7567 25.4946 14.7709 25.5013 14.7855 25.5072L14.934 25.1358ZM7.52862 16.8449L7.14683 16.9642C7.14865 16.9701 7.15061 16.9759 7.1527 16.9816L7.52862 16.8449ZM18.4465 6.94056C18.2364 7.00875 18.1214 7.23436 18.1895 7.44449C18.2577 7.65462 18.4833 7.76969 18.6935 7.7015L18.4465 6.94056ZM19.7619 7.79249L19.4153 7.99222L19.4155 7.99254L19.7619 7.79249ZM21.0507 11.886C21.113 12.098 21.3354 12.2193 21.5473 12.1569C21.7593 12.0946 21.8805 11.8723 21.8182 11.6603L21.0507 11.886ZM14.3941 19.5957C14.6043 19.6636 14.8298 19.5483 14.8977 19.3381C14.9656 19.1279 14.8503 18.9024 14.6401 18.8345L14.3941 19.5957ZM9.42852 14.9942L9.74242 14.7463L9.74205 14.7459L9.42852 14.9942ZM7.76992 14.6716L7.52569 14.3548L7.52569 14.3548L7.76992 14.6716ZM11.372 11.7174C11.4714 11.9146 11.712 11.9939 11.9092 11.8944C12.1065 11.795 12.1858 11.5544 12.0863 11.3572L11.372 11.7174ZM10.8288 9.75177L11.186 9.57166L11.1832 9.56622L10.8288 9.75177ZM11.3901 8.09412L11.2244 7.73L11.2204 7.7319L11.3901 8.09412ZM12.9487 8.5821L12.6015 8.78089L12.6028 8.783L12.9487 8.5821ZM15.2416 14.9928C15.296 15.2069 15.5137 15.3363 15.7278 15.2819C15.9419 15.2274 16.0714 15.0097 16.0169 14.7956L15.2416 14.9928ZM12.0759 17.5646C11.9376 17.7368 11.965 17.9886 12.1372 18.127C12.3094 18.2654 12.5612 18.2379 12.6995 18.0657L12.0759 17.5646ZM13.0176 14.5584C12.9465 14.3492 12.7193 14.2373 12.5102 14.3084C12.301 14.3796 12.1891 14.6068 12.2602 14.8159L13.0176 14.5584ZM13.4863 6.99326C13.2762 7.06144 13.1611 7.28706 13.2293 7.49719C13.2975 7.70731 13.5231 7.82238 13.7333 7.7542L13.4863 6.99326ZM15.0587 7.98764L14.7001 8.16489L14.7002 8.16514L15.0587 7.98764ZM16.936 13.6138C16.9917 13.8275 17.2102 13.9557 17.424 13.8999C17.6377 13.8442 17.7659 13.6257 17.7101 13.412L16.936 13.6138ZM15.7654 6.37449C15.5537 6.43765 15.4333 6.66046 15.4965 6.87216C15.5596 7.08385 15.7825 7.20425 15.9941 7.14109L15.7654 6.37449ZM17.3239 7.40336L16.9607 7.57094L16.9624 7.5745L17.3239 7.40336ZM18.8877 12.253C18.9534 12.4639 19.1777 12.5816 19.3886 12.5159C19.5995 12.4502 19.7172 12.2259 19.6514 12.015L18.8877 12.253ZM11.1332 12.4888C10.9158 12.4491 10.7075 12.5931 10.6678 12.8104C10.6281 13.0277 10.7721 13.2361 10.9894 13.2757L11.1332 12.4888ZM13.0381 13.6499C13.2554 13.6896 13.4637 13.5456 13.5034 13.3282C13.5431 13.1109 13.3991 12.9026 13.1818 12.8629L13.0381 13.6499ZM23.988 14.9117C25.231 16.3681 25.0579 18.5564 23.6015 19.7993L24.1208 20.4078C25.9133 18.8781 26.1263 16.1848 24.5965 14.3923L23.988 14.9117ZM23.6015 19.7993C22.1451 21.0422 19.9568 20.8692 18.7139 19.4128L18.1053 19.9321C19.6351 21.7246 22.3283 21.9376 24.1208 20.4078L23.6015 19.7993ZM18.7139 19.4128C17.4709 17.9563 17.644 15.7681 19.1004 14.5251L18.5811 13.9166C16.7886 15.4464 16.5756 18.1396 18.1053 19.9321L18.7139 19.4128ZM19.1004 14.5251C20.5568 13.2822 22.7451 13.4552 23.988 14.9117L24.5965 14.3923C23.0668 12.5998 20.3736 12.3869 18.5811 13.9166L19.1004 14.5251ZM22.4674 17.2214L23.2174 16.978L22.9705 16.2171L22.2205 16.4604L22.4674 17.2214ZM23.0656 18.1058L23.6995 17.6439L23.2283 16.9973L22.5945 17.4592L23.0656 18.1058ZM23.9006 18.7833L24.3682 18.1342L23.7191 17.6666L23.2515 18.3157L23.9006 18.7833ZM22.2179 15.1164L22.9731 15.3536L23.2129 14.5904L22.4577 14.3532L22.2179 15.1164ZM22.1788 16.1808L22.9631 16.1825L22.9648 15.3825L22.1806 15.3808L22.1788 16.1808ZM20.2323 17.1056L19.455 17.3578L19.702 18.1187L20.4792 17.8665L20.2323 17.1056ZM20.5315 18.1746L19.7155 18.1681L19.7092 18.9681L20.5251 18.9746L20.5315 18.1746ZM20.4831 19.2901L19.7054 19.0301L19.4516 19.7887L20.2293 20.0488L20.4831 19.2901ZM18.7521 15.4814L18.2708 16.135L18.915 16.6093L19.3963 15.9558L18.7521 15.4814ZM19.6139 16.1683L18.9572 16.6526L19.432 17.2965L20.0887 16.8121L19.6139 16.1683ZM21.8553 22.5046C21.7821 22.8948 21.5113 23.2101 21.1377 23.3313L21.3846 24.0922C22.0463 23.8775 22.5162 23.3201 22.6416 22.6522L21.8553 22.5046ZM21.1377 23.3313L17.2281 24.5999L17.4751 25.3609L21.3846 24.0922L21.1377 23.3313ZM17.2281 24.5999C16.7542 24.7537 16.1203 25.1795 15.0826 24.7644L14.7855 25.5072C16.1626 26.058 17.1589 25.4635 17.4751 25.3609L17.2281 24.5999ZM15.1252 24.7844C14.2468 24.3064 12.8121 23.3191 11.4083 21.9277C10.0043 20.5363 8.65066 18.7601 7.90454 16.7082L7.1527 16.9816C7.95205 19.1798 9.38888 21.0527 10.8451 22.4959C12.3015 23.9393 13.7968 24.9723 14.7429 25.4871L15.1252 24.7844ZM18.6935 7.7015C18.9673 7.61264 19.2633 7.7284 19.4153 7.99222L20.1085 7.59277C19.778 7.01941 19.099 6.72884 18.4465 6.94056L18.6935 7.7015ZM19.4155 7.99254C20.2889 9.50476 20.6204 10.4227 21.0507 11.886L21.8182 11.6603C21.3755 10.1547 21.0218 9.17418 20.1083 7.59244L19.4155 7.99254ZM14.6401 18.8345C13.6856 18.526 12.7193 17.8387 11.8502 17.0441C10.9864 16.2543 10.2464 15.3845 9.74242 14.7463L9.11461 15.2422C9.63288 15.8984 10.4027 16.8046 11.3104 17.6345C12.2128 18.4595 13.2796 19.2355 14.3941 19.5957L14.6401 18.8345ZM9.74205 14.7459C9.24244 14.1152 8.25637 13.7915 7.52569 14.3548L8.01415 14.9884C8.29512 14.7717 8.79854 14.8432 9.11498 15.2426L9.74205 14.7459ZM7.52569 14.3548C7.0656 14.7095 6.71433 15.5802 7.14683 16.9642L7.91041 16.7256C7.53797 15.5338 7.91139 15.0676 8.01416 14.9884L7.52569 14.3548ZM12.0863 11.3572L11.186 9.57168L10.4717 9.93187L11.372 11.7174L12.0863 11.3572ZM11.1832 9.56622C10.9718 9.16249 11.1395 8.65324 11.5598 8.45634L11.2204 7.7319C10.386 8.12282 10.0524 9.1313 10.4745 9.93732L11.1832 9.56622ZM11.5557 8.45822C11.9519 8.278 12.3952 8.42058 12.6015 8.78088L13.2958 8.38331C12.8768 7.65167 11.9828 7.38505 11.2244 7.73003L11.5557 8.45822ZM12.6028 8.783C13.3459 10.0625 14.6007 12.4721 15.2416 14.9928L16.0169 14.7956C15.3493 12.17 14.0525 9.68611 13.2945 8.3812L12.6028 8.783ZM12.6995 18.0657C12.8957 17.8216 13.1532 17.4378 13.2672 16.8529C13.3808 16.2707 13.3458 15.5237 13.0176 14.5584L12.2602 14.8159C12.5531 15.6772 12.5637 16.2811 12.482 16.6997C12.4009 17.1156 12.2223 17.3825 12.0759 17.5646L12.6995 18.0657ZM13.7333 7.7542C14.1133 7.63089 14.5236 7.80779 14.7001 8.16489L15.4173 7.81039C15.0679 7.10351 14.2506 6.74527 13.4863 6.99326L13.7333 7.7542ZM14.7002 8.16514C15.3596 9.49676 16.3946 11.5369 16.936 13.6138L17.7101 13.412C17.1441 11.2408 16.0682 9.12482 15.4172 7.81014L14.7002 8.16514ZM15.9941 7.14109C16.3845 7.02461 16.7923 7.20585 16.9607 7.57093L17.6871 7.23579C17.348 6.50082 16.5281 6.14691 15.7654 6.37449L15.9941 7.14109ZM16.9624 7.5745C17.5388 8.79234 18.2788 10.2997 18.8877 12.253L19.6514 12.015C19.0232 9.99933 18.2581 8.44202 17.6854 7.23223L16.9624 7.5745ZM10.9894 13.2757L13.0381 13.6499L13.1818 12.8629L11.1332 12.4888L10.9894 13.2757Z" fill="black"/>
</svg>
