<svg width="32" height="32" fill="none" xmlns="http://www.w3.org/2000/svg"><path d="M14.159 6.559c-.047.142-.047.33-.047.472 0 1.038.85 1.888 1.888 1.888 1.038 0 1.888-.85 1.888-1.888 0-.142 0-.33-.047-.472m.047 18.882c0-1.039-.85-1.888-1.888-1.888-1.039 0-1.888.85-1.888 1.888m-7.553-7.553c1.039 0 1.888-.85 1.888-1.888 0-1.039-.85-1.888-1.888-1.888m18.882 0c-1.039 0-1.889.85-1.889 1.888 0 1.038.85 1.888 1.889 1.888m-9.441 0A1.894 1.894 0 0 1 14.112 16c0-1.039.85-1.888 1.888-1.888 1.038 0 1.888.85 1.888 1.888 0 1.038-.85 1.888-1.888 1.888Zm-3.776-3.776a1.894 1.894 0 0 1-1.889-1.889c0-1.038.85-1.888 1.889-1.888 1.038 0 1.888.85 1.888 1.888 0 1.039-.85 1.889-1.888 1.889Zm7.552 0a1.894 1.894 0 0 1-1.888-1.889c0-1.038.85-1.888 1.888-1.888 1.039 0 1.889.85 1.889 1.888 0 1.039-.85 1.889-1.889 1.889Zm0 7.553a1.894 1.894 0 0 1-1.888-1.889c0-1.038.85-1.888 1.888-1.888 1.039 0 1.889.85 1.889 1.888 0 1.039-.85 1.889-1.889 1.889Zm-7.552 0a1.894 1.894 0 0 1-1.889-1.889c0-1.038.85-1.888 1.889-1.888 1.038 0 1.888.85 1.888 1.888 0 1.039-.85 1.889-1.888 1.889ZM16 25.5A9.499 9.499 0 0 1 6.5 16c0-5.248 4.252-9.5 9.5-9.5s9.5 4.252 9.5 9.5-4.252 9.5-9.5 9.5Z" stroke="#000" stroke-miterlimit="10"/></svg>