<svg width="32" height="32" viewBox="0 0 32 32" fill="none" xmlns="http://www.w3.org/2000/svg">
<path d="M15.9075 17.9097C15.9075 17.9097 15.9366 17.9242 15.9803 17.9679C16.8825 18.6955 17.4063 19.816 17.4063 20.9801V24.982C17.4063 25.2002 17.581 25.3749 17.7993 25.3749H19.3418C19.56 25.3749 19.7347 25.2002 19.7347 24.982V20.9656C19.7347 19.8014 20.2585 18.6955 21.1608 17.9533C21.2044 17.9242 21.2335 17.8951 21.2335 17.8951M15.9075 17.9097C15.9075 17.9097 14.2485 17.5313 13.5645 15.5086C13.419 15.1011 13.3608 14.6791 13.3317 14.2571C13.2444 12.4672 13.3317 6.63184 18.5704 6.63184C23.8091 6.63184 23.8965 12.4672 23.8091 14.2571C23.78 14.6791 23.7073 15.1011 23.5763 15.5086C22.8924 17.5313 21.2334 17.9097 21.2334 17.9097L15.9075 17.9097ZM11.3752 20.2485C12.6413 20.5475 13.4253 21.8162 13.1264 23.0824C12.8274 24.3485 11.5586 25.1325 10.2925 24.8335C9.02642 24.5346 8.24239 23.2658 8.54136 21.9997C8.84032 20.7336 10.1091 19.9496 11.3752 20.2485Z" stroke="black" stroke-width="0.8" stroke-miterlimit="10" stroke-linecap="round"/>
</svg>
