<svg width="32" height="32" viewBox="0 0 32 32" fill="none" xmlns="http://www.w3.org/2000/svg">
<path d="M6.64507 8.99516C6.42416 8.99516 6.24507 9.17424 6.24507 9.39516C6.24507 9.61607 6.42416 9.79516 6.64507 9.79516V8.99516ZM9.29563 16.9356C9.1554 17.1063 9.1801 17.3584 9.35079 17.4986C9.52149 17.6388 9.77355 17.6141 9.91378 17.4434L9.29563 16.9356ZM7.33929 16.8612C7.37343 17.0794 7.57803 17.2287 7.79629 17.1945C8.01455 17.1604 8.16382 16.9558 8.12968 16.7375L7.33929 16.8612ZM6.45229 6.01174C6.41816 5.79347 6.21355 5.64421 5.99529 5.67834C5.77703 5.71248 5.62777 5.91708 5.6619 6.13534L6.45229 6.01174ZM19.9661 9.47097C19.7452 9.47181 19.5668 9.65157 19.5676 9.87248C19.5684 10.0934 19.7482 10.2718 19.9691 10.271L19.9661 9.47097ZM21.895 7.94355L21.495 7.94053L21.495 7.94203L21.895 7.94355ZM19.9676 6L19.9691 5.6H19.9676V6ZM16.008 6V5.6C15.7871 5.6 15.608 5.77908 15.608 5.99998L16.008 6ZM18.8455 19.3502C18.9142 19.5602 19.1401 19.6747 19.3501 19.606C19.56 19.5372 19.6745 19.3113 19.6058 19.1014L18.8455 19.3502ZM6.0571 5.6C5.83618 5.6 5.6571 5.77909 5.6571 6C5.6571 6.22091 5.83618 6.4 6.0571 6.4V5.6ZM7.79497 6.4C8.01588 6.4 8.19497 6.22091 8.19497 6C8.19497 5.77909 8.01588 5.6 7.79497 5.6V6.4ZM7.8579 23.0968C7.8579 23.3177 8.03698 23.4968 8.2579 23.4968C8.47881 23.4968 8.6579 23.3177 8.6579 23.0968H7.8579ZM8.6579 19.2258C8.6579 19.0049 8.47881 18.8258 8.2579 18.8258C8.03698 18.8258 7.8579 19.0049 7.8579 19.2258H8.6579ZM6.96808 23.2205C6.74717 23.2205 6.56808 23.3996 6.56808 23.6205C6.56808 23.8414 6.74717 24.0205 6.96808 24.0205V23.2205ZM9.54869 24.0205C9.7696 24.0205 9.94869 23.8414 9.94869 23.6205C9.94869 23.3996 9.7696 23.2205 9.54869 23.2205V24.0205ZM17.8676 14.3775C17.6548 14.437 17.5306 14.6577 17.5901 14.8705C17.6496 15.0832 17.8703 15.2075 18.083 15.148L17.8676 14.3775ZM19.4002 14.5947L19.3852 14.9944L19.4002 14.5947ZM23.8571 19.4L23.4574 19.3849L23.8571 19.4ZM19.0519 23.8569L19.0368 24.2566L19.0519 23.8569ZM14.595 19.0516L14.1952 19.0366L14.595 19.0516ZM16.4309 16.0439C16.5968 15.898 16.6131 15.6453 16.4672 15.4794C16.3213 15.3135 16.0685 15.2973 15.9026 15.4432L16.4309 16.0439ZM6.64507 9.79516H16.0078V8.99516H6.64507V9.79516ZM15.6988 9.14125L9.29563 16.9356L9.91378 17.4434L16.3169 9.64907L15.6988 9.14125ZM8.12968 16.7375L6.45229 6.01174L5.6619 6.13534L7.33929 16.8612L8.12968 16.7375ZM19.9691 10.271C21.2533 10.2661 22.2901 9.2293 22.295 7.94506L21.495 7.94203C21.4918 8.78683 20.8108 9.46777 19.9661 9.47097L19.9691 10.271ZM22.295 7.94657C22.3047 6.65552 21.2622 5.60487 19.9691 5.6L19.9661 6.4C20.8181 6.4032 21.5014 7.09449 21.495 7.94053L22.295 7.94657ZM19.9676 5.6H16.008V6.4H19.9676V5.6ZM15.608 5.99998L15.6078 9.39514L16.4078 9.39518L16.408 6.00002L15.608 5.99998ZM15.6277 9.51959L18.8455 19.3502L19.6058 19.1014L16.388 9.27072L15.6277 9.51959ZM6.0571 6.4H7.79497V5.6H6.0571V6.4ZM10.1161 19.2742C10.1161 20.3004 9.28418 21.1323 8.25803 21.1323V21.9323C9.72602 21.9323 10.9161 20.7422 10.9161 19.2742H10.1161ZM8.25803 21.1323C7.23187 21.1323 6.4 20.3004 6.4 19.2742H5.6C5.6 20.7422 6.79003 21.9323 8.25803 21.9323V21.1323ZM6.4 19.2742C6.4 18.248 7.23187 17.4161 8.25803 17.4161V16.6161C6.79003 16.6161 5.6 17.8062 5.6 19.2742H6.4ZM8.25803 17.4161C9.28418 17.4161 10.1161 18.248 10.1161 19.2742H10.9161C10.9161 17.8062 9.72602 16.6161 8.25803 16.6161V17.4161ZM8.6579 23.0968V19.2258H7.8579V23.0968H8.6579ZM6.96808 24.0205H9.54869V23.2205H6.96808V24.0205ZM25.6 19.2258C25.6 22.7462 22.7462 25.6 19.2259 25.6V26.4C23.1881 26.4 26.4 23.188 26.4 19.2258H25.6ZM19.2259 25.6C15.7056 25.6 12.8518 22.7462 12.8518 19.2258H12.0518C12.0518 23.188 15.2638 26.4 19.2259 26.4V25.6ZM12.8518 19.2258C12.8518 15.7054 15.7056 12.8516 19.2259 12.8516V12.0516C15.2638 12.0516 12.0518 15.2636 12.0518 19.2258H12.8518ZM19.2259 12.8516C22.7462 12.8516 25.6 15.7054 25.6 19.2258H26.4C26.4 15.2636 23.1881 12.0516 19.2259 12.0516V12.8516ZM18.083 15.148C18.4955 15.0326 18.9338 14.9774 19.3852 14.9944L19.4152 14.195C18.8791 14.1748 18.358 14.2404 17.8676 14.3775L18.083 15.148ZM19.3852 14.9944C21.7217 15.0823 23.5453 17.0484 23.4574 19.3849L24.2568 19.415C24.3613 16.6369 22.1933 14.2994 19.4152 14.195L19.3852 14.9944ZM23.4574 19.3849C23.3695 21.7215 21.4034 23.5451 19.0669 23.4572L19.0368 24.2566C21.8149 24.3611 24.1523 22.1931 24.2568 19.415L23.4574 19.3849ZM19.0669 23.4572C16.7304 23.3693 14.9068 21.4032 14.9947 19.0667L14.1952 19.0366C14.0908 21.8147 16.2588 24.1522 19.0368 24.2566L19.0669 23.4572ZM14.9947 19.0667C15.0402 17.8568 15.5881 16.7851 16.4309 16.0439L15.9026 15.4432C14.9018 16.3233 14.2493 17.5985 14.1952 19.0366L14.9947 19.0667Z" fill="black"/>
</svg>
