<svg width="32" height="32" fill="none" xmlns="http://www.w3.org/2000/svg"><path d="M9.84 8.122a.5.5 0 1 0 .616.788l-.616-.788Zm11.704.788a.5.5 0 1 0 .616-.788l-.616.788ZM8.566 10.925a.5.5 0 0 0-.825-.565l.825.565Zm15.693-.565a.5.5 0 0 0-.825.565l.825-.565ZM9.395 22.383a.5.5 0 0 0 .717.697l-.717-.697Zm5.3-4.738.359.348-.359-.348Zm1.103-5.852a.5.5 0 1 0-1 0h1Zm6.436 11.284a.5.5 0 0 0 .722-.691l-.722.691Zm-4.506-5.435-.361.346.361-.346Zm-.09-5.85a.5.5 0 0 0-1 0h1ZM25 16a9 9 0 0 1-9 9v1c5.523 0 10-4.477 10-10h-1Zm-9 9a9 9 0 0 1-9-9H6c0 5.523 4.477 10 10 10v-1ZM10.456 8.91A8.96 8.96 0 0 1 16 7V6a9.96 9.96 0 0 0-6.16 2.122l.616.788ZM16 7a8.96 8.96 0 0 1 5.544 1.91l.616-.788A9.959 9.959 0 0 0 16 6v1Zm-9 9c0-1.883.578-3.63 1.566-5.075l-.825-.565A9.956 9.956 0 0 0 6 16h1Zm16.434-5.075A8.956 8.956 0 0 1 25 16h1a9.956 9.956 0 0 0-1.74-5.64l-.826.565ZM10.112 23.08l4.942-5.087-.717-.697-4.942 5.087.717.697Zm5.686-6.92v-4.367h-1v4.366h1Zm-.744 1.833a2.632 2.632 0 0 0 .744-1.834h-1c0 .425-.166.833-.461 1.137l.717.697Zm7.902 4.393-4.866-5.09-.723.692 4.867 5.089.722-.691Zm-5.319-6.217v-4.376h-1v4.376h1Zm.453 1.128a1.631 1.631 0 0 1-.453-1.128h-1c0 .678.262 1.33.73 1.819l.723-.691Z" fill="#000"/></svg>