<svg width="32" height="32" viewBox="0 0 32 32" fill="none" xmlns="http://www.w3.org/2000/svg">
<path d="M18.7968 12.1054L18.4427 11.9193L18.7968 12.1054ZM15.7716 13.4965C15.5507 13.4965 15.3716 13.6756 15.3716 13.8965C15.3716 14.1174 15.5507 14.2965 15.7716 14.2965V13.4965ZM14.2299 7.28958C14.027 7.37704 13.9335 7.61239 14.0209 7.81525C14.1084 8.01812 14.3437 8.11168 14.5466 8.02422L14.2299 7.28958ZM13.6181 10.7359C13.7743 10.8922 14.0276 10.8922 14.1838 10.736C14.3401 10.5799 14.3401 10.3266 14.1839 10.1704L13.6181 10.7359ZM13.3908 9.15144L13.7904 9.16998L13.3908 9.15144ZM14.585 8.00803C14.7847 7.91349 14.8699 7.675 14.7753 7.47533C14.6808 7.27567 14.4423 7.19044 14.2426 7.28498L14.585 8.00803ZM14.1287 18.3623C14.1287 18.1414 13.9496 17.9623 13.7287 17.9623C13.5078 17.9623 13.3287 18.1414 13.3287 18.3623H14.1287ZM18.1241 16.8856C17.9937 16.7074 17.7434 16.6686 17.5651 16.7991C17.3868 16.9296 17.3481 17.1798 17.4785 17.3581L18.1241 16.8856ZM22.3902 17.8569C22.3902 21.0956 19.6583 23.7469 16.2559 23.7469V24.5469C20.0711 24.5469 23.1902 21.5659 23.1902 17.8569H22.3902ZM16.2559 23.7469C14.1723 23.7469 12.3357 22.7503 11.228 21.2321L10.5817 21.7036C11.8382 23.4257 13.9136 24.5469 16.2559 24.5469V23.7469ZM18.6463 12.4308C20.8541 13.3287 22.3902 15.4259 22.3902 17.8569H23.1902C23.1902 15.0753 21.4329 12.7005 18.9477 11.6897L18.6463 12.4308ZM15.7716 7.77354C17.4365 7.77354 18.7598 9.0689 18.7598 10.635H19.5598C19.5598 8.59861 17.8493 6.97354 15.7716 6.97354V7.77354ZM18.7598 10.635C18.7598 11.0972 18.6457 11.5331 18.4427 11.9193L19.1509 12.2915C19.4123 11.7941 19.5598 11.2308 19.5598 10.635H18.7598ZM18.4427 11.9193C17.9533 12.8504 16.9447 13.4965 15.7716 13.4965V14.2965C17.242 14.2965 18.5233 13.4856 19.1509 12.2915L18.4427 11.9193ZM14.5466 8.02422C14.9196 7.8634 15.334 7.77354 15.7716 7.77354V6.97354C15.2237 6.97354 14.7016 7.08621 14.2299 7.28958L14.5466 8.02422ZM10.61 19.2545C10.61 17.3023 12.2584 15.6941 14.3242 15.6941V14.8941C11.8456 14.8941 9.80998 16.8321 9.80998 19.2545H10.61ZM11.4003 21.4502C10.9041 20.844 10.61 20.0819 10.61 19.2545H9.80998C9.80998 20.2762 10.1742 21.2153 10.7813 21.9569L11.4003 21.4502ZM14.3242 15.6941C15.8374 15.6941 17.1317 16.5601 17.7116 17.792L18.4354 17.4513C17.723 15.9378 16.1459 14.8941 14.3242 14.8941V15.6941ZM14.1839 10.1704C13.9225 9.90878 13.7726 9.55334 13.7904 9.16998L12.9912 9.13291C12.9624 9.75493 13.2078 10.3253 13.6181 10.7359L14.1839 10.1704ZM13.7904 9.16998C13.8139 8.66283 14.1271 8.22484 14.585 8.00803L14.2426 7.28498C13.5388 7.61821 13.0295 8.3072 12.9912 9.13291L13.7904 9.16998ZM17.8089 18.3623C17.8089 19.3181 16.9995 20.1187 15.9688 20.1187V20.9187C17.4123 20.9187 18.6089 19.7884 18.6089 18.3623H17.8089ZM15.9688 20.1187C14.938 20.1187 14.1287 19.3181 14.1287 18.3623H13.3287C13.3287 19.7884 14.5252 20.9187 15.9688 20.9187V20.1187ZM17.4785 17.3581C17.6875 17.6436 17.8089 17.9894 17.8089 18.3623H18.6089C18.6089 17.8117 18.4287 17.3018 18.1241 16.8856L17.4785 17.3581Z" fill="black"/>
</svg>
