<svg width="32" height="32" viewBox="0 0 32 32" fill="none" xmlns="http://www.w3.org/2000/svg">
<path d="M13.1152 22.2038L13.9383 20.0736C14.0195 19.843 14.0009 19.5926 13.8955 19.3725L11.4488 14.4563C10.9431 13.4246 11.3639 12.1855 12.4044 11.6981L17.9194 9.0659M20.4362 11.9639L21.3097 13.8568C21.3976 14.0402 21.5588 14.1884 21.7487 14.2552L23.6206 14.9141C24.1496 15.1003 24.4308 15.6871 24.2446 16.2161C24.0584 16.7451 23.4716 17.0263 22.9426 16.8402L20.1349 15.8519C19.945 15.7851 19.7837 15.6368 19.6958 15.4535L18.4748 12.859L15.1644 14.4683C14.8893 14.6001 14.7931 14.9169 14.9297 15.1784L16.6028 18.4808C16.7218 18.7056 16.7404 18.9561 16.6592 19.1866L15.3011 23.0782M6.74329 20.3886L22.117 25.3975C22.5375 25.5455 23.012 25.4534 23.3221 25.1356C23.6321 24.8179 23.8183 24.2889 23.323 23.4438M21.9561 16.5299L8.96191 11.7117M23.1895 7.77428C23.646 8.72676 23.244 9.869 22.2915 10.3255C21.339 10.7821 20.1968 10.38 19.7403 9.42757C19.2837 8.47509 19.6858 7.33285 20.6382 6.87631C21.5907 6.41977 22.733 6.8218 23.1895 7.77428Z" stroke="black" stroke-width="0.8" stroke-miterlimit="10" stroke-linecap="round" stroke-linejoin="round"/>
</svg>
