<svg width="32" height="32" viewBox="0 0 32 32" fill="none" xmlns="http://www.w3.org/2000/svg">
<path d="M13.7179 15.001C13.7254 14.7802 13.5525 14.5951 13.3318 14.5876C13.111 14.5801 12.9259 14.753 12.9184 14.9737L13.7179 15.001ZM14.426 17.0859C14.6428 17.1284 14.8529 16.9871 14.8954 16.7703C14.9379 16.5535 14.7966 16.3433 14.5798 16.3008L14.426 17.0859ZM8.61654 10.9333C8.39563 10.9333 8.21654 11.1124 8.21654 11.3333C8.21654 11.5543 8.39563 11.7333 8.61654 11.7333V10.9333ZM14.0665 11.7333C14.2874 11.7333 14.4665 11.5543 14.4665 11.3333C14.4665 11.1124 14.2874 10.9333 14.0665 10.9333V11.7333ZM8.61644 12.3732C8.39552 12.3732 8.21644 12.5523 8.21644 12.7732C8.21644 12.9941 8.39552 13.1732 8.61644 13.1732V12.3732ZM14.0664 13.1732C14.2873 13.1732 14.4664 12.9941 14.4664 12.7732C14.4664 12.5523 14.2873 12.3732 14.0664 12.3732V13.1732ZM27.8129 12.1206L27.8102 12.5206H27.8129V12.1206ZM25.9393 12.1077H25.5393V12.505L25.9365 12.5077L25.9393 12.1077ZM23.9065 11.4543H23.5065V11.8543H23.9065V11.4543ZM23.1332 10.3412L22.7948 10.128L22.4085 10.7412H23.1332V10.3412ZM23.3078 9.57896L22.9106 9.62656L22.9114 9.63226L23.3078 9.57896ZM22.2603 8.58682L22.2196 8.98477L22.2243 8.9852L22.2603 8.58682ZM21.1254 10.3412V10.7412H21.8431L21.4656 10.1308L21.1254 10.3412ZM18.8726 10.3412L18.4738 10.3726L18.5029 10.7412H18.8726V10.3412ZM16.486 9.24623H16.086V9.64623H16.486V9.24623ZM14.977 9.23413V9.63413H15.377V9.23413H14.977ZM5.84805 10.7526V11.1526H6.24805V10.7526H5.84805ZM7.02035 13.5354H7.42035V13.1354H7.02035V13.5354ZM7.02035 19.8694L7.42035 19.8829V19.8694H7.02035ZM8.14276 21.648L7.9731 22.0102L7.97501 22.0111L8.14276 21.648ZM8.99081 21.8295H9.39081V21.4295H8.99081V21.8295ZM11.7719 21.8295V21.4295H11.3719V21.8295H11.7719ZM12.2458 14.8542V14.4542H11.8458V14.8542H12.2458ZM19.2863 14.8542H19.6863V14.4542H19.2863V14.8542ZM19.2863 23.0697H18.8863V23.4697H19.2863V23.0697ZM21.4621 14.6486V14.2486H21.0621V14.6486H21.4621ZM23.9065 13.8742V13.4742H23.5065V13.8742H23.9065ZM25.9393 13.2571L25.942 12.8572L25.5393 12.8544V13.2571H25.9393ZM27.8129 13.27L27.8102 13.67H27.8129V13.27ZM6.86834 17.3C6.71559 17.4596 6.72114 17.7128 6.88073 17.8655C7.04032 18.0183 7.29353 18.0127 7.44628 17.8532L6.86834 17.3ZM9.3918 15.8205C9.54455 15.6609 9.539 15.4077 9.37941 15.2549C9.21981 15.1022 8.96661 15.1077 8.81386 15.2673L9.3918 15.8205ZM18.8811 14.8664C18.8811 15.0873 19.0602 15.2664 19.2811 15.2664C19.502 15.2664 19.6811 15.0873 19.6811 14.8664H18.8811ZM19.6811 12.9305C19.6811 12.7096 19.502 12.5305 19.2811 12.5305C19.0602 12.5305 18.8811 12.7096 18.8811 12.9305H19.6811ZM12.2456 18.5574H14.1288V17.7574H12.2456V18.5574ZM14.1288 18.5574C15.4232 18.5574 16.4868 17.5426 16.4868 16.2578H15.6868C15.6868 17.0782 15.0044 17.7574 14.1288 17.7574V18.5574ZM16.4868 16.2578V14.8663H15.6868V16.2578H16.4868ZM13.3181 14.9874C12.9184 14.9737 12.9184 14.9739 12.9184 14.9741C12.9183 14.9742 12.9183 14.9743 12.9183 14.9745C12.9183 14.9747 12.9183 14.975 12.9183 14.9753C12.9183 14.976 12.9183 14.9767 12.9182 14.9775C12.9182 14.9791 12.9182 14.9811 12.9181 14.9834C12.918 14.9881 12.9179 14.9941 12.9179 15.0015C12.9178 15.0162 12.9179 15.0363 12.9185 15.0611C12.9198 15.1105 12.9232 15.179 12.9318 15.2611C12.9486 15.4238 12.9862 15.6477 13.0709 15.8844C13.2421 16.3627 13.6246 16.9288 14.426 17.0859L14.5798 16.3008C14.1466 16.2159 13.9366 15.9291 13.8241 15.6148C13.767 15.4553 13.7399 15.298 13.7275 15.1787C13.7214 15.1197 13.7191 15.072 13.7183 15.0404C13.7179 15.0247 13.7178 15.0131 13.7179 15.0062C13.7179 15.0028 13.7179 15.0006 13.7179 14.9997C13.718 14.9993 13.718 14.9992 13.7179 14.9994C13.7179 14.9995 13.7179 14.9997 13.7179 14.9999C13.7179 15.0001 13.7179 15.0002 13.7179 15.0004C13.7179 15.0005 13.7179 15.0006 13.7179 15.0007C13.7179 15.0008 13.7179 15.001 13.3181 14.9874ZM8.61654 11.7333H14.0665V10.9333H8.61654V11.7333ZM8.61644 13.1732H14.0664V12.3732H8.61644V13.1732ZM28.4 12.3021C28.4 11.9731 28.1221 11.7206 27.8129 11.7206V12.5206C27.7492 12.5206 27.6984 12.4943 27.6653 12.4621C27.6324 12.4302 27.6 12.3756 27.6 12.3021H28.4ZM27.8157 11.7206L25.942 11.7077L25.9365 12.5077L27.8102 12.5206L27.8157 11.7206ZM26.3393 12.1077V12.0714H25.5393V12.1077H26.3393ZM26.3393 12.0714C26.3393 11.5004 25.8619 11.0543 25.3032 11.0543V11.8543C25.443 11.8543 25.5393 11.9649 25.5393 12.0714H26.3393ZM25.3032 11.0543H23.9065V11.8543H25.3032V11.0543ZM24.3065 11.4543V10.9583H23.5065V11.4543H24.3065ZM24.3065 10.9583C24.3065 10.3873 23.829 9.94121 23.2704 9.94121V10.7412C23.4102 10.7412 23.5065 10.8517 23.5065 10.9583H24.3065ZM23.2704 9.94121H23.1332V10.7412H23.2704V9.94121ZM23.4717 10.5544C23.6514 10.2691 23.7559 9.90971 23.7043 9.52566L22.9114 9.63226C22.9346 9.80477 22.8894 9.97778 22.7948 10.128L23.4717 10.5544ZM23.705 9.53136C23.6191 8.81466 23.0115 8.25299 22.2962 8.18843L22.2243 8.9852C22.5815 9.01743 22.8719 9.30272 22.9107 9.62656L23.705 9.53136ZM22.3009 8.18889C21.3719 8.09402 20.5383 8.79221 20.5383 9.72415H21.3383C21.3383 9.30097 21.7269 8.93442 22.2196 8.98475L22.3009 8.18889ZM20.5383 9.72415C20.5383 10.0447 20.6434 10.3224 20.7852 10.5516L21.4656 10.1308C21.3828 9.997 21.3383 9.86334 21.3383 9.72415H20.5383ZM21.1254 9.94121H18.8726V10.7412H21.1254V9.94121ZM19.2713 10.3098C19.23 9.78505 19.0294 9.40649 18.7414 9.16274C18.4624 8.9267 18.1358 8.84623 17.8828 8.84623V9.64623C17.9791 9.64623 18.1131 9.67908 18.2246 9.77344C18.327 9.8601 18.4467 10.029 18.4738 10.3726L19.2713 10.3098ZM17.8828 8.84623H16.486V9.64623H17.8828V8.84623ZM16.886 9.24623V8.43557H16.086V9.24623H16.886ZM16.886 8.43557C16.886 7.96134 16.4959 7.6 16.0371 7.6V8.4C16.0566 8.4 16.0693 8.40708 16.0766 8.41413C16.0836 8.42092 16.086 8.42766 16.086 8.43557H16.886ZM16.0371 7.6H15.426V8.4H16.0371V7.6ZM15.426 7.6C14.9672 7.6 14.577 7.96134 14.577 8.43557H15.377C15.377 8.42766 15.3795 8.42092 15.3865 8.41413C15.3938 8.40708 15.4064 8.4 15.426 8.4V7.6ZM14.577 8.43557V9.23413H15.377V8.43557H14.577ZM14.977 8.83413H6.29701V9.63413H14.977V8.83413ZM6.29701 8.83413C5.83818 8.83413 5.44805 9.19547 5.44805 9.6697H6.24805C6.24805 9.66179 6.25053 9.65505 6.25752 9.64826C6.2648 9.64121 6.27746 9.63413 6.29701 9.63413V8.83413ZM5.44805 9.6697V10.7526H6.24805V9.6697H5.44805ZM5.84805 10.3526H5.43649V11.1526H5.84805V10.3526ZM5.43649 10.3526C4.99013 10.3526 4.6 10.7139 4.6 11.1761H5.4C5.4 11.1793 5.39862 11.1742 5.40792 11.1652C5.41726 11.1562 5.42807 11.1526 5.43649 11.1526V10.3526ZM4.6 11.1761V12.5675H5.4V11.1761H4.6ZM4.6 12.5675C4.6 13.3321 5.23956 13.9354 5.9977 13.9354V13.1354C5.65838 13.1354 5.4 12.8676 5.4 12.5675H4.6ZM5.9977 13.9354H7.02035V13.1354H5.9977V13.9354ZM6.62058 19.8559C6.59005 20.759 7.10944 21.6057 7.97311 22.0102L8.31242 21.2858C7.72942 21.0127 7.40076 20.4559 7.42012 19.8829L6.62058 19.8559ZM7.97501 22.0111C8.29257 22.1578 8.63706 22.2295 8.99081 22.2295V21.4295C8.74593 21.4295 8.51675 21.3802 8.31052 21.2849L7.97501 22.0111ZM8.59081 24.3885C8.59081 24.8022 8.94352 25.1273 9.34001 25.1273V24.3273C9.35924 24.3273 9.36961 24.3348 9.37379 24.3389C9.37787 24.3428 9.39081 24.3583 9.39081 24.3885H8.59081ZM9.34001 25.1273H11.4102V24.3273H9.34001V25.1273ZM11.4102 25.1273C11.8192 25.1273 12.1719 24.8022 12.1719 24.3764H11.3719C11.3719 24.3586 11.3799 24.3446 11.3874 24.3373C11.3946 24.3303 11.4034 24.3273 11.4102 24.3273V25.1273ZM12.1719 24.3764V21.8295H11.3719V24.3764H12.1719ZM11.7719 22.2295C12.2432 22.2295 12.6458 21.8561 12.6458 21.3697H11.8458C11.8458 21.3916 11.8244 21.4295 11.7719 21.4295V22.2295ZM12.6458 21.3697V14.8542H11.8458V21.3697H12.6458ZM12.2458 15.2542H19.2863V14.4542H12.2458V15.2542ZM18.8863 14.8542V23.0697H19.6863V14.8542H18.8863ZM19.2863 23.4697C19.8043 23.4697 20.4209 23.2719 20.9094 22.9654C21.38 22.6702 21.8621 22.1875 21.8621 21.5573H21.0621C21.0621 21.7618 20.8865 22.0354 20.4843 22.2877C20.1001 22.5287 19.6288 22.6697 19.2863 22.6697V23.4697ZM21.8621 21.5573V14.6486H21.0621V21.5573H21.8621ZM21.4621 15.0486H23.1083V14.2486H21.4621V15.0486ZM23.1083 15.0486C23.7542 15.0486 24.3065 14.5299 24.3065 13.8742H23.5065C23.5065 14.0654 23.3354 14.2486 23.1083 14.2486V15.0486ZM25.3032 14.2742C25.8619 14.2742 26.3393 13.8282 26.3393 13.2571H25.5393C25.5393 13.3637 25.443 13.4742 25.3032 13.4742V14.2742ZM25.9365 13.6571L27.8102 13.67L27.8157 12.87L25.942 12.8572L25.9365 13.6571ZM27.8129 13.67C28.1221 13.67 28.4 13.4176 28.4 13.0886H27.6C27.6 13.0151 27.6324 12.9605 27.6653 12.9285C27.6984 12.8964 27.7492 12.87 27.8129 12.87V13.67ZM28.4 13.0886V12.3021H27.6V13.0886H28.4ZM7.44628 17.8532L9.3918 15.8205L8.81386 15.2673L6.86834 17.3L7.44628 17.8532ZM19.6811 14.8664V12.9305H18.8811V14.8664H19.6811ZM6.62035 13.5354V19.8694H7.42035V13.5354H6.62035ZM8.59081 21.8295V24.3885H9.39081V21.8295H8.59081ZM23.9065 14.2742H25.3032V13.4742H23.9065V14.2742Z" fill="black"/>
</svg>
