<svg width="32" height="32" viewBox="0 0 32 32" fill="none" xmlns="http://www.w3.org/2000/svg">
<path d="M15.0724 7.56738C14.0605 9.25388 13.6389 10.1815 14.4821 11.2777C14.4821 11.2777 14.6508 11.615 14.9881 11.7836C16.0843 12.6269 17.3492 12.5425 18.6984 12.4582C20.7222 12.2896 22.8303 12.1209 24.4325 15.3253M16.8432 24.4324C13.5546 22.7459 13.4702 20.8064 13.3859 18.9512C13.3859 17.6864 13.3016 16.4215 12.2054 15.3253C12.2054 15.3253 12.121 15.2409 12.0367 15.1566C11.9524 15.0723 11.4464 14.735 11.4464 14.735C10.4345 14.1447 9.16967 14.229 7.5675 15.0723M22.24 21.734L10.3502 9.84415M21.8719 9.87267C19.8295 9.78757 17.702 10.2131 15.7447 11.2343C11.9152 13.1065 9.44733 16.6807 8.85163 20.6804M24.4325 15.2409C24.2638 13.2171 23.4206 11.4463 21.987 10.0128C20.3849 8.41063 18.2768 7.56738 16 7.56738C15.9157 7.56738 15.8313 7.56738 15.747 7.56738C13.5546 7.65171 11.5308 8.49496 10.0129 10.0128C8.49507 11.5307 7.65182 13.5544 7.5675 15.7469C7.5675 15.8312 7.5675 15.9155 7.5675 15.9999C7.5675 18.2766 8.41075 20.3848 10.0129 21.9869C11.6151 23.5891 13.7232 24.4324 16 24.4324C18.2768 24.4324 20.3849 23.5891 21.987 21.9869C23.5892 20.3848 24.4325 18.2766 24.4325 15.9999C24.4325 15.7469 24.4325 15.4939 24.4325 15.2409Z" stroke="black" stroke-width="0.8" stroke-miterlimit="10"/>
</svg>
