<svg width="32" height="32" viewBox="0 0 32 32" fill="none" xmlns="http://www.w3.org/2000/svg">
<path d="M13.4789 11.7319C13.4789 11.7319 12.4591 14.0378 12.3038 15.5013C12.3038 15.5013 13.7229 17.4078 15.031 18.5386L18.9981 17.6739C18.9981 17.6739 19.7177 16.4144 20.0209 14.7306M13.4789 11.7319C12.3114 10.5422 10.8036 10.0544 10.8036 10.0544M13.4789 11.7319C14.7339 11.2663 15.8903 11.0421 16.6359 10.9362M12.4798 6.8318C12.4798 6.8318 11.1733 8.36928 10.8036 10.0544M10.8036 10.0544C10.8036 10.0544 8.63275 11.1966 7.98235 12.688C7.98235 12.688 7.87701 14.2702 8.79343 16.071L12.3038 15.4996M8.79343 16.0727C8.79343 16.0727 7.803 17.8292 8.08402 19.4107C8.08402 19.4107 8.94111 21.6723 10.6843 22.5147C10.6843 22.5147 12.3398 22.6183 14.1433 21.9383C14.1433 21.9383 14.6607 19.322 15.03 18.5379M6.33219 12.4277C6.33219 12.4277 6.92757 12.375 7.97868 12.508M6.21718 19.4217L8.03402 19.2967M10.6853 22.5147C10.6853 22.5147 10.4186 23.3621 10.5903 24.5149M14.1443 21.9383C14.1443 21.9383 16.1838 23.2834 17.3666 23.3718M17.3666 23.3718C17.3666 23.3718 19.6872 22.3667 20.3669 20.8145M17.3666 23.3718C17.3666 23.3718 17.4109 24.8582 17.2556 25.5193M20.3669 20.8145C20.3669 20.8145 19.6132 18.5236 19.0001 17.6735M20.3669 20.8145C23.7666 20.3125 24.3136 16.3807 24.3136 16.3807C24.2248 15.7305 23.9476 15.3641 23.7486 14.9138M22.6711 19.6821C22.6711 19.6821 23.1712 20.5285 22.8918 21.9946M16.6359 6.51751C16.19 6.4544 15.7343 6.42175 15.2711 6.42175C9.94099 6.42175 5.62012 10.7426 5.62012 16.0727C5.62012 21.4028 9.94099 25.7237 15.2711 25.7237C20.6011 25.7237 24.922 21.4028 24.922 16.0727C24.922 15.6173 24.8905 15.1692 24.8294 14.7306M20.416 7.93488C20.416 9.82808 21.5451 11.1474 23.3791 11.1474C24.3553 11.1474 25.3409 10.96 26.2388 9.83757M20.416 7.93488C20.416 6.04168 21.5451 4.74365 23.3791 4.74365C25.2132 4.74365 26.3805 6.04168 26.3805 7.93488H20.416Z" stroke="black" stroke-miterlimit="10" stroke-linecap="round" stroke-linejoin="round"/>
</svg>
