<svg width="32" height="32" fill="none" xmlns="http://www.w3.org/2000/svg"><path d="m13.562 8.731-1.724-1.73a3.42 3.42 0 1 0-4.836 4.837l1.729 1.73 4.831-4.837Zm0 0 11.402 5.872L26 17.021l-3.107-.347m0 0 .342 3.107h-3.454m3.112-3.107L18.4 13.567m1.382 6.214v3.454l-3.107-.342m3.107-3.112-3.795-3.8m.688 6.912L17.021 26l-2.765-1.383-5.525-11.055m7.943 9.331L13.567 18.4m4.837-6.908v2.071h-2.765l.342 2.419-2.419-.342.005 2.765-2.418-.347m4.49-4.49-3.801-3.111m1.73 5.183-3.112-3.801" stroke="#000" stroke-linecap="round" stroke-linejoin="round"/></svg>