<svg width="32" height="32" viewBox="0 0 32 32" fill="none" xmlns="http://www.w3.org/2000/svg">
<path d="M9.38849 21.2016C8.13828 19.8243 7.33007 18.0287 7.20531 16.0278C7.08512 14.1003 7.61801 12.2829 8.61341 10.7916M23.698 18.2888C24.0582 17.2545 24.223 16.1329 24.1505 14.9713C23.9554 11.8412 22.0876 9.21342 19.4717 7.90381M12.9533 13.0743V19.6519C12.9533 20.7997 12.45 21.8899 11.5763 22.6343C10.8829 23.2251 11.3007 24.3595 12.2116 24.3595H21.7605C22.1491 24.3595 22.5178 24.1877 22.7678 23.8902L23.4351 23.0961C24.1543 22.2401 23.5458 20.934 22.4278 20.934H17.9324C17.2057 20.934 16.6167 20.345 16.6167 19.6183V8.17527H12.6138C11.6393 8.17527 11.128 9.33213 11.784 10.0528C12.5363 10.8793 12.9533 11.9567 12.9533 13.0743Z" stroke="black" stroke-width="0.8" stroke-linecap="round"/>
</svg>
