<svg width="32" height="32" viewBox="0 0 32 32" fill="none" xmlns="http://www.w3.org/2000/svg">
<path d="M20.4377 22.6165L20.1014 22.8332L20.1019 22.8338L20.4377 22.6165ZM20.3303 22.45L20.6666 22.2333L20.6662 22.2326L20.3303 22.45ZM11.6696 22.4504L11.3339 22.2331L11.3337 22.2333L11.6696 22.4504ZM11.5623 22.6165L11.8983 22.8336L11.8983 22.8336L11.5623 22.6165ZM6.64384 22.7223L6.97061 22.4916L6.97035 22.4913L6.64384 22.7223ZM6.58658 22.6414L6.25971 22.872L6.26007 22.8725L6.58658 22.6414ZM8.13756 9.67L8.50265 9.83344L8.50265 9.83343L8.13756 9.67ZM12.9916 8.95072L12.6895 9.21296L12.6896 9.21305L12.9916 8.95072ZM19.0084 8.95072L19.3104 9.21305L19.3105 9.21296L19.0084 8.95072ZM23.8629 9.67L24.228 9.50658L24.228 9.50657L23.8629 9.67ZM25.4134 22.6419L25.7399 22.873L25.7403 22.8725L25.4134 22.6419ZM25.3562 22.7228L25.0296 22.4917L25.0295 22.492L25.3562 22.7228ZM11.4117 12.5963C11.4117 12.3754 11.2327 12.1963 11.0117 12.1963C10.7908 12.1963 10.6117 12.3754 10.6117 12.5963H11.4117ZM10.6117 16.5411C10.6117 16.762 10.7908 16.9411 11.0117 16.9411C11.2327 16.9411 11.4117 16.762 11.4117 16.5411H10.6117ZM9.12126 14.1689C8.90035 14.1689 8.72126 14.348 8.72126 14.5689C8.72126 14.7898 8.90035 14.9689 9.12126 14.9689V14.1689ZM12.9022 14.9689C13.1232 14.9689 13.3022 14.7898 13.3022 14.5689C13.3022 14.348 13.1232 14.1689 12.9022 14.1689V14.9689ZM22.9328 23.6C22.0715 23.6 21.2633 23.1559 20.7734 22.3991L20.1019 22.8338C20.7338 23.8101 21.7904 24.4 22.9328 24.4V23.6ZM20.7739 22.3998L20.6666 22.2333L19.9941 22.6666L20.1014 22.8332L20.7739 22.3998ZM20.6662 22.2326C19.7231 20.7755 18.147 19.8978 16.4475 19.8978V20.6978C17.8661 20.6978 19.1936 21.4298 19.9945 22.6673L20.6662 22.2326ZM16.4475 19.8978H15.5525V20.6978H16.4475V19.8978ZM15.5525 19.8978C13.8529 19.8978 12.2773 20.7756 11.3339 22.2331L12.0054 22.6678C12.8068 21.4298 14.134 20.6978 15.5525 20.6978V19.8978ZM11.3337 22.2333L11.2264 22.3994L11.8983 22.8336L12.0056 22.6675L11.3337 22.2333ZM11.2264 22.3994C10.7376 23.1558 9.9287 23.6 9.06725 23.6V24.4C10.2094 24.4 11.2672 23.8102 11.8983 22.8336L11.2264 22.3994ZM9.06725 23.6C8.24878 23.6 7.46308 23.1892 6.97061 22.4916L6.31707 22.953C6.95447 23.8559 7.98035 24.4 9.06725 24.4V23.6ZM6.97035 22.4913L6.91309 22.4104L6.26007 22.8725L6.31733 22.9534L6.97035 22.4913ZM6.91345 22.4109C6.57839 21.9358 6.4 21.3726 6.4 20.779H5.6C5.6 21.5356 5.82829 22.2603 6.25971 22.872L6.91345 22.4109ZM6.4 20.779V19.7145H5.6V20.779H6.4ZM6.4 19.7145C6.4 16.3222 7.12769 12.9048 8.50265 9.83344L7.77247 9.50656C6.35115 12.6815 5.6 16.2103 5.6 19.7145H6.4ZM8.50265 9.83343C8.89524 8.95644 9.74342 8.4 10.6516 8.4V7.6C9.41364 7.6 8.28793 8.3551 7.77247 9.50657L8.50265 9.83343ZM10.6516 8.4H10.9356V7.6H10.6516V8.4ZM10.9356 8.4C11.5986 8.4 12.2387 8.69369 12.6895 9.21296L13.2936 8.68849C12.6948 7.99877 11.8363 7.6 10.9356 7.6V8.4ZM12.6896 9.21305C13.0561 9.63487 13.5831 9.88089 14.1377 9.88089V9.08089C13.8212 9.08089 13.5123 8.94022 13.2936 8.68839L12.6896 9.21305ZM14.1377 9.88089H17.8628V9.08089H14.1377V9.88089ZM17.8628 9.88089C18.4175 9.88089 18.944 9.63477 19.3104 9.21305L18.7064 8.68839C18.4876 8.94032 18.1791 9.08089 17.8628 9.08089V9.88089ZM19.3105 9.21296C19.7613 8.69371 20.4014 8.4 21.0648 8.4V7.6C20.1637 7.6 19.3052 7.99875 18.7064 8.68849L19.3105 9.21296ZM21.0648 8.4H21.3484V7.6H21.0648V8.4ZM21.3484 8.4C22.2571 8.4 23.1052 8.95647 23.4978 9.83343L24.228 9.50657C23.7125 8.35506 22.5868 7.6 21.3484 7.6V8.4ZM23.4978 9.83342C24.8727 12.9052 25.6 16.3226 25.6 19.7145H26.4C26.4 16.2108 25.6493 12.682 24.228 9.50658L23.4978 9.83342ZM25.6 19.7145V20.779H26.4V19.7145H25.6ZM25.6 20.779C25.6 21.3727 25.422 21.9359 25.0866 22.4113L25.7403 22.8725C26.1722 22.2602 26.4 21.5355 26.4 20.779H25.6ZM25.0869 22.4108L25.0296 22.4917L25.6827 22.9539L25.7399 22.873L25.0869 22.4108ZM25.0295 22.492C24.537 23.1892 23.7512 23.6 22.9328 23.6V24.4C24.0196 24.4 25.0455 23.8559 25.6829 22.9536L25.0295 22.492ZM16.1272 17.7326C16.1272 17.8317 16.0543 17.8828 15.9998 17.8828V18.6828C16.5278 18.6828 16.9272 18.2412 16.9272 17.7326H16.1272ZM15.9998 17.8828C15.9458 17.8828 15.8728 17.8319 15.8728 17.7326H15.0728C15.0728 18.2411 15.472 18.6828 15.9998 18.6828V17.8828ZM15.8728 17.7326C15.8728 17.6333 15.9458 17.5824 15.9998 17.5824V16.7824C15.472 16.7824 15.0728 17.2242 15.0728 17.7326H15.8728ZM15.9998 17.5824C16.0543 17.5824 16.1272 17.6335 16.1272 17.7326H16.9272C16.9272 17.224 16.5278 16.7824 15.9998 16.7824V17.5824ZM21.1939 12.8463C21.1939 12.8738 21.1835 12.895 21.1705 12.9086C21.1578 12.9219 21.1452 12.9258 21.1343 12.9258V13.7258C21.6249 13.7258 21.9939 13.3159 21.9939 12.8463H21.1939ZM21.1343 12.9258C21.1237 12.9258 21.1111 12.922 21.0984 12.9087C21.0853 12.8951 21.0749 12.8738 21.0749 12.8463H20.2749C20.2749 13.3157 20.6438 13.7258 21.1343 13.7258V12.9258ZM21.0749 12.8463C21.0749 12.8187 21.0853 12.7975 21.0984 12.7839C21.1111 12.7706 21.1237 12.7667 21.1343 12.7667V11.9667C20.6438 11.9667 20.2749 12.3768 20.2749 12.8463H21.0749ZM21.1343 12.7667C21.1452 12.7667 21.1578 12.7707 21.1705 12.784C21.1835 12.7975 21.1939 12.8187 21.1939 12.8463H21.9939C21.9939 12.3767 21.6249 11.9667 21.1343 11.9667V12.7667ZM21.1939 16.291C21.1939 16.3186 21.1835 16.3398 21.1705 16.3534C21.1578 16.3666 21.1452 16.3706 21.1343 16.3706V17.1706C21.6249 17.1706 21.9939 16.7606 21.9939 16.291H21.1939ZM21.1343 16.3706C21.1237 16.3706 21.1111 16.3667 21.0984 16.3534C21.0853 16.3398 21.0749 16.3186 21.0749 16.291H20.2749C20.2749 16.7605 20.6438 17.1706 21.1343 17.1706V16.3706ZM21.0749 16.291C21.0749 16.2635 21.0853 16.2422 21.0984 16.2286C21.1111 16.2153 21.1237 16.2115 21.1343 16.2115V15.4115C20.6438 15.4115 20.2749 15.8216 20.2749 16.291H21.0749ZM21.1343 16.2115C21.1452 16.2115 21.1578 16.2154 21.1705 16.2287C21.1835 16.2423 21.1939 16.2635 21.1939 16.291H21.9939C21.9939 15.8214 21.6249 15.4115 21.1343 15.4115V16.2115ZM19.4662 14.5688C19.4662 14.5963 19.4558 14.6175 19.4428 14.6311C19.43 14.6444 19.4174 14.6484 19.4065 14.6484V15.4484C19.8972 15.4484 20.2662 15.0384 20.2662 14.5688H19.4662ZM19.4065 14.6484C19.3959 14.6484 19.3834 14.6445 19.3706 14.6312C19.3576 14.6176 19.3472 14.5964 19.3472 14.5688H18.5472C18.5472 15.0383 18.9161 15.4484 19.4065 15.4484V14.6484ZM19.3472 14.5688C19.3472 14.5412 19.3576 14.52 19.3706 14.5064C19.3834 14.4931 19.3959 14.4892 19.4065 14.4892V13.6892C18.9161 13.6892 18.5472 14.0993 18.5472 14.5688H19.3472ZM19.4065 14.4892C19.4174 14.4892 19.43 14.4932 19.4428 14.5065C19.4558 14.52 19.4662 14.5412 19.4662 14.5688H20.2662C20.2662 14.0992 19.8972 13.6892 19.4065 13.6892V14.4892ZM22.8577 14.5688C22.8577 14.5963 22.8473 14.6175 22.8343 14.6311C22.8216 14.6444 22.809 14.6484 22.7981 14.6484V15.4484C23.2887 15.4484 23.6577 15.0384 23.6577 14.5688H22.8577ZM22.7981 14.6484C22.7874 14.6484 22.7749 14.6445 22.7621 14.6312C22.7491 14.6176 22.7387 14.5964 22.7387 14.5688H21.9387C21.9387 15.0383 22.3076 15.4484 22.7981 15.4484V14.6484ZM22.7387 14.5688C22.7387 14.5412 22.7491 14.52 22.7621 14.5064C22.7749 14.4931 22.7874 14.4892 22.7981 14.4892V13.6892C22.3076 13.6892 21.9387 14.0993 21.9387 14.5688H22.7387ZM22.7981 14.4892C22.809 14.4892 22.8216 14.4932 22.8343 14.5065C22.8473 14.52 22.8577 14.5412 22.8577 14.5688H23.6577C23.6577 14.0992 23.2887 13.6892 22.7981 13.6892V14.4892ZM10.6117 12.5963V14.5689H11.4117V12.5963H10.6117ZM10.6117 14.5689V16.5411H11.4117V14.5689H10.6117ZM9.12126 14.9689H11.0117V14.1689H9.12126V14.9689ZM11.0117 14.9689H12.9022V14.1689H11.0117V14.9689Z" fill="black"/>
</svg>
