<svg width="32" height="32" viewBox="0 0 32 32" fill="none" xmlns="http://www.w3.org/2000/svg">
<path d="M7.79909 18.2144C9.31414 20.6433 11.3548 22.6853 13.782 24.2014M12.2791 16.1917C11.1712 17.9328 10.8883 19.6352 11.7119 20.4477C12.5421 21.2666 14.2609 20.9491 16.0007 19.7955M18.2025 7.80294C20.6297 9.31902 22.6704 11.3611 24.1854 13.7899M16.4522 12.2649C18.0828 11.2751 19.649 11.0404 20.4296 11.8104C21.1909 12.5613 21.0069 14.0724 20.0999 15.6717M13.7818 18.2115L17.9693 14.1037M8.89636 24.2942C10.3341 24.5881 13.3024 24.8511 16.7963 23.1185C19.5326 21.7571 21.7588 19.5294 23.1193 16.7911C24.8508 13.3103 24.588 10.3401 24.2942 8.88585C24.1706 8.28251 23.7068 7.81841 23.1038 7.69464C21.6506 7.41618 18.6824 7.15319 15.2039 8.88585C12.4676 10.2472 10.2414 12.4749 8.8809 15.2132C7.14942 18.694 7.41223 21.6643 7.70597 23.1185C7.82964 23.7063 8.29343 24.1704 8.89636 24.2942Z" stroke="black" stroke-width="0.8" stroke-miterlimit="10" stroke-linecap="round" stroke-linejoin="round"/>
</svg>
