<svg width="32" height="32" viewBox="0 0 32 32" fill="none" xmlns="http://www.w3.org/2000/svg">
<path d="M13 23.3155L16.2606 28L19.0751 23.2894M21.6827 10.6098C21.1044 10.1912 20.2895 10.2435 19.7901 10.7406C19.2644 11.2638 19.2118 12.0749 19.6587 12.6243M17.8189 14.4295C17.2407 14.0109 16.4258 14.0632 15.9264 14.5603C15.4007 15.0835 15.3481 15.8946 15.795 16.444M13.9813 18.2752C13.403 17.8566 12.5882 17.9089 12.0887 18.406C11.563 18.9292 11.5105 19.7403 11.9573 20.2897M13.0429 9.67568C12.4646 9.2571 11.6497 9.30942 11.1503 9.80649C10.6246 10.3297 10.572 11.1407 11.0189 11.6901M12.6435 14.3205C12.0653 13.9019 11.2504 13.9542 10.751 14.4513C10.2253 14.9745 10.1727 15.7855 10.6196 16.3349M15.2194 11.7568C14.7989 11.1812 14.8514 10.3702 15.3509 9.87312C15.8766 9.34988 16.6914 9.29755 17.2434 9.74231M16.1872 5.50193C21.2671 5.60484 25.3014 9.78701 25.198 14.8431C25.0946 19.8991 20.8927 23.9145 15.8128 23.8115C10.7328 23.7086 6.69854 19.5265 6.80193 14.4704C6.90533 9.41435 11.1073 5.39903 16.1872 5.50193Z" stroke="black" stroke-miterlimit="10" stroke-linecap="round" stroke-linejoin="round"/>
</svg>
