<svg width="32" height="32" viewBox="0 0 32 32" fill="none" xmlns="http://www.w3.org/2000/svg">
<path d="M25.1207 17.0794L24.8264 17.3504L24.8284 17.3525L25.1207 17.0794ZM22.6198 14.5936L22.3644 14.9015L22.6198 14.5936ZM20.6264 12.1273L20.9648 11.9137L20.958 11.9035L20.6264 12.1273ZM18.7018 9.90999L18.9671 9.61057L18.9623 9.60647L18.7018 9.90999ZM17.5524 9.23172L17.1535 9.26116C17.1643 9.40692 17.2537 9.53521 17.3867 9.59577L17.5524 9.23172ZM17.0674 7.98302L16.9685 8.37074L16.9784 8.37299L17.0674 7.98302ZM15.3667 7.7615L15.2111 8.12998C15.2202 8.13383 15.2295 8.13735 15.2389 8.14051L15.3667 7.7615ZM14.2235 7.38136L14.137 6.99081L14.1333 6.99166L14.2235 7.38136ZM12.2414 9.23557L11.9383 8.97453C11.8468 9.08085 11.8176 9.22739 11.8615 9.36068C11.9054 9.49397 12.0159 9.59451 12.1528 9.62562L12.2414 9.23557ZM13.3162 9.47991L13.4678 9.85009C13.6292 9.78399 13.7292 9.62084 13.7149 9.44695C13.7005 9.27305 13.575 9.12854 13.4049 9.08986L13.3162 9.47991ZM10.3597 10.8471L10.5162 11.2152C10.5365 11.2066 10.556 11.1964 10.5745 11.1846L10.3597 10.8471ZM6.19164 13.5607C6.04055 13.7219 6.04872 13.975 6.20989 14.1261C6.37105 14.2772 6.62419 14.269 6.77528 14.1079L6.19164 13.5607ZM9.01085 23.4575C8.90943 23.6538 8.98631 23.8951 9.18257 23.9965C9.37883 24.0979 9.62014 24.0211 9.72156 23.8248L9.01085 23.4575ZM11.208 20.382L10.8842 20.1472L10.8839 20.1476L11.208 20.382ZM14.4749 16.1213L14.6758 16.4672L14.681 16.4641L14.4749 16.1213ZM17.848 16.4476L17.9071 16.0518L17.8964 16.0505L17.848 16.4476ZM20.9294 18.3527L21.0643 17.9762V17.9762L20.9294 18.3527ZM24.6286 18.6763L24.5361 18.2871L24.5312 18.2883L24.6286 18.6763ZM25.5553 17.8122L25.9538 17.7778C25.9532 17.7699 25.9523 17.7622 25.9511 17.7544L25.5553 17.8122ZM9.13931 12.1306C9.1957 11.917 9.06826 11.6982 8.85467 11.6418C8.64107 11.5854 8.4222 11.7128 8.36581 11.9264L9.13931 12.1306ZM10.8471 21.1846C11.0675 21.1686 11.2331 20.977 11.2171 20.7567C11.2011 20.5363 11.0094 20.3707 10.7891 20.3867L10.8471 21.1846ZM25.1207 17.0794C25.415 16.8085 25.415 16.8085 25.4149 16.8085C25.4149 16.8085 25.4149 16.8084 25.4149 16.8084C25.4148 16.8083 25.4147 16.8082 25.4146 16.8081C25.4144 16.8079 25.4141 16.8075 25.4137 16.8071C25.4129 16.8062 25.4117 16.8049 25.4101 16.8032C25.4069 16.7998 25.4023 16.7947 25.3962 16.7882C25.3841 16.775 25.3662 16.7558 25.3432 16.731C25.2972 16.6815 25.2307 16.6101 25.148 16.5222C24.9828 16.3464 24.7531 16.104 24.4948 15.838C23.9826 15.3105 23.3439 14.6747 22.8753 14.2858L22.3644 14.9015C22.796 15.2596 23.4077 15.8667 23.9209 16.3953C24.1753 16.6574 24.402 16.8964 24.565 17.07C24.6465 17.1567 24.712 17.227 24.7571 17.2755C24.7796 17.2998 24.7971 17.3186 24.8088 17.3313C24.8147 17.3376 24.8191 17.3424 24.8221 17.3456C24.8236 17.3472 24.8247 17.3485 24.8254 17.3492C24.8257 17.3496 24.826 17.3499 24.8262 17.3501C24.8263 17.3502 24.8263 17.3503 24.8264 17.3503C24.8264 17.3503 24.8264 17.3503 24.8264 17.3503C24.8264 17.3503 24.8264 17.3503 25.1207 17.0794ZM22.8753 14.2858C22.031 13.5853 21.3364 12.5029 20.9647 11.9138L20.2881 12.3407C20.6522 12.9176 21.4082 14.108 22.3644 14.9015L22.8753 14.2858ZM20.958 11.9035C20.7447 11.5876 20.3415 11.099 19.9555 10.6583C19.571 10.2193 19.1736 9.79368 18.967 9.61061L18.4365 10.2094C18.6005 10.3547 18.9676 10.7445 19.3537 11.1854C19.7385 11.6247 20.1123 12.0805 20.2949 12.351L20.958 11.9035ZM18.9623 9.60647C18.7348 9.41121 18.4146 9.22468 18.1719 9.09454C18.0466 9.02734 17.9341 8.97108 17.8529 8.93157C17.8122 8.91177 17.7791 8.89608 17.7559 8.8852C17.7443 8.87976 17.7352 8.87552 17.7288 8.87257C17.7256 8.8711 17.7231 8.86994 17.7213 8.86912C17.7204 8.86871 17.7197 8.86838 17.7192 8.86814C17.7189 8.86802 17.7187 8.86792 17.7185 8.86784C17.7184 8.8678 17.7184 8.86776 17.7183 8.86774C17.7183 8.86772 17.7182 8.8677 17.7182 8.8677C17.7182 8.86768 17.7181 8.86767 17.5524 9.23172C17.3867 9.59577 17.3867 9.59575 17.3866 9.59574C17.3866 9.59574 17.3866 9.59573 17.3866 9.59573C17.3866 9.59572 17.3866 9.59572 17.3866 9.59572C17.3866 9.59573 17.3867 9.59575 17.3868 9.5958C17.387 9.59589 17.3873 9.59607 17.3879 9.59633C17.389 9.59684 17.3909 9.59769 17.3934 9.59884C17.3984 9.60115 17.406 9.60471 17.4161 9.60944C17.4363 9.61889 17.4659 9.63297 17.5029 9.65098C17.5771 9.68706 17.6799 9.73847 17.7938 9.79957C18.0297 9.92604 18.2841 10.0786 18.4412 10.2135L18.9623 9.60647ZM17.5524 9.23172C17.9513 9.20227 17.9513 9.2022 17.9513 9.20212C17.9513 9.20209 17.9513 9.20201 17.9513 9.20195C17.9513 9.20183 17.9513 9.20169 17.9513 9.20153C17.9512 9.20121 17.9512 9.20082 17.9512 9.20036C17.9511 9.19944 17.951 9.19824 17.9509 9.19678C17.9507 9.19384 17.9503 9.18982 17.9499 9.18477C17.9491 9.1747 17.9478 9.16053 17.9461 9.14282C17.9426 9.10745 17.9372 9.05768 17.9295 8.998C17.9142 8.87968 17.8888 8.71755 17.849 8.5493C17.8101 8.38521 17.7525 8.19438 17.6653 8.02954C17.5868 7.88119 17.4329 7.65616 17.1564 7.59305L16.9784 8.37299C16.9017 8.35548 16.9083 8.30934 16.9582 8.40367C16.9994 8.48151 17.0381 8.59715 17.0705 8.73384C17.102 8.86636 17.123 8.99931 17.1361 9.10086C17.1427 9.15112 17.1471 9.1925 17.1499 9.22079C17.1512 9.23491 17.1522 9.24569 17.1528 9.25261C17.1531 9.25607 17.1533 9.25856 17.1534 9.26001C17.1535 9.26073 17.1535 9.2612 17.1535 9.26139C17.1535 9.26149 17.1535 9.26152 17.1535 9.26148C17.1535 9.26146 17.1535 9.26143 17.1535 9.26138C17.1535 9.26135 17.1535 9.2613 17.1535 9.26128C17.1535 9.26123 17.1535 9.26116 17.5524 9.23172ZM17.1662 7.59542C16.9109 7.53031 16.5387 7.50625 16.2364 7.48266C15.8951 7.45602 15.634 7.42951 15.4946 7.38248L15.2389 8.14051C15.4939 8.22654 15.8702 8.25652 16.1742 8.28024C16.5172 8.30701 16.7982 8.32717 16.9686 8.37062L17.1662 7.59542ZM15.5224 7.39302C15.4837 7.37668 15.4333 7.34757 15.3464 7.29466C15.2685 7.24722 15.1654 7.18341 15.0528 7.12739C14.822 7.0126 14.5091 6.90841 14.137 6.99083L14.31 7.7719C14.4328 7.74471 14.5501 7.77087 14.6965 7.84368C14.7725 7.88146 14.8447 7.92577 14.9303 7.97793C15.007 8.02462 15.1084 8.08659 15.2111 8.12998L15.5224 7.39302ZM14.1333 6.99166C14 7.02252 13.8745 7.09584 13.7777 7.16063C13.6724 7.23117 13.5609 7.31955 13.4502 7.41466C13.2284 7.6053 12.9859 7.84355 12.7648 8.07194C12.5425 8.30152 12.3362 8.52681 12.1858 8.69429C12.1106 8.77816 12.049 8.84784 12.0061 8.89672C11.9847 8.92116 11.9679 8.94041 11.9564 8.95365C11.9507 8.96027 11.9462 8.96539 11.9432 8.9689C11.9417 8.97066 11.9405 8.97202 11.9397 8.97296C11.9393 8.97343 11.939 8.9738 11.9387 8.97406C11.9386 8.97419 11.9385 8.97429 11.9385 8.97437C11.9384 8.97441 11.9384 8.97445 11.9384 8.97447C11.9384 8.9745 11.9383 8.97453 12.2414 9.23557C12.5445 9.49662 12.5445 9.49663 12.5445 9.49663C12.5445 9.49663 12.5445 9.49663 12.5445 9.49661C12.5445 9.49658 12.5446 9.49653 12.5446 9.49645C12.5448 9.49629 12.545 9.49603 12.5453 9.49566C12.546 9.49492 12.547 9.49378 12.5483 9.49223C12.551 9.48914 12.555 9.48446 12.5604 9.47829C12.5711 9.46594 12.587 9.44764 12.6076 9.42421C12.6487 9.37733 12.7082 9.30998 12.7811 9.22872C12.9273 9.06592 13.1264 8.84853 13.3395 8.62847C13.5537 8.40722 13.7768 8.18888 13.9716 8.02142C14.0693 7.93748 14.154 7.87143 14.2229 7.82535C14.3002 7.77353 14.3268 7.76803 14.3137 7.77106L14.1333 6.99166ZM12.1528 9.62562L13.2275 9.86996L13.4049 9.08986L12.3301 8.84552L12.1528 9.62562ZM13.3162 9.47991C13.1647 9.10973 13.1647 9.10974 13.1646 9.10975C13.1646 9.10976 13.1646 9.10977 13.1645 9.10979C13.1644 9.10982 13.1643 9.10987 13.1642 9.10993C13.1639 9.11006 13.1634 9.11024 13.1629 9.11047C13.1617 9.11095 13.16 9.11164 13.1578 9.11255C13.1534 9.11437 13.1468 9.11705 13.1383 9.12055C13.1213 9.12755 13.0964 9.13784 13.0644 9.15107C13.0006 9.17752 12.9087 9.21574 12.7964 9.26295C12.5719 9.35733 12.265 9.48789 11.9361 9.63241C11.2912 9.91581 10.5214 10.2701 10.1449 10.5097L10.5745 11.1846C10.8889 10.9844 11.5974 10.6551 12.258 10.3648C12.5818 10.2225 12.8846 10.0937 13.1064 10.0004C13.2173 9.95384 13.3078 9.91616 13.3706 9.89018C13.402 9.87718 13.4264 9.86712 13.4429 9.86032C13.4511 9.85692 13.4574 9.85434 13.4616 9.85262C13.4637 9.85176 13.4653 9.85112 13.4663 9.8507C13.4668 9.85049 13.4672 9.85033 13.4674 9.85023C13.4676 9.85018 13.4676 9.85014 13.4677 9.85012C13.4677 9.85011 13.4677 9.8501 13.4678 9.8501C13.4678 9.85009 13.4678 9.85009 13.3162 9.47991ZM10.2032 10.479C8.57205 11.1726 6.92103 12.7827 6.19164 13.5607L6.77528 14.1079C7.50176 13.3329 9.05377 11.8371 10.5162 11.2152L10.2032 10.479ZM9.72156 23.8248C10.2131 22.8736 10.8394 21.5742 11.5322 20.6165L10.8839 20.1476C10.146 21.1679 9.48311 22.5436 9.01085 23.4575L9.72156 23.8248ZM11.5319 20.6169C11.7304 20.3431 11.9963 19.9603 12.2891 19.5406C12.5832 19.1189 12.9067 18.6566 13.2248 18.2173C13.5435 17.7772 13.8531 17.3652 14.1193 17.043C14.2525 16.8817 14.3713 16.7474 14.4722 16.6449C14.5787 16.5368 14.6456 16.4847 14.6757 16.4672L14.274 15.7753C14.148 15.8485 14.0201 15.9639 13.9022 16.0835C13.7788 16.2089 13.6437 16.3626 13.5026 16.5334C13.2201 16.8754 12.8988 17.3035 12.5768 17.7481C12.2542 18.1937 11.9271 18.6611 11.6329 19.0829C11.3374 19.5066 11.0772 19.8811 10.8842 20.1472L11.5319 20.6169ZM14.681 16.4641C14.7307 16.4342 14.8834 16.3964 15.1832 16.4043C15.4601 16.4116 15.7918 16.4546 16.1348 16.5137C16.4758 16.5725 16.8151 16.645 17.1068 16.708C17.3855 16.7683 17.647 16.826 17.7996 16.8446L17.8964 16.0505C17.7908 16.0376 17.5799 15.9918 17.2757 15.9261C16.9844 15.8631 16.6302 15.7873 16.2708 15.7253C15.9133 15.6637 15.5377 15.6133 15.2041 15.6046C14.8933 15.5964 14.5324 15.6199 14.2687 15.7785L14.681 16.4641ZM17.7889 16.8432C17.7877 16.843 17.826 16.8517 17.9191 16.8984C18.0038 16.9409 18.1087 17.002 18.2319 17.0797C18.4785 17.2354 18.7717 17.4408 19.0815 17.6593C19.3872 17.8749 19.7084 18.1025 19.998 18.292C20.2787 18.4755 20.565 18.647 20.7945 18.7293L21.0643 17.9762C20.9344 17.9296 20.72 17.8082 20.4359 17.6224C20.1607 17.4425 19.8529 17.2244 19.5425 17.0055C19.2362 16.7895 18.9259 16.5717 18.6589 16.4032C18.5253 16.3189 18.3958 16.2426 18.2781 16.1835C18.1689 16.1286 18.0369 16.0714 17.9071 16.052L17.7889 16.8432ZM20.7945 18.7293C21.0161 18.8086 21.349 18.8713 21.7011 18.9214C22.0627 18.9728 22.4759 19.0149 22.8756 19.0457C23.2753 19.0765 23.6663 19.0962 23.9841 19.1021C24.1426 19.1051 24.2864 19.1046 24.4055 19.1C24.5142 19.0958 24.6339 19.0874 24.7259 19.0643L24.5312 18.2883C24.5352 18.2873 24.525 18.29 24.4927 18.2932C24.4632 18.2961 24.4239 18.2987 24.3746 18.3006C24.2761 18.3044 24.1488 18.305 23.9989 18.3023C23.6998 18.2967 23.3246 18.2779 22.937 18.248C22.5492 18.2182 22.1538 18.1777 21.8137 18.1294C21.4642 18.0797 21.2024 18.0256 21.0643 17.9762L20.7945 18.7293ZM24.7211 19.0655C25.0092 18.997 25.3061 18.8013 25.5191 18.6057C25.6296 18.5041 25.7346 18.3872 25.8133 18.2635C25.884 18.1524 25.9711 17.9777 25.9538 17.7778L25.1568 17.8466C25.1513 17.7827 25.1776 17.7722 25.1383 17.834C25.107 17.8832 25.0527 17.9478 24.9778 18.0166C24.8199 18.1616 24.6418 18.262 24.5361 18.2872L24.7211 19.0655ZM25.9511 17.7544C25.9129 17.4925 25.7513 17.2411 25.6458 17.0938C25.5866 17.0113 25.5296 16.9408 25.4875 16.8911C25.4664 16.866 25.4486 16.8458 25.4357 16.8314C25.4293 16.8241 25.424 16.8184 25.4202 16.8142C25.4183 16.8121 25.4167 16.8103 25.4155 16.809C25.4149 16.8084 25.4143 16.8078 25.4139 16.8074C25.4137 16.8071 25.4135 16.8069 25.4134 16.8068C25.4133 16.8067 25.4132 16.8066 25.4131 16.8065C25.4131 16.8065 25.4131 16.8064 25.413 16.8064C25.413 16.8064 25.4129 16.8063 25.1207 17.0794C24.8284 17.3525 24.8284 17.3525 24.8284 17.3525C24.8284 17.3524 24.8283 17.3524 24.8283 17.3524C24.8282 17.3523 24.8282 17.3523 24.8282 17.3523C24.8281 17.3522 24.8281 17.3521 24.828 17.3521C24.828 17.3521 24.828 17.3521 24.8282 17.3522C24.8284 17.3525 24.829 17.3532 24.83 17.3542C24.8318 17.3562 24.835 17.3597 24.8392 17.3645C24.8478 17.374 24.8607 17.3887 24.8766 17.4076C24.9088 17.4456 24.9518 17.4989 24.9955 17.5599C25.0957 17.6996 25.1515 17.8147 25.1595 17.8699L25.9511 17.7544ZM8.36581 11.9264C7.93075 13.5743 7.73674 15.8699 8.01534 17.7441C8.15424 18.6785 8.41635 19.5494 8.85917 20.1834C9.31537 20.8366 9.97534 21.248 10.8471 21.1846L10.7891 20.3867C10.2513 20.4259 9.8426 20.1943 9.51505 19.7254C9.17413 19.2372 8.93747 18.5066 8.80665 17.6265C8.54583 15.8719 8.72861 13.6863 9.13931 12.1306L8.36581 11.9264ZM16.6524 12.3817C16.6524 12.7683 16.9658 13.0817 17.3524 13.0817V12.2817C17.4077 12.2817 17.4524 12.3264 17.4524 12.3817H16.6524ZM17.3524 13.0817C17.739 13.0817 18.0524 12.7683 18.0524 12.3817H17.2524C17.2524 12.3264 17.2972 12.2817 17.3524 12.2817V13.0817ZM18.0524 12.3817C18.0524 11.9951 17.739 11.6817 17.3524 11.6817V12.4817C17.2972 12.4817 17.2524 12.4369 17.2524 12.3817H18.0524ZM17.3524 11.6817C16.9658 11.6817 16.6524 11.9951 16.6524 12.3817H17.4524C17.4524 12.4369 17.4077 12.4817 17.3524 12.4817V11.6817Z" fill="black"/>
</svg>
