<svg width="32" height="32" viewBox="0 0 32 32" fill="none" xmlns="http://www.w3.org/2000/svg">
<path d="M14.7426 7.82653C15.2078 6.72449 16.7922 6.72449 17.2574 7.82654L18.7423 11.3443C18.9384 11.8089 19.3818 12.1264 19.8908 12.1666L23.7451 12.471C24.9525 12.5664 25.4421 14.0512 24.5222 14.8277L21.5857 17.3063C21.1978 17.6336 21.0285 18.1472 21.147 18.6367L22.0441 22.3426C22.3252 23.5036 21.0434 24.4213 20.0096 23.7991L16.7098 21.8132C16.274 21.5509 15.726 21.5509 15.2902 21.8132L11.9904 23.7991C10.9566 24.4213 9.67483 23.5036 9.95589 22.3426L10.853 18.6367C10.9715 18.1472 10.8022 17.6336 10.4143 17.3063L7.4778 14.8277C6.55785 14.0512 7.04746 12.5664 8.25491 12.471L12.1092 12.1666C12.6182 12.1264 13.0616 11.8089 13.2577 11.3443L14.7426 7.82653Z" stroke="black" stroke-width="0.8"/>
</svg>
