<svg width="32" height="32" viewBox="0 0 32 32" fill="none" xmlns="http://www.w3.org/2000/svg">
<path d="M14.2223 22.2211L16.222 25.4422L17.9996 22.2211M20.8432 10.9791C20.3503 10.6206 19.6558 10.6654 19.2302 11.0911C18.7821 11.5391 18.7373 12.2336 19.1182 12.704M17.5502 14.2499C17.0573 13.8914 16.3629 13.9362 15.9372 14.3619C15.4892 14.8099 15.4444 15.5044 15.8252 15.9749M14.2794 17.543C13.7866 17.1845 13.0921 17.2293 12.6665 17.655C12.2184 18.103 12.1736 18.7975 12.5544 19.268M13.4796 10.1792C12.9868 9.82073 12.2923 9.86554 11.8666 10.2912C11.4186 10.7392 11.3738 11.4337 11.7546 11.9042M13.1393 14.1565C12.6464 13.7981 11.952 13.8429 11.5263 14.2685C11.0783 14.7166 11.0335 15.4111 11.4143 15.8815M15.3347 11.9612C14.9762 11.4684 15.021 10.7739 15.4467 10.3482C15.8947 9.90018 16.5892 9.85538 17.0597 10.2362M16.1595 6.60517C20.489 6.69329 23.9274 10.2745 23.8392 14.604C23.7511 18.9336 20.1699 22.3719 15.8404 22.2838C11.5108 22.1957 8.0725 18.6144 8.16062 14.2849C8.24874 9.95539 11.83 6.51705 16.1595 6.60517Z" stroke="black" stroke-width="0.8" stroke-miterlimit="10" stroke-linecap="round" stroke-linejoin="round"/>
</svg>
