<svg width="32" height="32" fill="none" xmlns="http://www.w3.org/2000/svg"><path d="m23.226 9.833.38-.324-.38.324Zm-1.06 13.393-.324-.38.325.38Zm-13.392-1.06.38-.324-.38.325Zm1.06-13.392-.325-.38.324.38Zm8.451 5.961a.5.5 0 0 0 .309.951l-.309-.951Zm2.151.353a.5.5 0 1 0-.308-.95l.308.95ZM19.34 17.12a.5.5 0 1 0 .59.808l-.59-.808Zm2.146-.327a.5.5 0 1 0-.588-.808l.588.808Zm-.424 2.323a.5.5 0 0 0 .811.585l-.811-.585Zm1.96-1.01a.5.5 0 1 0-.812-.585l.812.585Zm-4.447-8.547a.5.5 0 1 0-.3.955l.3-.955Zm1.556 1.537a.5.5 0 1 0 .3-.954l-.3.954Zm-2.093 1.01a.5.5 0 1 0-.002 1l.002-1Zm1.925 1.004a.5.5 0 0 0 .002-1l-.002 1Zm-6.253 4.161a.5.5 0 0 0-.308-.951l.308.951Zm-2.218-.332a.5.5 0 0 0 .309.952l-.309-.951Zm2.484 3.03a.5.5 0 1 0 .008-1l-.008 1Zm-1.996-1.015a.5.5 0 1 0-.008 1l.008-1Zm1.419 3.68a.5.5 0 0 0 .317-.948l-.317.948Zm-1.594-1.587a.5.5 0 1 0-.317.948l.317-.948Zm-.995-8.297a.5.5 0 0 0-.805-.593l.805.593Zm-1.987 1.012a.5.5 0 0 0 .805.593l-.805-.593Zm3.79.99a.5.5 0 1 0-.593-.805l.594.804Zm-2.206.385a.5.5 0 0 0 .593.804l-.593-.804Zm12.44-4.98a9 9 0 0 1-1.004 12.689l.65.76c4.2-3.585 4.7-9.897 1.114-14.097l-.76.649Zm-1.004 12.689a9 9 0 0 1-12.688-1.004l-.76.65c3.585 4.2 9.897 4.7 14.097 1.114l-.649-.76ZM9.154 21.842a9 9 0 0 1 1.004-12.688l-.65-.76c-4.2 3.585-4.7 9.897-1.114 14.097l.76-.649Zm1.004-12.688a9 9 0 0 1 12.688 1.004l.76-.65c-3.585-4.2-9.897-4.7-14.097-1.114l.649.76Zm8.436 6.532 1.842-.598-.308-.95-1.843.597.309.951Zm1.334 2.242 1.557-1.135-.588-.808-1.558 1.135.59.808Zm1.944 1.773 1.149-1.595-.812-.585-1.148 1.595.811.585Zm-3.597-9.188 1.855.583.3-.954-1.856-.583-.3.955Zm-.24 2.593 1.927.004.002-1-1.927-.004-.002 1ZM13.4 16.32l-1.91.62.309.95 1.91-.619-.31-.951Zm.582 2.65-2.005-.016-.008 1 2.005.016.008-1Zm-.268 2.716-1.91-.64-.318.949 1.91.639.318-.948Zm-3.711-9.529-1.182 1.605.805.593 1.182-1.605-.805-.593Zm2.015 1.79-1.613 1.19.593.804 1.614-1.19-.594-.804Z" fill="#000"/></svg>