<svg width="32" height="32" fill="none" xmlns="http://www.w3.org/2000/svg"><path d="M15.563 25.583a.5.5 0 0 0 .553.834l-.553-.834Zm3.992-2.048.03-.5a.5.5 0 0 0-.307.083l.277.417Zm4.445.27-.03.498a.5.5 0 0 0 .502-.664l-.472.165Zm-1.879-6.877a.5.5 0 1 0-.943.33l.943-.33Zm-3.166 6.683a.5.5 0 0 0 .946-.325l-.946.325Zm-.399-4.25a.5.5 0 1 0-.946.325l.946-.325Zm-3.077 7.047a.5.5 0 1 0 .553-.834l-.553.834Zm-3.034-2.613.277-.416a.5.5 0 0 0-.307-.083l.03.5ZM8 24.066l-.477-.149a.5.5 0 0 0 .507.648L8 24.065Zm2.853-7.487a.5.5 0 0 0-.955-.297l.955.297Zm1.3 7.049a.5.5 0 0 0 .965.262l-.965-.262Zm2.188-4.24a.5.5 0 0 0-.965-.262l.965.263Zm8.09-6.562c0 3.496-2.82 6.326-6.293 6.326v1c4.03 0 7.294-3.282 7.294-7.326h-1Zm-6.293 6.326c-3.473 0-6.293-2.83-6.293-6.326h-1c0 4.044 3.263 7.326 7.293 7.326v-1Zm-6.293-6.326c0-3.495 2.82-6.325 6.293-6.325v-1c-4.03 0-7.293 3.282-7.293 7.325h1ZM16.138 6.5c3.474 0 6.294 2.83 6.294 6.325h1c0-4.043-3.263-7.325-7.294-7.325v1Zm-2.37 6.325a.09.09 0 0 1 .09-.088v1a.91.91 0 0 0 .91-.912h-1Zm.09-.088a.09.09 0 0 1 .091.088h-1a.91.91 0 0 0 .91.912v-1Zm.091.088a.09.09 0 0 1-.09.089v-1a.91.91 0 0 0-.91.911h1Zm-.09.089a.09.09 0 0 1-.091-.089h1a.91.91 0 0 0-.91-.911v1Zm2.153-.089a.09.09 0 0 1 .09-.088v1a.91.91 0 0 0 .91-.912h-1Zm.09-.088a.09.09 0 0 1 .09.088h-1a.91.91 0 0 0 .91.912v-1Zm.09.088a.09.09 0 0 1-.09.089v-1a.91.91 0 0 0-.91.911h1Zm-.09.089a.09.09 0 0 1-.09-.089h1a.91.91 0 0 0-.91-.911v1Zm2.154-.089a.09.09 0 0 1 .09-.088v1a.91.91 0 0 0 .91-.912h-1Zm.09-.088a.09.09 0 0 1 .09.088h-1a.91.91 0 0 0 .91.912v-1Zm.09.088a.09.09 0 0 1-.09.089v-1a.91.91 0 0 0-.91.911h1Zm-.09.089a.09.09 0 0 1-.09-.089h1a.91.91 0 0 0-.91-.911v1Zm-2.23 13.503 3.715-2.466-.553-.833-3.715 2.465.553.834Zm3.408-2.383 4.446.27.06-.999-4.445-.27-.06.999Zm4.948-.395-2.35-6.711-.944.33 2.35 6.712.944-.331Zm-4.57-.353-1.346-3.925-.946.325 1.345 3.925.946-.325Zm-3.87 2.288-3.31-2.195-.553.833 3.31 2.196.553-.834Zm-3.617-2.278-4.445.27.06.998 4.446-.27-.06-.998Zm-3.938.918 2.376-7.636-.955-.297-2.375 7.635.954.297Zm4.64-.325 1.224-4.501-.965-.263-1.223 4.502.965.262Z" fill="#000"/></svg>