<svg width="32" height="32" fill="none" xmlns="http://www.w3.org/2000/svg"><path d="m19.902 13.67.5-.03-.5.03Zm.249-1.05-.433-.25.433.25Zm-.467 2.63.432.251-.432-.251Zm.25-1.053-.5.03.5-.03ZM16.56 7.055a.5.5 0 0 0 0 1v-1Zm3.266.01.246.436a.485.485 0 0 0 .027-.016l-.273-.42ZM23.182 5.5l.5-.025a.5.5 0 0 0-.5-.475v.5Zm1.447 6.404.339-.368a.51.51 0 0 0-.024-.02l-.315.388Zm-.117-.095.315-.388a.496.496 0 0 0-.076-.051l-.24.439Zm-1.06-.247-.024-.5-.01.001.034.5Zm-.383-.013-.063.496.012.002.052-.498Zm-1.306-2.268a.5.5 0 1 0-.992-.128l.992.128Zm4.258 3.186-.393-.31.393.31Zm-.583.19-.134.482.134-.481Zm1.011-1.17.445-.227-.445.228Zm-.05.499.394.31-.393-.31Zm-3.18-5.741-.5.024.5-.024Zm.213.552-.389.314.39-.314Zm1.701 5.652-.393.309.393-.309Zm-3.607-6.492-.273-.419.273.419Zm3.96 3.66a.5.5 0 0 0-.742-.67l.742.67Zm-2.796 1.601a.5.5 0 1 0 .741.671l-.741-.67Zm-8.271-2.067a.5.5 0 0 0 0 1v-1ZM20.382 12a.5.5 0 0 0 .405-.914l-.405.914Zm-3.709-2.187-.202.457.203-.457ZM13.11 11.28a.5.5 0 1 0 0 1v-1Zm1.255 1a.5.5 0 0 0 0-1v1Zm4.913 2.838a.5.5 0 0 0 .461.887l-.46-.887Zm2.526 6.407a.5.5 0 1 0 .544.838l-.544-.838Zm2.291-.892-.272-.42.272.42Zm-.233-3.815.145-.478-.145.478Zm-3.712.392a.5.5 0 0 0-.205.979l.205-.98Zm.878 2.79a.5.5 0 0 0 .48.877l-.48-.877Zm1.86-.45.24.439-.24-.439Zm-.13-1.284-.101.49.102-.49Zm-6.577-1.97a.5.5 0 0 0-.695.72l.695-.72Zm3.362 4.519.443-.233-.021-.04-.028-.036-.394.309Zm3.501 2.635-.416.276.026.04.034.035.356-.351Zm-2.21-3.332-.452.215.015.032.02.03.416-.277Zm-1.847-5.04a.5.5 0 1 0-.903.43l.903-.43Zm5.465 9.802-.356.35.356-.35Zm-1.857.869-.45.219.45-.22Zm-.706-1.203-.296.404.296-.404Zm.288.345.45-.219-.45.219Zm-1.01-.991.443-.233-.443.232Zm.275.318.296-.403-.296.403Zm-4.837-6.992-.24.439.24-.44Zm.34.278.394-.308-.393.308ZM12.9 14.302a.5.5 0 1 0 0-1v1Zm-6.069-1a.5.5 0 0 0 0 1v-1Zm8.443 8.07A4.632 4.632 0 0 1 10.636 26v1a5.632 5.632 0 0 0 5.637-5.628h-1ZM10.636 26A4.632 4.632 0 0 1 6 21.372H5A5.632 5.632 0 0 0 10.636 27v-1ZM6 21.372a4.632 4.632 0 0 1 4.636-4.628v-1A5.632 5.632 0 0 0 5 21.372h1Zm4.636-4.628a4.632 4.632 0 0 1 4.637 4.628h1a5.632 5.632 0 0 0-5.637-5.628v1Zm8.908-.26.572-.983-.864-.503-.572.983.864.503Zm.889-2.317-.032-.527-.998.06.032.527.998-.06Zm.15-1.296 1.297-2.237-.865-.501-1.297 2.237.865.501Zm-.182.77a1.368 1.368 0 0 1 .182-.77l-.865-.501a2.369 2.369 0 0 0-.315 1.33l.998-.06Zm-.285 1.86a2.37 2.37 0 0 0 .317-1.334l-.998.06c.016.27-.048.538-.183.771l.864.503ZM16.56 8.055c1.166 0 2.256.155 3.512-.554l-.491-.87c-.968.545-1.711.424-3.021.424v1Zm3.54-.57 1.7-1.11-.547-.837-1.7 1.109.546.838ZM23.063 6h.118V5h-.118v1Zm-.381-.475.037.744.999-.049-.037-.745-.999.05Zm.36 1.586c1.153 1.426 2.119 2.962 2.961 4.605l.89-.456c-.869-1.694-1.87-3.29-3.073-4.777l-.778.628Zm2.964 4.566-.379.48.786.62.379-.482-.786-.618Zm-.48.464a5.103 5.103 0 0 0-.56-.605l-.677.736c.164.15.314.312.45.486l.787-.617Zm-.583-.625-.117-.095-.63.776.117.095.63-.776Zm-.193-.146a2.516 2.516 0 0 0-1.323-.307l.047.999c.275-.013.55.051.797.186l.479-.878Zm-1.334-.307c-.083.006-.18 0-.296-.011l-.103.995c.135.014.3.026.468.014l-.069-.998Zm-.284-.01a1.586 1.586 0 0 1-1.37-1.772l-.992-.128a2.586 2.586 0 0 0 2.235 2.892l.127-.992Zm2.495 1.105a.053.053 0 0 1-.056.018l-.268.963c.409.114.847-.029 1.11-.362l-.786-.62Zm.376-.442a.037.037 0 0 1 .003-.04l.786.62a.963.963 0 0 0 .101-1.036l-.89.456ZM22.72 6.27c.015.312.132.605.323.842l.778-.628a.455.455 0 0 1-.102-.263l-1 .05Zm2.852 5.907a.095.095 0 0 1-.045-.035l-.787.617c.136.174.329.316.564.381l.268-.963Zm-3.773-5.8A2.315 2.315 0 0 1 23.064 6V5c-.643 0-1.273.187-1.811.538l.546.838Zm2.945 2.57-2.054 2.272.741.671 2.055-2.272-.742-.67ZM14.42 10.152h1.495v-1H14.42v1Zm2.052.118 3.911 1.73.405-.914-3.911-1.73-.405.914Zm-.557-.118c.192 0 .382.04.557.118l.405-.915a2.377 2.377 0 0 0-.962-.203v1ZM13.11 12.28h1.255v-1H13.11v1Zm6.63 3.725c-.094.049-.177.053-.191.054a.422.422 0 0 1-.058 0l-.019-.001a11.09 11.09 0 0 1 .428.108c.302.082.715.201 1.17.335.907.267 1.975.59 2.646.795l.291-.956c-.672-.205-1.742-.53-2.656-.798a70.39 70.39 0 0 0-1.187-.34 11.836 11.836 0 0 0-.387-.101 2.315 2.315 0 0 0-.138-.03.815.815 0 0 0-.159-.01c-.02.002-.106.007-.202.057l.461.887Zm4.281 1.706v2.138h1V17.71h-1Zm-.198 2.503-2.02 1.31.545.84 2.02-1.312-.545-.838Zm.198-.365a.435.435 0 0 1-.198.364l.545.84c.407-.265.653-.718.653-1.204h-1Zm-.305-2.553a.431.431 0 0 1 .305.415h1c0-.63-.409-1.187-1.014-1.371l-.291.956Zm-3.771.893 2.712.567.204-.98-2.711-.566-.205.979Zm2.687.535v.416h1v-.416h-1Zm.016.388-1.62.888.48.877 1.62-.888-.48-.877Zm-.016.028c0-.012.006-.023.016-.028l.48.877a.968.968 0 0 0 .504-.849h-1Zm.025-.384a.032.032 0 0 1-.025-.032h1a.968.968 0 0 0-.77-.947l-.205.979Zm-7.17-1.74c.26.25.553.471.879.649l.479-.878a3.074 3.074 0 0 1-.664-.49l-.695.72Zm1.065.797 2.598 3.31.787-.617-2.598-3.31-.787.617Zm2.549 3.235 1.624 3.084.885-.465-1.624-3.085-.885.466Zm2.045 3.573.448.329.591-.807-.447-.328-.592.806Zm.582.489.417.858.9-.439-.419-.857-.898.438Zm1.288 1.402h1.102v-1h-1.102v1Zm2.07-.968v-.336h-1v.336h1Zm-.278-1.015L23.4 23.1l-.713.702 1.408 1.43.712-.702Zm-1.347-1.355-2.211-3.332-.833.553 2.21 3.331.834-.552Zm-2.176-3.27-2.298-4.826-.903.43 2.298 4.825.903-.43Zm3.802 5.304c0-.254-.1-.498-.279-.679l-.712.702a.033.033 0 0 1-.01-.023h1Zm-2.942.76c.163.333.5.544.871.544v-1c.012 0 .023.006.028.017l-.899.439Zm-.551-1.018a.436.436 0 0 1 .134.16l.898-.438a1.436 1.436 0 0 0-.441-.529l-.591.806Zm-.87-.818c.102.193.246.36.422.49l.592-.807a.437.437 0 0 1-.128-.148l-.885.465Zm3.394 2.38a.968.968 0 0 0 .968-.968h-1c0-.019.015-.032.032-.032v1Zm-7.752-8.847a.596.596 0 0 1 .186.148l.787-.617a1.59 1.59 0 0 0-.494-.41l-.48.879Zm-3.466-4.363H6.83v1H12.9v-1Z" fill="#000"/></svg>