<svg width="32" height="32" viewBox="0 0 32 32" fill="none" xmlns="http://www.w3.org/2000/svg">
<path d="M16.6733 13.57C16.8176 13.3345 16.7438 13.0267 16.5083 12.8824C16.2729 12.7381 15.965 12.812 15.8207 13.0474L16.6733 13.57ZM15.7023 17.5159L16.1808 17.3707L16.1777 17.3612L15.7023 17.5159ZM18.6679 20.6708L18.4773 21.133L18.4787 21.1336L18.6679 20.6708ZM20.7547 22.24L21.1818 21.9801C21.1762 21.9709 21.1703 21.9618 21.164 21.9529L20.7547 22.24ZM21.1312 22.8588L21.5583 22.5989L21.1312 22.8588ZM21.7558 24.5339L21.2856 24.704C21.3156 24.7868 21.3669 24.8603 21.4344 24.9169L21.7558 24.5339ZM22.807 25.4159L22.4856 25.7989C22.6305 25.9205 22.8316 25.9499 23.0053 25.8749L22.807 25.4159ZM25.5233 24.2424L25.7216 24.7014C25.9097 24.6201 26.0292 24.4324 26.0231 24.2276L25.5233 24.2424ZM23.7749 9.42538C23.7069 9.15773 23.4349 8.99585 23.1672 9.06382C22.8996 9.13178 22.7377 9.40385 22.8057 9.67149L23.7749 9.42538ZM20.8285 14.5482L20.5072 14.9312L20.8285 14.5482ZM21.7234 13.4818L21.402 13.8648L21.7234 13.4818ZM21.9729 21.316C22.2445 21.2663 22.4244 21.0058 22.3746 20.7342C22.3249 20.4625 22.0644 20.2827 21.7928 20.3324L21.9729 21.316ZM18.1009 19.8556C17.8611 19.7187 17.5557 19.802 17.4187 20.0418C17.2818 20.2816 17.3652 20.587 17.6049 20.724L18.1009 19.8556ZM16.2802 26.3821C16.4087 26.6265 16.7111 26.7204 16.9555 26.5918C17.1998 26.4632 17.2937 26.1609 17.1651 25.9165L16.2802 26.3821ZM17.1057 19.9657C17.2832 19.7542 17.2556 19.4388 17.044 19.2613C16.8325 19.0838 16.5171 19.1114 16.3396 19.3229L17.1057 19.9657ZM22.8868 9.18097C22.7164 9.39833 22.7546 9.71261 22.9719 9.88293C23.1893 10.0533 23.5036 10.0151 23.6739 9.79777L22.8868 9.18097ZM25.0708 7.20451L25.4643 7.51291C25.6306 7.30067 25.5987 6.9948 25.3922 6.82149L25.0708 7.20451ZM9.27109 11.09L9.65412 11.4114L9.27109 11.09ZM5.63609 17.8861C5.59272 18.1588 5.77864 18.4151 6.05136 18.4584C6.32407 18.5018 6.58031 18.3159 6.62368 18.0432L5.63609 17.8861ZM24.8984 7.05991L25.2198 6.67689V6.67689L24.8984 7.05991ZM23.9473 6.54048L24.0862 6.06014L23.9473 6.54048ZM17.6109 6.82722C17.5672 6.55454 17.3108 6.36886 17.0381 6.41249C16.7655 6.45612 16.5798 6.71253 16.6234 6.98521L17.6109 6.82722ZM18.8226 20.7303C18.8663 21.003 19.1227 21.1886 19.3953 21.145C19.668 21.1014 19.8537 20.845 19.8101 20.5723L18.8226 20.7303ZM8.02765 13.7743C7.9886 13.5009 7.73533 13.311 7.46196 13.35C7.1886 13.3891 6.99865 13.6424 7.0377 13.9157L8.02765 13.7743ZM15.4426 22.7675C15.7114 22.8308 15.9806 22.6641 16.0438 22.3953C16.1071 22.1265 15.9404 21.8574 15.6716 21.7941L15.4426 22.7675ZM15.8207 13.0474C14.9373 14.4887 14.7465 16.1943 15.2268 17.6706L16.1777 17.3612C15.7905 16.1711 15.9385 14.7688 16.6733 13.57L15.8207 13.0474ZM15.2239 17.6612C15.7168 19.2849 16.9366 20.4976 18.4773 21.133L18.8586 20.2085C17.5602 19.6731 16.5762 18.6732 16.1807 17.3707L15.2239 17.6612ZM18.4787 21.1336C19.2638 21.4545 19.8994 21.8914 20.3454 22.5272L21.164 21.9529C20.5768 21.1159 19.7616 20.5777 18.8571 20.2079L18.4787 21.1336ZM20.3275 22.4999L20.704 23.1187L21.5583 22.5989L21.1818 21.9801L20.3275 22.4999ZM20.704 23.1187C20.8653 23.3838 20.9432 23.588 21.0119 23.8132C21.0784 24.0311 21.1547 24.3424 21.2856 24.704L22.2259 24.3637C22.1049 24.0293 22.0572 23.8125 21.9684 23.5215C21.8819 23.2379 21.7734 22.9525 21.5583 22.5989L20.704 23.1187ZM21.4344 24.9169L22.4856 25.7989L23.1284 25.0329L22.0772 24.1508L21.4344 24.9169ZM23.0053 25.8749L25.7216 24.7014L25.325 23.7834L22.6087 24.9569L23.0053 25.8749ZM26.0231 24.2276C25.8694 19.0247 25.0709 14.5291 23.7749 9.42538L22.8057 9.67149C24.0899 14.7288 24.8727 19.1489 25.0235 24.2571L26.0231 24.2276ZM20.5072 14.9312C21.0131 15.3558 21.7678 15.2907 22.1928 14.7843L21.4267 14.1415C21.3574 14.2241 21.2336 14.2354 21.1499 14.1652L20.5072 14.9312ZM22.1928 14.7843C22.6177 14.2779 22.5507 13.5233 22.0448 13.0988L21.402 13.8648C21.4856 13.935 21.496 14.0589 21.4267 14.1415L22.1928 14.7843ZM22.0448 13.0988C21.5388 12.6742 20.7841 12.7393 20.3592 13.2457L21.1252 13.8885C21.1945 13.8059 21.3183 13.7946 21.402 13.8648L22.0448 13.0988ZM20.3592 13.2457C19.9342 13.7521 20.0012 14.5067 20.5072 14.9312L21.1499 14.1652C21.0663 14.095 21.0559 13.9711 21.1252 13.8885L20.3592 13.2457ZM21.7928 20.3324C20.3961 20.5881 19.1043 20.4287 18.1009 19.8556L17.6049 20.724C18.862 21.4419 20.4065 21.6028 21.9729 21.316L21.7928 20.3324ZM17.1651 25.9165C16.4765 24.6077 16.1669 23.4721 16.1731 22.4963C16.1792 21.5316 16.4934 20.6954 17.1057 19.9657L16.3396 19.3229C15.5798 20.2284 15.1807 21.2889 15.1731 22.49C15.1656 23.68 15.5421 24.9794 16.2802 26.3821L17.1651 25.9165ZM23.6739 9.79777L25.4643 7.51291L24.6772 6.89611L22.8868 9.18097L23.6739 9.79777ZM25.3922 6.82149L25.2198 6.67689L24.577 7.44294L24.7494 7.58753L25.3922 6.82149ZM24.0862 6.06014C18.7533 4.51872 12.7373 6.18134 8.88807 10.7686L9.65412 11.4114C13.245 7.13197 18.8498 5.58756 23.8085 7.02082L24.0862 6.06014ZM8.88807 10.7686C7.12828 12.8659 6.04095 15.3403 5.63609 17.8861L6.62368 18.0432C7.00074 15.6721 8.01354 13.3666 9.65412 11.4114L8.88807 10.7686ZM25.2198 6.67689C24.8949 6.40422 24.5135 6.18365 24.0862 6.06014L23.8085 7.02082C24.0828 7.1001 24.3426 7.24617 24.577 7.44294L25.2198 6.67689ZM16.6234 6.98521L18.8226 20.7303L19.8101 20.5723L17.6109 6.82722L16.6234 6.98521ZM7.0377 13.9157C7.33046 15.9651 8.42842 17.9383 9.93741 19.5105C11.447 21.0834 13.398 22.2865 15.4426 22.7675L15.6716 21.7941C13.8417 21.3635 12.0554 20.273 10.6589 18.8181C9.26171 17.3624 8.28469 15.5736 8.02765 13.7743L7.0377 13.9157Z" fill="black"/>
</svg>
