<svg width="32" height="32" viewBox="0 0 32 32" fill="none" xmlns="http://www.w3.org/2000/svg">
<path d="M10.9531 9.23147C10.8816 7.88592 9.73282 6.8531 8.38727 6.92461C7.04172 6.99612 6.00891 8.14487 6.08042 9.49042C6.15193 10.836 7.30068 11.8688 8.64623 11.7973C9.99178 11.7258 11.0246 10.577 10.9531 9.23147Z" stroke="#1A212A" stroke-width="0.8" stroke-miterlimit="10" stroke-linecap="round" stroke-linejoin="round"/>
<path d="M15.8247 13.9919C17.2876 13.8483 18.3572 12.546 18.2136 11.0831C18.0701 9.62015 16.7678 8.5506 15.3049 8.69416C13.8419 8.83772 12.7724 10.14 12.9159 11.6029C13.0595 13.0659 14.3618 14.1354 15.8247 13.9919Z" stroke="#1A212A" stroke-width="0.8" stroke-miterlimit="10" stroke-linecap="round" stroke-linejoin="round"/>
<path d="M9.87081 13.4883L11.3817 15.0136C11.5806 15.2309 11.8306 15.3642 12.1295 15.3941L15.0198 15.6829" stroke="#1A212A" stroke-width="0.8" stroke-miterlimit="10" stroke-linecap="round" stroke-linejoin="round"/>
<path d="M18.6711 14.4762L23.7599 9.61491C24.175 9.21891 24.8473 9.23188 25.2629 9.64505C25.6803 10.0778 25.6674 10.7501 25.2347 11.1676L20.8292 15.3499C20.5042 15.6581 20.3919 16.1231 20.5123 16.5455L22.9904 23.4779M16.891 23.4779L15.4773 18.737C15.3355 18.297 14.9491 17.9796 14.4899 17.926L11.3789 17.5997C11.0994 17.5679 10.8514 17.4541 10.6739 17.2544L7.98274 14.7042C7.67453 14.3792 7.62849 13.91 7.78753 13.5194" stroke="#1A212A" stroke-width="0.8" stroke-miterlimit="10" stroke-linecap="round" stroke-linejoin="round"/>
<path d="M4.69208 23.2007V23.2007C5.52479 22.4062 6.81602 22.3479 7.7169 23.0642L7.99189 23.2828C8.95763 24.0507 10.3203 24.0685 11.3058 23.3262L11.524 23.1619C12.5831 22.3641 14.0426 22.3641 15.1018 23.1619L15.2974 23.3092C16.29 24.0569 17.6676 24.0196 18.6183 23.2192V23.2192C19.589 22.4021 21.0012 22.3823 21.9944 23.172L22.1132 23.2664C23.0794 24.0346 24.453 24.0153 25.3973 23.2204L25.5995 23.0502C26.4478 22.336 27.687 22.336 28.5353 23.0502V23.0502" stroke="#1A212A" stroke-width="0.8" stroke-linecap="round" stroke-linejoin="round"/>
</svg>
