<svg width="32" height="32" viewBox="0 0 32 32" fill="none" xmlns="http://www.w3.org/2000/svg">
<path d="M12.9935 14.2684L7.21593 11.3141C6.63214 11.0242 6.39511 10.3197 6.68499 9.73586C6.97488 9.15207 7.67946 8.91504 8.26326 9.20492L14.4928 12.3837C14.4928 12.3837 15.4651 17.139 12.5426 21.228M12.0507 10.0208C11.8992 9.66386 11.898 9.24072 12.0851 8.86407C12.3937 8.24261 12.9104 8.10014 13.3055 8.15546C13.3525 8.15533 13.3714 8.16469 13.409 8.18339C13.8136 8.2669 14.1715 8.49158 14.4357 8.81056C14.9168 9.35461 15.935 10.3297 17.6386 10.9174C18.6268 11.2438 19.0796 11.7503 19.6087 12.6704C19.93 13.2525 20.2986 13.9285 20.592 14.6141C20.592 14.6141 21.1135 16.1642 22.3564 16.7813L25.4804 18.2923M11.3056 16.0597L7.405 14.1229C6.8212 13.833 6.58418 13.1284 6.87406 12.5446L7.36339 11.5592M9.85357 17.9444L7.71835 16.8841C7.13455 16.5942 6.89753 15.8896 7.18741 15.3058L7.69056 14.2926M22.7199 24.8295L19.3841 23.1931C17.482 22.2017 17.0305 22.1653 17.0305 22.1653C17.0305 22.1653 16.513 22.0257 15.798 21.9054C13.5873 21.5824 11.8465 21.1171 9.82222 20.1824L8.34443 19.4486C7.76063 19.1587 7.33118 18.3585 7.62107 17.7747L7.99168 17.0284M24.6289 17.9226L21.4963 24.2314M16.4387 12.6492C16.6802 12.0683 17.122 11.2631 18.4945 11.4282" stroke="black" stroke-width="0.8" stroke-miterlimit="10" stroke-linecap="round" stroke-linejoin="round"/>
</svg>
