<svg width="32" height="32" fill="none" xmlns="http://www.w3.org/2000/svg"><path d="M20.385 25.5a.5.5 0 0 0 0-1v1Zm-8.77-1a.5.5 0 1 0 0 1v-1Zm8.77-17a.5.5 0 1 0 0-1v1Zm-8.77-1a.5.5 0 1 0 0 1v-1ZM21.5 21.25v-.5.5Zm-11 0v-.5.5Zm15-6.5h.5-.5Zm0 2.5H25h.5Zm-4-6.5v-.5.5Zm-11 0v.5-.5Zm9.885 13.75h-8.77v1h8.77v-1Zm0-18h-8.77v1h8.77v-1ZM6 14.75v2.5h1v-2.5H6Zm15.5 6h-11v1h11v-1Zm3.5-6v2.5h1v-2.5h-1Zm-3.5-4.5h-11v1h11v-1Zm4.5 4.5a4.5 4.5 0 0 0-4.5-4.5v1a3.5 3.5 0 0 1 3.5 3.5h1Zm-19 0a3.5 3.5 0 0 1 3.5-3.5v-1a4.5 4.5 0 0 0-4.5 4.5h1Zm-1 2.5a4.5 4.5 0 0 0 4.5 4.5v-1a3.5 3.5 0 0 1-3.5-3.5H6Zm15.5 4.5a4.5 4.5 0 0 0 4.5-4.5h-1a3.5 3.5 0 0 1-3.5 3.5v1Z" fill="#000"/></svg>