<svg width="32" height="32" fill="none" xmlns="http://www.w3.org/2000/svg"><path d="M12.826 10.462v-.5h-.5v.5h.5Zm0 3.461h-.5v.5h.5v-.5Zm0 4.154v-.5h-.5v.5h.5Zm0 3.461h-.5v.5h.5v-.5Zm7.096-5.744-.287-.41a.5.5 0 0 0 .07.861l.217-.45Zm-7.096-4.832h3.912v-1h-3.912v1Zm3.912 2.461h-3.912v1h3.912v-1Zm-3.412.5v-3.461h-1v3.461h1Zm4.642-1.73c0 .68-.55 1.23-1.23 1.23v1a2.23 2.23 0 0 0 2.23-2.23h-1Zm-1.23-1.231c.68 0 1.23.55 1.23 1.23h1a2.23 2.23 0 0 0-2.23-2.23v1Zm-3.912 7.615h3.912v-1h-3.912v1Zm3.912 2.461h-3.912v1h3.912v-1Zm-3.412.5v-3.461h-1v3.461h1Zm4.642-1.73c0 .68-.55 1.23-1.23 1.23v1a2.23 2.23 0 0 0 2.23-2.23h-1Zm-1.23-1.231c.68 0 1.23.551 1.23 1.23h1a2.23 2.23 0 0 0-2.23-2.23v1Zm.32-12.077h-7.053v1h7.053v-1ZM8.8 7.692v16.616h1V7.692h-1ZM10.005 25.5h7.758v-1h-7.758v1ZM8.8 24.308c0 .667.548 1.192 1.205 1.192v-1a.2.2 0 0 1-.205-.192h-1ZM10.005 6.5c-.657 0-1.205.525-1.205 1.192h1a.2.2 0 0 1 .205-.192v-1Zm11.49 5.346c0 1.456-.731 2.748-1.86 3.539l.573.819a5.314 5.314 0 0 0 2.287-4.358h-1ZM17.058 7.5c2.46 0 4.437 1.955 4.437 4.346h1c0-2.961-2.443-5.346-5.437-5.346v1ZM22.2 20.154c0 2.391-1.978 4.346-4.437 4.346v1c2.994 0 5.437-2.385 5.437-5.346h-1Zm-2.494-3.909c1.481.708 2.494 2.196 2.494 3.909h1c0-2.12-1.254-3.947-3.063-4.811l-.431.902Z" fill="#000"/></svg>