<svg width="32" height="32" fill="none" xmlns="http://www.w3.org/2000/svg"><path d="M17.773 21.388a.5.5 0 0 0 .838-.545l-.838.545ZM9.112 6.228a.5.5 0 1 0-.839.544l.839-.544Zm4.277 14.615a.5.5 0 0 0 .838.545l-.838-.545Zm10.338-14.07a.5.5 0 0 0-.838-.545l.838.544ZM25 21.845A3.154 3.154 0 0 1 21.846 25v1A4.154 4.154 0 0 0 26 21.846h-1ZM21.846 25a3.154 3.154 0 0 1-3.154-3.154h-1A4.154 4.154 0 0 0 21.846 26v-1Zm-3.154-3.154a3.154 3.154 0 0 1 3.154-3.154v-1a4.154 4.154 0 0 0-4.154 4.154h1Zm3.154-3.154A3.154 3.154 0 0 1 25 21.846h1a4.154 4.154 0 0 0-4.154-4.154v1Zm-8.538 3.154A3.154 3.154 0 0 1 10.154 25v1a4.154 4.154 0 0 0 4.154-4.154h-1ZM10.154 25A3.154 3.154 0 0 1 7 21.846H6A4.154 4.154 0 0 0 10.154 26v-1ZM7 21.846a3.154 3.154 0 0 1 3.154-3.154v-1A4.154 4.154 0 0 0 6 21.846h1Zm3.154-3.154a3.154 3.154 0 0 1 3.154 3.154h1a4.154 4.154 0 0 0-4.154-4.154v1Zm8.457 2.15-9.5-14.614-.838.544 9.5 14.616.838-.545Zm-4.384.546 9.5-14.616-.838-.544-9.5 14.615.838.545Z" fill="#000"/></svg>