<svg width="32" height="32" fill="none" xmlns="http://www.w3.org/2000/svg"><path d="M13.23 21.646a.5.5 0 1 0 0 1v-1Zm11.77 1a.5.5 0 0 0 0-1v1Zm-11.77-7.23a.5.5 0 1 0 0 1v-1Zm11.77 1a.5.5 0 1 0 0-1v1ZM13.23 9.184a.5.5 0 1 0 0 1v-1Zm11.77 1a.5.5 0 0 0 0-1v1Zm-15.73-.5a.885.885 0 0 1-.885.884v1c1.04 0 1.884-.844 1.884-1.884h-1Zm-.885.884a.885.885 0 0 1-.885-.884h-1c0 1.04.844 1.884 1.885 1.884v-1ZM7.5 9.685c0-.489.396-.885.885-.885v-1C7.344 7.8 6.5 8.644 6.5 9.685h1Zm.885-.885c.488 0 .884.396.884.885h1c0-1.041-.844-1.885-1.884-1.885v1Zm.884 7.115a.885.885 0 0 1-.884.885v1c1.04 0 1.884-.844 1.884-1.885h-1Zm-.884.885a.885.885 0 0 1-.885-.885h-1c0 1.041.844 1.885 1.885 1.885v-1Zm-.885-.885c0-.488.396-.884.885-.884v-1c-1.041 0-1.885.844-1.885 1.884h1Zm.885-.884c.488 0 .884.396.884.884h1c0-1.04-.844-1.884-1.884-1.884v1Zm.884 7.115a.885.885 0 0 1-.884.885v1c1.04 0 1.884-.844 1.884-1.885h-1Zm-.884.885a.885.885 0 0 1-.885-.885h-1c0 1.041.844 1.885 1.885 1.885v-1Zm-.885-.885c0-.488.396-.884.885-.884v-1c-1.041 0-1.885.843-1.885 1.884h1Zm.885-.884c.488 0 .884.396.884.884h1c0-1.04-.844-1.884-1.884-1.884v1Zm4.846 1.384H25v-1H13.23v1Zm0-6.23H25v-1H13.23v1Zm0-6.231H25v-1H13.23v1Z" fill="#000"/></svg>