<svg width="32" height="32" fill="none" xmlns="http://www.w3.org/2000/svg"><path d="M6.5 10.385H6h.5ZM22.577 25v-.5.5ZM9.423 25v.5-.5ZM25.5 10.385H25h.5Zm0 11.692h.5-.5ZM22.577 7.462v.5-.5Zm-13.154 0v-.5.5ZM25.5 13.077a.5.5 0 1 0 0-1v1Zm-18.27-1a.5.5 0 0 0 0 1v-1Zm3.885-3.154a.5.5 0 1 0 1 0h-1Zm1-2.923a.5.5 0 0 0-1 0h1Zm7.77 2.923a.5.5 0 0 0 1 0h-1Zm1-2.923a.5.5 0 1 0-1 0h1Zm-7.808 11.923a.5.5 0 1 0 0 1v-1Zm5.846 1a.5.5 0 0 0 0-1v1ZM6 10.385v11.692h1V10.385H6ZM22.577 24.5H9.423v1h13.154v-1ZM25 10.385v11.692h1V10.385h-1Zm-2.423-3.423H9.423v1h13.154v-1ZM26 10.385a3.423 3.423 0 0 0-3.423-3.423v1A2.423 2.423 0 0 1 25 10.385h1Zm-19 0a2.423 2.423 0 0 1 2.423-2.423v-1A3.423 3.423 0 0 0 6 10.385h1ZM6 22.077A3.423 3.423 0 0 0 9.423 25.5v-1A2.423 2.423 0 0 1 7 22.077H6ZM22.577 25.5A3.423 3.423 0 0 0 26 22.077h-1a2.423 2.423 0 0 1-2.423 2.423v1ZM25.5 12.077H7.23v1H25.5v-1ZM12.115 8.923V6h-1v2.923h1Zm8.77 0V6h-1v2.923h1Zm-7.808 10h5.846v-1h-5.846v1Z" fill="#000"/></svg>