<svg width="32" height="32" fill="none" xmlns="http://www.w3.org/2000/svg"><path d="M21.459 5.835a.5.5 0 1 0-.944.33l.944-.33Zm-9.974.33a.5.5 0 0 0-.944-.33l.944.33Zm9.03 18.67a.5.5 0 0 0 .944.33l-.944-.33Zm-9.974.33a.5.5 0 1 0 .944-.33l-.944.33ZM16.5 11.42a.5.5 0 0 0-1 0h1Zm-.5 4.385h-.5a.5.5 0 0 0 .228.419l.272-.42Zm2.637 2.307a.5.5 0 1 0 .544-.84l-.544.84ZM23.5 15.5c0 4.166-3.36 7.538-7.5 7.538v1c4.697 0 8.5-3.825 8.5-8.538h-1ZM16 23.038c-4.14 0-7.5-3.372-7.5-7.538h-1c0 4.713 3.803 8.538 8.5 8.538v-1ZM8.5 15.5c0-4.166 3.36-7.538 7.5-7.538v-1c-4.697 0-8.5 3.825-8.5 8.538h1ZM16 7.962c4.14 0 7.5 3.372 7.5 7.538h1c0-4.713-3.803-8.538-8.5-8.538v1Zm4.515-1.797 1.922 5.481.944-.33-1.922-5.481-.944.33ZM9.563 11.646l1.922-5.48-.944-.331-1.922 5.48.944.331Zm11.896 13.52 1.922-5.481-.944-.331-1.922 5.48.944.332Zm-12.84-5.481 1.922 5.48.944-.33-1.922-5.481-.944.33ZM15.5 11.42v4.385h1V11.42h-1Zm.228 4.804 2.909 1.888.544-.84-2.909-1.887-.544.839Z" fill="#000"/></svg>