<svg width="32" height="32" fill="none" xmlns="http://www.w3.org/2000/svg"><path d="M7 15a.5.5 0 0 0 0 1v-1Zm18 1a.5.5 0 0 0 0-1v1Zm-8-5.5h.5a.5.5 0 0 0-.63-.483l.13.483Zm-4.13.588a.5.5 0 0 0 .26.966l-.26-.966ZM16.5 20.5a.5.5 0 1 0 1 0h-1ZM11 7h10V6H11v1Zm13.5 3.5v10h1v-10h-1ZM21 24H11v1h10v-1ZM7.5 20.5v-10h-1v10h1ZM11 24a3.5 3.5 0 0 1-3.5-3.5h-1A4.5 4.5 0 0 0 11 25v-1Zm13.5-3.5A3.5 3.5 0 0 1 21 24v1a4.5 4.5 0 0 0 4.5-4.5h-1ZM21 7a3.5 3.5 0 0 1 3.5 3.5h1A4.5 4.5 0 0 0 21 6v1ZM11 6a4.5 4.5 0 0 0-4.5 4.5h1A3.5 3.5 0 0 1 11 7V6ZM7 16h18v-1H7v1Zm9.87-5.983-4 1.071.26.966 4-1.071-.26-.966Zm-.37.483v10h1v-10h-1Z" fill="#000"/></svg>