<svg width="32" height="32" fill="none" xmlns="http://www.w3.org/2000/svg"><path d="M6.5 10.885H7h-.5Zm0 11.692H6h.5ZM22.577 25.5V25v.5Zm-13.154 0v.5-.5ZM25.5 10.885H25h.5Zm0 11.692h.5-.5ZM22.577 7.962v.5-.5Zm-13.154 0v-.5.5ZM25.5 13.577a.5.5 0 1 0 0-1v1Zm-19-1a.5.5 0 0 0 0 1v-1Zm4.615-3.154a.5.5 0 1 0 1 0h-1Zm1-2.923a.5.5 0 0 0-1 0h1Zm7.77 2.923a.5.5 0 0 0 1 0h-1Zm1-2.923a.5.5 0 1 0-1 0h1Zm-10 10.462a.5.5 0 0 0 0 1v-1Zm1.461 1a.5.5 0 1 0 0-1v1Zm2.923-1a.5.5 0 0 0 0 1v-1Zm1.462 1a.5.5 0 1 0 0-1v1Zm2.923-1a.5.5 0 0 0 0 1v-1Zm1.461 1a.5.5 0 1 0 0-1v1Zm-10.23 2.653a.5.5 0 1 0 0 1v-1Zm1.461 1a.5.5 0 0 0 0-1v1Zm2.923-1a.5.5 0 1 0 0 1v-1Zm1.462 1a.5.5 0 0 0 0-1v1Zm2.923-1a.5.5 0 1 0 0 1v-1Zm1.461 1a.5.5 0 0 0 0-1v1ZM6 10.885v11.692h1V10.885H6ZM22.577 25H9.423v1h13.154v-1ZM25 10.885v11.692h1V10.885h-1Zm-2.423-3.423H9.423v1h13.154v-1ZM26 10.885a3.423 3.423 0 0 0-3.423-3.423v1A2.423 2.423 0 0 1 25 10.885h1Zm-19 0a2.423 2.423 0 0 1 2.423-2.423v-1A3.423 3.423 0 0 0 6 10.885h1ZM6 22.577A3.423 3.423 0 0 0 9.423 26v-1A2.423 2.423 0 0 1 7 22.577H6ZM22.577 26A3.423 3.423 0 0 0 26 22.577h-1A2.423 2.423 0 0 1 22.577 25v1ZM25.5 12.577h-19v1h19v-1ZM12.115 9.423V6.5h-1v2.923h1Zm8.77 0V6.5h-1v2.923h1Zm-10 8.539h1.461v-1h-1.461v1Zm4.384 0h1.462v-1h-1.462v1Zm4.385 0h1.461v-1h-1.461v1Zm-8.77 3.653h1.462v-1h-1.461v1Zm4.385 0h1.462v-1h-1.462v1Zm4.385 0h1.461v-1h-1.461v1Z" fill="#000"/></svg>