<svg width="32" height="32" fill="none" xmlns="http://www.w3.org/2000/svg"><path d="M8.5 25a.5.5 0 0 0 0 1v-1Zm15 1a.5.5 0 0 0 0-1v1ZM8.5 6a.5.5 0 0 0 0 1V6Zm15 1a.5.5 0 0 0 0-1v1ZM9.25 25.5h-.5v.5h.5v-.5Zm13.5 0v.5h.5v-.5h-.5Zm0-19h.5V6h-.5v.5Zm-13.5 0V6h-.5v.5h.5ZM8.5 26h15v-1h-15v1Zm.75-2.923h13.5v-1H9.25v1Zm0-13.154h13.5v-1H9.25v1ZM8.5 7h15V6h-15v1Zm14.25 18H9.25v1h13.5v-1Zm.5-2.423c0-3.92-3.258-7.077-7.25-7.077v1c3.464 0 6.25 2.733 6.25 6.077h1Zm-13.5 0c0-3.344 2.786-6.077 6.25-6.077v-1c-3.992 0-7.25 3.156-7.25 7.077h1ZM9.25 7h13.5V6H9.25v1Zm-.5 2.423c0 3.92 3.258 7.077 7.25 7.077v-1c-3.464 0-6.25-2.733-6.25-6.077h-1Zm13.5 0c0 3.344-2.786 6.077-6.25 6.077v1c3.992 0 7.25-3.156 7.25-7.077h-1Zm0 13.154V25.5h1v-2.923h-1ZM9.75 25.5v-2.923h-1V25.5h1Zm0-16.077V6.5h-1v2.923h1ZM22.25 6.5v2.923h1V6.5h-1Z" fill="#000"/></svg>