<svg width="32" height="32" viewBox="0 0 32 32" fill="none" xmlns="http://www.w3.org/2000/svg">
<path d="M19.3709 14.9625L13.7922 5.78099C13.5498 5.38213 12.9989 5.31357 12.6662 5.64087V5.64087C12.4758 5.82821 12.404 6.10523 12.4796 6.36146L13.8854 11.1289C14.0208 11.5881 14.0895 12.0643 14.0895 12.5431V14.9657M19.3517 18.0375L13.773 27.219C13.5306 27.6179 12.9797 27.6864 12.647 27.3591V27.3591C12.4565 27.1718 12.3848 26.8948 12.4603 26.6385L13.8654 21.8736C14.0013 21.4128 14.07 20.9348 14.0696 20.4543L14.0671 18.0375M9.73047 17.9682L7.57786 20.7167C7.38712 20.9602 7.06117 21.0531 6.77071 20.9467V20.9467C6.4271 20.8208 6.23445 20.4553 6.32475 20.1007L6.98568 17.505M9.73049 15.0318L7.57788 12.2833C7.38714 12.0397 7.0612 11.9469 6.77074 12.0533V12.0533C6.42712 12.1792 6.23447 12.5446 6.32477 12.8993L6.98571 15.4949M26.9999 16.4999C26.9999 15.6555 24.726 14.9561 23.874 14.9624L10.6241 14.9529C9.69528 14.9529 5.0032 15.5799 5 16.4905C4.9968 17.401 9.69528 18.028 10.6241 18.028H23.8836C24.7356 18.0343 27.0159 17.3601 26.9999 16.4999Z" stroke="black" stroke-linejoin="round"/>
</svg>
