<svg width="32" height="32" fill="none" xmlns="http://www.w3.org/2000/svg"><path d="m8 6 .34-.367A.5.5 0 0 0 7.5 6H8Zm1.625 1.5-.34.367a.5.5 0 0 0 .68 0l-.34-.367ZM11.25 6l.34-.367a.5.5 0 0 0-.68 0l.34.367Zm1.625 1.5-.34.367a.5.5 0 0 0 .68 0l-.34-.367ZM14.5 6l.34-.367a.5.5 0 0 0-.68 0L14.5 6Zm1.625 1.5-.34.367a.5.5 0 0 0 .68 0l-.34-.367ZM17.75 6l.34-.367a.5.5 0 0 0-.68 0l.34.367Zm1.625 1.5-.34.367a.5.5 0 0 0 .68 0l-.34-.367ZM21 6h.5a.5.5 0 0 0-.84-.367L21 6Zm-.5 14a.5.5 0 0 0 1 0h-1ZM14 22v-.5a.5.5 0 0 0-.5.5h.5Zm11.5 0h.5v-.5h-.5v.5ZM11 16.8a.5.5 0 0 0 0 1v-1Zm6.5 1a.5.5 0 1 0 0-1v1ZM11 19a.5.5 0 0 0 0 1v-1Zm5.5 1a.5.5 0 0 0 0-1v1Zm-.033-8.969a.5.5 0 1 0 0-1v1ZM12.8 13.47a.5.5 0 0 0 0 1v-1ZM15.133 9.5a.5.5 0 0 0-1 0h1Zm-1 5.5a.5.5 0 1 0 1 0h-1ZM7.661 6.367l1.625 1.5.678-.734-1.625-1.5-.678.734Zm2.303 1.5 1.625-1.5-.678-.734-1.625 1.5.678.734Zm.947-1.5 1.625 1.5.678-.734-1.625-1.5-.678.734Zm2.303 1.5 1.625-1.5-.678-.734-1.625 1.5.678.734Zm.947-1.5 1.625 1.5.678-.734-1.625-1.5-.678.734Zm2.303 1.5 1.625-1.5-.678-.734-1.625 1.5.678.734Zm.947-1.5 1.625 1.5.678-.734-1.625-1.5-.678.734Zm2.303 1.5 1.625-1.5-.678-.734-1.625 1.5.678.734ZM7.5 6v16h1V6h-1Zm13 0v14h1V6h-1Zm-7 16a2.5 2.5 0 0 1-2.5 2.5v1a3.5 3.5 0 0 0 3.5-3.5h-1ZM11 24.5A2.5 2.5 0 0 1 8.5 22h-1a3.5 3.5 0 0 0 3.5 3.5v-1Zm3-2h11.5v-1H14v1Zm11-.5a2.5 2.5 0 0 1-2.5 2.5v1A3.5 3.5 0 0 0 26 22h-1Zm-2.5 2.5H11v1h11.5v-1ZM11 17.8h6.5v-1H11v1Zm0 2.2h5.5v-1H11v1Zm2.717-8.25c-.261 0-.417-.19-.417-.36h-1c0 .781.665 1.36 1.417 1.36v-1Zm-.417-.36c0-.168.156-.359.417-.359v-1c-.752 0-1.417.579-1.417 1.36h1Zm.417-.359h.916v-1h-.916v1Zm.916 0h1.834v-1h-1.834v1Zm-.916 1.719h1.833v-1h-1.833v1Zm1.833 1.719c.752 0 1.417-.579 1.417-1.36h-1c0 .169-.156.36-.417.36v1Zm1.417-1.36c0-.78-.665-1.359-1.417-1.359v1c.261 0 .417.19.417.36h1Zm-1.417.36h-.917v1h.917v-1Zm-.917 0H12.8v1h1.833v-1Zm.5-2.938V9.5h-1v1.031h1Zm0 4.469v-1.031h-1V15h1Z" fill="#000"/></svg>