<svg width="32" height="32" fill="none" xmlns="http://www.w3.org/2000/svg"><path d="m13.79 22.503-1.548 3.066a.296.296 0 0 0 .12.393.296.296 0 0 0 .146.038h9.778a.296.296 0 0 0 .265-.431l-1.548-3.066m-8.593-8.27h5.527a.356.356 0 0 1 .357.357v1.129a.356.356 0 0 1-.357.356h-5.111m-4.25-8.537 1.121-1.171a1.188 1.188 0 0 1 1.97.4l1.398 3.679a.594.594 0 0 1-.291.742l-.825.41a.594.594 0 0 0-.302.715l1.981 6.11a1.307 1.307 0 0 0 1.244.904h8.141a.892.892 0 0 1 .747 1.378l-.816 1.25a1.188 1.188 0 0 1-.996.54h-8.335a1.783 1.783 0 0 1-1.694-1.228L8.103 9.623a2.08 2.08 0 0 1 .474-2.085Z" stroke="#000" stroke-miterlimit="10"/></svg>