<svg width="32" height="32" fill="none" xmlns="http://www.w3.org/2000/svg"><path d="M5.007 15.972c0-3.633 3.153-6.983 7.57-7.772 4.419-.79 8.574 1.256 9.862 4.658" stroke="#000" stroke-miterlimit="10" stroke-linecap="round"/><path d="M10.055 15.26S7.861 13.955 5 15.943M17.195 13.942s1.68-2.05 5.231-1.084M17.195 13.941s-4.182-1.37-7.15 1.306M12.375 8.24s-2.97 1.452-2.323 6.975M12.392 8.255s3.412.241 4.78 5.634M12.136 6.3l-.053-.3" stroke="#000" stroke-miterlimit="10" stroke-linecap="round"/><path d="M12.246 6.894 12.083 6M15.306 24.466 15.598 26" stroke="#000" stroke-miterlimit="10"/><path d="m15.426 25.102.172.897" stroke="#000" stroke-miterlimit="10" stroke-linecap="round"/><path d="m13.544 15.136 1.244 6.587" stroke="#000" stroke-miterlimit="10"/><path d="m27 16.2-3.392 6.878H7.878M17.962 20.34h6.99M9.308 25.986l1.77-2.902M18.811 23.059l1.66-2.703M25.025 25.986l-1.766-2.902" stroke="#000" stroke-linecap="round" stroke-linejoin="round"/></svg>