<svg width="32" height="32" fill="none" xmlns="http://www.w3.org/2000/svg"><path d="M15.5 26a.5.5 0 0 0 1 0h-1Zm1-5.16a.5.5 0 0 0-1 0h1Zm-7-9.487v-.5H9v.5h.5Zm13 0h.5v-.5h-.5v.5ZM12.437 6a.5.5 0 0 0-1 0h1Zm-1 5.353a.5.5 0 1 0 1 0h-1ZM20.563 6a.5.5 0 0 0-1 0h1Zm-1 5.353a.5.5 0 1 0 1 0h-1ZM16.5 26v-5.16h-1V26h1Zm-3.75-4.66h6.5v-1h-6.5v1ZM9 11.353v6.26h1v-6.26H9Zm13 0v6.26h1v-6.26h-1Zm-12.5.5h13v-1h-13v1ZM11.438 6v5.353h1V6h-1Zm8.124 0v5.353h1V6h-1ZM9 17.613c0 .99.396 1.938 1.1 2.637l.704-.71A2.715 2.715 0 0 1 10 17.613H9Zm1.1 2.637a3.762 3.762 0 0 0 2.65 1.09v-1c-.73 0-1.43-.288-1.946-.8l-.704.71ZM22 17.613c0 .722-.289 1.416-.804 1.927l.704.71a3.715 3.715 0 0 0 1.1-2.637h-1Zm-.804 1.927c-.516.512-1.216.8-1.946.8v1c.993 0 1.947-.392 2.65-1.09l-.704-.71Z" fill="#000"/></svg>