<svg width="32" height="32" fill="none" xmlns="http://www.w3.org/2000/svg"><path d="M8.33 15.219a.5.5 0 0 0 .947.321l-.947-.321Zm5.234.134v.5-.5Zm9.059-1.815.361-.345-.361.345Zm-3.638 1.817v.5-.5Zm-4.763-4.748a.5.5 0 1 0 .996-.088l-.996.088Zm1.318-5.604-.038.499.038-.499Zm1.047 1.238-.498-.048a.49.49 0 0 0-.002.068l.5-.02Zm4.843-.111.157-.475-.157.475Zm.707 1.541.45.217a.49.49 0 0 0 .01-.023l-.46-.194Zm-2.145-.89.449.22a.496.496 0 0 0 .012-.026l-.461-.194ZM10.366 25.48a.5.5 0 0 0 .525-.851l-.525.85Zm-3.864-8.445v-.5a.5.5 0 0 0-.5.477l.5.023Zm18.995 0 .5-.023a.5.5 0 0 0-.5-.477v.5Zm-4.125 8.02v.5a.5.5 0 0 0 .263-.075l-.263-.426ZM10.627 27h-.5a.5.5 0 0 0 .5.5V27Zm10.746 0v.5a.5.5 0 0 0 .5-.5h-.5ZM14.346 6.3l.498-.044-.498.043Zm.037-.55-.471-.169.47.17Zm4.703 11.228a5.479 5.479 0 0 0-1.314-3.557l-.76.65a4.479 4.479 0 0 1 1.074 2.907h1Zm-1.314-3.557a5.531 5.531 0 0 0-3.314-1.865l-.162.987a4.53 4.53 0 0 1 2.716 1.527l.76-.65Zm-3.314-1.865a5.547 5.547 0 0 0-3.74.712l.514.858a4.548 4.548 0 0 1 3.065-.583l.16-.987Zm-3.74.712a5.5 5.5 0 0 0-2.388 2.95l.947.322a4.5 4.5 0 0 1 1.955-2.414l-.513-.858Zm4.98 4.71a2.12 2.12 0 0 0-.625-1.504l-.706.71c.213.21.332.496.332.794h1Zm-.625-1.504a2.14 2.14 0 0 0-1.509-.621v1c.302 0 .59.119.803.33l.706-.709Zm-1.509-.621a2.14 2.14 0 0 0-1.508.621l.705.71a1.14 1.14 0 0 1 .803-.331v-1Zm-1.508.621c-.401.399-.627.94-.627 1.504h1c0-.298.12-.584.332-.795l-.705-.709Zm12.449 1.504c0-1.41-.545-2.764-1.52-3.785l-.723.69a4.478 4.478 0 0 1 1.243 3.095h1Zm-1.52-3.785a5.53 5.53 0 0 0-2.916-1.601l-.196.98a4.529 4.529 0 0 1 2.389 1.312l.723-.691Zm-1.867 3.785c0-.564-.226-1.104-.626-1.502l-.705.709c.212.21.33.496.33.793h1Zm-.626-1.502c-.4-.398-.942-.621-1.507-.621v1c.301 0 .59.119.802.33l.705-.71Zm-1.506-.621c-.248 0-.495.043-.729.127l.341.94c.124-.044.255-.067.386-.067l.002-1Zm-3.768-4.336-.374-4.263-.996.087.374 4.264.996-.088Zm.869-4.258.274 6.939 1-.04-.275-6.938-.999.04Zm-.585-.76c.36.028.621.342.587.692l.995.097a1.633 1.633 0 0 0-1.507-1.785l-.075.997Zm-.649.418a.639.639 0 0 1 .65-.417l.074-.997c-.75-.057-1.422.4-1.665 1.076l.941.338Zm2.475 7.45 3.113-6.368-.899-.44-3.113 6.37.899.439Zm4.358-5.914-3.478 7.24.902.433 3.477-7.24-.9-.433Zm-.412-.85a.654.654 0 0 1 .402.873l.922.387a1.654 1.654 0 0 0-1.01-2.21l-.314.95Zm-.821.37a.664.664 0 0 1 .82-.37l.314-.95a1.664 1.664 0 0 0-2.056.933l.922.387ZM10.89 24.628c-2.046-1.263-3.02-3.144-3.484-4.735a10.472 10.472 0 0 1-.376-2.027 8.557 8.557 0 0 1-.03-.8v-.009l-.499-.023a45.54 45.54 0 0 0-.5-.021v.001a.944.944 0 0 0-.001.072 9.558 9.558 0 0 0 .034.864c.047.566.158 1.35.412 2.222.508 1.744 1.597 3.873 3.919 5.307l.525-.851Zm-4.389-7.094h18.995v-1H6.502v1Zm18.995-.5-.499.023v.009l.001.038v.158a8.53 8.53 0 0 1-.03.604 10.457 10.457 0 0 1-.375 2.027c-.463 1.591-1.437 3.472-3.484 4.735l.525.85c2.323-1.432 3.412-3.562 3.919-5.306.254-.872.364-1.656.412-2.222a9.555 9.555 0 0 0 .032-.917v-.019l-.001-.002-.5.022Zm-15.37 8.025V27h1v-1.941h-1ZM21.873 27v-1.941h-1V27h1Zm-.5-2.447h-6.149v1h6.149v-1Zm-8.68 0h-2.147v1h2.146v-1ZM10.626 27.5h10.746v-1H10.627v1Zm4.217-21.244c-.017-.19-.012-.277.009-.337l-.941-.338c-.104.29-.08.581-.064.762l.996-.087Z" fill="#000"/></svg>