<svg width="32" height="32" fill="none" xmlns="http://www.w3.org/2000/svg"><path d="M11.357 27a.5.5 0 0 0 1 0h-1Zm1-1.443a.5.5 0 1 0-1 0h1ZM20.643 27a.5.5 0 1 0 1 0h-1Zm1-1.443a.5.5 0 1 0-1 0h1Zm-2-3.105a.5.5 0 1 0 1 0h-1Zm1-11.548a.5.5 0 1 0-1 0h1Zm-8.286 11.548a.5.5 0 1 0 1 0h-1Zm1-11.548a.5.5 0 1 0-1 0h1ZM16 22.452a.5.5 0 0 0 1 0h-1Zm1-11.548a.5.5 0 1 0-1 0h1ZM12 4.5a.5.5 0 0 0 0 1v-1Zm9 1a.5.5 0 0 0 0-1v1ZM12.357 27v-1.443h-1V27h1Zm9.286 0v-1.443h-1V27h1Zm-1.5-4.548h.5V10.903h-1V22.452h.5Zm-7.286 0h.5V10.903h-1V22.452h.5Zm4.143 0V10.904h-1v11.548h1Zm3.214-14.567V5.507h-1v2.378h1Zm-7.428-2.378v2.378h1V5.507h-1Zm-1.298 2.947h10.024v-1H11.488v1Zm10.024 0c1.102 0 1.988.884 1.988 1.965h1c0-1.642-1.342-2.965-2.988-2.965v1Zm1.988 1.965V22.8h1V10.42h-1Zm0 12.38a1.977 1.977 0 0 1-1.988 1.966v1c1.646 0 2.988-1.323 2.988-2.965h-1Zm-1.988 1.966H11.488v1h10.024v-1Zm-10.024 0A1.977 1.977 0 0 1 9.5 22.8h-1c0 1.642 1.342 2.965 2.988 2.965v-1ZM9.5 22.8V10.42h-1V22.8h1Zm0-12.38c0-1.082.886-1.966 1.988-1.966v-1c-1.646 0-2.988 1.323-2.988 2.965h1ZM12 5.5h9v-1h-9v1Z" fill="#000"/></svg>