<svg width="32" height="32" fill="none" xmlns="http://www.w3.org/2000/svg"><path d="M24.3 13.517a.5.5 0 1 0 1 0h-1Zm-17.6 0a.5.5 0 1 0 1 0h-1Zm1 8.276a.5.5 0 0 0-1 0h1ZM6.7 24a.5.5 0 0 0 1 0h-1Zm18.6-2.207a.5.5 0 0 0-1 0h1ZM24.3 24a.5.5 0 0 0 1 0h-1ZM9.45 13.517a.5.5 0 1 0 1 0h-1Zm4.4 0a.5.5 0 1 0 1 0h-1Zm3.3 0a.5.5 0 1 0 1 0h-1Zm4.4 0a.5.5 0 1 0 1 0h-1ZM6.1 16.224h19.8v-1H6.1v1Zm20.4.604v3.31h1v-3.31h-1Zm-.6 3.913H6.1v1h19.8v-1Zm-20.4-.603v-3.31h-1v3.31h1Zm.6.603c-.33 0-.6-.268-.6-.603h-1c0 .884.715 1.603 1.6 1.603v-1Zm20.4-.603c0 .335-.27.603-.6.603v1c.885 0 1.6-.719 1.6-1.603h-1Zm-.6-3.914c.33 0 .6.269.6.604h1c0-.884-.715-1.604-1.6-1.604v1Zm-19.8-1c-.885 0-1.6.72-1.6 1.604h1c0-.335.27-.604.6-.604v-1ZM9.4 8.5h13.2v-1H9.4v1Zm14.9 1.707v3.31h1v-3.31h-1Zm-16.6 3.31v-3.31h-1v3.31h1ZM22.6 8.5c.937 0 1.7.763 1.7 1.707h1A2.703 2.703 0 0 0 22.6 7.5v1Zm-13.2-1a2.703 2.703 0 0 0-2.7 2.707h1c0-.944.763-1.707 1.7-1.707v-1ZM6.7 21.793V24h1v-2.207h-1Zm17.6 0V24h1v-2.207h-1Zm-13.85-8.276v-1.655h-1v1.655h1Zm.6-2.258h2.2v-1h-2.2v1Zm2.8.603v1.655h1v-1.655h-1Zm-.6-.603c.33 0 .6.268.6.603h1c0-.884-.715-1.603-1.6-1.603v1Zm-2.8.603c0-.335.27-.603.6-.603v-1c-.885 0-1.6.719-1.6 1.603h1Zm7.7 1.655v-1.655h-1v1.655h1Zm.6-2.258h2.2v-1h-2.2v1Zm2.8.603v1.655h1v-1.655h-1Zm-.6-.603c.33 0 .6.268.6.603h1c0-.884-.715-1.603-1.6-1.603v1Zm-2.8.603c0-.335.27-.603.6-.603v-1c-.885 0-1.6.719-1.6 1.603h1Z" fill="#000"/></svg>