<svg width="32" height="32" viewBox="0 0 32 32" fill="none" xmlns="http://www.w3.org/2000/svg">
<path d="M5.73793 19.3462C5.64936 19.6078 5.78959 19.8916 6.05114 19.9802C6.3127 20.0688 6.59653 19.9285 6.6851 19.667L5.73793 19.3462ZM27 15.6869L27.4 15.9869C27.5119 15.8377 27.5315 15.6387 27.4508 15.4706C27.3701 15.3025 27.2026 15.1932 27.0162 15.1872L27 15.6869ZM23.3083 19.3478C23.1236 19.5531 23.1402 19.8692 23.3454 20.054C23.5507 20.2387 23.8668 20.2221 24.0516 20.0169L23.3083 19.3478ZM17.4375 13.4602C17.7137 13.4602 17.9375 13.2364 17.9375 12.9602C17.9375 12.6841 17.7137 12.4602 17.4375 12.4602V13.4602ZM12.6382 13.5128L12.5425 13.022C12.3899 13.0518 12.2599 13.1508 12.1906 13.29C12.1213 13.4292 12.1207 13.5927 12.189 13.7324L12.6382 13.5128ZM13.267 14.7992L12.8178 15.0188C12.9183 15.2244 13.1455 15.3355 13.3694 15.2886L13.267 14.7992ZM19.0459 14.2484V14.7484L19.0509 14.7483L19.0459 14.2484ZM19.2365 14.2464L19.2415 14.7464C19.4493 14.7443 19.6342 14.6139 19.7058 14.4187C19.7775 14.2236 19.7209 14.0045 19.5638 13.8685L19.2365 14.2464ZM13.3941 11.979L13.4696 12.4733L13.4713 12.473L13.3941 11.979ZM7.04285 13.5128L6.87373 13.0423C6.65642 13.1204 6.52086 13.3371 6.54576 13.5667C6.57066 13.7963 6.74954 13.9789 6.97855 14.0086L7.04285 13.5128ZM10.6254 14.4815C10.8992 14.5171 11.15 14.3238 11.1855 14.05C11.221 13.7761 11.0278 13.5254 10.754 13.4898L10.6254 14.4815ZM9.28421 12.9278C9.43512 13.159 9.74493 13.2242 9.97619 13.0733C10.2075 12.9224 10.2726 12.6126 10.1217 12.3813L9.28421 12.9278ZM9.04206 10.7268C8.89115 10.4955 8.58135 10.4304 8.35008 10.5813C8.11882 10.7322 8.05368 11.042 8.20458 11.2732L9.04206 10.7268ZM10.026 13.6809C9.91342 13.4287 9.61774 13.3156 9.36559 13.4282C9.11345 13.5408 9.00032 13.8365 9.11292 14.0886L10.026 13.6809ZM8.82331 15.6514C8.67026 15.8812 8.73253 16.1916 8.96239 16.3447C9.19224 16.4977 9.50264 16.4354 9.65568 16.2056L8.82331 15.6514ZM5.38587 19.9171C5.21026 19.704 4.89514 19.6736 4.68203 19.8492C4.46892 20.0248 4.43852 20.34 4.61413 20.5531L5.38587 19.9171ZM8.37558 20.2351V19.7351C8.25406 19.7351 8.1367 19.7794 8.04543 19.8596L8.37558 20.2351ZM8.39747 20.2351L8.7834 19.9172C8.68842 19.8019 8.54686 19.7351 8.39747 19.7351V20.2351ZM11.7725 20.2351V19.7351C11.651 19.7351 11.5336 19.7794 11.4424 19.8596L11.7725 20.2351ZM11.7933 20.2351L12.1793 19.9172C12.0843 19.8019 11.9427 19.7351 11.7933 19.7351V20.2351ZM15.1695 20.2351V19.7351C15.048 19.7351 14.9307 19.7793 14.8394 19.8595L15.1695 20.2351ZM15.1897 20.2351L15.5757 19.9172C15.4807 19.8019 15.3391 19.7351 15.1897 19.7351V20.2351ZM18.5653 20.2351V19.7351C18.4438 19.7351 18.3265 19.7794 18.2352 19.8596L18.5653 20.2351ZM18.5856 20.2351L18.9715 19.9172C18.8766 19.8019 18.735 19.7351 18.5856 19.7351V20.2351ZM21.9612 20.2351V19.7351C21.8397 19.7351 21.7224 19.7794 21.6311 19.8596L21.9612 20.2351ZM21.9815 20.2351L22.3674 19.9172C22.2724 19.8019 22.1309 19.7351 21.9815 19.7351V20.2351ZM25.6872 20.6107C25.8946 20.4284 25.9149 20.1124 25.7326 19.905C25.5503 19.6976 25.2344 19.6773 25.027 19.8596L25.6872 20.6107ZM6.73807 18.1722L7.19045 18.3852L6.73807 18.1722ZM7.14462 17.8074L7.30844 18.2798L7.14462 17.8074ZM6.6851 19.667C6.89477 19.0478 7.07795 18.6242 7.19045 18.3852L6.2857 17.9592C6.15734 18.2319 5.95993 18.6906 5.73793 19.3462L6.6851 19.667ZM7.30844 18.2798C10.884 17.0399 15.7881 16.5118 19.8333 16.2982C21.8489 16.1917 23.6383 16.1639 24.9236 16.1626C25.5661 16.162 26.0822 16.1681 26.4372 16.1742C26.6147 16.1773 26.7519 16.1804 26.8445 16.1828C26.8908 16.184 26.9259 16.1849 26.9493 16.1856C26.961 16.1859 26.9697 16.1862 26.9755 16.1864C26.9784 16.1865 26.9805 16.1865 26.9819 16.1866C26.9826 16.1866 26.9831 16.1866 26.9834 16.1866C26.9836 16.1866 26.9836 16.1866 26.9837 16.1866C26.9838 16.1866 26.9838 16.1866 27 15.6869C27.0162 15.1872 27.0161 15.1872 27.016 15.1872C27.0159 15.1872 27.0157 15.1872 27.0155 15.1871C27.015 15.1871 27.0144 15.1871 27.0135 15.1871C27.0118 15.187 27.0094 15.187 27.0062 15.1869C26.9999 15.1867 26.9905 15.1864 26.9782 15.186C26.9536 15.1853 26.9173 15.1843 26.8698 15.1831C26.7747 15.1807 26.6349 15.1775 26.4546 15.1744C26.0941 15.1681 25.5718 15.162 24.9226 15.1626C23.6245 15.1639 21.8173 15.192 19.7806 15.2996C15.7212 15.514 10.6976 16.0461 6.98081 17.335L7.30844 18.2798ZM27 15.6869C26.6 15.3869 26.6 15.3869 26.6 15.3869C26.6 15.3869 26.6 15.3869 26.6 15.3869C26.6 15.387 26.5999 15.387 26.5999 15.3871C26.5997 15.3873 26.5995 15.3875 26.5992 15.3879C26.5987 15.3887 26.5977 15.3899 26.5965 15.3916C26.594 15.3949 26.5902 15.3999 26.5851 15.4067C26.5749 15.4202 26.5595 15.4405 26.5391 15.4673C26.4984 15.5208 26.4377 15.6 26.3588 15.7019C26.2009 15.9059 25.9697 16.2007 25.6782 16.5627C25.0949 17.2869 24.2709 18.2785 23.3083 19.3478L24.0516 20.0169C25.0293 18.9307 25.8654 17.9245 26.457 17.1899C26.7529 16.8225 26.988 16.5226 27.1494 16.3142C27.2301 16.21 27.2924 16.1286 27.3347 16.0731C27.3559 16.0453 27.372 16.024 27.383 16.0095C27.3884 16.0023 27.3926 15.9967 27.3955 15.9929C27.3969 15.991 27.398 15.9896 27.3987 15.9886C27.3991 15.9881 27.3994 15.9877 27.3996 15.9874C27.3997 15.9873 27.3998 15.9871 27.3999 15.9871C27.3999 15.987 27.4 15.987 27.4 15.9869C27.4 15.9869 27.4 15.9869 27 15.6869ZM17.4375 12.4602C16.418 12.4602 15.1893 12.6027 14.2294 12.7417C13.7464 12.8116 13.3258 12.8815 13.0257 12.9339C12.8756 12.9602 12.7554 12.9821 12.6725 12.9975C12.6311 13.0052 12.5989 13.0112 12.5769 13.0154C12.5659 13.0175 12.5575 13.0191 12.5517 13.0202C12.5489 13.0208 12.5466 13.0212 12.5451 13.0215C12.5443 13.0217 12.5437 13.0218 12.5433 13.0219C12.5431 13.0219 12.5429 13.022 12.5428 13.022C12.5427 13.022 12.5427 13.022 12.5426 13.022C12.5426 13.022 12.5425 13.022 12.6382 13.5128C12.7339 14.0036 12.7339 14.0036 12.7338 14.0036C12.7339 14.0036 12.7339 14.0036 12.7339 14.0036C12.7339 14.0035 12.734 14.0035 12.7341 14.0035C12.7344 14.0034 12.7348 14.0034 12.7354 14.0032C12.7366 14.003 12.7385 14.0027 12.741 14.0022C12.7461 14.0012 12.7538 13.9997 12.7641 13.9977C12.7846 13.9938 12.8153 13.988 12.8551 13.9806C12.9349 13.9658 13.0515 13.9446 13.1979 13.919C13.4906 13.8678 13.9014 13.7996 14.3727 13.7314C15.3211 13.5941 16.4921 13.4602 17.4375 13.4602V12.4602ZM12.189 13.7324L12.8178 15.0188L13.7162 14.5797L13.0874 13.2932L12.189 13.7324ZM13.3694 15.2886C14.7278 15.0043 17.584 14.7484 19.0459 14.7484V13.7484C17.5294 13.7484 14.603 14.0088 13.1646 14.3098L13.3694 15.2886ZM19.0509 14.7483L19.2415 14.7464L19.2314 13.7465L19.0408 13.7484L19.0509 14.7483ZM19.5638 13.8685C19.0166 13.3946 18.117 12.705 17.0346 12.1802C15.9565 11.6574 14.652 11.2763 13.3168 11.485L13.4713 12.473C14.5272 12.3079 15.6166 12.6039 16.5983 13.08C17.5757 13.554 18.4018 14.1851 18.9092 14.6244L19.5638 13.8685ZM13.3941 11.979C13.3186 11.4848 13.3185 11.4848 13.3184 11.4848C13.3184 11.4848 13.3183 11.4848 13.3182 11.4848C13.3181 11.4848 13.3179 11.4849 13.3176 11.4849C13.3171 11.485 13.3163 11.4851 13.3153 11.4853C13.3134 11.4856 13.3105 11.486 13.3069 11.4866C13.2995 11.4877 13.2888 11.4894 13.2747 11.4916C13.2467 11.496 13.2055 11.5026 13.1524 11.5113C13.0461 11.5287 12.8918 11.5545 12.6984 11.5885C12.3118 11.6565 11.768 11.7573 11.1382 11.8891C9.88271 12.1519 8.26876 12.5409 6.87373 13.0423L7.21197 13.9833C8.54271 13.505 10.1044 13.1271 11.343 12.8679C11.9603 12.7387 12.4933 12.6399 12.8716 12.5734C13.0607 12.5401 13.211 12.515 13.3136 12.4982C13.3649 12.4898 13.4043 12.4835 13.4307 12.4794C13.4439 12.4773 13.4538 12.4757 13.4603 12.4747C13.4636 12.4742 13.466 12.4738 13.4676 12.4736C13.4684 12.4735 13.4689 12.4734 13.4693 12.4734C13.4694 12.4733 13.4695 12.4733 13.4696 12.4733C13.4696 12.4733 13.4696 12.4733 13.4697 12.4733C13.4696 12.4733 13.4696 12.4733 13.3941 11.979ZM6.97855 14.0086L10.6254 14.4815L10.754 13.4898L7.10715 13.0169L6.97855 14.0086ZM10.1217 12.3813L9.04206 10.7268L8.20458 11.2732L9.28421 12.9278L10.1217 12.3813ZM9.56947 13.8847C9.11292 14.0886 9.11281 14.0884 9.1127 14.0881C9.11267 14.0881 9.11256 14.0878 9.1125 14.0877C9.11236 14.0874 9.11223 14.0871 9.11211 14.0868C9.11186 14.0862 9.11164 14.0857 9.11144 14.0853C9.11104 14.0844 9.11074 14.0836 9.11052 14.0831C9.1101 14.0821 9.11003 14.082 9.11027 14.0826C9.11076 14.0838 9.11249 14.0881 9.11511 14.0954C9.12037 14.1101 9.12911 14.1364 9.13865 14.173C9.15778 14.2465 9.17958 14.3594 9.1836 14.5018C9.19149 14.7813 9.13177 15.1881 8.82331 15.6514L9.65568 16.2056C10.091 15.5518 10.1963 14.9367 10.1832 14.4736C10.1767 14.2447 10.1416 14.0562 10.1064 13.921C10.0887 13.8532 10.071 13.7984 10.0565 13.7581C10.0492 13.7379 10.0428 13.7212 10.0376 13.7083C10.035 13.7018 10.0327 13.6963 10.0307 13.6917C10.0298 13.6894 10.0289 13.6874 10.0281 13.6856C10.0277 13.6847 10.0273 13.6838 10.027 13.683C10.0268 13.6827 10.0266 13.6823 10.0265 13.6819C10.0264 13.6817 10.0263 13.6815 10.0262 13.6814C10.0261 13.6811 10.026 13.6809 9.56947 13.8847ZM5 20.2351C4.61413 20.5531 4.61432 20.5533 4.61451 20.5535C4.61458 20.5536 4.61478 20.5539 4.61492 20.554C4.61521 20.5544 4.61552 20.5548 4.61585 20.5552C4.61652 20.556 4.61728 20.5569 4.61813 20.5579C4.61983 20.5599 4.62189 20.5623 4.62432 20.5652C4.62917 20.5708 4.63548 20.5781 4.64321 20.5868C4.65868 20.6041 4.67992 20.6272 4.70674 20.6547C4.76025 20.7096 4.83675 20.7829 4.93463 20.8634C5.12874 21.0229 5.41666 21.2189 5.78481 21.3511C6.15681 21.4846 6.60983 21.5524 7.11929 21.4517C7.62807 21.3511 8.16179 21.0889 8.70573 20.6106L8.04543 19.8596C7.61066 20.2419 7.23307 20.4098 6.92542 20.4706C6.61845 20.5313 6.34991 20.4915 6.1227 20.4099C5.89163 20.3269 5.70267 20.2002 5.56971 20.0909C5.50405 20.0369 5.45447 19.9892 5.42278 19.9567C5.407 19.9405 5.39586 19.9283 5.3896 19.9213C5.38647 19.9178 5.38457 19.9156 5.38394 19.9148C5.38362 19.9144 5.38362 19.9144 5.38394 19.9148C5.3841 19.915 5.38434 19.9153 5.38466 19.9157C5.38482 19.9159 5.38501 19.9161 5.38521 19.9163C5.38531 19.9165 5.38547 19.9167 5.38552 19.9167C5.38569 19.9169 5.38587 19.9171 5 20.2351ZM8.37558 20.7351H8.39747V19.7351H8.37558V20.7351ZM8.39747 20.2351C8.01154 20.553 8.01173 20.5532 8.01192 20.5535C8.01199 20.5536 8.01219 20.5538 8.01234 20.554C8.01262 20.5543 8.01293 20.5547 8.01327 20.5551C8.01393 20.5559 8.01469 20.5568 8.01554 20.5578C8.01724 20.5598 8.0193 20.5623 8.02173 20.5651C8.02658 20.5708 8.03289 20.578 8.04062 20.5867C8.05608 20.6041 8.07732 20.6272 8.10413 20.6547C8.15763 20.7096 8.23411 20.7828 8.33196 20.8633C8.52603 21.0229 8.81388 21.2189 9.18198 21.3511C9.55393 21.4846 10.0069 21.5524 10.5163 21.4517C11.0251 21.3511 11.5587 21.0888 12.1027 20.6106L11.4424 19.8596C11.0076 20.2419 10.63 20.4099 10.3224 20.4706C10.0155 20.5313 9.74707 20.4915 9.51994 20.4099C9.28895 20.327 9.10006 20.2003 8.96716 20.0909C8.90152 20.037 8.85196 19.9892 8.82028 19.9567C8.80451 19.9405 8.79338 19.9284 8.78712 19.9213C8.78399 19.9178 8.7821 19.9156 8.78147 19.9149C8.78115 19.9145 8.78115 19.9145 8.78147 19.9149C8.78163 19.9151 8.78187 19.9154 8.78219 19.9158C8.78235 19.9159 8.78254 19.9162 8.78274 19.9164C8.78284 19.9165 8.783 19.9167 8.78305 19.9168C8.78322 19.917 8.7834 19.9172 8.39747 20.2351ZM11.7725 20.7351H11.7933V19.7351H11.7725V20.7351ZM11.7933 20.2351C11.4074 20.553 11.4076 20.5532 11.4078 20.5535C11.4079 20.5536 11.4081 20.5538 11.4082 20.554C11.4085 20.5543 11.4088 20.5547 11.4091 20.5551C11.4098 20.5559 11.4106 20.5568 11.4114 20.5578C11.4131 20.5598 11.4152 20.5623 11.4176 20.5651C11.4225 20.5708 11.4288 20.578 11.4365 20.5867C11.452 20.6041 11.4732 20.6272 11.5 20.6547C11.5535 20.7096 11.63 20.7828 11.7279 20.8633C11.922 21.0229 12.2099 21.2189 12.578 21.3511C12.95 21.4846 13.4031 21.5523 13.9126 21.4517C14.4215 21.3511 14.9553 21.0889 15.4995 20.6107L14.8394 19.8595C14.4044 20.2418 14.0266 20.4098 13.7188 20.4706C13.4117 20.5313 13.1431 20.4915 12.9159 20.4099C12.6849 20.3269 12.4959 20.2002 12.363 20.0909C12.2974 20.037 12.2478 19.9892 12.2161 19.9567C12.2004 19.9405 12.1892 19.9283 12.183 19.9213C12.1799 19.9178 12.178 19.9156 12.1773 19.9149C12.177 19.9145 12.177 19.9145 12.1773 19.9149C12.1775 19.9151 12.1777 19.9154 12.1781 19.9158C12.1782 19.9159 12.1784 19.9162 12.1786 19.9164C12.1787 19.9165 12.1789 19.9167 12.1789 19.9168C12.1791 19.917 12.1793 19.9172 11.7933 20.2351ZM15.1695 20.7351H15.1897V19.7351H15.1695V20.7351ZM15.1897 20.2351C14.8038 20.553 14.804 20.5532 14.8042 20.5535C14.8043 20.5536 14.8045 20.5538 14.8046 20.554C14.8049 20.5543 14.8052 20.5547 14.8055 20.5551C14.8062 20.5559 14.807 20.5568 14.8078 20.5578C14.8095 20.5598 14.8116 20.5623 14.814 20.5651C14.8189 20.5708 14.8252 20.578 14.8329 20.5867C14.8484 20.6041 14.8696 20.6272 14.8964 20.6547C14.9499 20.7096 15.0264 20.7828 15.1243 20.8633C15.3183 21.0229 15.6062 21.2189 15.9743 21.3511C16.3463 21.4846 16.7993 21.5524 17.3088 21.4517C17.8176 21.3511 18.3514 21.0889 18.8954 20.6107L18.2352 19.8596C17.8003 20.2418 17.4226 20.4098 17.1149 20.4706C16.8079 20.5313 16.5394 20.4915 16.3123 20.4099C16.0812 20.327 15.8923 20.2002 15.7594 20.0909C15.6938 20.037 15.6442 19.9892 15.6126 19.9567C15.5968 19.9405 15.5857 19.9284 15.5794 19.9213C15.5763 19.9178 15.5744 19.9156 15.5737 19.9149C15.5734 19.9145 15.5734 19.9145 15.5737 19.9149C15.5739 19.9151 15.5741 19.9154 15.5745 19.9158C15.5746 19.9159 15.5748 19.9162 15.575 19.9164C15.5751 19.9165 15.5753 19.9167 15.5753 19.9168C15.5755 19.917 15.5757 19.9172 15.1897 20.2351ZM18.5653 20.7351H18.5856V19.7351H18.5653V20.7351ZM18.5856 20.2351C18.1997 20.553 18.1999 20.5532 18.2001 20.5535C18.2001 20.5536 18.2003 20.5538 18.2005 20.554C18.2008 20.5543 18.2011 20.5547 18.2014 20.5551C18.2021 20.5559 18.2028 20.5568 18.2037 20.5578C18.2054 20.5598 18.2074 20.5623 18.2099 20.5651C18.2147 20.5708 18.221 20.578 18.2288 20.5867C18.2442 20.6041 18.2655 20.6272 18.2923 20.6547C18.3458 20.7096 18.4223 20.7828 18.5201 20.8633C18.7142 21.0229 19.0021 21.2189 19.3702 21.3511C19.7422 21.4846 20.1952 21.5524 20.7047 21.4517C21.2135 21.3511 21.7472 21.0889 22.2913 20.6107L21.6311 19.8596C21.1962 20.2418 20.8185 20.4098 20.5108 20.4706C20.2038 20.5313 19.9353 20.4915 19.7081 20.4099C19.4771 20.327 19.2882 20.2002 19.1553 20.0909C19.0897 20.037 19.0401 19.9892 19.0084 19.9567C18.9927 19.9405 18.9815 19.9284 18.9753 19.9213C18.9721 19.9178 18.9702 19.9156 18.9696 19.9149C18.9693 19.9145 18.9693 19.9145 18.9696 19.9149C18.9698 19.9151 18.97 19.9154 18.9703 19.9158C18.9705 19.9159 18.9707 19.9162 18.9709 19.9164C18.971 19.9165 18.9711 19.9167 18.9712 19.9168C18.9714 19.917 18.9715 19.9172 18.5856 20.2351ZM21.9612 20.7351H21.9815V19.7351H21.9612V20.7351ZM21.9815 20.2351C21.5956 20.553 21.5957 20.5532 21.5959 20.5535C21.596 20.5536 21.5962 20.5538 21.5963 20.554C21.5966 20.5543 21.5969 20.5547 21.5973 20.5551C21.5979 20.5559 21.5987 20.5568 21.5996 20.5578C21.6013 20.5598 21.6033 20.5623 21.6057 20.5651C21.6106 20.5708 21.6169 20.578 21.6246 20.5867C21.6401 20.6041 21.6613 20.6272 21.6882 20.6547C21.7417 20.7096 21.8181 20.7828 21.916 20.8633C22.1101 21.0229 22.3979 21.2189 22.7661 21.3511C23.1381 21.4846 23.5911 21.5524 24.1005 21.4517C24.6093 21.3511 25.1431 21.0889 25.6872 20.6107L25.027 19.8596C24.592 20.2418 24.2144 20.4098 23.9067 20.4706C23.5997 20.5313 23.3312 20.4915 23.104 20.4099C22.873 20.327 22.6841 20.2002 22.5512 20.0909C22.4855 20.037 22.436 19.9892 22.4043 19.9567C22.3885 19.9405 22.3774 19.9284 22.3711 19.9213C22.368 19.9178 22.3661 19.9156 22.3655 19.9149C22.3652 19.9145 22.3652 19.9145 22.3655 19.9149C22.3656 19.9151 22.3659 19.9154 22.3662 19.9158C22.3664 19.9159 22.3665 19.9162 22.3668 19.9164C22.3669 19.9165 22.367 19.9167 22.3671 19.9168C22.3672 19.917 22.3674 19.9172 21.9815 20.2351ZM7.19045 18.3852C7.21447 18.3342 7.25473 18.2984 7.30844 18.2798L6.98081 17.335C6.67929 17.4395 6.42733 17.6584 6.2857 17.9592L7.19045 18.3852Z" fill="black"/>
<circle cx="19.9843" cy="17.7705" r="0.5" fill="black"/>
<circle cx="21.8569" cy="17.7705" r="0.5" fill="black"/>
</svg>
