<svg width="32" height="32" viewBox="0 0 32 32" fill="none" xmlns="http://www.w3.org/2000/svg">
<path d="M11.3571 27C11.3571 27.2761 11.581 27.5 11.8571 27.5C12.1333 27.5 12.3571 27.2761 12.3571 27H11.3571ZM12.3571 25.5574C12.3571 25.2812 12.1333 25.0574 11.8571 25.0574C11.581 25.0574 11.3571 25.2812 11.3571 25.5574H12.3571ZM20.6429 27C20.6429 27.2761 20.8667 27.5 21.1429 27.5C21.419 27.5 21.6429 27.2761 21.6429 27H20.6429ZM21.6429 25.5574C21.6429 25.2812 21.419 25.0574 21.1429 25.0574C20.8667 25.0574 20.6429 25.2812 20.6429 25.5574H21.6429ZM19.6428 22.4521C19.6428 22.7283 19.8667 22.9521 20.1428 22.9521C20.419 22.9521 20.6428 22.7283 20.6428 22.4521H19.6428ZM20.6428 10.9039C20.6428 10.6278 20.419 10.4039 20.1428 10.4039C19.8667 10.4039 19.6428 10.6278 19.6428 10.9039H20.6428ZM12.3572 22.4522C12.3572 22.7283 12.581 22.9522 12.8572 22.9522C13.1333 22.9522 13.3572 22.7283 13.3572 22.4522H12.3572ZM13.3572 10.904C13.3572 10.6278 13.1333 10.404 12.8572 10.404C12.581 10.404 12.3572 10.6278 12.3572 10.904H13.3572ZM16 22.4522C16 22.7283 16.2239 22.9522 16.5 22.9522C16.7761 22.9522 17 22.7283 17 22.4522H16ZM17 10.904C17 10.6278 16.7761 10.404 16.5 10.404C16.2239 10.404 16 10.6278 16 10.904H17ZM12 4.5C11.7239 4.5 11.5 4.72386 11.5 5C11.5 5.27614 11.7239 5.5 12 5.5V4.5ZM21 5.5C21.2761 5.5 21.5 5.27614 21.5 5C21.5 4.72386 21.2761 4.5 21 4.5V5.5ZM12.3571 27V25.5574H11.3571V27H12.3571ZM21.6429 27V25.5574H20.6429V27H21.6429ZM20.1428 22.4521C20.6428 22.4521 20.6428 22.4521 20.6428 22.452C20.6428 22.452 20.6428 22.4519 20.6428 22.4518C20.6428 22.4517 20.6428 22.4516 20.6428 22.4514C20.6428 22.4512 20.6428 22.4511 20.6428 22.4508C20.6428 22.4506 20.6428 22.4504 20.6428 22.4501C20.6428 22.4499 20.6428 22.4496 20.6428 22.4492C20.6428 22.4489 20.6428 22.4486 20.6428 22.4482C20.6428 22.4478 20.6428 22.4474 20.6428 22.447C20.6428 22.4466 20.6428 22.4461 20.6428 22.4457C20.6428 22.4452 20.6428 22.4447 20.6428 22.4441C20.6428 22.4436 20.6428 22.4431 20.6428 22.4425C20.6428 22.4419 20.6428 22.4413 20.6428 22.4407C20.6428 22.44 20.6428 22.4394 20.6428 22.4387C20.6428 22.438 20.6428 22.4373 20.6428 22.4365C20.6428 22.4358 20.6428 22.435 20.6428 22.4342C20.6428 22.4335 20.6428 22.4326 20.6428 22.4318C20.6428 22.431 20.6428 22.4301 20.6428 22.4292C20.6428 22.4283 20.6428 22.4274 20.6428 22.4264C20.6428 22.4255 20.6428 22.4245 20.6428 22.4235C20.6428 22.4225 20.6428 22.4215 20.6428 22.4205C20.6428 22.4194 20.6428 22.4184 20.6428 22.4173C20.6428 22.4162 20.6428 22.4151 20.6428 22.4139C20.6428 22.4128 20.6428 22.4116 20.6428 22.4104C20.6428 22.4092 20.6428 22.408 20.6428 22.4067C20.6428 22.4055 20.6428 22.4042 20.6428 22.4029C20.6428 22.4016 20.6428 22.4003 20.6428 22.3989C20.6428 22.3976 20.6428 22.3962 20.6428 22.3948C20.6428 22.3934 20.6428 22.392 20.6428 22.3905C20.6428 22.3891 20.6428 22.3876 20.6428 22.3861C20.6428 22.3846 20.6428 22.3831 20.6428 22.3816C20.6428 22.38 20.6428 22.3784 20.6428 22.3768C20.6428 22.3752 20.6428 22.3736 20.6428 22.372C20.6428 22.3703 20.6428 22.3687 20.6428 22.367C20.6428 22.3653 20.6428 22.3636 20.6428 22.3618C20.6428 22.3601 20.6428 22.3583 20.6428 22.3565C20.6428 22.3547 20.6428 22.3529 20.6428 22.3511C20.6428 22.3492 20.6428 22.3474 20.6428 22.3455C20.6428 22.3436 20.6428 22.3417 20.6428 22.3397C20.6428 22.3378 20.6428 22.3358 20.6428 22.3338C20.6428 22.3319 20.6428 22.3298 20.6428 22.3278C20.6428 22.3258 20.6428 22.3237 20.6428 22.3216C20.6428 22.3196 20.6428 22.3175 20.6428 22.3153C20.6428 22.3132 20.6428 22.311 20.6428 22.3089C20.6428 22.3067 20.6428 22.3045 20.6428 22.3023C20.6428 22.3 20.6428 22.2978 20.6428 22.2955C20.6428 22.2932 20.6428 22.2909 20.6428 22.2886C20.6428 22.2863 20.6428 22.284 20.6428 22.2816C20.6428 22.2792 20.6428 22.2768 20.6428 22.2744C20.6428 22.272 20.6428 22.2696 20.6428 22.2671C20.6428 22.2647 20.6428 22.2622 20.6428 22.2597C20.6428 22.2572 20.6428 22.2546 20.6428 22.2521C20.6428 22.2495 20.6428 22.247 20.6428 22.2444C20.6428 22.2418 20.6428 22.2391 20.6428 22.2365C20.6428 22.2338 20.6428 22.2312 20.6428 22.2285C20.6428 22.2258 20.6428 22.2231 20.6428 22.2203C20.6428 22.2176 20.6428 22.2148 20.6428 22.212C20.6428 22.2093 20.6428 22.2065 20.6428 22.2036C20.6428 22.2008 20.6428 22.198 20.6428 22.1951C20.6428 22.1922 20.6428 22.1893 20.6428 22.1864C20.6428 22.1835 20.6428 22.1805 20.6428 22.1776C20.6428 22.1746 20.6428 22.1716 20.6428 22.1686C20.6428 22.1656 20.6428 22.1625 20.6428 22.1595C20.6428 22.1564 20.6428 22.1534 20.6428 22.1503C20.6428 22.1472 20.6428 22.144 20.6428 22.1409C20.6428 22.1377 20.6428 22.1346 20.6428 22.1314C20.6428 22.1282 20.6428 22.125 20.6428 22.1218C20.6428 22.1185 20.6428 22.1153 20.6428 22.112C20.6428 22.1087 20.6428 22.1054 20.6428 22.1021C20.6428 22.0988 20.6428 22.0954 20.6428 22.0921C20.6428 22.0887 20.6428 22.0853 20.6428 22.0819C20.6428 22.0785 20.6428 22.0751 20.6428 22.0716C20.6428 22.0681 20.6428 22.0647 20.6428 22.0612C20.6428 22.0577 20.6428 22.0542 20.6428 22.0506C20.6428 22.0471 20.6428 22.0435 20.6428 22.0399C20.6428 22.0364 20.6428 22.0327 20.6428 22.0291C20.6428 22.0255 20.6428 22.0218 20.6428 22.0182C20.6428 22.0145 20.6428 22.0108 20.6428 22.0071C20.6428 22.0034 20.6428 21.9997 20.6428 21.9959C20.6428 21.9921 20.6428 21.9884 20.6428 21.9846C20.6428 21.9808 20.6428 21.977 20.6428 21.9731C20.6428 21.9693 20.6428 21.9654 20.6428 21.9615C20.6428 21.9577 20.6428 21.9538 20.6428 21.9498C20.6428 21.9459 20.6428 21.942 20.6428 21.938C20.6428 21.934 20.6428 21.93 20.6428 21.926C20.6428 21.922 20.6428 21.918 20.6428 21.9139C20.6428 21.9099 20.6428 21.9058 20.6428 21.9017C20.6428 21.8976 20.6428 21.8935 20.6428 21.8894C20.6428 21.8853 20.6428 21.8811 20.6428 21.8769C20.6428 21.8728 20.6428 21.8686 20.6428 21.8644C20.6428 21.8601 20.6428 21.8559 20.6428 21.8517C20.6428 21.8474 20.6428 21.8431 20.6428 21.8388C20.6428 21.8345 20.6428 21.8302 20.6428 21.8259C20.6428 21.8215 20.6428 21.8172 20.6428 21.8128C20.6428 21.8084 20.6428 21.804 20.6428 21.7996C20.6428 21.7952 20.6428 21.7908 20.6428 21.7863C20.6428 21.7818 20.6428 21.7774 20.6428 21.7729C20.6428 21.7684 20.6428 21.7639 20.6428 21.7593C20.6428 21.7548 20.6428 21.7502 20.6428 21.7456C20.6428 21.7411 20.6428 21.7365 20.6428 21.7318C20.6428 21.7272 20.6428 21.7226 20.6428 21.7179C20.6428 21.7133 20.6428 21.7086 20.6428 21.7039C20.6428 21.6992 20.6428 21.6945 20.6428 21.6898C20.6428 21.685 20.6428 21.6803 20.6428 21.6755C20.6428 21.6707 20.6428 21.6659 20.6428 21.6611C20.6428 21.6563 20.6428 21.6515 20.6428 21.6466C20.6428 21.6418 20.6428 21.6369 20.6428 21.632C20.6428 21.6271 20.6428 21.6222 20.6428 21.6173C20.6428 21.6123 20.6428 21.6074 20.6428 21.6024C20.6428 21.5974 20.6428 21.5925 20.6428 21.5875C20.6428 21.5824 20.6428 21.5774 20.6428 21.5724C20.6428 21.5673 20.6428 21.5623 20.6428 21.5572C20.6428 21.5521 20.6428 21.547 20.6428 21.5419C20.6428 21.5368 20.6428 21.5316 20.6428 21.5265C20.6428 21.5213 20.6428 21.5161 20.6428 21.5109C20.6428 21.5057 20.6428 21.5005 20.6428 21.4953C20.6428 21.4901 20.6428 21.4848 20.6428 21.4795C20.6428 21.4743 20.6428 21.469 20.6428 21.4637C20.6428 21.4584 20.6428 21.453 20.6428 21.4477C20.6428 21.4424 20.6428 21.437 20.6428 21.4316C20.6428 21.4262 20.6428 21.4208 20.6428 21.4154C20.6428 21.41 20.6428 21.4046 20.6428 21.3991C20.6428 21.3937 20.6428 21.3882 20.6428 21.3827C20.6428 21.3772 20.6428 21.3717 20.6428 21.3662C20.6428 21.3606 20.6428 21.3551 20.6428 21.3495C20.6428 21.344 20.6428 21.3384 20.6428 21.3328C20.6428 21.3272 20.6428 21.3216 20.6428 21.3159C20.6428 21.3103 20.6428 21.3047 20.6428 21.299C20.6428 21.2933 20.6428 21.2876 20.6428 21.2819C20.6428 21.2762 20.6428 21.2705 20.6428 21.2648C20.6428 21.259 20.6428 21.2533 20.6428 21.2475C20.6428 21.2417 20.6428 21.2359 20.6428 21.2301C20.6428 21.2243 20.6428 21.2185 20.6428 21.2126C20.6428 21.2068 20.6428 21.2009 20.6428 21.195C20.6428 21.1891 20.6428 21.1832 20.6428 21.1773C20.6428 21.1714 20.6428 21.1655 20.6428 21.1595C20.6428 21.1536 20.6428 21.1476 20.6428 21.1416C20.6428 21.1356 20.6428 21.1296 20.6428 21.1236C20.6428 21.1176 20.6428 21.1116 20.6428 21.1055C20.6428 21.0995 20.6428 21.0934 20.6428 21.0873C20.6428 21.0812 20.6428 21.0751 20.6428 21.069C20.6428 21.0629 20.6428 21.0567 20.6428 21.0506C20.6428 21.0444 20.6428 21.0382 20.6428 21.0321C20.6428 21.0259 20.6428 21.0197 20.6428 21.0134C20.6428 21.0072 20.6428 21.001 20.6428 20.9947C20.6428 20.9885 20.6428 20.9822 20.6428 20.9759C20.6428 20.9696 20.6428 20.9633 20.6428 20.957C20.6428 20.9507 20.6428 20.9444 20.6428 20.938C20.6428 20.9316 20.6428 20.9253 20.6428 20.9189C20.6428 20.9125 20.6428 20.9061 20.6428 20.8997C20.6428 20.8933 20.6428 20.8868 20.6428 20.8804C20.6428 20.8739 20.6428 20.8675 20.6428 20.861C20.6428 20.8545 20.6428 20.848 20.6428 20.8415C20.6428 20.835 20.6428 20.8284 20.6428 20.8219C20.6428 20.8153 20.6428 20.8088 20.6428 20.8022C20.6428 20.7956 20.6428 20.789 20.6428 20.7824C20.6428 20.7758 20.6428 20.7692 20.6428 20.7625C20.6428 20.7559 20.6428 20.7492 20.6428 20.7426C20.6428 20.7359 20.6428 20.7292 20.6428 20.7225C20.6428 20.7158 20.6428 20.7091 20.6428 20.7023C20.6428 20.6956 20.6428 20.6888 20.6428 20.6821C20.6428 20.6753 20.6428 20.6685 20.6428 20.6617C20.6428 20.6549 20.6428 20.6481 20.6428 20.6413C20.6428 20.6345 20.6428 20.6276 20.6428 20.6208C20.6428 20.6139 20.6428 20.607 20.6428 20.6001C20.6428 20.5932 20.6428 20.5863 20.6428 20.5794C20.6428 20.5725 20.6428 20.5656 20.6428 20.5586C20.6428 20.5517 20.6428 20.5447 20.6428 20.5377C20.6428 20.5307 20.6428 20.5237 20.6428 20.5167C20.6428 20.5097 20.6428 20.5027 20.6428 20.4957C20.6428 20.4886 20.6428 20.4816 20.6428 20.4745C20.6428 20.4674 20.6428 20.4603 20.6428 20.4532C20.6428 20.4462 20.6428 20.439 20.6428 20.4319C20.6428 20.4248 20.6428 20.4176 20.6428 20.4105C20.6428 20.4033 20.6428 20.3962 20.6428 20.389C20.6428 20.3818 20.6428 20.3746 20.6428 20.3674C20.6428 20.3602 20.6428 20.3529 20.6428 20.3457C20.6428 20.3384 20.6428 20.3312 20.6428 20.3239C20.6428 20.3166 20.6428 20.3094 20.6428 20.3021C20.6428 20.2948 20.6428 20.2874 20.6428 20.2801C20.6428 20.2728 20.6428 20.2654 20.6428 20.2581C20.6428 20.2507 20.6428 20.2434 20.6428 20.236C20.6428 20.2286 20.6428 20.2212 20.6428 20.2138C20.6428 20.2064 20.6428 20.1989 20.6428 20.1915C20.6428 20.1841 20.6428 20.1766 20.6428 20.1691C20.6428 20.1617 20.6428 20.1542 20.6428 20.1467C20.6428 20.1392 20.6428 20.1317 20.6428 20.1242C20.6428 20.1167 20.6428 20.1091 20.6428 20.1016C20.6428 20.094 20.6428 20.0865 20.6428 20.0789C20.6428 20.0713 20.6428 20.0637 20.6428 20.0561C20.6428 20.0485 20.6428 20.0409 20.6428 20.0333C20.6428 20.0256 20.6428 20.018 20.6428 20.0103C20.6428 20.0027 20.6428 19.995 20.6428 19.9873C20.6428 19.9796 20.6428 19.972 20.6428 19.9642C20.6428 19.9565 20.6428 19.9488 20.6428 19.9411C20.6428 19.9333 20.6428 19.9256 20.6428 19.9178C20.6428 19.9101 20.6428 19.9023 20.6428 19.8945C20.6428 19.8867 20.6428 19.8789 20.6428 19.8711C20.6428 19.8633 20.6428 19.8555 20.6428 19.8476C20.6428 19.8398 20.6428 19.832 20.6428 19.8241C20.6428 19.8162 20.6428 19.8083 20.6428 19.8005C20.6428 19.7926 20.6428 19.7847 20.6428 19.7768C20.6428 19.7688 20.6428 19.7609 20.6428 19.753C20.6428 19.745 20.6428 19.7371 20.6428 19.7291C20.6428 19.7212 20.6428 19.7132 20.6428 19.7052C20.6428 19.6972 20.6428 19.6892 20.6428 19.6812C20.6428 19.6732 20.6428 19.6652 20.6428 19.6571C20.6428 19.6491 20.6428 19.641 20.6428 19.633C20.6428 19.6249 20.6428 19.6168 20.6428 19.6088C20.6428 19.6007 20.6428 19.5926 20.6428 19.5845C20.6428 19.5764 20.6428 19.5682 20.6428 19.5601C20.6428 19.552 20.6428 19.5438 20.6428 19.5357C20.6428 19.5275 20.6428 19.5193 20.6428 19.5112C20.6428 19.503 20.6428 19.4948 20.6428 19.4866C20.6428 19.4784 20.6428 19.4702 20.6428 19.4619C20.6428 19.4537 20.6428 19.4455 20.6428 19.4372C20.6428 19.429 20.6428 19.4207 20.6428 19.4124C20.6428 19.4042 20.6428 19.3959 20.6428 19.3876C20.6428 19.3793 20.6428 19.371 20.6428 19.3627C20.6428 19.3543 20.6428 19.346 20.6428 19.3377C20.6428 19.3293 20.6428 19.321 20.6428 19.3126C20.6428 19.3042 20.6428 19.2959 20.6428 19.2875C20.6428 19.2791 20.6428 19.2707 20.6428 19.2623C20.6428 19.2539 20.6428 19.2455 20.6428 19.237C20.6428 19.2286 20.6428 19.2202 20.6428 19.2117C20.6428 19.2033 20.6428 19.1948 20.6428 19.1863C20.6428 19.1778 20.6428 19.1694 20.6428 19.1609C20.6428 19.1524 20.6428 19.1439 20.6428 19.1354C20.6428 19.1268 20.6428 19.1183 20.6428 19.1098C20.6428 19.1012 20.6428 19.0927 20.6428 19.0841C20.6428 19.0756 20.6428 19.067 20.6428 19.0584C20.6428 19.0498 20.6428 19.0412 20.6428 19.0326C20.6428 19.024 20.6428 19.0154 20.6428 19.0068C20.6428 18.9982 20.6428 18.9896 20.6428 18.9809C20.6428 18.9723 20.6428 18.9636 20.6428 18.955C20.6428 18.9463 20.6428 18.9376 20.6428 18.9289C20.6428 18.9203 20.6428 18.9116 20.6428 18.9029C20.6428 18.8942 20.6428 18.8854 20.6428 18.8767C20.6428 18.868 20.6428 18.8593 20.6428 18.8505C20.6428 18.8418 20.6428 18.833 20.6428 18.8243C20.6428 18.8155 20.6428 18.8067 20.6428 18.7979C20.6428 18.7892 20.6428 18.7804 20.6428 18.7716C20.6428 18.7628 20.6428 18.754 20.6428 18.7451C20.6428 18.7363 20.6428 18.7275 20.6428 18.7187C20.6428 18.7098 20.6428 18.701 20.6428 18.6921C20.6428 18.6832 20.6428 18.6744 20.6428 18.6655C20.6428 18.6566 20.6428 18.6477 20.6428 18.6388C20.6428 18.6299 20.6428 18.621 20.6428 18.6121C20.6428 18.6032 20.6428 18.5943 20.6428 18.5853C20.6428 18.5764 20.6428 18.5675 20.6428 18.5585C20.6428 18.5496 20.6428 18.5406 20.6428 18.5316C20.6428 18.5227 20.6428 18.5137 20.6428 18.5047C20.6428 18.4957 20.6428 18.4867 20.6428 18.4777C20.6428 18.4687 20.6428 18.4597 20.6428 18.4507C20.6428 18.4416 20.6428 18.4326 20.6428 18.4236C20.6428 18.4145 20.6428 18.4055 20.6428 18.3964C20.6428 18.3874 20.6428 18.3783 20.6428 18.3692C20.6428 18.3602 20.6428 18.3511 20.6428 18.342C20.6428 18.3329 20.6428 18.3238 20.6428 18.3147C20.6428 18.3056 20.6428 18.2964 20.6428 18.2873C20.6428 18.2782 20.6428 18.2691 20.6428 18.2599C20.6428 18.2508 20.6428 18.2416 20.6428 18.2325C20.6428 18.2233 20.6428 18.2141 20.6428 18.205C20.6428 18.1958 20.6428 18.1866 20.6428 18.1774C20.6428 18.1682 20.6428 18.159 20.6428 18.1498C20.6428 18.1406 20.6428 18.1314 20.6428 18.1222C20.6428 18.1129 20.6428 18.1037 20.6428 18.0945C20.6428 18.0852 20.6428 18.076 20.6428 18.0667C20.6428 18.0575 20.6428 18.0482 20.6428 18.0389C20.6428 18.0296 20.6428 18.0204 20.6428 18.0111C20.6428 18.0018 20.6428 17.9925 20.6428 17.9832C20.6428 17.9739 20.6428 17.9646 20.6428 17.9553C20.6428 17.9459 20.6428 17.9366 20.6428 17.9273C20.6428 17.918 20.6428 17.9086 20.6428 17.8993C20.6428 17.8899 20.6428 17.8806 20.6428 17.8712C20.6428 17.8618 20.6428 17.8525 20.6428 17.8431C20.6428 17.8337 20.6428 17.8243 20.6428 17.8149C20.6428 17.8056 20.6428 17.7962 20.6428 17.7868C20.6428 17.7773 20.6428 17.7679 20.6428 17.7585C20.6428 17.7491 20.6428 17.7397 20.6428 17.7302C20.6428 17.7208 20.6428 17.7114 20.6428 17.7019C20.6428 17.6925 20.6428 17.683 20.6428 17.6736C20.6428 17.6641 20.6428 17.6546 20.6428 17.6451C20.6428 17.6357 20.6428 17.6262 20.6428 17.6167C20.6428 17.6072 20.6428 17.5977 20.6428 17.5882C20.6428 17.5787 20.6428 17.5692 20.6428 17.5597C20.6428 17.5502 20.6428 17.5407 20.6428 17.5311C20.6428 17.5216 20.6428 17.5121 20.6428 17.5025C20.6428 17.493 20.6428 17.4834 20.6428 17.4739C20.6428 17.4643 20.6428 17.4548 20.6428 17.4452C20.6428 17.4356 20.6428 17.4261 20.6428 17.4165C20.6428 17.4069 20.6428 17.3973 20.6428 17.3877C20.6428 17.3782 20.6428 17.3686 20.6428 17.359C20.6428 17.3494 20.6428 17.3397 20.6428 17.3301C20.6428 17.3205 20.6428 17.3109 20.6428 17.3013C20.6428 17.2916 20.6428 17.282 20.6428 17.2724C20.6428 17.2627 20.6428 17.2531 20.6428 17.2434C20.6428 17.2338 20.6428 17.2241 20.6428 17.2145C20.6428 17.2048 20.6428 17.1952 20.6428 17.1855C20.6428 17.1758 20.6428 17.1661 20.6428 17.1564C20.6428 17.1468 20.6428 17.1371 20.6428 17.1274C20.6428 17.1177 20.6428 17.108 20.6428 17.0983C20.6428 17.0886 20.6428 17.0789 20.6428 17.0691C20.6428 17.0594 20.6428 17.0497 20.6428 17.04C20.6428 17.0303 20.6428 17.0205 20.6428 17.0108C20.6428 17.001 20.6428 16.9913 20.6428 16.9816C20.6428 16.9718 20.6428 16.9621 20.6428 16.9523C20.6428 16.9425 20.6428 16.9328 20.6428 16.923C20.6428 16.9132 20.6428 16.9035 20.6428 16.8937C20.6428 16.8839 20.6428 16.8741 20.6428 16.8644C20.6428 16.8546 20.6428 16.8448 20.6428 16.835C20.6428 16.8252 20.6428 16.8154 20.6428 16.8056C20.6428 16.7958 20.6428 16.786 20.6428 16.7761C20.6428 16.7663 20.6428 16.7565 20.6428 16.7467C20.6428 16.7369 20.6428 16.727 20.6428 16.7172C20.6428 16.7074 20.6428 16.6975 20.6428 16.6877C20.6428 16.6778 20.6428 16.668 20.6428 16.6581C20.6428 16.6483 20.6428 16.6384 20.6428 16.6286C20.6428 16.6187 20.6428 16.6088 20.6428 16.599C20.6428 16.5891 20.6428 16.5792 20.6428 16.5694C20.6428 16.5595 20.6428 16.5496 20.6428 16.5397C20.6428 16.5298 20.6428 16.5199 20.6428 16.5101C20.6428 16.5002 20.6428 16.4903 20.6428 16.4804C20.6428 16.4705 20.6428 16.4606 20.6428 16.4507C20.6428 16.4407 20.6428 16.4308 20.6428 16.4209C20.6428 16.411 20.6428 16.4011 20.6428 16.3912C20.6428 16.3812 20.6428 16.3713 20.6428 16.3614C20.6428 16.3514 20.6428 16.3415 20.6428 16.3316C20.6428 16.3216 20.6428 16.3117 20.6428 16.3018C20.6428 16.2918 20.6428 16.2819 20.6428 16.2719C20.6428 16.262 20.6428 16.252 20.6428 16.242C20.6428 16.2321 20.6428 16.2221 20.6428 16.2122C20.6428 16.2022 20.6428 16.1922 20.6428 16.1823C20.6428 16.1723 20.6428 16.1623 20.6428 16.1523C20.6428 16.1424 20.6428 16.1324 20.6428 16.1224C20.6428 16.1124 20.6428 16.1024 20.6428 16.0924C20.6428 16.0824 20.6428 16.0725 20.6428 16.0625C20.6428 16.0525 20.6428 16.0425 20.6428 16.0325C20.6428 16.0225 20.6428 16.0125 20.6428 16.0024C20.6428 15.9924 20.6428 15.9824 20.6428 15.9724C20.6428 15.9624 20.6428 15.9524 20.6428 15.9424C20.6428 15.9324 20.6428 15.9223 20.6428 15.9123C20.6428 15.9023 20.6428 15.8923 20.6428 15.8822C20.6428 15.8722 20.6428 15.8622 20.6428 15.8521C20.6428 15.8421 20.6428 15.8321 20.6428 15.822C20.6428 15.812 20.6428 15.802 20.6428 15.7919C20.6428 15.7819 20.6428 15.7718 20.6428 15.7618C20.6428 15.7517 20.6428 15.7417 20.6428 15.7316C20.6428 15.7216 20.6428 15.7115 20.6428 15.7015C20.6428 15.6914 20.6428 15.6814 20.6428 15.6713C20.6428 15.6613 20.6428 15.6512 20.6428 15.6411C20.6428 15.6311 20.6428 15.621 20.6428 15.6109C20.6428 15.6009 20.6428 15.5908 20.6428 15.5807C20.6428 15.5707 20.6428 15.5606 20.6428 15.5505C20.6428 15.5404 20.6428 15.5304 20.6428 15.5203C20.6428 15.5102 20.6428 15.5001 20.6428 15.4901C20.6428 15.48 20.6428 15.4699 20.6428 15.4598C20.6428 15.4497 20.6428 15.4396 20.6428 15.4296C20.6428 15.4195 20.6428 15.4094 20.6428 15.3993C20.6428 15.3892 20.6428 15.3791 20.6428 15.369C20.6428 15.3589 20.6428 15.3488 20.6428 15.3387C20.6428 15.3287 20.6428 15.3186 20.6428 15.3085C20.6428 15.2984 20.6428 15.2883 20.6428 15.2782C20.6428 15.2681 20.6428 15.258 20.6428 15.2479C20.6428 15.2378 20.6428 15.2277 20.6428 15.2176C20.6428 15.2075 20.6428 15.1974 20.6428 15.1873C20.6428 15.1772 20.6428 15.1671 20.6428 15.1569C20.6428 15.1468 20.6428 15.1367 20.6428 15.1266C20.6428 15.1165 20.6428 15.1064 20.6428 15.0963C20.6428 15.0862 20.6428 15.0761 20.6428 15.066C20.6428 15.0559 20.6428 15.0458 20.6428 15.0357C20.6428 15.0255 20.6428 15.0154 20.6428 15.0053C20.6428 14.9952 20.6428 14.9851 20.6428 14.975C20.6428 14.9649 20.6428 14.9548 20.6428 14.9446C20.6428 14.9345 20.6428 14.9244 20.6428 14.9143C20.6428 14.9042 20.6428 14.8941 20.6428 14.884C20.6428 14.8739 20.6428 14.8637 20.6428 14.8536C20.6428 14.8435 20.6428 14.8334 20.6428 14.8233C20.6428 14.8132 20.6428 14.8031 20.6428 14.7929C20.6428 14.7828 20.6428 14.7727 20.6428 14.7626C20.6428 14.7525 20.6428 14.7424 20.6428 14.7323C20.6428 14.7222 20.6428 14.712 20.6428 14.7019C20.6428 14.6918 20.6428 14.6817 20.6428 14.6716C20.6428 14.6615 20.6428 14.6514 20.6428 14.6413C20.6428 14.6312 20.6428 14.621 20.6428 14.6109C20.6428 14.6008 20.6428 14.5907 20.6428 14.5806C20.6428 14.5705 20.6428 14.5604 20.6428 14.5503C20.6428 14.5402 20.6428 14.5301 20.6428 14.52C20.6428 14.5099 20.6428 14.4998 20.6428 14.4896C20.6428 14.4795 20.6428 14.4694 20.6428 14.4593C20.6428 14.4492 20.6428 14.4391 20.6428 14.429C20.6428 14.4189 20.6428 14.4088 20.6428 14.3987C20.6428 14.3886 20.6428 14.3785 20.6428 14.3684C20.6428 14.3583 20.6428 14.3482 20.6428 14.3382C20.6428 14.3281 20.6428 14.318 20.6428 14.3079C20.6428 14.2978 20.6428 14.2877 20.6428 14.2776C20.6428 14.2675 20.6428 14.2574 20.6428 14.2473C20.6428 14.2372 20.6428 14.2272 20.6428 14.2171C20.6428 14.207 20.6428 14.1969 20.6428 14.1868C20.6428 14.1767 20.6428 14.1667 20.6428 14.1566C20.6428 14.1465 20.6428 14.1364 20.6428 14.1264C20.6428 14.1163 20.6428 14.1062 20.6428 14.0961C20.6428 14.0861 20.6428 14.076 20.6428 14.0659C20.6428 14.0559 20.6428 14.0458 20.6428 14.0357C20.6428 14.0257 20.6428 14.0156 20.6428 14.0055C20.6428 13.9955 20.6428 13.9854 20.6428 13.9754C20.6428 13.9653 20.6428 13.9553 20.6428 13.9452C20.6428 13.9352 20.6428 13.9251 20.6428 13.9151C20.6428 13.905 20.6428 13.895 20.6428 13.8849C20.6428 13.8749 20.6428 13.8648 20.6428 13.8548C20.6428 13.8448 20.6428 13.8347 20.6428 13.8247C20.6428 13.8147 20.6428 13.8046 20.6428 13.7946C20.6428 13.7846 20.6428 13.7745 20.6428 13.7645C20.6428 13.7545 20.6428 13.7445 20.6428 13.7344C20.6428 13.7244 20.6428 13.7144 20.6428 13.7044C20.6428 13.6944 20.6428 13.6844 20.6428 13.6744C20.6428 13.6643 20.6428 13.6543 20.6428 13.6443C20.6428 13.6343 20.6428 13.6243 20.6428 13.6143C20.6428 13.6043 20.6428 13.5943 20.6428 13.5844C20.6428 13.5744 20.6428 13.5644 20.6428 13.5544C20.6428 13.5444 20.6428 13.5344 20.6428 13.5244C20.6428 13.5145 20.6428 13.5045 20.6428 13.4945C20.6428 13.4845 20.6428 13.4746 20.6428 13.4646C20.6428 13.4546 20.6428 13.4447 20.6428 13.4347C20.6428 13.4247 20.6428 13.4148 20.6428 13.4048C20.6428 13.3949 20.6428 13.3849 20.6428 13.375C20.6428 13.365 20.6428 13.3551 20.6428 13.3452C20.6428 13.3352 20.6428 13.3253 20.6428 13.3153C20.6428 13.3054 20.6428 13.2955 20.6428 13.2856C20.6428 13.2756 20.6428 13.2657 20.6428 13.2558C20.6428 13.2459 20.6428 13.236 20.6428 13.226C20.6428 13.2161 20.6428 13.2062 20.6428 13.1963C20.6428 13.1864 20.6428 13.1765 20.6428 13.1666C20.6428 13.1567 20.6428 13.1468 20.6428 13.137C20.6428 13.1271 20.6428 13.1172 20.6428 13.1073C20.6428 13.0974 20.6428 13.0875 20.6428 13.0777C20.6428 13.0678 20.6428 13.0579 20.6428 13.0481C20.6428 13.0382 20.6428 13.0284 20.6428 13.0185C20.6428 13.0086 20.6428 12.9988 20.6428 12.9889C20.6428 12.9791 20.6428 12.9693 20.6428 12.9594C20.6428 12.9496 20.6428 12.9398 20.6428 12.9299C20.6428 12.9201 20.6428 12.9103 20.6428 12.9005C20.6428 12.8906 20.6428 12.8808 20.6428 12.871C20.6428 12.8612 20.6428 12.8514 20.6428 12.8416C20.6428 12.8318 20.6428 12.822 20.6428 12.8122C20.6428 12.8024 20.6428 12.7926 20.6428 12.7829C20.6428 12.7731 20.6428 12.7633 20.6428 12.7535C20.6428 12.7438 20.6428 12.734 20.6428 12.7242C20.6428 12.7145 20.6428 12.7047 20.6428 12.695C20.6428 12.6852 20.6428 12.6755 20.6428 12.6657C20.6428 12.656 20.6428 12.6463 20.6428 12.6365C20.6428 12.6268 20.6428 12.6171 20.6428 12.6073C20.6428 12.5976 20.6428 12.5879 20.6428 12.5782C20.6428 12.5685 20.6428 12.5588 20.6428 12.5491C20.6428 12.5394 20.6428 12.5297 20.6428 12.52C20.6428 12.5103 20.6428 12.5006 20.6428 12.491C20.6428 12.4813 20.6428 12.4716 20.6428 12.462C20.6428 12.4523 20.6428 12.4426 20.6428 12.433C20.6428 12.4233 20.6428 12.4137 20.6428 12.404C20.6428 12.3944 20.6428 12.3848 20.6428 12.3751C20.6428 12.3655 20.6428 12.3559 20.6428 12.3463C20.6428 12.3366 20.6428 12.327 20.6428 12.3174C20.6428 12.3078 20.6428 12.2982 20.6428 12.2886C20.6428 12.279 20.6428 12.2694 20.6428 12.2598C20.6428 12.2503 20.6428 12.2407 20.6428 12.2311C20.6428 12.2215 20.6428 12.212 20.6428 12.2024C20.6428 12.1929 20.6428 12.1833 20.6428 12.1738C20.6428 12.1642 20.6428 12.1547 20.6428 12.1452C20.6428 12.1356 20.6428 12.1261 20.6428 12.1166C20.6428 12.1071 20.6428 12.0975 20.6428 12.088C20.6428 12.0785 20.6428 12.069 20.6428 12.0595C20.6428 12.0501 20.6428 12.0406 20.6428 12.0311C20.6428 12.0216 20.6428 12.0121 20.6428 12.0027C20.6428 11.9932 20.6428 11.9837 20.6428 11.9743C20.6428 11.9648 20.6428 11.9554 20.6428 11.946C20.6428 11.9365 20.6428 11.9271 20.6428 11.9177C20.6428 11.9082 20.6428 11.8988 20.6428 11.8894C20.6428 11.88 20.6428 11.8706 20.6428 11.8612C20.6428 11.8518 20.6428 11.8424 20.6428 11.833C20.6428 11.8236 20.6428 11.8143 20.6428 11.8049C20.6428 11.7955 20.6428 11.7862 20.6428 11.7768C20.6428 11.7675 20.6428 11.7581 20.6428 11.7488C20.6428 11.7395 20.6428 11.7301 20.6428 11.7208C20.6428 11.7115 20.6428 11.7022 20.6428 11.6929C20.6428 11.6835 20.6428 11.6742 20.6428 11.665C20.6428 11.6557 20.6428 11.6464 20.6428 11.6371C20.6428 11.6278 20.6428 11.6186 20.6428 11.6093C20.6428 11.6 20.6428 11.5908 20.6428 11.5815C20.6428 11.5723 20.6428 11.563 20.6428 11.5538C20.6428 11.5446 20.6428 11.5354 20.6428 11.5261C20.6428 11.5169 20.6428 11.5077 20.6428 11.4985C20.6428 11.4893 20.6428 11.4801 20.6428 11.471C20.6428 11.4618 20.6428 11.4526 20.6428 11.4434C20.6428 11.4343 20.6428 11.4251 20.6428 11.416C20.6428 11.4068 20.6428 11.3977 20.6428 11.3885C20.6428 11.3794 20.6428 11.3703 20.6428 11.3612C20.6428 11.3521 20.6428 11.3429 20.6428 11.3338C20.6428 11.3247 20.6428 11.3157 20.6428 11.3066C20.6428 11.2975 20.6428 11.2884 20.6428 11.2794C20.6428 11.2703 20.6428 11.2612 20.6428 11.2522C20.6428 11.2431 20.6428 11.2341 20.6428 11.2251C20.6428 11.216 20.6428 11.207 20.6428 11.198C20.6428 11.189 20.6428 11.18 20.6428 11.171C20.6428 11.162 20.6428 11.153 20.6428 11.1441C20.6428 11.1351 20.6428 11.1261 20.6428 11.1171C20.6428 11.1082 20.6428 11.0992 20.6428 11.0903C20.6428 11.0814 20.6428 11.0724 20.6428 11.0635C20.6428 11.0546 20.6428 11.0457 20.6428 11.0368C20.6428 11.0279 20.6428 11.019 20.6428 11.0101C20.6428 11.0012 20.6428 10.9923 20.6428 10.9835C20.6428 10.9746 20.6428 10.9657 20.6428 10.9569C20.6428 10.9481 20.6428 10.9392 20.6428 10.9304C20.6428 10.9216 20.6428 10.9127 20.6428 10.9039H19.6428C19.6428 10.9127 19.6428 10.9216 19.6428 10.9304C19.6428 10.9392 19.6428 10.9481 19.6428 10.9569C19.6428 10.9657 19.6428 10.9746 19.6428 10.9835C19.6428 10.9923 19.6428 11.0012 19.6428 11.0101C19.6428 11.019 19.6428 11.0279 19.6428 11.0368C19.6428 11.0457 19.6428 11.0546 19.6428 11.0635C19.6428 11.0724 19.6428 11.0814 19.6428 11.0903C19.6428 11.0992 19.6428 11.1082 19.6428 11.1171C19.6428 11.1261 19.6428 11.1351 19.6428 11.1441C19.6428 11.153 19.6428 11.162 19.6428 11.171C19.6428 11.18 19.6428 11.189 19.6428 11.198C19.6428 11.207 19.6428 11.216 19.6428 11.2251C19.6428 11.2341 19.6428 11.2431 19.6428 11.2522C19.6428 11.2612 19.6428 11.2703 19.6428 11.2794C19.6428 11.2884 19.6428 11.2975 19.6428 11.3066C19.6428 11.3157 19.6428 11.3247 19.6428 11.3338C19.6428 11.3429 19.6428 11.3521 19.6428 11.3612C19.6428 11.3703 19.6428 11.3794 19.6428 11.3885C19.6428 11.3977 19.6428 11.4068 19.6428 11.416C19.6428 11.4251 19.6428 11.4343 19.6428 11.4434C19.6428 11.4526 19.6428 11.4618 19.6428 11.471C19.6428 11.4801 19.6428 11.4893 19.6428 11.4985C19.6428 11.5077 19.6428 11.5169 19.6428 11.5261C19.6428 11.5354 19.6428 11.5446 19.6428 11.5538C19.6428 11.563 19.6428 11.5723 19.6428 11.5815C19.6428 11.5908 19.6428 11.6 19.6428 11.6093C19.6428 11.6186 19.6428 11.6278 19.6428 11.6371C19.6428 11.6464 19.6428 11.6557 19.6428 11.665C19.6428 11.6742 19.6428 11.6835 19.6428 11.6929C19.6428 11.7022 19.6428 11.7115 19.6428 11.7208C19.6428 11.7301 19.6428 11.7395 19.6428 11.7488C19.6428 11.7581 19.6428 11.7675 19.6428 11.7768C19.6428 11.7862 19.6428 11.7955 19.6428 11.8049C19.6428 11.8143 19.6428 11.8236 19.6428 11.833C19.6428 11.8424 19.6428 11.8518 19.6428 11.8612C19.6428 11.8706 19.6428 11.88 19.6428 11.8894C19.6428 11.8988 19.6428 11.9082 19.6428 11.9177C19.6428 11.9271 19.6428 11.9365 19.6428 11.946C19.6428 11.9554 19.6428 11.9648 19.6428 11.9743C19.6428 11.9837 19.6428 11.9932 19.6428 12.0027C19.6428 12.0121 19.6428 12.0216 19.6428 12.0311C19.6428 12.0406 19.6428 12.0501 19.6428 12.0595C19.6428 12.069 19.6428 12.0785 19.6428 12.088C19.6428 12.0975 19.6428 12.1071 19.6428 12.1166C19.6428 12.1261 19.6428 12.1356 19.6428 12.1452C19.6428 12.1547 19.6428 12.1642 19.6428 12.1738C19.6428 12.1833 19.6428 12.1929 19.6428 12.2024C19.6428 12.212 19.6428 12.2215 19.6428 12.2311C19.6428 12.2407 19.6428 12.2503 19.6428 12.2598C19.6428 12.2694 19.6428 12.279 19.6428 12.2886C19.6428 12.2982 19.6428 12.3078 19.6428 12.3174C19.6428 12.327 19.6428 12.3366 19.6428 12.3463C19.6428 12.3559 19.6428 12.3655 19.6428 12.3751C19.6428 12.3848 19.6428 12.3944 19.6428 12.404C19.6428 12.4137 19.6428 12.4233 19.6428 12.433C19.6428 12.4426 19.6428 12.4523 19.6428 12.462C19.6428 12.4716 19.6428 12.4813 19.6428 12.491C19.6428 12.5006 19.6428 12.5103 19.6428 12.52C19.6428 12.5297 19.6428 12.5394 19.6428 12.5491C19.6428 12.5588 19.6428 12.5685 19.6428 12.5782C19.6428 12.5879 19.6428 12.5976 19.6428 12.6073C19.6428 12.6171 19.6428 12.6268 19.6428 12.6365C19.6428 12.6463 19.6428 12.656 19.6428 12.6657C19.6428 12.6755 19.6428 12.6852 19.6428 12.695C19.6428 12.7047 19.6428 12.7145 19.6428 12.7242C19.6428 12.734 19.6428 12.7438 19.6428 12.7535C19.6428 12.7633 19.6428 12.7731 19.6428 12.7829C19.6428 12.7926 19.6428 12.8024 19.6428 12.8122C19.6428 12.822 19.6428 12.8318 19.6428 12.8416C19.6428 12.8514 19.6428 12.8612 19.6428 12.871C19.6428 12.8808 19.6428 12.8906 19.6428 12.9005C19.6428 12.9103 19.6428 12.9201 19.6428 12.9299C19.6428 12.9398 19.6428 12.9496 19.6428 12.9594C19.6428 12.9693 19.6428 12.9791 19.6428 12.9889C19.6428 12.9988 19.6428 13.0086 19.6428 13.0185C19.6428 13.0284 19.6428 13.0382 19.6428 13.0481C19.6428 13.0579 19.6428 13.0678 19.6428 13.0777C19.6428 13.0875 19.6428 13.0974 19.6428 13.1073C19.6428 13.1172 19.6428 13.1271 19.6428 13.137C19.6428 13.1468 19.6428 13.1567 19.6428 13.1666C19.6428 13.1765 19.6428 13.1864 19.6428 13.1963C19.6428 13.2062 19.6428 13.2161 19.6428 13.226C19.6428 13.236 19.6428 13.2459 19.6428 13.2558C19.6428 13.2657 19.6428 13.2756 19.6428 13.2856C19.6428 13.2955 19.6428 13.3054 19.6428 13.3153C19.6428 13.3253 19.6428 13.3352 19.6428 13.3452C19.6428 13.3551 19.6428 13.365 19.6428 13.375C19.6428 13.3849 19.6428 13.3949 19.6428 13.4048C19.6428 13.4148 19.6428 13.4247 19.6428 13.4347C19.6428 13.4447 19.6428 13.4546 19.6428 13.4646C19.6428 13.4746 19.6428 13.4845 19.6428 13.4945C19.6428 13.5045 19.6428 13.5145 19.6428 13.5244C19.6428 13.5344 19.6428 13.5444 19.6428 13.5544C19.6428 13.5644 19.6428 13.5744 19.6428 13.5844C19.6428 13.5943 19.6428 13.6043 19.6428 13.6143C19.6428 13.6243 19.6428 13.6343 19.6428 13.6443C19.6428 13.6543 19.6428 13.6643 19.6428 13.6744C19.6428 13.6844 19.6428 13.6944 19.6428 13.7044C19.6428 13.7144 19.6428 13.7244 19.6428 13.7344C19.6428 13.7445 19.6428 13.7545 19.6428 13.7645C19.6428 13.7745 19.6428 13.7846 19.6428 13.7946C19.6428 13.8046 19.6428 13.8147 19.6428 13.8247C19.6428 13.8347 19.6428 13.8448 19.6428 13.8548C19.6428 13.8648 19.6428 13.8749 19.6428 13.8849C19.6428 13.895 19.6428 13.905 19.6428 13.9151C19.6428 13.9251 19.6428 13.9352 19.6428 13.9452C19.6428 13.9553 19.6428 13.9653 19.6428 13.9754C19.6428 13.9854 19.6428 13.9955 19.6428 14.0055C19.6428 14.0156 19.6428 14.0257 19.6428 14.0357C19.6428 14.0458 19.6428 14.0559 19.6428 14.0659C19.6428 14.076 19.6428 14.0861 19.6428 14.0961C19.6428 14.1062 19.6428 14.1163 19.6428 14.1264C19.6428 14.1364 19.6428 14.1465 19.6428 14.1566C19.6428 14.1667 19.6428 14.1767 19.6428 14.1868C19.6428 14.1969 19.6428 14.207 19.6428 14.2171C19.6428 14.2272 19.6428 14.2372 19.6428 14.2473C19.6428 14.2574 19.6428 14.2675 19.6428 14.2776C19.6428 14.2877 19.6428 14.2978 19.6428 14.3079C19.6428 14.318 19.6428 14.3281 19.6428 14.3382C19.6428 14.3482 19.6428 14.3583 19.6428 14.3684C19.6428 14.3785 19.6428 14.3886 19.6428 14.3987C19.6428 14.4088 19.6428 14.4189 19.6428 14.429C19.6428 14.4391 19.6428 14.4492 19.6428 14.4593C19.6428 14.4694 19.6428 14.4795 19.6428 14.4896C19.6428 14.4998 19.6428 14.5099 19.6428 14.52C19.6428 14.5301 19.6428 14.5402 19.6428 14.5503C19.6428 14.5604 19.6428 14.5705 19.6428 14.5806C19.6428 14.5907 19.6428 14.6008 19.6428 14.6109C19.6428 14.621 19.6428 14.6312 19.6428 14.6413C19.6428 14.6514 19.6428 14.6615 19.6428 14.6716C19.6428 14.6817 19.6428 14.6918 19.6428 14.7019C19.6428 14.712 19.6428 14.7222 19.6428 14.7323C19.6428 14.7424 19.6428 14.7525 19.6428 14.7626C19.6428 14.7727 19.6428 14.7828 19.6428 14.7929C19.6428 14.8031 19.6428 14.8132 19.6428 14.8233C19.6428 14.8334 19.6428 14.8435 19.6428 14.8536C19.6428 14.8637 19.6428 14.8739 19.6428 14.884C19.6428 14.8941 19.6428 14.9042 19.6428 14.9143C19.6428 14.9244 19.6428 14.9345 19.6428 14.9446C19.6428 14.9548 19.6428 14.9649 19.6428 14.975C19.6428 14.9851 19.6428 14.9952 19.6428 15.0053C19.6428 15.0154 19.6428 15.0255 19.6428 15.0357C19.6428 15.0458 19.6428 15.0559 19.6428 15.066C19.6428 15.0761 19.6428 15.0862 19.6428 15.0963C19.6428 15.1064 19.6428 15.1165 19.6428 15.1266C19.6428 15.1367 19.6428 15.1468 19.6428 15.1569C19.6428 15.1671 19.6428 15.1772 19.6428 15.1873C19.6428 15.1974 19.6428 15.2075 19.6428 15.2176C19.6428 15.2277 19.6428 15.2378 19.6428 15.2479C19.6428 15.258 19.6428 15.2681 19.6428 15.2782C19.6428 15.2883 19.6428 15.2984 19.6428 15.3085C19.6428 15.3186 19.6428 15.3287 19.6428 15.3387C19.6428 15.3488 19.6428 15.3589 19.6428 15.369C19.6428 15.3791 19.6428 15.3892 19.6428 15.3993C19.6428 15.4094 19.6428 15.4195 19.6428 15.4296C19.6428 15.4396 19.6428 15.4497 19.6428 15.4598C19.6428 15.4699 19.6428 15.48 19.6428 15.4901C19.6428 15.5001 19.6428 15.5102 19.6428 15.5203C19.6428 15.5304 19.6428 15.5404 19.6428 15.5505C19.6428 15.5606 19.6428 15.5707 19.6428 15.5807C19.6428 15.5908 19.6428 15.6009 19.6428 15.6109C19.6428 15.621 19.6428 15.6311 19.6428 15.6411C19.6428 15.6512 19.6428 15.6613 19.6428 15.6713C19.6428 15.6814 19.6428 15.6914 19.6428 15.7015C19.6428 15.7115 19.6428 15.7216 19.6428 15.7316C19.6428 15.7417 19.6428 15.7517 19.6428 15.7618C19.6428 15.7718 19.6428 15.7819 19.6428 15.7919C19.6428 15.802 19.6428 15.812 19.6428 15.822C19.6428 15.8321 19.6428 15.8421 19.6428 15.8521C19.6428 15.8622 19.6428 15.8722 19.6428 15.8822C19.6428 15.8923 19.6428 15.9023 19.6428 15.9123C19.6428 15.9223 19.6428 15.9324 19.6428 15.9424C19.6428 15.9524 19.6428 15.9624 19.6428 15.9724C19.6428 15.9824 19.6428 15.9924 19.6428 16.0024C19.6428 16.0125 19.6428 16.0225 19.6428 16.0325C19.6428 16.0425 19.6428 16.0525 19.6428 16.0625C19.6428 16.0725 19.6428 16.0824 19.6428 16.0924C19.6428 16.1024 19.6428 16.1124 19.6428 16.1224C19.6428 16.1324 19.6428 16.1424 19.6428 16.1523C19.6428 16.1623 19.6428 16.1723 19.6428 16.1823C19.6428 16.1922 19.6428 16.2022 19.6428 16.2122C19.6428 16.2221 19.6428 16.2321 19.6428 16.242C19.6428 16.252 19.6428 16.262 19.6428 16.2719C19.6428 16.2819 19.6428 16.2918 19.6428 16.3018C19.6428 16.3117 19.6428 16.3216 19.6428 16.3316C19.6428 16.3415 19.6428 16.3514 19.6428 16.3614C19.6428 16.3713 19.6428 16.3812 19.6428 16.3912C19.6428 16.4011 19.6428 16.411 19.6428 16.4209C19.6428 16.4308 19.6428 16.4407 19.6428 16.4507C19.6428 16.4606 19.6428 16.4705 19.6428 16.4804C19.6428 16.4903 19.6428 16.5002 19.6428 16.5101C19.6428 16.5199 19.6428 16.5298 19.6428 16.5397C19.6428 16.5496 19.6428 16.5595 19.6428 16.5694C19.6428 16.5792 19.6428 16.5891 19.6428 16.599C19.6428 16.6088 19.6428 16.6187 19.6428 16.6286C19.6428 16.6384 19.6428 16.6483 19.6428 16.6581C19.6428 16.668 19.6428 16.6778 19.6428 16.6877C19.6428 16.6975 19.6428 16.7074 19.6428 16.7172C19.6428 16.727 19.6428 16.7369 19.6428 16.7467C19.6428 16.7565 19.6428 16.7663 19.6428 16.7761C19.6428 16.786 19.6428 16.7958 19.6428 16.8056C19.6428 16.8154 19.6428 16.8252 19.6428 16.835C19.6428 16.8448 19.6428 16.8546 19.6428 16.8644C19.6428 16.8741 19.6428 16.8839 19.6428 16.8937C19.6428 16.9035 19.6428 16.9132 19.6428 16.923C19.6428 16.9328 19.6428 16.9425 19.6428 16.9523C19.6428 16.9621 19.6428 16.9718 19.6428 16.9816C19.6428 16.9913 19.6428 17.001 19.6428 17.0108C19.6428 17.0205 19.6428 17.0303 19.6428 17.04C19.6428 17.0497 19.6428 17.0594 19.6428 17.0691C19.6428 17.0789 19.6428 17.0886 19.6428 17.0983C19.6428 17.108 19.6428 17.1177 19.6428 17.1274C19.6428 17.1371 19.6428 17.1468 19.6428 17.1564C19.6428 17.1661 19.6428 17.1758 19.6428 17.1855C19.6428 17.1952 19.6428 17.2048 19.6428 17.2145C19.6428 17.2241 19.6428 17.2338 19.6428 17.2434C19.6428 17.2531 19.6428 17.2627 19.6428 17.2724C19.6428 17.282 19.6428 17.2916 19.6428 17.3013C19.6428 17.3109 19.6428 17.3205 19.6428 17.3301C19.6428 17.3397 19.6428 17.3494 19.6428 17.359C19.6428 17.3686 19.6428 17.3782 19.6428 17.3877C19.6428 17.3973 19.6428 17.4069 19.6428 17.4165C19.6428 17.4261 19.6428 17.4356 19.6428 17.4452C19.6428 17.4548 19.6428 17.4643 19.6428 17.4739C19.6428 17.4834 19.6428 17.493 19.6428 17.5025C19.6428 17.5121 19.6428 17.5216 19.6428 17.5311C19.6428 17.5407 19.6428 17.5502 19.6428 17.5597C19.6428 17.5692 19.6428 17.5787 19.6428 17.5882C19.6428 17.5977 19.6428 17.6072 19.6428 17.6167C19.6428 17.6262 19.6428 17.6357 19.6428 17.6451C19.6428 17.6546 19.6428 17.6641 19.6428 17.6736C19.6428 17.683 19.6428 17.6925 19.6428 17.7019C19.6428 17.7114 19.6428 17.7208 19.6428 17.7302C19.6428 17.7397 19.6428 17.7491 19.6428 17.7585C19.6428 17.7679 19.6428 17.7773 19.6428 17.7868C19.6428 17.7962 19.6428 17.8056 19.6428 17.8149C19.6428 17.8243 19.6428 17.8337 19.6428 17.8431C19.6428 17.8525 19.6428 17.8618 19.6428 17.8712C19.6428 17.8806 19.6428 17.8899 19.6428 17.8993C19.6428 17.9086 19.6428 17.918 19.6428 17.9273C19.6428 17.9366 19.6428 17.9459 19.6428 17.9553C19.6428 17.9646 19.6428 17.9739 19.6428 17.9832C19.6428 17.9925 19.6428 18.0018 19.6428 18.0111C19.6428 18.0204 19.6428 18.0296 19.6428 18.0389C19.6428 18.0482 19.6428 18.0575 19.6428 18.0667C19.6428 18.076 19.6428 18.0852 19.6428 18.0945C19.6428 18.1037 19.6428 18.1129 19.6428 18.1222C19.6428 18.1314 19.6428 18.1406 19.6428 18.1498C19.6428 18.159 19.6428 18.1682 19.6428 18.1774C19.6428 18.1866 19.6428 18.1958 19.6428 18.205C19.6428 18.2141 19.6428 18.2233 19.6428 18.2325C19.6428 18.2416 19.6428 18.2508 19.6428 18.2599C19.6428 18.2691 19.6428 18.2782 19.6428 18.2873C19.6428 18.2964 19.6428 18.3056 19.6428 18.3147C19.6428 18.3238 19.6428 18.3329 19.6428 18.342C19.6428 18.3511 19.6428 18.3602 19.6428 18.3692C19.6428 18.3783 19.6428 18.3874 19.6428 18.3964C19.6428 18.4055 19.6428 18.4145 19.6428 18.4236C19.6428 18.4326 19.6428 18.4416 19.6428 18.4507C19.6428 18.4597 19.6428 18.4687 19.6428 18.4777C19.6428 18.4867 19.6428 18.4957 19.6428 18.5047C19.6428 18.5137 19.6428 18.5227 19.6428 18.5316C19.6428 18.5406 19.6428 18.5496 19.6428 18.5585C19.6428 18.5675 19.6428 18.5764 19.6428 18.5853C19.6428 18.5943 19.6428 18.6032 19.6428 18.6121C19.6428 18.621 19.6428 18.6299 19.6428 18.6388C19.6428 18.6477 19.6428 18.6566 19.6428 18.6655C19.6428 18.6744 19.6428 18.6832 19.6428 18.6921C19.6428 18.701 19.6428 18.7098 19.6428 18.7187C19.6428 18.7275 19.6428 18.7363 19.6428 18.7451C19.6428 18.754 19.6428 18.7628 19.6428 18.7716C19.6428 18.7804 19.6428 18.7892 19.6428 18.7979C19.6428 18.8067 19.6428 18.8155 19.6428 18.8243C19.6428 18.833 19.6428 18.8418 19.6428 18.8505C19.6428 18.8593 19.6428 18.868 19.6428 18.8767C19.6428 18.8854 19.6428 18.8942 19.6428 18.9029C19.6428 18.9116 19.6428 18.9203 19.6428 18.9289C19.6428 18.9376 19.6428 18.9463 19.6428 18.955C19.6428 18.9636 19.6428 18.9723 19.6428 18.9809C19.6428 18.9896 19.6428 18.9982 19.6428 19.0068C19.6428 19.0154 19.6428 19.024 19.6428 19.0326C19.6428 19.0412 19.6428 19.0498 19.6428 19.0584C19.6428 19.067 19.6428 19.0756 19.6428 19.0841C19.6428 19.0927 19.6428 19.1012 19.6428 19.1098C19.6428 19.1183 19.6428 19.1268 19.6428 19.1354C19.6428 19.1439 19.6428 19.1524 19.6428 19.1609C19.6428 19.1694 19.6428 19.1778 19.6428 19.1863C19.6428 19.1948 19.6428 19.2033 19.6428 19.2117C19.6428 19.2202 19.6428 19.2286 19.6428 19.237C19.6428 19.2455 19.6428 19.2539 19.6428 19.2623C19.6428 19.2707 19.6428 19.2791 19.6428 19.2875C19.6428 19.2959 19.6428 19.3042 19.6428 19.3126C19.6428 19.321 19.6428 19.3293 19.6428 19.3377C19.6428 19.346 19.6428 19.3543 19.6428 19.3627C19.6428 19.371 19.6428 19.3793 19.6428 19.3876C19.6428 19.3959 19.6428 19.4042 19.6428 19.4124C19.6428 19.4207 19.6428 19.429 19.6428 19.4372C19.6428 19.4455 19.6428 19.4537 19.6428 19.4619C19.6428 19.4702 19.6428 19.4784 19.6428 19.4866C19.6428 19.4948 19.6428 19.503 19.6428 19.5112C19.6428 19.5193 19.6428 19.5275 19.6428 19.5357C19.6428 19.5438 19.6428 19.552 19.6428 19.5601C19.6428 19.5682 19.6428 19.5764 19.6428 19.5845C19.6428 19.5926 19.6428 19.6007 19.6428 19.6088C19.6428 19.6168 19.6428 19.6249 19.6428 19.633C19.6428 19.641 19.6428 19.6491 19.6428 19.6571C19.6428 19.6652 19.6428 19.6732 19.6428 19.6812C19.6428 19.6892 19.6428 19.6972 19.6428 19.7052C19.6428 19.7132 19.6428 19.7212 19.6428 19.7291C19.6428 19.7371 19.6428 19.745 19.6428 19.753C19.6428 19.7609 19.6428 19.7688 19.6428 19.7768C19.6428 19.7847 19.6428 19.7926 19.6428 19.8005C19.6428 19.8083 19.6428 19.8162 19.6428 19.8241C19.6428 19.832 19.6428 19.8398 19.6428 19.8476C19.6428 19.8555 19.6428 19.8633 19.6428 19.8711C19.6428 19.8789 19.6428 19.8867 19.6428 19.8945C19.6428 19.9023 19.6428 19.9101 19.6428 19.9178C19.6428 19.9256 19.6428 19.9333 19.6428 19.9411C19.6428 19.9488 19.6428 19.9565 19.6428 19.9642C19.6428 19.972 19.6428 19.9796 19.6428 19.9873C19.6428 19.995 19.6428 20.0027 19.6428 20.0103C19.6428 20.018 19.6428 20.0256 19.6428 20.0333C19.6428 20.0409 19.6428 20.0485 19.6428 20.0561C19.6428 20.0637 19.6428 20.0713 19.6428 20.0789C19.6428 20.0865 19.6428 20.094 19.6428 20.1016C19.6428 20.1091 19.6428 20.1167 19.6428 20.1242C19.6428 20.1317 19.6428 20.1392 19.6428 20.1467C19.6428 20.1542 19.6428 20.1617 19.6428 20.1691C19.6428 20.1766 19.6428 20.1841 19.6428 20.1915C19.6428 20.1989 19.6428 20.2064 19.6428 20.2138C19.6428 20.2212 19.6428 20.2286 19.6428 20.236C19.6428 20.2434 19.6428 20.2507 19.6428 20.2581C19.6428 20.2654 19.6428 20.2728 19.6428 20.2801C19.6428 20.2874 19.6428 20.2948 19.6428 20.3021C19.6428 20.3094 19.6428 20.3166 19.6428 20.3239C19.6428 20.3312 19.6428 20.3384 19.6428 20.3457C19.6428 20.3529 19.6428 20.3602 19.6428 20.3674C19.6428 20.3746 19.6428 20.3818 19.6428 20.389C19.6428 20.3962 19.6428 20.4033 19.6428 20.4105C19.6428 20.4176 19.6428 20.4248 19.6428 20.4319C19.6428 20.439 19.6428 20.4462 19.6428 20.4532C19.6428 20.4603 19.6428 20.4674 19.6428 20.4745C19.6428 20.4816 19.6428 20.4886 19.6428 20.4957C19.6428 20.5027 19.6428 20.5097 19.6428 20.5167C19.6428 20.5237 19.6428 20.5307 19.6428 20.5377C19.6428 20.5447 19.6428 20.5517 19.6428 20.5586C19.6428 20.5656 19.6428 20.5725 19.6428 20.5794C19.6428 20.5863 19.6428 20.5932 19.6428 20.6001C19.6428 20.607 19.6428 20.6139 19.6428 20.6208C19.6428 20.6276 19.6428 20.6345 19.6428 20.6413C19.6428 20.6481 19.6428 20.6549 19.6428 20.6617C19.6428 20.6685 19.6428 20.6753 19.6428 20.6821C19.6428 20.6888 19.6428 20.6956 19.6428 20.7023C19.6428 20.7091 19.6428 20.7158 19.6428 20.7225C19.6428 20.7292 19.6428 20.7359 19.6428 20.7426C19.6428 20.7492 19.6428 20.7559 19.6428 20.7625C19.6428 20.7692 19.6428 20.7758 19.6428 20.7824C19.6428 20.789 19.6428 20.7956 19.6428 20.8022C19.6428 20.8088 19.6428 20.8153 19.6428 20.8219C19.6428 20.8284 19.6428 20.835 19.6428 20.8415C19.6428 20.848 19.6428 20.8545 19.6428 20.861C19.6428 20.8675 19.6428 20.8739 19.6428 20.8804C19.6428 20.8868 19.6428 20.8933 19.6428 20.8997C19.6428 20.9061 19.6428 20.9125 19.6428 20.9189C19.6428 20.9253 19.6428 20.9316 19.6428 20.938C19.6428 20.9444 19.6428 20.9507 19.6428 20.957C19.6428 20.9633 19.6428 20.9696 19.6428 20.9759C19.6428 20.9822 19.6428 20.9885 19.6428 20.9947C19.6428 21.001 19.6428 21.0072 19.6428 21.0134C19.6428 21.0197 19.6428 21.0259 19.6428 21.0321C19.6428 21.0382 19.6428 21.0444 19.6428 21.0506C19.6428 21.0567 19.6428 21.0629 19.6428 21.069C19.6428 21.0751 19.6428 21.0812 19.6428 21.0873C19.6428 21.0934 19.6428 21.0995 19.6428 21.1055C19.6428 21.1116 19.6428 21.1176 19.6428 21.1236C19.6428 21.1296 19.6428 21.1356 19.6428 21.1416C19.6428 21.1476 19.6428 21.1536 19.6428 21.1595C19.6428 21.1655 19.6428 21.1714 19.6428 21.1773C19.6428 21.1832 19.6428 21.1891 19.6428 21.195C19.6428 21.2009 19.6428 21.2068 19.6428 21.2126C19.6428 21.2185 19.6428 21.2243 19.6428 21.2301C19.6428 21.2359 19.6428 21.2417 19.6428 21.2475C19.6428 21.2533 19.6428 21.259 19.6428 21.2648C19.6428 21.2705 19.6428 21.2762 19.6428 21.2819C19.6428 21.2876 19.6428 21.2933 19.6428 21.299C19.6428 21.3047 19.6428 21.3103 19.6428 21.3159C19.6428 21.3216 19.6428 21.3272 19.6428 21.3328C19.6428 21.3384 19.6428 21.344 19.6428 21.3495C19.6428 21.3551 19.6428 21.3606 19.6428 21.3662C19.6428 21.3717 19.6428 21.3772 19.6428 21.3827C19.6428 21.3882 19.6428 21.3937 19.6428 21.3991C19.6428 21.4046 19.6428 21.41 19.6428 21.4154C19.6428 21.4208 19.6428 21.4262 19.6428 21.4316C19.6428 21.437 19.6428 21.4424 19.6428 21.4477C19.6428 21.453 19.6428 21.4584 19.6428 21.4637C19.6428 21.469 19.6428 21.4743 19.6428 21.4795C19.6428 21.4848 19.6428 21.4901 19.6428 21.4953C19.6428 21.5005 19.6428 21.5057 19.6428 21.5109C19.6428 21.5161 19.6428 21.5213 19.6428 21.5265C19.6428 21.5316 19.6428 21.5368 19.6428 21.5419C19.6428 21.547 19.6428 21.5521 19.6428 21.5572C19.6428 21.5623 19.6428 21.5673 19.6428 21.5724C19.6428 21.5774 19.6428 21.5824 19.6428 21.5875C19.6428 21.5925 19.6428 21.5974 19.6428 21.6024C19.6428 21.6074 19.6428 21.6123 19.6428 21.6173C19.6428 21.6222 19.6428 21.6271 19.6428 21.632C19.6428 21.6369 19.6428 21.6418 19.6428 21.6466C19.6428 21.6515 19.6428 21.6563 19.6428 21.6611C19.6428 21.6659 19.6428 21.6707 19.6428 21.6755C19.6428 21.6803 19.6428 21.685 19.6428 21.6898C19.6428 21.6945 19.6428 21.6992 19.6428 21.7039C19.6428 21.7086 19.6428 21.7133 19.6428 21.7179C19.6428 21.7226 19.6428 21.7272 19.6428 21.7318C19.6428 21.7365 19.6428 21.7411 19.6428 21.7456C19.6428 21.7502 19.6428 21.7548 19.6428 21.7593C19.6428 21.7639 19.6428 21.7684 19.6428 21.7729C19.6428 21.7774 19.6428 21.7818 19.6428 21.7863C19.6428 21.7908 19.6428 21.7952 19.6428 21.7996C19.6428 21.804 19.6428 21.8084 19.6428 21.8128C19.6428 21.8172 19.6428 21.8215 19.6428 21.8259C19.6428 21.8302 19.6428 21.8345 19.6428 21.8388C19.6428 21.8431 19.6428 21.8474 19.6428 21.8517C19.6428 21.8559 19.6428 21.8601 19.6428 21.8644C19.6428 21.8686 19.6428 21.8728 19.6428 21.8769C19.6428 21.8811 19.6428 21.8853 19.6428 21.8894C19.6428 21.8935 19.6428 21.8976 19.6428 21.9017C19.6428 21.9058 19.6428 21.9099 19.6428 21.9139C19.6428 21.918 19.6428 21.922 19.6428 21.926C19.6428 21.93 19.6428 21.934 19.6428 21.938C19.6428 21.942 19.6428 21.9459 19.6428 21.9498C19.6428 21.9538 19.6428 21.9577 19.6428 21.9615C19.6428 21.9654 19.6428 21.9693 19.6428 21.9731C19.6428 21.977 19.6428 21.9808 19.6428 21.9846C19.6428 21.9884 19.6428 21.9921 19.6428 21.9959C19.6428 21.9997 19.6428 22.0034 19.6428 22.0071C19.6428 22.0108 19.6428 22.0145 19.6428 22.0182C19.6428 22.0218 19.6428 22.0255 19.6428 22.0291C19.6428 22.0327 19.6428 22.0364 19.6428 22.0399C19.6428 22.0435 19.6428 22.0471 19.6428 22.0506C19.6428 22.0542 19.6428 22.0577 19.6428 22.0612C19.6428 22.0647 19.6428 22.0681 19.6428 22.0716C19.6428 22.0751 19.6428 22.0785 19.6428 22.0819C19.6428 22.0853 19.6428 22.0887 19.6428 22.0921C19.6428 22.0954 19.6428 22.0988 19.6428 22.1021C19.6428 22.1054 19.6428 22.1087 19.6428 22.112C19.6428 22.1153 19.6428 22.1185 19.6428 22.1218C19.6428 22.125 19.6428 22.1282 19.6428 22.1314C19.6428 22.1346 19.6428 22.1377 19.6428 22.1409C19.6428 22.144 19.6428 22.1472 19.6428 22.1503C19.6428 22.1534 19.6428 22.1564 19.6428 22.1595C19.6428 22.1625 19.6428 22.1656 19.6428 22.1686C19.6428 22.1716 19.6428 22.1746 19.6428 22.1776C19.6428 22.1805 19.6428 22.1835 19.6428 22.1864C19.6428 22.1893 19.6428 22.1922 19.6428 22.1951C19.6428 22.198 19.6428 22.2008 19.6428 22.2036C19.6428 22.2065 19.6428 22.2093 19.6428 22.212C19.6428 22.2148 19.6428 22.2176 19.6428 22.2203C19.6428 22.2231 19.6428 22.2258 19.6428 22.2285C19.6428 22.2312 19.6428 22.2338 19.6428 22.2365C19.6428 22.2391 19.6428 22.2418 19.6428 22.2444C19.6428 22.247 19.6428 22.2495 19.6428 22.2521C19.6428 22.2546 19.6428 22.2572 19.6428 22.2597C19.6428 22.2622 19.6428 22.2647 19.6428 22.2671C19.6428 22.2696 19.6428 22.272 19.6428 22.2744C19.6428 22.2768 19.6428 22.2792 19.6428 22.2816C19.6428 22.284 19.6428 22.2863 19.6428 22.2886C19.6428 22.2909 19.6428 22.2932 19.6428 22.2955C19.6428 22.2978 19.6428 22.3 19.6428 22.3023C19.6428 22.3045 19.6428 22.3067 19.6428 22.3089C19.6428 22.311 19.6428 22.3132 19.6428 22.3153C19.6428 22.3175 19.6428 22.3196 19.6428 22.3216C19.6428 22.3237 19.6428 22.3258 19.6428 22.3278C19.6428 22.3298 19.6428 22.3319 19.6428 22.3338C19.6428 22.3358 19.6428 22.3378 19.6428 22.3397C19.6428 22.3417 19.6428 22.3436 19.6428 22.3455C19.6428 22.3474 19.6428 22.3492 19.6428 22.3511C19.6428 22.3529 19.6428 22.3547 19.6428 22.3565C19.6428 22.3583 19.6428 22.3601 19.6428 22.3618C19.6428 22.3636 19.6428 22.3653 19.6428 22.367C19.6428 22.3687 19.6428 22.3703 19.6428 22.372C19.6428 22.3736 19.6428 22.3752 19.6428 22.3768C19.6428 22.3784 19.6428 22.38 19.6428 22.3816C19.6428 22.3831 19.6428 22.3846 19.6428 22.3861C19.6428 22.3876 19.6428 22.3891 19.6428 22.3905C19.6428 22.392 19.6428 22.3934 19.6428 22.3948C19.6428 22.3962 19.6428 22.3976 19.6428 22.3989C19.6428 22.4003 19.6428 22.4016 19.6428 22.4029C19.6428 22.4042 19.6428 22.4055 19.6428 22.4067C19.6428 22.408 19.6428 22.4092 19.6428 22.4104C19.6428 22.4116 19.6428 22.4128 19.6428 22.4139C19.6428 22.4151 19.6428 22.4162 19.6428 22.4173C19.6428 22.4184 19.6428 22.4194 19.6428 22.4205C19.6428 22.4215 19.6428 22.4225 19.6428 22.4235C19.6428 22.4245 19.6428 22.4255 19.6428 22.4264C19.6428 22.4274 19.6428 22.4283 19.6428 22.4292C19.6428 22.4301 19.6428 22.431 19.6428 22.4318C19.6428 22.4326 19.6428 22.4335 19.6428 22.4342C19.6428 22.435 19.6428 22.4358 19.6428 22.4365C19.6428 22.4373 19.6428 22.438 19.6428 22.4387C19.6428 22.4394 19.6428 22.44 19.6428 22.4407C19.6428 22.4413 19.6428 22.4419 19.6428 22.4425C19.6428 22.4431 19.6428 22.4436 19.6428 22.4441C19.6428 22.4447 19.6428 22.4452 19.6428 22.4457C19.6428 22.4461 19.6428 22.4466 19.6428 22.447C19.6428 22.4474 19.6428 22.4478 19.6428 22.4482C19.6428 22.4486 19.6428 22.4489 19.6428 22.4492C19.6428 22.4496 19.6428 22.4499 19.6428 22.4501C19.6428 22.4504 19.6428 22.4506 19.6428 22.4508C19.6428 22.4511 19.6428 22.4512 19.6428 22.4514C19.6428 22.4516 19.6428 22.4517 19.6428 22.4518C19.6428 22.4519 19.6428 22.452 19.6428 22.452C19.6428 22.4521 19.6428 22.4521 20.1428 22.4521ZM12.8572 22.4522C13.3572 22.4522 13.3572 22.4521 13.3572 22.4521C13.3572 22.452 13.3572 22.452 13.3572 22.4518C13.3572 22.4517 13.3572 22.4516 13.3572 22.4514C13.3572 22.4513 13.3572 22.4511 13.3572 22.4509C13.3572 22.4507 13.3572 22.4504 13.3572 22.4502C13.3572 22.4499 13.3572 22.4496 13.3572 22.4493C13.3572 22.449 13.3572 22.4486 13.3572 22.4482C13.3572 22.4479 13.3572 22.4475 13.3572 22.4471C13.3572 22.4466 13.3572 22.4462 13.3572 22.4457C13.3572 22.4452 13.3572 22.4447 13.3572 22.4442C13.3572 22.4437 13.3572 22.4431 13.3572 22.4425C13.3572 22.4419 13.3572 22.4413 13.3572 22.4407C13.3572 22.4401 13.3572 22.4394 13.3572 22.4387C13.3572 22.438 13.3572 22.4373 13.3572 22.4366C13.3572 22.4358 13.3572 22.4351 13.3572 22.4343C13.3572 22.4335 13.3572 22.4327 13.3572 22.4318C13.3572 22.431 13.3572 22.4301 13.3572 22.4292C13.3572 22.4284 13.3572 22.4274 13.3572 22.4265C13.3572 22.4255 13.3572 22.4246 13.3572 22.4236C13.3572 22.4226 13.3572 22.4216 13.3572 22.4205C13.3572 22.4195 13.3572 22.4184 13.3572 22.4173C13.3572 22.4162 13.3572 22.4151 13.3572 22.4139C13.3572 22.4128 13.3572 22.4116 13.3572 22.4104C13.3572 22.4092 13.3572 22.408 13.3572 22.4068C13.3572 22.4055 13.3572 22.4042 13.3572 22.4029C13.3572 22.4016 13.3572 22.4003 13.3572 22.399C13.3572 22.3976 13.3572 22.3963 13.3572 22.3949C13.3572 22.3935 13.3572 22.392 13.3572 22.3906C13.3572 22.3891 13.3572 22.3877 13.3572 22.3862C13.3572 22.3847 13.3572 22.3832 13.3572 22.3816C13.3572 22.3801 13.3572 22.3785 13.3572 22.3769C13.3572 22.3753 13.3572 22.3737 13.3572 22.372C13.3572 22.3704 13.3572 22.3687 13.3572 22.367C13.3572 22.3653 13.3572 22.3636 13.3572 22.3619C13.3572 22.3601 13.3572 22.3583 13.3572 22.3566C13.3572 22.3548 13.3572 22.3529 13.3572 22.3511C13.3572 22.3493 13.3572 22.3474 13.3572 22.3455C13.3572 22.3436 13.3572 22.3417 13.3572 22.3398C13.3572 22.3378 13.3572 22.3359 13.3572 22.3339C13.3572 22.3319 13.3572 22.3299 13.3572 22.3279C13.3572 22.3258 13.3572 22.3238 13.3572 22.3217C13.3572 22.3196 13.3572 22.3175 13.3572 22.3154C13.3572 22.3132 13.3572 22.3111 13.3572 22.3089C13.3572 22.3067 13.3572 22.3045 13.3572 22.3023C13.3572 22.3001 13.3572 22.2978 13.3572 22.2956C13.3572 22.2933 13.3572 22.291 13.3572 22.2887C13.3572 22.2864 13.3572 22.284 13.3572 22.2816C13.3572 22.2793 13.3572 22.2769 13.3572 22.2745C13.3572 22.2721 13.3572 22.2696 13.3572 22.2672C13.3572 22.2647 13.3572 22.2622 13.3572 22.2597C13.3572 22.2572 13.3572 22.2547 13.3572 22.2521C13.3572 22.2496 13.3572 22.247 13.3572 22.2444C13.3572 22.2418 13.3572 22.2392 13.3572 22.2365C13.3572 22.2339 13.3572 22.2312 13.3572 22.2285C13.3572 22.2258 13.3572 22.2231 13.3572 22.2204C13.3572 22.2176 13.3572 22.2149 13.3572 22.2121C13.3572 22.2093 13.3572 22.2065 13.3572 22.2037C13.3572 22.2008 13.3572 22.198 13.3572 22.1951C13.3572 22.1922 13.3572 22.1893 13.3572 22.1864C13.3572 22.1835 13.3572 22.1806 13.3572 22.1776C13.3572 22.1746 13.3572 22.1716 13.3572 22.1686C13.3572 22.1656 13.3572 22.1626 13.3572 22.1595C13.3572 22.1565 13.3572 22.1534 13.3572 22.1503C13.3572 22.1472 13.3572 22.1441 13.3572 22.1409C13.3572 22.1378 13.3572 22.1346 13.3572 22.1314C13.3572 22.1282 13.3572 22.125 13.3572 22.1218C13.3572 22.1186 13.3572 22.1153 13.3572 22.112C13.3572 22.1088 13.3572 22.1055 13.3572 22.1021C13.3572 22.0988 13.3572 22.0955 13.3572 22.0921C13.3572 22.0887 13.3572 22.0853 13.3572 22.0819C13.3572 22.0785 13.3572 22.0751 13.3572 22.0716C13.3572 22.0682 13.3572 22.0647 13.3572 22.0612C13.3572 22.0577 13.3572 22.0542 13.3572 22.0507C13.3572 22.0471 13.3572 22.0436 13.3572 22.04C13.3572 22.0364 13.3572 22.0328 13.3572 22.0292C13.3572 22.0255 13.3572 22.0219 13.3572 22.0182C13.3572 22.0145 13.3572 22.0109 13.3572 22.0071C13.3572 22.0034 13.3572 21.9997 13.3572 21.9959C13.3572 21.9922 13.3572 21.9884 13.3572 21.9846C13.3572 21.9808 13.3572 21.977 13.3572 21.9732C13.3572 21.9693 13.3572 21.9655 13.3572 21.9616C13.3572 21.9577 13.3572 21.9538 13.3572 21.9499C13.3572 21.9459 13.3572 21.942 13.3572 21.938C13.3572 21.9341 13.3572 21.9301 13.3572 21.9261C13.3572 21.9221 13.3572 21.918 13.3572 21.914C13.3572 21.9099 13.3572 21.9059 13.3572 21.9018C13.3572 21.8977 13.3572 21.8936 13.3572 21.8894C13.3572 21.8853 13.3572 21.8812 13.3572 21.877C13.3572 21.8728 13.3572 21.8686 13.3572 21.8644C13.3572 21.8602 13.3572 21.856 13.3572 21.8517C13.3572 21.8474 13.3572 21.8432 13.3572 21.8389C13.3572 21.8346 13.3572 21.8303 13.3572 21.8259C13.3572 21.8216 13.3572 21.8172 13.3572 21.8128C13.3572 21.8085 13.3572 21.8041 13.3572 21.7997C13.3572 21.7952 13.3572 21.7908 13.3572 21.7863C13.3572 21.7819 13.3572 21.7774 13.3572 21.7729C13.3572 21.7684 13.3572 21.7639 13.3572 21.7594C13.3572 21.7548 13.3572 21.7503 13.3572 21.7457C13.3572 21.7411 13.3572 21.7365 13.3572 21.7319C13.3572 21.7273 13.3572 21.7226 13.3572 21.718C13.3572 21.7133 13.3572 21.7086 13.3572 21.7039C13.3572 21.6992 13.3572 21.6945 13.3572 21.6898C13.3572 21.6851 13.3572 21.6803 13.3572 21.6755C13.3572 21.6708 13.3572 21.666 13.3572 21.6611C13.3572 21.6563 13.3572 21.6515 13.3572 21.6467C13.3572 21.6418 13.3572 21.6369 13.3572 21.632C13.3572 21.6271 13.3572 21.6222 13.3572 21.6173C13.3572 21.6124 13.3572 21.6074 13.3572 21.6025C13.3572 21.5975 13.3572 21.5925 13.3572 21.5875C13.3572 21.5825 13.3572 21.5775 13.3572 21.5724C13.3572 21.5674 13.3572 21.5623 13.3572 21.5572C13.3572 21.5521 13.3572 21.547 13.3572 21.5419C13.3572 21.5368 13.3572 21.5317 13.3572 21.5265C13.3572 21.5214 13.3572 21.5162 13.3572 21.511C13.3572 21.5058 13.3572 21.5006 13.3572 21.4953C13.3572 21.4901 13.3572 21.4849 13.3572 21.4796C13.3572 21.4743 13.3572 21.469 13.3572 21.4637C13.3572 21.4584 13.3572 21.4531 13.3572 21.4477C13.3572 21.4424 13.3572 21.437 13.3572 21.4317C13.3572 21.4263 13.3572 21.4209 13.3572 21.4155C13.3572 21.41 13.3572 21.4046 13.3572 21.3992C13.3572 21.3937 13.3572 21.3882 13.3572 21.3827C13.3572 21.3772 13.3572 21.3717 13.3572 21.3662C13.3572 21.3607 13.3572 21.3551 13.3572 21.3496C13.3572 21.344 13.3572 21.3384 13.3572 21.3328C13.3572 21.3272 13.3572 21.3216 13.3572 21.316C13.3572 21.3103 13.3572 21.3047 13.3572 21.299C13.3572 21.2934 13.3572 21.2877 13.3572 21.282C13.3572 21.2763 13.3572 21.2705 13.3572 21.2648C13.3572 21.2591 13.3572 21.2533 13.3572 21.2475C13.3572 21.2417 13.3572 21.2359 13.3572 21.2301C13.3572 21.2243 13.3572 21.2185 13.3572 21.2127C13.3572 21.2068 13.3572 21.2009 13.3572 21.1951C13.3572 21.1892 13.3572 21.1833 13.3572 21.1774C13.3572 21.1714 13.3572 21.1655 13.3572 21.1596C13.3572 21.1536 13.3572 21.1476 13.3572 21.1417C13.3572 21.1357 13.3572 21.1297 13.3572 21.1237C13.3572 21.1176 13.3572 21.1116 13.3572 21.1056C13.3572 21.0995 13.3572 21.0934 13.3572 21.0873C13.3572 21.0813 13.3572 21.0751 13.3572 21.069C13.3572 21.0629 13.3572 21.0568 13.3572 21.0506C13.3572 21.0445 13.3572 21.0383 13.3572 21.0321C13.3572 21.0259 13.3572 21.0197 13.3572 21.0135C13.3572 21.0073 13.3572 21.001 13.3572 20.9948C13.3572 20.9885 13.3572 20.9823 13.3572 20.976C13.3572 20.9697 13.3572 20.9634 13.3572 20.9571C13.3572 20.9507 13.3572 20.9444 13.3572 20.938C13.3572 20.9317 13.3572 20.9253 13.3572 20.9189C13.3572 20.9125 13.3572 20.9061 13.3572 20.8997C13.3572 20.8933 13.3572 20.8869 13.3572 20.8804C13.3572 20.874 13.3572 20.8675 13.3572 20.861C13.3572 20.8545 13.3572 20.848 13.3572 20.8415C13.3572 20.835 13.3572 20.8285 13.3572 20.8219C13.3572 20.8154 13.3572 20.8088 13.3572 20.8022C13.3572 20.7957 13.3572 20.7891 13.3572 20.7825C13.3572 20.7758 13.3572 20.7692 13.3572 20.7626C13.3572 20.7559 13.3572 20.7493 13.3572 20.7426C13.3572 20.7359 13.3572 20.7292 13.3572 20.7225C13.3572 20.7158 13.3572 20.7091 13.3572 20.7024C13.3572 20.6956 13.3572 20.6889 13.3572 20.6821C13.3572 20.6753 13.3572 20.6686 13.3572 20.6618C13.3572 20.655 13.3572 20.6482 13.3572 20.6413C13.3572 20.6345 13.3572 20.6277 13.3572 20.6208C13.3572 20.6139 13.3572 20.6071 13.3572 20.6002C13.3572 20.5933 13.3572 20.5864 13.3572 20.5795C13.3572 20.5725 13.3572 20.5656 13.3572 20.5587C13.3572 20.5517 13.3572 20.5447 13.3572 20.5378C13.3572 20.5308 13.3572 20.5238 13.3572 20.5168C13.3572 20.5098 13.3572 20.5027 13.3572 20.4957C13.3572 20.4887 13.3572 20.4816 13.3572 20.4745C13.3572 20.4675 13.3572 20.4604 13.3572 20.4533C13.3572 20.4462 13.3572 20.4391 13.3572 20.432C13.3572 20.4248 13.3572 20.4177 13.3572 20.4105C13.3572 20.4034 13.3572 20.3962 13.3572 20.389C13.3572 20.3818 13.3572 20.3746 13.3572 20.3674C13.3572 20.3602 13.3572 20.353 13.3572 20.3457C13.3572 20.3385 13.3572 20.3312 13.3572 20.324C13.3572 20.3167 13.3572 20.3094 13.3572 20.3021C13.3572 20.2948 13.3572 20.2875 13.3572 20.2802C13.3572 20.2728 13.3572 20.2655 13.3572 20.2581C13.3572 20.2508 13.3572 20.2434 13.3572 20.236C13.3572 20.2286 13.3572 20.2212 13.3572 20.2138C13.3572 20.2064 13.3572 20.199 13.3572 20.1915C13.3572 20.1841 13.3572 20.1767 13.3572 20.1692C13.3572 20.1617 13.3572 20.1542 13.3572 20.1467C13.3572 20.1392 13.3572 20.1317 13.3572 20.1242C13.3572 20.1167 13.3572 20.1092 13.3572 20.1016C13.3572 20.0941 13.3572 20.0865 13.3572 20.0789C13.3572 20.0713 13.3572 20.0638 13.3572 20.0562C13.3572 20.0486 13.3572 20.0409 13.3572 20.0333C13.3572 20.0257 13.3572 20.018 13.3572 20.0104C13.3572 20.0027 13.3572 19.9951 13.3572 19.9874C13.3572 19.9797 13.3572 19.972 13.3572 19.9643C13.3572 19.9566 13.3572 19.9489 13.3572 19.9411C13.3572 19.9334 13.3572 19.9256 13.3572 19.9179C13.3572 19.9101 13.3572 19.9023 13.3572 19.8946C13.3572 19.8868 13.3572 19.879 13.3572 19.8712C13.3572 19.8633 13.3572 19.8555 13.3572 19.8477C13.3572 19.8398 13.3572 19.832 13.3572 19.8241C13.3572 19.8163 13.3572 19.8084 13.3572 19.8005C13.3572 19.7926 13.3572 19.7847 13.3572 19.7768C13.3572 19.7689 13.3572 19.761 13.3572 19.753C13.3572 19.7451 13.3572 19.7371 13.3572 19.7292C13.3572 19.7212 13.3572 19.7132 13.3572 19.7052C13.3572 19.6973 13.3572 19.6892 13.3572 19.6812C13.3572 19.6732 13.3572 19.6652 13.3572 19.6572C13.3572 19.6491 13.3572 19.6411 13.3572 19.633C13.3572 19.625 13.3572 19.6169 13.3572 19.6088C13.3572 19.6007 13.3572 19.5926 13.3572 19.5845C13.3572 19.5764 13.3572 19.5683 13.3572 19.5601C13.3572 19.552 13.3572 19.5439 13.3572 19.5357C13.3572 19.5275 13.3572 19.5194 13.3572 19.5112C13.3572 19.503 13.3572 19.4948 13.3572 19.4866C13.3572 19.4784 13.3572 19.4702 13.3572 19.462C13.3572 19.4537 13.3572 19.4455 13.3572 19.4373C13.3572 19.429 13.3572 19.4207 13.3572 19.4125C13.3572 19.4042 13.3572 19.3959 13.3572 19.3876C13.3572 19.3793 13.3572 19.371 13.3572 19.3627C13.3572 19.3544 13.3572 19.346 13.3572 19.3377C13.3572 19.3294 13.3572 19.321 13.3572 19.3126C13.3572 19.3043 13.3572 19.2959 13.3572 19.2875C13.3572 19.2791 13.3572 19.2707 13.3572 19.2623C13.3572 19.2539 13.3572 19.2455 13.3572 19.2371C13.3572 19.2286 13.3572 19.2202 13.3572 19.2118C13.3572 19.2033 13.3572 19.1948 13.3572 19.1864C13.3572 19.1779 13.3572 19.1694 13.3572 19.1609C13.3572 19.1524 13.3572 19.1439 13.3572 19.1354C13.3572 19.1269 13.3572 19.1183 13.3572 19.1098C13.3572 19.1013 13.3572 19.0927 13.3572 19.0842C13.3572 19.0756 13.3572 19.067 13.3572 19.0585C13.3572 19.0499 13.3572 19.0413 13.3572 19.0327C13.3572 19.0241 13.3572 19.0155 13.3572 19.0069C13.3572 18.9982 13.3572 18.9896 13.3572 18.981C13.3572 18.9723 13.3572 18.9637 13.3572 18.955C13.3572 18.9463 13.3572 18.9377 13.3572 18.929C13.3572 18.9203 13.3572 18.9116 13.3572 18.9029C13.3572 18.8942 13.3572 18.8855 13.3572 18.8768C13.3572 18.868 13.3572 18.8593 13.3572 18.8506C13.3572 18.8418 13.3572 18.8331 13.3572 18.8243C13.3572 18.8155 13.3572 18.8068 13.3572 18.798C13.3572 18.7892 13.3572 18.7804 13.3572 18.7716C13.3572 18.7628 13.3572 18.754 13.3572 18.7452C13.3572 18.7364 13.3572 18.7275 13.3572 18.7187C13.3572 18.7099 13.3572 18.701 13.3572 18.6921C13.3572 18.6833 13.3572 18.6744 13.3572 18.6655C13.3572 18.6567 13.3572 18.6478 13.3572 18.6389C13.3572 18.63 13.3572 18.6211 13.3572 18.6122C13.3572 18.6032 13.3572 18.5943 13.3572 18.5854C13.3572 18.5765 13.3572 18.5675 13.3572 18.5586C13.3572 18.5496 13.3572 18.5407 13.3572 18.5317C13.3572 18.5227 13.3572 18.5137 13.3572 18.5047C13.3572 18.4958 13.3572 18.4868 13.3572 18.4778C13.3572 18.4688 13.3572 18.4597 13.3572 18.4507C13.3572 18.4417 13.3572 18.4327 13.3572 18.4236C13.3572 18.4146 13.3572 18.4055 13.3572 18.3965C13.3572 18.3874 13.3572 18.3783 13.3572 18.3693C13.3572 18.3602 13.3572 18.3511 13.3572 18.342C13.3572 18.3329 13.3572 18.3238 13.3572 18.3147C13.3572 18.3056 13.3572 18.2965 13.3572 18.2874C13.3572 18.2782 13.3572 18.2691 13.3572 18.26C13.3572 18.2508 13.3572 18.2417 13.3572 18.2325C13.3572 18.2233 13.3572 18.2142 13.3572 18.205C13.3572 18.1958 13.3572 18.1866 13.3572 18.1774C13.3572 18.1683 13.3572 18.159 13.3572 18.1498C13.3572 18.1406 13.3572 18.1314 13.3572 18.1222C13.3572 18.113 13.3572 18.1037 13.3572 18.0945C13.3572 18.0853 13.3572 18.076 13.3572 18.0668C13.3572 18.0575 13.3572 18.0482 13.3572 18.039C13.3572 18.0297 13.3572 18.0204 13.3572 18.0111C13.3572 18.0018 13.3572 17.9925 13.3572 17.9832C13.3572 17.9739 13.3572 17.9646 13.3572 17.9553C13.3572 17.946 13.3572 17.9367 13.3572 17.9273C13.3572 17.918 13.3572 17.9087 13.3572 17.8993C13.3572 17.89 13.3572 17.8806 13.3572 17.8712C13.3572 17.8619 13.3572 17.8525 13.3572 17.8431C13.3572 17.8338 13.3572 17.8244 13.3572 17.815C13.3572 17.8056 13.3572 17.7962 13.3572 17.7868C13.3572 17.7774 13.3572 17.768 13.3572 17.7586C13.3572 17.7491 13.3572 17.7397 13.3572 17.7303C13.3572 17.7208 13.3572 17.7114 13.3572 17.702C13.3572 17.6925 13.3572 17.6831 13.3572 17.6736C13.3572 17.6641 13.3572 17.6547 13.3572 17.6452C13.3572 17.6357 13.3572 17.6262 13.3572 17.6167C13.3572 17.6073 13.3572 17.5978 13.3572 17.5883C13.3572 17.5788 13.3572 17.5693 13.3572 17.5597C13.3572 17.5502 13.3572 17.5407 13.3572 17.5312C13.3572 17.5216 13.3572 17.5121 13.3572 17.5026C13.3572 17.493 13.3572 17.4835 13.3572 17.4739C13.3572 17.4644 13.3572 17.4548 13.3572 17.4453C13.3572 17.4357 13.3572 17.4261 13.3572 17.4165C13.3572 17.407 13.3572 17.3974 13.3572 17.3878C13.3572 17.3782 13.3572 17.3686 13.3572 17.359C13.3572 17.3494 13.3572 17.3398 13.3572 17.3302C13.3572 17.3206 13.3572 17.3109 13.3572 17.3013C13.3572 17.2917 13.3572 17.2821 13.3572 17.2724C13.3572 17.2628 13.3572 17.2531 13.3572 17.2435C13.3572 17.2338 13.3572 17.2242 13.3572 17.2145C13.3572 17.2049 13.3572 17.1952 13.3572 17.1855C13.3572 17.1758 13.3572 17.1662 13.3572 17.1565C13.3572 17.1468 13.3572 17.1371 13.3572 17.1274C13.3572 17.1177 13.3572 17.108 13.3572 17.0983C13.3572 17.0886 13.3572 17.0789 13.3572 17.0692C13.3572 17.0595 13.3572 17.0498 13.3572 17.04C13.3572 17.0303 13.3572 17.0206 13.3572 17.0108C13.3572 17.0011 13.3572 16.9913 13.3572 16.9816C13.3572 16.9719 13.3572 16.9621 13.3572 16.9523C13.3572 16.9426 13.3572 16.9328 13.3572 16.9231C13.3572 16.9133 13.3572 16.9035 13.3572 16.8937C13.3572 16.884 13.3572 16.8742 13.3572 16.8644C13.3572 16.8546 13.3572 16.8448 13.3572 16.835C13.3572 16.8252 13.3572 16.8154 13.3572 16.8056C13.3572 16.7958 13.3572 16.786 13.3572 16.7762C13.3572 16.7664 13.3572 16.7565 13.3572 16.7467C13.3572 16.7369 13.3572 16.7271 13.3572 16.7172C13.3572 16.7074 13.3572 16.6976 13.3572 16.6877C13.3572 16.6779 13.3572 16.668 13.3572 16.6582C13.3572 16.6483 13.3572 16.6385 13.3572 16.6286C13.3572 16.6188 13.3572 16.6089 13.3572 16.599C13.3572 16.5892 13.3572 16.5793 13.3572 16.5694C13.3572 16.5595 13.3572 16.5497 13.3572 16.5398C13.3572 16.5299 13.3572 16.52 13.3572 16.5101C13.3572 16.5002 13.3572 16.4903 13.3572 16.4804C13.3572 16.4705 13.3572 16.4606 13.3572 16.4507C13.3572 16.4408 13.3572 16.4309 13.3572 16.421C13.3572 16.411 13.3572 16.4011 13.3572 16.3912C13.3572 16.3813 13.3572 16.3714 13.3572 16.3614C13.3572 16.3515 13.3572 16.3416 13.3572 16.3316C13.3572 16.3217 13.3572 16.3117 13.3572 16.3018C13.3572 16.2919 13.3572 16.2819 13.3572 16.272C13.3572 16.262 13.3572 16.252 13.3572 16.2421C13.3572 16.2321 13.3572 16.2222 13.3572 16.2122C13.3572 16.2022 13.3572 16.1923 13.3572 16.1823C13.3572 16.1723 13.3572 16.1624 13.3572 16.1524C13.3572 16.1424 13.3572 16.1324 13.3572 16.1224C13.3572 16.1125 13.3572 16.1025 13.3572 16.0925C13.3572 16.0825 13.3572 16.0725 13.3572 16.0625C13.3572 16.0525 13.3572 16.0425 13.3572 16.0325C13.3572 16.0225 13.3572 16.0125 13.3572 16.0025C13.3572 15.9925 13.3572 15.9825 13.3572 15.9725C13.3572 15.9624 13.3572 15.9524 13.3572 15.9424C13.3572 15.9324 13.3572 15.9224 13.3572 15.9124C13.3572 15.9023 13.3572 15.8923 13.3572 15.8823C13.3572 15.8723 13.3572 15.8622 13.3572 15.8522C13.3572 15.8422 13.3572 15.8321 13.3572 15.8221C13.3572 15.812 13.3572 15.802 13.3572 15.792C13.3572 15.7819 13.3572 15.7719 13.3572 15.7618C13.3572 15.7518 13.3572 15.7417 13.3572 15.7317C13.3572 15.7216 13.3572 15.7116 13.3572 15.7015C13.3572 15.6915 13.3572 15.6814 13.3572 15.6714C13.3572 15.6613 13.3572 15.6512 13.3572 15.6412C13.3572 15.6311 13.3572 15.621 13.3572 15.611C13.3572 15.6009 13.3572 15.5908 13.3572 15.5808C13.3572 15.5707 13.3572 15.5606 13.3572 15.5506C13.3572 15.5405 13.3572 15.5304 13.3572 15.5203C13.3572 15.5103 13.3572 15.5002 13.3572 15.4901C13.3572 15.48 13.3572 15.4699 13.3572 15.4599C13.3572 15.4498 13.3572 15.4397 13.3572 15.4296C13.3572 15.4195 13.3572 15.4094 13.3572 15.3993C13.3572 15.3892 13.3572 15.3792 13.3572 15.3691C13.3572 15.359 13.3572 15.3489 13.3572 15.3388C13.3572 15.3287 13.3572 15.3186 13.3572 15.3085C13.3572 15.2984 13.3572 15.2883 13.3572 15.2782C13.3572 15.2681 13.3572 15.258 13.3572 15.2479C13.3572 15.2378 13.3572 15.2277 13.3572 15.2176C13.3572 15.2075 13.3572 15.1974 13.3572 15.1873C13.3572 15.1772 13.3572 15.1671 13.3572 15.157C13.3572 15.1469 13.3572 15.1368 13.3572 15.1267C13.3572 15.1166 13.3572 15.1065 13.3572 15.0963C13.3572 15.0862 13.3572 15.0761 13.3572 15.066C13.3572 15.0559 13.3572 15.0458 13.3572 15.0357C13.3572 15.0256 13.3572 15.0155 13.3572 15.0054C13.3572 14.9953 13.3572 14.9851 13.3572 14.975C13.3572 14.9649 13.3572 14.9548 13.3572 14.9447C13.3572 14.9346 13.3572 14.9245 13.3572 14.9144C13.3572 14.9042 13.3572 14.8941 13.3572 14.884C13.3572 14.8739 13.3572 14.8638 13.3572 14.8537C13.3572 14.8436 13.3572 14.8334 13.3572 14.8233C13.3572 14.8132 13.3572 14.8031 13.3572 14.793C13.3572 14.7829 13.3572 14.7728 13.3572 14.7627C13.3572 14.7525 13.3572 14.7424 13.3572 14.7323C13.3572 14.7222 13.3572 14.7121 13.3572 14.702C13.3572 14.6919 13.3572 14.6818 13.3572 14.6716C13.3572 14.6615 13.3572 14.6514 13.3572 14.6413C13.3572 14.6312 13.3572 14.6211 13.3572 14.611C13.3572 14.6009 13.3572 14.5908 13.3572 14.5806C13.3572 14.5705 13.3572 14.5604 13.3572 14.5503C13.3572 14.5402 13.3572 14.5301 13.3572 14.52C13.3572 14.5099 13.3572 14.4998 13.3572 14.4897C13.3572 14.4796 13.3572 14.4695 13.3572 14.4594C13.3572 14.4493 13.3572 14.4392 13.3572 14.4291C13.3572 14.419 13.3572 14.4089 13.3572 14.3988C13.3572 14.3887 13.3572 14.3786 13.3572 14.3685C13.3572 14.3584 13.3572 14.3483 13.3572 14.3382C13.3572 14.3281 13.3572 14.318 13.3572 14.3079C13.3572 14.2978 13.3572 14.2877 13.3572 14.2776C13.3572 14.2675 13.3572 14.2575 13.3572 14.2474C13.3572 14.2373 13.3572 14.2272 13.3572 14.2171C13.3572 14.207 13.3572 14.197 13.3572 14.1869C13.3572 14.1768 13.3572 14.1667 13.3572 14.1566C13.3572 14.1466 13.3572 14.1365 13.3572 14.1264C13.3572 14.1163 13.3572 14.1063 13.3572 14.0962C13.3572 14.0861 13.3572 14.076 13.3572 14.066C13.3572 14.0559 13.3572 14.0458 13.3572 14.0358C13.3572 14.0257 13.3572 14.0156 13.3572 14.0056C13.3572 13.9955 13.3572 13.9855 13.3572 13.9754C13.3572 13.9654 13.3572 13.9553 13.3572 13.9453C13.3572 13.9352 13.3572 13.9251 13.3572 13.9151C13.3572 13.9051 13.3572 13.895 13.3572 13.885C13.3572 13.8749 13.3572 13.8649 13.3572 13.8548C13.3572 13.8448 13.3572 13.8348 13.3572 13.8247C13.3572 13.8147 13.3572 13.8047 13.3572 13.7946C13.3572 13.7846 13.3572 13.7746 13.3572 13.7646C13.3572 13.7545 13.3572 13.7445 13.3572 13.7345C13.3572 13.7245 13.3572 13.7144 13.3572 13.7044C13.3572 13.6944 13.3572 13.6844 13.3572 13.6744C13.3572 13.6644 13.3572 13.6544 13.3572 13.6444C13.3572 13.6344 13.3572 13.6244 13.3572 13.6144C13.3572 13.6044 13.3572 13.5944 13.3572 13.5844C13.3572 13.5744 13.3572 13.5644 13.3572 13.5544C13.3572 13.5444 13.3572 13.5345 13.3572 13.5245C13.3572 13.5145 13.3572 13.5045 13.3572 13.4946C13.3572 13.4846 13.3572 13.4746 13.3572 13.4646C13.3572 13.4547 13.3572 13.4447 13.3572 13.4347C13.3572 13.4248 13.3572 13.4148 13.3572 13.4049C13.3572 13.3949 13.3572 13.385 13.3572 13.375C13.3572 13.3651 13.3572 13.3551 13.3572 13.3452C13.3572 13.3353 13.3572 13.3253 13.3572 13.3154C13.3572 13.3055 13.3572 13.2955 13.3572 13.2856C13.3572 13.2757 13.3572 13.2657 13.3572 13.2558C13.3572 13.2459 13.3572 13.236 13.3572 13.2261C13.3572 13.2162 13.3572 13.2063 13.3572 13.1964C13.3572 13.1865 13.3572 13.1766 13.3572 13.1667C13.3572 13.1568 13.3572 13.1469 13.3572 13.137C13.3572 13.1271 13.3572 13.1172 13.3572 13.1073C13.3572 13.0975 13.3572 13.0876 13.3572 13.0777C13.3572 13.0678 13.3572 13.058 13.3572 13.0481C13.3572 13.0383 13.3572 13.0284 13.3572 13.0185C13.3572 13.0087 13.3572 12.9988 13.3572 12.989C13.3572 12.9791 13.3572 12.9693 13.3572 12.9595C13.3572 12.9496 13.3572 12.9398 13.3572 12.93C13.3572 12.9201 13.3572 12.9103 13.3572 12.9005C13.3572 12.8907 13.3572 12.8809 13.3572 12.8711C13.3572 12.8612 13.3572 12.8514 13.3572 12.8416C13.3572 12.8318 13.3572 12.822 13.3572 12.8123C13.3572 12.8025 13.3572 12.7927 13.3572 12.7829C13.3572 12.7731 13.3572 12.7633 13.3572 12.7536C13.3572 12.7438 13.3572 12.734 13.3572 12.7243C13.3572 12.7145 13.3572 12.7048 13.3572 12.695C13.3572 12.6853 13.3572 12.6755 13.3572 12.6658C13.3572 12.656 13.3572 12.6463 13.3572 12.6366C13.3572 12.6268 13.3572 12.6171 13.3572 12.6074C13.3572 12.5977 13.3572 12.588 13.3572 12.5782C13.3572 12.5685 13.3572 12.5588 13.3572 12.5491C13.3572 12.5394 13.3572 12.5297 13.3572 12.5201C13.3572 12.5104 13.3572 12.5007 13.3572 12.491C13.3572 12.4813 13.3572 12.4717 13.3572 12.462C13.3572 12.4523 13.3572 12.4427 13.3572 12.433C13.3572 12.4234 13.3572 12.4137 13.3572 12.4041C13.3572 12.3944 13.3572 12.3848 13.3572 12.3752C13.3572 12.3655 13.3572 12.3559 13.3572 12.3463C13.3572 12.3367 13.3572 12.3271 13.3572 12.3175C13.3572 12.3078 13.3572 12.2982 13.3572 12.2887C13.3572 12.2791 13.3572 12.2695 13.3572 12.2599C13.3572 12.2503 13.3572 12.2407 13.3572 12.2312C13.3572 12.2216 13.3572 12.212 13.3572 12.2025C13.3572 12.1929 13.3572 12.1834 13.3572 12.1738C13.3572 12.1643 13.3572 12.1547 13.3572 12.1452C13.3572 12.1357 13.3572 12.1261 13.3572 12.1166C13.3572 12.1071 13.3572 12.0976 13.3572 12.0881C13.3572 12.0786 13.3572 12.0691 13.3572 12.0596C13.3572 12.0501 13.3572 12.0406 13.3572 12.0311C13.3572 12.0216 13.3572 12.0122 13.3572 12.0027C13.3572 11.9932 13.3572 11.9838 13.3572 11.9743C13.3572 11.9649 13.3572 11.9554 13.3572 11.946C13.3572 11.9366 13.3572 11.9271 13.3572 11.9177C13.3572 11.9083 13.3572 11.8989 13.3572 11.8894C13.3572 11.88 13.3572 11.8706 13.3572 11.8612C13.3572 11.8518 13.3572 11.8425 13.3572 11.8331C13.3572 11.8237 13.3572 11.8143 13.3572 11.8049C13.3572 11.7956 13.3572 11.7862 13.3572 11.7769C13.3572 11.7675 13.3572 11.7582 13.3572 11.7488C13.3572 11.7395 13.3572 11.7302 13.3572 11.7208C13.3572 11.7115 13.3572 11.7022 13.3572 11.6929C13.3572 11.6836 13.3572 11.6743 13.3572 11.665C13.3572 11.6557 13.3572 11.6464 13.3572 11.6371C13.3572 11.6279 13.3572 11.6186 13.3572 11.6093C13.3572 11.6001 13.3572 11.5908 13.3572 11.5816C13.3572 11.5723 13.3572 11.5631 13.3572 11.5539C13.3572 11.5446 13.3572 11.5354 13.3572 11.5262C13.3572 11.517 13.3572 11.5078 13.3572 11.4986C13.3572 11.4894 13.3572 11.4802 13.3572 11.471C13.3572 11.4618 13.3572 11.4526 13.3572 11.4435C13.3572 11.4343 13.3572 11.4252 13.3572 11.416C13.3572 11.4069 13.3572 11.3977 13.3572 11.3886C13.3572 11.3795 13.3572 11.3703 13.3572 11.3612C13.3572 11.3521 13.3572 11.343 13.3572 11.3339C13.3572 11.3248 13.3572 11.3157 13.3572 11.3066C13.3572 11.2975 13.3572 11.2885 13.3572 11.2794C13.3572 11.2703 13.3572 11.2613 13.3572 11.2522C13.3572 11.2432 13.3572 11.2341 13.3572 11.2251C13.3572 11.2161 13.3572 11.2071 13.3572 11.1981C13.3572 11.189 13.3572 11.18 13.3572 11.171C13.3572 11.1621 13.3572 11.1531 13.3572 11.1441C13.3572 11.1351 13.3572 11.1261 13.3572 11.1172C13.3572 11.1082 13.3572 11.0993 13.3572 11.0903C13.3572 11.0814 13.3572 11.0725 13.3572 11.0636C13.3572 11.0546 13.3572 11.0457 13.3572 11.0368C13.3572 11.0279 13.3572 11.019 13.3572 11.0101C13.3572 11.0013 13.3572 10.9924 13.3572 10.9835C13.3572 10.9746 13.3572 10.9658 13.3572 10.9569C13.3572 10.9481 13.3572 10.9393 13.3572 10.9304C13.3572 10.9216 13.3572 10.9128 13.3572 10.904H12.3572C12.3572 10.9128 12.3572 10.9216 12.3572 10.9304C12.3572 10.9393 12.3572 10.9481 12.3572 10.9569C12.3572 10.9658 12.3572 10.9746 12.3572 10.9835C12.3572 10.9924 12.3572 11.0013 12.3572 11.0101C12.3572 11.019 12.3572 11.0279 12.3572 11.0368C12.3572 11.0457 12.3572 11.0546 12.3572 11.0636C12.3572 11.0725 12.3572 11.0814 12.3572 11.0903C12.3572 11.0993 12.3572 11.1082 12.3572 11.1172C12.3572 11.1261 12.3572 11.1351 12.3572 11.1441C12.3572 11.1531 12.3572 11.1621 12.3572 11.171C12.3572 11.18 12.3572 11.189 12.3572 11.1981C12.3572 11.2071 12.3572 11.2161 12.3572 11.2251C12.3572 11.2341 12.3572 11.2432 12.3572 11.2522C12.3572 11.2613 12.3572 11.2703 12.3572 11.2794C12.3572 11.2885 12.3572 11.2975 12.3572 11.3066C12.3572 11.3157 12.3572 11.3248 12.3572 11.3339C12.3572 11.343 12.3572 11.3521 12.3572 11.3612C12.3572 11.3703 12.3572 11.3795 12.3572 11.3886C12.3572 11.3977 12.3572 11.4069 12.3572 11.416C12.3572 11.4252 12.3572 11.4343 12.3572 11.4435C12.3572 11.4526 12.3572 11.4618 12.3572 11.471C12.3572 11.4802 12.3572 11.4894 12.3572 11.4986C12.3572 11.5078 12.3572 11.517 12.3572 11.5262C12.3572 11.5354 12.3572 11.5446 12.3572 11.5539C12.3572 11.5631 12.3572 11.5723 12.3572 11.5816C12.3572 11.5908 12.3572 11.6001 12.3572 11.6093C12.3572 11.6186 12.3572 11.6279 12.3572 11.6371C12.3572 11.6464 12.3572 11.6557 12.3572 11.665C12.3572 11.6743 12.3572 11.6836 12.3572 11.6929C12.3572 11.7022 12.3572 11.7115 12.3572 11.7208C12.3572 11.7302 12.3572 11.7395 12.3572 11.7488C12.3572 11.7582 12.3572 11.7675 12.3572 11.7769C12.3572 11.7862 12.3572 11.7956 12.3572 11.8049C12.3572 11.8143 12.3572 11.8237 12.3572 11.8331C12.3572 11.8425 12.3572 11.8518 12.3572 11.8612C12.3572 11.8706 12.3572 11.88 12.3572 11.8894C12.3572 11.8989 12.3572 11.9083 12.3572 11.9177C12.3572 11.9271 12.3572 11.9366 12.3572 11.946C12.3572 11.9554 12.3572 11.9649 12.3572 11.9743C12.3572 11.9838 12.3572 11.9932 12.3572 12.0027C12.3572 12.0122 12.3572 12.0216 12.3572 12.0311C12.3572 12.0406 12.3572 12.0501 12.3572 12.0596C12.3572 12.0691 12.3572 12.0786 12.3572 12.0881C12.3572 12.0976 12.3572 12.1071 12.3572 12.1166C12.3572 12.1261 12.3572 12.1357 12.3572 12.1452C12.3572 12.1547 12.3572 12.1643 12.3572 12.1738C12.3572 12.1834 12.3572 12.1929 12.3572 12.2025C12.3572 12.212 12.3572 12.2216 12.3572 12.2312C12.3572 12.2407 12.3572 12.2503 12.3572 12.2599C12.3572 12.2695 12.3572 12.2791 12.3572 12.2887C12.3572 12.2982 12.3572 12.3078 12.3572 12.3175C12.3572 12.3271 12.3572 12.3367 12.3572 12.3463C12.3572 12.3559 12.3572 12.3655 12.3572 12.3752C12.3572 12.3848 12.3572 12.3944 12.3572 12.4041C12.3572 12.4137 12.3572 12.4234 12.3572 12.433C12.3572 12.4427 12.3572 12.4523 12.3572 12.462C12.3572 12.4717 12.3572 12.4813 12.3572 12.491C12.3572 12.5007 12.3572 12.5104 12.3572 12.5201C12.3572 12.5297 12.3572 12.5394 12.3572 12.5491C12.3572 12.5588 12.3572 12.5685 12.3572 12.5782C12.3572 12.588 12.3572 12.5977 12.3572 12.6074C12.3572 12.6171 12.3572 12.6268 12.3572 12.6366C12.3572 12.6463 12.3572 12.656 12.3572 12.6658C12.3572 12.6755 12.3572 12.6853 12.3572 12.695C12.3572 12.7048 12.3572 12.7145 12.3572 12.7243C12.3572 12.734 12.3572 12.7438 12.3572 12.7536C12.3572 12.7633 12.3572 12.7731 12.3572 12.7829C12.3572 12.7927 12.3572 12.8025 12.3572 12.8123C12.3572 12.822 12.3572 12.8318 12.3572 12.8416C12.3572 12.8514 12.3572 12.8612 12.3572 12.8711C12.3572 12.8809 12.3572 12.8907 12.3572 12.9005C12.3572 12.9103 12.3572 12.9201 12.3572 12.93C12.3572 12.9398 12.3572 12.9496 12.3572 12.9595C12.3572 12.9693 12.3572 12.9791 12.3572 12.989C12.3572 12.9988 12.3572 13.0087 12.3572 13.0185C12.3572 13.0284 12.3572 13.0383 12.3572 13.0481C12.3572 13.058 12.3572 13.0678 12.3572 13.0777C12.3572 13.0876 12.3572 13.0975 12.3572 13.1073C12.3572 13.1172 12.3572 13.1271 12.3572 13.137C12.3572 13.1469 12.3572 13.1568 12.3572 13.1667C12.3572 13.1766 12.3572 13.1865 12.3572 13.1964C12.3572 13.2063 12.3572 13.2162 12.3572 13.2261C12.3572 13.236 12.3572 13.2459 12.3572 13.2558C12.3572 13.2657 12.3572 13.2757 12.3572 13.2856C12.3572 13.2955 12.3572 13.3055 12.3572 13.3154C12.3572 13.3253 12.3572 13.3353 12.3572 13.3452C12.3572 13.3551 12.3572 13.3651 12.3572 13.375C12.3572 13.385 12.3572 13.3949 12.3572 13.4049C12.3572 13.4148 12.3572 13.4248 12.3572 13.4347C12.3572 13.4447 12.3572 13.4547 12.3572 13.4646C12.3572 13.4746 12.3572 13.4846 12.3572 13.4946C12.3572 13.5045 12.3572 13.5145 12.3572 13.5245C12.3572 13.5345 12.3572 13.5444 12.3572 13.5544C12.3572 13.5644 12.3572 13.5744 12.3572 13.5844C12.3572 13.5944 12.3572 13.6044 12.3572 13.6144C12.3572 13.6244 12.3572 13.6344 12.3572 13.6444C12.3572 13.6544 12.3572 13.6644 12.3572 13.6744C12.3572 13.6844 12.3572 13.6944 12.3572 13.7044C12.3572 13.7144 12.3572 13.7245 12.3572 13.7345C12.3572 13.7445 12.3572 13.7545 12.3572 13.7646C12.3572 13.7746 12.3572 13.7846 12.3572 13.7946C12.3572 13.8047 12.3572 13.8147 12.3572 13.8247C12.3572 13.8348 12.3572 13.8448 12.3572 13.8548C12.3572 13.8649 12.3572 13.8749 12.3572 13.885C12.3572 13.895 12.3572 13.9051 12.3572 13.9151C12.3572 13.9251 12.3572 13.9352 12.3572 13.9453C12.3572 13.9553 12.3572 13.9654 12.3572 13.9754C12.3572 13.9855 12.3572 13.9955 12.3572 14.0056C12.3572 14.0156 12.3572 14.0257 12.3572 14.0358C12.3572 14.0458 12.3572 14.0559 12.3572 14.066C12.3572 14.076 12.3572 14.0861 12.3572 14.0962C12.3572 14.1063 12.3572 14.1163 12.3572 14.1264C12.3572 14.1365 12.3572 14.1466 12.3572 14.1566C12.3572 14.1667 12.3572 14.1768 12.3572 14.1869C12.3572 14.197 12.3572 14.207 12.3572 14.2171C12.3572 14.2272 12.3572 14.2373 12.3572 14.2474C12.3572 14.2575 12.3572 14.2675 12.3572 14.2776C12.3572 14.2877 12.3572 14.2978 12.3572 14.3079C12.3572 14.318 12.3572 14.3281 12.3572 14.3382C12.3572 14.3483 12.3572 14.3584 12.3572 14.3685C12.3572 14.3786 12.3572 14.3887 12.3572 14.3988C12.3572 14.4089 12.3572 14.419 12.3572 14.4291C12.3572 14.4392 12.3572 14.4493 12.3572 14.4594C12.3572 14.4695 12.3572 14.4796 12.3572 14.4897C12.3572 14.4998 12.3572 14.5099 12.3572 14.52C12.3572 14.5301 12.3572 14.5402 12.3572 14.5503C12.3572 14.5604 12.3572 14.5705 12.3572 14.5806C12.3572 14.5908 12.3572 14.6009 12.3572 14.611C12.3572 14.6211 12.3572 14.6312 12.3572 14.6413C12.3572 14.6514 12.3572 14.6615 12.3572 14.6716C12.3572 14.6818 12.3572 14.6919 12.3572 14.702C12.3572 14.7121 12.3572 14.7222 12.3572 14.7323C12.3572 14.7424 12.3572 14.7525 12.3572 14.7627C12.3572 14.7728 12.3572 14.7829 12.3572 14.793C12.3572 14.8031 12.3572 14.8132 12.3572 14.8233C12.3572 14.8334 12.3572 14.8436 12.3572 14.8537C12.3572 14.8638 12.3572 14.8739 12.3572 14.884C12.3572 14.8941 12.3572 14.9042 12.3572 14.9144C12.3572 14.9245 12.3572 14.9346 12.3572 14.9447C12.3572 14.9548 12.3572 14.9649 12.3572 14.975C12.3572 14.9851 12.3572 14.9953 12.3572 15.0054C12.3572 15.0155 12.3572 15.0256 12.3572 15.0357C12.3572 15.0458 12.3572 15.0559 12.3572 15.066C12.3572 15.0761 12.3572 15.0862 12.3572 15.0963C12.3572 15.1065 12.3572 15.1166 12.3572 15.1267C12.3572 15.1368 12.3572 15.1469 12.3572 15.157C12.3572 15.1671 12.3572 15.1772 12.3572 15.1873C12.3572 15.1974 12.3572 15.2075 12.3572 15.2176C12.3572 15.2277 12.3572 15.2378 12.3572 15.2479C12.3572 15.258 12.3572 15.2681 12.3572 15.2782C12.3572 15.2883 12.3572 15.2984 12.3572 15.3085C12.3572 15.3186 12.3572 15.3287 12.3572 15.3388C12.3572 15.3489 12.3572 15.359 12.3572 15.3691C12.3572 15.3792 12.3572 15.3892 12.3572 15.3993C12.3572 15.4094 12.3572 15.4195 12.3572 15.4296C12.3572 15.4397 12.3572 15.4498 12.3572 15.4599C12.3572 15.4699 12.3572 15.48 12.3572 15.4901C12.3572 15.5002 12.3572 15.5103 12.3572 15.5203C12.3572 15.5304 12.3572 15.5405 12.3572 15.5506C12.3572 15.5606 12.3572 15.5707 12.3572 15.5808C12.3572 15.5908 12.3572 15.6009 12.3572 15.611C12.3572 15.621 12.3572 15.6311 12.3572 15.6412C12.3572 15.6512 12.3572 15.6613 12.3572 15.6714C12.3572 15.6814 12.3572 15.6915 12.3572 15.7015C12.3572 15.7116 12.3572 15.7216 12.3572 15.7317C12.3572 15.7417 12.3572 15.7518 12.3572 15.7618C12.3572 15.7719 12.3572 15.7819 12.3572 15.792C12.3572 15.802 12.3572 15.812 12.3572 15.8221C12.3572 15.8321 12.3572 15.8422 12.3572 15.8522C12.3572 15.8622 12.3572 15.8723 12.3572 15.8823C12.3572 15.8923 12.3572 15.9023 12.3572 15.9124C12.3572 15.9224 12.3572 15.9324 12.3572 15.9424C12.3572 15.9524 12.3572 15.9624 12.3572 15.9725C12.3572 15.9825 12.3572 15.9925 12.3572 16.0025C12.3572 16.0125 12.3572 16.0225 12.3572 16.0325C12.3572 16.0425 12.3572 16.0525 12.3572 16.0625C12.3572 16.0725 12.3572 16.0825 12.3572 16.0925C12.3572 16.1025 12.3572 16.1125 12.3572 16.1224C12.3572 16.1324 12.3572 16.1424 12.3572 16.1524C12.3572 16.1624 12.3572 16.1723 12.3572 16.1823C12.3572 16.1923 12.3572 16.2022 12.3572 16.2122C12.3572 16.2222 12.3572 16.2321 12.3572 16.2421C12.3572 16.252 12.3572 16.262 12.3572 16.272C12.3572 16.2819 12.3572 16.2919 12.3572 16.3018C12.3572 16.3117 12.3572 16.3217 12.3572 16.3316C12.3572 16.3416 12.3572 16.3515 12.3572 16.3614C12.3572 16.3714 12.3572 16.3813 12.3572 16.3912C12.3572 16.4011 12.3572 16.411 12.3572 16.421C12.3572 16.4309 12.3572 16.4408 12.3572 16.4507C12.3572 16.4606 12.3572 16.4705 12.3572 16.4804C12.3572 16.4903 12.3572 16.5002 12.3572 16.5101C12.3572 16.52 12.3572 16.5299 12.3572 16.5398C12.3572 16.5497 12.3572 16.5595 12.3572 16.5694C12.3572 16.5793 12.3572 16.5892 12.3572 16.599C12.3572 16.6089 12.3572 16.6188 12.3572 16.6286C12.3572 16.6385 12.3572 16.6483 12.3572 16.6582C12.3572 16.668 12.3572 16.6779 12.3572 16.6877C12.3572 16.6976 12.3572 16.7074 12.3572 16.7172C12.3572 16.7271 12.3572 16.7369 12.3572 16.7467C12.3572 16.7565 12.3572 16.7664 12.3572 16.7762C12.3572 16.786 12.3572 16.7958 12.3572 16.8056C12.3572 16.8154 12.3572 16.8252 12.3572 16.835C12.3572 16.8448 12.3572 16.8546 12.3572 16.8644C12.3572 16.8742 12.3572 16.884 12.3572 16.8937C12.3572 16.9035 12.3572 16.9133 12.3572 16.9231C12.3572 16.9328 12.3572 16.9426 12.3572 16.9523C12.3572 16.9621 12.3572 16.9719 12.3572 16.9816C12.3572 16.9913 12.3572 17.0011 12.3572 17.0108C12.3572 17.0206 12.3572 17.0303 12.3572 17.04C12.3572 17.0498 12.3572 17.0595 12.3572 17.0692C12.3572 17.0789 12.3572 17.0886 12.3572 17.0983C12.3572 17.108 12.3572 17.1177 12.3572 17.1274C12.3572 17.1371 12.3572 17.1468 12.3572 17.1565C12.3572 17.1662 12.3572 17.1758 12.3572 17.1855C12.3572 17.1952 12.3572 17.2049 12.3572 17.2145C12.3572 17.2242 12.3572 17.2338 12.3572 17.2435C12.3572 17.2531 12.3572 17.2628 12.3572 17.2724C12.3572 17.2821 12.3572 17.2917 12.3572 17.3013C12.3572 17.3109 12.3572 17.3206 12.3572 17.3302C12.3572 17.3398 12.3572 17.3494 12.3572 17.359C12.3572 17.3686 12.3572 17.3782 12.3572 17.3878C12.3572 17.3974 12.3572 17.407 12.3572 17.4165C12.3572 17.4261 12.3572 17.4357 12.3572 17.4453C12.3572 17.4548 12.3572 17.4644 12.3572 17.4739C12.3572 17.4835 12.3572 17.493 12.3572 17.5026C12.3572 17.5121 12.3572 17.5216 12.3572 17.5312C12.3572 17.5407 12.3572 17.5502 12.3572 17.5597C12.3572 17.5693 12.3572 17.5788 12.3572 17.5883C12.3572 17.5978 12.3572 17.6073 12.3572 17.6167C12.3572 17.6262 12.3572 17.6357 12.3572 17.6452C12.3572 17.6547 12.3572 17.6641 12.3572 17.6736C12.3572 17.6831 12.3572 17.6925 12.3572 17.702C12.3572 17.7114 12.3572 17.7208 12.3572 17.7303C12.3572 17.7397 12.3572 17.7491 12.3572 17.7586C12.3572 17.768 12.3572 17.7774 12.3572 17.7868C12.3572 17.7962 12.3572 17.8056 12.3572 17.815C12.3572 17.8244 12.3572 17.8338 12.3572 17.8431C12.3572 17.8525 12.3572 17.8619 12.3572 17.8712C12.3572 17.8806 12.3572 17.89 12.3572 17.8993C12.3572 17.9087 12.3572 17.918 12.3572 17.9273C12.3572 17.9367 12.3572 17.946 12.3572 17.9553C12.3572 17.9646 12.3572 17.9739 12.3572 17.9832C12.3572 17.9925 12.3572 18.0018 12.3572 18.0111C12.3572 18.0204 12.3572 18.0297 12.3572 18.039C12.3572 18.0482 12.3572 18.0575 12.3572 18.0668C12.3572 18.076 12.3572 18.0853 12.3572 18.0945C12.3572 18.1037 12.3572 18.113 12.3572 18.1222C12.3572 18.1314 12.3572 18.1406 12.3572 18.1498C12.3572 18.159 12.3572 18.1683 12.3572 18.1774C12.3572 18.1866 12.3572 18.1958 12.3572 18.205C12.3572 18.2142 12.3572 18.2233 12.3572 18.2325C12.3572 18.2417 12.3572 18.2508 12.3572 18.26C12.3572 18.2691 12.3572 18.2782 12.3572 18.2874C12.3572 18.2965 12.3572 18.3056 12.3572 18.3147C12.3572 18.3238 12.3572 18.3329 12.3572 18.342C12.3572 18.3511 12.3572 18.3602 12.3572 18.3693C12.3572 18.3783 12.3572 18.3874 12.3572 18.3965C12.3572 18.4055 12.3572 18.4146 12.3572 18.4236C12.3572 18.4327 12.3572 18.4417 12.3572 18.4507C12.3572 18.4597 12.3572 18.4688 12.3572 18.4778C12.3572 18.4868 12.3572 18.4958 12.3572 18.5047C12.3572 18.5137 12.3572 18.5227 12.3572 18.5317C12.3572 18.5407 12.3572 18.5496 12.3572 18.5586C12.3572 18.5675 12.3572 18.5765 12.3572 18.5854C12.3572 18.5943 12.3572 18.6032 12.3572 18.6122C12.3572 18.6211 12.3572 18.63 12.3572 18.6389C12.3572 18.6478 12.3572 18.6567 12.3572 18.6655C12.3572 18.6744 12.3572 18.6833 12.3572 18.6921C12.3572 18.701 12.3572 18.7099 12.3572 18.7187C12.3572 18.7275 12.3572 18.7364 12.3572 18.7452C12.3572 18.754 12.3572 18.7628 12.3572 18.7716C12.3572 18.7804 12.3572 18.7892 12.3572 18.798C12.3572 18.8068 12.3572 18.8155 12.3572 18.8243C12.3572 18.8331 12.3572 18.8418 12.3572 18.8506C12.3572 18.8593 12.3572 18.868 12.3572 18.8768C12.3572 18.8855 12.3572 18.8942 12.3572 18.9029C12.3572 18.9116 12.3572 18.9203 12.3572 18.929C12.3572 18.9377 12.3572 18.9463 12.3572 18.955C12.3572 18.9637 12.3572 18.9723 12.3572 18.981C12.3572 18.9896 12.3572 18.9982 12.3572 19.0069C12.3572 19.0155 12.3572 19.0241 12.3572 19.0327C12.3572 19.0413 12.3572 19.0499 12.3572 19.0585C12.3572 19.067 12.3572 19.0756 12.3572 19.0842C12.3572 19.0927 12.3572 19.1013 12.3572 19.1098C12.3572 19.1183 12.3572 19.1269 12.3572 19.1354C12.3572 19.1439 12.3572 19.1524 12.3572 19.1609C12.3572 19.1694 12.3572 19.1779 12.3572 19.1864C12.3572 19.1948 12.3572 19.2033 12.3572 19.2118C12.3572 19.2202 12.3572 19.2286 12.3572 19.2371C12.3572 19.2455 12.3572 19.2539 12.3572 19.2623C12.3572 19.2707 12.3572 19.2791 12.3572 19.2875C12.3572 19.2959 12.3572 19.3043 12.3572 19.3126C12.3572 19.321 12.3572 19.3294 12.3572 19.3377C12.3572 19.346 12.3572 19.3544 12.3572 19.3627C12.3572 19.371 12.3572 19.3793 12.3572 19.3876C12.3572 19.3959 12.3572 19.4042 12.3572 19.4125C12.3572 19.4207 12.3572 19.429 12.3572 19.4373C12.3572 19.4455 12.3572 19.4537 12.3572 19.462C12.3572 19.4702 12.3572 19.4784 12.3572 19.4866C12.3572 19.4948 12.3572 19.503 12.3572 19.5112C12.3572 19.5194 12.3572 19.5275 12.3572 19.5357C12.3572 19.5439 12.3572 19.552 12.3572 19.5601C12.3572 19.5683 12.3572 19.5764 12.3572 19.5845C12.3572 19.5926 12.3572 19.6007 12.3572 19.6088C12.3572 19.6169 12.3572 19.625 12.3572 19.633C12.3572 19.6411 12.3572 19.6491 12.3572 19.6572C12.3572 19.6652 12.3572 19.6732 12.3572 19.6812C12.3572 19.6892 12.3572 19.6973 12.3572 19.7052C12.3572 19.7132 12.3572 19.7212 12.3572 19.7292C12.3572 19.7371 12.3572 19.7451 12.3572 19.753C12.3572 19.761 12.3572 19.7689 12.3572 19.7768C12.3572 19.7847 12.3572 19.7926 12.3572 19.8005C12.3572 19.8084 12.3572 19.8163 12.3572 19.8241C12.3572 19.832 12.3572 19.8398 12.3572 19.8477C12.3572 19.8555 12.3572 19.8633 12.3572 19.8712C12.3572 19.879 12.3572 19.8868 12.3572 19.8946C12.3572 19.9023 12.3572 19.9101 12.3572 19.9179C12.3572 19.9256 12.3572 19.9334 12.3572 19.9411C12.3572 19.9489 12.3572 19.9566 12.3572 19.9643C12.3572 19.972 12.3572 19.9797 12.3572 19.9874C12.3572 19.9951 12.3572 20.0027 12.3572 20.0104C12.3572 20.018 12.3572 20.0257 12.3572 20.0333C12.3572 20.0409 12.3572 20.0486 12.3572 20.0562C12.3572 20.0638 12.3572 20.0713 12.3572 20.0789C12.3572 20.0865 12.3572 20.0941 12.3572 20.1016C12.3572 20.1092 12.3572 20.1167 12.3572 20.1242C12.3572 20.1317 12.3572 20.1392 12.3572 20.1467C12.3572 20.1542 12.3572 20.1617 12.3572 20.1692C12.3572 20.1767 12.3572 20.1841 12.3572 20.1915C12.3572 20.199 12.3572 20.2064 12.3572 20.2138C12.3572 20.2212 12.3572 20.2286 12.3572 20.236C12.3572 20.2434 12.3572 20.2508 12.3572 20.2581C12.3572 20.2655 12.3572 20.2728 12.3572 20.2802C12.3572 20.2875 12.3572 20.2948 12.3572 20.3021C12.3572 20.3094 12.3572 20.3167 12.3572 20.324C12.3572 20.3312 12.3572 20.3385 12.3572 20.3457C12.3572 20.353 12.3572 20.3602 12.3572 20.3674C12.3572 20.3746 12.3572 20.3818 12.3572 20.389C12.3572 20.3962 12.3572 20.4034 12.3572 20.4105C12.3572 20.4177 12.3572 20.4248 12.3572 20.432C12.3572 20.4391 12.3572 20.4462 12.3572 20.4533C12.3572 20.4604 12.3572 20.4675 12.3572 20.4745C12.3572 20.4816 12.3572 20.4887 12.3572 20.4957C12.3572 20.5027 12.3572 20.5098 12.3572 20.5168C12.3572 20.5238 12.3572 20.5308 12.3572 20.5378C12.3572 20.5447 12.3572 20.5517 12.3572 20.5587C12.3572 20.5656 12.3572 20.5725 12.3572 20.5795C12.3572 20.5864 12.3572 20.5933 12.3572 20.6002C12.3572 20.6071 12.3572 20.6139 12.3572 20.6208C12.3572 20.6277 12.3572 20.6345 12.3572 20.6413C12.3572 20.6482 12.3572 20.655 12.3572 20.6618C12.3572 20.6686 12.3572 20.6753 12.3572 20.6821C12.3572 20.6889 12.3572 20.6956 12.3572 20.7024C12.3572 20.7091 12.3572 20.7158 12.3572 20.7225C12.3572 20.7292 12.3572 20.7359 12.3572 20.7426C12.3572 20.7493 12.3572 20.7559 12.3572 20.7626C12.3572 20.7692 12.3572 20.7758 12.3572 20.7825C12.3572 20.7891 12.3572 20.7957 12.3572 20.8022C12.3572 20.8088 12.3572 20.8154 12.3572 20.8219C12.3572 20.8285 12.3572 20.835 12.3572 20.8415C12.3572 20.848 12.3572 20.8545 12.3572 20.861C12.3572 20.8675 12.3572 20.874 12.3572 20.8804C12.3572 20.8869 12.3572 20.8933 12.3572 20.8997C12.3572 20.9061 12.3572 20.9125 12.3572 20.9189C12.3572 20.9253 12.3572 20.9317 12.3572 20.938C12.3572 20.9444 12.3572 20.9507 12.3572 20.9571C12.3572 20.9634 12.3572 20.9697 12.3572 20.976C12.3572 20.9823 12.3572 20.9885 12.3572 20.9948C12.3572 21.001 12.3572 21.0073 12.3572 21.0135C12.3572 21.0197 12.3572 21.0259 12.3572 21.0321C12.3572 21.0383 12.3572 21.0445 12.3572 21.0506C12.3572 21.0568 12.3572 21.0629 12.3572 21.069C12.3572 21.0751 12.3572 21.0813 12.3572 21.0873C12.3572 21.0934 12.3572 21.0995 12.3572 21.1056C12.3572 21.1116 12.3572 21.1176 12.3572 21.1237C12.3572 21.1297 12.3572 21.1357 12.3572 21.1417C12.3572 21.1476 12.3572 21.1536 12.3572 21.1596C12.3572 21.1655 12.3572 21.1714 12.3572 21.1774C12.3572 21.1833 12.3572 21.1892 12.3572 21.1951C12.3572 21.2009 12.3572 21.2068 12.3572 21.2127C12.3572 21.2185 12.3572 21.2243 12.3572 21.2301C12.3572 21.2359 12.3572 21.2417 12.3572 21.2475C12.3572 21.2533 12.3572 21.2591 12.3572 21.2648C12.3572 21.2705 12.3572 21.2763 12.3572 21.282C12.3572 21.2877 12.3572 21.2934 12.3572 21.299C12.3572 21.3047 12.3572 21.3103 12.3572 21.316C12.3572 21.3216 12.3572 21.3272 12.3572 21.3328C12.3572 21.3384 12.3572 21.344 12.3572 21.3496C12.3572 21.3551 12.3572 21.3607 12.3572 21.3662C12.3572 21.3717 12.3572 21.3772 12.3572 21.3827C12.3572 21.3882 12.3572 21.3937 12.3572 21.3992C12.3572 21.4046 12.3572 21.41 12.3572 21.4155C12.3572 21.4209 12.3572 21.4263 12.3572 21.4317C12.3572 21.437 12.3572 21.4424 12.3572 21.4477C12.3572 21.4531 12.3572 21.4584 12.3572 21.4637C12.3572 21.469 12.3572 21.4743 12.3572 21.4796C12.3572 21.4849 12.3572 21.4901 12.3572 21.4953C12.3572 21.5006 12.3572 21.5058 12.3572 21.511C12.3572 21.5162 12.3572 21.5214 12.3572 21.5265C12.3572 21.5317 12.3572 21.5368 12.3572 21.5419C12.3572 21.547 12.3572 21.5521 12.3572 21.5572C12.3572 21.5623 12.3572 21.5674 12.3572 21.5724C12.3572 21.5775 12.3572 21.5825 12.3572 21.5875C12.3572 21.5925 12.3572 21.5975 12.3572 21.6025C12.3572 21.6074 12.3572 21.6124 12.3572 21.6173C12.3572 21.6222 12.3572 21.6271 12.3572 21.632C12.3572 21.6369 12.3572 21.6418 12.3572 21.6467C12.3572 21.6515 12.3572 21.6563 12.3572 21.6611C12.3572 21.666 12.3572 21.6708 12.3572 21.6755C12.3572 21.6803 12.3572 21.6851 12.3572 21.6898C12.3572 21.6945 12.3572 21.6992 12.3572 21.7039C12.3572 21.7086 12.3572 21.7133 12.3572 21.718C12.3572 21.7226 12.3572 21.7273 12.3572 21.7319C12.3572 21.7365 12.3572 21.7411 12.3572 21.7457C12.3572 21.7503 12.3572 21.7548 12.3572 21.7594C12.3572 21.7639 12.3572 21.7684 12.3572 21.7729C12.3572 21.7774 12.3572 21.7819 12.3572 21.7863C12.3572 21.7908 12.3572 21.7952 12.3572 21.7997C12.3572 21.8041 12.3572 21.8085 12.3572 21.8128C12.3572 21.8172 12.3572 21.8216 12.3572 21.8259C12.3572 21.8303 12.3572 21.8346 12.3572 21.8389C12.3572 21.8432 12.3572 21.8474 12.3572 21.8517C12.3572 21.856 12.3572 21.8602 12.3572 21.8644C12.3572 21.8686 12.3572 21.8728 12.3572 21.877C12.3572 21.8812 12.3572 21.8853 12.3572 21.8894C12.3572 21.8936 12.3572 21.8977 12.3572 21.9018C12.3572 21.9059 12.3572 21.9099 12.3572 21.914C12.3572 21.918 12.3572 21.9221 12.3572 21.9261C12.3572 21.9301 12.3572 21.9341 12.3572 21.938C12.3572 21.942 12.3572 21.9459 12.3572 21.9499C12.3572 21.9538 12.3572 21.9577 12.3572 21.9616C12.3572 21.9655 12.3572 21.9693 12.3572 21.9732C12.3572 21.977 12.3572 21.9808 12.3572 21.9846C12.3572 21.9884 12.3572 21.9922 12.3572 21.9959C12.3572 21.9997 12.3572 22.0034 12.3572 22.0071C12.3572 22.0109 12.3572 22.0145 12.3572 22.0182C12.3572 22.0219 12.3572 22.0255 12.3572 22.0292C12.3572 22.0328 12.3572 22.0364 12.3572 22.04C12.3572 22.0436 12.3572 22.0471 12.3572 22.0507C12.3572 22.0542 12.3572 22.0577 12.3572 22.0612C12.3572 22.0647 12.3572 22.0682 12.3572 22.0716C12.3572 22.0751 12.3572 22.0785 12.3572 22.0819C12.3572 22.0853 12.3572 22.0887 12.3572 22.0921C12.3572 22.0955 12.3572 22.0988 12.3572 22.1021C12.3572 22.1055 12.3572 22.1088 12.3572 22.112C12.3572 22.1153 12.3572 22.1186 12.3572 22.1218C12.3572 22.125 12.3572 22.1282 12.3572 22.1314C12.3572 22.1346 12.3572 22.1378 12.3572 22.1409C12.3572 22.1441 12.3572 22.1472 12.3572 22.1503C12.3572 22.1534 12.3572 22.1565 12.3572 22.1595C12.3572 22.1626 12.3572 22.1656 12.3572 22.1686C12.3572 22.1716 12.3572 22.1746 12.3572 22.1776C12.3572 22.1806 12.3572 22.1835 12.3572 22.1864C12.3572 22.1893 12.3572 22.1922 12.3572 22.1951C12.3572 22.198 12.3572 22.2008 12.3572 22.2037C12.3572 22.2065 12.3572 22.2093 12.3572 22.2121C12.3572 22.2149 12.3572 22.2176 12.3572 22.2204C12.3572 22.2231 12.3572 22.2258 12.3572 22.2285C12.3572 22.2312 12.3572 22.2339 12.3572 22.2365C12.3572 22.2392 12.3572 22.2418 12.3572 22.2444C12.3572 22.247 12.3572 22.2496 12.3572 22.2521C12.3572 22.2547 12.3572 22.2572 12.3572 22.2597C12.3572 22.2622 12.3572 22.2647 12.3572 22.2672C12.3572 22.2696 12.3572 22.2721 12.3572 22.2745C12.3572 22.2769 12.3572 22.2793 12.3572 22.2816C12.3572 22.284 12.3572 22.2864 12.3572 22.2887C12.3572 22.291 12.3572 22.2933 12.3572 22.2956C12.3572 22.2978 12.3572 22.3001 12.3572 22.3023C12.3572 22.3045 12.3572 22.3067 12.3572 22.3089C12.3572 22.3111 12.3572 22.3132 12.3572 22.3154C12.3572 22.3175 12.3572 22.3196 12.3572 22.3217C12.3572 22.3238 12.3572 22.3258 12.3572 22.3279C12.3572 22.3299 12.3572 22.3319 12.3572 22.3339C12.3572 22.3359 12.3572 22.3378 12.3572 22.3398C12.3572 22.3417 12.3572 22.3436 12.3572 22.3455C12.3572 22.3474 12.3572 22.3493 12.3572 22.3511C12.3572 22.3529 12.3572 22.3548 12.3572 22.3566C12.3572 22.3583 12.3572 22.3601 12.3572 22.3619C12.3572 22.3636 12.3572 22.3653 12.3572 22.367C12.3572 22.3687 12.3572 22.3704 12.3572 22.372C12.3572 22.3737 12.3572 22.3753 12.3572 22.3769C12.3572 22.3785 12.3572 22.3801 12.3572 22.3816C12.3572 22.3832 12.3572 22.3847 12.3572 22.3862C12.3572 22.3877 12.3572 22.3891 12.3572 22.3906C12.3572 22.392 12.3572 22.3935 12.3572 22.3949C12.3572 22.3963 12.3572 22.3976 12.3572 22.399C12.3572 22.4003 12.3572 22.4016 12.3572 22.4029C12.3572 22.4042 12.3572 22.4055 12.3572 22.4068C12.3572 22.408 12.3572 22.4092 12.3572 22.4104C12.3572 22.4116 12.3572 22.4128 12.3572 22.4139C12.3572 22.4151 12.3572 22.4162 12.3572 22.4173C12.3572 22.4184 12.3572 22.4195 12.3572 22.4205C12.3572 22.4216 12.3572 22.4226 12.3572 22.4236C12.3572 22.4246 12.3572 22.4255 12.3572 22.4265C12.3572 22.4274 12.3572 22.4284 12.3572 22.4292C12.3572 22.4301 12.3572 22.431 12.3572 22.4318C12.3572 22.4327 12.3572 22.4335 12.3572 22.4343C12.3572 22.4351 12.3572 22.4358 12.3572 22.4366C12.3572 22.4373 12.3572 22.438 12.3572 22.4387C12.3572 22.4394 12.3572 22.4401 12.3572 22.4407C12.3572 22.4413 12.3572 22.4419 12.3572 22.4425C12.3572 22.4431 12.3572 22.4437 12.3572 22.4442C12.3572 22.4447 12.3572 22.4452 12.3572 22.4457C12.3572 22.4462 12.3572 22.4466 12.3572 22.4471C12.3572 22.4475 12.3572 22.4479 12.3572 22.4482C12.3572 22.4486 12.3572 22.449 12.3572 22.4493C12.3572 22.4496 12.3572 22.4499 12.3572 22.4502C12.3572 22.4504 12.3572 22.4507 12.3572 22.4509C12.3572 22.4511 12.3572 22.4513 12.3572 22.4514C12.3572 22.4516 12.3572 22.4517 12.3572 22.4518C12.3572 22.452 12.3572 22.452 12.3572 22.4521C12.3572 22.4521 12.3572 22.4522 12.8572 22.4522ZM17 22.4522V10.904H16V22.4522H17ZM20.2143 7.88525V5.50706H19.2143V7.88525H20.2143ZM12.7857 5.50706V7.88525H13.7857V5.50706H12.7857ZM11.4882 8.45375H21.5118V7.45375H11.4882V8.45375ZM21.5118 8.45375C22.6142 8.45375 23.5 9.33804 23.5 10.4193H24.5C24.5 8.77716 23.1578 7.45375 21.5118 7.45375V8.45375ZM23.5 10.4193V22.7997H24.5V10.4193H23.5ZM23.5 22.7997C23.5 23.8809 22.6142 24.7652 21.5118 24.7652V25.7652C23.1578 25.7652 24.5 24.4418 24.5 22.7997H23.5ZM21.5118 24.7652H11.4882V25.7652H21.5118V24.7652ZM11.4882 24.7652C10.3858 24.7652 9.5 23.8809 9.5 22.7997H8.5C8.5 24.4418 9.84216 25.7652 11.4882 25.7652V24.7652ZM9.5 22.7997V10.4193H8.5V22.7997H9.5ZM9.5 10.4193C9.5 9.33804 10.3858 8.45375 11.4882 8.45375V7.45375C9.84216 7.45375 8.5 8.77716 8.5 10.4193H9.5ZM12 5.5H21V4.5H12V5.5Z" fill="black"/>
</svg>
