<svg width="32" height="32" fill="none" xmlns="http://www.w3.org/2000/svg"><path d="M13.944 27V12.142c0-.295.12-.579.332-.787.213-.209.501-.326.802-.326h9.788c.3 0 .59.117.802.326.213.208.332.492.332.787V27M6 27v-6.196c0-.295.12-.578.332-.787.213-.208.501-.326.802-.326h4.883" stroke="#000" stroke-linecap="round" stroke-linejoin="round"/><path d="M17.776 8.873V5M22.164 8.873V5M21.983 6.937h-4.01M16.193 13.908h7.554M16.193 16.78h7.554M16.193 19.654h7.554M16.193 22.526h7.554M16.193 25.398h7.554M8.082 22.526h3.93M8.082 25.398h3.93" stroke="#000" stroke-miterlimit="10" stroke-linecap="round"/></svg>