<svg width="32" height="32" viewBox="0 0 32 32" fill="none" xmlns="http://www.w3.org/2000/svg">
<g filter="url(#filter0_d_4798_4677)">
<path fill-rule="evenodd" clip-rule="evenodd" d="M14.752 19.8032H17.226V22.1982H14.752V19.8032Z" stroke="white" stroke-width="1.5"/>
<path fill-rule="evenodd" clip-rule="evenodd" d="M13.3145 10.8811C13.9205 10.3931 15.0445 10.0061 16.0005 10.0001C17.5145 9.99113 18.3115 10.4561 19.0265 11.1511C19.7145 11.8201 20.0305 12.5031 19.9795 13.5511C19.9385 14.4041 19.7125 14.8991 19.3755 15.3621C19.1775 15.6431 18.7985 16.0031 18.2375 16.4401L17.7045 16.8701C17.3745 17.1901 17.2305 17.3331 17.1045 17.6901C17.0105 17.9561 16.9885 18.1961 16.9835 18.6121H15.0065C15.0035 17.5961 14.9875 17.2371 15.0965 16.7991C15.2035 16.3731 15.5985 16.0651 16.1595 15.6281L16.7275 15.1821C16.9155 15.0421 17.2215 14.7681 17.3355 14.6011C17.5435 14.3151 17.6695 13.9191 17.6865 13.5761C17.7025 13.2531 17.6055 12.8771 17.3425 12.5491C17.0305 12.1591 16.6395 11.9111 15.8775 11.9451C15.2765 11.9721 14.8165 12.2781 14.5355 12.5671C14.2055 12.9071 14.0615 13.4711 14.0375 13.9171H12.0605C12.1225 12.4331 12.4145 11.6051 13.3145 10.8811V10.8811Z" stroke="white" stroke-width="2"/>
<path d="M15.0127 19.9561H16.9917V21.9401H15.0127V19.9561Z" fill="black"/>
<path d="M13.515 10.8609C14.212 10.4119 14.857 10.0669 15.941 10.0669C17.558 10.0669 17.924 10.3089 18.753 10.9709C19.503 11.5699 19.96 12.3469 19.96 13.4509C19.96 14.1279 19.596 14.8589 19.258 15.3219C19.061 15.6029 18.799 15.8819 18.238 16.3199L17.626 16.7899C17.326 17.0239 17.028 17.3779 16.929 17.6899C16.867 17.8879 16.871 18.3129 16.867 18.7289H15.007C15.038 17.8489 15.041 17.1239 15.176 16.7879C15.311 16.4519 15.659 16.0649 16.22 15.6279L16.767 15.1819C16.954 15.0419 17.242 14.8279 17.356 14.6609C17.564 14.3749 17.745 13.9599 17.745 13.6159C17.745 13.2199 17.767 12.9399 17.536 12.6139C17.266 12.2359 17.02 11.8199 15.858 11.7999C14.953 11.7839 14.567 12.2469 14.316 12.6469C14.064 13.0489 13.978 13.5049 13.978 13.9369H12C12.063 12.4529 12.541 11.4809 13.515 10.8609Z" fill="black"/>
</g>
<defs>
<filter id="filter0_d_4798_4677" x="-2" y="0" width="36" height="36" filterUnits="userSpaceOnUse" color-interpolation-filters="sRGB">
<feFlood flood-opacity="0" result="BackgroundImageFix"/>
<feColorMatrix in="SourceAlpha" type="matrix" values="0 0 0 0 0 0 0 0 0 0 0 0 0 0 0 0 0 0 127 0" result="hardAlpha"/>
<feOffset dy="2"/>
<feGaussianBlur stdDeviation="1"/>
<feColorMatrix type="matrix" values="0 0 0 0 0 0 0 0 0 0 0 0 0 0 0 0 0 0 0.25 0"/>
<feBlend mode="normal" in2="BackgroundImageFix" result="effect1_dropShadow_4798_4677"/>
<feBlend mode="normal" in="SourceGraphic" in2="effect1_dropShadow_4798_4677" result="shape"/>
</filter>
</defs>
</svg>
