<svg width="32" height="36" fill="none" xmlns="http://www.w3.org/2000/svg"><g filter="url(#a)"><path d="M17 13.59a9 9 0 1 0 9 9 9.01 9.01 0 0 0-9-9Zm-3.212 3.79A6.073 6.073 0 0 1 17 16.431a6.168 6.168 0 0 1 6.158 6.158 6.073 6.073 0 0 1-.948 3.211l-8.422-8.422ZM17 28.747a6.168 6.168 0 0 1-6.158-6.158 6.1 6.1 0 0 1 .947-3.24l8.47 8.47a6.101 6.101 0 0 1-3.24.947" fill="url(#b)"/><path d="M7 16.02V0l11.59 11.62h-7.04l-.15.12L7 16.02Z" fill="#fff"/><path d="M8 2.41V13.6l2.97-2.87.16-.14h5.03L8 2.41Z" fill="#000"/></g><defs><linearGradient id="b" x1="17" y1="13.59" x2="17" y2="31.59" gradientUnits="userSpaceOnUse"><stop stop-color="#F1F1F1"/><stop offset="1" stop-color="#D6D6D6"/></linearGradient><filter id="a" x="-2" y="0" width="36" height="36" filterUnits="userSpaceOnUse" color-interpolation-filters="sRGB"><feFlood flood-opacity="0" result="BackgroundImageFix"/><feColorMatrix in="SourceAlpha" values="0 0 0 0 0 0 0 0 0 0 0 0 0 0 0 0 0 0 127 0" result="hardAlpha"/><feOffset dy="2"/><feGaussianBlur stdDeviation="1"/><feColorMatrix values="0 0 0 0 0 0 0 0 0 0 0 0 0 0 0 0 0 0 0.25 0"/><feBlend in2="BackgroundImageFix" result="effect1_dropShadow_2567:570"/><feBlend in="SourceGraphic" in2="effect1_dropShadow_2567:570" result="shape"/></filter></defs></svg>