<svg width="20" height="20" viewBox="0 0 20 20" fill="none" xmlns="http://www.w3.org/2000/svg">
  <path fill-rule="evenodd" clip-rule="evenodd" d="M14.6235 14.6227C12.4565 16.7897 9.96125 17.7025 7.75983 18.033L5.14935 15.4215L7.28941 13.2825L7.90731 13.9004C7.98589 13.979 8.08924 14.0177 8.19258 14.0177C8.29592 14.0177 8.39926 13.979 8.47785 13.9004C8.63609 13.7432 8.63609 13.4859 8.47785 13.3288L7.85995 12.7109L9.09683 11.474L9.71473 12.0919C9.79331 12.1726 9.89666 12.2114 10 12.2114C10.1033 12.2114 10.2067 12.1726 10.2853 12.093C10.4435 11.9358 10.4435 11.6796 10.2853 11.5224L9.66737 10.9034L10.9032 9.66657L11.5222 10.2855C11.6007 10.3641 11.7041 10.4029 11.8074 10.4029C11.9108 10.4029 12.0141 10.3631 12.0927 10.2845C12.2509 10.1273 12.2509 9.8711 12.0927 9.71286L11.4748 9.09495L12.7117 7.86022L13.3296 8.47813C13.4082 8.55671 13.5115 8.59546 13.6148 8.59546C13.7182 8.59546 13.8215 8.55671 13.9001 8.47813C14.0584 8.32096 14.0584 8.06368 13.9001 7.90651L13.2822 7.28861L15.4223 5.14748L18.037 7.76226C17.7066 9.96152 16.7926 12.4547 14.6235 14.6227ZM2.66482 17.906L4.57774 15.992L6.73179 18.1471C4.95774 18.2806 3.47757 18.0718 2.66482 17.906ZM2.09213 17.3365C1.92636 16.5238 1.71429 15.0425 1.84885 13.2631L4.00613 15.4215L2.09213 17.3365ZM5.37649 5.37677C7.54346 3.20873 10.0388 2.29587 12.2402 1.96539L14.8506 4.57694L12.7117 6.717L12.0927 6.09909C11.9355 5.94193 11.6804 5.94193 11.5222 6.09909C11.365 6.25734 11.365 6.51354 11.5222 6.67071L12.139 7.28861L10.9032 8.52442L10.2853 7.90651C10.1281 7.74827 9.8719 7.74934 9.71473 7.90759C9.55649 8.06368 9.55649 8.32096 9.71473 8.47813L10.3326 9.09495L9.09575 10.3329L8.47785 9.71393C8.32068 9.55461 8.06555 9.55569 7.90731 9.71286C7.74907 9.8711 7.74907 10.1273 7.90731 10.2845L8.52521 10.9024L7.28941 12.1393L6.67043 11.5214C6.51326 11.3642 6.25813 11.3642 6.09989 11.5214C5.94272 11.6796 5.94272 11.9358 6.09989 12.093L6.71672 12.7109L4.57774 14.8509L1.96296 12.2361C2.29344 10.038 3.20845 7.54481 5.37649 5.37677ZM17.3363 2.09241L15.4223 4.0064L13.2682 1.85128C15.0433 1.71779 16.5224 1.92663 17.3363 2.09241ZM17.9079 2.66295C18.0747 3.4757 18.2857 4.95694 18.1512 6.7353L15.9939 4.57694L17.9079 2.66295ZM18.5193 1.74686C18.4999 1.68335 18.4655 1.62737 18.4192 1.58216C18.4192 1.58108 18.4192 1.58 18.4192 1.58C18.4181 1.57893 18.417 1.58 18.416 1.57893C18.3708 1.53372 18.3159 1.49927 18.2523 1.47989C18.1759 1.45728 10.4478 -0.835631 4.80596 4.80516C-0.835908 10.447 1.45701 18.174 1.48069 18.2515C1.50007 18.3151 1.53451 18.371 1.5808 18.4162C1.5808 18.4173 1.5808 18.4184 1.5808 18.4184C1.58188 18.4195 1.58296 18.4184 1.58403 18.4195C1.62924 18.4647 1.68415 18.5002 1.74766 18.5185C1.78211 18.5293 3.36562 18.9997 5.61224 18.9986C8.35728 18.9986 12.0916 18.2968 15.194 15.1943C20.8359 9.55246 18.543 1.82437 18.5193 1.74686Z" fill="#DE1E7E"/>
</svg>
