<?xml version="1.0" encoding="UTF-8"?>
<svg width="66px" height="61px" viewBox="0 0 66 61" version="1.1" xmlns="http://www.w3.org/2000/svg" xmlns:xlink="http://www.w3.org/1999/xlink">
    <!-- Generator: Sketch 53.2 (72643) - https://sketchapp.com -->
    <title>Group 19</title>
    <desc>Created with Sketch.</desc>
    <g id="Help" stroke="none" stroke-width="1" fill="none" fill-rule="evenodd">
        <g id="Help-centre-Copy-3" transform="translate(-290.000000, -751.000000)">
            <g id="Group-21" transform="translate(290.000000, 751.000000)">
                <g id="Group-19">
                    <circle id="Oval" fill="#0CD664" cx="48.5" cy="28.5" r="17.5"></circle>
                    <path d="M30.3233327,58.2079075 L45.0977379,43.4330559 L44.6496316,43.2202137 C42.9724206,42.4235695 41.7512314,40.874993 41.3844898,39.0497669 L41.3386132,38.8214448 L41.1102905,38.7755714 C38.7887889,38.3091473 36.9542223,36.4745807 36.487279,34.152937 L36.4413799,33.9247265 L36.2131705,33.8788221 C34.3873902,33.5115651 32.8391131,32.2904137 32.0431423,30.6129239 L31.8303821,30.1645367 L3.78745925,58.2079075 L30.3233327,58.2079075 Z M46.0532285,32.035253 C46.0342728,32.0191231 46.0283872,32.0141149 46.0225071,32.0095979 L43.2528747,29.2399655 C43.2478223,29.2334646 43.2417007,29.2264873 43.2220806,29.2041249 L43.1186323,29.0955042 L33.584912,29.0955042 L33.7863628,29.5799025 C34.3852989,31.0200738 35.7950757,31.9807408 37.3789452,31.9807408 C37.9347154,31.9807408 38.3853587,32.4315827 38.3853587,32.987587 C38.3853587,35.1329145 40.1300972,36.8775057 42.2757102,36.8775057 C42.8316471,36.8775057 43.2821237,37.3280816 43.2821237,37.884352 C43.2821237,39.4678814 44.2428605,40.8775632 45.6833404,41.4769118 L46.167793,41.6784807 L46.167793,32.1394026 L46.0532285,32.035253 Z M47.1746392,27.0818117 C47.7305761,27.0818117 48.1810527,27.5323876 48.1810527,28.088658 L48.1810527,42.7802514 C48.1810527,43.0472758 48.0749772,43.3034548 47.8864603,43.4916511 L31.4521767,59.9263673 C31.263242,60.115302 31.0068513,60.2216 30.7401368,60.2216 L1.35695004,60.2216 C0.949479302,60.2216 0.58264969,59.9763809 0.426416574,59.5996212 C0.270687845,59.2236245 0.356873598,58.7904229 0.644768854,58.5028486 L31.7705699,27.3770476 C31.9595079,27.1881097 32.2158986,27.0818117 32.482613,27.0818117 L47.1746392,27.0818117 Z M30.2551475,38.6870388 C30.6486473,38.293539 31.2857263,38.293539 31.6792299,38.6870426 C32.0723007,39.0801135 32.0723007,39.7176253 31.6792299,40.1106961 L17.7848648,54.0050612 C17.5931869,54.1964257 17.338348,54.2998643 17.0732545,54.2998643 C16.8077683,54.2998643 16.5529196,54.196456 16.3610089,54.0048589 C15.9681406,53.6119903 15.9681406,52.9744785 16.3612114,52.5814077 L30.2551475,38.6870388 Z M35.0591727,43.6768897 C35.4523537,43.2833878 36.0894322,43.2835863 36.4832591,43.6770918 C36.8762288,44.0700615 36.8762288,44.7075733 36.483158,45.1006442 L27.5794828,54.0038866 C27.3879213,54.1954481 27.1333451,54.2986957 26.8678665,54.2986957 C26.6019952,54.2986957 26.3474091,54.1954783 26.1558234,54.0038926 C25.7627357,53.6108049 25.7627357,52.9732152 26.1559244,52.5797053 L35.0591727,43.6768897 Z M58.6427382,0.9216 C59.1987922,0.9216 59.6495844,1.37229295 59.6495844,1.92844623 L59.6495844,30.5711023 C59.6495844,31.1272556 59.1987922,31.5779485 58.6427382,31.5779485 L53.2045331,31.5779485 C52.6484792,31.5779485 52.1976869,31.1272556 52.1976869,30.5711023 C52.1976869,30.0153321 52.6485289,29.5646888 53.2045331,29.5646888 L57.635892,29.5646888 L57.635892,2.93529246 L2.36340675,2.93529246 L2.36340675,29.5646888 L21.4725092,29.5646888 C22.0283964,29.5646888 22.4789226,30.0152151 22.4789226,30.5711023 C22.4789226,31.1273726 22.028446,31.5779485 21.4725092,31.5779485 L1.35699332,31.5779485 C0.800556204,31.5779485 0.349714286,31.1273052 0.349714286,30.5711023 L0.349714286,1.92844623 C0.349714286,1.37224331 0.800556204,0.9216 1.35699332,0.9216 L58.6427382,0.9216 Z M50.2328451,14.9416952 C50.7888991,14.9416952 51.2396914,15.3923881 51.2396914,15.9485414 L51.2396914,19.8675981 C51.2396914,20.4237513 50.7888991,20.8744443 50.2328451,20.8744443 L36.5661359,20.8744443 C36.0098159,20.8744443 35.5592897,20.4239181 35.5592897,19.8675981 L35.5592897,15.9485414 C35.5592897,15.3922214 36.0098159,14.9416952 36.5661359,14.9416952 C37.1221899,14.9416952 37.5729821,15.3923881 37.5729821,15.9485414 L37.5729821,18.8611846 L49.2259989,18.8611846 L49.2259989,15.9485414 C49.2259989,15.3923881 49.6767912,14.9416952 50.2328451,14.9416952 Z M11.3864025,20.8745309 C10.8303485,20.8745309 10.3795562,20.4238379 10.3795562,19.8676846 C10.3795562,19.3117974 10.8305153,18.8608384 11.3864025,18.8608384 L25.2777379,18.8608384 C25.8338912,18.8608384 26.2845842,19.3116307 26.2845842,19.8676846 C26.2845842,20.4240046 25.8340579,20.8745309 25.2777379,20.8745309 L11.3864025,20.8745309 Z M11.3864025,13.6385803 C10.8303485,13.6385803 10.3795562,13.1878873 10.3795562,12.631734 C10.3795562,12.0758468 10.8305153,11.6248878 11.3864025,11.6248878 L25.2777379,11.6248878 C25.8338912,11.6248878 26.2845842,12.0756801 26.2845842,12.631734 C26.2845842,13.188054 25.8340579,13.6385803 25.2777379,13.6385803 L11.3864025,13.6385803 Z" id="Combined-Shape" fill="#FFFFFF"></path>
                </g>
            </g>
        </g>
    </g>
</svg>