<?xml version="1.0" encoding="UTF-8"?>
<svg width="14px" height="20px" viewBox="0 0 14 20" version="1.1" xmlns="http://www.w3.org/2000/svg" xmlns:xlink="http://www.w3.org/1999/xlink">
    <!-- Generator: Sketch 53 (72520) - https://sketchapp.com -->
    <title>icon-currency-BTC</title>
    <desc>Created with Sketch.</desc>
    <g id="Icons" stroke="none" stroke-width="1" fill="none" fill-rule="evenodd">
        <g id="Bitcoin" transform="translate(-3.000000, 0.000000)" fill="#DE1E7E" fill-rule="nonzero">
            <path d="M7.40533,10.4488 L7.40533,13.1413 L11.288,13.1413 L11.288,15.0703 L7.40533,15.0703 L7.40533,17.7763 L11.0267,17.7763 C12.2462,17.7763 13.1464,17.4771 13.7271,16.8788 C14.3162,16.2715 14.6107,15.3472 14.6107,14.1058 C14.6107,12.8556 14.3162,11.9357 13.7271,11.3463 C13.1464,10.7479 12.2462,10.4488 11.0267,10.4488 L7.40533,10.4488 L7.40533,10.4488 Z M7.40533,2.22371 L7.40533,8.25184 L10.7529,8.25184 C11.8563,8.25185 12.6776,8.00626 13.2169,7.51507 C13.7645,7.01497 14.0382,6.25587 14.0382,5.23777 C14.0382,4.22864 13.7645,3.47401 13.2169,2.97388 C12.6776,2.47379 11.8563,2.22373 10.7529,2.22371 L7.40533,2.22371 L7.40533,2.22371 Z M5.14043,0 L10.9147,0 C12.6403,2.03041e-05 13.9677,0.428684 14.8969,1.286 C15.8344,2.14335 16.3031,3.36238 16.3031,4.94307 C16.3031,6.16657 16.0625,7.14 15.5814,7.86336 C15.1085,8.58675 14.4074,9.03774 13.4782,9.21634 C14.5982,9.50213 15.4652,10.1005 16.0791,11.0114 C16.693,11.9134 17,13.0431 17,14.4005 C17,16.1867 16.4898,17.5664 15.4693,18.5399 C14.4572,19.5133 13.0136,20 11.1387,20 L5.14043,20 L5.14043,15.0703 L3,15.0703 L3,13.1413 L5.14043,13.1413 L5.14043,0 L5.14043,0 Z" id="icon-currency-BTC"></path>
        </g>
    </g>
</svg>