<svg width="30" height="32" viewBox="0 0 30 32" fill="none" xmlns="http://www.w3.org/2000/svg">
<path fill-rule="evenodd" clip-rule="evenodd" d="M14.9454 5.24541C21.485 5.24541 26.7859 10.6162 26.7859 17.2416C26.7859 23.8669 21.485 29.2377 14.9454 29.2377C8.40621 29.2377 3.10528 23.8669 3.10528 17.2416C3.10528 10.6162 8.40621 5.24541 14.9454 5.24541ZM14.9998 2.46094C22.9897 2.46094 29.4667 9.03813 29.4667 17.1518C29.4667 25.2651 22.9897 31.8423 14.9998 31.8423C7.00997 31.8423 0.533386 25.2651 0.533386 17.1518C0.533386 9.03813 7.00997 2.46094 14.9998 2.46094Z" fill="white"/>
<path fill-rule="evenodd" clip-rule="evenodd" d="M10.0366 0.326172C15.2854 0.326172 19.5403 4.64529 19.5403 9.97258C19.5403 15.3001 15.2854 19.6189 10.0366 19.6189C4.78798 19.6189 0.533325 15.3001 0.533325 9.97258C0.533325 4.64529 4.78798 0.326172 10.0366 0.326172Z" fill="#0CD664"/>
</svg>
