<svg width="64" height="64" viewBox="0 0 64 64" fill="none" xmlns="http://www.w3.org/2000/svg">
<path d="M11.3361 64L7.67643 41.8599H0V35.2269H6.6053L5.53417 28.7731H0V22.1401H4.46304L0.803347 0H10.8898L14.2817 22.1401H22.4937L26.3319 0H37.6681L41.417 22.1401H49.7183L53.0209 0H63.1074L59.4477 22.1401H64V28.7731H58.3766L57.3054 35.2269H64V41.8599H56.2343L52.5746 64H40.0781L36.0614 41.8599H27.8494L23.9219 64H11.3361ZM31.0628 22.1401H32.848L31.9554 13.8936L31.0628 22.1401ZM16.2455 35.2269H20.2622L21.3333 28.7731H15.2636L16.2455 35.2269ZM29.099 35.2269H34.8117L33.6513 28.7731H30.2594L29.099 35.2269ZM43.7378 35.2269H47.8438L48.7364 28.7731H42.5774L43.7378 35.2269ZM18.1199 50.8235L19.1911 41.8599H17.1381L18.1199 50.8235ZM45.8801 50.8235L46.8619 41.8599H44.7197L45.8801 50.8235Z" fill="#DE1E7E"/>
</svg>
