<svg width="46" height="64" viewBox="0 0 46 64" fill="none" xmlns="http://www.w3.org/2000/svg">
<path d="M38.235 45.937C33.3754 50.8882 27.6905 52.447 23.1977 52.447C16.6877 52.447 13.937 49.788 13.937 46.8539C13.937 45.0201 14.8539 43.3696 16.3209 41.9943H44.1948V34.8424H25.8567C29.2493 33.3754 32.7335 31.7249 35.9427 30.4413H44.1948V23.3811H38.4183C41.4441 21.5473 43.9198 18.6132 43.9198 14.212C43.9198 6.41834 36.1261 0 23.7479 0C16.0458 0 7.97708 2.9341 1.74212 7.702L8.98567 17.4212C13.5702 13.6619 18.4298 11.6447 23.106 11.6447C26.8653 11.6447 30.0745 12.9284 30.0745 16.596C30.0745 19.255 27.8739 21.5473 25.6734 23.3811H0V30.4413H19.9885C16.7794 31.8166 13.2951 33.467 10.1777 34.8424H0V41.9943H5.86819C3.39255 43.8281 1.19198 46.6705 1.19198 50.8882C1.19198 58.2235 8.7106 64 21.8224 64C30.1662 64 38.7851 61.7077 45.4785 55.3811L38.235 45.937Z" fill="#DE1E7E"/>
</svg>
