<svg width="20" height="20" viewBox="0 0 20 20" fill="none" xmlns="http://www.w3.org/2000/svg">
  <path fill-rule="evenodd" clip-rule="evenodd" d="M6.79761 7.39081C6.68585 7.02866 6.55367 6.67403 6.40537 6.33875C6.3151 6.13564 6.07654 6.0443 5.87343 6.13457C5.72298 6.20227 5.63379 6.34842 5.63379 6.50316C5.63379 6.55797 5.64561 6.61278 5.66818 6.66651C5.80681 6.97707 5.92501 7.29839 6.0271 7.6283C6.09266 7.84 6.31833 7.95928 6.5311 7.89481C6.74281 7.82818 6.86531 7.60466 6.79761 7.39081ZM7.15009 10.7286C7.18018 10.3589 7.18448 9.97743 7.17158 9.60561C7.16191 9.38316 6.97385 9.20907 6.7514 9.21875C6.52896 9.22842 6.34949 9.43797 6.36561 9.63893C6.37958 9.97636 6.37313 10.3235 6.34627 10.6641C6.34519 10.6749 6.34519 10.6856 6.34519 10.6964C6.34519 10.9048 6.50531 11.0811 6.71594 11.0983C6.93731 11.1165 7.13182 10.951 7.15009 10.7286ZM1.80597 10C1.80597 12.1944 2.67857 14.1857 4.08848 15.6579C4.19809 15.5451 4.312 15.4355 4.41516 15.3162C4.55916 15.1475 4.81385 15.126 4.98364 15.271C5.15343 15.4161 5.17385 15.6697 5.02878 15.8384C4.91701 15.9696 4.79236 16.0888 4.672 16.2124C6.10663 17.4439 7.96681 18.194 10 18.194C12.0343 18.194 13.8934 17.4439 15.3269 16.2135C15.1238 16.0018 14.9229 15.7869 14.7445 15.5601C14.6864 15.486 14.6574 15.3979 14.6574 15.3108C14.6574 15.1915 14.7101 15.0722 14.8122 14.9938C14.9873 14.8562 15.2399 14.8874 15.3774 15.0626C15.5408 15.27 15.7256 15.4666 15.9104 15.659C17.3214 14.1867 18.194 12.1955 18.194 10C18.194 7.80454 17.3214 5.81218 15.9104 4.33887C15.8073 4.44848 15.6977 4.55057 15.5999 4.66555C15.4559 4.83427 15.2001 4.85469 15.0314 4.70961C14.939 4.63009 14.8906 4.51618 14.8906 4.40334C14.8906 4.30985 14.9229 4.21743 14.9873 4.14113C15.0937 4.01648 15.213 3.90364 15.3269 3.78543C13.8934 2.55498 12.0332 1.80597 10 1.80597C7.96681 1.80597 6.10663 2.55498 4.67307 3.78651C4.86866 3.99176 5.06531 4.19701 5.24048 4.41839C5.37803 4.59248 5.34902 4.84501 5.17385 4.98472C4.99976 5.12334 4.74615 5.09325 4.6086 4.91809C4.4474 4.71498 4.26794 4.528 4.08848 4.33994C2.67857 5.81218 1.80597 7.80454 1.80597 10ZM3.79295 16.5208C3.78436 16.5112 3.78758 16.4993 3.78006 16.4886C2.0714 14.8498 0.999999 12.5501 1 10C1 5.03737 5.03737 0.999999 10 1C12.3932 1 14.565 1.9446 16.178 3.47272C16.1845 3.47809 16.1952 3.47594 16.2017 3.48239C16.206 3.48669 16.2038 3.49421 16.2081 3.49851C17.9243 5.13839 19 7.44346 19 10C19 14.9626 14.9637 19 10 19C7.6154 19 5.45003 18.0608 3.83809 16.5413C3.82412 16.5305 3.80585 16.5337 3.79295 16.5208ZM6.2603 13.9632C6.42472 13.6322 6.56979 13.2819 6.69337 12.9241C6.76537 12.7134 6.65361 12.4845 6.44406 12.4125C6.23451 12.3395 6.00454 12.4512 5.93146 12.6618C5.8197 12.9875 5.68752 13.3056 5.53815 13.6064C5.51021 13.6634 5.49624 13.7247 5.49624 13.7848C5.49624 13.9331 5.57791 14.0761 5.72084 14.1459C5.92072 14.2448 6.16143 14.1631 6.2603 13.9632ZM13.1959 12.5813C13.3034 12.937 13.4345 13.2916 13.586 13.6365C13.6752 13.8396 13.9138 13.9321 14.118 13.8418C14.3221 13.7515 14.4156 13.5108 14.3232 13.3109C14.1867 13.0004 14.0675 12.6801 13.9686 12.3502C13.9041 12.1374 13.6795 12.016 13.4667 12.0794C13.2916 12.1321 13.1787 12.2933 13.1787 12.4663C13.1787 12.5039 13.1841 12.5436 13.1959 12.5813ZM12.8209 10C12.8209 10.1247 12.823 10.2482 12.8284 10.3697C12.8392 10.5921 13.0272 10.7651 13.2497 10.7555C13.4721 10.7436 13.6441 10.562 13.6344 10.3342C13.6193 9.99463 13.629 9.64967 13.657 9.31224C13.6752 9.07045 13.5087 8.89528 13.2884 8.87701C13.067 8.85875 12.8714 9.02424 12.8531 9.24561C12.8316 9.49493 12.8209 9.74531 12.8209 10ZM13.3152 7.05015C13.4377 6.6966 13.5839 6.34627 13.7504 6.01206C13.8493 5.81218 14.09 5.73051 14.2899 5.82937C14.4909 5.92824 14.5682 6.17325 14.4726 6.36884C14.3211 6.67403 14.1889 6.99104 14.0771 7.31236C14.0051 7.52298 13.7752 7.63475 13.5656 7.56167C13.399 7.50364 13.2937 7.34782 13.2937 7.18125C13.2937 7.13719 13.3013 7.09313 13.3152 7.05015Z" fill="white"/>
</svg>
