<svg width="48" height="56" viewBox="0 0 48 56" fill="none" xmlns="http://www.w3.org/2000/svg">
  <path fill-rule="evenodd" clip-rule="evenodd" d="M47.5951 6.99125C47.5764 6.61634 47.3218 6.29757 46.9661 6.20082L24.213 0.0285075C24.0704 -0.00950251 23.9185 -0.00950251 23.7767 0.0285075L1.02273 6.20082C0.666253 6.29757 0.41163 6.61806 0.392957 6.99298C-0.262274 20.5565 1.7153 31.2745 6.43942 39.7611C10.2766 46.6547 15.8953 51.9364 23.6172 55.9076C23.7377 55.9698 23.8684 56 24 56C24.1315 56 24.2639 55.9689 24.3844 55.9067C32.1326 51.8958 37.7556 46.6297 41.5749 39.806C46.3135 31.3358 48.2834 20.6023 47.5951 6.99125Z" fill="#DE1E7E"/>
  <path fill-rule="evenodd" clip-rule="evenodd" d="M24.3918 14.5375C30.3754 14.5375 35.2245 19.3842 35.2245 25.3702C35.2245 31.3562 30.3754 36.2029 24.3918 36.2029C18.4082 36.2029 13.5591 31.3562 13.5591 25.3702C13.5591 19.3942 18.4082 14.5375 24.3918 14.5375ZM24.3521 16.5961C29.2514 16.5961 33.2171 20.5534 33.2171 25.4402C33.2171 30.3269 29.2514 34.2842 24.3521 34.2842C19.4528 34.2842 15.4871 30.3269 15.4871 25.4402C15.4871 20.5534 19.4528 16.5961 24.3521 16.5961Z" fill="#fff"/>
  <path fill-rule="evenodd" clip-rule="evenodd" d="M20.7813 12.4741C24.764 12.4741 28.0031 15.7097 28.0031 19.6959C28.0031 23.6821 24.7741 26.9177 20.7813 26.9177C16.7986 26.9177 13.5594 23.6821 13.5594 19.6959C13.5594 15.6996 16.7884 12.4741 20.7813 12.4741Z" fill="#fff"/>
</svg>
