<svg width="20" height="20" viewBox="0 0 20 20" fill="none" xmlns="http://www.w3.org/2000/svg">
  <path d="M19.5981 2.12122C19.2349 1.39465 18.3872 1.03137 17.6567 1.03137L2.3833 1.15247C1.53564 1.15247 0.809082 1.63684 0.445801 2.3634C-0.0385742 3.09387 -0.0385742 3.94153 0.445801 4.66809L8.20752 17.879C8.5708 18.6056 9.29736 18.9689 10.145 18.9689C10.9927 18.9689 11.7192 18.4845 12.0825 17.7579L19.5981 4.4259C20.0825 3.69543 19.9614 2.84778 19.5981 2.12122ZM18.6294 3.81653L11.1138 17.1525C10.8716 17.3947 10.6294 17.6368 10.2661 17.6329C9.78174 17.6329 9.53955 17.5118 9.29736 17.1486L1.53955 4.05872C1.29736 3.69543 1.29736 3.33215 1.53955 2.96887C1.66064 2.60559 2.02393 2.3634 2.38721 2.3634L17.6606 2.24231C18.145 2.24231 18.3872 2.3634 18.6294 2.72668C18.8716 3.08997 18.8716 3.45325 18.6294 3.81653ZM7.23486 5.03137C7.23486 4.06262 6.38721 3.21497 5.41846 3.21497C4.32471 3.21106 3.47705 4.06262 3.47705 5.15247C3.47705 6.12122 4.32471 6.96887 5.29346 6.96887C6.38721 6.84778 7.23486 6.12122 7.23486 5.03137ZM10.02 6.84778C10.9888 6.84778 11.8403 6.00012 11.8403 5.03137C11.8403 4.06262 10.9927 3.21497 10.0239 3.21497C9.05518 3.21497 8.20361 4.06262 8.20361 5.03137C8.20361 6.00012 9.05127 6.84778 10.02 6.84778ZM10.145 11.5782C9.17627 11.5782 8.32861 12.4259 8.32861 13.3947C8.32861 14.3634 9.17627 15.2111 10.145 15.2111C11.1138 15.2111 11.9614 14.3634 11.9614 13.3947C11.9614 12.4259 11.1138 11.5782 10.145 11.5782ZM9.53564 9.03137C9.53564 8.06262 8.68799 7.21497 7.71924 7.21497C6.75049 7.21497 5.90283 8.06262 5.90283 9.03137C5.90283 10.0001 6.75049 10.8478 7.71924 10.8478C8.80908 10.9689 9.53564 10.1212 9.53564 9.03137ZM12.4497 7.21497C11.481 7.21497 10.6333 8.06262 10.6333 9.03137C10.6333 10.0001 11.481 10.8478 12.4497 10.8478C13.4185 10.8478 14.2661 10.0001 14.2661 9.03137C14.2661 8.06262 13.4185 7.21497 12.4497 7.21497ZM14.7505 3.21497C13.7817 3.21497 13.0552 4.06262 13.0552 4.91028C13.0552 5.87903 13.9028 6.60559 14.7505 6.60559C15.7192 6.72669 16.4458 5.87903 16.4458 4.91028C16.4458 3.94153 15.5981 3.21497 14.7505 3.21497Z" fill="white"/>
</svg>
