<?xml version="1.0" encoding="UTF-8"?>
<svg width="62px" height="61px" viewBox="0 0 62 61" version="1.1" xmlns="http://www.w3.org/2000/svg" xmlns:xlink="http://www.w3.org/1999/xlink">
    <!-- Generator: Sketch 53.2 (72643) - https://sketchapp.com -->
    <title>Group 18</title>
    <desc>Created with Sketch.</desc>
    <g id="Help" stroke="none" stroke-width="1" fill="none" fill-rule="evenodd">
        <g id="Help-centre-Copy-3" transform="translate(-680.000000, -751.000000)">
            <g id="Group-20" transform="translate(680.000000, 751.000000)">
                <g id="Group-18">
                    <circle id="Oval" fill="#0CD664" cx="44.5" cy="30.5" r="17.5"></circle>
                    <path d="M42.0510613,19.5289329 C45.9494096,17.6553854 51.0810732,17.3117369 55.4592442,18.601259 L56.4478721,18.8924439 L55.8410237,18.059432 C50.820978,11.1684884 44.8776455,7.14656666 36.1380671,5.84830618 L35.1446614,5.70073619 L35.8311814,6.43375884 C38.2404196,9.00619104 39.9868776,13.1731786 41.5604519,19.3005327 L41.6665638,19.7137226 L42.0510613,19.5289329 Z M29.9928354,17.8703782 C33.3070956,17.8703782 36.5513475,18.3722678 39.283614,19.3233376 L39.9064765,19.5401487 L39.7369072,18.9028018 C37.3810872,10.0481682 34.5366841,5.41609597 29.9977494,5.41609597 C25.4598087,5.41609597 22.6154418,10.0470405 20.2599361,18.8987649 L20.0904494,19.5356767 L20.7130255,19.3193864 C23.4433187,18.3708501 26.6832637,17.8703782 29.9928354,17.8703782 Z M4.53674169,18.601247 C8.91398197,17.3114256 14.0457171,17.6552002 17.9448978,19.5289395 L18.3293864,19.7137043 L18.4354935,19.3005327 C20.0087723,13.1743296 21.7557382,9.00637732 24.1647832,6.43373838 L24.8510989,5.70081631 L23.8578963,5.84830351 C15.1176578,7.1461991 9.17462513,11.1678837 4.15490641,18.059453 L3.54807369,18.8925733 L4.53674169,18.601247 Z M59.4797707,20.487506 C59.6370753,20.6959665 59.6886339,20.9667555 59.6157452,21.2204703 C59.5130251,21.5763771 59.1868992,21.8217003 58.8161116,21.8217003 C58.6423549,21.8217003 58.4728802,21.7678845 58.3326857,21.6692409 C53.6635888,18.7696274 46.1870215,18.784274 41.56164,21.6940762 C41.3155956,21.848993 41.0063955,21.8640338 40.7454232,21.7338628 C34.8410542,18.7794081 25.2925009,18.7588685 19.3399306,21.6842537 C19.0488381,21.8604519 18.6572979,21.8493715 18.4017113,21.6740236 C13.7631301,18.7855217 6.32853932,18.779897 1.69200658,21.651222 C1.53053489,21.7665409 1.36082601,21.8217003 1.18519454,21.8217003 C0.813744268,21.8217003 0.485720924,21.5757056 0.382682687,21.2197839 C0.310160586,20.9681251 0.359920056,20.6992032 0.513756492,20.4920666 C7.33845349,9.61684087 15.2271248,4.10117253 28.8242258,3.77022858 L29.1657096,3.76191711 L29.1657096,1.7705692 C29.1657096,1.31120063 29.5383808,0.938529412 29.9977494,0.938529412 C30.457516,0.938529412 30.8302359,1.31115201 30.8302359,1.7705692 L30.8302359,3.76191502 L31.1717175,3.77022853 C44.7660481,4.101188 52.6546377,9.6149678 59.4627,20.4627378 L59.4797707,20.487506 Z M51.9169377,37.4409204 L51.9169377,31.6698876 L46.1454582,31.6698876 C39.9387656,31.6698876 34.8899573,36.7186959 34.8899573,42.9253884 L34.8899573,47.5192559 L42.0377951,40.3719056 C42.3622747,40.0471116 42.8893814,40.0471116 43.2146011,40.3720169 C43.5396937,40.6971095 43.5396937,41.2241239 43.2146011,41.5489021 L36.6645693,48.0989338 L36.0670819,48.6964212 L40.6614369,48.6964212 C46.8681294,48.6964212 51.9169377,43.6476129 51.9169377,37.4409204 Z M8.07918643,37.4409204 C8.07918643,43.6476129 13.1279947,48.6964212 19.3346873,48.6964212 L23.9285955,48.6964212 L16.781196,41.5490218 C16.4563905,41.2242163 16.4563905,40.6970171 16.7813157,40.3717774 C17.1060015,40.0470917 17.6332007,40.0470917 17.9584404,40.3720169 L24.5082327,46.9218092 L25.1057201,47.5192966 L25.1057201,42.9253884 C25.1057201,36.7186959 20.0569118,31.6698876 13.8502192,31.6698876 L8.07918643,31.6698876 L8.07918643,37.4409204 Z M52.7489775,30.0053613 C53.2085208,30.0053613 53.581464,30.3782072 53.581464,30.8378478 L53.581464,37.4409204 C53.581464,44.5645631 47.7850796,50.3609475 40.6614369,50.3609475 L34.3521089,50.3609475 L34.2517882,50.4527822 C32.5483673,52.012113 31.147973,54.5604662 30.8757506,58.1978823 L30.8476019,58.5740031 L43.8175635,58.5740031 C44.2773788,58.5740031 44.65005,58.9466743 44.65005,59.4064896 C44.65005,59.8659068 44.2773301,60.2385294 43.8175635,60.2385294 L16.1781139,60.2385294 C15.7187454,60.2385294 15.3460741,59.8658582 15.3460741,59.4064896 C15.3460741,58.946723 15.7186967,58.5740031 16.1781139,58.5740031 L29.1485212,58.5740031 L29.1203736,58.1978833 C28.8483666,54.5632123 27.4491077,52.0152461 25.7435312,50.4528635 L25.6431911,50.3609475 L19.3346873,50.3609475 C12.2110445,50.3609475 6.41466014,44.5645631 6.41466014,37.4409204 L6.41466014,30.8378478 C6.41466014,30.3780811 6.78728274,30.0053613 7.24669992,30.0053613 L13.8502192,30.0053613 C20.9743087,30.0053613 26.7702464,35.8012989 26.7702464,42.9253884 L26.7702464,49.1382283 L26.8819855,49.2420697 C27.914854,50.2019344 28.9213757,51.5696907 29.6754349,53.362604 L29.998216,54.130075 L30.3207355,53.3624941 C31.0737759,51.5702938 32.0794422,50.2038474 33.1137755,49.2419919 L33.225431,49.1381604 L33.225431,42.9253884 C33.225431,35.8014549 39.0216594,30.0053613 46.1454582,30.0053613 L52.7489775,30.0053613 Z M30.8301912,29.7909429 C30.8301912,30.2503115 30.45752,30.6229827 29.9981514,30.6229827 C29.5386568,30.6229827 29.1656649,30.2501855 29.1656649,29.7909429 L29.1656649,24.7487347 C29.1656649,24.2894921 29.5386568,23.9166949 29.9981514,23.9166949 C30.45752,23.9166949 30.8301912,24.2893661 30.8301912,24.7487347 L30.8301912,29.7909429 Z" id="Combined-Shape" fill="#FFFFFF"></path>
                </g>
            </g>
        </g>
    </g>
</svg>