<?xml version="1.0" encoding="UTF-8"?>
<svg width="60px" height="60px" viewBox="0 0 60 60" version="1.1" xmlns="http://www.w3.org/2000/svg" xmlns:xlink="http://www.w3.org/1999/xlink">
    <!-- Generator: Sketch 53.2 (72643) - https://sketchapp.com -->
    <title>Group 16</title>
    <desc>Created with Sketch.</desc>
    <g id="Help" stroke="none" stroke-width="1" fill="none" fill-rule="evenodd">
        <g id="Help-centre-Copy-3" transform="translate(-1070.000000, -387.000000)">
            <g id="Group-24" transform="translate(1070.000000, 387.000000)">
                <g id="Group-16">
                    <circle id="Oval" fill="#0CD664" cx="38.5" cy="28.5" r="17.5"></circle>
                    <path d="M46.4937686,10.9933058 C45.6063412,10.9933058 44.8840041,10.2709686 44.8840041,9.38354124 C44.8840041,8.4960076 45.6064475,7.77334391 46.4937686,7.77334391 C47.3808183,7.77334391 48.1035331,8.49616896 48.1035331,9.38354124 C48.1035331,10.2708073 47.3809245,10.9933058 46.4937686,10.9933058 Z M46.4937686,18.4432242 C45.6063412,18.4432242 44.8840041,17.7208871 44.8840041,16.8334597 C44.8840041,15.945926 45.6064475,15.2232624 46.4937686,15.2232624 C47.3808183,15.2232624 48.1035331,15.9460874 48.1035331,16.8334597 C48.1035331,17.7207257 47.3809245,18.4432242 46.4937686,18.4432242 Z M46.4937686,25.8927099 C45.6063412,25.8927099 44.8840041,25.1703727 44.8840041,24.2829453 C44.8840041,23.3957894 45.6065026,22.6731808 46.4937686,22.6731808 C47.3807632,22.6731808 48.1035331,23.3959508 48.1035331,24.2829453 C48.1035331,25.1702114 47.3809245,25.8927099 46.4937686,25.8927099 Z M9.60004649,16.4196796 L27.3635881,16.4196796 L27.3635881,9.59974352 L9.60004649,9.59974352 L9.60004649,16.4196796 Z M28.3708808,7.58645647 C28.9265095,7.58645647 29.3773079,8.03715554 29.3773079,8.59288359 L29.3773079,17.4265395 C29.3773079,17.9822675 28.9265095,18.4329666 28.3708808,18.4329666 L8.59318656,18.4329666 C8.03729179,18.4329666 7.58675943,17.9824343 7.58675943,17.4265395 L7.58675943,8.59288359 C7.58675943,8.03698882 8.03729179,7.58645647 8.59318656,7.58645647 L28.3708808,7.58645647 Z M14.8263457,25.1476432 C15.3821412,25.1476432 15.8332057,25.598509 15.8332057,26.1545031 C15.8332057,26.7102312 15.3819744,27.1613631 14.8263457,27.1613631 L8.89468213,27.1613631 C8.33852129,27.1613631 7.8878222,26.7105647 7.8878222,26.1545031 C7.8878222,25.5981756 8.33835455,25.1476432 8.89468213,25.1476432 L14.8263457,25.1476432 Z M28.0689092,25.1476432 C28.6249707,25.1476432 29.0757691,25.5983423 29.0757691,26.1545031 C29.0757691,26.7103979 28.6248039,27.1613631 28.0689092,27.1613631 L22.1372456,27.1613631 C21.5810847,27.1613631 21.1303856,26.7105647 21.1303856,26.1545031 C21.1303856,25.5981756 21.580918,25.1476432 22.1372456,25.1476432 L28.0689092,25.1476432 Z M14.8263457,31.7809354 C15.3821412,31.7809354 15.8332057,32.2318011 15.8332057,32.7877953 C15.8332057,33.3435234 15.3819744,33.7946553 14.8263457,33.7946553 L8.89468213,33.7946553 C8.33852129,33.7946553 7.8878222,33.3438569 7.8878222,32.7877953 C7.8878222,32.2314678 8.33835455,31.7809354 8.89468213,31.7809354 L14.8263457,31.7809354 Z M28.0689092,31.7809354 C28.6249707,31.7809354 29.0757691,32.2316345 29.0757691,32.7877953 C29.0757691,33.3436901 28.6248039,33.7946553 28.0689092,33.7946553 L22.1372456,33.7946553 C21.5810847,33.7946553 21.1303856,33.3438569 21.1303856,32.7877953 C21.1303856,32.2314678 21.580918,31.7809354 22.1372456,31.7809354 L28.0689092,31.7809354 Z M14.8263457,38.4138381 C15.3820241,38.4138381 15.8332057,38.8650196 15.8332057,39.4211308 C15.8332057,39.9765928 15.3818077,40.4279907 14.8263457,40.4279907 L8.89468213,40.4279907 C8.33868795,40.4279907 7.8878222,39.9769263 7.8878222,39.4211308 C7.8878222,38.8646861 8.33847164,38.4138381 8.89468213,38.4138381 L14.8263457,38.4138381 Z M28.0689092,38.4138381 C28.6248536,38.4138381 29.0757691,38.8648529 29.0757691,39.4211308 C29.0757691,39.9767595 28.6246372,40.4279907 28.0689092,40.4279907 L22.1372456,40.4279907 C21.5812514,40.4279907 21.1303856,39.9769263 21.1303856,39.4211308 C21.1303856,38.8646861 21.5810351,38.4138381 22.1372456,38.4138381 L28.0689092,38.4138381 Z M34.6000013,6.5012418 C34.6000013,4.21934338 32.7437985,2.36328706 30.4620465,2.36328706 L6.50210742,2.36328706 C4.21970619,2.36328706 2.36371987,4.219127 2.36371987,6.5012418 L2.36371987,43.3870571 C2.36371987,45.6691719 4.21970619,47.5250118 6.50210742,47.5250118 L28.069039,47.5250118 C28.6250509,47.5250118 29.0758989,47.9756613 29.0758989,48.531439 C29.0758989,49.0875998 28.6251005,49.5382989 28.069039,49.5382989 L6.50210742,49.5382989 C3.10970152,49.5382989 0.35,46.778851 0.35,43.3870571 L0.35,6.5012418 C0.35,3.10944788 3.10970152,0.35 6.50210742,0.35 L30.4620465,0.35 C33.8535234,0.35 36.6137211,3.10981724 36.6137211,6.5012418 L36.6137211,30.839457 C36.6137211,31.3956178 36.1629227,31.8463169 35.6068612,31.8463169 C35.0505336,31.8463169 34.6000013,31.3957846 34.6000013,30.839457 L34.6000013,6.5012418 Z M46.4937686,57.6362801 C52.7072652,57.6362801 57.8817268,55.6038157 57.8817268,53.5026535 L57.8817268,50.2423905 L57.3478351,50.5720708 C54.8359308,52.1231819 50.7118817,53.0340635 46.4937686,53.0340635 C42.275384,53.0340635 38.1516927,52.1232352 35.6397021,50.5720708 L35.1058104,50.2423905 L35.1058104,53.5026535 C35.1058104,55.6038743 40.279977,57.6362801 46.4937686,57.6362801 Z M46.4937686,36.02722 C40.2797768,36.02722 35.1058104,38.0596933 35.1058104,40.1612795 C35.1058104,42.2625003 40.279977,44.2949061 46.4937686,44.2949061 C52.7072652,44.2949061 57.8817268,42.2624418 57.8817268,40.1612795 C57.8817268,38.0597518 52.7074654,36.02722 46.4937686,36.02722 Z M57.8817268,46.886717 L57.8817268,43.516953 L57.3478351,43.8466333 C54.836166,45.3975992 50.7123626,46.3081932 46.4937686,46.3081932 C42.2749032,46.3081932 38.1514575,45.3976524 35.6397021,43.8466333 L35.1058104,43.516953 L35.1058104,46.886717 C35.1058104,48.9883032 40.2797768,51.0207764 46.4937686,51.0207764 C52.7074654,51.0207764 57.8817268,48.9882447 57.8817268,46.886717 Z M46.4937686,33.9732488 C53.8240473,33.9732488 59.8950138,36.5299099 59.8950138,40.1205953 L59.8950138,53.5026535 C59.8950138,57.093339 53.8240473,59.65 46.4937686,59.65 C39.1634899,59.65 33.0925234,57.093339 33.0925234,53.5026535 L33.0925234,40.1205953 C33.0925234,36.5299099 39.1634899,33.9732488 46.4937686,33.9732488 Z" id="Combined-Shape" fill="#FFFFFF"></path>
                </g>
            </g>
        </g>
    </g>
</svg>