<svg width="20" height="20" viewBox="0 0 20 20" fill="none" xmlns="http://www.w3.org/2000/svg">
  <path fill-rule="evenodd" clip-rule="evenodd" d="M17.6536 12.8773L16.5934 12.3409L17.1117 11.2438L18.172 11.7801L17.6536 12.8773ZM15.165 18.1432L14.1048 17.6068L14.6231 16.5097L15.6833 17.046L15.165 18.1432ZM9.21523 13.7722L9.21618 13.7732L10.6493 14.4981L7.37989 14.0448L7.83873 13.0756L9.21523 13.7722ZM5.27642 9.60245L6.33665 10.1398L5.81739 11.2369L4.75716 10.6996L5.27642 9.60245ZM8.82532 4.87388L8.307 5.97102L7.24677 5.43466L7.76508 4.33654L8.82532 4.87388ZM15.0913 9.4051L14.0311 8.86874L14.5494 7.77159L15.6097 8.30795L15.0913 9.4051ZM15.1282 13.7741L14.0679 13.2378L14.5862 12.1406L15.6465 12.677L15.1282 13.7741ZM13.2381 14.9934L13.7564 13.8953L14.8166 14.4326L14.2983 15.5298L13.2381 14.9934ZM10.3642 12.1787L11.4244 12.7151L10.9061 13.8122L9.84495 13.2759L10.3642 12.1787ZM8.03227 10.9976L7.51301 12.0957L6.45372 11.5584L6.97204 10.4612L8.03227 10.9976ZM7.8019 8.70559L8.86214 9.24292L8.34288 10.3401L7.28359 9.80371L7.8019 8.70559ZM6.10629 7.8478L7.16558 8.38416L6.64726 9.48131L5.58703 8.94494L6.10629 7.8478ZM7.47713 7.72665L6.4169 7.18932L6.93522 6.09217L7.99545 6.62853L7.47713 7.72665ZM9.69106 7.48729L9.17275 8.58444L8.11346 8.04808L8.63177 6.95093L9.69106 7.48729ZM12.5649 10.302L11.5056 9.76463L12.0239 8.66748L13.0842 9.20482L12.5649 10.302ZM14.2615 11.1607L13.2012 10.6234L13.7196 9.52625L14.7807 10.0636L14.2615 11.1607ZM11.1941 10.4231L12.2543 10.9604L11.7351 12.0576L10.6758 11.5203L11.1941 10.4231ZM9.80907 8.90684L10.3274 7.8097L11.3876 8.34606L10.8693 9.4432L9.80907 8.90684ZM10.5577 10.1017L10.0394 11.1988L8.9792 10.6615L9.49846 9.56435L10.5577 10.1017ZM13.4316 12.9164L12.3714 12.379L12.8906 11.2819L13.9509 11.8182L13.4316 12.9164ZM12.6017 14.671L11.5415 14.1347L12.0608 13.0375L13.121 13.5739L12.6017 14.671ZM13.914 7.44919L13.3948 8.54634L12.3346 8.00998L12.8538 6.91283L13.914 7.44919ZM12.2175 6.59043L11.6982 7.68757L10.6389 7.15121L11.1573 6.05407L12.2175 6.59043ZM10.5209 5.73264L10.0026 6.82979L8.94238 6.29245L9.46164 5.1953L10.5209 5.73264ZM8.14934 12.4171L8.66859 11.32L9.72788 11.8563L9.20957 12.9535L8.14934 12.4171ZM8.96032 15.0032L12.2298 15.4565L11.7719 16.4257L8.96032 15.0032ZM12.4082 16.7481L12.9275 15.6509L13.9867 16.1873L13.4684 17.2844L12.4082 16.7481ZM15.9949 16.3885L14.9346 15.8512L15.4529 14.7541L16.5132 15.2914L15.9949 16.3885ZM16.8247 14.6329L15.7645 14.0965L16.2828 12.9994L17.3421 13.5358L16.8247 14.6329ZM16.4763 10.9223L15.958 12.0195L14.8978 11.4822L15.4161 10.386L16.4763 10.9223ZM18.8017 11.2838L15.7277 9.72653L16.4018 8.30112C16.4424 8.21416 16.449 8.11354 16.4178 8.0217C16.3876 7.92986 16.3234 7.85366 16.2384 7.81067L12.8472 6.09412H12.8463L11.1516 5.23634C11.1516 5.23536 11.1516 5.23536 11.1506 5.23536C11.1506 5.23536 11.1497 5.23536 11.1497 5.23438L8.07664 3.67903L8.62139 2.52718C8.70636 2.34546 8.63366 2.12662 8.45806 2.03673C8.2834 1.94881 8.07003 2.02403 7.98506 2.20575L7.28548 3.68587H7.28453L4.79587 8.95081C4.79493 8.95081 4.79493 8.95178 4.79493 8.95178L3.96506 10.7074V10.7084L1.0355 16.9054C0.950529 17.0871 1.02323 17.3059 1.19883 17.3948C1.24887 17.4202 1.30174 17.432 1.35366 17.432C1.48489 17.432 1.61046 17.3567 1.67183 17.2268L4.44655 11.3581L7.2024 12.7532L6.52831 14.1796C6.51981 14.1972 6.51887 14.2177 6.5132 14.2372C6.50754 14.2558 6.49809 14.2714 6.49526 14.2919C6.49526 14.2959 6.49715 14.2998 6.49621 14.3037C6.49432 14.3291 6.49809 14.3535 6.50093 14.3779C6.50282 14.4023 6.50282 14.4258 6.51037 14.4483C6.51131 14.4522 6.51037 14.4561 6.51131 14.459C6.5132 14.4639 6.51887 14.4649 6.52075 14.4688C6.55096 14.5518 6.60761 14.6212 6.68503 14.6622C6.68786 14.6642 6.68786 14.6681 6.69069 14.6691L11.7785 17.2453H11.7794L15.1716 18.9629C15.2216 18.9873 15.2745 19 15.3264 19C15.4577 19 15.5842 18.9238 15.6455 18.7939L16.4745 17.0392V17.0382L17.3043 15.2836V15.2826L18.1342 13.5289C18.1342 13.5279 18.1342 13.5279 18.1351 13.527L18.9641 11.7733C19.05 11.5916 18.9763 11.3727 18.8017 11.2838Z" fill="#DE1E7E"/>
</svg>
