<svg width="56" height="56" viewBox="0 0 56 56" fill="none" xmlns="http://www.w3.org/2000/svg">
<g clip-path="url(#clip0)">
<path d="M56.0016 27.9999C56.0016 43.4639 43.4658 56 28.002 56C12.5379 56 0.00195312 43.4639 0.00195312 27.9999C0.00195312 12.536 12.5379 3.05176e-05 28.002 3.05176e-05C43.4657 3.05176e-05 56.0016 12.536 56.0016 27.9999Z" fill="#5A5F65"/>
<path d="M50.0558 28.0001C50.0558 40.1801 40.1815 50.0553 28.0008 50.0553C15.8203 50.0553 5.94531 40.1801 5.94531 28.0001C5.94531 15.8191 15.8203 5.94458 28.0008 5.94458C40.1816 5.94458 50.0558 15.8189 50.0558 28.0001Z" fill="#5A5F65"/>
<path d="M26.3643 35.4798L28.183 28.6317L32.4888 27.0587L33.5598 23.034L33.5232 22.9342L29.2848 24.4826L32.3386 12.9838H23.6779L19.6843 27.99L16.3498 29.2081L15.248 33.3572L18.5799 32.1402L16.2262 40.984H39.2757L40.7533 35.4798H26.3643Z" fill="#31373F"/>
</g>
<defs>
<clipPath id="clip0">
<rect width="56" height="56" fill="white"/>
</clipPath>
</defs>
</svg>
