<?xml version="1.0" encoding="UTF-8"?>
<svg width="60px" height="60px" viewBox="0 0 60 60" version="1.1" xmlns="http://www.w3.org/2000/svg" xmlns:xlink="http://www.w3.org/1999/xlink">
    <!-- Generator: Sketch 53.2 (72643) - https://sketchapp.com -->
    <title>Group 14</title>
    <desc>Created with Sketch.</desc>
    <g id="Help" stroke="none" stroke-width="1" fill="none" fill-rule="evenodd">
        <g id="Help-centre-Copy-3" transform="translate(-680.000000, -387.000000)">
            <g id="Group-23" transform="translate(680.000000, 387.000000)">
                <g id="Group-14">
                    <circle id="Oval" fill="#0CD664" cx="39.5" cy="25.5" r="17.5"></circle>
                    <path d="M57.5331637,56.796087 L57.5331637,43.4652174 C57.5331637,42.5810934 56.8143347,41.8626087 55.9301202,41.8626087 L36.750555,41.8626087 C35.8666892,41.8626087 35.1479463,42.5811794 35.1479463,43.4652174 L35.1479463,56.796087 C35.1479463,57.6801249 35.8666892,58.3986957 36.750555,58.3986957 L55.9301202,58.3986957 C56.8143347,58.3986957 57.5331637,57.680211 57.5331637,56.796087 Z M40.3783811,34.2986957 L40.3783811,40.2613043 L52.3027289,40.2613043 L52.3027289,34.2986957 C52.3027289,31.0111225 49.6282768,28.3369565 46.340555,28.3369565 C43.0525442,28.3369565 40.3783811,31.0109767 40.3783811,34.2986957 Z M55.9301202,40.2613043 C57.6967598,40.2613043 59.134468,41.6988911 59.134468,43.4652174 L59.134468,56.796087 C59.134468,58.5624132 57.6967598,60 55.9301202,60 L36.750555,60 C34.9842894,60 33.5466419,58.5623525 33.5466419,56.796087 L33.5466419,43.4652174 C33.5466419,41.6989518 34.9842894,40.2613043 36.750555,40.2613043 L38.7770767,40.2613043 L38.7770767,34.2986957 C38.7770767,30.1288875 42.1704407,26.7356522 46.340555,26.7356522 C50.5106692,26.7356522 53.9040333,30.1288875 53.9040333,34.2986957 L53.9040333,40.2613043 L55.9301202,40.2613043 Z M46.3403376,47.2741304 C47.2787771,47.2741304 48.0425115,48.0378649 48.0425115,48.9763043 C48.0425115,49.5457935 47.7585944,50.0687574 47.2939639,50.3847062 L47.1407724,50.4888764 L47.1407724,52.1867391 C47.1407724,52.6288275 46.7825195,52.9871739 46.3403376,52.9871739 C45.8984199,52.9871739 45.5399028,52.6286569 45.5399028,52.1867391 L45.5399028,50.4888764 L45.3867113,50.3847062 C44.9222768,50.0688907 44.6385985,49.5460057 44.6385985,48.9763043 C44.6385985,48.0379207 45.4022771,47.2741304 46.3403376,47.2741304 Z M28.1956046,48.562357 C28.5790334,48.3422181 29.0681396,48.4748539 29.2881381,48.8585651 C29.5084617,49.2420132 29.3759608,49.7314056 28.9924681,49.9512788 C26.2873928,51.5036747 22.8776755,53.133915 22.4101068,53.207911 C22.3698375,53.2143767 22.3285022,53.2175217 22.2848159,53.2175217 C22.2413843,53.2175217 22.1996328,53.2143507 22.1603093,53.208036 C22.0547896,53.1912345 20.2705799,52.4087459 18.6661006,51.607304 C16.0659449,50.3085189 13.4491422,48.7913117 11.0160638,47.0916823 C4.14673392,42.2931052 0.0308959557,36.9929341 0.013074957,31.3937991 C0.00031926525,27.3654755 -0.00248106483,22.7183005 0.00198962537,17.8545282 C0.00470471019,14.9007216 0.0109761501,11.6610405 0.0130739741,11.1323889 C0.0142857035,10.6905066 0.372118154,10.3336087 0.813511512,10.3336087 C5.59333291,10.3336087 9.48090282,6.44603879 9.48090282,1.66621739 C9.48090282,1.22429966 9.83941987,0.865782609 10.2813376,0.865782609 L34.2882941,0.865782609 C34.7305998,0.865782609 35.0891637,1.22425289 35.0891637,1.66621739 C35.0891637,6.44596865 38.9766634,10.3336087 43.7561202,10.3336087 C44.1976375,10.3336087 44.5557811,10.6906305 44.5569911,11.1319596 C44.5573984,11.2847936 44.5581117,11.5759316 44.5590287,11.9905784 C44.5605571,12.6816831 44.5620855,13.4669166 44.563512,14.3315774 C44.5675878,16.8020481 44.5700333,19.4138157 44.5700333,22.0492609 C44.5700333,22.4912254 44.2114694,22.8496957 43.7691637,22.8496957 C43.327246,22.8496957 42.9687289,22.4911786 42.9687289,22.0492609 C42.9687289,18.5061114 42.9642864,15.1256537 42.9578585,12.222399 L42.9571643,11.9088394 L42.6454142,11.8751946 C37.8701846,11.3598397 34.0646807,7.55495576 33.5475644,2.77940775 L33.513745,2.46708696 L11.0563215,2.46708696 L11.0225021,2.77940775 C10.5053972,7.55485104 6.69955176,11.3598284 1.92421757,11.8751946 L1.61245518,11.9088407 L1.61177321,12.2224127 C1.59861786,18.2712409 1.59561355,25.3940178 1.61438279,31.3890523 C1.6294511,36.1000789 5.07170291,40.6673282 10.8915681,44.9739763 C14.6414553,47.7488592 18.7801589,49.9985145 22.150038,51.4910178 L22.2902688,51.5531253 L22.430984,51.4921232 C23.9483987,50.8343018 26.0395528,49.7994768 28.1956046,48.562357 Z M16.062442,9.55978271 C14.4267504,12.7084571 11.8473808,15.2860583 8.69706971,16.9204526 L8.50848794,17.0182896 L8.50825086,17.2307399 C8.50270755,22.1981033 8.5050254,27.1555446 8.51825237,31.3670123 C8.52462813,33.3510348 10.9589975,36.5297991 15.4022301,39.7442677 C17.5216323,41.2781156 19.8220993,42.6498192 22.1245963,43.8349362 L22.2847817,43.9173851 L22.4449631,43.8349287 C24.5200339,42.7667464 26.6149648,41.5349297 28.578716,40.1628166 C28.9410935,39.9096363 29.4404046,39.998251 29.6940607,40.3608763 C29.9471239,40.7230864 29.8585119,41.2222893 29.4960569,41.4755237 C27.2848637,43.0202592 24.9309532,44.3822879 22.6438251,45.5305101 C22.5326025,45.5862704 22.4096421,45.6150435 22.2847724,45.6150435 C22.1600186,45.6150435 22.0373348,45.5863171 21.9252102,45.5302548 C19.404401,44.265201 16.8328733,42.7561174 14.4638619,41.0419247 C9.66704227,37.5710483 6.92560909,34.0239592 6.91694443,31.3721607 C6.90325523,26.9868081 6.90143197,21.8974389 6.90738086,16.5136911 C6.9079862,16.2029152 7.08819268,15.9204729 7.36991263,15.7892858 C10.6949665,14.2392841 13.3801429,11.5555062 14.931918,8.23135375 C15.0634521,7.94984073 15.3463322,7.76982609 15.6573811,7.76982609 L28.9121637,7.76982609 C29.2233359,7.76982609 29.5064347,7.9499258 29.6375474,8.23118367 C31.1899037,11.5556283 33.8751281,14.2393377 37.1999384,15.7892259 C37.4815668,15.9205113 37.6619938,16.2031662 37.6625991,16.5139859 C37.6662821,19.7682365 37.666934,23.0291279 37.6634683,26.1359574 C37.662863,26.5780505 37.3046265,26.935913 36.8617289,26.935913 C36.4198789,26.9353083 36.061861,26.576542 36.0621636,26.1344135 C36.0655658,23.3499421 36.065051,20.4993153 36.0617287,17.2307747 L36.0615127,17.0182873 L35.8728927,16.9204437 C32.7224947,15.2862253 30.1434027,12.7087911 28.5075375,9.55978271 L28.4095353,9.37113043 L16.1604442,9.37113043 L16.062442,9.55978271 Z" id="Combined-Shape" fill="#FFFFFF"></path>
                </g>
            </g>
        </g>
    </g>
</svg>