<svg width="20" height="20" viewBox="0 0 20 20" fill="none" xmlns="http://www.w3.org/2000/svg">
  <path d="M16.1445 3.62103C16.1445 4.63275 16.9336 5.5351 18.0586 5.5351C19.0703 5.5351 19.9727 4.74603 19.9727 3.62103C19.9727 2.60931 19.1836 1.70697 18.0586 1.70697C17.043 1.82025 16.1445 2.60931 16.1445 3.62103Z" fill="#DE1E7E"/>
  <path d="M18.9609 18.2656C18.8476 18.039 18.5117 17.9296 18.2851 18.039C17.7226 18.2656 17.0468 18.4882 16.3711 18.4882C15.9218 18.4882 15.4687 18.3749 15.1328 18.1523C14.9062 18.039 11.1914 15.2226 10.0664 14.3242C10.1796 14.2109 10.2929 14.2109 10.4023 14.0976L14.0078 10.3828H16.9375C17.3867 10.3828 17.8398 10.0468 17.8398 9.48041C17.8398 9.03119 17.5039 8.57806 16.9375 8.57806H16.8242L14.9101 7.11322C14.9101 7.11322 15.1367 6.77728 15.4726 6.32416C15.8086 5.87494 15.9218 5.5351 15.9218 5.31244C15.9218 4.4101 15.2461 3.73431 14.3437 3.73431H10.5156L6.91012 1.25775L7.24605 0.921814C7.35934 0.808533 7.35934 0.585876 7.13277 0.472595C6.90621 0.359314 6.79684 0.359314 6.68355 0.472595L6.34762 0.921814L5.8984 0.585876C5.78512 0.472595 5.56246 0.472595 5.56246 0.585876C5.44918 0.812439 5.44918 0.921814 5.56246 1.0351L6.01168 1.37103L5.67574 1.82025C5.56246 1.93353 5.56246 2.15619 5.78902 2.26947C5.9023 2.26947 5.9023 2.38275 6.01559 2.38275C6.12887 2.38275 6.24215 2.38275 6.24215 2.26947L6.57809 1.82025L9.50777 4.07416H7.25387C6.35152 3.96088 5.67574 4.63666 5.67574 5.539C5.67574 6.1015 6.01168 6.664 6.4648 6.89056L10.9687 10.2695L8.82809 12.5234C8.60152 12.7499 8.49215 12.9726 8.49215 13.1992C5.66793 11.0546 2.62887 8.69135 0.824179 7.33978C0.597617 7.2265 0.261679 7.2265 0.148398 7.45306C-0.0781643 7.67963 0.0351169 7.90228 0.261679 8.12885C2.17574 9.58978 14.4531 18.8281 14.6796 19.0507C15.2421 19.3867 15.8046 19.6132 16.4804 19.6132C17.3828 19.6132 18.1679 19.3867 18.7343 19.0507C18.9609 18.8281 19.0703 18.6015 18.9609 18.2656ZM15.8046 8.80463H14.1171L14.6796 7.90228L15.8046 8.80463ZM10.625 7.11322H13.2148L12.3125 8.46478L10.625 7.11322Z" fill="#DE1E7E"/>
</svg>
