<?xml version="1.0" encoding="UTF-8"?>
<svg width="64px" height="60px" viewBox="0 0 64 60" version="1.1" xmlns="http://www.w3.org/2000/svg" xmlns:xlink="http://www.w3.org/1999/xlink">
    <!-- Generator: Sketch 53.2 (72643) - https://sketchapp.com -->
    <title>Group 9</title>
    <desc>Created with Sketch.</desc>
    <g id="Cashier" stroke="none" stroke-width="1" fill="none" fill-rule="evenodd">
        <g id="Deposit" transform="translate(-1210.000000, -185.000000)">
            <g id="Group-2" transform="translate(1170.000000, 145.000000)">
                <g id="Group-9" transform="translate(40.000000, 40.000000)">
                    <circle id="Oval" fill="#0CD664" cx="41.75" cy="21.75" r="21.75"></circle>
                    <path d="M33.1540803,12.4349762 L14.9343836,12.4349762 C14.4535446,12.4349762 14.0634695,12.0449974 14.0634695,11.564062 C14.0634695,11.0831267 14.4535446,10.6931479 14.9343836,10.6931479 L33.1540803,10.6931479 C33.6351867,10.6931479 34.0249944,11.0829556 34.0249944,11.564062 C34.0249944,12.0451685 33.6351867,12.4349762 33.1540803,12.4349762 Z M33.1540803,19.7938025 L14.9343836,19.7938025 C14.4535446,19.7938025 14.0634695,19.4038237 14.0634695,18.9228884 C14.0634695,18.441953 14.4535446,18.0519742 14.9343836,18.0519742 L33.1540803,18.0519742 C33.6351867,18.0519742 34.0249944,18.441782 34.0249944,18.9228884 C34.0249944,19.4039948 33.6351867,19.7938025 33.1540803,19.7938025 Z M33.1540803,27.1526289 L14.9343836,27.1526289 C14.4535446,27.1526289 14.0634695,26.76265 14.0634695,26.2817147 C14.0634695,25.8010468 14.4537157,25.4108005 14.9343836,25.4108005 L33.1540803,25.4108005 C33.6350156,25.4108005 34.0249944,25.8008757 34.0249944,26.2817147 C34.0249944,26.7628211 33.6351867,27.1526289 33.1540803,27.1526289 Z M5.77673991,1.74182831 C3.55148625,1.74182831 1.74182831,3.55148625 1.74182831,5.77673991 L1.74182831,32.0690368 C1.74182831,34.2942905 3.55148625,36.1039484 5.77673991,36.1039484 L32.432545,36.1039484 C32.7535261,36.1039484 33.0487224,36.2808587 33.2003862,36.5642552 L36.1856064,42.1422515 L39.1703463,36.5642369 C39.3220836,36.2807033 39.6169342,36.1039484 39.9381778,36.1039484 L42.311724,36.1039484 C44.5369776,36.1039484 46.3466356,34.2942905 46.3466356,32.0690368 L46.3466356,5.77673991 C46.3466356,3.55148625 44.5369776,1.74182831 42.311724,1.74182831 L5.77673991,1.74182831 Z M36.1855806,44.8594238 C35.8642043,44.8594238 35.5689852,44.6825517 35.417301,44.399117 L31.9106297,37.8457767 L5.77673991,37.8457767 C2.59190435,37.8457767 4.72510919e-13,35.2538724 4.72510919e-13,32.0690368 L4.72510919e-13,5.77673991 C4.72510919e-13,2.59190435 2.59190435,0 5.77673991,0 L42.311724,0 C45.4969341,0 48.0889024,2.59184039 48.0889024,5.77673991 L48.0889024,32.0690368 C48.0889024,35.2539364 45.4969341,37.8457767 42.311724,37.8457767 L40.4601061,37.8457767 L36.9529835,44.3991168 C36.8016151,44.6825429 36.5065543,44.8594238 36.1855806,44.8594238 Z M23.8145509,60 C23.4935698,60 23.1983735,59.8230898 23.0467097,59.5396933 L19.5400384,52.986353 L17.6879691,52.986353 C14.5031062,52.986353 11.9107907,50.3944213 11.9107907,47.2100516 L11.9107907,43.1071009 C11.9107907,42.6261174 12.300914,42.2361868 12.7821433,42.2361868 C13.2629824,42.2361868 13.6530575,42.6261656 13.6530575,43.1071009 L13.6530575,47.2100516 C13.6530575,49.4346475 15.4629347,51.2445247 17.6879691,51.2445247 L20.0615153,51.2445247 C20.3828916,51.2445247 20.6781107,51.4213968 20.829795,51.7048314 L23.5010661,56.6970214 L23.8145509,57.2828758 L26.7993166,51.7048132 C26.9509911,51.4213968 27.2462102,51.2445247 27.5675865,51.2445247 L54.2233916,51.2445247 C56.4481323,51.2445247 58.2583032,49.4345027 58.2583032,47.2100516 L58.2583032,20.9173161 C58.2583032,18.692501 56.4482068,16.8824045 54.2233916,16.8824045 L53.3503581,16.8824045 C52.8692517,16.8824045 52.479444,16.4925968 52.479444,16.0114904 C52.479444,15.530384 52.8692517,15.1405762 53.3503581,15.1405762 L54.2233916,15.1405762 C57.4082272,15.1405762 60.0001315,17.7324806 60.0001315,20.9173161 L60.0001315,47.2100516 C60.0001315,50.3945126 57.4081632,52.986353 54.2233916,52.986353 L28.0890634,52.986353 L24.5823832,59.5397099 C24.4306451,59.8232451 24.1357944,60 23.8145509,60 Z" id="Combined-Shape" fill="#FFFFFF"></path>
                </g>
            </g>
        </g>
    </g>
</svg>