<svg width="26" height="16" viewBox="0 0 26 16" fill="none" xmlns="http://www.w3.org/2000/svg">
<circle cx="8" cy="8" r="8" fill="#1F262F"/>
<path fill-rule="evenodd" clip-rule="evenodd" d="M8.26871 9.89421V8.26866H13.4491C13.3882 9.51952 12.9082 10.6593 12.1424 11.5513C11.0864 10.5383 9.73163 9.95869 8.26871 9.89421ZM8.26871 10.4315C9.59193 10.4953 10.817 11.0233 11.7734 11.9403C10.8521 12.8229 9.6256 13.3832 8.26871 13.4498V10.4315ZM7.73131 10.4315V13.4498C6.3737 13.3824 5.14647 12.8229 4.22516 11.9396C5.18158 11.0226 6.41167 10.4953 7.73131 10.4315ZM7.73134 5.56919C6.40812 5.50543 5.18161 4.97815 4.22591 4.06042C5.14722 3.17779 6.37445 2.61827 7.73134 2.55093V5.56919ZM8.26871 5.56919V2.55093C9.62632 2.61827 10.8535 3.17851 11.7749 4.06114C10.8184 4.97815 9.58835 5.50543 8.26871 5.56919ZM13.4491 7.73134H8.26871V6.10651C9.72733 6.04275 11.0878 5.46245 12.1438 4.45087C12.9089 5.34209 13.3882 6.48191 13.4491 7.73134ZM3.85703 4.44943C4.91303 5.46244 6.26849 6.04274 7.73142 6.1065V7.73134H2.551C2.61189 6.48119 3.09118 5.34208 3.85703 4.44943ZM2.551 8.26866H7.73142V9.89421C6.27279 9.95797 4.91303 10.5376 3.85631 11.5506C3.09118 10.6579 2.61189 9.51881 2.551 8.26866ZM12.3616 12.1079C13.3739 11.0333 14 9.58973 14 8C14 4.69158 11.3084 2 8 2C6.29564 2 4.75893 2.71785 3.66567 3.86269C3.66209 3.86555 3.65779 3.86412 3.65493 3.86698C3.64991 3.87128 3.65206 3.87845 3.64776 3.88203C2.62901 4.95809 2 6.40597 2 8C2 11.3091 4.69158 14 8 14C9.70006 14 11.2339 13.2864 12.3264 12.1466C12.3329 12.1416 12.3422 12.1438 12.3479 12.138C12.3565 12.1294 12.3544 12.1173 12.3616 12.1079Z" fill="#8697A2"/>
<circle cx="13.333" cy="8" r="8" fill="#1F262F"/>
<path fill-rule="evenodd" clip-rule="evenodd" d="M16.9606 12.0737V10.762C17.0366 10.618 17.5509 9.58211 17.5409 8.0283C17.5416 8.01827 17.5416 8.00824 17.5416 7.99964L17.5423 7.97672C17.5423 7.96884 17.5416 7.95953 17.5409 7.95093C17.5459 6.40857 17.0366 5.38201 16.9606 5.23802V3.92633C18.0839 4.92783 18.7967 6.38063 18.7967 7.99964C18.7967 9.61937 18.0839 11.0722 16.9606 12.0737ZM12.1508 13.3295V11.7492C12.5112 11.8079 12.8987 11.8502 13.3343 11.8502C13.7541 11.8502 14.128 11.81 14.479 11.7549V13.3395C14.1094 13.419 13.7268 13.462 13.3343 13.462C12.9274 13.462 12.5319 13.414 12.1508 13.3295ZM7.87119 7.99965C7.87119 6.38995 8.5761 4.94502 9.68792 3.94425V5.27527C9.5604 5.5346 9.11625 6.53967 9.12699 7.97887H9.12914C9.12699 7.99392 9.12556 8.00896 9.12556 8.024C9.12556 8.03188 9.12628 8.0412 9.12699 8.04979C9.12198 9.47395 9.56112 10.4676 9.68792 10.7247V12.0558C8.5761 11.055 7.87119 9.61006 7.87119 7.99965ZM14.4977 2.66552V4.24799C14.1424 4.1914 13.762 4.14913 13.3343 4.14913C12.9059 4.14913 12.5255 4.1914 12.1702 4.24799V2.66552C12.5456 2.58385 12.9339 2.53729 13.3343 2.53729C13.7341 2.53729 14.1223 2.58385 14.4977 2.66552ZM16.4234 4.85762C16.1125 4.695 15.6433 4.49871 15.0272 4.35042C15.0293 4.33681 15.0351 4.32463 15.0351 4.31031V2.81237C15.533 2.97642 16 3.20852 16.4234 3.49937V4.85762ZM9.79689 6.65644C9.92154 6.064 10.0992 5.65996 10.1658 5.5217C10.4051 5.36267 11.5284 4.68641 13.3343 4.68641C15.1117 4.68641 16.2371 5.34906 16.4928 5.51597C16.4979 5.5217 16.5022 5.52815 16.5079 5.53388C16.5774 5.68074 16.7486 6.07761 16.8711 6.65644H9.79689ZM17.0036 7.97457C17.0036 7.98173 17.0036 7.98961 17.0043 7.99677V7.99964V8.0025C17.0036 8.01039 17.0036 8.01826 17.0036 8.02614C17.005 8.30553 16.9857 8.56414 16.957 8.80556H9.71015C9.6815 8.56486 9.66215 8.30625 9.6643 8.02614C9.6643 8.01755 9.6643 8.00895 9.66359 8.00036C9.6643 7.99248 9.6643 7.98316 9.6643 7.97457C9.66215 7.69518 9.68221 7.43585 9.71087 7.19372H16.957C16.9857 7.43585 17.005 7.69518 17.0036 7.97457ZM10.2253 4.86765V3.51441C10.6537 3.2164 11.1272 2.97928 11.633 2.81237V4.35257C11.0068 4.50373 10.534 4.70503 10.2253 4.86765ZM11.6136 13.1805C11.115 13.0143 10.6487 12.78 10.2253 12.4856V11.1324C10.534 11.295 11.0068 11.4956 11.6322 11.6467C11.6215 11.6761 11.6136 11.7062 11.6136 11.7384V13.1805ZM16.5021 10.4776C16.2629 10.6373 15.1396 11.3129 13.3343 11.3129C11.5384 11.3129 10.4058 10.6359 10.1651 10.4769C10.0984 10.3393 9.92079 9.93672 9.79614 9.34284H16.8711C16.7464 9.936 16.5687 10.34 16.5021 10.4776ZM16.4234 11.1424V12.5006C15.9943 12.7958 15.5215 13.0307 15.0164 13.1941V11.6524C15.6375 11.5042 16.1111 11.3057 16.4234 11.1424ZM14.8874 2.21133C14.8509 2.1927 14.8108 2.17909 14.7664 2.17909C14.7664 2.17909 14.7657 2.17981 14.7649 2.17981C14.305 2.06662 13.8279 2 13.3343 2C10.0254 2 7.33398 4.69142 7.33398 7.99964C7.33398 11.3086 10.0254 13.9993 13.3343 13.9993C16.6426 13.9993 19.334 11.3086 19.334 7.99964C19.334 5.22942 17.4442 2.89833 14.8874 2.21133Z" fill="#8697A2"/>
<circle cx="18" cy="8" r="8" fill="#1F262F"/>
<path fill-rule="evenodd" clip-rule="evenodd" d="M22.5915 8L23.313 6.75128C23.4075 7.15248 23.4627 7.56943 23.4627 8C23.4627 8.43057 23.4075 8.84752 23.313 9.24943L22.5915 8ZM20.3041 11.9912H21.7169C21.1172 12.5507 20.3958 12.9791 19.5927 13.2241L20.3041 11.9912ZM15.696 11.9912L16.4074 13.2241C15.6043 12.9791 14.8821 12.5507 14.2825 11.9912H15.696ZM15.696 4.00883H14.2825C14.8821 3.44931 15.6043 3.02089 16.4074 2.77516L15.696 4.00883ZM20.304 4.00883L19.5919 2.77516C20.3957 3.02089 21.1172 3.44931 21.7168 4.00883H20.304ZM22.1266 7.73135H20.304L19.3849 6.13875L20.304 4.54615H22.1266L23.0458 6.13875L22.1266 7.73135ZM17.0802 10.1306H18.9028L19.8305 11.7375L18.92 13.3158H17.0802L16.161 11.7225L17.0802 10.1306ZM13.8377 8.26866H15.6767L16.5959 9.86197L15.6767 11.4538H13.8377L12.9185 9.86197L13.8377 8.26866ZM15.6767 4.54615L16.5959 6.13875L15.6767 7.73135H13.8377L12.9185 6.13875L13.8377 4.54615H15.6767ZM18.9028 5.87009H17.0802L16.161 4.27749L17.0802 2.6849H18.92L19.8305 4.26245L18.9028 5.87009ZM17.0802 9.59331L16.161 8L17.0802 6.4074H18.9028L19.8219 8L18.9028 9.59331H17.0802ZM20.304 11.4538L19.3849 9.86197L20.304 8.26866H22.1266L23.0458 9.86197L22.1266 11.4538H20.304ZM12.5373 8C12.5373 7.58519 12.5881 7.18256 12.6755 6.79355L13.3719 8L12.6762 9.20644C12.5881 8.81815 12.5373 8.4148 12.5373 8ZM18 2C14.6916 2 12 4.69158 12 8C12 11.3084 14.6916 14 18 14C21.3084 14 24 11.3084 24 8C24 4.69158 21.3084 2 18 2Z" fill="#8697A2"/>
</svg>
