<svg width="20" height="20" viewBox="0 0 20 20" fill="none" xmlns="http://www.w3.org/2000/svg">
  <path fill-rule="evenodd" clip-rule="evenodd" d="M15.3303 4.68355C15.9255 4.68355 16.4102 5.16848 16.4102 5.76384C16.4102 6.3592 15.9255 6.84412 15.3303 6.84412C14.7351 6.84412 14.2503 6.3592 14.2503 5.76384C14.2503 5.16848 14.7351 4.68355 15.3303 4.68355ZM15.3303 7.56432C16.3229 7.56432 17.1302 6.75674 17.1302 5.76384C17.1302 4.77093 16.3229 3.96336 15.3303 3.96336C14.3377 3.96336 13.5303 4.77093 13.5303 5.76384C13.5303 6.75674 14.3377 7.56432 15.3303 7.56432ZM17.3558 18.131L14.0113 14.7864L14.7869 14.0096L18.1315 17.3551L17.3558 18.131ZM2.83727 2.83314C3.59084 2.0803 4.61417 1.7154 5.72197 1.7154C7.27424 1.7154 8.99162 2.43175 10.3567 3.79723C11.4789 4.91977 12.1499 6.27949 12.3563 7.59024C12.3717 7.76309 12.388 7.92729 12.4043 8.09054C12.4849 9.32735 12.149 10.4893 11.3195 11.318C10.421 12.2196 9.13177 12.5624 7.77534 12.3925L7.7523 12.3896C6.39299 12.2139 4.96744 11.5215 3.80107 10.3539C1.46259 8.01564 1.03061 4.64034 2.83727 2.83314ZM14.0257 13.7522L13.7367 14.0422C13.3019 13.7301 12.3131 13.1837 10.3941 12.7756C10.9308 12.5519 11.4175 12.2398 11.8302 11.8279C12.2305 11.4255 12.5425 10.954 12.7633 10.4336C13.1723 12.3377 13.7147 13.3201 14.0257 13.7522ZM18.8956 17.1006L15.0413 13.2452C14.9089 13.1136 14.6823 13.1165 14.546 13.2404C14.1956 12.7094 13.4977 11.3151 13.155 8.345C13.1512 8.13855 13.1387 7.92825 13.1128 7.71412C13.1022 7.61713 13.0801 7.52014 13.0648 7.42316C13.0638 7.40587 13.0609 7.39051 13.06 7.37323C13.059 7.3617 13.0532 7.35306 13.0513 7.34346C12.7893 5.87523 12.027 4.44829 10.8674 3.28734C8.24572 0.66584 4.41641 0.233725 2.32752 2.32324C1.30516 3.34687 0.849175 4.80838 1.04405 6.43698C1.23508 8.03292 2.03377 9.60582 3.29133 10.8647C4.41545 11.9873 5.79013 12.742 7.20896 13.0262C7.25408 13.0531 7.304 13.0714 7.35871 13.0762C7.47487 13.0858 7.57951 13.0983 7.69182 13.1079C7.70046 13.1088 7.7091 13.1108 7.71678 13.1117C7.73598 13.1136 7.75326 13.1127 7.7715 13.1156C11.1429 13.4315 12.6769 14.1997 13.2318 14.5684C13.1204 14.7096 13.1176 14.9103 13.2481 15.0409L17.1014 18.8953C17.1715 18.9654 17.2646 19 17.3558 19C17.448 19 17.5411 18.9654 17.6112 18.8953L18.8956 17.6105C19.0348 17.4694 19.0348 17.2408 18.8956 17.1006Z" fill="white"/>
</svg>
