<svg width="20" height="20" viewBox="0 0 20 20" fill="none" xmlns="http://www.w3.org/2000/svg">
<path d="M6.77379 5C7.93078 5 8.78121 5.2302 9.32509 5.69061C9.87886 6.15101 10.1557 6.88306 10.1557 7.88674C10.1557 8.55893 10.0124 9.09761 9.72559 9.50276C9.43881 9.90792 9.07293 10.2164 8.62794 10.4282L10.7787 14.8619H8.46477L6.74413 11.0773H6.09147V14.8619H4V5H6.77379ZM6.58096 6.71271H6.09147V9.37845H6.61063C7.12485 9.37845 7.49073 9.26335 7.70828 9.03315C7.93572 8.80295 8.04944 8.46225 8.04944 8.01105C8.04944 7.54144 7.93078 7.20994 7.69345 7.01657C7.45612 6.814 7.08529 6.71271 6.58096 6.71271ZM13.5377 7.18232C13.9629 7.18232 14.3684 7.22836 14.754 7.32044C15.1397 7.41252 15.5303 7.56446 15.9258 7.77624L15.3918 9.25414C15.0754 9.09761 14.7738 8.96869 14.487 8.8674C14.2002 8.75691 13.9135 8.70166 13.6267 8.70166C13.1026 8.70166 12.8405 8.87661 12.8405 9.22652C12.8405 9.34622 12.8702 9.45672 12.9295 9.55801C12.9988 9.65009 13.1323 9.75138 13.33 9.86188C13.5278 9.97238 13.8146 10.1197 14.1904 10.3039C14.5562 10.4788 14.8727 10.6584 15.1397 10.8425C15.4166 11.0267 15.6292 11.2569 15.7775 11.5331C15.9258 11.8094 16 12.1731 16 12.6243C16 13.3886 15.7528 13.9779 15.2583 14.3923C14.7738 14.7974 14.0569 15 13.1075 15C12.6329 15 12.2274 14.9632 11.8912 14.8895C11.555 14.825 11.2138 14.7145 10.8677 14.558V12.8591C11.2138 13.0433 11.5847 13.1952 11.9802 13.3149C12.3857 13.4346 12.7417 13.4945 13.0482 13.4945C13.3943 13.4945 13.6415 13.4346 13.7899 13.3149C13.9481 13.1952 14.0272 13.0387 14.0272 12.8453C14.0272 12.7164 13.9975 12.6013 13.9382 12.5C13.8789 12.3895 13.7503 12.2698 13.5525 12.1409C13.3548 12.0028 13.0482 11.8324 12.6329 11.6298C12.0198 11.3352 11.5698 11.0267 11.2831 10.7044C10.9963 10.3821 10.8529 9.93094 10.8529 9.35083C10.8529 8.65101 11.0952 8.11694 11.5797 7.74862C12.0742 7.37109 12.7268 7.18232 13.5377 7.18232Z" fill="#DE1E7E"/>
</svg>
