<?xml version="1.0" encoding="UTF-8"?>
<svg width="60px" height="60px" viewBox="0 0 60 60" version="1.1" xmlns="http://www.w3.org/2000/svg" xmlns:xlink="http://www.w3.org/1999/xlink">
    <!-- Generator: Sketch 53.2 (72643) - https://sketchapp.com -->
    <title>Group 15</title>
    <desc>Created with Sketch.</desc>
    <g id="UI-kit" stroke="none" stroke-width="1" fill="none" fill-rule="evenodd">
        <g id="Banners" transform="translate(-108.000000, -104.000000)">
            <g id="Group-2" transform="translate(68.000000, 64.000000)">
                <g id="Group-15" transform="translate(40.000000, 40.000000)">
                    <circle id="Oval" fill="#0CD664" cx="37.5" cy="25.5" r="17.5"></circle>
                    <path d="M5.57172287,2.40201809 C3.79576665,2.40201809 2.35139309,3.84624199 2.35139309,5.62234787 L2.35139309,20.9487309 L45.7495952,20.9487309 L45.7495952,5.62234787 C45.7495952,3.84616716 44.3051468,2.40201809 42.5288346,2.40201809 L5.57172287,2.40201809 Z M27.6976484,30.2742043 L2.35139309,30.2742043 L2.35139309,32.1300287 C2.35139309,33.9058443 3.79590725,35.3503585 5.57172287,35.3503585 L27.6976484,35.3503585 C28.2505828,35.3503585 28.6983665,35.7981422 28.6983665,36.3510766 C28.6983665,36.9037462 28.2504167,37.3517947 27.6976484,37.3517947 L5.57172287,37.3517947 C2.69277649,37.3517947 0.349956915,35.00885 0.349956915,32.1300287 L0.349956915,5.62234787 C0.349956915,2.7432486 2.6926236,0.400581915 5.57172287,0.400581915 L42.5288346,0.400581915 C45.4083022,0.400581915 47.7510314,2.74318607 47.7510314,5.62234787 L47.7510314,21.9494489 C47.7510314,22.5018358 47.3029335,22.9497362 46.7503133,22.9497362 L2.35139309,22.9497362 L2.35139309,28.2731989 L27.6976484,28.2731989 C28.2505828,28.2731989 28.6983665,28.7209826 28.6983665,29.273917 C28.6983665,29.8264699 28.2505334,30.2742043 27.6976484,30.2742043 Z M34.3507181,15.4514362 L34.3507181,15.1014362 C33.7980485,15.1014362 33.35,14.6534864 33.35,14.1007181 C33.35,13.5482146 33.7982146,13.1 34.3507181,13.1 L38.7531543,13.1 C39.3056578,13.1 39.7538723,13.5482146 39.7538723,14.1007181 C39.7538723,14.6534864 39.3058239,15.1014362 38.7531543,15.1014362 L34.3507181,15.1014362 L34.3507181,15.4514362 Z M45.9750622,57.0743973 C52.1615941,57.0743973 57.3134878,55.0508545 57.3134878,52.9578973 L57.3134878,49.7090343 L56.7795611,50.0388227 C54.2796402,51.5829392 50.1749045,52.4894133 45.9750622,52.4894133 C41.7757017,52.4894133 37.6713636,51.5829501 35.171425,50.0388227 L34.6374984,49.7090343 L34.6374984,52.9578973 C34.6374984,55.05086 39.7889419,57.0743973 45.9750622,57.0743973 Z M45.9750622,28.9739931 C39.7889419,28.9739931 34.6374984,30.9975304 34.6374984,33.0904931 C34.6374984,35.1841832 39.7885434,37.2078548 45.9750622,37.2078548 C52.1619926,37.2078548 57.3134878,35.1841777 57.3134878,33.0904931 C57.3134878,30.997536 52.1615941,28.9739931 45.9750622,28.9739931 Z M57.3134878,39.7863495 L57.3134878,36.4285677 L56.7795961,36.7582479 C54.2793104,38.3021845 50.1741879,39.2088601 45.9750622,39.2088601 C41.7764183,39.2088601 37.6716934,38.3021954 35.1713901,36.7582479 L34.6374984,36.4285677 L34.6374984,39.7863495 C34.6374984,41.8793121 39.7889419,43.9028495 45.9750622,43.9028495 C52.1615941,43.9028495 57.3134878,41.8793066 57.3134878,39.7863495 Z M57.3134878,46.371908 L57.3134878,43.1235623 L56.7795961,43.4532426 C54.2793104,44.9971792 50.1741879,45.9038548 45.9750622,45.9038548 C41.7764183,45.9038548 37.6716934,44.99719 35.1713901,43.4532426 L34.6374984,43.1235623 L34.6374984,46.371908 C34.6374984,48.4648706 39.7889419,50.488408 45.9750622,50.488408 C52.1615941,50.488408 57.3134878,48.4648651 57.3134878,46.371908 Z M45.9750622,26.9324878 C53.2717446,26.9324878 59.3144931,29.4772125 59.3144931,33.0504239 L59.3144931,52.9578973 C59.3144931,56.5311088 53.2717446,59.0758335 45.9750622,59.0758335 C38.6791276,59.0758335 32.6364931,56.531051 32.6364931,52.9578973 L32.6364931,33.0504239 C32.6364931,29.4772702 38.6791276,26.9324878 45.9750622,26.9324878 Z M21.5579967,43.3930087 L26.1008903,47.9359023 C26.2884551,48.1234671 26.3938989,48.3782051 26.3938989,48.6436117 C26.3938989,48.9088946 26.2885337,49.1633584 26.1006801,49.3515315 L21.5580084,53.8937722 C21.3679854,54.084106 21.1147086,54.1867926 20.8507181,54.1867926 C20.5864626,54.1867926 20.3334295,54.0842048 20.1430087,53.8937839 C19.7523304,53.5031057 19.7523304,52.8694741 20.1430087,52.4787959 L23.9781928,48.6436117 L20.1430087,44.8084275 C19.7522968,44.4173964 19.7522968,43.7840398 20.1431097,43.3929076 C20.53367,43.0023473 21.1676545,43.0023473 21.5579967,43.3930087 Z M13.3079849,43.3929969 L17.8504477,47.9358905 C18.2415516,48.3266753 18.2415516,48.9602289 17.8504594,49.3513211 L13.3079967,53.8937839 C13.1177227,54.0840579 12.8643273,54.1867926 12.6007181,54.1867926 C12.3364626,54.1867926 12.0834295,54.0842048 11.8930087,53.8937839 C11.5023304,53.5031057 11.5023304,52.8694741 11.8930087,52.4787959 L15.4802895,48.8910842 L15.7277323,48.6436117 L11.8930235,44.8084424 C11.5022968,44.4173964 11.5022968,43.7840398 11.8931097,43.3929076 C12.283334,43.0023642 12.9176713,43.0023642 13.3079849,43.3929969 Z M4.30799667,43.3930087 L8.85089029,47.9359023 C9.03845514,48.1234671 9.14389894,48.3782051 9.14389894,48.6436117 C9.14389894,48.9088946 9.03853368,49.1633584 8.85068011,49.3515315 L4.30800841,53.8937722 C4.11798542,54.084106 3.86470862,54.1867926 3.60071809,54.1867926 C3.33646261,54.1867926 3.08342952,54.0842048 2.89300865,53.8937839 C2.50233045,53.5031057 2.50233045,52.8694741 2.89300865,52.4787959 L6.72819283,48.6436117 L2.89300865,44.8084275 C2.50229677,44.4173964 2.50229677,43.7840398 2.89310969,43.3929076 C3.28366999,43.0023473 3.91765446,43.0023473 4.30799667,43.3930087 Z" id="Combined-Shape" fill="#FFFFFF"></path>
                </g>
            </g>
        </g>
    </g>
</svg>