<?xml version="1.0" encoding="UTF-8"?>
<svg width="20px" height="14px" viewBox="0 0 20 14" version="1.1" xmlns="http://www.w3.org/2000/svg" xmlns:xlink="http://www.w3.org/1999/xlink">
    <!-- Generator: Sketch 53 (72520) - https://sketchapp.com -->
    <title>icon-filter</title>
    <desc>Created with Sketch.</desc>
    <defs>
        <path d="M0.702040816,6.74152047 C0.323297472,6.74152047 0,6.46915653 0,6.08654971 C0,5.70394289 0.323297472,5.43157895 0.702040816,5.43157895 L9.04982184,5.43157895 C9.3125571,3.98434404 10.5255964,3 12.0163265,3 C13.5001371,3 14.6975993,3.97875207 14.9793088,5.43157895 L19.2979592,5.43157895 C19.6767025,5.43157895 20,5.70394289 20,6.08654971 C20,6.46915653 19.6767025,6.74152047 19.2979592,6.74152047 L14.9349267,6.74152047 C14.5718072,8.02596598 13.382758,8.97660819 12.0163265,8.97660819 C10.6498951,8.97660819 9.46084583,8.02596598 9.09772638,6.74152047 L0.702040816,6.74152047 Z M12.0163265,4.33450292 C11.1210609,4.33450292 10.3918367,5.06585937 10.3918367,5.96374269 C10.3918367,6.86162601 11.1210609,7.59298246 12.0163265,7.59298246 C12.9115921,7.59298246 13.6408163,6.86162601 13.6408163,5.96374269 C13.6408163,5.06585937 12.9115921,4.33450292 12.0163265,4.33450292 Z M19.2979592,14.7649123 L10.9022736,14.7649123 C10.5391542,16.0493578 9.35010493,17 7.98367347,17 C6.61724201,17 5.42819277,16.0493578 5.06507332,14.7649123 L0.702040816,14.7649123 C0.323297472,14.7649123 3.55271368e-15,14.4925483 3.55271368e-15,14.1099415 C3.55271368e-15,13.7273347 0.323297472,13.4549708 0.702040816,13.4549708 L5.0206912,13.4549708 C5.3024007,12.0021439 6.49986286,11.0233918 7.98367347,11.0233918 C9.47440359,11.0233918 10.6874429,12.0077359 10.9501782,13.4549708 L19.2979592,13.4549708 C19.6767025,13.4549708 20,13.7273347 20,14.1099415 C20,14.4925483 19.6767025,14.7649123 19.2979592,14.7649123 Z M7.98367347,12.3578947 C7.08840789,12.3578947 6.35918367,13.0892512 6.35918367,13.9871345 C6.35918367,14.8850178 7.08840789,15.6163743 7.98367347,15.6163743 C8.87893905,15.6163743 9.60816327,14.8850178 9.60816327,13.9871345 C9.60816327,13.0892512 8.87893905,12.3578947 7.98367347,12.3578947 Z" id="path-1"></path>
    </defs>
    <g id="Icons" stroke="none" stroke-width="1" fill="none" fill-rule="evenodd">
        <g id="Filter" transform="translate(0.000000, -3.000000)">
            <mask id="mask-2" fill="white">
                <use xlink:href="#path-1"></use>
            </mask>
            <use id="icon-filter" fill="#000000" fill-rule="nonzero" xlink:href="#path-1"></use>
        </g>
    </g>
</svg>