<svg width="51" height="64" viewBox="0 0 51 64" fill="none" xmlns="http://www.w3.org/2000/svg">
<path d="M11.7692 0C15.4419 0 18.2242 0.93992 20.1162 2.81976C21.2291 3.90209 22.0917 5.41166 22.7038 7.34846C23.3159 9.28527 23.6219 12.0196 23.6219 15.5514V21.1055H51V30.5047H23.6219V49.9866C23.6219 51.5817 23.8445 52.7779 24.2897 53.5754C24.7349 54.316 25.7365 54.6862 27.2946 54.6862C28.964 54.6862 30.6056 54.316 32.2193 53.5754C33.8331 52.8349 35.1408 51.8665 36.1424 50.6702C37.1997 49.474 37.7283 48.1923 37.7283 46.8251C37.7283 46.3124 37.5057 45.8282 37.0606 45.3725C36.6154 44.9168 35.7529 44.6889 34.473 44.6889C33.4714 44.6889 32.581 44.7744 31.802 44.9453L30.4664 36.2296C32.4697 35.717 34.8903 35.4606 37.7283 35.4606C41.0115 35.4606 43.6547 36.2296 45.6579 37.7677C47.6612 39.3057 48.6628 41.6983 48.6628 44.9453C48.6628 48.0214 47.9673 50.7557 46.5761 53.1482C45.1849 55.5407 43.3486 57.5345 41.0671 59.1295C38.7856 60.7245 36.2815 61.9493 33.5548 62.8037C30.8838 63.6012 28.2684 64 25.7087 64C23.3715 64 21.3961 63.7152 19.7823 63.1455C18.2242 62.5759 16.9722 61.8353 16.0262 60.9239C15.4141 60.2973 14.8298 59.5852 14.2733 58.7877C13.7725 57.9902 13.3552 56.8794 13.0213 55.4553C12.743 54.0312 12.6039 52.1228 12.6039 49.7303V30.5047H5.59247V21.1055H12.6039V15.9786C12.6039 13.814 12.3257 12.1905 11.7692 11.1081C11.2128 10.0258 9.9329 9.48465 7.92962 9.48465C6.42717 9.48465 4.84124 9.82643 3.17185 10.51L0 2.30707C2.17021 1.50956 4.11784 0.939916 5.84288 0.598128C7.56792 0.199376 9.54337 0 11.7692 0Z" fill="#DE1E7E"/>
</svg>
