<svg width="49" height="69" viewBox="0 0 49 69" fill="none" xmlns="http://www.w3.org/2000/svg">
<path d="M39.9339 31.9374C43.5602 30.0581 45.829 26.7482 45.2991 21.2342C44.5853 13.6987 38.1898 11.1719 30.1163 10.4523L30.1148 0H23.8594L23.8576 10.1774C22.2118 10.1774 20.534 10.2103 18.8639 10.2444L18.8625 0.00138727L12.6128 0.000792765L12.6116 10.4505C11.2571 10.4787 9.92699 10.5054 8.62819 10.5054V10.4745L0 10.4709L0.00116791 17.265C0.00116791 17.265 4.62064 17.1766 4.54454 17.2624C7.07733 17.2642 7.90434 18.7605 8.14218 20.052L8.14413 31.9594V48.6854C8.0326 49.4959 7.56334 50.7911 5.79235 50.7934C5.87293 50.8656 1.24197 50.7926 1.24197 50.7926L0.00116791 58.3899H8.14024C9.65684 58.3917 11.147 58.4157 12.6089 58.4276L12.6143 68.9982L18.8625 69L18.8608 58.5402C20.5798 58.5758 22.239 58.5913 23.8598 58.5891L23.858 69H30.1132L30.1167 58.447C40.6313 57.8326 47.9924 55.138 48.9076 45.0925C49.6453 37.0049 45.9036 33.3948 39.9339 31.9374ZM19.0133 17.7236C22.5413 17.7236 33.6367 16.5807 33.6382 24.0781C33.6367 31.266 22.5448 30.4263 19.0133 30.4263V17.7236V17.7236ZM19.0106 50.845L19.0133 36.839C23.2521 36.8379 36.5471 35.5982 36.5488 43.8388C36.5506 51.7415 23.2521 50.8418 19.0106 50.845Z" fill="#DE1E7E"/>
</svg>
