<svg width="20" height="20" viewBox="0 0 20 20" fill="none" xmlns="http://www.w3.org/2000/svg">
<path fill-rule="evenodd" clip-rule="evenodd" d="M16.0491 16.9568H16.0607H16.0491ZM9.83062 4.86506C11.7846 4.86506 13.4903 5.89426 14.509 7.68928C15.7494 9.87532 15.7633 12.7181 14.5427 14.7603L14.3663 15.0445C14.2329 15.2569 14.096 15.4681 13.9997 15.7001C13.879 15.9937 13.8581 16.2768 13.9463 16.4764C14.0751 16.7688 14.4487 16.9463 14.7399 17.0438C15.0196 17.1366 15.218 17.1552 15.3421 17.0937C15.4651 17.0357 15.58 16.8744 15.6868 16.7142C17.2451 14.3855 17.7997 11.2004 17.1314 8.40056C16.5721 6.06367 15.2099 4.18395 13.2953 3.10718C11.2474 1.95614 8.63201 1.88768 6.63278 2.92965C5.39008 3.57594 4.28894 4.67941 3.53009 6.03814C2.20384 8.41448 1.83022 11.4162 2.53105 14.0664C2.69582 14.693 2.9302 15.2464 3.22608 15.7141C3.48367 16.1167 3.90951 16.6272 4.48155 16.7676C4.90623 16.8709 5.47594 16.6783 5.59778 16.264C5.70569 15.9032 5.48755 15.4449 5.29609 15.0422C4.90507 14.2184 4.47807 13.2333 4.28081 12.1739C3.94664 10.3801 4.49547 8.35414 5.71497 6.88634C6.79755 5.5833 8.25955 4.86506 9.83062 4.86506ZM15.1602 18C14.8979 18 14.6531 17.9327 14.464 17.8689C13.7991 17.6461 13.357 17.2945 13.1505 16.8269C12.9648 16.4034 12.9811 15.8859 13.1957 15.3672C13.3164 15.0772 13.4765 14.8242 13.6309 14.5794L13.7956 14.3148C14.8446 12.5593 14.826 10.0124 13.7527 8.11872C12.8801 6.58246 11.4866 5.73543 9.83081 5.73543C8.52313 5.73543 7.29899 6.34227 6.38466 7.44342C5.32645 8.71629 4.84955 10.4684 5.13731 12.0151C5.316 12.9747 5.71631 13.8948 6.08297 14.6676C6.32896 15.1874 6.63529 15.8314 6.43223 16.5125C6.16188 17.4187 5.09786 17.812 4.27636 17.6125C3.59989 17.4477 2.98376 16.9522 2.49178 16.1806C2.14833 15.6376 1.87797 15.0006 1.69 14.2881C0.933474 11.4245 1.33727 8.18254 2.77142 5.61475C3.6231 4.08661 4.81939 2.89264 6.2315 2.157C8.486 0.985077 11.4262 1.05934 13.7214 2.34845C15.8505 3.5459 17.3624 5.62288 17.9774 8.19879C18.7003 11.2272 18.1004 14.6745 16.411 17.1994C16.2439 17.4489 16.0374 17.7273 15.716 17.8805C15.5303 17.9675 15.3412 18 15.1602 18Z" fill="#DE1E7E"/>
<path fill-rule="evenodd" clip-rule="evenodd" d="M10.2335 3.5191C10.2335 3.75929 10.0386 3.95422 9.7984 3.95422C9.55822 3.95422 9.36328 3.75929 9.36328 3.5191C9.36328 3.27892 9.55822 3.08398 9.7984 3.08398C10.0386 3.08398 10.2335 3.27892 10.2335 3.5191Z" fill="#DE1E7E"/>
<path fill-rule="evenodd" clip-rule="evenodd" d="M13.2697 4.38947C13.2697 4.62965 13.0747 4.82459 12.8345 4.82459C12.5943 4.82459 12.3994 4.62965 12.3994 4.38947C12.3994 4.14928 12.5943 3.95435 12.8345 3.95435C13.0747 3.95435 13.2697 4.14928 13.2697 4.38947Z" fill="#DE1E7E"/>
<path fill-rule="evenodd" clip-rule="evenodd" d="M7.06946 4.38947C7.06946 4.62965 6.87453 4.82459 6.63434 4.82459C6.39415 4.82459 6.19922 4.62965 6.19922 4.38947C6.19922 4.14928 6.39415 3.95435 6.63434 3.95435C6.87453 3.95435 7.06946 4.14928 7.06946 4.38947Z" fill="#DE1E7E"/>
<path fill-rule="evenodd" clip-rule="evenodd" d="M15.5724 6.565C15.5724 6.80519 15.3775 7.00012 15.1373 7.00012C14.8971 7.00012 14.7021 6.80519 14.7021 6.565C14.7021 6.32482 14.8971 6.12988 15.1373 6.12988C15.3775 6.12988 15.5724 6.32482 15.5724 6.565Z" fill="#DE1E7E"/>
<path fill-rule="evenodd" clip-rule="evenodd" d="M4.9845 6.565C4.9845 6.80519 4.78956 7.00012 4.54938 7.00012C4.30919 7.00012 4.11426 6.80519 4.11426 6.565C4.11426 6.32482 4.30919 6.12988 4.54938 6.12988C4.78956 6.12988 4.9845 6.32482 4.9845 6.565Z" fill="#DE1E7E"/>
<path fill-rule="evenodd" clip-rule="evenodd" d="M16.7872 9.65949C16.7872 9.89967 16.5923 10.0946 16.3521 10.0946C16.1119 10.0946 15.917 9.89967 15.917 9.65949C15.917 9.4193 16.1119 9.22437 16.3521 9.22437C16.5923 9.22437 16.7872 9.4193 16.7872 9.65949Z" fill="#DE1E7E"/>
<path fill-rule="evenodd" clip-rule="evenodd" d="M3.79309 9.65949C3.79309 9.89967 3.59816 10.0946 3.35797 10.0946C3.11779 10.0946 2.92285 9.89967 2.92285 9.65949C2.92285 9.4193 3.11779 9.22437 3.35797 9.22437C3.59816 9.22437 3.79309 9.4193 3.79309 9.65949Z" fill="#DE1E7E"/>
<path fill-rule="evenodd" clip-rule="evenodd" d="M16.7872 12.4515C16.7872 12.6917 16.5923 12.8866 16.3521 12.8866C16.1119 12.8866 15.917 12.6917 15.917 12.4515C15.917 12.2113 16.1119 12.0164 16.3521 12.0164C16.5923 12.0164 16.7872 12.2113 16.7872 12.4515Z" fill="#DE1E7E"/>
<path fill-rule="evenodd" clip-rule="evenodd" d="M3.79309 12.4515C3.79309 12.6917 3.59816 12.8866 3.35797 12.8866C3.11779 12.8866 2.92285 12.6917 2.92285 12.4515C2.92285 12.2113 3.11779 12.0164 3.35797 12.0164C3.59816 12.0164 3.79309 12.2113 3.79309 12.4515Z" fill="#DE1E7E"/>
<path fill-rule="evenodd" clip-rule="evenodd" d="M15.672 15.6072C15.672 15.8474 15.4771 16.0424 15.2369 16.0424C14.9967 16.0424 14.8018 15.8474 14.8018 15.6072C14.8018 15.3671 14.9967 15.1721 15.2369 15.1721C15.4771 15.1721 15.672 15.3671 15.672 15.6072Z" fill="#DE1E7E"/>
<path fill-rule="evenodd" clip-rule="evenodd" d="M4.83118 15.6072C4.83118 15.8474 4.63624 16.0424 4.39606 16.0424C4.15587 16.0424 3.96094 15.8474 3.96094 15.6072C3.96094 15.3671 4.15587 15.1721 4.39606 15.1721C4.63624 15.1721 4.83118 15.3671 4.83118 15.6072Z" fill="#DE1E7E"/>
</svg>
