<svg width="20" height="20" viewBox="0 0 20 20" fill="none" xmlns="http://www.w3.org/2000/svg">
<path d="M7.30769 4C8.02782 4 8.57338 4.17623 8.94435 4.5287C9.16257 4.73164 9.3317 5.01469 9.45172 5.37784C9.57174 5.74099 9.63175 6.25367 9.63175 6.91589V7.95728H15V9.71963H9.63175V13.3725C9.63175 13.6716 9.6754 13.8959 9.76268 14.0454C9.84997 14.1842 10.0464 14.2537 10.3519 14.2537C10.6792 14.2537 11.0011 14.1842 11.3175 14.0454C11.6339 13.9065 11.8903 13.725 12.0867 13.5007C12.2941 13.2764 12.3977 13.036 12.3977 12.7797C12.3977 12.6836 12.3541 12.5928 12.2668 12.5073C12.1795 12.4219 12.0104 12.3792 11.7594 12.3792C11.563 12.3792 11.3884 12.3952 11.2357 12.4272L10.9738 10.7931C11.3666 10.6969 11.8412 10.6489 12.3977 10.6489C13.0415 10.6489 13.5597 10.7931 13.9525 11.0814C14.3453 11.3698 14.5417 11.8184 14.5417 12.4272C14.5417 13.004 14.4053 13.5167 14.1326 13.9653C13.8598 14.4139 13.4997 14.7877 13.0524 15.0868C12.605 15.3858 12.114 15.6155 11.5794 15.7757C11.0556 15.9252 10.5428 16 10.0409 16C9.58265 16 9.19531 15.9466 8.87889 15.8398C8.57338 15.733 8.32788 15.5941 8.14239 15.4232C8.02237 15.3057 7.9078 15.1722 7.79869 15.0227C7.70049 14.8732 7.61866 14.6649 7.55319 14.3979C7.49864 14.1308 7.47136 13.773 7.47136 13.3244V9.71963H6.09656V7.95728H7.47136V6.99599C7.47136 6.59012 7.4168 6.28571 7.30769 6.08278C7.19858 5.87984 6.94763 5.77837 6.55483 5.77837C6.26023 5.77837 5.94926 5.84246 5.62193 5.97063L5 4.43258C5.42553 4.28304 5.80742 4.17623 6.14566 4.11215C6.48391 4.03738 6.87125 4 7.30769 4Z" fill="#DE1E7E"/>
</svg>
