<?xml version="1.0" encoding="UTF-8"?>
<svg width="15px" height="20px" viewBox="0 0 15 20" version="1.1" xmlns="http://www.w3.org/2000/svg" xmlns:xlink="http://www.w3.org/1999/xlink">
    <!-- Generator: Sketch 53 (72520) - https://sketchapp.com -->
    <title>icon-bitcoin</title>
    <desc>Created with Sketch.</desc>
    <g id="Icons" stroke="none" stroke-width="1" fill="none" fill-rule="evenodd">
        <g id="Bitcoin" transform="translate(-3.000000, 0.000000)" fill="#DE1E7E" fill-rule="nonzero">
            <path d="M14.7241714,9.25722 C15.7888,8.71247828 16.4549143,7.75310557 16.2993143,6.15484038 C16.0897714,3.9706461 14.2121143,3.23823475 11.8418286,3.02965548 L11.8413714,0 L10.0048571,0 L10.0043429,2.94998061 C9.52114286,2.94998061 9.02857143,2.95951632 8.53822857,2.96939669 L8.53782857,0.000402108196 L6.70297143,0.000229776112 L6.70262857,3.02913848 C6.30497143,3.03729554 5.91445714,3.04505048 5.53314286,3.04505048 L5.53314286,3.03608921 L3,3.03505522 L3.00034286,5.00435139 C3.00034286,5.00435139 4.35657143,4.97873135 4.33422857,5.00360461 C5.07782857,5.00412161 5.32062857,5.43782402 5.39045714,5.81218675 L5.39102857,9.26359628 L5.39102857,14.1116999 C5.35828571,14.346646 5.22051429,14.7220427 4.70057143,14.722732 C4.72422857,14.7436417 3.36462857,14.7225023 3.36462857,14.7225023 L3.00034286,16.9246191 L5.38988571,16.9246191 C5.83514286,16.9251361 6.27262857,16.9320868 6.70182857,16.9355334 L6.70342857,19.999483 L8.53782857,20 L8.53731429,16.9681616 C9.042,16.9785016 9.52914286,16.9829822 10.0049714,16.9823503 L10.0044571,20 L11.8409143,20 L11.8419429,16.941163 C14.9289143,16.7630865 17.0900571,15.98202 17.3587429,13.0702971 C17.5753143,10.7260638 16.4768,9.67966338 14.7241714,9.25722 Z M8.58211429,5.13727687 C9.61788571,5.13727687 12.8753714,4.80599716 12.8758286,6.97916218 C12.8753714,9.06259963 9.61891429,8.81920928 8.58211429,8.81920928 L8.58211429,5.13727687 L8.58211429,5.13727687 Z M8.58131429,14.7376675 L8.58211429,10.6779831 C9.82657143,10.6776385 13.7298286,10.3183261 13.7303429,12.7069062 C13.7308571,14.9975443 9.82657143,14.7367484 8.58131429,14.7376675 Z" id="icon-bitcoin"></path>
        </g>
    </g>
</svg>