<svg width="12" height="12" viewBox="0 0 12 12" fill="none" xmlns="http://www.w3.org/2000/svg">
<path fill-rule="evenodd" clip-rule="evenodd" d="M8.50233 9.91795C9.04669 9.60366 9.23493 8.90113 8.92064 8.35677L6.94116 9.49963C7.25544 10.044 7.95797 10.2322 8.50233 9.91795ZM10.043 5.7293C9.77081 5.88645 9.41954 5.79232 9.2624 5.52014L8.11954 3.54066C7.42526 2.33812 5.99199 1.83277 4.73016 2.26436C4.71873 2.24456 4.72291 2.22895 4.71148 2.20916C4.55434 1.93698 4.20308 1.84286 3.9309 2C3.65872 2.15714 3.5646 2.50841 3.72174 2.78059C3.73317 2.80038 3.74878 2.80456 3.76021 2.82436C2.75553 3.70134 2.47654 5.19526 3.17083 6.3978L4.31368 8.37729C4.47083 8.64947 4.37671 9.00073 4.10453 9.15787C3.83235 9.31502 3.73823 9.66628 3.89537 9.93846C4.05251 10.2106 4.40377 10.3048 4.67595 10.1476L10.6144 6.71905C10.8866 6.5619 10.9807 6.21064 10.8236 5.93846C10.6664 5.66628 10.3152 5.57216 10.043 5.7293Z" fill="#0CD664"/>
</svg>
