<svg width="52" height="64" viewBox="0 0 52 64" fill="none" xmlns="http://www.w3.org/2000/svg">
<path d="M43.8457 47.6809C41.1279 49.5043 38.1384 50.5071 34.6959 50.5071C28.9886 50.5071 24.2778 47.8632 21.9224 41.9373H40.4938V34.3704H20.4729C20.3823 33.7322 20.3823 33.094 20.3823 32.3647C20.3823 31.3618 20.3823 30.4501 20.4729 29.5385H40.4938V21.9715H22.1036C24.6401 15.8632 29.4415 13.4929 34.6959 13.4929C37.776 13.4929 40.5844 14.4957 43.0304 16.1368L51.5461 5.37891C46.2917 1.73219 40.3126 0 34.6959 0C19.4764 0 9.42063 8.02279 6.1593 21.9715H-0.000976562V29.5385H5.16279C5.07219 30.4501 5.07219 31.3618 5.07219 32.3647V34.3704H-0.000976562V41.9373H6.06871C9.42063 57.7094 21.56 64 34.6959 64C41.4903 64 47.3788 61.812 51.999 58.5299L43.8457 47.6809Z" fill="#DE1E7E"/>
</svg>
