<?xml version="1.0" encoding="UTF-8"?>
<svg width="18px" height="20px" viewBox="0 0 18 20" version="1.1" xmlns="http://www.w3.org/2000/svg" xmlns:xlink="http://www.w3.org/1999/xlink">
    <!-- Generator: Sketch 53 (72520) - https://sketchapp.com -->
    <title>icon-profile</title>
    <desc>Created with Sketch.</desc>
    <defs>
        <path d="M14.6363167,4.58288911 C14.6334022,7.11303876 12.5259769,9.16294628 9.92483324,9.16578244 C7.32275304,9.16578244 5.21335014,7.11395258 5.21334975,4.58289192 C5.21334935,2.05183126 7.3227516,7.75629877e-07 9.9248318,-4.97379915e-14 C12.526912,-7.75629976e-07 14.6363155,2.05182846 14.6363167,4.58288911 Z M9.92483294,7.36915103 C11.5068191,7.36915016 12.7892717,6.12169909 12.7892714,4.58289069 C12.7892711,3.0440823 11.506818,1.7966317 9.92483186,1.79663141 C8.34290944,1.79663112 7.06049546,3.04398079 7.06039129,4.58270375 C7.06228424,6.12081227 8.34392499,7.36741105 9.92483294,7.36915103 Z M2.42479352,20 C1.9144695,20 1.5,19.5968428 1.5,19.1017604 C1.5,14.5422754 5.31392948,10.8337541 10,10.8337541 C14.6874206,10.8337541 18.5,14.5422754 18.5,19.1017604 C18.5,19.5968428 18.0855305,20 17.5765565,20 L2.42479352,20 Z M16.58831,18.2035209 C16.1292884,15.0544295 13.3049555,12.6341729 10,12.6302332 C6.69639454,12.6341729 3.87206163,15.0544295 3.41304003,18.2035209 L16.58831,18.2035209 Z" id="path-1"></path>
    </defs>
    <g id="Icons" stroke="none" stroke-width="1" fill="none" fill-rule="evenodd">
        <g id="Profile" transform="translate(-1.000000, 0.000000)">
            <mask id="mask-2" fill="white">
                <use xlink:href="#path-1"></use>
            </mask>
            <use id="icon-profile" fill="#000000" fill-rule="nonzero" xlink:href="#path-1"></use>
        </g>
    </g>
</svg>