<svg width="20" height="20" viewBox="0 0 20 20" fill="none" xmlns="http://www.w3.org/2000/svg">
<path d="M6.12552 16L5.43933 11.8487H4V10.605H5.23849L5.03766 9.39496H4V8.15126H4.83682L4.15063 4H6.04184L6.67782 8.15126H8.21757L8.93724 4H11.0628L11.7657 8.15126H13.3222L13.9414 4H15.8326L15.1464 8.15126H16V9.39496H14.9456L14.7448 10.605H16V11.8487H14.5439L13.8577 16H11.5146L10.7615 11.8487H9.22176L8.48536 16H6.12552ZM9.82427 8.15126H10.159L9.99163 6.60504L9.82427 8.15126ZM7.04602 10.605H7.79916L8 9.39496H6.86192L7.04602 10.605ZM9.45607 10.605H10.5272L10.3096 9.39496H9.67364L9.45607 10.605ZM12.2008 10.605H12.9707L13.1381 9.39496H11.9833L12.2008 10.605ZM7.39749 13.5294L7.59833 11.8487H7.21339L7.39749 13.5294ZM12.6025 13.5294L12.7866 11.8487H12.3849L12.6025 13.5294Z" fill="#DE1E7E"/>
</svg>
