<svg width="17" height="19" viewBox="0 0 17 19" fill="none" xmlns="http://www.w3.org/2000/svg">
<path fill-rule="evenodd" clip-rule="evenodd" d="M8.3125 19C9.61875 19 10.6875 17.9312 10.6875 16.625H5.9375C5.9375 17.9312 7.00625 19 8.3125 19ZM15.4375 13.0625C14.7844 13.0625 14.25 12.5281 14.25 11.875V7.125C14.25 4.23938 12.1956 1.84063 9.47625 1.30625C9.47625 1.25875 9.5 1.235 9.5 1.1875C9.5 0.534375 8.96562 0 8.3125 0C7.65937 0 7.125 0.534375 7.125 1.1875C7.125 1.235 7.14875 1.25875 7.14875 1.30625C4.42937 1.84063 2.375 4.23938 2.375 7.125V11.875C2.375 12.5281 1.84062 13.0625 1.1875 13.0625C0.534375 13.0625 0 13.5969 0 14.25C0 14.9031 0.534375 15.4375 1.1875 15.4375H15.4375C16.0906 15.4375 16.625 14.9031 16.625 14.25C16.625 13.5969 16.0906 13.0625 15.4375 13.0625Z" fill="white"/>
</svg>
