<svg width="20" height="20" viewBox="0 0 20 20" fill="none" xmlns="http://www.w3.org/2000/svg">
  <path fill-rule="evenodd" clip-rule="evenodd" d="M12.3566 15.5238L11.9659 14.3171L12.9868 13.5741C12.9964 13.6624 13.0146 13.7488 13.0146 13.84C13.0146 14.4899 12.7608 15.0765 12.3566 15.5238ZM9.47184 16.1344L10.5005 15.3846L11.5282 16.1344C11.2131 16.2765 10.8673 16.36 10.5005 16.36C10.1327 16.36 9.78695 16.2765 9.47184 16.1344ZM7.98635 13.84C7.98635 13.7488 8.00359 13.6624 8.01317 13.5741L9.03414 14.3171L8.64338 15.5238C8.2392 15.0765 7.98635 14.4899 7.98635 13.84ZM9.98903 11.3728L9.59444 12.5901H8.33019C8.6836 11.9776 9.27646 11.5206 9.98903 11.3728ZM11.2016 14.2912L11.5052 15.2262L10.7112 14.6483C10.648 14.6022 10.5742 14.5802 10.5005 14.5802C10.4258 14.5802 10.352 14.6022 10.2888 14.6483L9.49483 15.2262L9.79844 14.2912C9.84633 14.1424 9.79365 13.9802 9.66723 13.888L8.8742 13.3101H9.85495C10.0111 13.3101 10.149 13.2102 10.1969 13.0624L10.5005 12.1264L10.8031 13.0624C10.851 13.2102 10.9889 13.3101 11.1451 13.3101H12.1258L11.3328 13.888C11.2063 13.9802 11.1537 14.1424 11.2016 14.2912ZM12.6698 12.5901H11.4056L11.011 11.3728C11.7235 11.5206 12.3164 11.9776 12.6698 12.5901ZM13.573 12.8387C13.5682 12.8234 13.5538 12.8176 13.5471 12.8032C13.1133 11.5264 11.918 10.6 10.5005 10.6C9.08203 10.6 7.88675 11.5264 7.45288 12.8032C7.44618 12.8176 7.43181 12.8234 7.42702 12.8387C7.42223 12.855 7.42989 12.8694 7.42702 12.8858C7.33316 13.1891 7.26803 13.5059 7.26803 13.84C7.26803 14.9037 7.78714 15.8397 8.57825 16.4301C8.58783 16.4387 8.58974 16.4541 8.60124 16.4618C8.60794 16.4666 8.61848 16.4646 8.62518 16.4694C9.15578 16.8506 9.80035 17.08 10.5005 17.08C11.2006 17.08 11.8442 16.8506 12.3748 16.4685C12.3825 16.4646 12.3921 16.4666 12.3988 16.4618C12.4103 16.4541 12.4122 16.4387 12.4218 16.4301C13.2129 15.8397 13.7329 14.9037 13.7329 13.84C13.7329 13.5059 13.6668 13.1891 13.573 12.8858C13.5701 12.8694 13.5778 12.855 13.573 12.8387ZM13.6879 9.82048C13.4743 9.6496 13.2483 9.49792 13.0089 9.3616L17.1866 1.72H18.04L13.6879 9.82048ZM10.5005 18.28C8.05723 18.28 6.07083 16.288 6.07083 13.84C6.07083 11.392 8.05723 9.4 10.5005 9.4C12.9428 9.4 14.9301 11.392 14.9301 13.84C14.9301 16.288 12.9428 18.28 10.5005 18.28ZM3.94172 1.72L8.09075 9.30784C7.81491 9.45664 7.55536 9.6256 7.31209 9.82048L2.96002 1.72H3.94172ZM8.74682 9.00832L4.76157 1.72H5.85725L9.70745 8.76064C9.37511 8.81248 9.05522 8.896 8.74682 9.00832ZM11.6575 8.82304C11.2839 8.73664 10.8999 8.68 10.5005 8.68C10.4947 8.68 10.489 8.68192 10.4832 8.68192L6.67709 1.72H7.77277L11.6575 8.82304ZM13.2272 1.72H14.4522L11.5224 7.07872L10.9094 5.95744L13.2272 1.72ZM11.9295 7.82368C11.9323 7.81984 11.9381 7.81792 11.94 7.81312L15.2711 1.72H16.3677L12.4802 8.82976L11.9295 7.82368ZM18.9489 1.17568C18.8847 1.06624 18.7669 1 18.6415 1H13.0146C12.8834 1 12.7618 1.07104 12.6995 1.18624L10.5005 5.20864L8.3005 1.18624C8.23824 1.07104 8.11661 1 7.98635 1H2.3595C2.23308 1 2.11527 1.06624 2.0511 1.17568C1.98597 1.28416 1.9831 1.41952 2.04248 1.53088L6.76137 10.3139C5.89364 11.2384 5.35251 12.4739 5.35251 13.84C5.35251 16.6854 7.66167 19 10.5005 19C13.3383 19 15.6485 16.6854 15.6485 13.84C15.6485 12.4739 15.1064 11.2384 14.2386 10.3139L18.9575 1.53088C19.0169 1.41952 19.014 1.28416 18.9489 1.17568Z" fill="white"/>
</svg>
