<svg width="20" height="20" viewBox="0 0 20 20" fill="none" xmlns="http://www.w3.org/2000/svg">
<path d="M13.5665 12.6132C12.6048 13.5415 11.4798 13.8338 10.5907 13.8338C9.30242 13.8338 8.75806 13.3352 8.75806 12.7851C8.75806 12.4413 8.93952 12.1318 9.22984 11.8739H14.746V10.533H11.1169C11.7883 10.2579 12.4778 9.94842 13.1129 9.70774H14.746V8.38395H13.6028C14.2016 8.04011 14.6915 7.48997 14.6915 6.66476C14.6915 5.20344 13.1492 4 10.6996 4C9.1754 4 7.57863 4.55014 6.34476 5.44413L7.77823 7.26648C8.68548 6.5616 9.64718 6.18338 10.5726 6.18338C11.3165 6.18338 11.9516 6.42407 11.9516 7.11175C11.9516 7.61031 11.5161 8.04011 11.0806 8.38395H6V9.70774H9.95565C9.32056 9.96562 8.63105 10.2751 8.01411 10.533H6V11.8739H7.16129C6.67137 12.2178 6.23589 12.7507 6.23589 13.5415C6.23589 14.9169 7.72379 16 10.3185 16C11.9698 16 13.6754 15.5702 15 14.384L13.5665 12.6132Z" fill="#DE1E7E"/>
</svg>
