<svg width="64" height="57" viewBox="0 0 64 57" fill="none" xmlns="http://www.w3.org/2000/svg">
<path d="M14.7936 0C20.9642 0 25.4998 1.31215 28.4005 3.93646C31.3539 6.56077 32.8307 10.7334 32.8307 16.4544C32.8307 20.2859 32.0659 23.3564 30.5365 25.6657C29.007 27.9751 27.0556 29.7334 24.6823 30.9406L36.1533 56.2127H23.8121L14.6354 34.6409H11.1545V56.2127H0V0H14.7936ZM13.7651 9.76243H11.1545V24.9572H13.9234C16.6658 24.9572 18.6172 24.3011 19.7775 22.989C20.9905 21.6768 21.597 19.7348 21.597 17.163C21.597 14.4862 20.9642 12.5967 19.6984 11.4945C18.4326 10.3398 16.4549 9.76243 13.7651 9.76243ZM50.8677 12.4392C53.1356 12.4392 55.2979 12.7017 57.3548 13.2265C59.4116 13.7514 61.4948 14.6174 63.6044 15.8246L60.7565 24.2486C59.0688 23.3564 57.4602 22.6215 55.9308 22.0442C54.4013 21.4144 52.8719 21.0994 51.3424 21.0994C48.5472 21.0994 47.1496 22.0967 47.1496 24.0912C47.1496 24.7735 47.3078 25.4033 47.6242 25.9807C47.9934 26.5055 48.7054 27.0829 49.7602 27.7127C50.815 28.3425 52.3445 29.1823 54.3486 30.232C56.3 31.2293 57.9876 32.2528 59.4116 33.3025C60.8883 34.3522 62.0222 35.6644 62.8133 37.239C63.6044 38.8135 64 40.8867 64 43.4586C64 47.8149 62.6815 51.174 60.0445 53.5359C57.4602 55.8453 53.6366 57 48.5735 57C46.042 57 43.8797 56.7901 42.0865 56.3702C40.2934 56.0028 38.4738 55.3729 36.6279 54.4807V44.797C38.4738 45.8467 40.4516 46.7127 42.5612 47.395C44.7235 48.0774 46.6222 48.4185 48.2571 48.4185C50.103 48.4185 51.4215 48.0774 52.2126 47.395C53.0564 46.7127 53.4784 45.8204 53.4784 44.7182C53.4784 43.9834 53.3201 43.3273 53.0037 42.75C52.6873 42.1202 52.0016 41.4378 50.9468 40.703C49.892 39.9157 48.2571 38.9448 46.042 37.7901C42.7721 36.1105 40.3725 34.3522 38.843 32.5152C37.3136 30.6782 36.5488 28.1064 36.5488 24.7997C36.5488 20.8108 37.841 17.7666 40.4252 15.6671C43.0622 13.5152 46.5431 12.4392 50.8677 12.4392Z" fill="#DE1E7E"/>
</svg>
