<svg width="64" height="46" viewBox="0 0 64 46" fill="none" xmlns="http://www.w3.org/2000/svg">
<path d="M10.2472 0C13.1697 0 15.727 0.731029 17.9189 2.19309C20.1473 3.61859 21.8643 5.77513 23.0699 8.66269C24.312 11.5503 24.933 15.0957 24.933 19.2992V28.6746H0V21.9857H17.5901V20.0119C17.5901 15.2602 16.6951 11.8792 14.905 9.86889C13.115 7.82201 10.9778 6.79857 8.49367 6.79857H2.95908L2.41111 1.04172C3.54359 0.785855 4.82221 0.54827 6.24695 0.328962C7.70823 0.109654 9.04165 0 10.2472 0Z" fill="#DE1E7E"/>
<path d="M28.1787 19.5733H36.0696V28.6746H28.1787V19.5733Z" fill="#DE1E7E"/>
<path d="M53.9172 39.4207C54.794 39.4207 56.0908 39.3476 57.8078 39.2014C59.5248 39.0552 61.2966 38.8359 63.1232 38.5435L63.8904 44.2455C62.0638 44.7207 60.0911 45.1228 57.9722 45.4517C55.8534 45.8172 54.0085 46 52.4377 46C48.4191 46 45.3139 44.8121 43.122 42.4362C40.9301 40.0969 39.8341 36.8804 39.8341 32.7867C39.8341 27.6329 41.6059 24.1788 45.1495 22.4243C43.7979 19.8292 43.122 17.0695 43.122 14.1454C43.122 10.9289 43.7979 8.31545 45.1495 6.30512C46.5378 4.25824 48.2365 2.79618 50.2457 1.91895C52.255 1.04171 54.246 0.603098 56.2187 0.603098C57.3147 0.603098 58.5567 0.731028 59.945 0.986889C61.3697 1.24275 62.7214 1.60826 64 2.08343L63.6712 8.93683C60.8583 7.84029 58.5933 7.29201 56.8763 7.29201C55.1958 7.29201 53.698 7.84029 52.3829 8.93683C51.1042 10.0334 50.4649 11.8792 50.4649 14.4744C50.4649 17.1792 51.2686 19.4271 52.876 21.2181C54.2642 21.2547 55.689 21.4009 57.1503 21.6567C58.6115 21.876 59.7075 22.1136 60.4381 22.3695V28.6746C59.5979 28.4188 58.3923 28.1812 56.8215 27.9619C55.2871 27.706 54.0268 27.5781 53.0404 27.5781C51.2138 27.5781 49.7708 28.0532 48.7114 29.0036C47.6885 29.9905 47.1771 31.416 47.1771 33.2801C47.1771 35.1442 47.725 36.6246 48.821 37.7211C49.9535 38.8542 51.6522 39.4207 53.9172 39.4207Z" fill="#DE1E7E"/>
</svg>
