<?xml version="1.0" encoding="UTF-8"?>
<svg width="16" height="16" viewBox="0 0 16 16" fill="none" xmlns="http://www.w3.org/2000/svg">
<path fill-rule="evenodd" clip-rule="evenodd" d="M15.19 6.38999H13.34C13.23 6.01999 13.07 5.67999 12.89 5.34999L14.25 3.98999C14.56 3.67999 14.56 3.16999 14.25 2.85999L13.12 1.72999C12.81 1.41999 12.3 1.41999 11.99 1.72999L10.63 3.08999C10.3 2.91999 9.95999 2.75999 9.58999 2.64999V0.78999C9.58999 0.34999 9.22999 -0.0100098 8.78999 -0.0100098H7.18999C6.74999 -0.0100098 6.38999 0.34999 6.38999 0.78999V2.64999C5.99999 2.76999 5.63999 2.92999 5.28999 3.11999L3.98999 1.81999C3.68999 1.51999 3.19999 1.51999 2.89999 1.81999L1.81999 2.90999C1.51999 3.20999 1.51999 3.69999 1.81999 3.99999L3.11999 5.29999C2.91999 5.63999 2.75999 5.99999 2.63999 6.38999H0.78999C0.34999 6.38999 -0.0100098 6.74999 -0.0100098 7.18999V8.78999C-0.0100098 9.22999 0.34999 9.58999 0.78999 9.58999H2.63999C2.74999 9.95999 2.90999 10.3 3.08999 10.63L1.72999 11.99C1.41999 12.3 1.41999 12.81 1.72999 13.12L2.85999 14.25C3.16999 14.56 3.67999 14.56 3.98999 14.25L5.34999 12.89C5.67999 13.07 6.01999 13.22 6.38999 13.33V15.19C6.38999 15.63 6.74999 15.99 7.18999 15.99H8.78999C9.22999 15.99 9.58999 15.63 9.58999 15.19V13.33C9.97999 13.21 10.34 13.05 10.69 12.86L11.99 14.16C12.29 14.46 12.78 14.46 13.08 14.16L14.17 13.07C14.47 12.77 14.47 12.28 14.17 11.98L12.87 10.68C13.06 10.33 13.23 9.96999 13.35 9.57999H15.2C15.64 9.57999 16 9.21999 16 8.77999V7.17999C15.99 6.74999 15.63 6.38999 15.19 6.38999ZM7.98999 10.99C6.32999 10.99 4.98999 9.64999 4.98999 7.98999C4.98999 6.32999 6.32999 4.98999 7.98999 4.98999C9.64999 4.98999 10.99 6.32999 10.99 7.98999C10.99 9.64999 9.64999 10.99 7.98999 10.99Z" fill="#8697A2"/>
</svg>