<svg width="20" height="20" viewBox="0 0 20 20" fill="none" xmlns="http://www.w3.org/2000/svg">
<path d="M5.92135 6C6.46933 6 6.94881 6.12714 7.35979 6.38141C7.77763 6.62932 8.09956 7.00437 8.3256 7.50656C8.5585 8.00874 8.67494 8.62535 8.67494 9.35638V10.9869H4V9.8236H7.29815V9.48033C7.29815 8.65395 7.13033 8.06595 6.79469 7.71633C6.45905 7.36035 6.05834 7.18236 5.59256 7.18236H4.55483L4.45208 6.18117C4.66442 6.13667 4.90416 6.09535 5.1713 6.05721C5.44529 6.01907 5.69531 6 5.92135 6Z" fill="#DE1E7E"/>
<path d="M9.28351 9.40405H10.763V10.9869H9.28351V9.40405Z" fill="#DE1E7E"/>
<path d="M14.1095 12.8558C14.2739 12.8558 14.517 12.8431 14.839 12.8176C15.1609 12.7922 15.4931 12.7541 15.8356 12.7032L15.9794 13.6949C15.637 13.7775 15.2671 13.8474 14.8698 13.9046C14.4725 13.9682 14.1266 14 13.8321 14C13.0786 14 12.4964 13.7934 12.0854 13.3802C11.6744 12.9734 11.4689 12.414 11.4689 11.702C11.4689 10.8057 11.8011 10.205 12.4655 9.89988C12.2121 9.44855 12.0854 8.96861 12.0854 8.46007C12.0854 7.90068 12.2121 7.44617 12.4655 7.09654C12.7258 6.74056 13.0443 6.48629 13.4211 6.33373C13.7978 6.18117 14.1711 6.10489 14.541 6.10489C14.7465 6.10489 14.9794 6.12714 15.2397 6.17163C15.5068 6.21613 15.7603 6.2797 16 6.36234L15.9384 7.55423C15.4109 7.36353 14.9862 7.26818 14.6643 7.26818C14.3492 7.26818 14.0684 7.36353 13.8218 7.55423C13.582 7.74493 13.4622 8.06595 13.4622 8.51728C13.4622 8.98768 13.6129 9.37863 13.9143 9.69011C14.1745 9.69646 14.4417 9.72189 14.7157 9.76639C14.9897 9.80453 15.1952 9.84585 15.3322 9.89035V10.9869C15.1746 10.9424 14.9486 10.9011 14.654 10.8629C14.3663 10.8184 14.13 10.7962 13.9451 10.7962C13.6026 10.7962 13.332 10.8788 13.1334 11.0441C12.9416 11.2157 12.8457 11.4636 12.8457 11.7878C12.8457 12.112 12.9484 12.3695 13.1539 12.5602C13.3663 12.7573 13.6848 12.8558 14.1095 12.8558Z" fill="#DE1E7E"/>
</svg>