<svg width="12" height="16" viewBox="0 0 12 16" fill="none" xmlns="http://www.w3.org/2000/svg">
<path d="M11.8333 9.2466C11.8333 7.08707 10.6516 5.20707 8.90656 4.23262C9.10373 3.84583 9.21613 3.40703 9.21613 2.94094C9.21613 2.03669 8.79673 1.25726 8.14355 0.746955H8.14484C7.50836 0.246402 6.86995 -0.0675813 5.6792 0.0117271C4.46854 0.0923356 3.78774 0.839264 3.78774 0.839264C3.78774 0.839264 3.78838 0.839264 3.78838 0.838614C3.75691 0.870467 3.72608 0.903621 3.69654 0.938725C3.39275 1.29431 3.24246 1.73181 3.23925 2.168C3.2354 2.70626 3.45569 3.24192 3.88922 3.62156C3.97143 3.69371 4.05813 3.75677 4.14805 3.81203C4.26879 3.88614 4.42679 3.82828 4.4756 3.69371L4.64259 3.23217L4.66314 3.17431L4.66635 3.16651C4.63745 3.15416 4.60855 3.14051 4.57965 3.12556C4.11722 2.83302 3.83976 2.28502 3.91684 1.70191C3.94124 1.51794 3.99905 1.34697 4.08254 1.19355C4.14355 1.08954 4.64516 0.315309 6.04914 0.441422C6.26366 0.467425 6.49166 0.520731 6.72801 0.614991C6.83655 0.655295 6.94124 0.70405 7.04079 0.761256C7.04465 0.763206 7.04786 0.765156 7.05171 0.767107C7.05171 0.767107 7.05171 0.767107 7.05107 0.767757C7.67727 1.13114 8.09988 1.81437 8.09988 2.5977C8.09988 3.22567 7.88858 3.85818 7.45826 4.24497C7.45634 4.24692 7.45441 4.24887 7.45248 4.25082C7.39147 4.30933 7.3221 4.36719 7.24439 4.42374C6.99519 4.57586 6.69333 4.66752 6.39596 4.72212V3.12425C6.39596 3.1171 6.39532 3.1106 6.39468 3.1041V2.33702C6.39468 2.21676 6.31696 2.1108 6.20328 2.07569L5.50129 1.85987V4.77543H4.88858C4.73122 4.77543 4.59121 4.87489 4.53662 5.02441L4.35678 5.52106L5.41844 5.53211C6.08639 5.56266 6.71902 5.69853 7.29256 5.9202C7.47175 5.98521 7.64452 6.06321 7.81086 6.15227C8.6625 6.60862 9.33174 7.3679 9.67727 8.2884C9.8449 8.73435 9.93675 9.21735 9.93675 9.72245C9.93675 9.94087 9.91876 10.1534 9.88601 10.3595C9.82563 10.8048 9.69911 11.228 9.51735 11.62C8.82563 13.1152 7.32724 14.1507 5.588 14.1507C4.66122 14.1507 3.8038 13.8556 3.09924 13.355C2.98813 13.2757 2.88023 13.1925 2.77682 13.1035C2.63617 12.9871 2.5045 12.859 2.3844 12.7212C1.92197 12.1895 1.62846 11.5082 1.62846 10.7613C1.62846 9.12244 2.93932 7.90161 4.55845 7.90161C4.94124 7.90161 5.30733 7.97572 5.64259 8.11093C5.95666 8.24419 6.22576 8.44051 6.43964 8.68494C6.66764 8.97747 6.8038 9.34671 6.8038 9.7478C6.8038 10.1385 6.6747 10.4993 6.45762 10.7879C6.17181 11.1168 5.7704 11.1656 5.58671 11.1695C5.34009 11.1611 5.12942 11.1077 4.97978 11.0564C4.85454 11.0135 4.71902 11.0791 4.67342 11.2053L4.56552 11.503C4.81086 11.6304 5.08382 11.711 5.37284 11.7338V11.7344C5.37862 11.7351 5.3844 11.7351 5.39018 11.7351C5.41716 11.737 5.44477 11.7377 5.47175 11.739C5.48716 11.7396 5.50258 11.7403 5.51799 11.7403C5.52506 11.7403 5.53212 11.7409 5.53919 11.7409C5.57002 11.7409 5.60084 11.7396 5.63167 11.7383C5.63553 11.7383 5.63874 11.7383 5.64259 11.7383C5.68113 11.7364 5.71966 11.7338 5.7582 11.7299C7.02859 11.6057 8.05621 10.4115 8.05621 9.04768C8.05621 7.90096 7.35422 6.92065 6.36128 6.52281C6.3221 6.50591 6.28292 6.49031 6.2431 6.47601V6.47536C5.80444 6.30764 5.32853 6.21598 4.83142 6.21598C3.61176 6.21598 2.52056 6.76919 1.7871 7.64093C1.19365 8.34756 0.833984 9.2622 0.833984 10.2633C0.833984 10.2945 0.834627 10.3251 0.835911 10.3556C0.835911 10.355 0.835269 10.3543 0.835269 10.3537C0.835269 10.3621 0.835911 10.3699 0.836553 10.3784C0.837196 10.4102 0.839122 10.4421 0.840407 10.4746C0.840407 10.4759 0.840407 10.4772 0.840407 10.4778C0.844261 10.5558 0.850041 10.6338 0.859033 10.7106C1.10502 13.11 3.10052 14.9724 5.50194 14.9874V15.9995L6.22833 15.8136C6.3266 15.7882 6.39532 15.6992 6.39532 15.5965V15.1388C6.39596 15.1258 6.39661 15.1128 6.39661 15.0998V15.0361C9.41652 14.9334 11.834 12.4235 11.834 9.34151C11.834 9.32981 11.8333 9.31811 11.8333 9.30641C11.8327 9.28625 11.8333 9.2661 11.8333 9.2466Z" fill="url(#paint0_linear)"/>
<defs>
<linearGradient id="paint0_linear" x1="6.33398" y1="-0.000488281" x2="6.33398" y2="15.9995" gradientUnits="userSpaceOnUse">
<stop stop-color="#CDAE81"/>
<stop offset="1" stop-color="#B29265"/>
</linearGradient>
</defs>
</svg>
