<svg width="26" height="26" viewBox="0 0 26 26" fill="none" xmlns="http://www.w3.org/2000/svg">
<path fill-rule="evenodd" clip-rule="evenodd" d="M13.9549 4.27435C19.3794 4.27435 23.7765 8.66145 23.7765 14.0734C23.7765 19.4852 19.3794 23.8723 13.9549 23.8723C8.53063 23.8723 4.13354 19.4852 4.13354 14.0734C4.13354 8.66145 8.53063 4.27435 13.9549 4.27435M13.9998 2C20.6274 2 26 7.37254 26 14.0002C26 20.6275 20.6274 26 13.9998 26C7.37229 26 2 20.6275 2 14.0002C2 7.37254 7.37229 2 13.9998 2" fill="white"/>
<path fill-rule="evenodd" clip-rule="evenodd" d="M7.99983 0C12.4182 0 16 3.58198 16 8.00006C16 12.4184 12.4182 16 7.99983 16C3.58155 16 0 12.4184 0 8.00006C0 3.58198 3.58155 0 7.99983 0" fill="#0CD664"/>
</svg>
