<svg width="72" height="72" viewBox="0 0 72 72" fill="none" xmlns="http://www.w3.org/2000/svg">
  <path fill-rule="evenodd" clip-rule="evenodd" d="M60.7941 35.9996L64.6899 29.2565C65.2005 31.423 65.4984 33.6745 65.4984 35.9996C65.4984 38.3247 65.2005 40.5762 64.6899 42.7465L60.7941 35.9996ZM48.4411 57.5519H56.0701C52.832 60.5733 48.9363 62.8868 44.5995 64.2099L48.4411 57.5519ZM23.5587 57.5519L27.4002 64.2099C23.0635 62.8868 19.1639 60.5733 15.9258 57.5519H23.5587ZM23.5587 14.4473H15.9258C19.1639 11.4259 23.0635 9.11246 27.4002 7.78551L23.5587 14.4473ZM48.4414 14.4473L44.5959 7.78551C48.9366 9.11246 52.8323 11.4259 56.0704 14.4473H48.4414ZM58.2833 34.5488H48.4414L43.4779 25.9488L48.4414 17.3488H58.2833L63.2468 25.9488L58.2833 34.5488ZM31.0322 47.505H40.874L45.8839 56.1824L40.9669 64.7051H31.0322L26.0687 56.1012L31.0322 47.505ZM13.5226 37.4504H23.4534L28.4169 46.0542L23.4534 54.6504H13.5226L8.55912 46.0542L13.5226 37.4504ZM23.4534 17.3488L28.4169 25.9488L23.4534 34.5488H13.5226L8.55912 25.9488L13.5226 17.3488H23.4534ZM40.874 24.4981H31.0322L26.0687 15.8981L31.0322 7.29805H40.9669L45.8839 15.8168L40.874 24.4981ZM31.0322 44.6035L26.0687 35.9996L31.0322 27.3996H40.874L45.8375 35.9996L40.874 44.6035H31.0322ZM48.4414 54.6504L43.4779 46.0542L48.4414 37.4504H58.2833L63.2468 46.0542L58.2833 54.6504H48.4414ZM6.50206 35.9996C6.50206 33.7597 6.77674 31.5855 7.24871 29.4848L11.009 35.9996L7.25258 42.5145C6.77674 40.4176 6.50206 38.2396 6.50206 35.9996ZM36.0001 3.59961C18.1346 3.59961 3.6001 18.1342 3.6001 35.9996C3.6001 53.8651 18.1346 68.3996 36.0001 68.3996C53.8656 68.3996 68.4001 53.8651 68.4001 35.9996C68.4001 18.1342 53.8656 3.59961 36.0001 3.59961V3.59961Z" fill="#8697A2"/>
</svg>
