<svg width="184" height="184" viewBox="0 0 184 184" fill="none" xmlns="http://www.w3.org/2000/svg">
<path d="M92.184 177.315C139.505 177.315 177.867 138.953 177.867 91.632C177.867 44.3107 139.505 5.94931 92.184 5.94931C44.8628 5.94931 6.50134 44.3107 6.50134 91.632C6.50134 138.953 44.8628 177.315 92.184 177.315Z" fill="#232A33"/>
<path d="M136.957 93.5026H48.0547C44.0374 93.5026 41.3387 89.4547 42.8414 85.744L55.0467 55.9973C56.7947 51.7653 60.904 49.0053 65.4734 49.0053H119.508C124.077 49.0053 128.217 51.7653 129.935 55.9973L142.14 85.744C143.673 89.4547 140.944 93.5026 136.957 93.5026Z" fill="#213B38"/>
<path d="M129.321 142.539C124.016 142.539 118.711 140.515 114.663 136.467C106.597 128.401 106.597 115.245 114.663 107.149C122.728 99.0839 135.884 99.0839 143.98 107.149C147.905 111.075 150.052 116.257 150.052 121.808C150.052 127.359 147.905 132.541 143.98 136.467C139.932 140.515 134.627 142.539 129.321 142.539ZM129.321 103.439C124.599 103.439 119.907 105.217 116.319 108.805C109.143 115.981 109.143 127.635 116.319 134.811C123.495 141.987 135.148 141.987 142.324 134.811C149.5 127.635 149.5 115.981 142.324 108.805C138.767 105.248 134.044 103.439 129.321 103.439Z" fill="#DE1E7E"/>
<path d="M115.491 136.835C115.184 136.835 114.908 136.712 114.663 136.497C114.203 136.037 114.203 135.301 114.663 134.841L142.324 107.18C142.784 106.72 143.52 106.72 143.98 107.18C144.44 107.64 144.44 108.376 143.98 108.836L116.319 136.467C116.104 136.712 115.797 136.835 115.491 136.835Z" fill="#DE1E7E"/>
<path d="M104.359 127.972H48.6374C47.9934 127.972 47.472 127.451 47.472 126.807C47.472 126.163 47.9934 125.641 48.6374 125.641H104.359C105.003 125.641 105.524 126.163 105.524 126.807C105.524 127.451 105.003 127.972 104.359 127.972Z" fill="white"/>
<path d="M98.1334 135.731H64.1547C63.5107 135.731 62.9894 135.209 62.9894 134.565C62.9894 133.921 63.5107 133.4 64.1547 133.4H98.1334C98.7774 133.4 99.2987 133.921 99.2987 134.565C99.2987 135.209 98.7774 135.731 98.1334 135.731Z" fill="white"/>
<path d="M106.689 135.731H103.009C102.365 135.731 101.844 135.209 101.844 134.565C101.844 133.921 102.365 133.4 103.009 133.4H106.689C107.333 133.4 107.855 133.921 107.855 134.565C107.855 135.209 107.333 135.731 106.689 135.731Z" fill="white"/>
<path d="M43.148 127.972H39.0694C38.4254 127.972 37.9041 127.451 37.9041 126.807C37.9041 126.163 38.4254 125.641 39.0694 125.641H43.148C43.792 125.641 44.3134 126.163 44.3134 126.807C44.3134 127.451 43.792 127.972 43.148 127.972Z" fill="white"/>
<path d="M55.2306 127.972C54.5866 127.972 54.0653 127.451 54.0653 126.807V88.9026C54.0653 88.2586 54.5866 87.7373 55.2306 87.7373C55.8746 87.7373 56.396 88.2586 56.396 88.9026V126.807C56.396 127.451 55.8746 127.972 55.2306 127.972Z" fill="white"/>
<path d="M129.935 97.6734C129.291 97.6734 128.769 97.152 128.769 96.508V88.872C128.769 88.228 129.291 87.7067 129.935 87.7067C130.579 87.7067 131.1 88.228 131.1 88.872V96.508C131.1 97.152 130.579 97.6734 129.935 97.6734Z" fill="white"/>
<path d="M82.064 127.972C81.42 127.972 80.8987 127.451 80.8987 126.807V92.7359C80.8987 92.0919 81.42 91.5706 82.064 91.5706C82.708 91.5706 83.2294 92.0919 83.2294 92.7359V126.837C83.2294 127.451 82.708 127.972 82.064 127.972Z" fill="white"/>
<path d="M72.0361 111.688C71.3921 111.688 70.8707 111.167 70.8707 110.523V102.273C70.8707 101.629 71.3921 101.108 72.0361 101.108C72.6801 101.108 73.2014 101.629 73.2014 102.273V110.523C73.2014 111.167 72.6801 111.688 72.0361 111.688Z" fill="white"/>
<path d="M136.313 75.0107C135.853 75.0107 135.424 74.7347 135.24 74.3053L126.408 53.3293C125.764 51.7653 124.261 50.784 122.575 50.784H62.5906C60.9346 50.784 59.432 51.7653 58.7573 53.2987L49.7106 74.3053C49.4653 74.888 48.76 75.164 48.1773 74.9187C47.5946 74.6733 47.3186 73.968 47.564 73.3853L56.6106 52.3787C57.6533 49.9867 59.984 48.4533 62.5906 48.4533H122.575C125.212 48.4533 127.543 50.0173 128.555 52.44L137.387 73.416C137.632 73.9987 137.356 74.704 136.773 74.9493C136.62 74.98 136.467 75.0107 136.313 75.0107Z" fill="#DE1E7E"/>
<path d="M58.0214 84.3947C52.1947 84.3947 47.472 79.672 47.472 73.8453C47.472 73.2013 47.9934 72.68 48.6374 72.68C49.2814 72.68 49.8027 73.2013 49.8027 73.8453C49.8027 78.384 53.4827 82.064 58.0214 82.064C60.812 82.064 63.388 80.6533 64.9214 78.3227C65.2587 77.7707 65.9947 77.648 66.5467 77.9853C67.0987 78.3227 67.252 79.0587 66.884 79.6107C64.9214 82.616 61.6094 84.3947 58.0214 84.3947Z" fill="#DE1E7E"/>
<path d="M73.692 84.3947C70.1654 84.3947 66.9147 82.6467 64.952 79.7333C64.584 79.212 64.7374 78.476 65.2587 78.108C65.78 77.74 66.516 77.8933 66.884 78.4147C68.4174 80.684 70.9627 82.0333 73.692 82.0333C78.2307 82.0333 81.9107 78.3533 81.9107 73.8147C81.9107 73.1707 82.432 72.6493 83.076 72.6493C83.72 72.6493 84.2414 73.1707 84.2414 73.8147C84.2414 79.672 79.5187 84.3947 73.692 84.3947Z" fill="#DE1E7E"/>
<path d="M92.46 84.3947C86.6333 84.3947 81.9106 79.672 81.9106 73.8453C81.9106 73.2013 82.432 72.68 83.076 72.68C83.72 72.68 84.2413 73.2013 84.2413 73.8453C84.2413 78.384 87.9213 82.064 92.46 82.064C96.9986 82.064 100.679 78.384 100.679 73.8453C100.679 73.2013 101.2 72.68 101.844 72.68C102.488 72.68 103.009 73.2013 103.009 73.8453C103.009 79.672 98.2866 84.3947 92.46 84.3947Z" fill="#DE1E7E"/>
<path d="M111.259 84.3947C105.432 84.3947 100.709 79.672 100.709 73.8453C100.709 73.2013 101.231 72.68 101.875 72.68C102.519 72.68 103.04 73.2013 103.04 73.8453C103.04 78.384 106.72 82.064 111.259 82.064C114.019 82.064 116.595 80.684 118.128 78.384C118.496 77.8627 119.201 77.7093 119.753 78.0467C120.275 78.4147 120.428 79.12 120.091 79.672C118.097 82.616 114.785 84.3947 111.259 84.3947Z" fill="#DE1E7E"/>
<path d="M65.9027 80.132C65.8107 80.132 65.7494 80.132 65.6574 80.1013C65.0134 79.9787 64.6147 79.3347 64.768 78.7213L70.9934 49.3427C71.116 48.6987 71.76 48.3 72.3734 48.4533C73.0174 48.576 73.416 49.22 73.2627 49.8333L67.0374 79.212C66.9147 79.764 66.424 80.132 65.9027 80.132Z" fill="#DE1E7E"/>
<path d="M126.868 84.3947C123.28 84.3947 119.968 82.616 118.005 79.6107C117.668 79.0587 117.791 78.3533 118.343 77.9853C118.895 77.648 119.6 77.7707 119.968 78.3227C121.501 80.6533 124.077 82.064 126.868 82.064C131.407 82.064 135.087 78.384 135.087 73.8453C135.087 73.2013 135.608 72.68 136.252 72.68C136.896 72.68 137.417 73.2013 137.417 73.8453C137.448 79.672 132.695 84.3947 126.868 84.3947Z" fill="#DE1E7E"/>
<path d="M119.017 80.132C118.465 80.132 118.005 79.764 117.883 79.212L111.657 49.8333C111.535 49.1893 111.933 48.576 112.547 48.4533C113.16 48.3306 113.804 48.7293 113.927 49.3426L120.152 78.7213C120.275 79.3653 119.876 79.9787 119.263 80.1013C119.171 80.132 119.079 80.132 119.017 80.132Z" fill="#DE1E7E"/>
<path d="M83.076 75.0107H83.0453C82.4013 74.98 81.9106 74.4587 81.9106 73.8147L82.6773 49.5573C82.708 48.9133 83.26 48.392 83.8733 48.4227C84.5173 48.4533 85.008 48.9747 85.008 49.6187L84.2413 73.876C84.2106 74.4893 83.6893 75.0107 83.076 75.0107Z" fill="#DE1E7E"/>
<path d="M101.844 75.0107C101.231 75.0107 100.709 74.52 100.679 73.876L99.9119 49.6187C99.8813 48.9747 100.403 48.4227 101.047 48.4227C101.691 48.392 102.243 48.9133 102.243 49.5573L103.009 73.8147C103.04 74.4587 102.519 75.0107 101.875 75.0107C101.875 75.0107 101.875 75.0107 101.844 75.0107Z" fill="#DE1E7E"/>
<g clip-path="url(#clip0)">
<path d="M92 184C142.81 184 184 142.81 184 92C184 41.1898 142.81 0 92 0C41.1898 0 0 41.1898 0 92C0 142.81 41.1898 184 92 184Z" fill="#232A33"/>
<path d="M79.7333 56.396C79.396 56.396 79.0587 56.2426 78.8133 55.9666C78.4147 55.476 78.5067 54.74 78.9973 54.3413L90.1293 45.448C92.2453 43.8226 95.1587 43.8226 97.2747 45.448L108.192 54.3413C108.683 54.74 108.775 55.476 108.345 55.9666C107.916 56.4573 107.211 56.5493 106.72 56.12L95.8333 47.2266C94.6067 46.276 92.828 46.276 91.5707 47.2573L80.4693 56.12C80.2547 56.3346 79.9787 56.396 79.7333 56.396Z" fill="#DE1E7E"/>
<path d="M103.347 123.311H64.4C58.604 123.311 53.912 118.619 53.912 112.823V73.876C53.912 73.232 54.4333 72.7106 55.0773 72.7106C55.7213 72.7106 56.2427 73.232 56.2427 73.876V112.792C56.2427 117.3 59.892 120.949 64.4 120.949H103.347C103.991 120.949 104.512 121.471 104.512 122.115C104.512 122.759 103.991 123.311 103.347 123.311Z" fill="white"/>
<path d="M132.296 97.9186C131.652 97.9186 131.131 97.3973 131.131 96.7533V73.876C131.131 73.232 131.652 72.7106 132.296 72.7106C132.94 72.7106 133.461 73.232 133.461 73.876V96.7533C133.461 97.3973 132.94 97.9186 132.296 97.9186Z" fill="white"/>
<path d="M132.296 75.0413C132.051 75.0413 131.805 74.9493 131.591 74.796L123.035 68.2333C122.513 67.8346 122.421 67.0986 122.82 66.608C123.219 66.0866 123.955 65.9946 124.445 66.3933L133.001 72.956C133.523 73.3546 133.615 74.0906 133.216 74.5813C133.001 74.888 132.633 75.0413 132.296 75.0413Z" fill="#DE1E7E"/>
<path d="M57.776 120.459C57.408 120.459 57.0706 120.305 56.856 119.999C56.4573 119.477 56.58 118.741 57.0706 118.373L85.3453 97.06C85.8666 96.6613 86.6026 96.784 86.9706 97.2747C87.3693 97.796 87.2466 98.532 86.756 98.9L58.4813 120.213C58.2666 120.397 58.0213 120.459 57.776 120.459Z" fill="white"/>
<path d="M111.105 106.413C110.86 106.413 110.615 106.352 110.4 106.168L100.801 98.9306C100.28 98.5319 100.188 97.8266 100.587 97.3053C100.985 96.7839 101.691 96.6919 102.212 97.0906L111.811 104.328C112.332 104.727 112.424 105.432 112.025 105.953C111.811 106.229 111.473 106.413 111.105 106.413Z" fill="white"/>
<path d="M55.108 75.0413C54.7707 75.0413 54.4027 74.888 54.188 74.5813C53.7893 74.06 53.8813 73.3546 54.4027 72.956L62.9587 66.3933C63.48 65.9946 64.1854 66.0866 64.584 66.608C64.9827 67.1293 64.8907 67.8346 64.3693 68.2333L55.8133 74.796C55.5987 74.98 55.3533 75.0413 55.108 75.0413Z" fill="#DE1E7E"/>
<path d="M123.74 81.052C123.096 81.052 122.575 80.5307 122.575 79.8867V61.9773C122.575 58.9106 120.06 56.396 116.993 56.396H70.38C67.3134 56.396 64.7987 58.9106 64.7987 61.9773V79.8867C64.7987 80.5307 64.2774 81.052 63.6334 81.052C62.9894 81.052 62.468 80.5307 62.468 79.8867V61.9773C62.468 57.6226 66.0254 54.0653 70.38 54.0653H116.993C121.348 54.0653 124.905 57.6226 124.905 61.9773V79.8867C124.905 80.5307 124.384 81.052 123.74 81.052Z" fill="white"/>
<path d="M129.321 142.539C117.883 142.539 108.591 133.247 108.591 121.808C108.591 110.369 117.883 101.077 129.321 101.077C140.76 101.077 150.052 110.369 150.052 121.808C150.052 133.247 140.76 142.539 129.321 142.539ZM129.321 103.439C119.171 103.439 110.921 111.688 110.921 121.839C110.921 131.989 119.171 140.239 129.321 140.239C139.472 140.239 147.721 131.989 147.721 121.839C147.721 111.688 139.472 103.439 129.321 103.439Z" fill="#DE1E7E"/>
<path d="M126.991 130.763C126.684 130.763 126.408 130.64 126.163 130.425C125.703 129.965 125.703 129.229 126.163 128.769L140.453 114.479C140.913 114.019 141.649 114.019 142.109 114.479C142.569 114.939 142.569 115.675 142.109 116.135L127.819 130.425C127.604 130.64 127.297 130.763 126.991 130.763Z" fill="#DE1E7E"/>
<path d="M126.991 130.763C126.684 130.763 126.408 130.64 126.163 130.425L117.576 121.839C117.116 121.379 117.116 120.643 117.576 120.183C118.036 119.723 118.772 119.723 119.232 120.183L127.819 128.769C128.279 129.229 128.279 129.965 127.819 130.425C127.604 130.64 127.297 130.763 126.991 130.763Z" fill="#DE1E7E"/>
<path d="M93.6867 103.991C92.4907 103.991 91.3253 103.592 90.344 102.825L54.4027 74.8266C53.8813 74.428 53.7893 73.692 54.188 73.2013C54.5867 72.68 55.3227 72.6186 55.8133 72.9866L91.7853 100.985C92.92 101.875 94.484 101.875 95.6187 100.985L131.591 72.9866C132.112 72.588 132.817 72.68 133.216 73.2013C133.615 73.7226 133.523 74.428 133.001 74.8266L97.0293 102.825C96.0787 103.592 94.8827 103.991 93.6867 103.991Z" fill="#DE1E7E"/>
<path d="M93.5947 88.1973C86.6947 88.1973 81.1134 82.5853 81.1134 75.716C81.1134 68.8467 86.7254 63.2347 93.5947 63.2347C100.495 63.2347 106.076 68.8467 106.076 75.716C106.076 76.36 105.555 76.8813 104.911 76.8813C104.267 76.8813 103.745 76.36 103.745 75.716C103.745 70.104 99.1761 65.5653 93.5947 65.5653C87.9827 65.5653 83.4441 70.1347 83.4441 75.716C83.4441 81.2973 88.0134 85.8666 93.5947 85.8666C94.2387 85.8666 94.7601 86.388 94.7601 87.032C94.7601 87.676 94.2387 88.1973 93.5947 88.1973Z" fill="white"/>
<path d="M92.828 81.8186C89.3627 81.8186 86.5414 78.9973 86.5414 75.532C86.5414 72.0666 89.3627 69.2453 92.828 69.2453C96.2934 69.2453 99.1147 72.0666 99.1147 75.532C99.084 78.9973 96.2627 81.8186 92.828 81.8186ZM92.828 71.6066C90.6507 71.6066 88.872 73.3853 88.872 75.5626C88.872 77.74 90.6507 79.5186 92.828 79.5186C95.0054 79.5186 96.784 77.74 96.784 75.5626C96.7534 73.3546 95.0054 71.6066 92.828 71.6066Z" fill="white"/>
<path d="M97.9187 81.8186C97.2747 81.8186 96.7534 81.2973 96.7534 80.6533V70.4413C96.7534 69.7973 97.2747 69.276 97.9187 69.276C98.5628 69.276 99.0841 69.7973 99.0841 70.4413V80.6533C99.0841 81.2973 98.5628 81.8186 97.9187 81.8186Z" fill="white"/>
<path d="M101.415 85.56C98.8388 85.56 96.7534 83.4746 96.7534 80.8986V75.624C96.7534 74.98 97.2747 74.4586 97.9187 74.4586C98.5627 74.4586 99.0841 74.98 99.0841 75.624V80.8986C99.0841 82.1866 100.127 83.2293 101.415 83.2293C102.703 83.2293 103.745 82.1866 103.745 80.8986V75.624C103.745 74.98 104.267 74.4586 104.911 74.4586C105.555 74.4586 106.076 74.98 106.076 75.624V80.8986C106.076 83.4746 103.991 85.56 101.415 85.56Z" fill="white"/>
</g>
<defs>
<clipPath id="clip0">
<rect width="184" height="184" fill="white"/>
</clipPath>
</defs>
</svg>
