<svg width="184" height="184" viewBox="0 0 184 184" fill="none" xmlns="http://www.w3.org/2000/svg">
<g clip-path="url(#clip0)">
<path d="M92 184C142.81 184 184 142.81 184 92C184 41.1898 142.81 0 92 0C41.1898 0 0 41.1898 0 92C0 142.81 41.1898 184 92 184Z" fill="#232A33"/>
<path d="M55.8747 80.8986C55.2307 80.8986 54.7094 80.3773 54.7094 79.7333V68.264C54.7094 62.468 59.432 57.7453 65.228 57.7453H65.596C66.24 57.7453 66.7613 58.2666 66.7613 58.9106C66.7613 59.5546 66.24 60.076 65.596 60.076H65.228C60.72 60.076 57.04 63.756 57.04 68.264V79.7333C57.04 80.3773 56.5187 80.8986 55.8747 80.8986Z" fill="#DE1E7E"/>
<path d="M133.063 86.664C132.419 86.664 131.897 86.1426 131.897 85.4986V68.264C131.897 63.756 128.217 60.076 123.709 60.076H123.065C122.421 60.076 121.9 59.5546 121.9 58.9106C121.9 58.2666 122.421 57.7453 123.065 57.7453H123.709C129.505 57.7453 134.228 62.468 134.228 68.264V85.4986C134.228 86.1426 133.707 86.664 133.063 86.664Z" fill="white"/>
<path d="M133.063 80.8986C132.419 80.8986 131.897 80.3773 131.897 79.7333V68.264C131.897 63.756 128.217 60.076 123.709 60.076H123.065C122.421 60.076 121.9 59.5546 121.9 58.9106C121.9 58.2666 122.421 57.7453 123.065 57.7453H123.709C129.505 57.7453 134.228 62.468 134.228 68.264V79.7333C134.228 80.3773 133.707 80.8986 133.063 80.8986Z" fill="#DE1E7E"/>
<path d="M112.087 60.1066H84.272C83.628 60.1066 83.1067 59.5853 83.1067 58.9413C83.1067 58.2973 83.628 57.776 84.272 57.776H112.087C112.731 57.776 113.252 58.2973 113.252 58.9413C113.252 59.5853 112.731 60.1066 112.087 60.1066Z" fill="#DE1E7E"/>
<path d="M73.9373 68.1413H72.9253C70.6867 68.1413 68.8773 66.332 68.8773 64.0933V56.12C68.8773 53.8813 70.6867 52.072 72.9253 52.072H73.9373C76.176 52.072 77.9853 53.8813 77.9853 56.12V64.0933C78.016 66.3013 76.176 68.1413 73.9373 68.1413ZM72.9253 54.372C71.9747 54.372 71.208 55.1386 71.208 56.0893V64.0626C71.208 65.0133 71.9747 65.78 72.9253 65.78H73.9373C74.888 65.78 75.6546 65.0133 75.6546 64.0626V56.0893C75.6546 55.1386 74.888 54.372 73.9373 54.372H72.9253Z" fill="white"/>
<path d="M115.981 68.1413H114.969C112.731 68.1413 110.921 66.332 110.921 64.0933V56.12C110.921 53.8813 112.731 52.072 114.969 52.072H115.981C118.22 52.072 120.029 53.8813 120.029 56.12V64.0933C120.06 66.3013 118.22 68.1413 115.981 68.1413ZM114.969 54.372C114.019 54.372 113.252 55.1386 113.252 56.0893V64.0626C113.252 65.0133 114.019 65.78 114.969 65.78H115.981C116.932 65.78 117.699 65.0133 117.699 64.0626V56.0893C117.699 55.1386 116.932 54.372 115.981 54.372H114.969Z" fill="white"/>
<path d="M114.049 142.14C114.019 142.14 113.957 142.14 113.927 142.14L59.8 136.436C54.0347 135.823 49.8333 130.64 50.4467 124.875L54.7093 84.3026C54.7707 83.6586 55.3533 83.1986 55.9973 83.2599C56.6413 83.3213 57.1013 83.9039 57.04 84.5479L52.7773 125.12C52.3173 129.597 55.568 133.645 60.0453 134.105L114.172 139.809C114.816 139.871 115.276 140.453 115.215 141.097C115.153 141.711 114.632 142.14 114.049 142.14Z" fill="white"/>
<path d="M132.173 99.6053C132.143 99.6053 132.081 99.6053 132.051 99.6053C131.407 99.544 130.947 98.9613 131.008 98.3173L131.621 92.4293C131.683 91.7853 132.265 91.3253 132.909 91.3866C133.553 91.4479 134.013 92.0306 133.952 92.6746L133.339 98.5626C133.277 99.176 132.756 99.6053 132.173 99.6053Z" fill="white"/>
<path d="M71.024 102.365L68.0187 102.059C67.5893 102.028 67.2827 101.629 67.344 101.231L67.6507 98.2253C67.6813 97.7959 68.08 97.4893 68.4787 97.5506L71.484 97.8573C71.9133 97.8879 72.22 98.2866 72.1587 98.6853L71.852 101.691C71.8213 102.12 71.4533 102.427 71.024 102.365Z" fill="white"/>
<path d="M86.388 103.991L83.3827 103.684C82.9533 103.653 82.6467 103.255 82.708 102.856L83.0147 99.8506C83.0453 99.4213 83.444 99.1146 83.8427 99.176L86.848 99.4826C87.2773 99.5133 87.584 99.912 87.5227 100.311L87.216 103.316C87.1853 103.715 86.8173 104.021 86.388 103.991Z" fill="white"/>
<path d="M101.752 105.616L98.7466 105.309C98.3172 105.279 98.0106 104.88 98.0719 104.481L98.3786 101.476C98.4092 101.047 98.8079 100.74 99.2066 100.801L102.212 101.108C102.641 101.139 102.948 101.537 102.887 101.936L102.58 104.941C102.549 105.34 102.181 105.647 101.752 105.616Z" fill="white"/>
<path d="M117.116 107.241L114.111 106.935C113.681 106.904 113.375 106.505 113.436 106.107L113.743 103.101C113.773 102.672 114.172 102.365 114.571 102.427L117.576 102.733C118.005 102.764 118.312 103.163 118.251 103.561L117.944 106.567C117.913 106.965 117.545 107.272 117.116 107.241Z" fill="white"/>
<path d="M69.7973 113.957L66.792 113.651C66.3626 113.62 66.056 113.221 66.1173 112.823L66.424 109.817C66.4546 109.388 66.8533 109.081 67.252 109.143L70.2573 109.449C70.6866 109.48 70.9933 109.879 70.932 110.277L70.6253 113.283C70.5946 113.712 70.2266 114.019 69.7973 113.957Z" fill="white"/>
<path d="M85.1613 115.583L82.156 115.276C81.7267 115.245 81.42 114.847 81.4813 114.448L81.788 111.443C81.8187 111.013 82.2173 110.707 82.616 110.768L85.6213 111.075C86.0507 111.105 86.3573 111.504 86.296 111.903L85.9893 114.908C85.9587 115.337 85.5907 115.644 85.1613 115.583Z" fill="white"/>
<path d="M100.525 117.208L97.5199 116.901C97.0906 116.871 96.7839 116.472 96.8452 116.073L97.1519 113.068C97.1826 112.639 97.5812 112.332 97.9799 112.393L100.985 112.7C101.415 112.731 101.721 113.129 101.66 113.528L101.353 116.533C101.323 116.963 100.955 117.239 100.525 117.208Z" fill="white"/>
<path d="M68.5706 125.58L65.5653 125.273C65.136 125.243 64.8293 124.844 64.8906 124.445L65.1973 121.44C65.228 121.011 65.6266 120.704 66.0253 120.765L69.0306 121.072C69.4599 121.103 69.7666 121.501 69.7053 121.9L69.3986 124.905C69.3679 125.304 69 125.611 68.5706 125.58Z" fill="white"/>
<path d="M83.9346 127.175L80.9293 126.868C80.5 126.837 80.1933 126.439 80.2546 126.04L80.5613 123.035C80.592 122.605 80.9906 122.299 81.3893 122.36L84.3946 122.667C84.824 122.697 85.1306 123.096 85.0693 123.495L84.7626 126.5C84.732 126.929 84.364 127.236 83.9346 127.175Z" fill="white"/>
<path d="M99.2987 128.8L96.2933 128.493C95.864 128.463 95.5573 128.064 95.6187 127.665L95.9253 124.66C95.956 124.231 96.3547 123.924 96.7533 123.985L99.7587 124.292C100.188 124.323 100.495 124.721 100.433 125.12L100.127 128.125C100.096 128.555 99.728 128.861 99.2987 128.8Z" fill="white"/>
<path d="M125.427 96.0173C125.181 96.0173 124.905 96.0173 124.629 95.9866C122.299 95.7413 121.164 94.6066 120.244 93.7173C119.416 92.8893 118.772 92.2453 117.269 92.0919C115.736 91.9386 115 92.4293 114.019 93.0426C112.945 93.748 111.596 94.6066 109.265 94.3613C106.935 94.116 105.8 92.9813 104.88 92.0919C104.052 91.2639 103.408 90.62 101.905 90.4666C100.372 90.3133 99.636 90.804 98.6546 91.4173C97.5813 92.1226 96.2013 92.9813 93.9013 92.736C91.5706 92.4906 90.4359 91.356 89.5159 90.4666C88.688 89.6386 88.044 88.9946 86.5413 88.8413C85.0386 88.688 84.272 89.1786 83.2906 89.7919C82.2173 90.4973 80.868 91.356 78.5373 91.1106C76.2066 90.8653 75.072 89.7306 74.152 88.8413C73.324 88.0133 72.68 87.3693 71.1773 87.2159C69.6746 87.0626 68.908 87.5533 67.9266 88.1666C66.8533 88.8719 65.504 89.7306 63.1733 89.4853C60.8426 89.2399 59.7079 88.1053 58.7879 87.2159C57.9599 86.3879 57.316 85.7439 55.8133 85.5906C55.1693 85.5293 54.7093 84.9466 54.7706 84.3026C54.832 83.6586 55.4146 83.1986 56.0586 83.2599C58.3893 83.5053 59.524 84.6399 60.444 85.5293C61.272 86.3573 61.916 87.0013 63.4186 87.1546C64.9213 87.3079 65.6879 86.8173 66.6693 86.2039C67.7426 85.4986 69.0919 84.6399 71.4226 84.8853C73.7533 85.1306 74.8879 86.2653 75.8079 87.1546C76.636 87.9826 77.2799 88.6266 78.7826 88.7799C80.2853 88.9333 81.052 88.4426 82.0333 87.8293C83.1066 87.1239 84.4559 86.2653 86.7866 86.5106C89.1173 86.7559 90.2519 87.8906 91.1719 88.7799C91.9999 89.6079 92.644 90.2519 94.1466 90.4053C95.6493 90.5586 96.416 90.068 97.3973 89.4546C98.4706 88.7493 99.82 87.8906 102.151 88.1359C104.481 88.3813 105.616 89.5159 106.536 90.4053C107.364 91.2333 108.008 91.8773 109.511 92.0306C111.013 92.184 111.78 91.6933 112.761 91.08C113.835 90.3746 115.184 89.516 117.515 89.7613C119.845 90.0066 120.98 91.1413 121.9 92.0306C122.728 92.8586 123.372 93.5026 124.875 93.656C126.408 93.8093 127.175 93.3186 128.125 92.7053C129.199 91.9999 130.548 91.1413 132.879 91.3866C133.523 91.448 133.983 92.0306 133.921 92.6746C133.86 93.3186 133.277 93.7786 132.633 93.7173C131.1 93.564 130.333 94.0546 129.383 94.668C128.463 95.2813 127.297 96.0173 125.427 96.0173Z" fill="white"/>
<path d="M133.063 80.8986H55.8747C55.2307 80.8986 54.7094 80.3773 54.7094 79.7333C54.7094 79.0893 55.2307 78.568 55.8747 78.568H133.063C133.707 78.568 134.228 79.0893 134.228 79.7333C134.228 80.3773 133.707 80.8986 133.063 80.8986Z" fill="#DE1E7E"/>
<path d="M129.321 142.539C117.883 142.539 108.591 133.247 108.591 121.808C108.591 110.369 117.883 101.077 129.321 101.077C140.76 101.077 150.052 110.369 150.052 121.808C150.052 133.247 140.76 142.539 129.321 142.539ZM129.321 103.439C119.171 103.439 110.921 111.688 110.921 121.839C110.921 131.989 119.171 140.239 129.321 140.239C139.472 140.239 147.721 131.989 147.721 121.839C147.721 111.688 139.472 103.439 129.321 103.439Z" fill="#DE1E7E"/>
<path d="M137.571 126.101H127.757C127.113 126.101 126.592 125.58 126.592 124.936C126.592 124.292 127.113 123.771 127.757 123.771H137.571C138.215 123.771 138.736 124.292 138.736 124.936C138.736 125.58 138.215 126.101 137.571 126.101Z" fill="#DE1E7E"/>
<path d="M127.788 126.101C127.144 126.101 126.623 125.58 126.623 124.936V112.792C126.623 112.148 127.144 111.627 127.788 111.627C128.432 111.627 128.953 112.148 128.953 112.792V124.936C128.953 125.58 128.432 126.101 127.788 126.101Z" fill="#DE1E7E"/>
</g>
<defs>
<clipPath id="clip0">
<rect width="184" height="184" fill="white"/>
</clipPath>
</defs>
</svg>
