<svg width="184" height="184" viewBox="0 0 184 184" fill="none" xmlns="http://www.w3.org/2000/svg">
<g clip-path="url(#clip0)">
<path d="M92 184C142.81 184 184 142.81 184 92C184 41.1898 142.81 0 92 0C41.1898 0 0 41.1898 0 92C0 142.81 41.1898 184 92 184Z" fill="#1C252E"/>
<path d="M68.3561 110.645H47.7788V65.044C47.7788 59.248 52.4708 54.556 58.2668 54.556H126.592C132.388 54.556 137.08 59.248 137.08 65.044V97.06C137.08 97.704 136.559 98.2254 135.915 98.2254C135.271 98.2254 134.749 97.704 134.749 97.06V65.044C134.749 60.536 131.1 56.8867 126.592 56.8867H58.2668C53.7588 56.8867 50.1095 60.536 50.1095 65.044V108.315H68.3561C69.0001 108.315 69.5215 108.836 69.5215 109.48C69.5215 110.093 69.0001 110.645 68.3561 110.645Z" fill="white"/>
<path d="M107.18 129.107H48.3615C45.0495 129.107 42.3508 126.408 42.3508 123.096V108.315H67.7122L70.0428 104.42H114.172C114.816 104.42 115.338 104.941 115.338 105.585C115.338 106.229 114.816 106.751 114.172 106.751H71.3615L69.0308 110.645H44.6815V123.096C44.6815 125.12 46.3375 126.776 48.3615 126.776H107.18C107.824 126.776 108.345 127.297 108.345 127.941C108.345 128.585 107.824 129.107 107.18 129.107Z" fill="white"/>
<path d="M141.465 100.004C141.159 100.004 140.883 99.8814 140.637 99.6667C140.177 99.2067 140.177 98.4707 140.637 98.0107C141.864 96.784 142.539 95.1587 142.539 93.4414V56.212C142.539 55.568 143.06 55.0467 143.704 55.0467C144.348 55.0467 144.869 55.568 144.869 56.212V93.4414C144.869 95.772 143.949 97.98 142.293 99.636C142.048 99.8813 141.741 100.004 141.465 100.004Z" fill="white"/>
<path d="M143.704 84.1493H136.099C135.455 84.1493 134.933 83.628 134.933 82.984C134.933 82.34 135.455 81.8187 136.099 81.8187H143.704C144.348 81.8187 144.869 82.34 144.869 82.984C144.869 83.628 144.348 84.1493 143.704 84.1493Z" fill="white"/>
<path d="M68.356 110.645H57.1934V67.5587C57.1934 65.4427 58.9107 63.7253 61.0267 63.7253H123.801C125.917 63.7253 127.635 65.4427 127.635 67.5587V97.888C127.635 98.532 127.113 99.0533 126.469 99.0533C125.825 99.0533 125.304 98.532 125.304 97.888V67.5587C125.304 66.7307 124.629 66.056 123.801 66.056H61.0267C60.1987 66.056 59.524 66.7307 59.524 67.5587V108.315H68.356C69 108.315 69.5214 108.836 69.5214 109.48C69.5214 110.093 69 110.645 68.356 110.645Z" fill="white"/>
<path d="M80.8987 106.751C80.2547 106.751 79.7334 106.229 79.7334 105.585V64.8907C79.7334 64.2467 80.2547 63.7253 80.8987 63.7253C81.5427 63.7253 82.0641 64.2467 82.0641 64.8907V105.585C82.0641 106.229 81.5427 106.751 80.8987 106.751Z" fill="white"/>
<path d="M103.991 106.751C103.347 106.751 102.825 106.229 102.825 105.585V64.8907C102.825 64.2467 103.347 63.7253 103.991 63.7253C104.635 63.7253 105.156 64.2467 105.156 64.8907V105.585C105.156 106.229 104.635 106.751 103.991 106.751Z" fill="white"/>
<path d="M106.383 121.869H78.6908C76.3602 121.869 74.4895 119.569 74.4895 116.748C74.4895 113.927 76.3602 111.627 78.6908 111.627H107.947C108.591 111.627 109.112 112.148 109.112 112.792C109.112 113.436 108.591 113.957 107.947 113.957H78.6908C77.6788 113.957 76.8202 115.245 76.8202 116.748C76.8202 118.22 77.7095 119.539 78.6908 119.539H106.383C107.027 119.539 107.548 120.06 107.548 120.704C107.548 121.348 107.027 121.869 106.383 121.869Z" fill="white"/>
<path d="M110.983 137.847H72.3428C71.6988 137.847 71.1775 137.325 71.1775 136.681C71.1775 136.037 71.6988 135.516 72.3428 135.516H110.952C111.596 135.516 112.118 136.037 112.118 136.681C112.148 137.325 111.627 137.847 110.983 137.847Z" fill="white"/>
<path d="M67.4668 137.847H61.4561C60.8121 137.847 60.2908 137.325 60.2908 136.681C60.2908 136.037 60.8121 135.516 61.4561 135.516H67.4668C68.1108 135.516 68.6321 136.037 68.6321 136.681C68.6321 137.325 68.1108 137.847 67.4668 137.847Z" fill="white"/>
<path d="M80.8988 80.6534H58.3895C57.7455 80.6534 57.2241 80.132 57.2241 79.488C57.2241 78.844 57.7455 78.3227 58.3895 78.3227H80.8988C81.5428 78.3227 82.0641 78.844 82.0641 79.488C82.0641 80.132 81.5428 80.6534 80.8988 80.6534Z" fill="white"/>
<path d="M126.5 80.6534H103.991C103.347 80.6534 102.825 80.132 102.825 79.488C102.825 78.844 103.347 78.3227 103.991 78.3227H126.5C127.144 78.3227 127.665 78.844 127.665 79.488C127.665 80.132 127.144 80.6534 126.5 80.6534Z" fill="white"/>
<path d="M103.991 96.9374H80.8987C80.2547 96.9374 79.7334 96.416 79.7334 95.772C79.7334 95.128 80.2547 94.6067 80.8987 94.6067H103.991C104.635 94.6067 105.156 95.128 105.156 95.772C105.156 96.416 104.635 96.9374 103.991 96.9374Z" fill="white"/>
<path d="M68.8775 102.243C68.7241 102.243 68.6015 102.212 68.4481 102.151C67.8348 101.905 67.5588 101.231 67.7735 100.648L72.0361 89.7613H65.8721C65.2281 89.7613 64.7068 89.24 64.7068 88.596C64.7068 87.952 65.2281 87.4307 65.8721 87.4307H72.4961C73.1708 87.4307 73.7841 87.768 74.1521 88.32C74.5201 88.872 74.6121 89.5773 74.3668 90.1907L69.9815 101.507C69.7975 101.967 69.3681 102.243 68.8775 102.243Z" fill="#DE1E7E"/>
<path d="M114.51 102.243C114.356 102.243 114.234 102.212 114.08 102.151C113.467 101.905 113.191 101.231 113.406 100.648L117.668 89.7613H111.504C110.86 89.7613 110.339 89.24 110.339 88.596C110.339 87.952 110.86 87.4307 111.504 87.4307H118.128C118.803 87.4307 119.416 87.768 119.784 88.32C120.152 88.872 120.244 89.5773 119.999 90.1907L115.583 101.507C115.399 101.967 114.97 102.243 114.51 102.243Z" fill="#DE1E7E"/>
<path d="M91.6321 88.3507C91.4788 88.3507 91.3561 88.32 91.2028 88.2587C90.5894 88.0133 90.3134 87.3387 90.5281 86.756L94.7908 75.8694H88.6268C87.9828 75.8694 87.4614 75.348 87.4614 74.704C87.4614 74.06 87.9828 73.5387 88.6268 73.5387H95.2508C95.9254 73.5387 96.5388 73.876 96.9068 74.428C97.2748 74.98 97.3668 75.6854 97.1214 76.2987L92.7054 87.6147C92.5214 88.044 92.0921 88.3507 91.6321 88.3507Z" fill="#DE1E7E"/>
<path d="M132.449 142.539C127.144 142.539 121.839 140.515 117.791 136.467C109.725 128.401 109.725 115.245 117.791 107.149C125.856 99.0839 139.012 99.0839 147.108 107.149C151.033 111.075 153.18 116.257 153.18 121.808C153.18 127.359 151.033 132.541 147.108 136.467C143.06 140.515 137.755 142.539 132.449 142.539ZM132.449 103.439C127.727 103.439 123.035 105.217 119.447 108.805C112.271 115.981 112.271 127.635 119.447 134.811C126.623 141.987 138.276 141.987 145.452 134.811C152.628 127.635 152.628 115.981 145.452 108.805C141.864 105.248 137.141 103.439 132.449 103.439Z" fill="#DE1E7E"/>
<path d="M118.619 136.835C118.312 136.835 118.036 136.712 117.791 136.497C117.331 136.037 117.331 135.301 117.791 134.841L145.452 107.18C145.912 106.72 146.648 106.72 147.108 107.18C147.568 107.64 147.568 108.376 147.108 108.836L119.447 136.467C119.201 136.712 118.925 136.835 118.619 136.835Z" fill="#DE1E7E"/>
<path d="M143.704 56.1201C139.564 56.1201 136.191 52.7467 136.191 48.6067C136.191 44.4667 139.564 41.0934 143.704 41.0934C147.844 41.0934 151.218 44.4667 151.218 48.6067C151.218 52.7467 147.844 56.1201 143.704 56.1201ZM143.704 43.4241C140.852 43.4241 138.522 45.7547 138.522 48.6067C138.522 51.4587 140.852 53.7894 143.704 53.7894C146.556 53.7894 148.887 51.4587 148.887 48.6067C148.887 45.7241 146.556 43.4241 143.704 43.4241Z" fill="#DE1E7E"/>
</g>
<defs>
<clipPath id="clip0">
<rect width="184" height="184" fill="white"/>
</clipPath>
</defs>
</svg>
