<svg width="184" height="184" viewBox="0 0 184 184" fill="none" xmlns="http://www.w3.org/2000/svg">
<path d="M122.513 79.856H53.636C50.416 79.856 47.7787 77.2186 47.7787 73.9986V61.824C47.7787 55.844 52.624 50.9987 58.604 50.9987H117.576C123.556 50.9987 128.401 55.844 128.401 61.824V73.9986C128.371 77.2186 125.764 79.856 122.513 79.856ZM58.604 53.3293C53.912 53.3293 50.1094 57.132 50.1094 61.824V73.9986C50.1094 75.9306 51.704 77.5253 53.636 77.5253H122.513C124.445 77.5253 126.04 75.9306 126.04 73.9986V61.824C126.04 57.132 122.237 53.3293 117.545 53.3293H58.604Z" fill="#DE1E7E"/>
<path d="M59.6467 72.0973C59.0027 72.0973 58.4813 71.576 58.4813 70.932V59.9227C58.4813 59.2787 59.0027 58.7573 59.6467 58.7573C60.2907 58.7573 60.812 59.2787 60.812 59.9227V70.932C60.812 71.576 60.2907 72.0973 59.6467 72.0973Z" fill="#DE1E7E"/>
<path d="M71.4227 72.0973C70.7787 72.0973 70.2573 71.576 70.2573 70.932V59.9227C70.2573 59.2787 70.7787 58.7573 71.4227 58.7573C72.0666 58.7573 72.588 59.2787 72.588 59.9227V70.932C72.588 71.576 72.0666 72.0973 71.4227 72.0973Z" fill="#DE1E7E"/>
<path d="M109.511 72.2507C105.739 72.2507 102.672 69.184 102.672 65.412C102.672 61.64 105.739 58.5734 109.511 58.5734C113.283 58.5734 116.349 61.64 116.349 65.412C116.349 69.184 113.252 72.2507 109.511 72.2507ZM109.511 60.9347C107.027 60.9347 105.003 62.9587 105.003 65.4427C105.003 67.9267 107.027 69.92 109.511 69.92C111.995 69.92 114.019 67.896 114.019 65.412C114.019 62.928 111.995 60.9347 109.511 60.9347Z" fill="#DE1E7E"/>
<path d="M104.727 113.497H58.604C52.624 113.497 47.7787 108.652 47.7787 102.672V90.4973C47.7787 87.2773 50.416 84.64 53.636 84.64H122.513C125.733 84.64 128.371 87.2773 128.371 90.4973V99.0533C128.371 99.6973 127.849 100.219 127.205 100.219C126.561 100.219 126.04 99.6973 126.04 99.0533V90.4973C126.04 88.5653 124.445 86.9707 122.513 86.9707H53.636C51.6734 86.9707 50.1094 88.5653 50.1094 90.4973V102.672C50.1094 107.364 53.912 111.167 58.604 111.167H104.727C105.371 111.167 105.892 111.688 105.892 112.332C105.892 112.976 105.371 113.497 104.727 113.497Z" fill="white"/>
<path d="M59.6467 105.708C59.0027 105.708 58.4813 105.187 58.4813 104.543V93.5334C58.4813 92.8894 59.0027 92.368 59.6467 92.368C60.2907 92.368 60.812 92.8894 60.812 93.5334V104.543C60.812 105.187 60.2907 105.708 59.6467 105.708Z" fill="white"/>
<path d="M71.4227 105.708C70.7787 105.708 70.2573 105.187 70.2573 104.543V93.5334C70.2573 92.8894 70.7787 92.368 71.4227 92.368C72.0666 92.368 72.588 92.8894 72.588 93.5334V104.543C72.588 105.187 72.0666 105.708 71.4227 105.708Z" fill="white"/>
<path d="M109.511 105.892C105.739 105.892 102.672 102.825 102.672 99.0534C102.672 95.2814 105.739 92.2147 109.511 92.2147C113.283 92.2147 116.349 95.2814 116.349 99.0534C116.319 102.825 113.252 105.892 109.511 105.892ZM109.511 94.5454C107.027 94.5454 105.003 96.5694 105.003 99.0534C105.003 101.537 107.027 103.561 109.511 103.561C111.995 103.561 114.019 101.537 114.019 99.0534C113.988 96.5694 111.995 94.5454 109.511 94.5454Z" fill="white"/>
<path d="M88.0747 140.331C82.892 140.331 78.6907 136.129 78.6907 130.947C78.6907 125.764 82.892 121.563 88.0747 121.563C93.2574 121.563 97.4587 125.764 97.4587 130.947C97.4587 136.129 93.2574 140.331 88.0747 140.331ZM88.0747 123.893C84.18 123.893 81.0213 127.052 81.0213 130.947C81.0213 134.841 84.18 138 88.0747 138C91.9693 138 95.128 134.841 95.128 130.947C95.128 127.052 91.9693 123.893 88.0747 123.893Z" fill="white"/>
<path d="M88.0746 123.893C87.4306 123.893 86.9093 123.372 86.9093 122.728V112.332C86.9093 111.688 87.4306 111.167 88.0746 111.167C88.7186 111.167 89.24 111.688 89.24 112.332V122.728C89.24 123.372 88.7186 123.893 88.0746 123.893Z" fill="white"/>
<path d="M79.856 132.112H59.6467C59.0027 132.112 58.4813 131.591 58.4813 130.947C58.4813 130.303 59.0027 129.781 59.6467 129.781H79.856C80.5 129.781 81.0214 130.303 81.0214 130.947C81.0214 131.591 80.5 132.112 79.856 132.112Z" fill="white"/>
<path d="M102.273 132.112H96.2934C95.6494 132.112 95.1281 131.591 95.1281 130.947C95.1281 130.303 95.6494 129.781 96.2934 129.781H102.273C102.917 129.781 103.439 130.303 103.439 130.947C103.439 131.591 102.917 132.112 102.273 132.112Z" fill="white"/>
<path d="M128.555 147.2C117.116 147.2 107.824 137.908 107.824 126.469C107.824 115.031 117.116 105.739 128.555 105.739C139.993 105.739 149.285 115.031 149.285 126.469C149.285 137.908 139.993 147.2 128.555 147.2ZM128.555 108.1C118.404 108.1 110.155 116.349 110.155 126.5C110.155 136.651 118.404 144.9 128.555 144.9C138.705 144.9 146.955 136.651 146.955 126.5C146.955 116.349 138.705 108.1 128.555 108.1Z" fill="#DE1E7E"/>
<path d="M119.968 136.221C119.661 136.221 119.385 136.099 119.14 135.884C118.68 135.424 118.68 134.688 119.14 134.228L136.283 117.085C136.743 116.625 137.479 116.625 137.939 117.085C138.399 117.545 138.399 118.281 137.939 118.741L120.796 135.884C120.581 136.129 120.275 136.221 119.968 136.221Z" fill="#DE1E7E"/>
<path d="M137.141 136.221C136.835 136.221 136.559 136.099 136.313 135.884L119.171 118.741C118.711 118.281 118.711 117.545 119.171 117.085C119.631 116.625 120.367 116.625 120.827 117.085L137.969 134.228C138.429 134.688 138.429 135.424 137.969 135.884C137.724 136.129 137.448 136.221 137.141 136.221Z" fill="#DE1E7E"/>
</svg>
