<svg width="184" height="184" viewBox="0 0 184 184" fill="none" xmlns="http://www.w3.org/2000/svg">
<path d="M92 184C142.81 184 184 142.81 184 92C184 41.1898 142.81 0 92 0C41.1898 0 0 41.1898 0 92C0 142.81 41.1898 184 92 184Z" fill="#232A33"/>
<path d="M104.512 129.628H65.044C59.2173 129.628 54.4946 124.875 54.4946 119.079V67.896C54.4946 62.0693 59.248 57.3466 65.044 57.3466H65.4426C66.0866 57.3466 66.608 57.868 66.608 58.512C66.608 59.156 66.0866 59.6773 65.4426 59.6773H65.044C60.5053 59.6773 56.8253 63.3573 56.8253 67.896V119.048C56.8253 123.587 60.5053 127.267 65.044 127.267H104.512C105.156 127.267 105.677 127.788 105.677 128.432C105.677 129.107 105.156 129.628 104.512 129.628Z" fill="white"/>
<path d="M55.66 80.592C55.016 80.592 54.4946 80.0707 54.4946 79.4267V67.896C54.4946 62.0693 59.248 57.3466 65.044 57.3466H65.4426C66.0866 57.3466 66.608 57.868 66.608 58.512C66.608 59.156 66.0866 59.6773 65.4426 59.6773H65.044C60.5053 59.6773 56.8253 63.3573 56.8253 67.896V79.4267C56.8253 80.0707 56.304 80.592 55.66 80.592Z" fill="#DE1E7E"/>
<path d="M133.247 97.336C132.603 97.336 132.081 96.8147 132.081 96.1707V67.9267C132.081 63.388 128.401 59.708 123.863 59.708H123.188C122.544 59.708 122.023 59.1866 122.023 58.5426C122.023 57.8986 122.544 57.3773 123.188 57.3773H123.863C129.689 57.3773 134.412 62.1307 134.412 67.9267V96.1707C134.412 96.8147 133.891 97.336 133.247 97.336Z" fill="white"/>
<path d="M133.247 80.592C132.603 80.592 132.081 80.0707 132.081 79.4267V67.896C132.081 63.3573 128.401 59.6773 123.863 59.6773H123.188C122.544 59.6773 122.023 59.156 122.023 58.512C122.023 57.868 122.544 57.3466 123.188 57.3466H123.863C129.689 57.3466 134.412 62.1 134.412 67.896V79.4267C134.412 80.0707 133.891 80.592 133.247 80.592Z" fill="#DE1E7E"/>
<path d="M112.148 59.6773H84.2106C83.5666 59.6773 83.0453 59.156 83.0453 58.512C83.0453 57.868 83.5666 57.3466 84.2106 57.3466H112.148C112.792 57.3466 113.313 57.868 113.313 58.512C113.313 59.156 112.792 59.6773 112.148 59.6773Z" fill="#DE1E7E"/>
<path d="M107.579 136.651H63.7561C59.8921 136.651 56.7334 133.492 56.7334 129.628V125.58C56.7334 124.936 57.2547 124.415 57.8987 124.415C58.5427 124.415 59.0641 124.936 59.0641 125.58V129.628C59.0641 132.204 61.1494 134.289 63.7254 134.289H107.517C108.161 134.289 108.683 134.811 108.683 135.455C108.744 136.129 108.223 136.651 107.579 136.651Z" fill="white"/>
<path d="M73.8147 67.7427H72.8027C70.564 67.7427 68.724 65.9027 68.724 63.664V55.66C68.724 53.4213 70.564 51.5813 72.8027 51.5813H73.8147C76.0533 51.5813 77.8933 53.4213 77.8933 55.66V63.664C77.8933 65.9333 76.084 67.7427 73.8147 67.7427ZM72.8027 53.9427C71.852 53.9427 71.0547 54.7093 71.0547 55.6907V63.6947C71.0547 64.6453 71.8213 65.4427 72.8027 65.4427H73.8147C74.7653 65.4427 75.5627 64.676 75.5627 63.6947V55.6907C75.5627 54.74 74.796 53.9427 73.8147 53.9427H72.8027Z" fill="white"/>
<path d="M116.104 67.7427H115.092C112.853 67.7427 111.013 65.9027 111.013 63.664V55.66C111.013 53.4213 112.853 51.5813 115.092 51.5813H116.104C118.343 51.5813 120.183 53.4213 120.183 55.66V63.664C120.183 65.9333 118.343 67.7427 116.104 67.7427ZM115.061 53.9427C114.111 53.9427 113.313 54.7093 113.313 55.6907V63.6947C113.313 64.6453 114.08 65.4427 115.061 65.4427H116.073C117.024 65.4427 117.821 64.676 117.821 63.6947V55.6907C117.821 54.74 117.055 53.9427 116.073 53.9427H115.061Z" fill="white"/>
<path d="M133.247 80.592H55.66C55.016 80.592 54.4946 80.0706 54.4946 79.4266C54.4946 78.7826 55.016 78.2613 55.66 78.2613H133.247C133.891 78.2613 134.412 78.7826 134.412 79.4266C134.412 80.0706 133.891 80.592 133.247 80.592Z" fill="#DE1E7E"/>
<path d="M72.68 94.392H69.644C69.2147 94.392 68.8773 94.0547 68.8773 93.6253V90.5893C68.8773 90.16 69.2147 89.8227 69.644 89.8227H72.68C73.1093 89.8227 73.4466 90.16 73.4466 90.5893V93.6253C73.4466 94.0547 73.1093 94.392 72.68 94.392Z" fill="white"/>
<path d="M88.1973 94.392H85.1613C84.732 94.392 84.3947 94.0547 84.3947 93.6253V90.5893C84.3947 90.16 84.732 89.8227 85.1613 89.8227H88.1973C88.6267 89.8227 88.964 90.16 88.964 90.5893V93.6253C88.964 94.0547 88.6267 94.392 88.1973 94.392Z" fill="white"/>
<path d="M103.745 94.392H100.709C100.28 94.392 99.9426 94.0547 99.9426 93.6253V90.5893C99.9426 90.16 100.28 89.8227 100.709 89.8227H103.745C104.175 89.8227 104.512 90.16 104.512 90.5893V93.6253C104.512 94.0547 104.175 94.392 103.745 94.392Z" fill="white"/>
<path d="M119.263 94.392H116.227C115.797 94.392 115.46 94.0547 115.46 93.6253V90.5893C115.46 90.16 115.797 89.8227 116.227 89.8227H119.263C119.692 89.8227 120.029 90.16 120.029 90.5893V93.6253C120.029 94.0547 119.692 94.392 119.263 94.392Z" fill="white"/>
<path d="M72.68 106.107H69.644C69.2147 106.107 68.8773 105.769 68.8773 105.34V102.304C68.8773 101.875 69.2147 101.537 69.644 101.537H72.68C73.1093 101.537 73.4466 101.875 73.4466 102.304V105.34C73.4466 105.769 73.1093 106.107 72.68 106.107Z" fill="white"/>
<path d="M88.1973 106.107H85.1613C84.732 106.107 84.3947 105.769 84.3947 105.34V102.304C84.3947 101.875 84.732 101.537 85.1613 101.537H88.1973C88.6267 101.537 88.964 101.875 88.964 102.304V105.34C88.964 105.769 88.6267 106.107 88.1973 106.107Z" fill="white"/>
<path d="M103.745 106.107H100.709C100.28 106.107 99.9426 105.769 99.9426 105.34V102.304C99.9426 101.875 100.28 101.537 100.709 101.537H103.745C104.175 101.537 104.512 101.875 104.512 102.304V105.34C104.512 105.769 104.175 106.107 103.745 106.107Z" fill="white"/>
<path d="M119.263 106.107H116.227C115.797 106.107 115.46 105.769 115.46 105.34V102.304C115.46 101.875 115.797 101.537 116.227 101.537H119.263C119.692 101.537 120.029 101.875 120.029 102.304V105.34C120.029 105.769 119.692 106.107 119.263 106.107Z" fill="white"/>
<path d="M72.68 117.821H69.644C69.2147 117.821 68.8773 117.484 68.8773 117.055V114.019C68.8773 113.589 69.2147 113.252 69.644 113.252H72.68C73.1093 113.252 73.4466 113.589 73.4466 114.019V117.055C73.4466 117.484 73.1093 117.821 72.68 117.821Z" fill="white"/>
<path d="M88.1973 117.821H85.1613C84.732 117.821 84.3947 117.484 84.3947 117.055V114.019C84.3947 113.589 84.732 113.252 85.1613 113.252H88.1973C88.6267 113.252 88.964 113.589 88.964 114.019V117.055C88.964 117.484 88.6267 117.821 88.1973 117.821Z" fill="white"/>
<path d="M103.745 117.821H100.709C100.28 117.821 99.9426 117.484 99.9426 117.055V114.019C99.9426 113.589 100.28 113.252 100.709 113.252H103.745C104.175 113.252 104.512 113.589 104.512 114.019V117.055C104.512 117.484 104.175 117.821 103.745 117.821Z" fill="white"/>
<path d="M129.505 142.569C118.005 142.569 108.683 133.216 108.683 121.747C108.683 110.277 118.036 100.924 129.505 100.924C140.975 100.924 150.328 110.277 150.328 121.747C150.328 133.216 141.005 142.569 129.505 142.569ZM129.505 103.255C119.324 103.255 111.013 111.535 111.013 121.747C111.013 131.959 119.293 140.239 129.505 140.239C139.717 140.239 147.997 131.959 147.997 121.747C147.997 111.535 139.687 103.255 129.505 103.255Z" fill="#DE1E7E"/>
<path d="M120.888 131.529C120.581 131.529 120.275 131.407 120.06 131.192C119.6 130.732 119.6 129.996 120.06 129.536L137.295 112.301C137.755 111.841 138.491 111.841 138.951 112.301C139.411 112.761 139.411 113.497 138.951 113.957L121.716 131.192C121.471 131.437 121.195 131.529 120.888 131.529Z" fill="#DE1E7E"/>
<path d="M138.123 131.529C137.816 131.529 137.509 131.407 137.295 131.192L120.06 113.957C119.6 113.497 119.6 112.761 120.06 112.301C120.52 111.841 121.256 111.841 121.716 112.301L138.951 129.536C139.411 129.996 139.411 130.732 138.951 131.192C138.736 131.437 138.429 131.529 138.123 131.529Z" fill="#DE1E7E"/>
</svg>
