<svg width="184" height="184" viewBox="0 0 184 184" fill="none" xmlns="http://www.w3.org/2000/svg">
<path d="M92 184C142.81 184 184 142.81 184 92C184 41.1898 142.81 0 92 0C41.1898 0 0 41.1898 0 92C0 142.81 41.1898 184 92 184Z" fill="#232A33"/>
<path d="M85.0194 150.315C83.6694 150.315 82.3852 149.755 81.4303 148.767L74.6801 141.721C74.1203 141.128 73.2642 140.832 72.4739 140.964L62.8261 142.511C61.0809 142.775 59.3358 142.149 58.2162 140.799C57.0638 139.449 56.7345 137.638 57.2943 135.959L64.8676 113.37C65.0981 112.712 65.7896 112.349 66.4482 112.58C67.1067 112.81 67.4689 113.502 67.2384 114.16L59.6651 136.749C59.3687 137.605 59.5663 138.494 60.126 139.185C60.6858 139.877 61.5749 140.173 62.431 140.042L72.0788 138.494C73.6923 138.231 75.3386 138.79 76.4911 139.976L83.2413 147.022C83.8669 147.648 84.723 147.944 85.6121 147.747C86.4682 147.549 87.1597 146.923 87.456 146.1L97.3014 116.795C97.5319 116.136 98.2234 115.774 98.8819 116.004C99.5405 116.235 99.9027 116.926 99.6722 117.585L89.8268 146.891C89.2671 148.57 87.8841 149.788 86.1719 150.183C85.7438 150.282 85.3816 150.315 85.0194 150.315Z" fill="white"/>
<path d="M104.644 150.315C104.282 150.315 103.92 150.282 103.525 150.183C101.812 149.788 100.429 148.57 99.8697 146.89L93.6793 128.155C93.4488 127.496 93.811 126.805 94.4696 126.574C95.1281 126.344 95.8196 126.706 96.0501 127.364L102.208 146.1C102.504 146.923 103.163 147.549 104.052 147.747C104.908 147.944 105.797 147.681 106.422 147.022L113.173 139.976C113.634 139.482 114.457 139.449 114.951 139.943C115.445 140.437 115.477 141.227 114.984 141.721L108.233 148.767C107.278 149.755 105.994 150.315 104.644 150.315Z" fill="white"/>
<path d="M131.645 88.1474C132.271 86.1718 133.719 84.3937 135.102 82.6485C136.88 80.4424 138.527 78.3679 138.527 76.1618C138.527 73.9556 136.848 71.8812 135.102 69.675C133.719 67.9298 132.271 66.1517 131.645 64.1761C130.986 62.1016 131.085 59.7638 131.184 57.4918C131.316 54.7258 131.414 52.1245 130.196 50.4452C128.945 48.733 126.409 48.0415 123.742 47.2842C121.569 46.6915 119.297 46.0658 117.552 44.7817C115.84 43.5304 114.556 41.5877 113.337 39.7108C111.79 37.3729 110.341 35.1668 108.299 34.5082C106.357 33.8826 103.953 34.7716 101.384 35.7265C99.2112 36.5168 96.9721 37.3729 94.766 37.3729C92.5598 37.3729 90.2878 36.5497 88.1475 35.7265C86.1718 35.0021 84.2949 34.2777 82.6486 34.2777C82.1546 34.2777 81.6937 34.3436 81.2327 34.4753C79.1912 35.1338 77.7423 37.34 76.1947 39.6779C74.9435 41.5547 73.6922 43.4975 71.98 44.7487C70.2348 46 67.9957 46.6256 65.7896 47.2512C63.1224 48.0086 60.587 48.7001 59.3357 50.4123C58.1174 52.0916 58.2162 54.6929 58.3479 57.4588C58.4467 59.7308 58.5455 62.1016 57.8869 64.1431C57.2613 66.1188 55.8125 67.8969 54.4295 69.6421C52.6514 71.8482 51.005 73.9227 51.005 76.1288C51.005 78.335 52.6844 80.4094 54.4295 82.6156C55.8125 84.3608 57.2613 86.1389 57.8869 88.1145C58.5455 90.189 58.4467 92.5268 58.3479 94.7988C58.2162 97.5648 58.1174 100.166 59.3357 101.845C60.587 103.558 63.1224 104.249 65.7896 105.006C67.9628 105.599 70.2348 106.225 71.98 107.509C73.6922 108.76 74.9764 110.703 76.1947 112.58C77.7423 114.918 79.1912 117.124 81.2327 117.782C83.1425 118.408 85.5791 117.519 88.1475 116.564C90.3207 115.774 92.5598 114.918 94.766 114.918C96.9721 114.918 99.2441 115.741 101.384 116.564L100.528 118.902C98.5526 118.178 96.544 117.42 94.766 117.42C92.9879 117.42 90.9793 118.178 89.0036 118.902C86.8962 119.692 84.723 120.482 82.6156 120.482C81.8912 120.482 81.1668 120.384 80.4424 120.153C77.5777 119.231 75.7996 116.531 74.0874 113.93C72.9349 112.152 71.8153 110.505 70.4982 109.518C69.1482 108.53 67.1725 107.97 65.131 107.41C62.1675 106.587 59.0723 105.731 57.3272 103.327C55.582 100.956 55.7137 97.7623 55.8454 94.7001C55.9442 92.5598 56.01 90.5182 55.4832 88.8719C54.9893 87.3242 53.738 85.8096 52.4539 84.1632C50.5111 81.7265 48.4696 79.1911 48.4696 76.0959C48.4696 73.0007 50.4782 70.4653 52.4539 68.0286C53.771 66.4152 54.9893 64.8676 55.4832 63.32C56.01 61.6736 55.9442 59.665 55.8454 57.4918C55.7137 54.4295 55.582 51.2355 57.3272 48.8647C59.0723 46.461 62.1675 45.6048 65.131 44.7817C67.2055 44.2219 69.1482 43.6621 70.4982 42.6743C71.8483 41.6865 72.9349 40.0401 74.0874 38.262C75.7996 35.6607 77.5777 32.9935 80.4424 32.0386C83.2083 31.1496 86.1389 32.2362 89.0036 33.2899C90.9793 34.0143 92.9879 34.7716 94.766 34.7716C96.544 34.7716 98.5526 34.0143 100.528 33.2899C103.393 32.2362 106.324 31.1167 109.09 32.0386C111.954 32.9606 113.732 35.6607 115.445 38.262C116.597 40.0401 117.717 41.6865 119.034 42.6743C120.384 43.6621 122.359 44.2219 124.401 44.7817C127.364 45.6048 130.46 46.461 132.205 48.8647C133.95 51.2684 133.818 54.4295 133.686 57.4918C133.588 59.6321 133.522 61.6736 134.049 63.32C134.543 64.8676 135.794 66.3822 137.078 68.0286C139.021 70.4653 141.062 73.0007 141.062 76.0959C141.062 79.1911 139.054 81.7265 137.078 84.1632C135.761 85.7767 134.543 87.3242 134.049 88.8719L131.645 88.1474Z" fill="#DE1E7E"/>
<path d="M94.733 106.159C78.2033 106.159 64.7358 92.6915 64.7358 76.1618C64.7358 59.6321 78.2033 46.1647 94.733 46.1647C111.263 46.1647 124.73 59.6321 124.73 76.1618C124.73 92.6915 111.263 106.159 94.733 106.159ZM94.733 48.6672C79.5862 48.6672 67.2383 61.0151 67.2383 76.1618C67.2383 91.3086 79.5862 103.656 94.733 103.656C109.88 103.656 122.228 91.3086 122.228 76.1618C122.228 61.0151 109.88 48.6672 94.733 48.6672Z" fill="white"/>
<path d="M86.5999 89.3658H83.4059C81.068 89.3658 79.1582 87.456 79.1582 85.1181V74.6142C79.1582 72.2763 81.068 70.3665 83.4059 70.3665H86.5999C88.9377 70.3665 90.8475 72.2763 90.8475 74.6142V85.1181C90.8475 87.456 88.9707 89.3658 86.5999 89.3658ZM83.4059 72.869C82.451 72.869 81.6607 73.6593 81.6607 74.6142V85.1181C81.6607 86.073 82.451 86.8633 83.4059 86.8633H86.5999C87.5548 86.8633 88.345 86.073 88.345 85.1181V74.6142C88.345 73.6593 87.5548 72.869 86.5999 72.869H83.4059Z" fill="white"/>
<path d="M107.147 80.2777C106.455 80.2777 105.896 79.718 105.896 79.0265C105.896 78.335 106.455 77.7752 107.147 77.7752C107.674 77.7752 108.069 77.3472 108.069 76.8533C108.069 76.3264 107.641 75.9313 107.147 75.9313C106.455 75.9313 105.896 75.3715 105.896 74.68C105.896 73.9885 106.455 73.4288 107.147 73.4288C109.057 73.4288 110.571 74.9764 110.571 76.8533C110.604 78.7301 109.057 80.2777 107.147 80.2777Z" fill="white"/>
<path d="M106.587 84.6571C105.895 84.6571 105.336 84.0974 105.336 83.4059C105.336 82.7144 105.895 82.1546 106.587 82.1546C107.114 82.1546 107.509 81.7266 107.509 81.2327C107.509 80.7387 107.081 80.3107 106.587 80.3107C105.895 80.3107 105.336 79.7509 105.336 79.0594C105.336 78.3679 105.895 77.8082 106.587 77.8082C108.497 77.8082 110.011 79.3558 110.011 81.2327C110.011 83.1095 108.497 84.6571 106.587 84.6571Z" fill="white"/>
<path d="M94.0744 89.0365C92.7573 89.0365 89.695 88.7402 88.4767 86.106C88.1804 85.4803 88.4438 84.723 89.0694 84.4596C89.695 84.1632 90.4524 84.4266 90.7158 85.0523C91.5061 86.7645 94.4037 86.534 94.4366 86.534H94.5683H105.599C106.126 86.534 106.521 86.106 106.521 85.612C106.521 85.1181 106.093 84.6901 105.599 84.6901C104.908 84.6901 104.348 84.1303 104.348 83.4388C104.348 82.7473 104.908 82.1876 105.599 82.1876C107.509 82.1876 109.024 83.7352 109.024 85.612C109.024 87.4889 107.476 89.0365 105.599 89.0365H94.6342C94.5354 89.0036 94.3379 89.0365 94.0744 89.0365Z" fill="white"/>
<path d="M106.324 75.8983C105.632 75.8983 105.072 75.3386 105.072 74.6471C105.072 73.9556 105.632 73.3958 106.324 73.3958C106.587 73.3958 106.818 73.297 106.982 73.0995C107.147 72.9019 107.246 72.6714 107.246 72.408C107.246 71.9141 106.752 71.519 106.225 71.519H99.4417C98.8819 71.519 98.3222 71.2885 97.927 70.8604C97.5319 70.4323 97.3673 69.8726 97.4331 69.3128C97.5319 68.4896 97.7624 67.2713 98.1246 65.6907C98.388 64.5383 98.3222 63.6492 97.927 63.0895C97.5648 62.5626 96.9063 62.3321 96.3794 62.2004L95.0952 67.864L94.9635 68.0615C93.1196 70.6628 90.6829 74.7459 90.6829 74.7788C90.3207 75.3715 89.5634 75.5691 88.9707 75.2069C88.378 74.8446 88.1804 74.0873 88.5426 73.4946C88.6414 73.33 90.9464 69.4774 92.7903 66.8103L94.0745 61.1467C94.305 60.1589 95.227 59.5333 96.2148 59.632C97.1697 59.7308 98.9149 60.126 100.001 61.6077C100.858 62.7931 101.055 64.3407 100.627 66.2176C100.331 67.5347 100.166 68.4237 100.067 69.0164H106.258C108.135 69.0164 109.715 70.4982 109.781 72.3421C109.814 73.2641 109.452 74.1532 108.826 74.8446C108.135 75.5361 107.278 75.8983 106.324 75.8983Z" fill="white"/>
<path d="M104.513 120.548C105.258 120.548 105.863 119.944 105.863 119.198C105.863 118.453 105.258 117.848 104.513 117.848C103.767 117.848 103.162 118.453 103.162 119.198C103.162 119.944 103.767 120.548 104.513 120.548Z" fill="#DE1E7E"/>
<path d="M132.797 89.9255C133.507 89.9255 134.082 89.3506 134.082 88.6414C134.082 87.9321 133.507 87.3572 132.797 87.3572C132.088 87.3572 131.513 87.9321 131.513 88.6414C131.513 89.3506 132.088 89.9255 132.797 89.9255Z" fill="#DE1E7E"/>
<path d="M101.351 116.597L105.006 117.947L104.052 120.45L100.001 118.77L101.351 116.597Z" fill="#DE1E7E"/>
<path d="M133.555 141.655C121.273 141.655 111.296 131.678 111.296 119.396C111.296 107.114 121.273 97.1367 133.555 97.1367C145.837 97.1367 155.814 107.114 155.814 119.396C155.814 131.678 145.804 141.655 133.555 141.655ZM133.555 99.6722C122.656 99.6722 113.798 108.53 113.798 119.429C113.798 130.328 122.656 139.185 133.555 139.185C144.454 139.185 153.311 130.328 153.311 119.429C153.311 108.53 144.421 99.6722 133.555 99.6722Z" fill="#DE1E7E"/>
<path d="M124.335 129.867C124.006 129.867 123.709 129.735 123.446 129.505C122.952 129.011 122.952 128.22 123.446 127.727L141.853 109.32C142.346 108.826 143.137 108.826 143.631 109.32C144.125 109.814 144.125 110.604 143.631 111.098L125.224 129.505C124.961 129.768 124.664 129.867 124.335 129.867Z" fill="#DE1E7E"/>
<path d="M142.742 129.867C142.412 129.867 142.116 129.735 141.853 129.505L123.446 111.098C122.952 110.604 122.952 109.814 123.446 109.32C123.94 108.826 124.73 108.826 125.224 109.32L143.631 127.727C144.125 128.22 144.125 129.011 143.631 129.505C143.4 129.768 143.071 129.867 142.742 129.867Z" fill="#DE1E7E"/>
</svg>
