<svg width="184" height="184" viewBox="0 0 184 184" fill="none" xmlns="http://www.w3.org/2000/svg">
<g clip-path="url(#clip0)">
<path d="M92 184C142.81 184 184 142.81 184 92C184 41.1898 142.81 0 92 0C41.1898 0 0 41.1898 0 92C0 142.81 41.1898 184 92 184Z" fill="#232A33"/>
<path d="M63.5414 112.271C62.8974 112.271 62.3761 111.749 62.3761 111.105V72.9867H53.2068C51.8574 72.9867 50.6921 72.22 50.1708 70.9627C49.6494 69.7053 49.9254 68.356 50.8761 67.3747L82.7694 35.4813C84.5174 33.7333 87.3694 33.7333 89.1481 35.4813L120.765 67.0987C121.716 68.0493 121.992 69.3987 121.501 70.6253C121.011 71.852 119.876 72.6493 118.527 72.68L108.1 72.9254L108.008 87.768C108.008 88.412 107.487 88.9333 106.843 88.9333C106.199 88.9333 105.677 88.412 105.677 87.768L105.769 70.656L118.465 70.3493C119.048 70.3493 119.263 69.8893 119.324 69.7667C119.385 69.644 119.539 69.1533 119.109 68.7547L87.4921 37.1373C86.6334 36.2787 85.2841 36.2787 84.4254 37.1373L52.5321 69.0307C52.1028 69.46 52.2561 69.92 52.3174 70.0733C52.3788 70.196 52.5934 70.656 53.2068 70.656H64.7068V111.136C64.7068 111.749 64.1854 112.271 63.5414 112.271Z" fill="white"/>
<path d="M63.7254 126.623C63.0814 126.623 62.5601 126.101 62.5601 125.457V118.251C62.5601 117.607 63.0814 117.085 63.7254 117.085C64.3694 117.085 64.8907 117.607 64.8907 118.251V125.457C64.8907 126.101 64.3694 126.623 63.7254 126.623Z" fill="white"/>
<path d="M54.3721 123.525C53.7281 123.525 53.2068 123.004 53.2068 122.36V102.703C53.2068 102.059 53.7281 101.537 54.3721 101.537C55.0161 101.537 55.5375 102.059 55.5375 102.703V122.36C55.5681 123.004 55.0161 123.525 54.3721 123.525Z" fill="#18CA4F"/>
<path d="M75.3787 100.188C74.7347 100.188 74.2134 99.6667 74.2134 99.0227V79.3653C74.2134 78.7213 74.7347 78.2 75.3787 78.2C76.0227 78.2 76.544 78.7213 76.544 79.3653V99.0227C76.544 99.6667 76.0227 100.188 75.3787 100.188Z" fill="white"/>
<path d="M63.7254 134.412C63.0814 134.412 62.5601 133.891 62.5601 133.247V132.265C62.5601 131.621 63.0814 131.1 63.7254 131.1C64.3694 131.1 64.8907 131.621 64.8907 132.265V133.247C64.8907 133.891 64.3694 134.412 63.7254 134.412Z" fill="white"/>
<path d="M110.799 146.893C95.9253 146.893 83.812 134.78 83.812 119.907C83.812 105.033 95.9253 92.92 110.799 92.92C125.672 92.92 137.785 105.033 137.785 119.907C137.785 134.811 125.672 146.893 110.799 146.893ZM110.799 95.2507C97.2133 95.2507 86.1427 106.321 86.1427 119.907C86.1427 133.492 97.2133 144.563 110.799 144.563C124.384 144.563 135.455 133.492 135.455 119.907C135.455 106.321 124.384 95.2507 110.799 95.2507Z" fill="#18CA4F"/>
<path d="M113.467 120.305H106.812C106.168 120.305 105.647 119.784 105.647 119.14C105.647 118.496 106.168 117.975 106.812 117.975H113.467C116.073 117.975 118.22 115.859 118.22 113.221C118.22 110.584 116.104 108.468 113.467 108.468H103.96C103.316 108.468 102.795 107.947 102.795 107.303C102.795 106.659 103.316 106.137 103.96 106.137H113.467C117.361 106.137 120.551 109.327 120.551 113.221C120.551 117.147 117.392 120.305 113.467 120.305Z" fill="#18CA4F"/>
<path d="M115.828 132.143H103.96C103.316 132.143 102.795 131.621 102.795 130.977C102.795 130.333 103.316 129.812 103.96 129.812H115.797C118.404 129.812 120.551 127.696 120.551 125.059C120.551 122.452 118.435 120.305 115.797 120.305H106.812C106.168 120.305 105.647 119.784 105.647 119.14C105.647 118.496 106.168 117.975 106.812 117.975H115.797C119.692 117.975 122.881 121.164 122.881 125.059C122.881 128.953 119.723 132.143 115.828 132.143Z" fill="#18CA4F"/>
<path d="M106.812 136.007C106.168 136.007 105.646 135.485 105.646 134.841V103.5C105.646 102.856 106.168 102.335 106.812 102.335C107.456 102.335 107.977 102.856 107.977 103.5V134.841C107.977 135.485 107.456 136.007 106.812 136.007Z" fill="#18CA4F"/>
<path d="M112.271 108.039C111.627 108.039 111.105 107.517 111.105 106.873V103.5C111.105 102.856 111.627 102.335 112.271 102.335C112.915 102.335 113.436 102.856 113.436 103.5V106.873C113.436 107.517 112.915 108.039 112.271 108.039Z" fill="#18CA4F"/>
<path d="M112.271 136.007C111.627 136.007 111.105 135.485 111.105 134.841V131.468C111.105 130.824 111.627 130.303 112.271 130.303C112.915 130.303 113.436 130.824 113.436 131.468V134.841C113.436 135.485 112.915 136.007 112.271 136.007Z" fill="#18CA4F"/>
</g>
<defs>
<clipPath id="clip0">
<rect width="184" height="184" fill="white"/>
</clipPath>
</defs>
</svg>
