<svg width="173" height="173" viewBox="0 0 173 173" fill="none" xmlns="http://www.w3.org/2000/svg">
<path d="M80.0814 140.943C78.8241 140.943 77.6281 140.421 76.7387 139.501L70.4521 132.939C69.9307 132.387 69.1334 132.111 68.3974 132.233L59.4121 133.675C57.7867 133.92 56.1614 133.337 55.1187 132.08C54.0761 130.823 53.7387 129.136 54.2601 127.572L61.3134 106.535C61.5281 105.921 62.1721 105.584 62.7854 105.799C63.3987 106.013 63.7361 106.657 63.5214 107.271L56.4681 128.308C56.1921 129.105 56.3761 129.933 56.8974 130.577C57.4187 131.221 58.2467 131.497 59.0441 131.375L68.0294 129.933C69.5321 129.688 71.0654 130.209 72.1387 131.313L78.4254 137.876C79.0081 138.459 79.8054 138.735 80.6334 138.551C81.4307 138.367 82.0747 137.784 82.3507 137.017L91.5201 109.724C91.7347 109.111 92.3787 108.773 92.9921 108.988C93.6054 109.203 93.9427 109.847 93.7281 110.46L84.5587 137.753C84.0374 139.317 82.7494 140.452 81.1547 140.82C80.7561 140.912 80.4187 140.943 80.0814 140.943Z" fill="white"/>
<path d="M98.3587 140.943C98.0214 140.943 97.6534 140.912 97.316 140.82C95.7214 140.452 94.4334 139.317 93.912 137.753L88.1467 120.304C87.932 119.691 88.2694 119.047 88.8827 118.832C89.496 118.617 90.1401 118.955 90.3547 119.568L96.0894 137.017C96.3654 137.784 96.9787 138.367 97.8067 138.551C98.604 138.735 99.4321 138.489 100.015 137.876L106.301 131.313C106.731 130.853 107.497 130.823 107.957 131.283C108.417 131.743 108.448 132.479 107.988 132.939L101.701 139.501C100.812 140.421 99.616 140.943 98.3587 140.943Z" fill="white"/>
<path d="M123.505 83.044C124.088 81.204 125.437 79.548 126.725 77.9227C128.381 75.868 129.915 73.936 129.915 71.8814C129.915 69.8267 128.351 67.8947 126.725 65.84C125.437 64.2147 124.088 62.5587 123.505 60.7187C122.892 58.7867 122.984 56.6094 123.076 54.4934C123.199 51.9174 123.291 49.4947 122.156 47.9307C120.991 46.336 118.629 45.692 116.145 44.9867C114.121 44.4347 112.005 43.852 110.38 42.656C108.785 41.4907 107.589 39.6814 106.455 37.9334C105.013 35.756 103.664 33.7014 101.763 33.088C99.9534 32.5054 97.7147 33.3334 95.3227 34.2227C93.2987 34.9587 91.2134 35.756 89.1587 35.756C87.104 35.756 84.988 34.9894 82.9947 34.2227C81.1547 33.548 79.4067 32.8734 77.8734 32.8734C77.4134 32.8734 76.9841 32.9347 76.5547 33.0574C74.6534 33.6707 73.304 35.7254 71.8627 37.9027C70.6974 39.6507 69.532 41.46 67.9374 42.6254C66.312 43.7907 64.2267 44.3734 62.172 44.956C59.688 45.6614 57.3267 46.3054 56.1614 47.9C55.0267 49.464 55.1187 51.8867 55.2414 54.4627C55.3334 56.5787 55.4254 58.7867 54.812 60.688C54.2294 62.528 52.88 64.184 51.5921 65.8094C49.936 67.864 48.4027 69.796 48.4027 71.8507C48.4027 73.9054 49.9667 75.8374 51.5921 77.892C52.88 79.5174 54.2294 81.1734 54.812 83.0134C55.4254 84.9454 55.3334 87.1227 55.2414 89.2387C55.1187 91.8147 55.0267 94.2374 56.1614 95.8014C57.3267 97.396 59.688 98.04 62.172 98.7454C64.196 99.2974 66.312 99.88 67.9374 101.076C69.532 102.241 70.728 104.051 71.8627 105.799C73.304 107.976 74.6534 110.031 76.5547 110.644C78.3334 111.227 80.6027 110.399 82.9947 109.509C85.0187 108.773 87.104 107.976 89.1587 107.976C91.2134 107.976 93.3294 108.743 95.3227 109.509L94.5254 111.687C92.6854 111.012 90.8147 110.307 89.1587 110.307C87.5027 110.307 85.632 111.012 83.792 111.687C81.8294 112.423 79.8054 113.159 77.8427 113.159C77.168 113.159 76.4934 113.067 75.8187 112.852C73.1507 111.993 71.4947 109.479 69.9 107.056C68.8267 105.4 67.784 103.867 66.5574 102.947C65.3001 102.027 63.46 101.505 61.5587 100.984C58.7987 100.217 55.9161 99.42 54.2907 97.1814C52.6654 94.9734 52.7881 91.9987 52.9107 89.1467C53.0027 87.1534 53.064 85.252 52.5734 83.7187C52.1134 82.2774 50.9481 80.8667 49.7521 79.3334C47.9427 77.064 46.0414 74.7027 46.0414 71.82C46.0414 68.9374 47.9121 66.576 49.7521 64.3067C50.9787 62.804 52.1134 61.3627 52.5734 59.9214C53.064 58.388 53.0027 56.5174 52.9107 54.4934C52.7881 51.6414 52.6654 48.6667 54.2907 46.4587C55.9161 44.22 58.7987 43.4227 61.5587 42.656C63.4907 42.1347 65.3001 41.6134 66.5574 40.6934C67.8147 39.7734 68.8267 38.24 69.9 36.584C71.4947 34.1614 73.1507 31.6774 75.8187 30.788C78.3947 29.96 81.124 30.972 83.792 31.9534C85.632 32.628 87.5027 33.3334 89.1587 33.3334C90.8147 33.3334 92.6854 32.628 94.5254 31.9534C97.1934 30.972 99.9227 29.9294 102.499 30.788C105.167 31.6467 106.823 34.1614 108.417 36.584C109.491 38.24 110.533 39.7734 111.76 40.6934C113.017 41.6134 114.857 42.1347 116.759 42.656C119.519 43.4227 122.401 44.22 124.027 46.4587C125.652 48.6974 125.529 51.6414 125.407 54.4934C125.315 56.4867 125.253 58.388 125.744 59.9214C126.204 61.3627 127.369 62.7734 128.565 64.3067C130.375 66.576 132.276 68.9374 132.276 71.82C132.276 74.7027 130.405 77.064 128.565 79.3334C127.339 80.836 126.204 82.2774 125.744 83.7187L123.505 83.044Z" fill="#DE1E7E"/>
<path d="M89.128 99.8186C73.7333 99.8186 61.1907 87.276 61.1907 71.8813C61.1907 56.4866 73.7333 43.944 89.128 43.944C104.523 43.944 117.065 56.4866 117.065 71.8813C117.035 87.276 104.523 99.8186 89.128 99.8186ZM89.128 46.2746C75.0213 46.2746 63.5213 57.744 63.5213 71.8813C63.5213 85.988 75.0213 97.488 89.128 97.488C103.235 97.488 114.735 85.988 114.735 71.8813C114.735 57.744 103.235 46.2746 89.128 46.2746Z" fill="white"/>
<path d="M125.284 132.877C113.845 132.877 104.553 123.585 104.553 112.147C104.553 100.708 113.845 91.416 125.284 91.416C136.723 91.416 146.015 100.708 146.015 112.147C146.015 123.585 136.692 132.877 125.284 132.877ZM125.284 93.7774C115.133 93.7774 106.884 102.027 106.884 112.177C106.884 122.328 115.133 130.577 125.284 130.577C135.435 130.577 143.684 122.328 143.684 112.177C143.684 102.027 135.404 93.7774 125.284 93.7774Z" fill="#DE1E7E"/>
<path d="M122.953 121.101C122.647 121.101 122.371 120.979 122.125 120.764C121.665 120.304 121.665 119.568 122.125 119.108L136.416 104.817C136.876 104.357 137.612 104.357 138.072 104.817C138.532 105.277 138.532 106.013 138.072 106.473L123.781 120.764C123.536 120.979 123.229 121.101 122.953 121.101Z" fill="#DE1E7E"/>
<path d="M122.953 121.101C122.647 121.101 122.371 120.979 122.125 120.764L113.539 112.177C113.079 111.717 113.079 110.981 113.539 110.521C113.999 110.061 114.735 110.061 115.195 110.521L123.781 119.108C124.241 119.568 124.241 120.304 123.781 120.764C123.536 120.979 123.229 121.101 122.953 121.101Z" fill="#DE1E7E"/>
<path d="M81.5533 84.1787H78.5787C76.4013 84.1787 74.6227 82.4 74.6227 80.2227V70.44C74.6227 68.2627 76.4013 66.484 78.5787 66.484H81.5533C83.7307 66.484 85.5093 68.2627 85.5093 70.44V80.2227C85.5093 82.4 83.7613 84.1787 81.5533 84.1787ZM78.5787 68.8147C77.6893 68.8147 76.9533 69.5507 76.9533 70.44V80.2227C76.9533 81.112 77.6893 81.848 78.5787 81.848H81.5533C82.4427 81.848 83.1787 81.112 83.1787 80.2227V70.44C83.1787 69.5507 82.4427 68.8147 81.5533 68.8147H78.5787Z" fill="white"/>
<path d="M100.689 75.7147C100.045 75.7147 99.524 75.1934 99.524 74.5494C99.524 73.9054 100.045 73.3841 100.689 73.3841C101.18 73.3841 101.548 72.9854 101.548 72.5254C101.548 72.0654 101.149 71.6667 100.689 71.6667C100.045 71.6667 99.524 71.1454 99.524 70.5014C99.524 69.8574 100.045 69.3361 100.689 69.3361C102.468 69.3361 103.879 70.7774 103.879 72.5254C103.879 74.2734 102.468 75.7147 100.689 75.7147Z" fill="white"/>
<path d="M100.168 79.7933C99.524 79.7933 99.0027 79.272 99.0027 78.628C99.0027 77.984 99.524 77.4627 100.168 77.4627C100.659 77.4627 101.027 77.064 101.027 76.604C101.027 76.1133 100.628 75.7453 100.168 75.7453C99.524 75.7453 99.0027 75.224 99.0027 74.58C99.0027 73.936 99.524 73.4147 100.168 73.4147C101.947 73.4147 103.357 74.856 103.357 76.604C103.357 78.352 101.947 79.7933 100.168 79.7933Z" fill="white"/>
<path d="M88.5147 83.8721C87.288 83.8721 84.436 83.5961 83.3014 81.1427C83.0254 80.5601 83.2707 79.8547 83.8534 79.6094C84.436 79.3334 85.1414 79.5787 85.3867 80.1614C86.1227 81.7561 88.8214 81.5414 88.852 81.5414H88.9747H99.248C99.7387 81.5414 100.107 81.1427 100.107 80.6827C100.107 80.2227 99.708 79.8241 99.248 79.8241C98.604 79.8241 98.0827 79.3027 98.0827 78.6587C98.0827 78.0147 98.604 77.4934 99.248 77.4934C101.027 77.4934 102.437 78.9347 102.437 80.6827C102.437 82.4307 100.996 83.8721 99.248 83.8721H89.036C88.944 83.8414 88.76 83.8721 88.5147 83.8721Z" fill="white"/>
<path d="M99.9227 71.636C99.2787 71.636 98.7573 71.1147 98.7573 70.4707C98.7573 69.8267 99.2787 69.3053 99.9227 69.3053C100.168 69.3053 100.383 69.2133 100.536 69.0293C100.689 68.8453 100.781 68.6307 100.781 68.3853C100.781 67.9253 100.321 67.5574 99.8307 67.5574H93.5133C92.992 67.5574 92.4707 67.3427 92.1027 66.944C91.7347 66.5454 91.5813 66.024 91.6427 65.5027C91.7347 64.7053 91.9493 63.6013 92.2867 62.1294C92.532 61.056 92.4707 60.228 92.1027 59.7067C91.7653 59.216 91.152 59.0014 90.6613 58.8787L89.4653 64.1534L89.3427 64.3374C87.6253 66.76 85.356 70.5627 85.356 70.5933C85.0187 71.1453 84.3133 71.3293 83.7613 70.992C83.2093 70.6547 83.0253 69.9493 83.3627 69.3973C83.4547 69.244 85.6013 65.656 87.3187 63.172L88.5147 57.8974C88.7293 56.9774 89.588 56.3947 90.508 56.4867C91.3973 56.5787 93.0227 56.9467 94.0347 58.3267C94.832 59.4307 95.016 60.872 94.6173 62.62C94.3413 63.8467 94.188 64.6747 94.096 65.2267H99.8614C101.609 65.2267 103.081 66.6067 103.143 68.324C103.173 69.1827 102.836 70.0107 102.253 70.6547C101.609 71.2987 100.812 71.636 99.9227 71.636Z" fill="white"/>
<path d="M98.236 113.22C98.9304 113.22 99.4933 112.657 99.4933 111.963C99.4933 111.268 98.9304 110.705 98.236 110.705C97.5416 110.705 96.9786 111.268 96.9786 111.963C96.9786 112.657 97.5416 113.22 98.236 113.22Z" fill="#DE1E7E"/>
<path d="M124.579 84.7C125.239 84.7 125.775 84.1645 125.775 83.504C125.775 82.8434 125.239 82.308 124.579 82.308C123.918 82.308 123.383 82.8434 123.383 83.504C123.383 84.1645 123.918 84.7 124.579 84.7Z" fill="#DE1E7E"/>
<path d="M95.292 109.54L98.696 110.797L97.8066 113.128L94.0347 111.564L95.292 109.54Z" fill="#DE1E7E"/>
</svg>
