<svg width="40" height="40" viewBox="0 0 40 40" fill="none" xmlns="http://www.w3.org/2000/svg">
<g clip-path="url(#clip0)">
<path opacity="0.85" d="M20.2254 39.9088C31.2542 39.9088 40.1949 30.9681 40.1949 19.9392C40.1949 8.91038 31.2542 -0.0302734 20.2254 -0.0302734C9.19652 -0.0302734 0.255859 8.91038 0.255859 19.9392C0.255859 30.9681 9.19652 39.9088 20.2254 39.9088Z" fill="url(#paint0_linear)"/>
<path opacity="0.8" d="M30.9267 19.6617L30.6661 21.3989C30.6071 21.7825 30.6573 22.1749 30.8109 22.5313C30.9646 22.8876 31.2154 23.1936 31.5347 23.4141C31.7778 23.5717 31.9847 23.7791 32.1419 24.0225C32.299 24.2659 32.4027 24.5399 32.4462 24.8264C32.4897 25.1128 32.472 25.4052 32.3942 25.6843C32.3165 25.9634 32.1804 26.2229 31.9951 26.4456L25.9929 33.5595C25.7739 33.8199 25.4935 34.0217 25.177 34.1467C24.8606 34.2716 24.518 34.3158 24.1801 34.2753C23.8423 34.2348 23.5199 34.1109 23.2419 33.9146C22.964 33.7184 22.7392 33.4561 22.5879 33.1513L22.2058 32.3956C22.0535 32.1032 21.974 31.7784 21.974 31.4488C21.974 31.1192 22.0535 30.7944 22.2058 30.502L23.0223 28.9732C23.1558 28.7266 23.237 28.455 23.2609 28.1756C23.2849 27.8961 23.2509 27.6147 23.1612 27.3489L22.8659 26.4803C22.7422 26.1044 22.5124 25.7723 22.2041 25.5242C21.8958 25.276 21.5223 25.1224 21.1287 25.0818L15.7693 24.578C15.4314 24.5405 15.108 24.4202 14.8277 24.2277C14.5474 24.0353 14.3188 23.7767 14.1624 23.4749L12.0169 19.4879C11.7866 19.0557 11.7187 18.5553 11.8254 18.0773C11.9322 17.5993 12.2065 17.1753 12.5988 16.8821L16.6466 13.8506C17.0015 13.5813 17.4345 13.4349 17.88 13.4337H21.9973C22.2952 13.4349 22.5892 13.5008 22.8592 13.6268C23.1291 13.7528 23.3685 13.9358 23.5608 14.1633L25.2199 16.1264C25.5276 16.489 25.951 16.7344 26.4186 16.8213L29.2416 17.3338C29.7705 17.4255 30.2427 17.7202 30.5575 18.155C30.8723 18.5899 31.0048 19.1305 30.9267 19.6617ZM12.6423 8.52599L13.6412 4.6867C13.7411 4.30048 13.7267 3.89355 13.5996 3.51538C13.4726 3.13722 13.2384 2.80412 12.9255 2.5566C12.6126 2.30907 12.2346 2.15778 11.8374 2.12112C11.4401 2.08446 11.0408 2.16402 10.6879 2.35012C7.85803 3.87669 5.43844 6.06373 3.63465 8.72547C1.83087 11.3872 0.696175 14.445 0.326971 17.6391C-0.0422338 20.8332 0.364957 24.0692 1.51395 27.0722C2.66295 30.0753 4.5198 32.7566 6.92678 34.8885C7.25592 35.1747 7.66745 35.349 8.10202 35.3861C8.53659 35.4233 8.97175 35.3215 9.34472 35.0954C9.7177 34.8693 10.0092 34.5306 10.1773 34.1281C10.3453 33.7256 10.3811 33.2801 10.2796 32.856L8.93328 27.6877C8.85171 27.3636 8.69048 27.065 8.46423 26.8191L3.08749 20.869C2.82721 20.5826 2.65258 20.2288 2.58348 19.8479C2.51437 19.4671 2.55357 19.0745 2.69661 18.7149L3.51311 16.6649C3.64171 16.3255 3.85741 16.0259 4.13851 15.7963L11.9561 9.55964C12.2852 9.29347 12.5248 8.93267 12.6423 8.52599ZM23.3089 2.17639L22.6401 4.60852C22.5459 4.93848 22.5371 5.28698 22.6146 5.62126C22.6921 5.95554 22.8533 6.26463 23.0831 6.51948L28.7638 12.9299C29.0575 13.2576 29.4462 13.4854 29.8756 13.5813L36.3382 14.9364C36.7062 15.0125 37.0881 14.9863 37.4424 14.8608C37.7967 14.7352 38.1098 14.5151 38.3479 14.2242C38.586 13.9334 38.7398 13.5829 38.7929 13.2108C38.8459 12.8387 38.796 12.4592 38.6487 12.1134C37.4933 9.39905 35.7528 6.97329 33.5516 5.00932C31.3504 3.04534 28.7427 1.59159 25.9148 0.751862C25.6502 0.67096 25.3721 0.643765 25.0968 0.671875C24.8216 0.699985 24.5547 0.782833 24.3119 0.91555C24.0692 1.04827 23.8554 1.22817 23.6831 1.4447C23.5109 1.66122 23.3836 1.90999 23.3089 2.17639Z" fill="url(#paint1_linear)"/>
</g>
<defs>
<linearGradient id="paint0_linear" x1="-53.2109" y1="-47.0553" x2="59.3068" y2="-1.54357" gradientUnits="userSpaceOnUse">
<stop stop-color="#1757FF" stop-opacity="0.7"/>
<stop offset="1" stop-color="#1757FF" stop-opacity="0"/>
</linearGradient>
<linearGradient id="paint1_linear" x1="6.35164" y1="23.5181" x2="41.8374" y2="23.705" gradientUnits="userSpaceOnUse">
<stop stop-color="#FFD60A"/>
<stop offset="1" stop-color="#FFD60A" stop-opacity="0"/>
</linearGradient>
<clipPath id="clip0">
</clipPath>
</defs>
</svg>
