<svg width="40" height="40" viewBox="0 0 40 40" fill="none" xmlns="http://www.w3.org/2000/svg">
<rect x="16.3076" y="30.2158" width="7.38462" height="5.53846" fill="url(#paint0_linear)"/>
<path d="M32.4615 30.2154H7.53846C4.49231 30.2154 2 27.7231 2 24.6769V9.53846C2 6.49231 4.49231 4 7.53846 4H32.4615C35.5077 4 38 6.49231 38 9.53846V24.6769C38 27.7231 35.5077 30.2154 32.4615 30.2154Z" fill="url(#paint1_linear)"/>
<path d="M31.7227 27.7698H8.27659C6.10736 27.7698 4.35352 26.016 4.35352 23.8468V10.4621C4.35352 8.29291 6.10736 6.53906 8.27659 6.53906H31.7227C33.892 6.53906 35.6458 8.29291 35.6458 10.4621V23.8468C35.692 25.9698 33.892 27.7698 31.7227 27.7698Z" fill="url(#paint2_linear)"/>
<path d="M8.82964 13.8746C10.3073 13.8746 11.5052 12.6767 11.5052 11.199C11.5052 9.72134 10.3073 8.52344 8.82964 8.52344C7.35195 8.52344 6.15405 9.72134 6.15405 11.199C6.15405 12.6767 7.35195 13.8746 8.82964 13.8746Z" fill="url(#paint3_linear)"/>
<path d="M26.5693 35.7544H13.4304C12.9989 35.7544 12.6152 35.4143 12.6152 34.9284V34.7341C12.6152 34.2969 12.9509 33.9082 13.4304 33.9082H26.5693C27.0008 33.9082 27.3845 34.2483 27.3845 34.7341V34.9284C27.3845 35.3657 27.0008 35.7544 26.5693 35.7544Z" fill="url(#paint4_linear)"/>
<path d="M37.9539 22.462V33.3081C37.9539 34.6004 36.8924 35.6158 35.6462 35.6158H32.0001C30.7078 35.6158 29.6924 34.5543 29.6924 33.3081V22.462C29.6924 21.1697 30.7539 20.1543 32.0001 20.1543H35.6462C36.8924 20.1543 37.9539 21.1697 37.9539 22.462Z" fill="url(#paint5_linear)"/>
<path d="M37.1227 22.4618V33.2618C37.1227 34.1387 36.4304 34.831 35.5535 34.831H32.0919C31.215 34.831 30.5227 34.1387 30.5227 33.2618V22.4618C30.5227 21.5849 31.215 20.8926 32.0919 20.8926H35.5535C36.4304 20.8926 37.1227 21.5849 37.1227 22.4618Z" fill="url(#paint6_linear)"/>
<path d="M34.7229 22.6921H32.9229C32.7383 22.6921 32.5999 22.5536 32.5999 22.369C32.5999 22.1844 32.7383 22.0459 32.9229 22.0459H34.7229C34.9075 22.0459 35.046 22.1844 35.046 22.369C34.9999 22.5536 34.8614 22.6921 34.7229 22.6921Z" fill="url(#paint7_linear)"/>
<defs>
<linearGradient id="paint0_linear" x1="6.42176" y1="23.6947" x2="25.1751" y2="33.8087" gradientUnits="userSpaceOnUse">
<stop stop-color="#1757FF" stop-opacity="0.7"/>
<stop offset="1" stop-color="#1757FF" stop-opacity="0"/>
</linearGradient>
<linearGradient id="paint1_linear" x1="-46.1935" y1="-26.8665" x2="43.9945" y2="23.2288" gradientUnits="userSpaceOnUse">
<stop stop-color="#1757FF" stop-opacity="0.7"/>
<stop offset="1" stop-color="#1757FF" stop-opacity="0"/>
</linearGradient>
<linearGradient id="paint2_linear" x1="-0.833485" y1="0.226897" x2="3.43381" y2="37.864" gradientUnits="userSpaceOnUse">
<stop stop-color="#F1F4FC"/>
<stop offset="0.333333" stop-color="#F3F6FD" stop-opacity="0.7"/>
<stop offset="0.635417" stop-color="#F1F4FC" stop-opacity="0.6"/>
<stop offset="1" stop-color="#F2F5FD" stop-opacity="0.1"/>
</linearGradient>
<linearGradient id="paint3_linear" x1="7.00717" y1="12.045" x2="11.9243" y2="12.0683" gradientUnits="userSpaceOnUse">
<stop stop-color="#FFD60A"/>
<stop offset="1" stop-color="#FFD60A" stop-opacity="0"/>
</linearGradient>
<linearGradient id="paint4_linear" x1="-7.15648" y1="31.7345" x2="-2.93572" y2="45.3924" gradientUnits="userSpaceOnUse">
<stop stop-color="#1757FF" stop-opacity="0.7"/>
<stop offset="1" stop-color="#1757FF" stop-opacity="0"/>
</linearGradient>
<linearGradient id="paint5_linear" x1="18.6326" y1="1.94959" x2="44.5066" y2="7.54168" gradientUnits="userSpaceOnUse">
<stop stop-color="#1757FF" stop-opacity="0.7"/>
<stop offset="1" stop-color="#1757FF" stop-opacity="0"/>
</linearGradient>
<linearGradient id="paint6_linear" x1="29.4287" y1="16.7485" x2="37.2833" y2="39.0036" gradientUnits="userSpaceOnUse">
<stop stop-color="#F1F4FC"/>
<stop offset="0.333333" stop-color="#F3F6FD" stop-opacity="0.7"/>
<stop offset="0.635417" stop-color="#F1F4FC" stop-opacity="0.6"/>
<stop offset="1" stop-color="#F2F5FD" stop-opacity="0.1"/>
</linearGradient>
<linearGradient id="paint7_linear" x1="32.9898" y1="22.4711" x2="35.2369" y2="22.5114" gradientUnits="userSpaceOnUse">
<stop stop-color="#FFD60A"/>
<stop offset="1" stop-color="#FFD60A" stop-opacity="0"/>
</linearGradient>
</defs>
</svg>
