<svg width="40" height="40" viewBox="0 0 40 40" fill="none" xmlns="http://www.w3.org/2000/svg">
<path d="M35.5 0.400391H21.3C20.95 0.400391 20.6 0.700391 20.6 1.10039C20.6 1.50039 20.9 1.80039 21.3 1.80039H35.4C36.45 1.80039 37.45 2.60039 37.55 3.65039C37.65 4.85039 36.7 5.85039 35.55 5.85039H4.54997C2.79997 5.85039 1.24997 7.10039 1.04997 8.80039C0.799974 10.8504 2.39997 12.6004 4.39997 12.6004H17.25C18.4 12.6004 19.3 13.5004 19.3 14.6504V15.3004H18.65C18.25 15.3004 17.95 15.6004 17.95 16.0004V16.6504H21.95V16.0004C21.95 15.6004 21.65 15.3004 21.25 15.3004H20.6V14.6504C20.6 12.7504 19.1 11.2504 17.2 11.2504H4.44997C3.39997 11.2504 2.39997 10.4504 2.29997 9.40039C2.19997 8.20039 3.14997 7.20039 4.29997 7.20039H35.3C37.05 7.20039 38.6 5.95039 38.8 4.25039C39.1 2.15039 37.5 0.400391 35.5 0.400391Z" fill="url(#paint0_linear)"/>
<path d="M35.5999 39.6006C35.4499 39.6006 35.35 39.6006 35.2 39.6006C35.1 39.6006 35.0499 39.5506 34.95 39.5506C34.75 39.5506 34.5 39.4506 34.2999 39.4006C34 39.3006 33.75 39.1506 33.5 39.0006C33.15 38.7506 32.75 38.5006 32.45 38.2506C31.75 37.7006 31.1 37.0506 30.45 36.4506C29.55 35.5506 28.65 34.6006 27.85 33.6006C27.75 33.4506 27.6 33.3506 27.45 33.2506C27.2 33.1006 26.95 32.9506 26.7 32.8506C26.45 32.7506 26.2 32.7506 25.95 32.7506C25.7 32.7506 25.4499 32.7506 25.15 32.7506C21.4 32.7506 17.65 32.7506 13.9 32.7506C13.85 32.7506 13.85 32.7506 13.8 32.7506C13.75 32.7506 13.65 32.7506 13.6 32.7506C13 32.8506 12.5 33.1006 12.05 33.6006C11.45 34.3006 10.85 35.0006 10.2 35.6506C9.49995 36.4006 8.79995 37.1006 8.04995 37.7506C7.59995 38.1506 7.14995 38.5006 6.69995 38.8506C6.39995 39.0506 6.09995 39.2506 5.74995 39.4006C5.49995 39.5006 5.19995 39.6006 4.89995 39.6506C4.84995 39.6506 4.79995 39.6506 4.74995 39.7006C4.59995 39.7006 4.44995 39.7006 4.29995 39.7006C4.19995 39.6506 4.09995 39.6506 3.99995 39.6506C3.64995 39.6006 3.29995 39.5006 2.99995 39.3506C2.44995 39.1006 1.99995 38.7006 1.69995 38.2006C1.44995 37.8506 1.29995 37.4506 1.14995 37.0506C1.04995 36.7006 0.949951 36.4006 0.899951 36.0506C0.799951 35.5006 0.699951 35.0006 0.649951 34.5506C0.599951 34.2506 0.599951 33.9506 0.549951 33.6506C0.499951 33.2506 0.499951 32.8506 0.499951 32.4506C0.499951 32.3006 0.499951 32.1506 0.499951 32.0006C0.499951 31.9506 0.499951 31.9006 0.499951 31.9006C0.499951 31.8506 0.499951 31.8506 0.449951 31.8506C0.449951 31.4506 0.449951 31.0006 0.449951 30.6006C0.499951 30.5506 0.499951 30.5006 0.499951 30.4506C0.499951 30.3006 0.499951 30.1506 0.549951 30.0506C0.499951 29.7506 0.499951 29.5006 0.499951 29.2006C0.549951 28.8506 0.549951 28.5006 0.599951 28.1506C0.649951 27.7506 0.699951 27.3506 0.749951 26.9506C0.899951 26.0506 1.09995 25.1506 1.34995 24.2506C1.89995 22.1506 2.74995 20.1506 3.89995 18.3006C4.24995 17.7006 4.69995 17.1006 5.14995 16.5506C5.69995 15.9006 6.29995 15.3506 6.99995 14.9006C7.74995 14.4006 8.49995 14.0506 9.34995 13.8506C9.79995 13.7506 10.2 13.7006 10.65 13.6506C10.7 13.6506 10.7 13.6506 10.75 13.6006C11 13.6006 11.25 13.6006 11.5 13.6006C11.55 13.6506 11.6 13.6506 11.65 13.6506C12 13.7006 12.35 13.7006 12.7 13.8006C13.4 13.9506 14.1 14.1506 14.75 14.4006C15.55 14.7506 16.3 15.1506 17 15.6506C17.25 15.8506 17.5 15.9506 17.7999 16.1006C18.25 16.2506 18.65 16.3506 19.15 16.3506C19.6999 16.3506 20.25 16.3506 20.7999 16.3506C21.1999 16.3506 21.5499 16.3006 21.9 16.2006C22.25 16.1006 22.55 15.9506 22.85 15.7506C23.15 15.5006 23.5 15.3006 23.85 15.1506C25.25 14.4006 26.6999 13.8506 28.2999 13.7506C28.2999 13.7506 28.35 13.7506 28.35 13.7006C28.65 13.7006 28.9 13.7006 29.2 13.7006C29.25 13.7506 29.25 13.7506 29.2999 13.7506C29.5499 13.7506 29.7999 13.8006 30.0499 13.8506C30.8499 14.0006 31.6499 14.2506 32.3499 14.6506C33.0999 15.1006 33.8 15.6006 34.4 16.2506C35 16.8506 35.5 17.5506 35.95 18.3006C37.2 20.3506 38.1 22.5006 38.7 24.8506C38.95 25.9006 39.1499 27.0006 39.2999 28.1006C39.3499 28.7006 39.45 29.3006 39.45 29.9006C39.45 29.9506 39.45 30.0506 39.5 30.1006C39.5 30.9006 39.5 31.7506 39.5 32.5506C39.5 32.6006 39.5 32.7006 39.45 32.7506C39.45 32.9506 39.45 33.1006 39.45 33.3006C39.4 33.8006 39.3499 34.3006 39.2999 34.8006C39.25 35.3506 39.1499 35.8506 39.0499 36.4006C38.95 36.9006 38.7999 37.3506 38.5499 37.8006C38.2999 38.3006 38 38.7006 37.5499 39.0506C37.0999 39.4006 36.5499 39.6006 36 39.6506C35.7999 39.5506 35.6999 39.5506 35.5999 39.6006Z" fill="url(#paint1_linear)"/>
<g opacity="0.71">
<path opacity="0.75" d="M26.55 22.4506C27.8203 22.4506 28.85 21.4208 28.85 20.1506C28.85 18.8803 27.8203 17.8506 26.55 17.8506C25.2797 17.8506 24.25 18.8803 24.25 20.1506C24.25 21.4208 25.2797 22.4506 26.55 22.4506Z" fill="url(#paint2_linear)"/>
<path d="M33.4554 14.0243C31.5082 14.546 30.3527 16.5475 30.8744 18.4946C31.3962 20.4418 33.3976 21.5973 35.3447 21.0755C37.2919 20.5538 38.4474 18.5524 37.9257 16.6052C37.4039 14.6581 35.4025 13.5026 33.4554 14.0243Z" fill="#B760EA"/>
<path d="M28.8 29.4008C30.0703 29.4008 31.1 28.371 31.1 27.1008C31.1 25.8305 30.0703 24.8008 28.8 24.8008C27.5297 24.8008 26.5 25.8305 26.5 27.1008C26.5 28.371 27.5297 29.4008 28.8 29.4008Z" fill="url(#paint3_linear)"/>
<path d="M35.4501 27.2004C36.3613 27.2004 37.1 26.4617 37.1 25.5504C37.1 24.6391 36.3613 23.9004 35.4501 23.9004C34.5388 23.9004 33.8 24.6391 33.8 25.5504C33.8 26.4617 34.5388 27.2004 35.4501 27.2004Z" fill="url(#paint4_linear)"/>
</g>
<path d="M14.65 22.0506H12.4V19.8006C12.4 18.7506 11.5 17.8506 10.45 17.8506C9.40005 17.8506 8.50005 18.7506 8.50005 19.8006V22.0506H6.25005C5.20005 22.0506 4.30005 22.9506 4.30005 24.0006C4.30005 25.0506 5.20005 25.9506 6.25005 25.9506H8.50005V28.2006C8.50005 29.2506 9.40005 30.1506 10.45 30.1506C11.5 30.1506 12.4 29.2506 12.4 28.2006V25.9506H14.65C15.7 25.9506 16.6 25.0506 16.6 24.0006C16.6 22.9506 15.7 22.0506 14.65 22.0506Z" fill="url(#paint5_linear)"/>
<defs>
<linearGradient id="paint0_linear" x1="51.5" y1="38.7504" x2="41.1492" y2="-7.2982" gradientUnits="userSpaceOnUse">
<stop stop-color="#1757FF" stop-opacity="0.7"/>
<stop offset="1" stop-color="#1757FF" stop-opacity="0"/>
</linearGradient>
<linearGradient id="paint1_linear" x1="-51.8267" y1="-17.1301" x2="41.87" y2="39.573" gradientUnits="userSpaceOnUse">
<stop stop-color="#1757FF" stop-opacity="0.7"/>
<stop offset="1" stop-color="#1757FF" stop-opacity="0"/>
</linearGradient>
<linearGradient id="paint2_linear" x1="28.0341" y1="14.7772" x2="29.6416" y2="22.2104" gradientUnits="userSpaceOnUse">
<stop offset="0.270833" stop-color="#26BE6C"/>
<stop offset="0.770833" stop-color="#77EA77"/>
<stop offset="1" stop-color="#6CEC80"/>
</linearGradient>
<linearGradient id="paint3_linear" x1="27.2361" y1="24.8007" x2="32.9775" y2="28.0243" gradientUnits="userSpaceOnUse">
<stop stop-color="#06BEE1" stop-opacity="0"/>
<stop offset="0.661458" stop-color="#06BEE1" stop-opacity="0.4"/>
<stop offset="1" stop-color="#06BEE1"/>
</linearGradient>
<linearGradient id="paint4_linear" x1="34.3274" y1="27.1663" x2="37.0121" y2="24.4291" gradientUnits="userSpaceOnUse">
<stop stop-color="#FDBF00"/>
<stop offset="1" stop-color="#FDBF00" stop-opacity="0"/>
</linearGradient>
<linearGradient id="paint5_linear" x1="-9.50844" y1="11.8404" x2="19.3661" y2="18.1302" gradientUnits="userSpaceOnUse">
<stop stop-color="#1757FF"/>
<stop offset="1" stop-color="#1757FF" stop-opacity="0"/>
</linearGradient>
</defs>
</svg>
