<svg width="40" height="40" viewBox="0 0 40 40" fill="none" xmlns="http://www.w3.org/2000/svg">
<path opacity="0.85" d="M22.5682 19.9203C22.5674 19.3917 22.7323 18.8762 23.0396 18.4462C23.347 18.0163 23.7814 17.6934 24.2818 17.5231C26.7282 16.7005 28.8872 15.1929 30.5022 13.1796C32.1172 11.1662 33.1204 8.73158 33.3927 6.16491C33.4085 6.02377 33.3943 5.88088 33.3512 5.74556C33.3081 5.61024 33.237 5.48551 33.1425 5.37951C33.0479 5.27351 32.9321 5.1886 32.8026 5.13032C32.6731 5.07204 32.5328 5.0417 32.3908 5.04126H7.60492C7.4629 5.0417 7.32256 5.07204 7.19305 5.13032C7.06353 5.1886 6.94774 5.27351 6.85322 5.37951C6.7587 5.48551 6.68757 5.61024 6.64446 5.74556C6.60135 5.88088 6.58722 6.02377 6.603 6.16491C6.87639 8.73121 7.88002 11.1653 9.49487 13.1785C11.1097 15.1916 13.2681 16.6995 15.7139 17.5231C16.2143 17.6934 16.6487 18.0163 16.956 18.4462C17.2634 18.8762 17.4283 19.3917 17.4275 19.9203C17.4302 20.4504 17.2663 20.968 16.9588 21.3998C16.6513 21.8317 16.2158 22.1559 15.7139 22.3267C13.2675 23.1494 11.1085 24.6569 9.4935 26.6703C7.87849 28.6837 6.87527 31.1183 6.603 33.685C6.58712 33.8257 6.60124 33.9681 6.64443 34.103C6.68762 34.2378 6.7589 34.362 6.85357 34.4672C6.94824 34.5725 7.06415 34.6566 7.19366 34.7138C7.32317 34.771 7.46334 34.8001 7.60492 34.7992H32.3908C32.5323 34.8001 32.6725 34.771 32.802 34.7138C32.9315 34.6566 33.0474 34.5725 33.1421 34.4672C33.2368 34.362 33.3081 34.2378 33.3513 34.103C33.3944 33.9681 33.4086 33.8257 33.3927 33.685C33.1227 31.1175 32.1203 28.6819 30.5049 26.6681C28.8896 24.6543 26.7294 23.1474 24.2818 22.3267C23.7799 22.1559 23.3444 21.8317 23.0369 21.3998C22.7294 20.968 22.5654 20.4504 22.5682 19.9203Z" fill="url(#paint0_linear)"/>
<path opacity="0.75" d="M35.1157 34.0317H4.88019C4.39408 34.0317 4 34.4258 4 34.9119V38.62C4 39.1061 4.39408 39.5002 4.88019 39.5002H35.1157C35.6018 39.5002 35.9959 39.1061 35.9959 38.62V34.9119C35.9959 34.4258 35.6018 34.0317 35.1157 34.0317Z" fill="url(#paint1_linear)"/>
<path opacity="0.85" d="M35.1157 0.5H4.88019C4.39408 0.5 4 0.894075 4 1.38019V5.08823C4 5.57435 4.39408 5.96843 4.88019 5.96843H35.1157C35.6018 5.96843 35.9959 5.57435 35.9959 5.08823V1.38019C35.9959 0.894075 35.6018 0.5 35.1157 0.5Z" fill="url(#paint2_linear)"/>
<path opacity="0.85" d="M16.1728 23.5161C17.1687 24.5019 18.3644 25.2627 19.6792 25.7473C20.994 26.2318 22.3974 26.4289 23.7949 26.3252C28.664 26.0162 28.0367 26.0443 28.0367 26.0443C28.0367 26.0443 12.2587 32.6177 11.9497 30.5296C11.6407 28.4414 13.7008 24.4244 16.1728 23.5161Z" fill="url(#paint3_linear)"/>
<path d="M28.0272 25.9973C22.9333 26.9899 15.2363 29.0593 13.6538 27.5143C12.0714 25.9693 16.1727 23.5066 16.1727 23.5066C16.1727 23.5066 15.6108 23.7688 15.2831 23.9092C13.4832 24.6692 11.8926 25.8513 10.6458 27.3556C9.39898 28.8599 8.5326 30.6422 8.11985 32.552C8.09488 32.6628 8.09481 32.7778 8.11965 32.8886C8.14448 32.9995 8.1936 33.1034 8.26347 33.193C8.33333 33.2826 8.4222 33.3555 8.52367 33.4066C8.62513 33.4577 8.73666 33.4856 8.85022 33.4883H31.1547C31.2688 33.4873 31.3813 33.4605 31.4836 33.41C31.586 33.3594 31.6756 33.2864 31.7458 33.1964C31.816 33.1064 31.865 33.0017 31.8891 32.8901C31.9132 32.7785 31.9118 32.6629 31.885 32.552C31.3322 30.0111 29.9802 27.7141 28.0272 25.9973Z" fill="url(#paint4_linear)"/>
<path d="M28.4769 11.2588C29.5216 11.2588 30.3684 10.4119 30.3684 9.36731C30.3684 8.32267 29.5216 7.47583 28.4769 7.47583C27.4323 7.47583 26.5854 8.32267 26.5854 9.36731C26.5854 10.4119 27.4323 11.2588 28.4769 11.2588Z" fill="white"/>
<path d="M27.5219 27.6829C28.189 27.6829 28.7298 27.1421 28.7298 26.475C28.7298 25.8079 28.189 25.2671 27.5219 25.2671C26.8548 25.2671 26.314 25.8079 26.314 26.475C26.314 27.1421 26.8548 27.6829 27.5219 27.6829Z" fill="white"/>
<defs>
<linearGradient id="paint0_linear" x1="-29.2838" y1="-29.9964" x2="48.2835" y2="-1.73783" gradientUnits="userSpaceOnUse">
<stop stop-color="#1757FF" stop-opacity="0.7"/>
<stop offset="1" stop-color="#1757FF" stop-opacity="0"/>
</linearGradient>
<linearGradient id="paint1_linear" x1="-31.9199" y1="31.3597" x2="-1.94256" y2="69.5675" gradientUnits="userSpaceOnUse">
<stop stop-color="#1757FF"/>
<stop offset="1" stop-color="#1757FF" stop-opacity="0"/>
</linearGradient>
<linearGradient id="paint2_linear" x1="-31.9199" y1="-2.17207" x2="-1.94255" y2="36.0358" gradientUnits="userSpaceOnUse">
<stop stop-color="#1757FF"/>
<stop offset="1" stop-color="#1757FF" stop-opacity="0"/>
</linearGradient>
<linearGradient id="paint3_linear" x1="11.9189" y1="180.218" x2="496.886" y2="180.218" gradientUnits="userSpaceOnUse">
<stop stop-color="#D3B3DB"/>
<stop offset="0.32" stop-color="#BA95C9"/>
<stop offset="0.64" stop-color="#A67DBB"/>
<stop offset="0.84" stop-color="#9F74B6"/>
</linearGradient>
<linearGradient id="paint4_linear" x1="8.10113" y1="28.4881" x2="31.8944" y2="28.4881" gradientUnits="userSpaceOnUse">
<stop stop-color="#D3B3DB"/>
<stop offset="0.32" stop-color="#BA95C9"/>
<stop offset="0.64" stop-color="#A67DBB"/>
<stop offset="0.84" stop-color="#9F74B6"/>
</linearGradient>
</defs>
</svg>
