<svg width="40" height="40" viewBox="0 0 40 40" fill="none" xmlns="http://www.w3.org/2000/svg">
<path d="M5.43823 30.1016L35.3997 30.1016L35.3997 36.9981L5.43823 36.9981L5.43823 30.1016Z" fill="url(#paint0_linear)"/>
<path d="M37.6574 11.9877L35.4046 21.0451V30.1024H5.44317V21.0451L3.19043 11.9877L6.73057 10.2175L13.2131 16.7L17.7419 8.19434H23.0292L27.5581 16.7L34.1172 10.2175L37.6574 11.9877Z" fill="url(#paint1_linear)"/>
<path d="M3.52488 12.6553C1.62355 12.6553 8.58131e-07 11.1084 5.53137e-07 9.20704C2.48144e-07 7.30571 1.62355 5.75879 3.52488 5.75879C5.42621 5.75879 6.97313 7.30571 6.97313 9.20704C6.97313 11.1084 5.42621 12.6553 3.52488 12.6553Z" fill="url(#paint2_linear)"/>
<path d="M36.5515 12.8604C34.6502 12.8604 33.1033 11.3134 33.1033 9.41212C33.1033 7.51079 34.6502 5.96387 36.5515 5.96387C38.4528 5.96387 39.9998 7.51079 39.9998 9.41212C39.9998 11.3134 38.4528 12.8604 36.5515 12.8604Z" fill="url(#paint3_linear)"/>
<path d="M20.3413 2C18.4331 2 16.8931 3.54004 16.8931 5.44825C16.8931 7.35616 18.4331 8.8965 20.3413 8.8965C22.2495 8.8965 23.7896 7.35616 23.7896 5.44825C23.7896 3.54004 22.2495 2 20.3413 2Z" fill="url(#paint4_linear)"/>
<path d="M6.59156 18.6084L3.14331 24.3555L6.59156 30.1026L10.0398 24.3555L6.59156 18.6084Z" fill="#CB75F6"/>
<path d="M23.8338 24.3555L20.3855 30.1026L16.9373 24.3555L20.3855 18.6084L23.8338 24.3555Z" fill="#FF6C6C"/>
<path d="M23.8315 24.3545L20.3833 30.1016L20.3833 18.6074L23.8315 24.3545Z" fill="#FF4949"/>
<path d="M34.2537 18.6084L30.8054 24.3555L34.2537 30.1026L37.7019 24.3555L34.2537 18.6084Z" fill="#B760EA"/>
<path d="M3.14136 28.9521L37.7005 28.9522L37.7005 31.251L3.14136 31.251L3.14136 28.9521Z" fill="#FFE470"/>
<path d="M3.14233 35.8486L37.7015 35.8486L37.7015 38.1475L3.14233 38.1475L3.14233 35.8486Z" fill="#FFE470"/>
<defs>
<linearGradient id="paint0_linear" x1="10.2149" y1="34.6401" x2="37.7349" y2="35.2063" gradientUnits="userSpaceOnUse">
<stop stop-color="#FFD60A"/>
<stop offset="1" stop-color="#FFD60A" stop-opacity="0"/>
</linearGradient>
<linearGradient id="paint1_linear" x1="8.68536" y1="22.6117" x2="40.3554" y2="22.8477" gradientUnits="userSpaceOnUse">
<stop stop-color="#FFD60A"/>
<stop offset="1" stop-color="#FFD60A" stop-opacity="0"/>
</linearGradient>
<linearGradient id="paint2_linear" x1="1.11434" y1="12.5841" x2="6.72331" y2="6.80169" gradientUnits="userSpaceOnUse">
<stop stop-color="#FDBF00"/>
<stop offset="1" stop-color="#FDBF00" stop-opacity="0"/>
</linearGradient>
<linearGradient id="paint3_linear" x1="34.2054" y1="12.7892" x2="39.8159" y2="7.06874" gradientUnits="userSpaceOnUse">
<stop stop-color="#FDBF00"/>
<stop offset="1" stop-color="#FDBF00" stop-opacity="0"/>
</linearGradient>
<linearGradient id="paint4_linear" x1="17.9952" y1="8.82536" x2="23.6057" y2="3.10487" gradientUnits="userSpaceOnUse">
<stop stop-color="#FDBF00"/>
<stop offset="1" stop-color="#FDBF00" stop-opacity="0"/>
</linearGradient>
</defs>
</svg>
