<svg
  width="388"
  height="62"
  viewBox="0 0 388 62"
  fill="none"
  xmlns="http://www.w3.org/2000/svg"
>
  <title>Sportsbet.mx</title>
  <g clip-path="url(#clip0_101_2)">
    <path
      d="M82.31 21.91C82.3208 22.6392 82.5268 23.3523 82.9067 23.9749C83.2866 24.5975 83.8264 25.1068 84.47 25.45C86.6507 26.6304 89.0188 27.4254 91.47 27.8C95.65 28.6733 98.7566 30.0433 100.79 31.91C101.809 32.8686 102.609 34.0358 103.135 35.3319C103.662 36.628 103.902 38.0224 103.84 39.42C103.845 40.9889 103.501 42.5394 102.834 43.9592C102.166 45.3791 101.191 46.6329 99.98 47.63C97.4 49.8967 93.9867 51.03 89.74 51.03C85.24 51.03 81.6567 49.9333 78.99 47.74C76.2979 45.4973 74.4817 42.3782 73.86 38.93L80.13 35.74C81.2433 41.74 84.43 44.74 89.69 44.74C91.4973 44.8302 93.2857 44.3358 94.79 43.33C95.4098 42.8991 95.9107 42.3186 96.2462 41.6424C96.5816 40.9662 96.7408 40.2162 96.7089 39.462C96.677 38.7078 96.455 37.9739 96.0636 37.3285C95.6722 36.683 95.124 36.1469 94.47 35.77C92.2523 34.5787 89.8479 33.7739 87.36 33.39C84.1804 32.8824 81.196 31.5283 78.72 29.47C77.6741 28.5448 76.8458 27.3999 76.2943 26.1171C75.7428 24.8343 75.4818 23.4455 75.53 22.05C75.4849 20.5888 75.7964 19.1387 76.4376 17.8249C77.0788 16.5112 78.0304 15.3734 79.21 14.51C82.0034 12.5107 85.3886 11.5103 88.82 11.67C96.0267 11.67 100.817 14.9133 103.19 21.4L97.57 24.64C96.0567 20.1667 93.0867 17.9333 88.66 17.94C87.0961 17.8843 85.5438 18.2285 84.15 18.94C83.5972 19.2037 83.1324 19.6214 82.8113 20.143C82.4902 20.6645 82.3265 21.2677 82.34 21.88L82.31 21.91ZM106.84 61.27V23.48H113.65V27.32C114.642 25.8973 115.981 24.7512 117.54 23.99C119.214 23.1456 121.065 22.7135 122.94 22.73C124.593 22.6965 126.234 23.0216 127.75 23.6827C129.265 24.3439 130.62 25.3255 131.72 26.56C134.08 29.12 135.26 32.56 135.26 36.88C135.407 40.6528 134.056 44.3306 131.5 47.11C130.332 48.3724 128.911 49.3734 127.328 50.0473C125.746 50.7212 124.039 51.0526 122.32 51.02C120.657 51.0851 119.003 50.7567 117.491 50.0616C115.979 49.3666 114.653 48.3244 113.62 47.02V61.34L106.84 61.27ZM126.18 31.34C125.474 30.6252 124.633 30.0577 123.706 29.6704C122.779 29.2831 121.785 29.0837 120.78 29.0837C119.775 29.0837 118.781 29.2831 117.854 29.6704C116.927 30.0577 116.086 30.6252 115.38 31.34C113.99 32.8501 113.218 34.8276 113.218 36.88C113.218 38.9325 113.99 40.9099 115.38 42.42C116.089 43.1299 116.93 43.6932 117.857 44.0775C118.784 44.4617 119.777 44.6595 120.78 44.6595C121.783 44.6595 122.776 44.4617 123.703 44.0775C124.63 43.6932 125.471 43.1299 126.18 42.42C126.89 41.6865 127.447 40.8187 127.818 39.8675C128.189 38.9163 128.366 37.9007 128.34 36.88C128.368 35.8637 128.191 34.8521 127.82 33.9055C127.449 32.9589 126.891 32.0966 126.18 31.37V31.34ZM161.86 26.51C164.78 28.99 166.24 32.4467 166.24 36.88C166.24 41.3133 164.79 44.78 161.89 47.28C159.008 49.7007 155.364 51.0278 151.6 51.0278C147.836 51.0278 144.192 49.7007 141.31 47.28C138.41 44.7733 136.96 41.3067 136.96 36.88C136.96 32.4533 138.41 28.9867 141.31 26.48C144.157 23.999 147.824 22.6627 151.6 22.73C155.373 22.6611 159.034 24.01 161.86 26.51ZM146.14 42.51C147.62 43.891 149.576 44.6469 151.6 44.62C153.621 44.649 155.572 43.8801 157.03 42.48C158.504 40.9706 159.329 38.9446 159.329 36.835C159.329 34.7253 158.504 32.6994 157.03 31.19C155.552 29.8237 153.613 29.0649 151.6 29.0649C149.587 29.0649 147.648 29.8237 146.17 31.19C145.407 31.9135 144.808 32.7921 144.413 33.7667C144.017 34.7413 143.836 35.7893 143.88 36.84C143.836 37.8909 144.015 38.9392 144.404 39.9163C144.794 40.8934 145.385 41.7773 146.14 42.51V42.51ZM186.04 23.01V29.26C185.35 28.84 183.57 29.06 182.78 29.06C181.87 29.0293 180.966 29.2165 180.143 29.6062C179.32 29.9958 178.603 30.5766 178.05 31.3C176.832 32.9447 176.212 34.9552 176.29 37V50.24H169.49V23.44H176.29V27.71C177.95 24.3767 180.437 22.71 183.75 22.71C184.535 22.7007 185.317 22.8085 186.07 23.03L186.04 23.01ZM189.43 23.46V16.22H196.24V23.46H202.07V28.97H196.24V41.18C196.24 43.7 197.373 44.96 199.64 44.96C200.408 44.9628 201.173 44.8551 201.91 44.64L202.56 50.26C201.103 50.7751 199.566 51.029 198.02 51.01C192.293 51.01 189.43 48.1667 189.43 42.48V23.48V23.46ZM211.43 30.05C211.43 31.71 213.537 32.97 217.75 33.83C220.89 34.4967 223.17 35.4966 224.59 36.83C225.306 37.5119 225.867 38.3401 226.234 39.2581C226.602 40.176 226.768 41.1623 226.72 42.15C226.751 43.3625 226.51 44.5667 226.015 45.6741C225.52 46.7815 224.784 47.7641 223.86 48.55C221.682 50.313 218.928 51.2071 216.13 51.06C213.387 51.169 210.684 50.3712 208.44 48.79C206.425 47.3084 204.847 45.312 203.87 43.01L209.33 39.56C209.844 41.1691 210.764 42.6188 212 43.77C213.163 44.8118 214.679 45.373 216.24 45.34C217.295 45.3677 218.336 45.0937 219.24 44.55C219.63 44.3347 219.953 44.0168 220.176 43.6308C220.398 43.2448 220.51 42.8053 220.5 42.36C220.492 41.923 220.363 41.4968 220.126 41.1293C219.889 40.7619 219.555 40.4678 219.16 40.28C217.778 39.6025 216.301 39.1405 214.78 38.91C208.553 37.6766 205.437 34.8833 205.43 30.53C205.396 29.4121 205.647 28.304 206.157 27.309C206.668 26.314 207.422 25.4646 208.35 24.84C210.429 23.4127 212.909 22.6842 215.43 22.76C217.814 22.646 220.181 23.2075 222.26 24.38C224.134 25.6502 225.605 27.4303 226.5 29.51L221.59 32.43C220.357 29.29 218.34 27.72 215.54 27.72C212.83 27.72 211.48 28.52 211.48 30.1L211.43 30.05ZM229.2 50.31V12.46H236V26.78C237.039 25.4509 238.381 24.3898 239.913 23.6852C241.446 22.9806 243.125 22.6531 244.81 22.73C246.522 22.6776 248.225 22.9893 249.808 23.6443C251.391 24.2994 252.816 25.283 253.99 26.53C256.41 29.07 257.617 32.52 257.61 36.88C257.603 41.24 256.36 44.68 253.88 47.2C252.701 48.4424 251.275 49.4248 249.694 50.0844C248.114 50.7439 246.412 51.066 244.7 51.03C240.88 51.03 237.98 49.6966 236 47.03V50.33L229.2 50.31ZM237.68 42.53C238.393 43.2427 239.244 43.8021 240.182 44.1735C241.119 44.545 242.122 44.7208 243.13 44.69C244.138 44.7226 245.141 44.5446 246.076 44.1675C247.011 43.7904 247.857 43.2225 248.56 42.5C249.938 40.9642 250.7 38.9734 250.7 36.91C250.7 34.8465 249.938 32.8558 248.56 31.32C247.101 29.9157 245.155 29.1313 243.13 29.1313C241.105 29.1313 239.159 29.9157 237.7 31.32C236.989 32.0619 236.434 32.9389 236.068 33.8991C235.702 34.8593 235.533 35.8831 235.57 36.91C235.534 37.9396 235.701 38.9663 236.063 39.9308C236.426 40.8953 236.975 41.7787 237.68 42.53V42.53ZM286.49 38.53H265.7C265.828 40.3966 266.661 42.1448 268.03 43.42C269.403 44.6419 271.193 45.2898 273.03 45.23C276.363 45.23 278.83 43.59 280.43 40.31L285.51 43.23C282.99 48.45 278.793 51.06 272.92 51.06C271.108 51.0898 269.31 50.7505 267.634 50.0628C265.957 49.3751 264.439 48.3535 263.17 47.06C260.579 44.2949 259.141 40.6447 259.15 36.855C259.159 33.0654 260.615 29.4223 263.22 26.67C264.541 25.3805 266.105 24.3677 267.823 23.6912C269.54 23.0146 271.375 22.6878 273.22 22.73C274.963 22.6705 276.698 22.9731 278.318 23.6186C279.938 24.264 281.406 25.2383 282.63 26.48C283.856 27.7595 284.812 29.272 285.442 30.9279C286.073 32.5838 286.364 34.3494 286.3 36.12L286.49 38.53ZM273.05 27.91C271.371 27.8802 269.735 28.4432 268.43 29.5C267.143 30.5331 266.193 31.9255 265.7 33.5H280.07C279.833 31.8843 279.006 30.4134 277.75 29.37C276.406 28.3395 274.743 27.8123 273.05 27.88V27.91ZM288.47 23.45V16.21H295.28V23.45H301.12V28.96H295.28V41.17C295.28 43.69 296.42 44.95 298.68 44.95C299.448 44.9529 300.213 44.8451 300.95 44.63L301.6 50.25C300.143 50.7651 298.606 51.019 297.06 51C291.34 51 288.477 48.1566 288.47 42.47V23.47V23.45ZM307.35 50.25C308.064 50.252 308.763 50.042 309.358 49.6465C309.953 49.251 310.418 48.6879 310.692 48.0284C310.967 47.369 311.04 46.6428 310.902 45.9418C310.764 45.2409 310.421 44.5968 309.916 44.0909C309.412 43.585 308.769 43.2402 308.068 43.1001C307.367 42.96 306.641 43.0309 305.981 43.3038C305.321 43.5768 304.756 44.0395 304.359 44.6334C303.962 45.2272 303.75 45.9256 303.75 46.64C303.75 47.5957 304.129 48.5124 304.804 49.1891C305.479 49.8658 306.394 50.2474 307.35 50.25"
      fill="#DE1E7E"
    />
    <path
      d="M30.61 0C24.734 0 18.9898 1.74244 14.1041 5.00702C9.21827 8.2716 5.41026 12.9117 3.16158 18.3405C0.9129 23.7692 0.324539 29.7429 1.47091 35.5061C2.61727 41.2693 5.44689 46.5631 9.6019 50.7181C13.7569 54.8732 19.0507 57.7028 24.8139 58.8491C30.5771 59.9955 36.5508 59.4071 41.9796 57.1584C47.4084 54.9098 52.0484 51.1018 55.313 46.216C58.5776 41.3302 60.32 35.5861 60.32 29.71C60.3095 21.8337 57.1759 14.2829 51.6065 8.71353C46.0371 3.14412 38.4864 0.0105829 30.61 0V0ZM31.05 53.32C26.4638 53.3339 21.9765 51.9869 18.156 49.4496C14.3356 46.9123 11.3536 43.2987 9.58757 39.0661C7.82152 34.8335 7.35074 30.1721 8.23479 25.6719C9.11885 21.1716 11.318 17.0348 14.554 13.7848C17.7899 10.5348 21.9173 8.31779 26.4137 7.41431C30.9101 6.51083 35.5734 6.9615 39.8136 8.70926C44.0538 10.457 47.6802 13.4233 50.234 17.2328C52.7878 21.0423 54.1541 25.5237 54.16 30.11C54.1627 36.2464 51.731 42.1333 47.3985 46.4789C43.0659 50.8246 37.1864 53.2741 31.05 53.29"
      fill="#DE1E7E"
    />
    <path
      d="M14.4 3.47147e-06C17.2504 -0.00197464 20.0375 0.84146 22.4085 2.42365C24.7795 4.00584 26.628 6.25568 27.7202 8.88858C28.8124 11.5215 29.0992 14.4192 28.5443 17.2151C27.9894 20.011 26.6178 22.5796 24.6029 24.5959C22.5881 26.6121 20.0205 27.9855 17.2249 28.5424C14.4294 29.0992 11.5315 28.8144 8.89784 27.724C6.26418 26.6337 4.01305 24.7867 2.42921 22.4168C0.845381 20.0469 6.86367e-07 17.2604 0 14.41C-9.19834e-07 10.5899 1.5168 6.92624 4.21704 4.22412C6.91728 1.52201 10.58 0.00265443 14.4 3.47147e-06"
      fill="#0CD664"
    />
    <path
      d="M313.93 22.93H321.31V26.54H321.37C322.359 25.3041 323.61 24.3039 325.034 23.612C326.458 22.9201 328.017 22.5539 329.6 22.54C333.21 22.54 336.09 23.9 337.72 26.89H337.83C338.991 25.4685 340.466 24.3358 342.138 23.581C343.811 22.8262 345.636 22.4698 347.47 22.54C353.39 22.54 357.17 26.1 357.17 34.54V50.54H349.78V36.29C349.78 31.89 348.43 29.13 344.99 29.13C341.89 29.13 339.35 31.78 339.35 36.74V50.5H331.93V36.29C331.93 31.89 330.46 29.13 327.08 29.13C323.7 29.13 321.27 31.78 321.27 36.74V50.5H313.93V22.93Z"
      fill="#DE1E7E"
    />
    <path
      d="M369.46 36.4L359.99 22.93H368.44L373.52 30.82H373.63L378.76 22.93H387.16L377.75 36.46L387.33 50.46H379.21L373.69 42.56H373.58L367.94 50.46H359.94L369.46 36.4Z"
      fill="#DE1E7E"
    />
  </g>
  <defs>
    <clipPath id="clip0_101_2">
      <rect width="387.33" height="61.3" fill="#DE1E7E" />
    </clipPath>
  </defs>
</svg>