<svg width="32" height="32" viewBox="0 0 32 32" fill="none" xmlns="http://www.w3.org/2000/svg">
<path d="M25.9666 9.13765C26.1299 8.91502 26.0819 8.6021 25.8593 8.43872C25.6367 8.27534 25.3238 8.32336 25.1604 8.54598L25.9666 9.13765ZM21.3642 14.5637L21.7672 14.8595L21.3642 14.5637ZM19.6538 14.9299L19.4072 15.3648L19.6538 14.9299ZM15.3949 12.5151L15.6415 12.0801C15.4219 11.9556 15.144 12.0143 14.9935 12.2169L15.3949 12.5151ZM8.13706 21.4445C7.97237 21.6662 8.01854 21.9794 8.24019 22.1441C8.46185 22.3087 8.77504 22.2626 8.93974 22.0409L8.13706 21.4445ZM13.7977 22.076C14.0712 22.0377 14.2618 21.785 14.2235 21.5115C14.1852 21.238 13.9325 21.0474 13.659 21.0857L13.7977 22.076ZM7.99513 22.384L7.50288 22.4717C7.55003 22.7365 7.79817 22.9165 8.0645 22.8792L7.99513 22.384ZM7.51006 16.8087C7.46164 16.5369 7.202 16.3557 6.93014 16.4041C6.65827 16.4526 6.47713 16.7122 6.52555 16.9841L7.51006 16.8087ZM25.1604 8.54598L20.9611 14.2679L21.7672 14.8595L25.9666 9.13765L25.1604 8.54598ZM19.9005 14.4949L15.6415 12.0801L15.1482 12.95L19.4072 15.3648L19.9005 14.4949ZM14.9935 12.2169L8.13706 21.4445L8.93974 22.0409L15.7962 12.8133L14.9935 12.2169ZM20.9611 14.2679C20.7178 14.5994 20.2582 14.6978 19.9005 14.4949L19.4072 15.3648C20.206 15.8177 21.224 15.5998 21.7672 14.8595L20.9611 14.2679ZM13.659 21.0857L7.92576 21.8889L8.0645 22.8792L13.7977 22.076L13.659 21.0857ZM8.48739 22.2964L7.51006 16.8087L6.52555 16.9841L7.50288 22.4717L8.48739 22.2964Z" fill="black"/>
</svg>
