<svg width="32" height="32" viewBox="0 0 32 32" fill="none" xmlns="http://www.w3.org/2000/svg">
<path d="M21.8461 20.3638L10.1538 20.3638M11.1538 15.9846C11.1538 16.2608 10.9299 16.4846 10.6538 16.4846C10.3777 16.4846 10.1538 16.2608 10.1538 15.9846C10.1538 15.7085 10.3777 15.4846 10.6538 15.4846C10.9299 15.4846 11.1538 15.7085 11.1538 15.9846ZM11.1538 12.3483C11.1538 12.6244 10.9299 12.8483 10.6538 12.8483C10.3777 12.8483 10.1538 12.6244 10.1538 12.3483C10.1538 12.0721 10.3777 11.8483 10.6538 11.8483C10.9299 11.8483 11.1538 12.0721 11.1538 12.3483ZM14.8076 15.9846C14.8076 16.2608 14.5838 16.4846 14.3076 16.4846C14.0315 16.4846 13.8076 16.2608 13.8076 15.9846C13.8076 15.7085 14.0315 15.4846 14.3076 15.4846C14.5838 15.4846 14.8076 15.7085 14.8076 15.9846ZM14.8076 12.3483C14.8076 12.6244 14.5838 12.8483 14.3076 12.8483C14.0315 12.8483 13.8076 12.6244 13.8076 12.3483C13.8076 12.0721 14.0315 11.8483 14.3076 11.8483C14.5838 11.8483 14.8076 12.0721 14.8076 12.3483ZM18.4614 15.9846C18.4614 16.2608 18.2376 16.4846 17.9614 16.4846C17.6853 16.4846 17.4614 16.2608 17.4614 15.9846C17.4614 15.7085 17.6853 15.4846 17.9614 15.4846C18.2376 15.4846 18.4614 15.7085 18.4614 15.9846ZM18.4614 12.3483C18.4614 12.6244 18.2376 12.8483 17.9614 12.8483C17.6853 12.8483 17.4614 12.6244 17.4614 12.3483C17.4614 12.0721 17.6853 11.8483 17.9614 11.8483C18.2376 11.8483 18.4614 12.0721 18.4614 12.3483ZM22.1152 15.9846C22.1152 16.2608 21.8914 16.4846 21.6152 16.4846C21.3391 16.4846 21.1152 16.2608 21.1152 15.9846C21.1152 15.7085 21.3391 15.4846 21.6152 15.4846C21.8914 15.4846 22.1152 15.7085 22.1152 15.9846ZM22.1152 12.3483C22.1152 12.6244 21.8914 12.8483 21.6152 12.8483C21.3391 12.8483 21.1152 12.6244 21.1152 12.3483C21.1152 12.0721 21.3391 11.8483 21.6152 11.8483C21.8914 11.8483 22.1152 12.0721 22.1152 12.3483ZM6.5 11L6.5 21C6.5 22.6569 7.84315 24 9.5 24L22.5 24C24.1569 24 25.5 22.6569 25.5 21V11C25.5 9.34317 24.1569 8.00003 22.5 8.00003L9.5 8C7.84315 8 6.5 9.34315 6.5 11Z" stroke="black" stroke-linecap="round" stroke-linejoin="round"/>
</svg>
