<svg width="32" height="32" viewBox="0 0 32 32" fill="none" xmlns="http://www.w3.org/2000/svg">
<path d="M20.9999 9.99991V10.4999V9.99991ZM15.8999 9.99991L15.4711 10.2572L15.6168 10.4999H15.8999V9.99991ZM13.9999 6.83325L14.4286 6.576L14.283 6.33325H13.9999V6.83325ZM10.0332 6.83325V6.33325V6.83325ZM23.9999 12.9997H23.4999H23.9999ZM7.03322 9.83325H6.53322H7.03322ZM8.07129 17.5968L7.58155 17.496L8.07129 17.5968ZM6.9944 22.8302L7.48413 22.9309L7.48413 22.9309L6.9944 22.8302ZM21.9695 25.2333V25.7333H21.9695L21.9695 25.2333ZM8.95335 25.2333V25.7333H8.95335L8.95335 25.2333ZM25.0054 18.403L24.5157 18.3023L25.0054 18.403ZM23.9285 23.6364L24.4182 23.7371L23.9285 23.6364ZM23.0464 15.9999V15.4999V15.9999ZM10.0302 15.9999L10.0302 16.4999L10.0302 15.9999ZM20.9999 9.49991H15.8999V10.4999H20.9999V9.49991ZM16.3286 9.74267L14.4286 6.576L13.5711 7.0905L15.4711 10.2572L16.3286 9.74267ZM13.9999 6.33325L10.0332 6.33325V7.33325L13.9999 7.33325V6.33325ZM23.4999 12.9997V15.9999H24.4999V12.9997H23.4999ZM20.9999 10.4999C22.3807 10.4999 23.4999 11.619 23.4999 12.9997H24.4999C24.4999 11.0666 22.9328 9.49991 20.9999 9.49991V10.4999ZM10.0332 6.33325C8.10022 6.33325 6.53322 7.90026 6.53322 9.83325H7.53322C7.53322 8.45254 8.65251 7.33325 10.0332 7.33325V6.33325ZM7.58155 17.496L6.50466 22.7294L7.48413 22.9309L8.56103 17.6976L7.58155 17.496ZM21.9695 24.7333L8.95335 24.7333L8.95335 25.7333L21.9695 25.7333V24.7333ZM24.5157 18.3023L23.4388 23.5356L24.4182 23.7371L25.4951 18.5038L24.5157 18.3023ZM23.0464 15.4999L10.0302 15.4999L10.0302 16.4999L23.0464 16.4999V15.4999ZM25.4951 18.5038C25.8142 16.953 24.6297 15.4999 23.0464 15.4999V16.4999C23.9964 16.4999 24.7071 17.3718 24.5157 18.3023L25.4951 18.5038ZM8.56103 17.6976C8.70451 17.0003 9.31835 16.4999 10.0302 16.4999L10.0302 15.4999C8.84375 15.4999 7.82069 16.3339 7.58155 17.496L8.56103 17.6976ZM6.50466 22.7294C6.18554 24.2802 7.37007 25.7333 8.95335 25.7333V24.7333C8.00338 24.7333 7.29266 23.8614 7.48413 22.9309L6.50466 22.7294ZM21.9695 25.7333C23.156 25.7333 24.1791 24.8993 24.4182 23.7371L23.4388 23.5356C23.2953 24.2329 22.6814 24.7333 21.9695 24.7333L21.9695 25.7333ZM6.53322 9.83325L6.53322 22.4999H7.53322L7.53322 9.83325H6.53322Z" fill="black"/>
</svg>
