<svg width="32" height="32" viewBox="0 0 32 32" fill="none" xmlns="http://www.w3.org/2000/svg">
<path d="M7 10.6625H6.5H7ZM7 22H7.5H7ZM21.3376 25V24.5V25ZM10 25V25.5V25ZM13.6683 8.16247C13.9444 8.16248 14.1683 7.93862 14.1683 7.66248C14.1683 7.38633 13.9444 7.16248 13.6683 7.16247L13.6683 8.16247ZM10 7.66246L10 8.16246L10 7.66246ZM24.8376 18.3317C24.8376 18.0556 24.6137 17.8317 24.3376 17.8317C24.0614 17.8317 23.8376 18.0556 23.8376 18.3317H24.8376ZM24.3376 22H24.8376H24.3376ZM13.9816 17.3113C13.7863 17.5066 13.7863 17.8232 13.9816 18.0185C14.1768 18.2137 14.4934 18.2137 14.6887 18.0185L13.9816 17.3113ZM24.6911 8.01601C24.8864 7.82075 24.8864 7.50416 24.6911 7.3089C24.4959 7.11364 24.1793 7.11364 23.984 7.3089L24.6911 8.01601ZM19.0038 7.16242C18.7276 7.16191 18.5034 7.38536 18.5029 7.6615C18.5024 7.93764 18.7258 8.16191 19.002 8.16241L19.0038 7.16242ZM24.3375 7.67218L24.8375 7.67218C24.8375 7.3964 24.6142 7.17269 24.3384 7.17218L24.3375 7.67218ZM23.8375 12.997C23.8375 13.2731 24.0614 13.497 24.3375 13.497C24.6137 13.497 24.8375 13.2731 24.8375 12.997L23.8375 12.997ZM6.5 10.6625L6.5 22H7.5L7.5 10.6625H6.5ZM21.3376 24.5L10 24.5V25.5L21.3376 25.5V24.5ZM13.6683 7.16247L10 7.16246L10 8.16246L13.6683 8.16247L13.6683 7.16247ZM23.8376 18.3317V22H24.8376V18.3317H23.8376ZM7.5 10.6625C7.5 9.28175 8.61929 8.16246 10 8.16246L10 7.16246C8.06701 7.16246 6.5 8.72946 6.5 10.6625H7.5ZM6.5 22C6.5 23.933 8.067 25.5 10 25.5V24.5C8.61929 24.5 7.5 23.3807 7.5 22H6.5ZM21.3376 25.5C23.2706 25.5 24.8376 23.933 24.8376 22H23.8376C23.8376 23.3807 22.7183 24.5 21.3376 24.5V25.5ZM14.6887 18.0185L24.6911 8.01601L23.984 7.3089L13.9816 17.3113L14.6887 18.0185ZM19.002 8.16241L24.3366 8.17218L24.3384 7.17218L19.0038 7.16242L19.002 8.16241ZM23.8375 7.67218L23.8375 12.997L24.8375 12.997L24.8375 7.67218L23.8375 7.67218Z" fill="black"/>
</svg>
