<svg width="32" height="32" viewBox="0 0 32 32" fill="none" xmlns="http://www.w3.org/2000/svg">
<path d="M16.7308 10.1538L16.302 10.4111L16.4477 10.6538L16.7308 10.6538L16.7308 10.1538ZM14.5385 6.5L14.9672 6.24275L14.8216 6L14.5385 6L14.5385 6.5ZM25.5 13.1538L26 13.1538L25.5 13.1538ZM25.5 22.5L25 22.5L25.5 22.5ZM6.00003 9.5L6.00003 22.5L7.00003 22.5L7.00003 9.5L6.00003 9.5ZM22.5 25L9.50002 25L9.50002 26L22.5 26L22.5 25ZM25 13.1538L25 22.5L26 22.5L26 13.1538L25 13.1538ZM22.5 9.65383L16.7308 9.65383L16.7308 10.6538L22.5 10.6538L22.5 9.65383ZM17.1595 9.89659L14.9672 6.24275L14.1097 6.75725L16.302 10.4111L17.1595 9.89659ZM14.5385 6L9.50003 6L9.50003 7L14.5385 7L14.5385 6ZM26 13.1538C26 11.2208 24.433 9.65383 22.5 9.65383L22.5 10.6538C23.8807 10.6538 25 11.7731 25 13.1538L26 13.1538ZM7.00003 9.5C7.00003 8.11929 8.11932 7 9.50003 7L9.50003 6C7.56703 6 6.00003 7.567 6.00003 9.5L7.00003 9.5ZM6.00003 22.5C6.00003 24.433 7.56703 26 9.50002 26L9.50002 25C8.11931 25 7.00003 23.8807 7.00003 22.5L6.00003 22.5ZM22.5 26C24.433 26 26 24.433 26 22.5L25 22.5C25 23.8807 23.8807 25 22.5 25L22.5 26Z" fill="black"/>
</svg>
