<svg width="32" height="32" viewBox="0 0 32 32" fill="none" xmlns="http://www.w3.org/2000/svg">
<path d="M7.97664 6.5L15.042 6.5C15.2449 6.5 15.4388 6.58301 15.5783 6.72953L24.692 16.3054C25.7911 17.4602 25.7658 19.2748 24.635 20.3989L20.3685 24.6401C19.2281 25.7738 17.3837 25.7883 16.2253 24.6728L6.7246 15.5236C6.58104 15.3853 6.5 15.1951 6.5 14.9964L6.5 7.96788C6.5 7.15719 7.16111 6.5 7.97664 6.5Z" stroke="black"/>
<path d="M13.1449 11.2706C13.1449 10.2572 12.3185 9.43575 11.2991 9.43575C10.2797 9.43575 9.45328 10.2572 9.45328 11.2706C9.45328 12.284 10.2797 13.1055 11.2991 13.1055C12.3185 13.1055 13.1449 12.284 13.1449 11.2706Z" stroke="black"/>
</svg>
