<svg width="32" height="32" viewBox="0 0 32 32" fill="none" xmlns="http://www.w3.org/2000/svg">
<path d="M25 16C25 20.9706 20.9706 25 16 25V26C21.5228 26 26 21.5228 26 16H25ZM16 25C11.0294 25 7 20.9706 7 16H6C6 21.5228 10.4772 26 16 26V25ZM7 16C7 11.0294 11.0294 7 16 7V6C10.4772 6 6 10.4772 6 16H7ZM16 7C20.9706 7 25 11.0294 25 16H26C26 10.4772 21.5228 6 16 6V7Z" fill="black"/>
<path d="M20.0528 12.6998C20.2481 12.5045 20.2481 12.1879 20.0528 11.9926C19.8576 11.7974 19.541 11.7974 19.3457 11.9926L20.0528 12.6998ZM11.9472 19.3912C11.7519 19.5865 11.7519 19.9031 11.9472 20.0983C12.1424 20.2936 12.459 20.2936 12.6543 20.0983L11.9472 19.3912ZM19.3457 20.0983C19.541 20.2936 19.8576 20.2936 20.0528 20.0983C20.2481 19.903 20.2481 19.5865 20.0528 19.3912L19.3457 20.0983ZM12.6543 11.9926C12.459 11.7974 12.1424 11.7974 11.9472 11.9926C11.7519 12.1879 11.7519 12.5045 11.9472 12.6997L12.6543 11.9926ZM19.3457 11.9926L15.6465 15.6919L16.3536 16.399L20.0528 12.6998L19.3457 11.9926ZM15.6465 15.6919L11.9472 19.3912L12.6543 20.0983L16.3536 16.399L15.6465 15.6919ZM20.0528 19.3912L16.3536 15.6919L15.6465 16.399L19.3457 20.0983L20.0528 19.3912ZM16.3536 15.6919L12.6543 11.9926L11.9472 12.6997L15.6465 16.399L16.3536 15.6919Z" fill="black"/>
</svg>
