<svg width="32" height="32" viewBox="0 0 32 32" fill="none" xmlns="http://www.w3.org/2000/svg">
<path d="M21.1154 25.5L17.0962 21.4808M25.5 21.8462L21.1154 17.4615L17.0962 21.4808M17.0962 21.4808L10.8846 15.2692L7.23077 18.9231L6.5 19.6538M6.5 19.6538L6.5 9.42308C6.5 7.8087 7.80871 6.5 9.42308 6.5L22.5769 6.50003C24.1913 6.50003 25.5 7.80874 25.5 9.42311L25.5 22.5769C25.5 24.1913 24.1913 25.5 22.5769 25.5L9.42308 25.5C7.80871 25.5 6.5 24.1913 6.5 22.5769L6.5 19.6538ZM22.5769 11.6154C22.5769 12.8262 21.5954 13.8077 20.3846 13.8077C19.1738 13.8077 18.1923 12.8262 18.1923 11.6154C18.1923 10.4046 19.1738 9.42307 20.3846 9.42307C21.5954 9.42307 22.5769 10.4046 22.5769 11.6154Z" stroke="black" stroke-linecap="round" stroke-linejoin="round"/>
</svg>
