<svg width="32" height="32" viewBox="0 0 32 32" fill="none" xmlns="http://www.w3.org/2000/svg">
<path d="M15.4999 19C15.4999 19.2761 15.7237 19.5 15.9999 19.5C16.276 19.5 16.4999 19.2761 16.4999 19H15.4999ZM15.9999 4L16.3324 3.62662C16.1429 3.45779 15.8569 3.45779 15.6673 3.62662L15.9999 4ZM11.6252 7.22662C11.419 7.41028 11.4007 7.72633 11.5844 7.93254C11.768 8.13876 12.0841 8.15704 12.2903 7.97338L11.6252 7.22662ZM19.7094 7.97338C19.9157 8.15704 20.2317 8.13876 20.4154 7.93254C20.599 7.72633 20.5807 7.41028 20.3745 7.22662L19.7094 7.97338ZM12.1599 11.5C12.436 11.5 12.6599 11.2761 12.6599 11C12.6599 10.7239 12.436 10.5 12.1599 10.5V11.5ZM19.8399 10.5C19.5638 10.5 19.3399 10.7239 19.3399 11C19.3399 11.2761 19.5638 11.5 19.8399 11.5V10.5ZM16.4999 19V4H15.4999V19H16.4999ZM12.2903 7.97338L16.3324 4.37338L15.6673 3.62662L11.6252 7.22662L12.2903 7.97338ZM15.6673 4.37338L19.7094 7.97338L20.3745 7.22662L16.3324 3.62662L15.6673 4.37338ZM25.0999 13.4V25.6H26.0999V13.4H25.0999ZM23.1999 27.5H8.7999V28.5H23.1999V27.5ZM6.8999 25.6V13.4H5.8999V25.6H6.8999ZM8.7999 11.5H12.1599V10.5H8.7999V11.5ZM19.8399 11.5H23.1999V10.5H19.8399V11.5ZM8.7999 27.5C7.75056 27.5 6.8999 26.6493 6.8999 25.6H5.8999C5.8999 27.2016 7.19828 28.5 8.7999 28.5V27.5ZM25.0999 25.6C25.0999 26.6493 24.2492 27.5 23.1999 27.5V28.5C24.8015 28.5 26.0999 27.2016 26.0999 25.6H25.0999ZM26.0999 13.4C26.0999 11.7984 24.8015 10.5 23.1999 10.5V11.5C24.2492 11.5 25.0999 12.3507 25.0999 13.4H26.0999ZM6.8999 13.4C6.8999 12.3507 7.75056 11.5 8.7999 11.5V10.5C7.19828 10.5 5.8999 11.7984 5.8999 13.4H6.8999Z" fill="black"/>
</svg>
