<svg width="32" height="32" viewBox="0 0 32 32" fill="none" xmlns="http://www.w3.org/2000/svg">
<path d="M8.54892 7.27697C8.3451 7.46328 8.33091 7.77955 8.51723 7.98337C8.70354 8.18718 9.0198 8.20138 9.22362 8.01506L8.54892 7.27697ZM22.3376 25.6186C22.5632 25.4593 22.617 25.1474 22.4578 24.9218C22.2985 24.6962 21.9866 24.6424 21.761 24.8016L22.3376 25.6186ZM25.1544 17.5238C24.9887 17.3029 24.6753 17.2581 24.4544 17.4238C24.2335 17.5895 24.1887 17.9029 24.3544 18.1238L25.1544 17.5238ZM26.7544 20.4905L26.3544 20.7905C26.4488 20.9164 26.597 20.9905 26.7544 20.9905C26.9118 20.9905 27.06 20.9164 27.1544 20.7905L26.7544 20.4905ZM29.1544 18.1238C29.3201 17.9029 29.2753 17.5895 29.0544 17.4238C28.8335 17.2581 28.5201 17.3029 28.3544 17.5238L29.1544 18.1238ZM6.84561 16.0067C7.01129 16.2276 7.32469 16.2723 7.54561 16.1067C7.76652 15.941 7.81129 15.6276 7.64561 15.4067L6.84561 16.0067ZM5.24561 13.04L5.64561 12.74C5.55118 12.6141 5.40298 12.54 5.24561 12.54C5.08823 12.54 4.94003 12.6141 4.84561 12.74L5.24561 13.04ZM2.84561 15.4067C2.67992 15.6276 2.72469 15.941 2.94561 16.1067C3.16652 16.2723 3.47992 16.2276 3.64561 16.0067L2.84561 15.4067ZM9.33352 20.9771C9.30991 21.2523 9.5138 21.4945 9.78893 21.5181C10.0641 21.5417 10.3062 21.3378 10.3299 21.0627L9.33352 20.9771ZM21.6697 21.0627C21.6933 21.3378 21.9355 21.5417 22.2106 21.5181C22.4857 21.4945 22.6896 21.2523 22.666 20.9771L21.6697 21.0627ZM21.6784 19.293L21.2223 19.4978L21.6784 19.293ZM10.3211 19.293L9.865 19.0881L10.3211 19.293ZM15.9999 26.638C10.3529 26.638 5.7454 21.8917 5.7454 15.9997H4.7454C4.7454 22.4107 9.76783 27.638 15.9999 27.638V26.638ZM15.9999 5.36145C21.6469 5.36145 26.2544 10.1077 26.2544 15.9997H27.2544C27.2544 9.58875 22.232 4.36145 15.9999 4.36145V5.36145ZM9.22362 8.01506C11.0325 6.36153 13.4042 5.36145 15.9999 5.36145V4.36145C13.1407 4.36145 10.5317 5.46447 8.54892 7.27697L9.22362 8.01506ZM21.761 24.8016C20.118 25.9613 18.1353 26.638 15.9999 26.638V27.638C18.3508 27.638 20.5335 26.8921 22.3376 25.6186L21.761 24.8016ZM26.2544 15.9997V19.9785H27.2544V15.9997H26.2544ZM5.7454 15.9997V13.4926H4.7454V15.9997H5.7454ZM24.3544 18.1238L26.3544 20.7905L27.1544 20.1905L25.1544 17.5238L24.3544 18.1238ZM27.1544 20.7905L29.1544 18.1238L28.3544 17.5238L26.3544 20.1905L27.1544 20.7905ZM7.64561 15.4067L5.64561 12.74L4.84561 13.34L6.84561 16.0067L7.64561 15.4067ZM4.84561 12.74L2.84561 15.4067L3.64561 16.0067L5.64561 13.34L4.84561 12.74ZM18.5863 13.1556C18.5863 14.5841 17.4283 15.7422 15.9998 15.7422V16.7422C17.9806 16.7422 19.5863 15.1364 19.5863 13.1556H18.5863ZM15.9998 15.7422C14.5713 15.7422 13.4132 14.5841 13.4132 13.1556H12.4132C12.4132 15.1364 14.019 16.7422 15.9998 16.7422V15.7422ZM13.4132 13.1556C13.4132 11.7271 14.5713 10.5691 15.9998 10.5691V9.56909C14.019 9.56909 12.4132 11.1748 12.4132 13.1556H13.4132ZM15.9998 10.5691C17.4283 10.5691 18.5863 11.7271 18.5863 13.1556H19.5863C19.5863 11.1748 17.9806 9.56909 15.9998 9.56909V10.5691ZM21.2223 19.4978C21.4312 19.9631 21.6233 20.5229 21.6697 21.0627L22.666 20.9771C22.6061 20.2794 22.3658 19.6032 22.1345 19.0881L21.2223 19.4978ZM10.3299 21.0627C10.3762 20.5229 10.5683 19.9631 10.7772 19.4978L9.865 19.0881C9.6337 19.6032 9.39341 20.2794 9.33352 20.9771L10.3299 21.0627ZM20.0148 17.7999H11.9847V18.7999H20.0148V17.7999ZM10.7772 19.4978C10.9693 19.07 11.4331 18.7999 11.9847 18.7999V17.7999C11.1253 17.7999 10.2509 18.2287 9.865 19.0881L10.7772 19.4978ZM22.1345 19.0881C21.7486 18.2287 20.8742 17.7999 20.0148 17.7999V18.7999C20.5665 18.7999 21.0302 19.07 21.2223 19.4978L22.1345 19.0881Z" fill="black"/>
</svg>
