<svg width="32" height="32" viewBox="0 0 32 32" fill="none" xmlns="http://www.w3.org/2000/svg">
<path d="M15.996 21.9615C15.6019 21.9615 15.1471 22.1565 14.7226 22.3888C14.275 22.6337 13.7722 22.9715 13.2564 23.3517C12.2232 24.1133 11.0955 25.0762 10.1806 25.8921C9.83757 26.198 9.42651 26.2753 9.09394 26.1887C8.77026 26.1045 8.49475 25.8607 8.40035 25.4423C7.97087 23.5389 7.5 20.4398 7.5 16C7.5 11.6356 8.01156 8.7263 8.45258 7.02889C8.73407 5.94545 9.62645 5.17404 10.7655 4.97228C12.0819 4.73909 13.9352 4.5 15.996 4.5C18.0291 4.5 19.8602 4.73271 21.1732 4.9629C22.3414 5.16771 23.2621 5.96533 23.5602 7.08127C24.0315 8.84554 24.5722 11.8148 24.492 15.9904C24.4033 20.6131 23.6468 23.775 23.0113 25.6422C22.8803 26.027 22.5991 26.2286 22.2844 26.278C21.9591 26.329 21.5701 26.2191 21.2607 25.9017C20.4655 25.0856 19.48 24.1234 18.5583 23.362C18.0982 22.9819 17.6429 22.6425 17.2272 22.3955C16.8322 22.1608 16.3961 21.9615 15.996 21.9615Z" stroke="black" stroke-linecap="round" stroke-linejoin="round"/>
</svg>
