<svg width="32" height="32" viewBox="0 0 32 32" fill="none" xmlns="http://www.w3.org/2000/svg">
<path d="M23.5 25.5V26V25.5ZM8.5 25.5V26V25.5ZM25.5 12.8333H26C26 12.6661 25.9164 12.51 25.7773 12.4173L25.5 12.8333ZM25.5 23.5H26H25.5ZM6.5 12.8333L6.22265 12.4173C6.08355 12.51 6 12.6662 6 12.8333H6.5ZM6.5 23.5H7H6.5ZM14.8906 7.23959L14.6132 6.82356V6.82356L14.8906 7.23959ZM17.1094 7.23959L17.3868 6.82356L17.3868 6.82356L17.1094 7.23959ZM13.5442 18.3122L13.8512 17.9175H13.8512L13.5442 18.3122ZM18.4558 18.3122L18.1488 17.9175L18.4558 18.3122ZM23.5 25H8.5V26H23.5V25ZM25 12.8333V23.5H26V12.8333H25ZM6 12.8333L6 23.5H7L7 12.8333H6ZM8.5 25C7.67157 25 7 24.3284 7 23.5H6C6 24.8807 7.11929 26 8.5 26V25ZM23.5 26C24.8807 26 26 24.8807 26 23.5H25C25 24.3284 24.3284 25 23.5 25V26ZM6.77735 13.2494L15.168 7.65561L14.6132 6.82356L6.22265 12.4173L6.77735 13.2494ZM16.8321 7.65561L25.2227 13.2493L25.7773 12.4173L17.3868 6.82356L16.8321 7.65561ZM15.168 7.65561C15.6718 7.31971 16.3282 7.31971 16.8321 7.65561L17.3868 6.82356C16.547 6.26373 15.453 6.26373 14.6132 6.82356L15.168 7.65561ZM13.8512 17.9175L6.80697 12.4387L6.19303 13.228L13.2373 18.7068L13.8512 17.9175ZM18.7627 18.7068L25.807 13.228L25.193 12.4386L18.1488 17.9175L18.7627 18.7068ZM13.2373 18.7068C14.8623 19.9707 17.1377 19.9707 18.7627 18.7068L18.1488 17.9175C16.8849 18.9005 15.1151 18.9005 13.8512 17.9175L13.2373 18.7068Z" fill="black"/>
</svg>
