<svg width="32" height="32" viewBox="0 0 32 32" fill="none" xmlns="http://www.w3.org/2000/svg">
<path d="M13.0768 23.0186L13.0992 6.5L18.1958 8.53597C18.9115 8.82188 19.7097 8.82138 20.4251 8.53459L23.4417 7.32517C24.4272 6.93008 25.4999 7.65574 25.4999 8.71744V22.3417C25.4999 22.7506 25.251 23.1182 24.8715 23.2701L20.4122 25.0547C19.6978 25.3406 18.901 25.3411 18.1863 25.0561L13.0768 23.0186ZM13.0768 23.0186V6.5L7.80367 8.49307C7.0261 8.78697 6.51138 9.5312 6.51078 10.3625L6.50147 23.3292C6.50071 24.3782 7.54945 25.104 8.53096 24.7337L13.0768 23.0186ZM18.923 9.42308V24.7692" stroke="black" stroke-linecap="round"/>
</svg>
