<svg width="32" height="32" viewBox="0 0 32 32" fill="none" xmlns="http://www.w3.org/2000/svg">
<path d="M14.1885 5.01034V9.79128C14.1885 10.9688 13.259 11.9241 12.1113 11.9241H7.0252M21.5382 27H10.4618C8.55016 27 7 25.4083 7 23.4453V12.3021C7 11.5166 7.3168 10.7658 7.8748 10.2283L12.4202 5.76926C12.9335 5.27463 13.611 5 14.3145 5H21.5382C23.4498 5 25 6.59168 25 8.5547V23.4453C25 25.4083 23.4506 27 21.5382 27Z" stroke="black" stroke-linejoin="round"/>
<path d="M10 19.3252C10.3221 19.6911 10.7497 20 11.3 20C11.7214 20 12.3834 19.7306 12.3834 18.7878V16.0654H11.6862M14.5434 19.9346V16M14.5434 18.1234H16.1159C17.0076 18.1234 17.3938 17.5645 17.3938 17.062C17.3938 16.5595 17.0076 16.0006 16.1159 16.0006H14.5434M22 16.3736C21.6972 16.1405 21.3862 16 20.8379 16C19.6572 16 18.7903 16.849 18.7903 17.9673C18.7903 19.0856 19.6566 19.9346 20.8379 19.9346C21.3855 19.9346 21.6966 19.7941 22 19.561V18.1758H21.4034" stroke="black" stroke-linecap="round" stroke-linejoin="round"/>
</svg>
