<svg width="32" height="32" viewBox="0 0 32 32" fill="none" xmlns="http://www.w3.org/2000/svg">
<path d="M14.1885 5.01034V9.79128C14.1885 10.9688 13.259 11.9241 12.1113 11.9241H7.0252M21.5382 27H10.4618C8.55016 27 7 25.4083 7 23.4453V12.3021C7 11.5166 7.3168 10.7658 7.8748 10.2283L12.4202 5.76926C12.9335 5.27463 13.611 5 14.3145 5H21.5382C23.4498 5 25 6.59168 25 8.5547V23.4453C25 25.4083 23.4506 27 21.5382 27Z" stroke="black" stroke-linejoin="round"/>
<path d="M20.821 15.938V18.9904H22.6886M19.3012 18.9904V15.938L17.8201 17.9191L16.3391 15.938V18.9904M9.28857 15.938V18.9904M9.28857 17.4H11.5722M11.5722 15.938V18.9904M13.8855 18.9904V16.0071M14.9906 15.938H12.7803" stroke="black" stroke-linecap="round" stroke-linejoin="round"/>
</svg>
