<svg width="32" height="32" viewBox="0 0 32 32" fill="none" xmlns="http://www.w3.org/2000/svg">
<path d="M8.45631 13.096L8.67013 13.548L8.45631 13.096ZM8.45631 18.9041L8.24249 19.356H8.24249L8.45631 18.9041ZM20.4058 8.52243L20.1322 8.10389V8.10389L20.4058 8.52243ZM20.4058 23.4776L20.6793 23.0591L20.4058 23.4776ZM9.86682 23.5598L10.3635 23.5023L9.86682 23.5598ZM8 17.3937V14.6063H7V17.3937H8ZM9.17083 13.4355H13.356V12.4355H9.17083V13.4355ZM13.356 18.5646H9.17083V19.5646H13.356V18.5646ZM8.67013 13.548C8.82666 13.4739 8.99767 13.4355 9.17083 13.4355V12.4355C8.84977 12.4355 8.53271 12.5067 8.24249 12.644L8.67013 13.548ZM7 17.3937C7 18.233 7.48381 18.9971 8.24249 19.356L8.67013 18.4521C8.26094 18.2585 8 17.8464 8 17.3937H7ZM9.17083 18.5646C8.99767 18.5646 8.82666 18.5261 8.67013 18.4521L8.24249 19.356C8.53271 19.4933 8.84977 19.5646 9.17083 19.5646V18.5646ZM8 14.6063C8 14.1537 8.26094 13.7416 8.67013 13.548L8.24249 12.644C7.48381 13.003 7 13.7671 7 14.6063H8ZM14.1767 13.1911L20.6793 8.94096L20.1322 8.10389L13.6296 12.3541L14.1767 13.1911ZM23 10.1966V21.8035H24V10.1966H23ZM20.6793 23.0591L14.1767 18.809L13.6296 19.646L20.1322 23.8962L20.6793 23.0591ZM23 21.8035C23 22.9954 21.677 23.7112 20.6793 23.0591L20.1322 23.8962C21.795 24.983 24 23.79 24 21.8035H23ZM20.6793 8.94096C21.677 8.28888 23 9.00468 23 10.1966H24C24 8.2101 21.795 7.01709 20.1322 8.10389L20.6793 8.94096ZM12.5385 19.0646V23.3767H13.5385V19.0646H12.5385ZM10.3635 23.5023L9.84283 19.0071L8.84947 19.1221L9.37014 23.6173L10.3635 23.5023ZM11.4474 24.4678C10.8933 24.4678 10.4272 24.0526 10.3635 23.5023L9.37014 23.6173C9.49231 24.6721 10.3856 25.4678 11.4474 25.4678V24.4678ZM12.5385 23.3767C12.5385 23.9793 12.05 24.4678 11.4474 24.4678V25.4678C12.6022 25.4678 13.5385 24.5316 13.5385 23.3767H12.5385ZM13.356 19.5646C13.4532 19.5646 13.5483 19.5929 13.6296 19.646L14.1767 18.809C13.9327 18.6495 13.6475 18.5646 13.356 18.5646V19.5646ZM13.356 13.4355C13.6475 13.4355 13.9327 13.3506 14.1767 13.1911L13.6296 12.3541C13.5483 12.4072 13.4532 12.4355 13.356 12.4355V13.4355Z" fill="black"/>
</svg>
