<svg width="32" height="32" viewBox="0 0 32 32" fill="none" xmlns="http://www.w3.org/2000/svg">
<path d="M7.8748 10.2283L8.22167 10.5885L8.22495 10.5852L7.8748 10.2283ZM12.4202 5.76926L12.0732 5.40919L12.07 5.41234L12.4202 5.76926ZM21.5382 26.5H10.4618V27.5H21.5382V26.5ZM10.4618 26.5C8.8387 26.5 7.5 25.1447 7.5 23.4453H6.5C6.5 25.6719 8.26162 27.5 10.4618 27.5V26.5ZM7.5 23.4453V12.3021H6.5V23.4453H7.5ZM7.5 12.3021C7.5 11.6504 7.763 11.0302 8.22166 10.5884L7.52794 9.8682C6.8706 10.5013 6.5 11.3828 6.5 12.3021H7.5ZM8.22495 10.5852L12.7703 6.12619L12.07 5.41234L7.52465 9.8714L8.22495 10.5852ZM12.7671 6.12932C13.1884 5.72339 13.742 5.5 14.3145 5.5V4.5C13.4801 4.5 12.6786 4.82588 12.0732 5.4092L12.7671 6.12932ZM14.3145 5.5H21.5382V4.5H14.3145V5.5ZM21.5382 5.5C23.1613 5.5 24.5 6.85526 24.5 8.5547H25.5C25.5 6.3281 23.7384 4.5 21.5382 4.5V5.5ZM24.5 8.5547V23.4453H25.5V8.5547H24.5ZM24.5 23.4453C24.5 25.1448 23.162 26.5 21.5382 26.5V27.5C23.7392 27.5 25.5 25.6718 25.5 23.4453H24.5ZM13.6885 5.01034V9.79128H14.6885V5.01034H13.6885ZM13.6885 9.79128C13.6885 10.7053 12.9703 11.4241 12.1113 11.4241V12.4241C13.5476 12.4241 14.6885 11.2323 14.6885 9.79128H13.6885ZM12.1113 11.4241H7.0252V12.4241H12.1113V11.4241Z" fill="black"/>
<path d="M13.5679 16.318C13.7435 16.1049 13.7131 15.7898 13.5001 15.6142C13.287 15.4385 12.9718 15.4689 12.7962 15.682L13.5679 16.318ZM9.61417 19.5426C9.43853 19.7557 9.4689 20.0708 9.68199 20.2465C9.89508 20.4221 10.2102 20.3917 10.3858 20.1787L9.61417 19.5426ZM10.3858 15.682C10.2102 15.4689 9.89508 15.4385 9.68199 15.6142C9.4689 15.7898 9.43853 16.1049 9.61417 16.318L10.3858 15.682ZM12.7962 20.1787C12.9718 20.3917 13.287 20.4221 13.5001 20.2465C13.7131 20.0708 13.7435 19.7557 13.5679 19.5426L12.7962 20.1787ZM19.903 16C19.903 15.7239 19.6791 15.5 19.403 15.5C19.1268 15.5 18.903 15.7239 18.903 16H19.903ZM19.403 20H18.903C18.903 20.2761 19.1268 20.5 19.403 20.5V20ZM22 20.5C22.2761 20.5 22.5 20.2761 22.5 20C22.5 19.7239 22.2761 19.5 22 19.5V20.5ZM15.6736 16C15.6736 15.7239 15.4498 15.5 15.1736 15.5C14.8975 15.5 14.6736 15.7239 14.6736 16H15.6736ZM15.1736 20H14.6736C14.6736 20.2761 14.8975 20.5 15.1736 20.5V20ZM17.77 20.5C18.0461 20.5 18.27 20.2761 18.27 20C18.27 19.7239 18.0461 19.5 17.77 19.5V20.5ZM12.7962 15.682L9.61417 19.5426L10.3858 20.1787L13.5679 16.318L12.7962 15.682ZM9.61417 16.318L12.7962 20.1787L13.5679 19.5426L10.3858 15.682L9.61417 16.318ZM18.903 16V20H19.903V16H18.903ZM19.403 20.5H22V19.5H19.403V20.5ZM14.6736 16V20H15.6736V16H14.6736ZM15.1736 20.5H17.77V19.5H15.1736V20.5Z" fill="black"/>
</svg>
