<svg width="32" height="32" viewBox="0 0 32 32" fill="none" xmlns="http://www.w3.org/2000/svg">
<path d="M7.8748 10.2283L8.22167 10.5885L8.22495 10.5852L7.8748 10.2283ZM12.4202 5.76926L12.0732 5.40919L12.07 5.41234L12.4202 5.76926ZM21.5382 26.5H10.4618V27.5H21.5382V26.5ZM10.4618 26.5C8.8387 26.5 7.5 25.1447 7.5 23.4453H6.5C6.5 25.6719 8.26162 27.5 10.4618 27.5V26.5ZM7.5 23.4453V12.3021H6.5V23.4453H7.5ZM7.5 12.3021C7.5 11.6504 7.763 11.0302 8.22166 10.5884L7.52794 9.8682C6.8706 10.5013 6.5 11.3828 6.5 12.3021H7.5ZM8.22495 10.5852L12.7703 6.12619L12.07 5.41234L7.52465 9.8714L8.22495 10.5852ZM12.7671 6.12932C13.1884 5.72339 13.742 5.5 14.3145 5.5V4.5C13.4801 4.5 12.6786 4.82588 12.0732 5.4092L12.7671 6.12932ZM14.3145 5.5H21.5382V4.5H14.3145V5.5ZM21.5382 5.5C23.1613 5.5 24.5 6.85526 24.5 8.5547H25.5C25.5 6.3281 23.7384 4.5 21.5382 4.5V5.5ZM24.5 8.5547V23.4453H25.5V8.5547H24.5ZM24.5 23.4453C24.5 25.1448 23.162 26.5 21.5382 26.5V27.5C23.7392 27.5 25.5 25.6718 25.5 23.4453H24.5ZM13.6885 5.01034V9.79128H14.6885V5.01034H13.6885ZM13.6885 9.79128C13.6885 10.7053 12.9703 11.4241 12.1113 11.4241V12.4241C13.5476 12.4241 14.6885 11.2323 14.6885 9.79128H13.6885ZM12.1113 11.4241H7.0252V12.4241H12.1113V11.4241Z" fill="black"/>
<path d="M15.1673 20C15.1673 20.2761 15.3912 20.5 15.6673 20.5C15.9435 20.5 16.1673 20.2761 16.1673 20H15.1673ZM15.6673 16V15.5C15.3912 15.5 15.1673 15.7239 15.1673 16H15.6673ZM15.6673 17.6586C15.3912 17.6586 15.1673 17.8825 15.1673 18.1586C15.1673 18.4348 15.3912 18.6586 15.6673 18.6586V17.6586ZM13.3007 20C13.3007 20.2761 13.5245 20.5 13.8007 20.5C14.0768 20.5 14.3007 20.2761 14.3007 20H13.3007ZM13.8007 16H14.3007C14.3007 15.7837 14.1616 15.592 13.956 15.5248C13.7505 15.4575 13.525 15.5301 13.3972 15.7046L13.8007 16ZM11.9 18.5959L11.4965 18.8912C11.5907 19.0199 11.7405 19.0959 11.9 19.0959C12.0594 19.0959 12.2092 19.0199 12.3034 18.8913L11.9 18.5959ZM10 16L10.4035 15.7047C10.2757 15.5302 10.0502 15.4575 9.84466 15.5247C9.63907 15.5919 9.5 15.7837 9.5 16H10ZM9.5 20C9.5 20.2761 9.72386 20.5 10 20.5C10.2761 20.5 10.5 20.2761 10.5 20H9.5ZM20.882 20C20.882 20.2761 21.1059 20.5 21.382 20.5C21.6581 20.5 21.882 20.2761 21.882 20H20.882ZM21.382 16H21.882C21.882 15.7874 21.7475 15.598 21.5468 15.5279C21.346 15.4579 21.1229 15.5224 20.9906 15.6889L21.382 16ZM19.114 18.8529L18.7226 18.5417C18.6032 18.692 18.5803 18.8973 18.6637 19.0702C18.7471 19.243 18.9221 19.3529 19.114 19.3529V18.8529ZM22 19.3529C22.2761 19.3529 22.5 19.129 22.5 18.8529C22.5 18.5767 22.2761 18.3529 22 18.3529V19.3529ZM16.1673 20V16H15.1673V20H16.1673ZM15.6673 18.6586H17.138V17.6586H15.6673V18.6586ZM17.138 18.6586C17.6762 18.6586 18.1122 18.4712 18.4118 18.1541C18.7037 17.8452 18.8333 17.448 18.8333 17.0793H17.8333C17.8333 17.2219 17.7823 17.3643 17.685 17.4673C17.5955 17.562 17.4338 17.6586 17.138 17.6586V18.6586ZM18.8333 17.0793C18.8333 16.7107 18.7037 16.3135 18.4118 16.0046C18.1122 15.6874 17.6762 15.5 17.138 15.5V16.5C17.4338 16.5 17.5955 16.5966 17.685 16.6914C17.7823 16.7943 17.8333 16.9368 17.8333 17.0793H18.8333ZM17.138 15.5H15.6673V16.5H17.138V15.5ZM14.3007 20V16H13.3007V20H14.3007ZM13.3972 15.7046L11.4966 18.3006L12.3034 18.8913L14.2041 16.2954L13.3972 15.7046ZM12.3035 18.3006L10.4035 15.7047L9.59652 16.2953L11.4965 18.8912L12.3035 18.3006ZM9.5 16V20H10.5V16H9.5ZM21.882 20V16H20.882V20H21.882ZM20.9906 15.6889L18.7226 18.5417L19.5054 19.164L21.7734 16.3111L20.9906 15.6889ZM19.114 19.3529H22V18.3529H19.114V19.3529Z" fill="black"/>
</svg>
