<svg width="32" height="32" viewBox="0 0 32 32" fill="none" xmlns="http://www.w3.org/2000/svg">
<path d="M14.1885 5.01034V9.79128C14.1885 10.9688 13.259 11.9241 12.1113 11.9241H7.0252M21.5382 27H10.4618C8.55016 27 7 25.4083 7 23.4453V12.3021C7 11.5166 7.3168 10.7658 7.8748 10.2283L12.4202 5.76926C12.9335 5.27463 13.611 5 14.3145 5H21.5382C23.4498 5 25 6.59168 25 8.5547V23.4453C25 25.4083 23.4506 27 21.5382 27Z" stroke="black" stroke-linejoin="round"/>
<path d="M18.4335 20.4V16M18.4335 18.4509H20.1249C21.0841 18.4509 21.5 17.8061 21.5 17.2258C21.5 16.6456 21.0841 16.0007 20.1249 16.0007H18.4335M15.9308 16V20.4M10.6425 16.0007L13.5222 16L10.5 20.323H13.5713" stroke="black" stroke-linecap="round" stroke-linejoin="round"/>
</svg>
