<svg width="32" height="32" viewBox="0 0 32 32" fill="none" xmlns="http://www.w3.org/2000/svg">
<path d="M23.8153 13.8077C23.8153 13.5315 23.5915 13.3077 23.3153 13.3077C23.0392 13.3077 22.8153 13.5315 22.8153 13.8077H23.8153ZM9.19995 13.8077C9.19995 13.5315 8.97609 13.3077 8.69995 13.3077C8.42381 13.3077 8.19995 13.5315 8.19995 13.8077H9.19995ZM16.5076 23.3077C16.5076 23.0315 16.2838 22.8077 16.0076 22.8077C15.7315 22.8077 15.5076 23.0315 15.5076 23.3077H16.5076ZM18.9307 26C19.2069 26 19.4307 25.7761 19.4307 25.5C19.4307 25.2239 19.2069 25 18.9307 25V26ZM13.0846 25C12.8084 25 12.5846 25.2239 12.5846 25.5C12.5846 25.7761 12.8084 26 13.0846 26V25ZM19.8923 10.8846V15.2692H20.8923V10.8846H19.8923ZM12.123 15.2692V10.8846H11.123V15.2692H12.123ZM16.0076 19.1538C13.8622 19.1538 12.123 17.4146 12.123 15.2692H11.123C11.123 17.9669 13.3099 20.1538 16.0076 20.1538V19.1538ZM19.8923 15.2692C19.8923 17.4146 18.1531 19.1538 16.0076 19.1538V20.1538C18.7053 20.1538 20.8923 17.9669 20.8923 15.2692H19.8923ZM16.0076 7C18.1531 7 19.8923 8.7392 19.8923 10.8846H20.8923C20.8923 8.18692 18.7053 6 16.0076 6V7ZM16.0076 6C13.3099 6 11.123 8.18692 11.123 10.8846H12.123C12.123 8.7392 13.8622 7 16.0076 7V6ZM22.8153 13.8077V15.2692H23.8153V13.8077H22.8153ZM9.19995 15.2692V13.8077H8.19995V15.2692H9.19995ZM16.0076 22.0769C12.2479 22.0769 9.19995 19.029 9.19995 15.2692H8.19995C8.19995 19.5813 11.6956 23.0769 16.0076 23.0769V22.0769ZM22.8153 15.2692C22.8153 19.029 19.7674 22.0769 16.0076 22.0769V23.0769C20.3197 23.0769 23.8153 19.5813 23.8153 15.2692H22.8153ZM15.5076 23.3077V25.5H16.5076V23.3077H15.5076ZM16.0076 26H18.9307V25H16.0076V26ZM16.0076 25H13.0846V26H16.0076V25Z" fill="black"/>
</svg>
