<svg width="32" height="32" viewBox="0 0 32 32" fill="none" xmlns="http://www.w3.org/2000/svg">
<path d="M13.0385 19.0646V23.3767C13.0385 24.2555 12.3261 24.9678 11.4474 24.9678C10.6394 24.9678 9.95978 24.3624 9.86682 23.5598L9.34615 19.0646M7.5 17.3937V14.6063C7.5 13.9604 7.87238 13.3723 8.45631 13.096C8.67968 12.9903 8.92372 12.9355 9.17083 12.9355H13.356C13.5504 12.9355 13.7405 12.8789 13.9031 12.7726L20.4058 8.52243C21.736 7.65298 23.5 8.60739 23.5 10.1966V21.8035C23.5 23.3927 21.736 24.3471 20.4058 23.4776L13.9031 19.2275C13.7405 19.1212 13.5504 19.0646 13.356 19.0646H9.17083C8.92372 19.0646 8.67968 19.0097 8.45631 18.9041C7.87238 18.6278 7.5 18.0397 7.5 17.3937Z" stroke="black"/>
</svg>
