<svg width="32" height="32" viewBox="0 0 32 32" fill="none" xmlns="http://www.w3.org/2000/svg">
<path d="M7.8748 10.2283L8.22167 10.5885L8.22495 10.5852L7.8748 10.2283ZM12.4202 5.76926L12.0732 5.40919L12.07 5.41234L12.4202 5.76926ZM21.5382 26.5H10.4618V27.5H21.5382V26.5ZM10.4618 26.5C8.8387 26.5 7.5 25.1447 7.5 23.4453H6.5C6.5 25.6719 8.26162 27.5 10.4618 27.5V26.5ZM7.5 23.4453V12.3021H6.5V23.4453H7.5ZM7.5 12.3021C7.5 11.6504 7.763 11.0302 8.22166 10.5884L7.52794 9.8682C6.8706 10.5013 6.5 11.3828 6.5 12.3021H7.5ZM8.22495 10.5852L12.7703 6.12619L12.07 5.41234L7.52465 9.8714L8.22495 10.5852ZM12.7671 6.12932C13.1884 5.72339 13.742 5.5 14.3145 5.5V4.5C13.4801 4.5 12.6786 4.82588 12.0732 5.4092L12.7671 6.12932ZM14.3145 5.5H21.5382V4.5H14.3145V5.5ZM21.5382 5.5C23.1613 5.5 24.5 6.85526 24.5 8.5547H25.5C25.5 6.3281 23.7384 4.5 21.5382 4.5V5.5ZM24.5 8.5547V23.4453H25.5V8.5547H24.5ZM24.5 23.4453C24.5 25.1448 23.162 26.5 21.5382 26.5V27.5C23.7392 27.5 25.5 25.6718 25.5 23.4453H24.5ZM13.6885 5.01034V9.79128H14.6885V5.01034H13.6885ZM13.6885 9.79128C13.6885 10.7053 12.9703 11.4241 12.1113 11.4241V12.4241C13.5476 12.4241 14.6885 11.2323 14.6885 9.79128H13.6885ZM12.1113 11.4241H7.0252V12.4241H12.1113V11.4241Z" fill="black"/>
<path d="M12.385 19.2236C12.2088 19.011 11.8936 18.9815 11.681 19.1577C11.4683 19.3339 11.4388 19.6491 11.615 19.8617L12.385 19.2236ZM14.8466 15.4H15.3466C15.3466 15.1239 15.1227 14.9 14.8466 14.9V15.4ZM14.0138 14.9C13.7377 14.9 13.5138 15.1239 13.5138 15.4C13.5138 15.6762 13.7377 15.9 14.0138 15.9V14.9ZM19.3701 16.0508C19.6336 16.1332 19.9141 15.9863 19.9964 15.7227C20.0788 15.4591 19.9319 15.1787 19.6683 15.0963L19.3701 16.0508ZM17.1546 19.4038C16.9154 19.2657 16.6096 19.3476 16.4715 19.5868C16.3335 19.8259 16.4154 20.1317 16.6545 20.2698L17.1546 19.4038ZM11.615 19.8617C12.04 20.3746 12.6776 20.9 13.5521 20.9V19.9C13.1131 19.9 12.7301 19.6401 12.385 19.2236L11.615 19.8617ZM13.5521 20.9C13.9053 20.9 14.3552 20.7822 14.723 20.4501C15.1044 20.1058 15.3466 19.5775 15.3466 18.8596H14.3466C14.3466 19.3395 14.193 19.5814 14.0529 19.7078C13.8992 19.8466 13.7019 19.9 13.5521 19.9V20.9ZM15.3466 18.8596V15.4H14.3466V18.8596H15.3466ZM14.8466 14.9H14.0138V15.9H14.8466V14.9ZM19.6683 15.0963C18.8999 14.8562 18.1804 14.8318 17.6195 15.0497C17.0281 15.2793 16.6372 15.7781 16.6372 16.4412H17.6372C17.6372 16.233 17.7338 16.0781 17.9816 15.9818C18.2599 15.8737 18.7314 15.8512 19.3701 16.0508L19.6683 15.0963ZM16.6372 16.4412C16.6372 17.0074 16.9246 17.404 17.2757 17.6798C17.6041 17.9376 18.0257 18.1192 18.369 18.2686C18.7439 18.4319 19.0388 18.5624 19.2487 18.7231C19.4361 18.8666 19.5 18.9904 19.5 19.1478H20.5C20.5 18.5857 20.2061 18.1966 19.8567 17.9291C19.5298 17.6788 19.109 17.5002 18.7682 17.3518C18.3958 17.1896 18.1017 17.0569 17.8933 16.8932C17.7077 16.7475 17.6372 16.6154 17.6372 16.4412H16.6372ZM19.5 19.1478C19.5 19.3523 19.4375 19.4821 19.3544 19.5713C19.2654 19.6669 19.1184 19.7514 18.8991 19.7948C18.4524 19.8833 17.8015 19.7773 17.1546 19.4038L16.6545 20.2698C17.4582 20.7338 18.355 20.9219 19.0933 20.7758C19.4666 20.7019 19.8215 20.5371 20.0862 20.2529C20.3569 19.9622 20.5 19.5819 20.5 19.1478H19.5Z" fill="black"/>
</svg>
