<svg width="32" height="32" viewBox="0 0 32 32" fill="none" xmlns="http://www.w3.org/2000/svg">
<path d="M14.1885 5.01034V9.79128C14.1885 10.9688 13.259 11.9241 12.1113 11.9241H7.0252M21.5382 27H10.4618C8.55016 27 7 25.4083 7 23.4453V12.3021C7 11.5166 7.3168 10.7658 7.8748 10.2283L12.4202 5.76926C12.9335 5.27463 13.611 5 14.3145 5H21.5382C23.4498 5 25 6.59168 25 8.5547V23.4453C25 25.4083 23.4506 27 21.5382 27Z" stroke="black" stroke-linejoin="round"/>
<path d="M15.3445 19.9993V16.0007M15.3445 18.1585H16.8331C17.6775 18.1585 18.0429 17.5908 18.0429 17.0792C18.0429 16.5677 17.6767 16 16.8331 16H15.3445M13.3468 19.9993V16.0007L11.4234 18.5965L9.5 16.0007V19.9993M19.5387 16.5167C19.7106 16.223 20.1606 16.0007 20.8034 16.0007C21.6181 16.0007 22.1396 16.3396 22.1396 16.857C22.1396 17.2388 21.811 17.8422 20.8922 17.8794C21.8659 17.8794 22.5 18.2452 22.5 18.9025C22.5 19.5598 21.9121 20 20.7752 20C19.9952 20 19.3892 19.7216 19.2108 19.1984" stroke="black" stroke-linecap="round" stroke-linejoin="round"/>
</svg>
