<svg width="32" height="32" viewBox="0 0 32 32" fill="none" xmlns="http://www.w3.org/2000/svg">
<path d="M7.8748 10.2283L8.22167 10.5885L8.22495 10.5852L7.8748 10.2283ZM12.4202 5.76926L12.0732 5.40919L12.07 5.41234L12.4202 5.76926ZM21.5382 26.5H10.4618V27.5H21.5382V26.5ZM10.4618 26.5C8.8387 26.5 7.5 25.1447 7.5 23.4453H6.5C6.5 25.6719 8.26162 27.5 10.4618 27.5V26.5ZM7.5 23.4453V12.3021H6.5V23.4453H7.5ZM7.5 12.3021C7.5 11.6504 7.763 11.0302 8.22166 10.5884L7.52794 9.8682C6.8706 10.5013 6.5 11.3828 6.5 12.3021H7.5ZM8.22495 10.5852L12.7703 6.12619L12.07 5.41234L7.52465 9.8714L8.22495 10.5852ZM12.7671 6.12932C13.1884 5.72339 13.742 5.5 14.3145 5.5V4.5C13.4801 4.5 12.6786 4.82588 12.0732 5.4092L12.7671 6.12932ZM14.3145 5.5H21.5382V4.5H14.3145V5.5ZM21.5382 5.5C23.1613 5.5 24.5 6.85526 24.5 8.5547H25.5C25.5 6.3281 23.7384 4.5 21.5382 4.5V5.5ZM24.5 8.5547V23.4453H25.5V8.5547H24.5ZM24.5 23.4453C24.5 25.1448 23.162 26.5 21.5382 26.5V27.5C23.7392 27.5 25.5 25.6718 25.5 23.4453H24.5ZM13.6885 5.01034V9.79128H14.6885V5.01034H13.6885ZM13.6885 9.79128C13.6885 10.7053 12.9703 11.4241 12.1113 11.4241V12.4241C13.5476 12.4241 14.6885 11.2323 14.6885 9.79128H13.6885ZM12.1113 11.4241H7.0252V12.4241H12.1113V11.4241Z" fill="black"/>
<path d="M14.8445 19.9993C14.8445 20.2754 15.0684 20.4993 15.3445 20.4993C15.6207 20.4993 15.8445 20.2754 15.8445 19.9993H14.8445ZM15.8445 16.0007C15.8445 15.7246 15.6207 15.5007 15.3445 15.5007C15.0684 15.5007 14.8445 15.7246 14.8445 16.0007H15.8445ZM15.3445 17.6585C15.0684 17.6585 14.8445 17.8824 14.8445 18.1585C14.8445 18.4346 15.0684 18.6585 15.3445 18.6585V17.6585ZM15.3445 15.5C15.0684 15.5 14.8445 15.7239 14.8445 16C14.8445 16.2761 15.0684 16.5 15.3445 16.5V15.5ZM12.8468 19.9993C12.8468 20.2754 13.0706 20.4993 13.3468 20.4993C13.6229 20.4993 13.8468 20.2754 13.8468 19.9993H12.8468ZM13.3468 16.0007H13.8468C13.8468 15.785 13.7084 15.5936 13.5035 15.5259C13.2986 15.4583 13.0735 15.5297 12.945 15.7031L13.3468 16.0007ZM11.4234 18.5965L11.0217 18.8941C11.116 19.0214 11.265 19.0965 11.4234 19.0965C11.5818 19.0965 11.7308 19.0214 11.8251 18.8941L11.4234 18.5965ZM9.5 16.0007L9.90173 15.7031C9.77329 15.5297 9.54814 15.4583 9.34326 15.5259C9.13839 15.5936 9 15.785 9 16.0007H9.5ZM9 19.9993C9 20.2754 9.22386 20.4993 9.5 20.4993C9.77614 20.4993 10 20.2754 10 19.9993H9ZM19.1072 16.2641C18.9677 16.5024 19.0478 16.8087 19.2861 16.9482C19.5245 17.0877 19.8307 17.0076 19.9702 16.7692L19.1072 16.2641ZM20.8922 17.8794L20.872 17.3798C20.6001 17.3908 20.3868 17.6174 20.3923 17.8895C20.3978 18.1616 20.62 18.3794 20.8922 18.3794V17.8794ZM19.6841 19.037C19.5949 18.7757 19.3108 18.636 19.0495 18.7251C18.7881 18.8143 18.6485 19.0984 18.7376 19.3598L19.6841 19.037ZM15.8445 19.9993V16.0007H14.8445V19.9993H15.8445ZM15.3445 18.6585H16.8331V17.6585H15.3445V18.6585ZM16.8331 18.6585C17.3745 18.6585 17.8134 18.4726 18.116 18.1563C18.4112 17.8477 18.5429 17.4497 18.5429 17.0792H17.5429C17.5429 17.2204 17.4919 17.362 17.3933 17.4651C17.3021 17.5605 17.1361 17.6585 16.8331 17.6585V18.6585ZM18.5429 17.0792C18.5429 16.7086 18.4108 16.3106 18.1156 16.0021C17.8131 15.6859 17.3742 15.5 16.8331 15.5V16.5C17.1357 16.5 17.3017 16.5979 17.3931 16.6935C17.4919 16.7967 17.5429 16.9384 17.5429 17.0792H18.5429ZM16.8331 15.5H15.3445V16.5H16.8331V15.5ZM13.8468 19.9993V16.0007H12.8468V19.9993H13.8468ZM12.945 15.7031L11.0217 18.2988L11.8251 18.8941L13.7485 16.2984L12.945 15.7031ZM11.8251 18.2988L9.90173 15.7031L9.09827 16.2984L11.0217 18.8941L11.8251 18.2988ZM9 16.0007V19.9993H10V16.0007H9ZM19.9702 16.7692C20.0127 16.6968 20.242 16.5007 20.8034 16.5007V15.5007C20.0792 15.5007 19.4086 15.7492 19.1072 16.2641L19.9702 16.7692ZM20.8034 16.5007C21.1498 16.5007 21.3801 16.574 21.5065 16.6553C21.6174 16.7267 21.6396 16.7927 21.6396 16.857H22.6396C22.6396 16.4038 22.401 16.0417 22.0475 15.8143C21.7095 15.5969 21.2717 15.5007 20.8034 15.5007V16.5007ZM21.6396 16.857C21.6396 16.9663 21.527 17.3533 20.872 17.3798L20.9125 18.379C22.0949 18.3312 22.6396 17.5114 22.6396 16.857H21.6396ZM20.8922 18.3794C21.3271 18.3794 21.6256 18.4628 21.7979 18.5695C21.9471 18.662 22 18.7651 22 18.9025H23C23 18.3826 22.7358 17.9742 22.3246 17.7194C21.9364 17.4789 21.431 17.3794 20.8922 17.3794V18.3794ZM22 18.9025C22 19.0585 21.9413 19.1789 21.7871 19.2814C21.6105 19.3988 21.2895 19.5 20.7752 19.5V20.5C21.3978 20.5 21.9392 20.3811 22.3408 20.1141C22.7648 19.8322 23 19.4039 23 18.9025H22ZM20.7752 19.5C20.0645 19.5 19.7561 19.2484 19.6841 19.037L18.7376 19.3598C19.0223 20.1949 19.9259 20.5 20.7752 20.5V19.5Z" fill="black"/>
</svg>
