<svg width="32" height="32" viewBox="0 0 32 32" fill="none" xmlns="http://www.w3.org/2000/svg">
<path d="M7.8748 10.2283L8.22167 10.5885L8.22495 10.5852L7.8748 10.2283ZM12.4202 5.76926L12.0732 5.40919L12.07 5.41234L12.4202 5.76926ZM21.5382 26.5H10.4618V27.5H21.5382V26.5ZM10.4618 26.5C8.8387 26.5 7.5 25.1447 7.5 23.4453H6.5C6.5 25.6719 8.26162 27.5 10.4618 27.5V26.5ZM7.5 23.4453V12.3021H6.5V23.4453H7.5ZM7.5 12.3021C7.5 11.6504 7.763 11.0302 8.22166 10.5884L7.52794 9.8682C6.8706 10.5013 6.5 11.3828 6.5 12.3021H7.5ZM8.22495 10.5852L12.7703 6.12619L12.07 5.41234L7.52465 9.8714L8.22495 10.5852ZM12.7671 6.12932C13.1884 5.72339 13.742 5.5 14.3145 5.5V4.5C13.4801 4.5 12.6786 4.82588 12.0732 5.4092L12.7671 6.12932ZM14.3145 5.5H21.5382V4.5H14.3145V5.5ZM21.5382 5.5C23.1613 5.5 24.5 6.85526 24.5 8.5547H25.5C25.5 6.3281 23.7384 4.5 21.5382 4.5V5.5ZM24.5 8.5547V23.4453H25.5V8.5547H24.5ZM24.5 23.4453C24.5 25.1448 23.162 26.5 21.5382 26.5V27.5C23.7392 27.5 25.5 25.6718 25.5 23.4453H24.5ZM13.6885 5.01034V9.79128H14.6885V5.01034H13.6885ZM13.6885 9.79128C13.6885 10.7053 12.9703 11.4241 12.1113 11.4241V12.4241C13.5476 12.4241 14.6885 11.2323 14.6885 9.79128H13.6885ZM12.1113 11.4241H7.0252V12.4241H12.1113V11.4241Z" fill="black"/>
<path d="M21.321 15.938C21.321 15.6618 21.0972 15.438 20.821 15.438C20.5449 15.438 20.321 15.6618 20.321 15.938H21.321ZM20.821 18.9904H20.321C20.321 19.2665 20.5449 19.4904 20.821 19.4904V18.9904ZM22.6886 19.4904C22.9647 19.4904 23.1886 19.2665 23.1886 18.9904C23.1886 18.7142 22.9647 18.4904 22.6886 18.4904V19.4904ZM18.8012 18.9904C18.8012 19.2665 19.0251 19.4904 19.3012 19.4904C19.5773 19.4904 19.8012 19.2665 19.8012 18.9904H18.8012ZM19.3012 15.938H19.8012C19.8012 15.7226 19.6633 15.5315 19.4589 15.4635C19.2546 15.3956 19.0297 15.4661 18.9007 15.6386L19.3012 15.938ZM17.8201 17.9191L17.4197 18.2185C17.5141 18.3447 17.6625 18.4191 17.8201 18.4191C17.9778 18.4191 18.1262 18.3447 18.2206 18.2185L17.8201 17.9191ZM16.3391 15.938L16.7396 15.6386C16.6106 15.4661 16.3857 15.3956 16.1813 15.4635C15.977 15.5315 15.8391 15.7226 15.8391 15.938H16.3391ZM15.8391 18.9904C15.8391 19.2665 16.0629 19.4904 16.3391 19.4904C16.6152 19.4904 16.8391 19.2665 16.8391 18.9904H15.8391ZM9.78857 15.938C9.78857 15.6618 9.56472 15.438 9.28857 15.438C9.01243 15.438 8.78857 15.6618 8.78857 15.938H9.78857ZM8.78857 18.9904C8.78857 19.2665 9.01243 19.4904 9.28857 19.4904C9.56472 19.4904 9.78857 19.2665 9.78857 18.9904H8.78857ZM9.28857 16.9C9.01243 16.9 8.78857 17.1239 8.78857 17.4C8.78857 17.6761 9.01243 17.9 9.28857 17.9V16.9ZM11.5722 17.9C11.8484 17.9 12.0722 17.6761 12.0722 17.4C12.0722 17.1239 11.8484 16.9 11.5722 16.9V17.9ZM12.0722 15.938C12.0722 15.6618 11.8484 15.438 11.5722 15.438C11.2961 15.438 11.0722 15.6618 11.0722 15.938H12.0722ZM11.0722 18.9904C11.0722 19.2665 11.2961 19.4904 11.5722 19.4904C11.8484 19.4904 12.0722 19.2665 12.0722 18.9904H11.0722ZM13.3855 18.9904C13.3855 19.2665 13.6093 19.4904 13.8855 19.4904C14.1616 19.4904 14.3855 19.2665 14.3855 18.9904H13.3855ZM14.3855 16.0071C14.3855 15.731 14.1616 15.5071 13.8855 15.5071C13.6093 15.5071 13.3855 15.731 13.3855 16.0071H14.3855ZM14.9906 16.438C15.2668 16.438 15.4906 16.2141 15.4906 15.938C15.4906 15.6618 15.2668 15.438 14.9906 15.438V16.438ZM12.7803 15.438C12.5042 15.438 12.2803 15.6618 12.2803 15.938C12.2803 16.2141 12.5042 16.438 12.7803 16.438V15.438ZM20.321 15.938V18.9904H21.321V15.938H20.321ZM20.821 19.4904H22.6886V18.4904H20.821V19.4904ZM19.8012 18.9904V15.938H18.8012V18.9904H19.8012ZM18.9007 15.6386L17.4197 17.6197L18.2206 18.2185L19.7017 16.2374L18.9007 15.6386ZM18.2206 17.6197L16.7396 15.6386L15.9386 16.2374L17.4197 18.2185L18.2206 17.6197ZM15.8391 15.938V18.9904H16.8391V15.938H15.8391ZM8.78857 15.938V18.9904H9.78857V15.938H8.78857ZM9.28857 17.9H11.5722V16.9H9.28857V17.9ZM11.0722 15.938V18.9904H12.0722V15.938H11.0722ZM14.3855 18.9904V16.0071H13.3855V18.9904H14.3855ZM14.9906 15.438H12.7803V16.438H14.9906V15.438Z" fill="black"/>
</svg>
