<svg width="32" height="32" viewBox="0 0 32 32" fill="none" xmlns="http://www.w3.org/2000/svg">
<path d="M16.8945 18.0899L17.2254 17.7151L16.8945 18.0899ZM21.8393 22.4547L21.5084 22.8295L21.8393 22.4547ZM21.8393 9.54534L21.5084 9.17049V9.17049L21.8393 9.54534ZM16.8945 13.9101L17.2254 14.2849L16.8945 13.9101ZM25.5 20.3647H26H25.5ZM25.5 11.6353H25H25.5ZM7.39454 18.0899L7.72543 17.7151L7.39454 18.0899ZM12.3393 22.4547L12.6702 22.0798L12.3393 22.4547ZM12.3393 9.54534L12.0084 9.17049V9.17049L12.3393 9.54534ZM7.39454 13.9101L7.72543 14.2849L7.39454 13.9101ZM16 20.3647H16.5H16ZM16 11.6353H15.5H16ZM16.5637 18.4648L21.5084 22.8295L22.1702 22.0798L17.2254 17.7151L16.5637 18.4648ZM21.5084 9.17049L16.5637 13.5352L17.2254 14.2849L22.1702 9.9202L21.5084 9.17049ZM26 20.3647V11.6353H25V20.3647H26ZM17.2254 17.7151C16.2582 16.8613 16.2582 15.1387 17.2254 14.2849L16.5637 13.5352C15.1454 14.7871 15.1454 17.2129 16.5637 18.4648L17.2254 17.7151ZM21.5084 22.8295C22.4271 23.6404 23.5766 23.6726 24.4796 23.157C25.3719 22.6476 26 21.6234 26 20.3647H25C25 21.2847 24.5471 21.967 23.9838 22.2886C23.4312 22.6041 22.7503 22.5919 22.1702 22.0798L21.5084 22.8295ZM22.1702 9.9202C22.7503 9.40814 23.4312 9.39594 23.9838 9.71143C24.5471 10.033 25 10.7153 25 11.6353H26C26 10.3766 25.3719 9.35244 24.4796 8.84299C23.5766 8.32743 22.4271 8.35958 21.5084 9.17049L22.1702 9.9202ZM7.06366 18.4648L12.0084 22.8295L12.6702 22.0798L7.72543 17.7151L7.06366 18.4648ZM12.0084 9.17049L7.06366 13.5352L7.72543 14.2849L12.6702 9.9202L12.0084 9.17049ZM16.5 20.3647V11.6353H15.5V20.3647H16.5ZM7.72543 17.7151C6.75819 16.8613 6.75819 15.1387 7.72543 14.2849L7.06366 13.5352C5.64545 14.7871 5.64545 17.2129 7.06366 18.4648L7.72543 17.7151ZM12.0084 22.8295C12.9271 23.6404 14.0766 23.6726 14.9796 23.157C15.8719 22.6476 16.5 21.6234 16.5 20.3647H15.5C15.5 21.2847 15.0471 21.967 14.4838 22.2886C13.9312 22.6041 13.2503 22.5919 12.6702 22.0798L12.0084 22.8295ZM12.6702 9.9202C13.2503 9.40814 13.9312 9.39594 14.4838 9.71143C15.0471 10.033 15.5 10.7153 15.5 11.6353H16.5C16.5 10.3766 15.8719 9.35244 14.9796 8.84299C14.0766 8.32743 12.9271 8.35958 12.0084 9.17049L12.6702 9.9202Z" fill="black"/>
</svg>
