<svg width="32" height="32" viewBox="0 0 32 32" fill="none" xmlns="http://www.w3.org/2000/svg">
<path d="M7.8748 10.2283L8.22167 10.5885L8.22495 10.5852L7.8748 10.2283ZM12.4202 5.76926L12.0732 5.40919L12.07 5.41234L12.4202 5.76926ZM21.5382 26.5H10.4618V27.5H21.5382V26.5ZM10.4618 26.5C8.8387 26.5 7.5 25.1447 7.5 23.4453H6.5C6.5 25.6719 8.26162 27.5 10.4618 27.5V26.5ZM7.5 23.4453V12.3021H6.5V23.4453H7.5ZM7.5 12.3021C7.5 11.6504 7.763 11.0302 8.22166 10.5884L7.52794 9.8682C6.8706 10.5013 6.5 11.3828 6.5 12.3021H7.5ZM8.22495 10.5852L12.7703 6.12619L12.07 5.41234L7.52465 9.8714L8.22495 10.5852ZM12.7671 6.12932C13.1884 5.72339 13.742 5.5 14.3145 5.5V4.5C13.4801 4.5 12.6786 4.82588 12.0732 5.4092L12.7671 6.12932ZM14.3145 5.5H21.5382V4.5H14.3145V5.5ZM21.5382 5.5C23.1613 5.5 24.5 6.85526 24.5 8.5547H25.5C25.5 6.3281 23.7384 4.5 21.5382 4.5V5.5ZM24.5 8.5547V23.4453H25.5V8.5547H24.5ZM24.5 23.4453C24.5 25.1448 23.162 26.5 21.5382 26.5V27.5C23.7392 27.5 25.5 25.6718 25.5 23.4453H24.5ZM13.6885 5.01034V9.79128H14.6885V5.01034H13.6885ZM13.6885 9.79128C13.6885 10.7053 12.9703 11.4241 12.1113 11.4241V12.4241C13.5476 12.4241 14.6885 11.2323 14.6885 9.79128H13.6885ZM12.1113 11.4241H7.0252V12.4241H12.1113V11.4241Z" fill="black"/>
<path d="M9.5 20C9.5 20.2761 9.72386 20.5 10 20.5C10.2761 20.5 10.5 20.2761 10.5 20H9.5ZM10 16V15.5C9.72386 15.5 9.5 15.7239 9.5 16H10ZM10 17.6586C9.72386 17.6586 9.5 17.8825 9.5 18.1586C9.5 18.4348 9.72386 18.6586 10 18.6586V17.6586ZM17.8998 16C17.8998 15.7239 17.6759 15.5 17.3998 15.5C17.1236 15.5 16.8998 15.7239 16.8998 16H17.8998ZM17.3998 20L17.0045 20.3063C17.1355 20.4752 17.3594 20.5423 17.5616 20.4731C17.7639 20.4039 17.8998 20.2138 17.8998 20H17.3998ZM14.3002 16L14.6955 15.6937C14.5645 15.5248 14.3406 15.4577 14.1384 15.5269C13.9361 15.5961 13.8002 15.7862 13.8002 16H14.3002ZM13.8002 20C13.8002 20.2761 14.0241 20.5 14.3002 20.5C14.5764 20.5 14.8002 20.2761 14.8002 20H13.8002ZM21.6806 16.764C21.893 16.9404 22.2082 16.9112 22.3847 16.6987C22.5611 16.4863 22.5319 16.1711 22.3194 15.9947L21.6806 16.764ZM22 19.62L22.3194 20.0047C22.4338 19.9097 22.5 19.7687 22.5 19.62H22ZM22 18.2117H22.5C22.5 17.9356 22.2761 17.7117 22 17.7117V18.2117ZM21.4375 17.7117C21.1614 17.7117 20.9375 17.9356 20.9375 18.2117C20.9375 18.4879 21.1614 18.7117 21.4375 18.7117V17.7117ZM10.5 20V16H9.5V20H10.5ZM10 18.6586H11.483V17.6586H10V18.6586ZM11.483 18.6586C12.0233 18.6586 12.4613 18.472 12.7629 18.1556C13.057 17.8469 13.1884 17.4493 13.1884 17.0793H12.1884C12.1884 17.2204 12.1374 17.3624 12.039 17.4656C11.9481 17.5611 11.7833 17.6586 11.483 17.6586V18.6586ZM13.1884 17.0793C13.1884 16.7094 13.057 16.3117 12.7629 16.0031C12.4613 15.6866 12.0233 15.5 11.483 15.5V16.5C11.7833 16.5 11.9481 16.5976 12.039 16.693C12.1374 16.7963 12.1884 16.9382 12.1884 17.0793H13.1884ZM11.483 15.5H10V16.5H11.483V15.5ZM16.8998 16V20H17.8998V16H16.8998ZM17.795 19.6937L14.6955 15.6937L13.905 16.3063L17.0045 20.3063L17.795 19.6937ZM13.8002 16V20H14.8002V16H13.8002ZM22.3194 15.9947C22.1483 15.8525 21.9554 15.723 21.7142 15.6326C21.4735 15.5422 21.2095 15.5 20.9043 15.5V16.5C21.1153 16.5 21.2563 16.5288 21.3629 16.5688C21.4692 16.6087 21.5661 16.6689 21.6806 16.764L22.3194 15.9947ZM20.9043 15.5C19.495 15.5 18.4734 16.6061 18.4734 18H19.4734C19.4734 17.1194 20.0855 16.5 20.9043 16.5V15.5ZM18.4734 18C18.4734 19.394 19.4958 20.5 20.9043 20.5V19.5C20.0861 19.5 19.4734 18.8805 19.4734 18H18.4734ZM20.9043 20.5C21.21 20.5 21.4742 20.4576 21.715 20.3669C21.9561 20.2762 22.1486 20.1465 22.3194 20.0047L21.6806 19.2353C21.5657 19.3308 21.4688 19.3911 21.3627 19.431C21.2563 19.4711 21.1154 19.5 20.9043 19.5V20.5ZM22.5 19.62V18.2117H21.5V19.62H22.5ZM22 17.7117H21.4375V18.7117H22V17.7117Z" fill="black"/>
</svg>
