<svg width="32" height="32" viewBox="0 0 32 32" fill="none" xmlns="http://www.w3.org/2000/svg">
<path d="M19.6539 25.5H9.42308C7.80871 25.5 6.5 24.1913 6.5 22.5769V9.42308C6.5 7.80871 7.8087 6.5 9.42307 6.5H22.5769C24.1913 6.5 25.5 7.80871 25.5 9.42309L25.5 19.6538M19.6539 25.5V19.6538H25.5M19.6539 25.5C20.1218 25.5 20.5705 25.3141 20.9013 24.9833L24.9833 20.9013C25.3141 20.5705 25.5 20.1217 25.5 19.6538M16.6034 11.0507V17M19.3793 17V11.4225C19.3793 11.1746 19.5 11.0507 19.7414 11.0507H23M22.5173 14.0255H19.3793M12.138 14.2731H13.7069C13.9483 14.2731 14.069 14.3971 14.069 14.645V15.7605C14.069 16.1323 13.8276 16.5041 13.4655 16.6281C13.1035 16.752 12.6207 16.876 11.6552 16.876C9.72416 16.876 9.00002 15.5126 9.00002 14.2731C9.00002 13.0337 9.36209 11.4224 11.2931 11.0506C12.9828 10.8027 13.8276 11.5464 13.8276 11.5464" stroke="black" stroke-linecap="round" stroke-linejoin="round"/>
</svg>
