<svg width="32" height="32" viewBox="0 0 32 32" fill="none" xmlns="http://www.w3.org/2000/svg">
<path d="M7.8748 10.2283L8.22167 10.5885L8.22495 10.5852L7.8748 10.2283ZM12.4202 5.76926L12.0732 5.40919L12.07 5.41234L12.4202 5.76926ZM21.5382 26.5H10.4618V27.5H21.5382V26.5ZM10.4618 26.5C8.8387 26.5 7.5 25.1447 7.5 23.4453H6.5C6.5 25.6719 8.26162 27.5 10.4618 27.5V26.5ZM7.5 23.4453V12.3021H6.5V23.4453H7.5ZM7.5 12.3021C7.5 11.6504 7.763 11.0302 8.22166 10.5884L7.52794 9.8682C6.8706 10.5013 6.5 11.3828 6.5 12.3021H7.5ZM8.22495 10.5852L12.7703 6.12619L12.07 5.41234L7.52465 9.8714L8.22495 10.5852ZM12.7671 6.12932C13.1884 5.72339 13.742 5.5 14.3145 5.5V4.5C13.4801 4.5 12.6786 4.82588 12.0732 5.4092L12.7671 6.12932ZM14.3145 5.5H21.5382V4.5H14.3145V5.5ZM21.5382 5.5C23.1613 5.5 24.5 6.85526 24.5 8.5547H25.5C25.5 6.3281 23.7384 4.5 21.5382 4.5V5.5ZM24.5 8.5547V23.4453H25.5V8.5547H24.5ZM24.5 23.4453C24.5 25.1448 23.162 26.5 21.5382 26.5V27.5C23.7392 27.5 25.5 25.6718 25.5 23.4453H24.5ZM13.6885 5.01034V9.79128H14.6885V5.01034H13.6885ZM13.6885 9.79128C13.6885 10.7053 12.9703 11.4241 12.1113 11.4241V12.4241C13.5476 12.4241 14.6885 11.2323 14.6885 9.79128H13.6885ZM12.1113 11.4241H7.0252V12.4241H12.1113V11.4241Z" fill="black"/>
<path d="M17.573 19.7336C17.573 20.0098 17.7968 20.2336 18.073 20.2336C18.3491 20.2336 18.573 20.0098 18.573 19.7336H17.573ZM18.073 15.8H18.573C18.573 15.5838 18.434 15.3921 18.2285 15.3248C18.023 15.2576 17.7975 15.3301 17.6697 15.5044L18.073 15.8ZM16.2017 18.3529L15.7985 18.6486C15.8927 18.777 16.0424 18.8529 16.2017 18.8529C16.361 18.8529 16.5108 18.777 16.6049 18.6485L16.2017 18.3529ZM14.3297 15.8L14.7329 15.5044C14.605 15.33 14.3796 15.2576 14.1741 15.3249C13.9686 15.3921 13.8297 15.5838 13.8297 15.8H14.3297ZM13.8297 19.7336C13.8297 20.0098 14.0535 20.2336 14.3297 20.2336C14.6058 20.2336 14.8297 20.0098 14.8297 19.7336H13.8297ZM12.8506 16.1038C13.0184 15.8845 12.9766 15.5707 12.7573 15.4029C12.5379 15.2351 12.2241 15.2769 12.0563 15.4962L12.8506 16.1038ZM9.10288 19.357C8.93509 19.5763 8.97688 19.8901 9.1962 20.0579C9.41552 20.2257 9.72934 20.1839 9.89712 19.9646L9.10288 19.357ZM9.89712 15.4962C9.72934 15.2769 9.41552 15.2351 9.1962 15.4029C8.97688 15.5707 8.93509 15.8845 9.10288 16.1038L9.89712 15.4962ZM12.0563 19.9646C12.2241 20.1839 12.5379 20.2257 12.7573 20.0579C12.9766 19.8901 13.0184 19.5763 12.8506 19.357L12.0563 19.9646ZM20.5897 15.8C20.5897 15.5239 20.3659 15.3 20.0897 15.3C19.8136 15.3 19.5897 15.5239 19.5897 15.8H20.5897ZM20.0897 19.8H19.5897C19.5897 20.0762 19.8136 20.3 20.0897 20.3V19.8ZM22.5 20.3C22.7761 20.3 23 20.0762 23 19.8C23 19.5239 22.7761 19.3 22.5 19.3V20.3ZM18.573 19.7336V15.8H17.573V19.7336H18.573ZM17.6697 15.5044L15.7984 18.0573L16.6049 18.6485L18.4762 16.0956L17.6697 15.5044ZM16.6049 18.0572L14.7329 15.5044L13.9265 16.0957L15.7985 18.6486L16.6049 18.0572ZM13.8297 15.8V19.7336H14.8297V15.8H13.8297ZM12.0563 15.4962L9.10288 19.357L9.89712 19.9646L12.8506 16.1038L12.0563 15.4962ZM9.10288 16.1038L12.0563 19.9646L12.8506 19.357L9.89712 15.4962L9.10288 16.1038ZM19.5897 15.8V19.8H20.5897V15.8H19.5897ZM20.0897 20.3H22.5V19.3H20.0897V20.3Z" fill="black"/>
</svg>
