<svg width="32" height="32" viewBox="0 0 32 32" fill="none" xmlns="http://www.w3.org/2000/svg">
<path d="M7.8748 10.2283L8.22167 10.5885L8.22495 10.5852L7.8748 10.2283ZM12.4202 5.76926L12.0732 5.40919L12.07 5.41234L12.4202 5.76926ZM21.5382 26.5H10.4618V27.5H21.5382V26.5ZM10.4618 26.5C8.8387 26.5 7.5 25.1447 7.5 23.4453H6.5C6.5 25.6719 8.26162 27.5 10.4618 27.5V26.5ZM7.5 23.4453V12.3021H6.5V23.4453H7.5ZM7.5 12.3021C7.5 11.6504 7.763 11.0302 8.22166 10.5884L7.52794 9.8682C6.8706 10.5013 6.5 11.3828 6.5 12.3021H7.5ZM8.22495 10.5852L12.7703 6.12619L12.07 5.41234L7.52465 9.8714L8.22495 10.5852ZM12.7671 6.12932C13.1884 5.72339 13.742 5.5 14.3145 5.5V4.5C13.4801 4.5 12.6786 4.82588 12.0732 5.4092L12.7671 6.12932ZM14.3145 5.5H21.5382V4.5H14.3145V5.5ZM21.5382 5.5C23.1613 5.5 24.5 6.85526 24.5 8.5547H25.5C25.5 6.3281 23.7384 4.5 21.5382 4.5V5.5ZM24.5 8.5547V23.4453H25.5V8.5547H24.5ZM24.5 23.4453C24.5 25.1448 23.162 26.5 21.5382 26.5V27.5C23.7392 27.5 25.5 25.6718 25.5 23.4453H24.5ZM13.6885 5.01034V9.79128H14.6885V5.01034H13.6885ZM13.6885 9.79128C13.6885 10.7053 12.9703 11.4241 12.1113 11.4241V12.4241C13.5476 12.4241 14.6885 11.2323 14.6885 9.79128H13.6885ZM12.1113 11.4241H7.0252V12.4241H12.1113V11.4241Z" fill="black"/>
<path d="M13.4348 20.0094C13.6499 19.8361 13.6837 19.5214 13.5105 19.3063C13.3373 19.0913 13.0225 19.0574 12.8075 19.2306L13.4348 20.0094ZM12.8087 16.7691C13.0239 16.9421 13.3387 16.9078 13.5116 16.6925C13.6846 16.4772 13.6502 16.1625 13.435 15.9895L12.8087 16.7691ZM16.6759 16.6159C16.9398 16.697 17.2196 16.5489 17.3008 16.2849C17.3819 16.021 17.2338 15.7412 16.9698 15.66L16.6759 16.6159ZM14.9589 19.0897C14.7187 18.9535 14.4136 19.0377 14.2773 19.2779C14.1411 19.5181 14.2253 19.8232 14.4655 19.9595L14.9589 19.0897ZM22.4556 16.2061C22.5694 15.9545 22.4577 15.6582 22.2061 15.5444C21.9545 15.4306 21.6582 15.5423 21.5444 15.7939L22.4556 16.2061ZM20.1907 20L19.7351 20.206C19.816 20.385 19.9942 20.5 20.1906 20.5C20.3871 20.5 20.5653 20.385 20.6462 20.2061L20.1907 20ZM18.8376 15.794C18.7239 15.5424 18.4277 15.4306 18.176 15.5444C17.9244 15.6582 17.8127 15.9544 17.9264 16.206L18.8376 15.794ZM12.8075 19.2306C12.6886 19.3264 12.5868 19.3882 12.4741 19.4293C12.3607 19.4706 12.2118 19.5 11.9913 19.5V20.5C12.3034 20.5 12.5721 20.458 12.8169 20.3687C13.0622 20.2792 13.2591 20.1509 13.4348 20.0094L12.8075 19.2306ZM11.9913 19.5C11.1235 19.5 10.5 18.866 10.5 18H9.5C9.5 19.4087 10.5618 20.5 11.9913 20.5V19.5ZM10.5 18C10.5 17.1343 11.124 16.5 11.992 16.5V15.5C10.5627 15.5 9.5 16.5911 9.5 18H10.5ZM11.992 16.5C12.403 16.5 12.5967 16.5988 12.8087 16.7691L13.435 15.9895C13.0578 15.6865 12.6461 15.5 11.992 15.5V16.5ZM16.9698 15.66C16.3379 15.4657 15.7352 15.4421 15.2571 15.6248C14.7491 15.819 14.4003 16.2489 14.4003 16.8273H15.4003C15.4003 16.713 15.4448 16.6236 15.6141 16.5589C15.8133 16.4828 16.1719 16.4609 16.6759 16.6159L16.9698 15.66ZM14.4003 16.8273C14.4003 17.3208 14.6566 17.6634 14.9556 17.8945C15.2323 18.1082 15.5846 18.2569 15.8588 18.3744C16.1648 18.5055 16.391 18.6046 16.5492 18.7238C16.6854 18.8264 16.7111 18.8973 16.7111 18.9773H17.7111C17.7111 18.4856 17.448 18.149 17.1509 17.9251C16.8759 17.7179 16.5243 17.5716 16.2526 17.4552C15.9491 17.3252 15.7237 17.2242 15.5671 17.1032C15.4328 16.9995 15.4003 16.9221 15.4003 16.8273H14.4003ZM16.7111 18.9773C16.7111 19.1139 16.67 19.1902 16.6223 19.2406C16.568 19.298 16.4691 19.3581 16.3055 19.3899C15.9705 19.4551 15.4668 19.3779 14.9589 19.0897L14.4655 19.9595C15.1292 20.336 15.8749 20.4925 16.4965 20.3715C16.8112 20.3103 17.1174 20.1723 17.3486 19.9281C17.5863 19.6768 17.7111 19.348 17.7111 18.9773H16.7111ZM21.5444 15.7939L19.7351 19.7939L20.6462 20.2061L22.4556 16.2061L21.5444 15.7939ZM20.6463 19.794L18.8376 15.794L17.9264 16.206L19.7351 20.206L20.6463 19.794Z" fill="black"/>
</svg>
