<svg width="32" height="32" viewBox="0 0 32 32" fill="none" xmlns="http://www.w3.org/2000/svg">
<path d="M18.7021 22.6852C18.7021 24.2398 17.4093 25.5 15.8145 25.5C14.2197 25.5 12.9269 24.2398 12.9269 22.6852H18.7021Z" stroke="black" stroke-linecap="round"/>
<path d="M22.8284 22.6852H9.1717C8.33504 22.6852 7.92878 22.0021 8.01032 21.2236C8.02973 21.0383 8.1063 20.8651 8.19925 20.7036L9.46872 18.4976C9.74884 18.0108 9.92331 17.4705 9.98079 16.9119L10.2872 13.9339C10.3144 13.6695 10.3531 13.4075 10.4301 13.1531C10.7053 12.2443 11.5982 9.96741 13.8344 9.02724V8.61111C13.8344 7.44518 14.804 6.5 16.0001 6.5C17.1962 6.5 18.1658 7.44518 18.1658 8.61111V9.02725C20.3271 9.93595 21.2336 12.0933 21.5403 13.0573C21.6411 13.3742 21.6851 13.7033 21.7108 14.0349L21.926 16.8057C21.9747 17.4326 22.1705 18.0391 22.4975 18.5762L23.7818 20.6855C23.8873 20.8589 23.9738 21.0467 23.9923 21.2487C24.0626 22.0167 23.6561 22.6852 22.8284 22.6852Z" stroke="black" stroke-linecap="round"/>
<path d="M24.6668 13C25.3334 10.3333 23.6668 7.66665 21.3335 7M7.27701 13C6.61041 10.3333 8.27707 7.66665 10.6103 7" stroke="black" stroke-linecap="round"/>
</svg>
