<svg width="32" height="32" viewBox="0 0 32 32" fill="none" xmlns="http://www.w3.org/2000/svg">
<path d="M16 19.1667V19.8704M16 12.1296V16.3518M18.702 22.6852C18.702 24.2398 17.4092 25.5 15.8144 25.5C14.2196 25.5 12.9268 24.2398 12.9268 22.6852H18.702ZM9.17164 22.6852H22.8284C23.656 22.6852 24.0625 22.0167 23.9923 21.2487C23.9738 21.0467 23.8873 20.8589 23.7817 20.6855L22.4974 18.5762C22.1704 18.0391 21.9746 17.4326 21.9259 16.8057L21.7108 14.0349C21.685 13.7033 21.6411 13.3742 21.5402 13.0573C21.2335 12.0933 20.3271 9.93595 18.1657 9.02725V8.61111C18.1657 7.44518 17.1961 6.5 16 6.5C14.8039 6.5 13.8343 7.44518 13.8343 8.61111V9.02724C11.5981 9.96741 10.7052 12.2443 10.4301 13.1531C10.353 13.4075 10.3143 13.6695 10.2871 13.9339L9.98073 16.9119C9.92325 17.4705 9.74878 18.0108 9.46866 18.4976L8.19919 20.7036C8.10624 20.8651 8.02967 21.0383 8.01026 21.2236C7.92872 22.0021 8.33498 22.6852 9.17164 22.6852Z" stroke="black" stroke-linecap="round"/>
</svg>
