<svg width="32" height="32" viewBox="0 0 32 32" fill="none" xmlns="http://www.w3.org/2000/svg">
<path d="M6.5 8.32692C6.5 7.31794 7.31794 6.5 8.32692 6.5H23.6731C24.6821 6.5 25.5 7.31794 25.5 8.32692C25.5 9.3359 24.6821 10.1538 23.6731 10.1538H8.32692C7.31794 10.1538 6.5 9.3359 6.5 8.32692Z" stroke="black" stroke-linecap="round"/>
<path d="M6.5 15.0769C6.5 13.9723 7.39543 13.0769 8.5 13.0769H23.5C24.6046 13.0769 25.5 13.9723 25.5 15.0769V16.9231C25.5 18.0276 24.6046 18.9231 23.5 18.9231H8.5C7.39543 18.9231 6.5 18.0276 6.5 16.9231V15.0769Z" stroke="black" stroke-linecap="round"/>
<path d="M6.5 23.6731C6.5 22.6641 7.31794 21.8462 8.32692 21.8462H23.6731C24.6821 21.8462 25.5 22.6641 25.5 23.6731C25.5 24.6821 24.6821 25.5 23.6731 25.5H8.32692C7.31794 25.5 6.5 24.6821 6.5 23.6731Z" stroke="black" stroke-linecap="round"/>
</svg>
