<svg width="32" height="32" viewBox="0 0 32 32" fill="none" xmlns="http://www.w3.org/2000/svg">
<path d="M9.79979 7.03008C11.6214 5.7687 13.7843 5.09292 16 5.09292C18.2157 5.09292 20.3786 5.76871 22.2002 7.03008M24.9693 9.79916C26.2307 11.6207 26.9064 13.7837 26.9064 15.9994C26.9064 18.2151 26.2307 20.378 24.9693 22.1996M7.0307 9.79916C5.76933 11.6207 5.09355 13.7837 5.09355 15.9994C5.09355 18.215 5.76933 20.378 7.03071 22.1996M9.79978 24.9687C11.6214 26.23 13.7843 26.9058 16 26.9058C18.2157 26.9058 20.3786 26.23 22.2002 24.9687M11.9672 10.1668C13.1527 9.34801 14.5593 8.90945 16 8.90945C17.4407 8.90945 18.8473 9.34801 20.0328 10.1668M21.8325 11.9666C22.6514 13.152 23.0899 14.5586 23.0899 15.9994C23.0899 17.4401 22.6514 18.8467 21.8325 20.0321M10.1675 11.9666C9.34864 13.152 8.91007 14.5586 8.91007 15.9994C8.91007 17.4401 9.34864 18.8467 10.1675 20.0321M11.9672 21.8319C13.1527 22.6507 14.5593 23.0893 16 23.0893C17.4407 23.0893 18.8473 22.6507 20.0328 21.8319M20.3709 11.8856L20.1138 11.6285C19.9332 11.4482 19.8216 11.2102 19.7983 10.9561C19.775 10.7019 19.8416 10.4476 19.9865 10.2375L22.5692 6.49786C22.6151 6.43319 22.6747 6.37932 22.7436 6.34002C22.8125 6.30072 22.8892 6.27695 22.9683 6.27034C23.0474 6.26373 23.1269 6.27445 23.2014 6.30176C23.2759 6.32907 23.3436 6.3723 23.3996 6.42844L25.5748 8.6036C25.6309 8.65967 25.6742 8.72731 25.7015 8.80181C25.7288 8.87631 25.7395 8.95587 25.7329 9.03494C25.7263 9.11402 25.7025 9.19069 25.6632 9.25963C25.6239 9.32856 25.57 9.38809 25.5054 9.43406L21.7657 12.0167C21.5548 12.1621 21.2995 12.2287 21.0445 12.2047C20.7894 12.1807 20.551 12.0678 20.3709 11.8856ZM11.8862 20.3702L11.6291 20.1131C11.4488 19.9326 11.2108 19.8209 10.9567 19.7977C10.7025 19.7744 10.4483 19.841 10.2382 19.9859L6.49849 22.5685C6.43382 22.6145 6.37995 22.674 6.34065 22.743C6.30135 22.8119 6.27758 22.8886 6.27097 22.9677C6.26436 23.0467 6.27508 23.1263 6.30239 23.2008C6.3297 23.2753 6.37293 23.3429 6.42907 23.399L8.60423 25.5742C8.6603 25.6303 8.72794 25.6735 8.80244 25.7008C8.87694 25.7282 8.9565 25.7389 9.03557 25.7323C9.11465 25.7257 9.19132 25.7019 9.26026 25.6626C9.32919 25.6233 9.38872 25.5694 9.43469 25.5047L12.0174 21.7651C12.1627 21.5542 12.2293 21.2988 12.2053 21.0438C12.1813 20.7888 12.0684 20.5503 11.8862 20.3702ZM20.1138 20.3702L20.3709 20.1131C20.5512 19.9326 20.7892 19.8209 21.0433 19.7977C21.2975 19.7744 21.5517 19.841 21.7619 19.9859L25.5015 22.5685C25.5662 22.6145 25.6201 22.674 25.6593 22.743C25.6986 22.8119 25.7224 22.8886 25.729 22.9676C25.7357 23.0467 25.7249 23.1263 25.6976 23.2008C25.6703 23.2753 25.6271 23.3429 25.5709 23.399L23.3958 25.5742C23.3397 25.6303 23.2721 25.6735 23.1976 25.7008C23.1231 25.7281 23.0435 25.7389 22.9644 25.7323C22.8854 25.7256 22.8087 25.7019 22.7397 25.6626C22.6708 25.6233 22.6113 25.5694 22.5653 25.5047L19.9826 21.7651C19.8372 21.5542 19.7707 21.2989 19.7947 21.0438C19.8187 20.7888 19.9316 20.5503 20.1138 20.3702ZM11.6291 11.8856L11.8862 11.6285C12.0668 11.4482 12.1784 11.2102 12.2017 10.9561C12.2249 10.7019 12.1584 10.4476 12.0135 10.2375L9.43084 6.49785C9.38487 6.43318 9.32534 6.37932 9.25641 6.34002C9.18747 6.30073 9.1108 6.27694 9.03173 6.27033C8.95266 6.26372 8.87308 6.27446 8.79858 6.30176C8.72408 6.32907 8.65643 6.3723 8.60036 6.42845L6.42522 8.60359C6.36908 8.65966 6.32584 8.72731 6.29854 8.80181C6.27123 8.87631 6.26051 8.95587 6.26712 9.03494C6.27373 9.11401 6.2975 9.1907 6.3368 9.25963C6.3761 9.32857 6.42996 9.38809 6.49463 9.43407L10.2343 12.0167C10.4452 12.1621 10.7005 12.2287 10.9555 12.2047C11.2106 12.1807 11.449 12.0678 11.6291 11.8856Z" stroke="black" stroke-linecap="round" stroke-linejoin="round"/>
</svg>
