<svg width="32" height="32" viewBox="0 0 32 32" fill="none" xmlns="http://www.w3.org/2000/svg">
<path d="M13.1854 17.5039L15.5157 14.1362V17.5039H13.1854ZM8.42076 16.5597L8.42073 16.5596L8.41741 16.5644C7.80885 17.4311 7.5 18.391 7.5 19.4317V20.4587C7.5 20.982 7.69935 21.4413 8.07228 21.8143C8.4452 22.1872 8.90455 22.3865 9.42779 22.3865H15.5157V23.7151C15.5157 24.2383 15.715 24.6977 16.0879 25.0706C16.4609 25.4435 16.9202 25.6429 17.4434 25.6429H19.3472C19.8704 25.6429 20.3297 25.4435 20.7027 25.0706C21.0756 24.6977 21.275 24.2383 21.275 23.7151V22.3865H21.8521C22.3753 22.3865 22.8346 22.1872 23.2076 21.8143C23.5805 21.4413 23.7798 20.982 23.7798 20.4587V19.4317C23.7798 18.9085 23.5805 18.4492 23.2076 18.0762C22.8346 17.7033 22.3753 17.5039 21.8521 17.5039H21.275V8.28497C21.275 7.76173 21.0756 7.30238 20.7027 6.92945C20.3297 6.55653 19.8704 6.35718 19.3472 6.35718H17.4434C16.3319 6.35718 15.4287 6.81775 14.7829 7.71774C14.7829 7.71782 14.7828 7.7179 14.7828 7.71797L8.42076 16.5597ZM21.275 22.1109C21.275 22.1109 21.275 22.1113 21.275 22.1122V22.112C21.275 22.1113 21.275 22.1109 21.275 22.1109ZM21.275 17.7785V17.7783C21.275 17.7799 21.275 17.78 21.275 17.7785Z" stroke="black"/>
</svg>
