<svg width="32" height="32" viewBox="0 0 32 32" fill="none" xmlns="http://www.w3.org/2000/svg">
<path d="M12.1882 8.51787C12.3501 9.86406 12.9991 11.6544 13.9143 12.862M12.1882 8.51787C12.6228 6.50099 15.9056 6.93931 17.2118 6.49133C17.4627 6.40528 17.6369 6.22286 17.7581 5.99533M12.1882 8.51787C12.1879 8.5198 12.1873 8.52174 12.1869 8.52367C12.1574 8.2913 12.1418 8.0715 12.1418 7.86975C12.1418 5.74394 13.1538 3.99682 15.9686 4.00037C16.7012 4.00134 17.8293 3.96041 18.0103 4.50958M13.9143 12.862L15.3882 13.5191M13.9143 12.862L13.6875 12.7608C13.6299 12.7353 13.5649 12.7769 13.5649 12.8397L13.5648 15.2076M15.3882 13.5191C15.4451 13.4501 15.5318 13.4063 15.6287 13.4063H16.371C16.4678 13.4063 16.5546 13.4501 16.6118 13.5191M15.3882 13.5191C15.344 13.5723 15.3177 13.6403 15.3177 13.7147V14.3322C15.3177 14.4067 15.344 14.4747 15.3882 14.5279M16.6118 13.5191L18.0854 12.862M16.6118 13.5191C16.656 13.5723 16.6823 13.6403 16.6823 13.7147V14.3322C16.6823 14.4067 16.656 14.4747 16.6118 14.5279M18.0854 12.862C19.0756 11.5557 19.7539 9.5682 19.841 8.19816M18.0854 12.862L18.3124 12.7606C18.3699 12.7351 18.4349 12.7767 18.4349 12.8396L18.4349 15.2076M19.841 8.19816C19.0415 7.74825 17.9651 6.73014 17.7581 5.99533M19.841 8.19816C19.8436 8.19945 19.8459 8.20104 19.8485 8.20233C19.8524 8.12692 19.8544 8.05311 19.8544 7.98189C20.0731 6.68661 18.7318 4.25208 18.0103 4.50958M17.7581 5.99533C17.9632 5.61052 18.0174 5.09615 18.0347 4.69909C18.036 4.67169 18.0353 4.64527 18.033 4.62013C18.0295 4.58081 18.022 4.54375 18.0103 4.50958M7.78041 19.0238C9.69726 18.415 12.0691 18.0147 14.6675 17.9122C15.1072 17.8935 15.5508 17.8861 15.998 17.8861C19.1171 17.8861 21.979 18.3128 24.2189 19.0245M7.78041 19.0238C7.70566 18.7966 7.79731 18.5265 7.89026 18.2935C8.07063 17.8529 8.25198 17.4137 8.43821 16.9766C8.68228 16.4014 8.93578 15.8222 9.31961 15.3288C9.32773 15.3185 9.33586 15.3082 9.34398 15.2975C9.35211 15.2885 9.36023 15.2792 9.36836 15.2688C10.2127 14.2378 11.5767 13.7905 12.8212 13.4434C13.0669 13.3748 13.3148 13.3126 13.5648 13.2568V15.2076M7.78041 19.0238C4.86288 19.9507 3 21.3615 3 22.9433C3 24.7433 5.4154 26.3219 9.05378 27.2165V27.2201C11.0629 27.7154 13.4409 28 15.998 28C18.5551 28 20.9371 27.7154 22.9462 27.2201V27.2165C26.5846 26.3219 29 24.7433 29 22.9433C29 21.3622 27.1374 19.9514 24.2189 19.0245M24.2189 19.0245C24.294 18.7969 24.2027 18.5268 24.1094 18.2935C23.929 17.8529 23.7477 17.4137 23.5614 16.9766C23.3174 16.4014 23.0639 15.8222 22.6787 15.3288C22.6719 15.3185 22.6638 15.3082 22.6557 15.2975C22.6475 15.2885 22.6381 15.2792 22.6313 15.2688C21.7869 14.2378 20.4229 13.7905 19.1785 13.4434C18.9328 13.3748 18.6848 13.3126 18.4349 13.2568V15.2076M18.4349 15.2076C18.4349 15.2701 18.3699 15.3117 18.3124 15.2862L17.5454 14.9443M17.5454 14.9443C17.275 15.8374 16.856 16.6656 16.2889 17.4288C16.2005 17.5497 16.1072 17.6686 16.0107 17.7849C16.0075 17.7898 16.0026 17.7943 15.9993 17.7988C15.2843 16.9347 14.7689 15.983 14.454 14.9443M17.5454 14.9443L16.6118 14.5279M14.454 14.9443L13.6873 15.2862C13.6298 15.3117 13.5648 15.2701 13.5648 15.2076M14.454 14.9443L15.3882 14.5279M15.3882 14.5279C15.4451 14.5968 15.5318 14.641 15.6287 14.641H16.371C16.4678 14.641 16.5546 14.5968 16.6118 14.5279M19.5397 24.6752L21.8125 25.9782C21.842 25.9945 21.8778 25.9945 21.9072 25.9782C21.9234 25.9687 21.9334 25.9557 21.9429 25.9428L24.0886 22.2566C24.1148 22.2112 24.0985 22.1532 24.0528 22.1272L21.7801 20.8242C21.7343 20.7983 21.6758 20.8147 21.6496 20.8597L19.5202 24.5168L19.504 24.5458C19.4778 24.5913 19.4944 24.6493 19.5397 24.6752ZM16.305 23.7536C16.305 23.7991 16.3377 23.8379 16.3835 23.8476L18.9692 24.3004C19.0084 24.3069 19.0474 24.2875 19.067 24.255C19.0735 24.2455 19.0769 24.2355 19.08 24.2226L19.8267 20.032C19.8332 19.9801 19.8009 19.9286 19.7485 19.9188L17.1628 19.4693C17.1105 19.4598 17.0585 19.4953 17.052 19.5468L16.3052 23.7345L16.305 23.7536ZM12.9335 24.255C12.9531 24.2873 12.992 24.3068 13.0313 24.3004L15.617 23.8476C15.6628 23.8381 15.6955 23.7991 15.6955 23.7536V23.7345L14.9486 19.5468C14.939 19.5017 14.8997 19.4693 14.8539 19.4693H14.8376L12.2519 19.9187C12.1996 19.9286 12.1639 19.9801 12.1735 20.032L12.9203 24.2226C12.9234 24.2355 12.927 24.2454 12.9335 24.255ZM7.91188 22.2566L10.0575 25.9428C10.064 25.9557 10.0772 25.9687 10.0933 25.9782C10.1225 25.9945 10.1584 25.9945 10.188 25.9782L12.4607 24.6752C12.5062 24.6493 12.5227 24.5913 12.4965 24.5458L12.4802 24.5168L10.3508 20.8597C10.3247 20.8145 10.2662 20.7983 10.2204 20.8242L7.94763 22.1272C7.90181 22.1532 7.88572 22.2112 7.91188 22.2566Z" stroke="black" stroke-linejoin="round"/>
</svg>
