<svg width="32" height="32" viewBox="0 0 32 32" fill="none" xmlns="http://www.w3.org/2000/svg">
<path d="M25.9099 28.4385V28.9386L25.9212 28.9384L25.9099 28.4385ZM8.48002 28.4385V27.9385L8.47531 27.9385L8.48002 28.4385ZM7.26536 27.3491H6.76536V27.3739L6.76782 27.3986L7.26536 27.3491ZM27.5218 6.5022L27.5361 6.0024L27.529 6.0022H27.5218V6.5022ZM27.9902 7.16126L27.5135 7.01052L27.4999 7.05339L27.4942 7.09799L27.9902 7.16126ZM26.874 27.3491H26.374V27.374L26.3765 27.3987L26.874 27.3491ZM14.391 25.7149C14.391 25.991 14.6148 26.2149 14.891 26.2149C15.1671 26.2149 15.391 25.991 15.391 25.7149H14.391ZM8.94413 25.7149C8.94413 25.991 9.16799 26.2149 9.44413 26.2149C9.72027 26.2149 9.94413 25.991 9.94413 25.7149H8.94413ZM16.525 18.6787C16.2489 18.6787 16.025 18.9025 16.025 19.1787C16.025 19.4548 16.2489 19.6787 16.525 19.6787V18.6787ZM18.1542 19.6787C18.4303 19.6787 18.6542 19.4548 18.6542 19.1787C18.6542 18.9025 18.4303 18.6787 18.1542 18.6787V19.6787ZM16.525 20.3127C16.2489 20.3127 16.025 20.5366 16.025 20.8127C16.025 21.0889 16.2489 21.3127 16.525 21.3127V20.3127ZM19.5159 21.3127C19.792 21.3127 20.0159 21.0889 20.0159 20.8127C20.0159 20.5366 19.792 20.3127 19.5159 20.3127V21.3127ZM21.4272 20.3127C21.151 20.3127 20.9272 20.5366 20.9272 20.8127C20.9272 21.0889 21.151 21.3127 21.4272 21.3127V20.3127ZM24.418 21.3127C24.6942 21.3127 24.918 21.0889 24.918 20.8127C24.918 20.5366 24.6942 20.3127 24.418 20.3127V21.3127ZM13.2569 12.6871C12.9808 12.6871 12.7569 12.911 12.7569 13.1871C12.7569 13.4633 12.9808 13.6871 13.2569 13.6871V12.6871ZM20.3378 13.6871C20.614 13.6871 20.8378 13.4633 20.8378 13.1871C20.8378 12.911 20.614 12.6871 20.3378 12.6871V13.6871ZM16.525 23.0362C16.2489 23.0362 16.025 23.26 16.025 23.5362C16.025 23.8123 16.2489 24.0362 16.525 24.0362V23.0362ZM18.1542 24.0362C18.4303 24.0362 18.6542 23.8123 18.6542 23.5362C18.6542 23.26 18.4303 23.0362 18.1542 23.0362V24.0362ZM16.5201 24.6702C16.244 24.6702 16.0201 24.8941 16.0201 25.1702C16.0201 25.4463 16.244 25.6702 16.5201 25.6702V24.6702ZM19.2435 25.6702C19.5197 25.6702 19.7435 25.4463 19.7435 25.1702C19.7435 24.8941 19.5197 24.6702 19.2435 24.6702V25.6702ZM21.4272 24.6702C21.151 24.6702 20.9272 24.8941 20.9272 25.1702C20.9272 25.4463 21.151 25.6702 21.4272 25.6702V24.6702ZM24.418 25.6702C24.6942 25.6702 24.918 25.4463 24.918 25.1702C24.918 24.8941 24.6942 24.6702 24.418 24.6702V25.6702ZM11.7778 6.0022C11.5017 6.0022 11.2778 6.22605 11.2778 6.5022C11.2778 6.77834 11.5017 7.0022 11.7778 7.0022V6.0022ZM7.3983 14.0551C7.34328 13.7845 7.07931 13.6098 6.8087 13.6648C6.53809 13.7198 6.36333 13.9838 6.41835 14.2544L7.3983 14.0551ZM25.9099 27.9385H8.48002V28.9385H25.9099V27.9385ZM8.47531 27.9385C8.29822 27.9402 8.12692 27.8755 7.9951 27.7573L7.32743 28.5018C7.64515 28.7867 8.05799 28.9425 8.48473 28.9385L8.47531 27.9385ZM7.9951 27.7573C7.86328 27.6391 7.78045 27.4758 7.76291 27.2996L6.76782 27.3986C6.8101 27.8233 7.0097 28.2168 7.32743 28.5018L7.9951 27.7573ZM7.76536 27.3491V15.9107H6.76536V27.3491H7.76536ZM27.5074 7.00199C27.5084 7.00202 27.5094 7.00228 27.5103 7.00276L27.9816 6.12082C27.8443 6.04742 27.6918 6.00688 27.5361 6.0024L27.5074 7.00199ZM27.5103 7.00276C27.5112 7.00326 27.512 7.00395 27.5126 7.00474L28.3277 6.42542C28.2374 6.29845 28.119 6.1942 27.9816 6.12082L27.5103 7.00276ZM27.5126 7.00474C27.5131 7.00554 27.5135 7.00648 27.5137 7.00752L28.5016 6.85233C28.4774 6.69852 28.4179 6.55238 28.3277 6.42542L27.5126 7.00474ZM27.5137 7.00752C27.5138 7.00851 27.5138 7.00953 27.5135 7.01052L28.4669 7.31201C28.5139 7.16354 28.5257 7.00619 28.5016 6.85233L27.5137 7.00752ZM27.4942 7.09799L26.378 15.8475L27.37 15.974L28.4862 7.22453L27.4942 7.09799ZM26.374 15.9107V27.3491H27.374V15.9107H26.374ZM26.3765 27.3987C26.3832 27.466 26.3759 27.5341 26.3551 27.5985L27.3066 27.906C27.3698 27.7105 27.3919 27.504 27.3715 27.2995L26.3765 27.3987ZM26.3551 27.5985C26.3343 27.6629 26.3004 27.7223 26.2555 27.773L27.0044 28.4358C27.1405 28.2819 27.2434 28.1016 27.3066 27.906L26.3551 27.5985ZM26.2555 27.773C26.2106 27.8237 26.1558 27.8646 26.0944 27.8931L26.5153 28.8002C26.7017 28.7137 26.8682 28.5896 27.0044 28.4358L26.2555 27.773ZM26.0944 27.8931C26.033 27.9216 25.9663 27.9371 25.8987 27.9386L25.9212 28.9384C26.1266 28.9337 26.3289 28.8867 26.5153 28.8002L26.0944 27.8931ZM7.26536 16.4107H26.874V15.4107H7.26536V16.4107ZM12.1676 23.4915C12.7335 23.4915 13.2763 23.2666 13.6766 22.8664L12.9694 22.1593C12.7568 22.372 12.4683 22.4915 12.1676 22.4915V23.4915ZM13.6766 22.8664C14.0768 22.4662 14.3016 21.9234 14.3016 21.3574H13.3016C13.3016 21.6582 13.1821 21.9466 12.9694 22.1593L13.6766 22.8664ZM14.3016 21.3574V20.8127H13.3016V21.3574H14.3016ZM14.3016 20.8127C14.3016 20.2467 14.0768 19.7039 13.6766 19.3037L12.9694 20.0108C13.1821 20.2235 13.3016 20.512 13.3016 20.8127H14.3016ZM13.6766 19.3037C13.2763 18.9035 12.7335 18.6787 12.1676 18.6787V19.6787C12.4683 19.6787 12.7568 19.7982 12.9694 20.0108L13.6766 19.3037ZM12.1676 18.6787C11.6016 18.6787 11.0588 18.9035 10.6586 19.3037L11.3657 20.0108C11.5783 19.7982 11.8668 19.6787 12.1676 19.6787V18.6787ZM10.6586 19.3037C10.2584 19.7039 10.0335 20.2467 10.0335 20.8127H11.0335C11.0335 20.512 11.153 20.2235 11.3657 20.0108L10.6586 19.3037ZM10.0335 20.8127V21.3574H11.0335V20.8127H10.0335ZM10.0335 21.3574C10.0335 21.9234 10.2584 22.4662 10.6586 22.8664L11.3657 22.1593C11.153 21.9466 11.0335 21.6582 11.0335 21.3574H10.0335ZM10.6586 22.8664C11.0588 23.2666 11.6016 23.4915 12.1676 23.4915V22.4915C11.8668 22.4915 11.5783 22.372 11.3657 22.1593L10.6586 22.8664ZM15.391 25.7149V24.6255H14.391V25.7149H15.391ZM15.391 24.6255C15.391 23.7369 14.7068 23.2005 14.0864 22.9135C13.4469 22.6176 12.6929 22.4915 12.1676 22.4915V23.4915C12.5681 23.4915 13.1758 23.5941 13.6666 23.8211C14.1764 24.057 14.391 24.3376 14.391 24.6255H15.391ZM12.1676 22.4915C11.6422 22.4915 10.8882 22.6176 10.2487 22.9135C9.62833 23.2005 8.94413 23.7369 8.94413 24.6255H9.94413C9.94413 24.3376 10.1587 24.057 10.6685 23.8211C11.1593 23.5941 11.767 23.4915 12.1676 23.4915V22.4915ZM8.94413 24.6255V25.7149H9.94413V24.6255H8.94413ZM16.525 19.6787H18.1542V18.6787H16.525V19.6787ZM16.525 21.3127H19.5159V20.3127H16.525V21.3127ZM21.4272 21.3127H24.418V20.3127H21.4272V21.3127ZM13.2569 13.6871H20.3378V12.6871H13.2569V13.6871ZM16.525 24.0362H18.1542V23.0362H16.525V24.0362ZM16.5201 25.6702H19.2435V24.6702H16.5201V25.6702ZM21.4272 25.6702H24.418V24.6702H21.4272V25.6702ZM11.7778 7.0022H27.5218V6.0022H11.7778V7.0022ZM7.75534 15.8111L7.3983 14.0551L6.41835 14.2544L6.77539 16.0104L7.75534 15.8111Z" fill="black"/>
<path d="M5.24174 13.6218L5.45348 13.263L5.24174 13.6218ZM7.99948 13.6218L7.78773 13.263L7.99948 13.6218ZM7.03727 5.24348C7.03727 5.01336 6.85072 4.82681 6.6206 4.82681C6.39049 4.82681 6.20394 5.01336 6.20394 5.24348H7.03727ZM6.20394 8.57681C6.20394 8.80693 6.39049 8.99348 6.6206 8.99348C6.85072 8.99348 7.03727 8.80693 7.03727 8.57681H6.20394ZM7.03727 10.2261C7.03727 9.996 6.85072 9.80945 6.62061 9.80945C6.39049 9.80945 6.20394 9.996 6.20394 10.2261H7.03727ZM6.20394 10.8684C6.20394 11.0985 6.39049 11.2851 6.62061 11.2851C6.85072 11.2851 7.03727 11.0985 7.03727 10.8684H6.20394ZM4.12061 2.84757H9.12061V2.01424H4.12061V2.84757ZM11.2039 4.93091V8.25638H12.0373V4.93091H11.2039ZM2.03727 8.25638V4.93091H1.20394V8.25638H2.03727ZM5.45348 13.263C3.44725 12.0792 2.03727 10.2972 2.03727 8.25638H1.20394C1.20394 10.7084 2.88915 12.7174 5.02999 13.9807L5.45348 13.263ZM11.2039 8.25638C11.2039 10.2972 9.79396 12.0792 7.78773 13.263L8.21122 13.9807C10.3521 12.7174 12.0373 10.7084 12.0373 8.25638H11.2039ZM5.02999 13.9807C6.0106 14.5593 7.23061 14.5593 8.21122 13.9807L7.78773 13.263C7.0684 13.6874 6.17282 13.6874 5.45348 13.263L5.02999 13.9807ZM9.12061 2.84757C10.2712 2.84757 11.2039 3.78032 11.2039 4.93091H12.0373C12.0373 3.32008 10.7314 2.01424 9.12061 2.01424V2.84757ZM4.12061 2.01424C2.50977 2.01424 1.20394 3.32008 1.20394 4.93091H2.03727C2.03727 3.78032 2.97001 2.84757 4.12061 2.84757V2.01424ZM6.20394 5.24348L6.20394 8.57681H7.03727L7.03727 5.24348H6.20394ZM6.20394 10.2261V10.8684H7.03727V10.2261H6.20394Z" fill="black"/>
</svg>
