<svg width="32" height="32" viewBox="0 0 32 32" fill="none" xmlns="http://www.w3.org/2000/svg">
<path d="M24.9097 27.4386V27.9387L24.921 27.9385L24.9097 27.4386ZM7.47984 27.4386V26.9386L7.47513 26.9386L7.47984 27.4386ZM6.26518 26.3492H5.76518V26.3741L5.76764 26.3988L6.26518 26.3492ZM4.28798 5.22091L3.79162 5.28117L3.79405 5.30115L3.79807 5.32088L4.28798 5.22091ZM4.88168 4.56185L4.87341 5.06185H4.88168V4.56185ZM27.5079 4.56185L27.5223 4.06205L27.5151 4.06185H27.5079V4.56185ZM27.9763 5.22091L27.4996 5.07017L27.4926 5.09225L27.4877 5.11489L27.9763 5.22091ZM25.8738 26.3492H25.3738V26.3741L25.3763 26.3988L25.8738 26.3492ZM13.3908 24.715C13.3908 24.9912 13.6147 25.215 13.8908 25.215C14.1669 25.215 14.3908 24.9912 14.3908 24.715H13.3908ZM7.94395 24.715C7.94395 24.9912 8.16781 25.215 8.44395 25.215C8.72009 25.215 8.94395 24.9912 8.94395 24.715H7.94395ZM15.5248 17.6788C15.2487 17.6788 15.0248 17.9027 15.0248 18.1788C15.0248 18.4549 15.2487 18.6788 15.5248 18.6788V17.6788ZM17.154 18.6788C17.4301 18.6788 17.654 18.4549 17.654 18.1788C17.654 17.9027 17.4301 17.6788 17.154 17.6788V18.6788ZM15.5248 19.3128C15.2487 19.3128 15.0248 19.5367 15.0248 19.8128C15.0248 20.089 15.2487 20.3128 15.5248 20.3128V19.3128ZM18.5157 20.3128C18.7918 20.3128 19.0157 20.089 19.0157 19.8128C19.0157 19.5367 18.7918 19.3128 18.5157 19.3128V20.3128ZM20.427 19.3128C20.1509 19.3128 19.927 19.5367 19.927 19.8128C19.927 20.089 20.1509 20.3128 20.427 20.3128V19.3128ZM23.4179 20.3128C23.694 20.3128 23.9179 20.089 23.9179 19.8128C23.9179 19.5367 23.694 19.3128 23.4179 19.3128V20.3128ZM12.2567 11.6873C11.9806 11.6873 11.7567 11.9111 11.7567 12.1873C11.7567 12.4634 11.9806 12.6873 12.2567 12.6873V11.6873ZM19.3376 12.6873C19.6138 12.6873 19.8376 12.4634 19.8376 12.1873C19.8376 11.9111 19.6138 11.6873 19.3376 11.6873V12.6873ZM15.5248 22.0363C15.2487 22.0363 15.0248 22.2601 15.0248 22.5363C15.0248 22.8124 15.2487 23.0363 15.5248 23.0363V22.0363ZM17.154 23.0363C17.4301 23.0363 17.654 22.8124 17.654 22.5363C17.654 22.2601 17.4301 22.0363 17.154 22.0363V23.0363ZM15.5199 23.6703C15.2438 23.6703 15.0199 23.8942 15.0199 24.1703C15.0199 24.4465 15.2438 24.6703 15.5199 24.6703V23.6703ZM18.2434 24.6703C18.5195 24.6703 18.7434 24.4465 18.7434 24.1703C18.7434 23.8942 18.5195 23.6703 18.2434 23.6703V24.6703ZM20.427 23.6703C20.1509 23.6703 19.927 23.8942 19.927 24.1703C19.927 24.4465 20.1509 24.6703 20.427 24.6703V23.6703ZM23.4179 24.6703C23.694 24.6703 23.9179 24.4465 23.9179 24.1703C23.9179 23.8942 23.694 23.6703 23.4179 23.6703V24.6703ZM24.9097 26.9386H7.47984V27.9386H24.9097V26.9386ZM7.47513 26.9386C7.29804 26.9403 7.12674 26.8757 6.99492 26.7574L6.32725 27.5019C6.64497 27.7868 7.05781 27.9426 7.48455 27.9386L7.47513 26.9386ZM6.99492 26.7574C6.8631 26.6392 6.78027 26.4759 6.76273 26.2997L5.76764 26.3988C5.80992 26.8234 6.00952 27.2169 6.32725 27.5019L6.99492 26.7574ZM6.76518 26.3492V14.9109H5.76518V26.3492H6.76518ZM6.75509 14.8109L4.77788 5.12095L3.79807 5.32088L5.77528 15.0108L6.75509 14.8109ZM4.78433 5.16066C4.78282 5.14817 4.78399 5.13548 4.7878 5.12342L3.83433 4.82195C3.78746 4.97019 3.77288 5.12677 3.79162 5.28117L4.78433 5.16066ZM4.7878 5.12342C4.79161 5.11138 4.79795 5.1003 4.80638 5.09095L4.06339 4.42165C3.9593 4.5372 3.8812 4.67371 3.83433 4.82195L4.7878 5.12342ZM4.80638 5.09095C4.81483 5.08157 4.82517 5.07413 4.83673 5.0691L4.43767 4.15217C4.29508 4.21423 4.16746 4.30612 4.06339 4.42165L4.80638 5.09095ZM4.83673 5.0691C4.84828 5.06407 4.86079 5.06157 4.87341 5.06178L4.88995 4.06192C4.73448 4.05934 4.58026 4.09012 4.43767 4.15217L4.83673 5.0691ZM4.88168 5.06185H27.5079V4.06185H4.88168V5.06185ZM27.4935 5.06164C27.4945 5.06167 27.4955 5.06193 27.4964 5.06241L27.9678 4.18047C27.8304 4.10707 27.6779 4.06653 27.5223 4.06205L27.4935 5.06164ZM27.4964 5.06241C27.4973 5.06291 27.4981 5.0636 27.4987 5.06439L28.3138 4.48507C28.2235 4.35811 28.1051 4.25385 27.9678 4.18047L27.4964 5.06241ZM27.4987 5.06439C27.4992 5.06519 27.4996 5.06613 27.4998 5.06717L28.4877 4.91198C28.4635 4.75818 28.404 4.61203 28.3138 4.48507L27.4987 5.06439ZM27.4998 5.06717C27.5 5.06816 27.4999 5.06918 27.4996 5.07017L28.453 5.37166C28.5 5.22319 28.5119 5.06584 28.4877 4.91198L27.4998 5.06717ZM27.4877 5.11489L25.3852 14.8048L26.3625 15.0169L28.4649 5.32693L27.4877 5.11489ZM25.3738 14.9109V26.3492H26.3738V14.9109H25.3738ZM25.3763 26.3988C25.383 26.4662 25.3757 26.5342 25.3549 26.5986L26.3065 26.9061C26.3696 26.7106 26.3917 26.5041 26.3714 26.2997L25.3763 26.3988ZM25.3549 26.5986C25.3341 26.663 25.3002 26.7224 25.2553 26.7731L26.0042 27.4359C26.1403 27.282 26.2433 27.1017 26.3065 26.9061L25.3549 26.5986ZM25.2553 26.7731C25.2104 26.8238 25.1556 26.8647 25.0942 26.8932L25.5151 27.8003C25.7015 27.7138 25.868 27.5897 26.0042 27.4359L25.2553 26.7731ZM25.0942 26.8932C25.0328 26.9217 24.9661 26.9372 24.8985 26.9387L24.921 27.9385C25.1265 27.9338 25.3287 27.8868 25.5151 27.8003L25.0942 26.8932ZM6.26518 15.4109H25.8738V14.4109H6.26518V15.4109ZM11.1674 22.4916C11.7334 22.4916 12.2762 22.2667 12.6764 21.8665L11.9693 21.1594C11.7566 21.3721 11.4681 21.4916 11.1674 21.4916V22.4916ZM12.6764 21.8665C13.0766 21.4663 13.3014 20.9235 13.3014 20.3575H12.3014C12.3014 20.6583 12.1819 20.9467 11.9693 21.1594L12.6764 21.8665ZM13.3014 20.3575V19.8128H12.3014V20.3575H13.3014ZM13.3014 19.8128C13.3014 19.2469 13.0766 18.7041 12.6764 18.3039L11.9693 19.011C12.1819 19.2236 12.3014 19.5121 12.3014 19.8128H13.3014ZM12.6764 18.3039C12.2762 17.9036 11.7334 17.6788 11.1674 17.6788V18.6788C11.4681 18.6788 11.7566 18.7983 11.9693 19.011L12.6764 18.3039ZM11.1674 17.6788C10.6014 17.6788 10.0586 17.9036 9.65837 18.3039L10.3655 19.011C10.5782 18.7983 10.8666 18.6788 11.1674 18.6788V17.6788ZM9.65837 18.3039C9.25817 18.7041 9.03332 19.2469 9.03332 19.8128H10.0333C10.0333 19.5121 10.1528 19.2236 10.3655 19.011L9.65837 18.3039ZM9.03332 19.8128V20.3575H10.0333V19.8128H9.03332ZM9.03332 20.3575C9.03332 20.9235 9.25817 21.4663 9.65837 21.8665L10.3655 21.1594C10.1528 20.9467 10.0333 20.6583 10.0333 20.3575H9.03332ZM9.65837 21.8665C10.0586 22.2667 10.6014 22.4916 11.1674 22.4916V21.4916C10.8666 21.4916 10.5782 21.3721 10.3655 21.1594L9.65837 21.8665ZM14.3908 24.715V23.6256H13.3908V24.715H14.3908ZM14.3908 23.6256C14.3908 22.737 13.7066 22.2006 13.0863 21.9136C12.4468 21.6178 11.6927 21.4916 11.1674 21.4916V22.4916C11.568 22.4916 12.1757 22.5942 12.6664 22.8212C13.1763 23.0571 13.3908 23.3377 13.3908 23.6256H14.3908ZM11.1674 21.4916C10.642 21.4916 9.88799 21.6178 9.24848 21.9136C8.62815 22.2006 7.94395 22.737 7.94395 23.6256H8.94395C8.94395 23.3377 9.15848 23.0571 9.66837 22.8212C10.1591 22.5942 10.7668 22.4916 11.1674 22.4916V21.4916ZM7.94395 23.6256V24.715H8.94395V23.6256H7.94395ZM15.5248 18.6788H17.154V17.6788H15.5248V18.6788ZM15.5248 20.3128H18.5157V19.3128H15.5248V20.3128ZM20.427 20.3128H23.4179V19.3128H20.427V20.3128ZM12.2567 12.6873H19.3376V11.6873H12.2567V12.6873ZM15.5248 23.0363H17.154V22.0363H15.5248V23.0363ZM15.5199 24.6703H18.2434V23.6703H15.5199V24.6703ZM20.427 24.6703H23.4179V23.6703H20.427V24.6703Z" fill="black"/>
</svg>
