<svg width="32" height="32" viewBox="0 0 32 32" fill="none" xmlns="http://www.w3.org/2000/svg">
<path d="M25.9098 28.4385V28.9386L25.9211 28.9384L25.9098 28.4385ZM8.4799 28.4385V27.9385L8.47518 27.9385L8.4799 28.4385ZM7.26524 27.3491H6.76524V27.3739L6.7677 27.3986L7.26524 27.3491ZM27.5216 6.5022L27.536 6.0024L27.5288 6.0022H27.5216V6.5022ZM27.9901 7.16126L27.5133 7.01052L27.4998 7.05339L27.4941 7.09799L27.9901 7.16126ZM26.8739 27.3491H26.3739V27.374L26.3764 27.3987L26.8739 27.3491ZM14.3908 25.7149C14.3908 25.991 14.6147 26.2149 14.8908 26.2149C15.167 26.2149 15.3908 25.991 15.3908 25.7149H14.3908ZM8.94401 25.7149C8.94401 25.991 9.16786 26.2149 9.44401 26.2149C9.72015 26.2149 9.94401 25.991 9.94401 25.7149H8.94401ZM16.5249 18.6787C16.2488 18.6787 16.0249 18.9025 16.0249 19.1787C16.0249 19.4548 16.2488 19.6787 16.5249 19.6787V18.6787ZM18.154 19.6787C18.4302 19.6787 18.654 19.4548 18.654 19.1787C18.654 18.9025 18.4302 18.6787 18.154 18.6787V19.6787ZM16.5249 20.3127C16.2488 20.3127 16.0249 20.5366 16.0249 20.8127C16.0249 21.0889 16.2488 21.3127 16.5249 21.3127V20.3127ZM19.5157 21.3127C19.7919 21.3127 20.0157 21.0889 20.0157 20.8127C20.0157 20.5366 19.7919 20.3127 19.5157 20.3127V21.3127ZM21.4271 20.3127C21.1509 20.3127 20.9271 20.5366 20.9271 20.8127C20.9271 21.0889 21.1509 21.3127 21.4271 21.3127V20.3127ZM24.4179 21.3127C24.6941 21.3127 24.9179 21.0889 24.9179 20.8127C24.9179 20.5366 24.6941 20.3127 24.4179 20.3127V21.3127ZM13.2568 12.6871C12.9807 12.6871 12.7568 12.911 12.7568 13.1871C12.7568 13.4633 12.9807 13.6871 13.2568 13.6871V12.6871ZM20.3377 13.6871C20.6138 13.6871 20.8377 13.4633 20.8377 13.1871C20.8377 12.911 20.6138 12.6871 20.3377 12.6871V13.6871ZM16.5249 23.0362C16.2488 23.0362 16.0249 23.26 16.0249 23.5362C16.0249 23.8123 16.2488 24.0362 16.5249 24.0362V23.0362ZM18.154 24.0362C18.4302 24.0362 18.654 23.8123 18.654 23.5362C18.654 23.26 18.4302 23.0362 18.154 23.0362V24.0362ZM16.52 24.6702C16.2438 24.6702 16.02 24.8941 16.02 25.1702C16.02 25.4463 16.2438 25.6702 16.52 25.6702V24.6702ZM19.2434 25.6702C19.5195 25.6702 19.7434 25.4463 19.7434 25.1702C19.7434 24.8941 19.5195 24.6702 19.2434 24.6702V25.6702ZM21.4271 24.6702C21.1509 24.6702 20.9271 24.8941 20.9271 25.1702C20.9271 25.4463 21.1509 25.6702 21.4271 25.6702V24.6702ZM24.4179 25.6702C24.6941 25.6702 24.9179 25.4463 24.9179 25.1702C24.9179 24.8941 24.6941 24.6702 24.4179 24.6702V25.6702ZM11.7777 6.0022C11.5015 6.0022 11.2777 6.22605 11.2777 6.5022C11.2777 6.77834 11.5015 7.0022 11.7777 7.0022V6.0022ZM7.39818 14.0551C7.34316 13.7845 7.07918 13.6098 6.80858 13.6648C6.53797 13.7198 6.36321 13.9838 6.41823 14.2544L7.39818 14.0551ZM25.9098 27.9385H8.4799V28.9385H25.9098V27.9385ZM8.47518 27.9385C8.2981 27.9402 8.1268 27.8755 7.99498 27.7573L7.3273 28.5018C7.64503 28.7867 8.05786 28.9425 8.48461 28.9385L8.47518 27.9385ZM7.99498 27.7573C7.86315 27.6391 7.78033 27.4758 7.76278 27.2996L6.7677 27.3986C6.80997 27.8233 7.00958 28.2168 7.3273 28.5018L7.99498 27.7573ZM7.76524 27.3491V15.9107H6.76524V27.3491H7.76524ZM27.5073 7.00199C27.5083 7.00202 27.5093 7.00228 27.5102 7.00276L27.9815 6.12082C27.8442 6.04742 27.6917 6.00688 27.536 6.0024L27.5073 7.00199ZM27.5102 7.00276C27.5111 7.00326 27.5119 7.00395 27.5124 7.00474L28.3275 6.42542C28.2373 6.29845 28.1188 6.1942 27.9815 6.12082L27.5102 7.00276ZM27.5124 7.00474C27.513 7.00554 27.5134 7.00648 27.5136 7.00752L28.5014 6.85233C28.4773 6.69852 28.4178 6.55238 28.3275 6.42542L27.5124 7.00474ZM27.5136 7.00752C27.5137 7.00851 27.5136 7.00953 27.5133 7.01052L28.4668 7.31201C28.5137 7.16354 28.5256 7.00619 28.5014 6.85233L27.5136 7.00752ZM27.4941 7.09799L26.3779 15.8475L27.3699 15.974L28.486 7.22453L27.4941 7.09799ZM26.3739 15.9107V27.3491H27.3739V15.9107H26.3739ZM26.3764 27.3987C26.3831 27.466 26.3758 27.5341 26.355 27.5985L27.3065 27.906C27.3697 27.7105 27.3918 27.504 27.3714 27.2995L26.3764 27.3987ZM26.355 27.5985C26.3342 27.6629 26.3003 27.7223 26.2554 27.773L27.0042 28.4358C27.1404 28.2819 27.2433 28.1016 27.3065 27.906L26.355 27.5985ZM26.2554 27.773C26.2105 27.8237 26.1556 27.8646 26.0943 27.8931L26.5152 28.8002C26.7016 28.7137 26.8681 28.5896 27.0042 28.4358L26.2554 27.773ZM26.0943 27.8931C26.0328 27.9216 25.9662 27.9371 25.8985 27.9386L25.9211 28.9384C26.1265 28.9337 26.3288 28.8867 26.5152 28.8002L26.0943 27.8931ZM7.26524 16.4107H26.8739V15.4107H7.26524V16.4107ZM12.1674 23.4915C12.7334 23.4915 13.2762 23.2666 13.6764 22.8664L12.9693 22.1593C12.7566 22.372 12.4682 22.4915 12.1674 22.4915V23.4915ZM13.6764 22.8664C14.0766 22.4662 14.3015 21.9234 14.3015 21.3574H13.3015C13.3015 21.6582 13.182 21.9466 12.9693 22.1593L13.6764 22.8664ZM14.3015 21.3574V20.8127H13.3015V21.3574H14.3015ZM14.3015 20.8127C14.3015 20.2467 14.0766 19.7039 13.6764 19.3037L12.9693 20.0108C13.182 20.2235 13.3015 20.512 13.3015 20.8127H14.3015ZM13.6764 19.3037C13.2762 18.9035 12.7334 18.6787 12.1674 18.6787V19.6787C12.4682 19.6787 12.7566 19.7982 12.9693 20.0108L13.6764 19.3037ZM12.1674 18.6787C11.6014 18.6787 11.0586 18.9035 10.6584 19.3037L11.3655 20.0108C11.5782 19.7982 11.8667 19.6787 12.1674 19.6787V18.6787ZM10.6584 19.3037C10.2582 19.7039 10.0334 20.2467 10.0334 20.8127H11.0334C11.0334 20.512 11.1529 20.2235 11.3655 20.0108L10.6584 19.3037ZM10.0334 20.8127V21.3574H11.0334V20.8127H10.0334ZM10.0334 21.3574C10.0334 21.9234 10.2582 22.4662 10.6584 22.8664L11.3655 22.1593C11.1529 21.9466 11.0334 21.6582 11.0334 21.3574H10.0334ZM10.6584 22.8664C11.0586 23.2666 11.6014 23.4915 12.1674 23.4915V22.4915C11.8667 22.4915 11.5782 22.372 11.3655 22.1593L10.6584 22.8664ZM15.3908 25.7149V24.6255H14.3908V25.7149H15.3908ZM15.3908 24.6255C15.3908 23.7369 14.7066 23.2005 14.0863 22.9135C13.4468 22.6176 12.6928 22.4915 12.1674 22.4915V23.4915C12.568 23.4915 13.1757 23.5941 13.6664 23.8211C14.1763 24.057 14.3908 24.3376 14.3908 24.6255H15.3908ZM12.1674 22.4915C11.6421 22.4915 10.888 22.6176 10.2485 22.9135C9.62821 23.2005 8.94401 23.7369 8.94401 24.6255H9.94401C9.94401 24.3376 10.1585 24.057 10.6684 23.8211C11.1591 23.5941 11.7668 23.4915 12.1674 23.4915V22.4915ZM8.94401 24.6255V25.7149H9.94401V24.6255H8.94401ZM16.5249 19.6787H18.154V18.6787H16.5249V19.6787ZM16.5249 21.3127H19.5157V20.3127H16.5249V21.3127ZM21.4271 21.3127H24.4179V20.3127H21.4271V21.3127ZM13.2568 13.6871H20.3377V12.6871H13.2568V13.6871ZM16.5249 24.0362H18.154V23.0362H16.5249V24.0362ZM16.52 25.6702H19.2434V24.6702H16.52V25.6702ZM21.4271 25.6702H24.4179V24.6702H21.4271V25.6702ZM11.7777 7.0022H27.5216V6.0022H11.7777V7.0022ZM7.75522 15.8111L7.39818 14.0551L6.41823 14.2544L6.77527 16.0104L7.75522 15.8111Z" fill="black"/>
<path d="M5.24174 13.6218L5.45348 13.263L5.24174 13.6218ZM7.99948 13.6218L7.78773 13.263L7.99948 13.6218ZM7.03727 5.24348C7.03727 5.01336 6.85072 4.82681 6.6206 4.82681C6.39049 4.82681 6.20394 5.01336 6.20394 5.24348H7.03727ZM6.20394 8.57681C6.20394 8.80693 6.39049 8.99348 6.6206 8.99348C6.85072 8.99348 7.03727 8.80693 7.03727 8.57681H6.20394ZM7.03727 10.2261C7.03727 9.996 6.85072 9.80945 6.62061 9.80945C6.39049 9.80945 6.20394 9.996 6.20394 10.2261H7.03727ZM6.20394 10.8684C6.20394 11.0985 6.39049 11.2851 6.62061 11.2851C6.85072 11.2851 7.03727 11.0985 7.03727 10.8684H6.20394ZM4.12061 2.84757H9.12061V2.01424H4.12061V2.84757ZM11.2039 4.93091V8.25638H12.0373V4.93091H11.2039ZM2.03727 8.25638V4.93091H1.20394V8.25638H2.03727ZM5.45348 13.263C3.44725 12.0792 2.03727 10.2972 2.03727 8.25638H1.20394C1.20394 10.7084 2.88915 12.7174 5.02999 13.9807L5.45348 13.263ZM11.2039 8.25638C11.2039 10.2972 9.79396 12.0792 7.78773 13.263L8.21122 13.9807C10.3521 12.7174 12.0373 10.7084 12.0373 8.25638H11.2039ZM5.02999 13.9807C6.0106 14.5593 7.23061 14.5593 8.21122 13.9807L7.78773 13.263C7.0684 13.6874 6.17282 13.6874 5.45348 13.263L5.02999 13.9807ZM9.12061 2.84757C10.2712 2.84757 11.2039 3.78032 11.2039 4.93091H12.0373C12.0373 3.32008 10.7314 2.01424 9.12061 2.01424V2.84757ZM4.12061 2.01424C2.50977 2.01424 1.20394 3.32008 1.20394 4.93091H2.03727C2.03727 3.78032 2.97001 2.84757 4.12061 2.84757V2.01424ZM6.20394 5.24348L6.20394 8.57681H7.03727L7.03727 5.24348H6.20394ZM6.20394 10.2261V10.8684H7.03727V10.2261H6.20394Z" fill="black"/>
</svg>
