<svg width="32" height="32" viewBox="0 0 32 32" fill="none" xmlns="http://www.w3.org/2000/svg">
<path d="M8 8.5H18.9091C19.8735 8.5 20.7984 8.89501 21.4804 9.59827C22.1623 10.3015 22.5455 11.2554 22.5455 12.25C22.5455 13.2446 22.1623 14.1985 21.4804 14.9017C20.7984 15.605 19.8735 16 18.9091 16" stroke="black" stroke-linecap="round" stroke-linejoin="round"/>
<path d="M8 23.5H20.3636C21.3281 23.5 22.253 23.105 22.9349 22.4017C23.6169 21.6985 24 20.7446 24 19.75C24 18.7554 23.6169 17.8015 22.9349 17.0983C22.253 16.395 21.3281 16 20.3636 16H10.9091" stroke="black" stroke-linecap="round" stroke-linejoin="round"/>
<path d="M10.9092 8.5V23.5" stroke="black" stroke-linecap="round" stroke-linejoin="round"/>
<path d="M13.8184 8.5V4" stroke="black" stroke-linecap="round" stroke-linejoin="round"/>
<path d="M18.1816 8.5V4" stroke="black" stroke-linecap="round" stroke-linejoin="round"/>
<path d="M13.8184 28V23.5" stroke="black" stroke-linecap="round" stroke-linejoin="round"/>
<path d="M18.1816 28V23.5" stroke="black" stroke-linecap="round" stroke-linejoin="round"/>
</svg>
