<svg width="32" height="32" viewBox="0 0 32 32" fill="none" xmlns="http://www.w3.org/2000/svg">
<path d="M20.2255 15.2227L25.4658 8.03803C25.8192 7.59601 25.9771 7.03894 25.9045 6.48938C25.832 5.93982 25.535 5.44278 25.079 5.10761C24.623 4.77244 24.0452 4.62657 23.4729 4.70213C22.9005 4.77769 22.3804 5.06848 22.027 5.5105L16.7706 12.6973L5.69474 15.2227C5.57704 17.7267 7.59711 21.0519 11.045 23.5861C14.4929 26.1203 17.8864 27.8054 20.3778 27.0461L20.2255 15.2227Z" stroke="black" stroke-miterlimit="10"/>
<path d="M20.3712 15.0314C20.0834 15.3824 19.0774 15.1083 18.1296 14.4117C17.1819 13.7152 16.6446 12.8549 16.9234 12.4972" stroke="black" stroke-miterlimit="10"/>
<path d="M11.6636 17.2001L7.32636 19.5729" stroke="black" stroke-miterlimit="10" stroke-linecap="round"/>
<path d="M13.2611 20.5998L11.2248 23.2632" stroke="black" stroke-miterlimit="10" stroke-linecap="round"/>
<path d="M17.3462 21.6417L15.6976 26.0694" stroke="black" stroke-miterlimit="10" stroke-linecap="round"/>
</svg>
