<svg width="32" height="32" viewBox="0 0 32 32" fill="none" xmlns="http://www.w3.org/2000/svg">
<path d="M20.3252 16C20.3252 18.4215 18.3664 20.3846 15.9502 20.3846C13.5339 20.3846 11.5752 18.4215 11.5752 16C11.5752 13.5784 13.5339 11.6154 15.9502 11.6154C18.3664 11.6154 20.3252 13.5784 20.3252 16Z" stroke="black"/>
<path d="M14.6235 6.84308C15.4465 6.38564 16.4539 6.38564 17.2769 6.84308L23.3735 10.2948C24.1889 10.765 24.6927 11.6206 24.7002 12.5483V19.4517C24.6927 20.3794 24.1889 21.235 23.3735 21.7052L17.2769 25.1569C16.4539 25.6144 15.4465 25.6144 14.6235 25.1569L8.52691 21.7052C7.71146 21.235 7.20771 20.3794 7.2002 19.4517L7.2002 12.5483C7.20771 11.6206 7.71146 10.765 8.52692 10.2948L14.6235 6.84308Z" stroke="black"/>
</svg>
