<svg width="32" height="32" viewBox="0 0 32 32" fill="none" xmlns="http://www.w3.org/2000/svg">
<path d="M16 18.9231C15.1928 18.9231 14.5385 19.5774 14.5385 20.3846C14.5385 21.1918 15.1928 21.8462 16 21.8462C16.8072 21.8462 17.4615 21.1918 17.4615 20.3846C17.4615 19.5774 16.8072 18.9231 16 18.9231ZM16 18.9231L18.1923 13.8077M10.1538 16C10.1538 12.7713 12.7713 10.1538 16 10.1538C19.2287 10.1538 21.8462 12.7713 21.8462 16M25.5 16C25.5 21.2467 21.2467 25.5 16 25.5C10.7533 25.5 6.5 21.2467 6.5 16C6.5 10.7533 10.7533 6.5 16 6.5C21.2467 6.5 25.5 10.7533 25.5 16Z" stroke="black" stroke-linecap="round" stroke-linejoin="round"/>
</svg>
