<svg width="32" height="32" viewBox="0 0 32 32" fill="none" xmlns="http://www.w3.org/2000/svg">
<path d="M6.27499 21.2445C6.1288 22.4309 7.05433 23.4775 8.24971 23.4775C9.24862 23.4775 10.0927 22.7368 10.2225 21.7464L10.4714 19.8475C10.5366 19.3497 10.9608 18.9775 11.4629 18.9775H15.9194C16.8884 18.9775 17.7014 18.2469 17.8047 17.2835C17.9247 16.1628 17.0465 15.1855 15.9194 15.1855H12.1697C11.5682 15.1855 11.1028 14.6583 11.1774 14.0614L11.2801 13.2399C11.3427 12.7395 11.7681 12.364 12.2724 12.364H16.7108C17.6911 12.364 18.516 11.6299 18.6297 10.6562C18.7639 9.50816 17.8667 8.5 16.7108 8.5H9.61403C8.60405 8.5 7.75256 9.25301 7.62904 10.2554L6.27499 21.2445Z" stroke="black"/>
<path d="M21.2067 10.2665C21.3252 9.25917 22.1788 8.5 23.193 8.5H23.751C24.9482 8.5 25.8771 9.5446 25.7373 10.7335L24.444 21.7335C24.3255 22.7408 23.4719 23.5 22.4577 23.5H21.8997C20.7025 23.5 19.7736 22.4554 19.9134 21.2665L21.2067 10.2665Z" stroke="black"/>
</svg>
