<svg width="32" height="32" viewBox="0 0 32 32" fill="none" xmlns="http://www.w3.org/2000/svg">
<path d="M6.27517 21.2445C6.12898 22.4309 7.05452 23.4775 8.24989 23.4775C9.2488 23.4775 10.0929 22.7368 10.2227 21.7464L10.4715 19.8475C10.5368 19.3497 10.961 18.9775 11.4631 18.9775H15.9196C16.8886 18.9775 17.7016 18.2469 17.8048 17.2835C17.9249 16.1628 17.0467 15.1855 15.9196 15.1855H12.1699C11.5684 15.1855 11.103 14.6583 11.1776 14.0614L11.2803 13.2399C11.3428 12.7395 11.7682 12.364 12.2726 12.364H16.711C17.6912 12.364 18.5162 11.6299 18.6299 10.6562C18.7641 9.50816 17.8669 8.5 16.711 8.5H9.61421C8.60423 8.5 7.75274 9.25301 7.62923 10.2554L6.27517 21.2445Z" stroke="black"/>
<path d="M21.2068 10.2665C21.3252 9.25917 22.1789 8.5 23.1931 8.5H23.7511C24.9482 8.5 25.8772 9.5446 25.7374 10.7335L24.444 21.7335C24.3256 22.7408 23.472 23.5 22.4577 23.5H21.8997C20.7026 23.5 19.7736 22.4554 19.9134 21.2665L21.2068 10.2665Z" stroke="black"/>
</svg>
