<svg width="32" height="32" viewBox="0 0 32 32" fill="none" xmlns="http://www.w3.org/2000/svg">
<path d="M16.0077 11.1733V12.0467M12.9535 12.0077L13.3815 12.7624M10.7186 14.2843L11.4595 14.7202M9.89942 17.3952H10.7569M10.7186 20.5046L11.4595 20.0687M21.2968 20.5046L20.5543 20.0687M22.1144 17.3952H21.2569M21.2968 14.2843L20.5543 14.7202M19.0603 12.0077L18.6323 12.7624M18.3853 14.9718L16.8483 16.5374M16.8483 16.5374C17.3131 17.0109 17.314 17.7788 16.8492 18.2524C16.3843 18.7259 15.6306 18.7259 15.1658 18.2524C14.7009 17.7788 14.7009 17.0111 15.1658 16.5376C15.6306 16.0641 16.3834 16.0639 16.8483 16.5374ZM20.0389 25.2999L18.0785 21.9406H13.9353L11.9749 25.2999M18.7903 23.1609H22.2126C23.3099 21.9353 24.0339 20.4112 24.2963 18.7741C24.5588 17.137 24.3484 15.4575 23.6908 13.9399C23.0332 12.4224 21.9567 11.1323 20.5923 10.2267C19.228 9.321 17.6346 8.83883 16.0061 8.83883C14.3777 8.83883 12.7843 9.321 11.4199 10.2267C10.0556 11.1323 8.97911 12.4224 8.32149 13.9399C7.66388 15.4575 7.45349 17.137 7.71594 18.7741C7.97838 20.4112 8.70234 21.9353 9.79971 23.1609H13.2235M23.0731 25.3C24.6385 23.8466 25.7359 21.9449 26.2209 19.8447C26.706 17.7446 26.5562 15.544 25.7911 13.5322C25.0261 11.5203 23.6815 9.79114 21.9341 8.57181C20.1867 7.35247 18.1181 6.69995 16 6.69995C13.8819 6.69995 11.8133 7.35247 10.0659 8.57181C8.31847 9.79114 6.97394 11.5203 6.20888 13.5322C5.44381 15.544 5.29398 17.7446 5.77906 19.8447C6.26414 21.9449 7.36145 23.8466 8.92688 25.3H23.0731Z" stroke="black" stroke-linecap="round" stroke-linejoin="round"/>
</svg>
