<svg width="32" height="32" viewBox="0 0 32 32" fill="none" xmlns="http://www.w3.org/2000/svg">
<path d="M19.3871 5.5H12.6129M19.3871 5.5L15.9941 15.5508M19.3871 5.5L20.7851 6.51613C22.7865 6.51613 23.8907 7.7846 24.5452 9.67587L25.9479 13.7281C26.3133 14.7836 26.5 15.8929 26.5 17.0098V21.811H22.0968M12.6129 5.5L16.6719 17.688M12.6129 5.5L11.2149 6.51613C9.21353 6.51613 8.10933 7.7846 7.45478 9.67587L6.0521 13.7281C5.68671 14.7836 5.5 15.8929 5.5 17.0098V21.811H9.90323M22.4355 9.90323V13.2903L21.7581 18.7097M21.7581 18.7097H18.1085M21.7581 18.7097V20.4032M9.56452 9.90323V13.2903L10.2419 18.7097M10.2419 18.7097H13.9212M10.2419 18.7097V20.4032M10.2419 20.4032L9.56452 25.8226V26.5H22.4355V25.8226L21.7581 20.4032M10.2419 20.4032H12.1866M21.7581 20.4032H19.8253M14.3594 20.4032H17.6351M17.0161 17.6935L21.0806 21.7581L20.0645 22.7742L16.0351 18.7448M17.0161 17.6935L11.9355 22.7742L10.9194 21.7581L14.9839 17.6935M17.0161 17.6935H14.9839M14.9839 17.6935L11.2581 6.68548M21.0806 26.5L20.5726 22.4355M16.8468 17.6935L20.9113 6.68548" stroke="black" stroke-linecap="round"/>
</svg>
