<svg width="32" height="32" viewBox="0 0 32 32" fill="none" xmlns="http://www.w3.org/2000/svg">
<path d="M12.3035 15.5013L11.8063 15.4485C11.793 15.5736 11.8273 15.699 11.9024 15.7999L12.3035 15.5013ZM15.0307 18.5386L14.7038 18.9169C14.8228 19.0198 14.9834 19.0607 15.1372 19.0271L15.0307 18.5386ZM18.9978 17.6739L19.1043 18.1624C19.2426 18.1322 19.3617 18.0448 19.4319 17.9219L18.9978 17.6739ZM12.8605 7.15556C13.0393 6.94513 13.0137 6.62959 12.8033 6.45078C12.5928 6.27197 12.2773 6.2976 12.0985 6.50803L12.8605 7.15556ZM7.98205 12.688L7.52373 12.4882C7.5007 12.541 7.48698 12.5973 7.48315 12.6548L7.98205 12.688ZM8.79313 16.071L8.34751 16.2978C8.44615 16.4916 8.65879 16.5995 8.87346 16.5645L8.79313 16.071ZM12.3838 15.9932C12.6564 15.9488 12.8413 15.6919 12.797 15.4193C12.7526 15.1468 12.4957 14.9618 12.2231 15.0061L12.3838 15.9932ZM9.22866 16.3183C9.36429 16.0777 9.27924 15.7728 9.03871 15.6372C8.79817 15.5015 8.49322 15.5866 8.35759 15.8271L9.22866 16.3183ZM8.08372 19.4107L7.59143 19.4982C7.59687 19.5288 7.60515 19.5588 7.61617 19.5879L8.08372 19.4107ZM10.684 22.5147L10.4664 22.9649C10.5248 22.9931 10.588 23.0096 10.6527 23.0137L10.684 22.5147ZM14.143 21.9383L14.3194 22.4061C14.4812 22.3451 14.5999 22.2049 14.6335 22.0353L14.143 21.9383ZM15.4821 18.751C15.5997 18.5012 15.4926 18.2033 15.2428 18.0856C14.993 17.9679 14.6951 18.0751 14.5774 18.3249L15.4821 18.751ZM6.28782 11.9296C6.01275 11.954 5.80949 12.1967 5.83383 12.4717C5.85816 12.7468 6.10088 12.9501 6.37595 12.9257L6.28782 11.9296ZM7.9156 13.0041C8.18956 13.0387 8.43975 12.8448 8.47442 12.5708C8.50909 12.2968 8.3151 12.0466 8.04115 12.012L7.9156 13.0041ZM6.18255 18.9229C5.90706 18.9418 5.6991 19.1805 5.71805 19.456C5.73701 19.7315 5.9757 19.9395 6.25119 19.9205L6.18255 18.9229ZM8.06804 19.7955C8.34353 19.7766 8.55149 19.5379 8.53254 19.2624C8.51358 18.9869 8.27489 18.7789 7.99939 18.7979L8.06804 19.7955ZM11.1619 22.6648C11.2448 22.4014 11.0985 22.1206 10.8351 22.0377C10.5717 21.9548 10.2909 22.1012 10.208 22.3646L11.1619 22.6648ZM10.0954 24.5885C10.1361 24.8616 10.3905 25.0501 10.6636 25.0094C10.9368 24.9687 11.1252 24.7143 11.0845 24.4412L10.0954 24.5885ZM14.4193 21.5209C14.1888 21.3689 13.8786 21.4325 13.7266 21.663C13.5746 21.8935 13.6382 22.2036 13.8687 22.3557L14.4193 21.5209ZM19.4053 17.3811C19.2438 17.1571 18.9313 17.1065 18.7073 17.268C18.4834 17.4295 18.4327 17.742 18.5943 17.966L19.4053 17.3811ZM24.3133 16.3807L24.8085 16.4496C24.8148 16.4043 24.8149 16.3584 24.8087 16.313L24.3133 16.3807ZM23.1013 19.4277C22.9609 19.19 22.6543 19.1111 22.4165 19.2516C22.1788 19.392 22.0999 19.6986 22.2403 19.9364L23.1013 19.4277ZM22.4003 21.901C22.3487 22.1723 22.5267 22.4341 22.7979 22.4858C23.0692 22.5375 23.331 22.3595 23.3827 22.0882L22.4003 21.901ZM16.7685 25.4049C16.7054 25.6737 16.8721 25.9429 17.1409 26.006C17.4097 26.0692 17.6789 25.9025 17.742 25.6337L16.7685 25.4049ZM16.5655 7.01258C16.8389 7.05128 17.0919 6.86101 17.1306 6.58759C17.1693 6.31417 16.9791 6.06115 16.7056 6.02245L16.5655 7.01258ZM24.2056 14.7117C24.094 14.4591 23.7988 14.3449 23.5462 14.4565C23.2936 14.5681 23.1793 14.8634 23.291 15.116L24.2056 14.7117ZM25.3244 14.6617C25.2863 14.3881 25.0337 14.1973 24.7602 14.2353C24.4867 14.2734 24.2959 14.526 24.3339 14.7995L25.3244 14.6617ZM16.7059 11.4312C16.9793 11.3924 17.1694 11.1393 17.1306 10.8659C17.0917 10.5925 16.8386 10.4023 16.5652 10.4412L16.7059 11.4312ZM20.5127 14.8192C20.5616 14.5474 20.381 14.2874 20.1092 14.2385C19.8374 14.1895 19.5774 14.3702 19.5285 14.642L20.5127 14.8192ZM26.3801 7.93488V8.43488C26.6563 8.43488 26.8801 8.21103 26.8801 7.93488H26.3801ZM26.6289 10.1499C26.8014 9.93428 26.7665 9.61964 26.5508 9.44713C26.3352 9.27463 26.0205 9.30959 25.848 9.52522L26.6289 10.1499ZM24.4217 16.0727C24.4217 21.1266 20.3247 25.2237 15.2708 25.2237V26.2237C20.877 26.2237 25.4217 21.6789 25.4217 16.0727H24.4217ZM15.2708 25.2237C10.2168 25.2237 6.11981 21.1266 6.11981 16.0727H5.11981C5.11981 21.6789 9.66455 26.2237 15.2708 26.2237V25.2237ZM6.11981 16.0727C6.11981 11.0188 10.2168 6.92175 15.2708 6.92175V5.92175C9.66455 5.92175 5.11981 10.4665 5.11981 16.0727H6.11981ZM13.4786 11.7319C13.0213 11.5297 13.0213 11.5298 13.0213 11.5298C13.0212 11.5299 13.0212 11.5299 13.0212 11.53C13.0211 11.5301 13.0211 11.5303 13.021 11.5305C13.0208 11.5308 13.0206 11.5314 13.0203 11.532C13.0197 11.5334 13.0189 11.5353 13.0178 11.5377C13.0157 11.5425 13.0126 11.5496 13.0086 11.5586C13.0007 11.5768 12.9893 11.6033 12.9747 11.6373C12.9457 11.7052 12.9043 11.8033 12.8542 11.9254C12.7542 12.1693 12.6192 12.51 12.479 12.8979C12.2033 13.6613 11.8908 14.6523 11.8063 15.4485L12.8007 15.5541C12.8715 14.8869 13.1466 13.9932 13.4195 13.2377C13.5537 12.8662 13.6834 12.539 13.7794 12.3048C13.8274 12.1878 13.8669 12.0944 13.8942 12.0305C13.9078 11.9986 13.9184 11.9741 13.9255 11.9578C13.9291 11.9496 13.9318 11.9435 13.9335 11.9395C13.9344 11.9375 13.935 11.9361 13.9354 11.9352C13.9356 11.9348 13.9357 11.9344 13.9358 11.9343C13.9359 11.9342 13.9359 11.9341 13.9359 11.9341C13.9359 11.9341 13.9359 11.9341 13.9359 11.9341C13.9359 11.9341 13.9359 11.9342 13.4786 11.7319ZM12.3035 15.5013C11.9024 15.7999 11.9024 15.7999 11.9024 15.8C11.9025 15.8 11.9025 15.8 11.9025 15.8001C11.9026 15.8002 11.9027 15.8003 11.9028 15.8005C11.9031 15.8008 11.9034 15.8012 11.9038 15.8018C11.9046 15.8028 11.9058 15.8044 11.9072 15.8064C11.9102 15.8104 11.9146 15.8161 11.9202 15.8236C11.9314 15.8386 11.9479 15.8603 11.9691 15.8883C12.0117 15.9441 12.0735 16.0247 12.1517 16.1248C12.3079 16.3247 12.5299 16.6029 12.7935 16.9172C13.3169 17.5414 14.0191 18.325 14.7038 18.9169L15.3577 18.1604C14.7343 17.6214 14.0728 16.8864 13.5596 16.2746C13.3049 15.9709 13.0903 15.7019 12.9396 15.509C12.8643 15.4126 12.8051 15.3354 12.7649 15.2826C12.7448 15.2562 12.7294 15.2359 12.7193 15.2224C12.7142 15.2156 12.7104 15.2106 12.7079 15.2073C12.7067 15.2056 12.7058 15.2044 12.7052 15.2037C12.7049 15.2033 12.7047 15.203 12.7046 15.2029C12.7046 15.2028 12.7045 15.2027 12.7045 15.2027C12.7045 15.2027 12.7045 15.2027 12.7045 15.2027C12.7045 15.2027 12.7045 15.2028 12.3035 15.5013ZM15.1372 19.0271L19.1043 18.1624L18.8913 17.1853L14.9242 18.0501L15.1372 19.0271ZM12.4795 6.8318C12.0985 6.50803 12.0984 6.50811 12.0983 6.5082C12.0983 6.50823 12.0982 6.50833 12.0982 6.5084C12.098 6.50855 12.0979 6.50872 12.0977 6.50891C12.0974 6.5093 12.097 6.50978 12.0965 6.51036C12.0955 6.51151 12.0942 6.51304 12.0926 6.51493C12.0895 6.51873 12.0851 6.524 12.0795 6.53071C12.0684 6.54412 12.0527 6.56328 12.0329 6.58786C11.9934 6.637 11.9377 6.70787 11.87 6.79775C11.735 6.97726 11.5517 7.23392 11.3563 7.5457C10.9697 8.16279 10.5174 9.02449 10.3149 9.9473L11.2917 10.1616C11.459 9.39923 11.8447 8.64961 12.2037 8.07667C12.3812 7.79343 12.5477 7.56039 12.6691 7.39897C12.7298 7.31838 12.7789 7.25597 12.8123 7.21444C12.829 7.19369 12.8417 7.17818 12.8499 7.16824C12.854 7.16328 12.857 7.15971 12.8588 7.15758C12.8597 7.15652 12.8603 7.15582 12.8606 7.15548C12.8607 7.15531 12.8608 7.15523 12.8608 7.15524C12.8608 7.15525 12.8607 7.15528 12.8607 7.15533C12.8607 7.15536 12.8606 7.15542 12.8606 7.15543C12.8606 7.15549 12.8605 7.15556 12.4795 6.8318ZM10.8033 10.0544C10.6494 10.5302 10.6493 10.5301 10.6492 10.5301C10.6492 10.5301 10.6491 10.5301 10.6491 10.5301C10.6489 10.53 10.6489 10.53 10.6488 10.53C10.6487 10.5299 10.6487 10.5299 10.6487 10.5299C10.6488 10.53 10.6493 10.5301 10.6501 10.5304C10.6518 10.531 10.6548 10.532 10.6592 10.5335C10.6679 10.5364 10.682 10.5413 10.7011 10.5482C10.7391 10.5619 10.7967 10.5834 10.8703 10.613C11.0176 10.6724 11.228 10.7641 11.4733 10.8911C11.967 11.1466 12.5869 11.5371 13.1217 12.0821L13.8355 11.3818C13.2028 10.737 12.4851 10.2888 11.933 10.003C11.6555 9.85932 11.4159 9.75473 11.244 9.68548C11.158 9.65081 11.0887 9.62489 11.0397 9.60727C11.0152 9.59845 10.9958 9.5917 10.9819 9.58696C10.9749 9.58459 10.9694 9.58273 10.9652 9.58135C10.9632 9.58067 10.9615 9.5801 10.9601 9.57967C10.9594 9.57944 10.9589 9.57926 10.9584 9.5791C10.9581 9.57902 10.9579 9.57895 10.9577 9.57888C10.9576 9.57885 10.9575 9.57881 10.9574 9.57879C10.9573 9.57875 10.9572 9.57871 10.8033 10.0544ZM10.8033 10.0544C10.5705 9.61195 10.5704 9.612 10.5703 9.61205C10.5703 9.61208 10.5702 9.61214 10.5701 9.61219C10.5699 9.61229 10.5697 9.6124 10.5694 9.61254C10.5689 9.6128 10.5683 9.61314 10.5675 9.61355C10.566 9.61436 10.5639 9.61545 10.5613 9.61682C10.5562 9.61956 10.5491 9.62341 10.54 9.62834C10.5218 9.6382 10.496 9.65241 10.4634 9.67076C10.3983 9.70745 10.3059 9.76084 10.1935 9.82938C9.96936 9.96615 9.66329 10.1648 9.33497 10.4132C8.69494 10.8972 7.90235 11.6199 7.52373 12.4882L8.44036 12.8879C8.71214 12.2647 9.33018 11.6706 9.93819 11.2107C10.2339 10.9871 10.5112 10.807 10.7144 10.683C10.8157 10.6212 10.898 10.5737 10.9541 10.5421C10.9821 10.5263 11.0036 10.5145 11.0176 10.5069C11.0246 10.5031 11.0297 10.5004 11.0328 10.4987C11.0344 10.4979 11.0354 10.4973 11.036 10.497C11.0363 10.4969 11.0364 10.4968 11.0364 10.4968C11.0365 10.4968 11.0364 10.4968 11.0364 10.4968C11.0364 10.4968 11.0363 10.4969 11.0363 10.4969C11.0362 10.4969 11.0361 10.4969 10.8033 10.0544ZM7.98205 12.688C7.48315 12.6548 7.48314 12.655 7.48313 12.6552C7.48312 12.6552 7.48311 12.6554 7.4831 12.6555C7.48309 12.6558 7.48307 12.6561 7.48305 12.6564C7.48301 12.657 7.48296 12.6577 7.48291 12.6585C7.48281 12.6602 7.48269 12.6622 7.48256 12.6646C7.48229 12.6694 7.48196 12.6757 7.4816 12.6835C7.48089 12.6991 7.48008 12.7207 7.47944 12.7479C7.47818 12.8023 7.47763 12.8792 7.48006 12.976C7.48493 13.1694 7.50176 13.4429 7.5489 13.7746C7.64308 14.4371 7.85915 15.3381 8.34751 16.2978L9.23875 15.8443C8.81069 15.0031 8.62122 14.2126 8.53895 13.6339C8.49788 13.3449 8.48376 13.1103 8.47975 12.9508C8.47774 12.8711 8.47826 12.8104 8.47917 12.7712C8.47963 12.7516 8.48018 12.7374 8.48057 12.729C8.48076 12.7248 8.48091 12.722 8.48098 12.7207C8.48102 12.72 8.48104 12.7198 8.48103 12.7198C8.48103 12.7199 8.48102 12.72 8.48101 12.7203C8.481 12.7204 8.48099 12.7205 8.48098 12.7207C8.48097 12.7208 8.48096 12.7209 8.48096 12.721C8.48095 12.7211 8.48094 12.7213 7.98205 12.688ZM8.87346 16.5645L12.3838 15.9932L12.2231 15.0061L8.7128 15.5775L8.87346 16.5645ZM8.79312 16.0727C8.35759 15.8271 8.35752 15.8272 8.35746 15.8274C8.35743 15.8274 8.35736 15.8275 8.3573 15.8276C8.35719 15.8278 8.35706 15.8281 8.35692 15.8283C8.35664 15.8288 8.3563 15.8294 8.35589 15.8301C8.35509 15.8316 8.35405 15.8335 8.35278 15.8357C8.35025 15.8403 8.34681 15.8466 8.34253 15.8545C8.33397 15.8703 8.32205 15.8926 8.30733 15.9209C8.27791 15.9776 8.2372 16.0587 8.18974 16.1603C8.09505 16.363 7.9723 16.65 7.85874 16.9904C7.63549 17.6595 7.42961 18.5875 7.59143 19.4982L8.57601 19.3232C8.4568 18.6524 8.60562 17.9114 8.80733 17.3069C8.90625 17.0104 9.01355 16.7595 9.09577 16.5835C9.13678 16.4957 9.17125 16.4272 9.19489 16.3816C9.20671 16.3589 9.21579 16.3419 9.22161 16.3312C9.22451 16.3258 9.2266 16.322 9.2278 16.3198C9.2284 16.3188 9.22877 16.3181 9.22892 16.3178C9.22899 16.3177 9.22901 16.3177 9.22896 16.3177C9.22894 16.3178 9.22891 16.3178 9.22885 16.3179C9.22883 16.318 9.22878 16.3181 9.22877 16.3181C9.22871 16.3182 9.22866 16.3183 8.79312 16.0727ZM8.08372 19.4107C7.61617 19.5879 7.61622 19.588 7.61627 19.5882C7.6163 19.5882 7.61635 19.5884 7.6164 19.5885C7.61649 19.5887 7.61659 19.589 7.61671 19.5893C7.61694 19.5899 7.61723 19.5907 7.61757 19.5916C7.61825 19.5933 7.61915 19.5957 7.62026 19.5985C7.62248 19.6042 7.62555 19.612 7.62949 19.6219C7.63735 19.6416 7.64866 19.6693 7.66342 19.7042C7.69292 19.774 7.73633 19.8726 7.79372 19.9928C7.90827 20.2325 8.07991 20.5608 8.30986 20.9176C8.76291 21.6207 9.47445 22.4855 10.4664 22.9649L10.9015 22.0645C10.1503 21.7014 9.56174 21.0142 9.15046 20.376C8.94823 20.0621 8.79666 19.7723 8.69603 19.5617C8.64584 19.4566 8.60866 19.372 8.58448 19.3148C8.5724 19.2862 8.56359 19.2646 8.55805 19.2507C8.55529 19.2438 8.55334 19.2388 8.5522 19.2359C8.55164 19.2345 8.55128 19.2335 8.55112 19.2331C8.55104 19.2329 8.55102 19.2328 8.55104 19.2329C8.55105 19.2329 8.55108 19.233 8.55112 19.2331C8.55114 19.2332 8.55117 19.2333 8.55118 19.2333C8.55122 19.2334 8.55127 19.2335 8.08372 19.4107ZM10.684 22.5147C10.6527 23.0137 10.6528 23.0137 10.653 23.0137C10.653 23.0137 10.6532 23.0137 10.6533 23.0137C10.6535 23.0137 10.6537 23.0138 10.654 23.0138C10.6545 23.0138 10.6551 23.0138 10.6558 23.0139C10.6572 23.014 10.6591 23.0141 10.6613 23.0142C10.6658 23.0144 10.6718 23.0148 10.6794 23.0151C10.6946 23.0158 10.716 23.0167 10.7432 23.0176C10.7976 23.0192 10.8753 23.0207 10.9733 23.0202C11.1692 23.0193 11.4472 23.0104 11.7832 22.9794C12.4533 22.9174 13.3645 22.7662 14.3194 22.4061L13.9666 21.4704C13.118 21.7904 12.2996 21.9274 11.6911 21.9836C11.3878 22.0117 11.1392 22.0194 10.9684 22.0203C10.883 22.0207 10.8173 22.0194 10.7741 22.018C10.7525 22.0174 10.7365 22.0167 10.7266 22.0162C10.7216 22.016 10.7182 22.0158 10.7163 22.0157C10.7153 22.0156 10.7147 22.0156 10.7146 22.0156C10.7145 22.0156 10.7145 22.0156 10.7146 22.0156C10.7147 22.0156 10.7147 22.0156 10.7148 22.0156C10.7149 22.0156 10.715 22.0156 10.715 22.0156C10.7151 22.0156 10.7152 22.0156 10.684 22.5147ZM14.143 21.9383C14.6335 22.0353 14.6335 22.0353 14.6335 22.0353C14.6335 22.0353 14.6335 22.0353 14.6335 22.0352C14.6335 22.0352 14.6335 22.0351 14.6335 22.035C14.6336 22.0347 14.6337 22.0343 14.6338 22.0337C14.634 22.0325 14.6344 22.0308 14.6349 22.0284C14.6358 22.0236 14.6372 22.0164 14.6391 22.007C14.6429 21.9881 14.6486 21.9601 14.6559 21.924C14.6706 21.852 14.692 21.7478 14.7188 21.6204C14.7726 21.3652 14.848 21.0173 14.9348 20.6458C15.1139 19.8783 15.3246 19.0853 15.4821 18.751L14.5774 18.3249C14.3655 18.7746 14.1329 19.6818 13.9609 20.4185C13.8721 20.799 13.7951 21.1542 13.7403 21.4141C13.7129 21.5442 13.691 21.6506 13.676 21.7246C13.6684 21.7617 13.6626 21.7906 13.6586 21.8104C13.6567 21.8203 13.6551 21.8279 13.6541 21.8331C13.6536 21.8357 13.6532 21.8377 13.6529 21.8391C13.6528 21.8398 13.6527 21.8403 13.6526 21.8407C13.6526 21.8408 13.6525 21.841 13.6525 21.8411C13.6525 21.8411 13.6525 21.8412 13.6525 21.8412C13.6525 21.8413 13.6525 21.8413 14.143 21.9383ZM6.33188 12.4277C6.37595 12.9257 6.37586 12.9257 6.37577 12.9258C6.37574 12.9258 6.37566 12.9258 6.37561 12.9258C6.3755 12.9258 6.37541 12.9258 6.37532 12.9258C6.37515 12.9258 6.37501 12.9258 6.37491 12.9258C6.37471 12.9258 6.37465 12.9259 6.37474 12.9258C6.37491 12.9258 6.37566 12.9258 6.37697 12.9257C6.3796 12.9255 6.3845 12.9251 6.39165 12.9246C6.40593 12.9237 6.42918 12.9224 6.46111 12.9211C6.52498 12.9186 6.6236 12.9163 6.75479 12.9179C7.01719 12.9212 7.40987 12.9401 7.9156 13.0041L8.04115 12.012C7.49577 11.943 7.06521 11.9217 6.76713 11.918C6.6181 11.9162 6.50217 11.9187 6.42156 11.9219C6.38125 11.9235 6.34977 11.9253 6.32739 11.9267C6.3162 11.9274 6.30728 11.9281 6.30068 11.9286C6.29737 11.9288 6.29465 11.9291 6.2925 11.9292C6.29143 11.9293 6.2905 11.9294 6.28972 11.9295C6.28933 11.9295 6.28898 11.9295 6.28866 11.9296C6.2885 11.9296 6.28835 11.9296 6.28821 11.9296C6.28814 11.9296 6.28804 11.9296 6.28801 11.9296C6.28791 11.9296 6.28782 11.9296 6.33188 12.4277ZM6.25119 19.9205L8.06804 19.7955L7.99939 18.7979L6.18255 18.9229L6.25119 19.9205ZM10.685 22.5147C10.208 22.3646 10.208 22.3647 10.208 22.3648C10.2079 22.3649 10.2079 22.365 10.2079 22.3651C10.2078 22.3653 10.2077 22.3656 10.2077 22.3658C10.2075 22.3663 10.2074 22.3668 10.2072 22.3673C10.2068 22.3685 10.2064 22.3698 10.2059 22.3714C10.205 22.3745 10.2038 22.3784 10.2024 22.3832C10.1996 22.3927 10.1959 22.4054 10.1916 22.4214C10.1829 22.4532 10.1714 22.4976 10.1586 22.5535C10.133 22.6652 10.102 22.8234 10.0771 23.0195C10.0274 23.4108 10.0015 23.9578 10.0954 24.5885L11.0845 24.4412C11.0068 23.9191 11.0284 23.4661 11.0691 23.1455C11.0894 22.9856 11.1143 22.8599 11.1334 22.7767C11.1429 22.7352 11.1509 22.7043 11.1561 22.6853C11.1587 22.6758 11.1606 22.6692 11.1616 22.6658C11.1622 22.664 11.1625 22.6631 11.1625 22.6629C11.1625 22.6628 11.1625 22.6629 11.1624 22.6632C11.1624 22.6634 11.1623 22.6636 11.1622 22.6639C11.1622 22.664 11.1621 22.6641 11.1621 22.6643C11.1621 22.6643 11.162 22.6645 11.162 22.6645C11.162 22.6646 11.1619 22.6648 10.685 22.5147ZM14.144 21.9383C13.8687 22.3557 13.8688 22.3557 13.8688 22.3558C13.8689 22.3558 13.8689 22.3558 13.869 22.3559C13.8691 22.3559 13.8693 22.3561 13.8695 22.3562C13.8698 22.3564 13.8703 22.3568 13.871 22.3572C13.8722 22.358 13.874 22.3591 13.8762 22.3606C13.8806 22.3635 13.887 22.3676 13.8951 22.3729C13.9115 22.3835 13.9352 22.3988 13.9655 22.4181C14.0261 22.4567 14.1133 22.5114 14.2214 22.5771C14.4371 22.7083 14.7381 22.8845 15.0781 23.064C15.7313 23.409 16.6214 23.8175 17.3291 23.8704L17.4035 22.8731C16.9284 22.8377 16.2073 22.5295 15.5451 22.1798C15.2274 22.012 14.9445 21.8464 14.7409 21.7226C14.6393 21.6608 14.5579 21.6097 14.5023 21.5744C14.4746 21.5567 14.4533 21.543 14.4392 21.5339C14.4322 21.5293 14.4269 21.5259 14.4236 21.5237C14.4219 21.5226 14.4207 21.5218 14.42 21.5213C14.4196 21.5211 14.4194 21.521 14.4193 21.5209C14.4192 21.5208 14.4192 21.5208 14.4192 21.5208C14.4192 21.5208 14.4192 21.5208 14.4192 21.5208C14.4192 21.5209 14.4193 21.5209 14.144 21.9383ZM17.3663 23.3718C17.565 23.8306 17.5651 23.8305 17.5653 23.8305C17.5653 23.8304 17.5654 23.8304 17.5655 23.8303C17.5657 23.8303 17.566 23.8301 17.5663 23.83C17.5668 23.8298 17.5675 23.8295 17.5684 23.8291C17.57 23.8284 17.5723 23.8274 17.575 23.8262C17.5806 23.8237 17.5883 23.8203 17.5981 23.8159C17.6176 23.8071 17.6454 23.7944 17.6804 23.7779C17.7504 23.7449 17.8495 23.6967 17.9699 23.6342C18.2102 23.5095 18.5382 23.326 18.8897 23.0907C19.5744 22.6322 20.4254 21.9267 20.8246 21.0151L19.9086 20.6139C19.6281 21.2545 18.9789 21.8275 18.3334 22.2597C18.0198 22.4696 17.7252 22.6345 17.5091 22.7467C17.4013 22.8027 17.3139 22.8451 17.2543 22.8732C17.2245 22.8872 17.2017 22.8976 17.187 22.9043C17.1796 22.9076 17.1742 22.91 17.1709 22.9115C17.1693 22.9122 17.1682 22.9127 17.1676 22.9129C17.1673 22.9131 17.1672 22.9131 17.1672 22.9131C17.1672 22.9131 17.1672 22.9131 17.1673 22.9131C17.1673 22.9131 17.1674 22.913 17.1674 22.913C17.1675 22.913 17.1676 22.9129 17.3663 23.3718ZM20.3666 20.8145C20.8415 20.6582 20.8415 20.6582 20.8415 20.6581C20.8415 20.6581 20.8415 20.6581 20.8415 20.658C20.8414 20.6579 20.8414 20.6578 20.8413 20.6576C20.8412 20.6572 20.841 20.6567 20.8408 20.6561C20.8404 20.6548 20.8398 20.653 20.839 20.6506C20.8375 20.6459 20.8352 20.6391 20.8323 20.6303C20.8263 20.6125 20.8177 20.5868 20.8065 20.5538C20.7842 20.4879 20.7517 20.3933 20.7109 20.2773C20.6293 20.0455 20.514 19.7271 20.3789 19.381C20.1165 18.7089 19.7545 17.8652 19.4053 17.3811L18.5943 17.966C18.8582 18.332 19.1796 19.0587 19.4473 19.7446C19.5773 20.0775 19.6887 20.3849 19.7676 20.6092C19.807 20.7213 19.8382 20.8123 19.8595 20.875C19.8701 20.9063 19.8783 20.9306 19.8837 20.9469C19.8864 20.955 19.8885 20.9612 19.8898 20.9652C19.8905 20.9672 19.8909 20.9687 19.8913 20.9696C19.8914 20.9701 19.8915 20.9704 19.8916 20.9706C19.8916 20.9707 19.8916 20.9708 19.8916 20.9708C19.8917 20.9708 19.8917 20.9708 19.8917 20.9708C19.8917 20.9708 19.8916 20.9708 20.3666 20.8145ZM24.3133 16.3807C23.8181 16.3118 23.8181 16.3116 23.8181 16.3115C23.8181 16.3114 23.8182 16.3113 23.8182 16.3112C23.8182 16.3111 23.8182 16.311 23.8182 16.3109C23.8182 16.3109 23.8182 16.311 23.8181 16.3114C23.818 16.3122 23.8178 16.3139 23.8174 16.3165C23.8166 16.3217 23.8152 16.3305 23.8132 16.3425C23.8091 16.3667 23.8025 16.4041 23.7928 16.453C23.7733 16.551 23.7414 16.6944 23.6929 16.8693C23.5955 17.2205 23.4331 17.691 23.1744 18.1727C22.6568 19.1361 21.7825 20.1 20.2936 20.3199L20.4396 21.3091C22.3503 21.027 23.4494 19.7739 24.0553 18.646C24.3582 18.082 24.5451 17.5382 24.6565 17.1365C24.7124 16.935 24.7498 16.7673 24.7735 16.6483C24.7854 16.5887 24.7939 16.5412 24.7995 16.5075C24.8023 16.4906 24.8044 16.4773 24.8059 16.4675C24.8066 16.4627 24.8072 16.4587 24.8077 16.4557C24.8079 16.4543 24.8081 16.453 24.8082 16.452C24.8083 16.4515 24.8083 16.451 24.8084 16.4506C24.8084 16.4504 24.8085 16.4502 24.8085 16.4501C24.8085 16.4499 24.8085 16.4496 24.3133 16.3807ZM22.6708 19.6821C22.2403 19.9364 22.2402 19.9362 22.2401 19.936C22.2401 19.9359 22.2399 19.9357 22.2399 19.9356C22.2397 19.9353 22.2396 19.9351 22.2394 19.9348C22.2392 19.9344 22.2389 19.934 22.2387 19.9336C22.2383 19.9329 22.238 19.9323 22.2378 19.932C22.2374 19.9313 22.2374 19.9314 22.2379 19.9323C22.2389 19.934 22.2415 19.9388 22.2454 19.9466C22.2533 19.9622 22.2666 19.9899 22.2829 20.0292C22.3156 20.1077 22.3603 20.2323 22.3985 20.3998C22.4745 20.7332 22.526 21.2414 22.4003 21.901L23.3827 22.0882C23.5363 21.2817 23.4775 20.6337 23.3734 20.1773C23.3215 19.9499 23.2587 19.7713 23.2063 19.6453C23.1801 19.5823 23.1565 19.5324 23.1381 19.496C23.1289 19.4778 23.1211 19.463 23.1148 19.4516C23.1117 19.4459 23.109 19.4411 23.1067 19.4371C23.1056 19.4351 23.1046 19.4333 23.1037 19.4318C23.1032 19.431 23.1028 19.4303 23.1024 19.4296C23.1022 19.4292 23.102 19.4289 23.1018 19.4286C23.1017 19.4285 23.1016 19.4282 23.1016 19.4282C23.1014 19.4279 23.1013 19.4277 22.6708 19.6821ZM17.3663 23.3718C16.8665 23.3867 16.8665 23.3866 16.8665 23.3866C16.8665 23.3866 16.8665 23.3866 16.8665 23.3866C16.8665 23.3866 16.8665 23.3867 16.8665 23.3867C16.8665 23.3868 16.8665 23.387 16.8665 23.3873C16.8666 23.3878 16.8666 23.3887 16.8666 23.39C16.8667 23.3925 16.8668 23.3964 16.8669 23.4016C16.8672 23.412 16.8676 23.4275 16.868 23.4478C16.8689 23.4882 16.87 23.5472 16.8708 23.6201C16.8725 23.7663 16.8732 23.9676 16.8691 24.1885C16.8607 24.6472 16.8324 25.1334 16.7685 25.4049L17.742 25.6337C17.8336 25.2442 17.8607 24.6565 17.869 24.2068C17.8732 23.9734 17.8725 23.7618 17.8708 23.6086C17.8699 23.5319 17.8687 23.4695 17.8678 23.4261C17.8673 23.4044 17.8669 23.3874 17.8666 23.3756C17.8664 23.3698 17.8663 23.3652 17.8662 23.3621C17.8662 23.3605 17.8661 23.3593 17.8661 23.3584C17.8661 23.358 17.8661 23.3576 17.8661 23.3574C17.8661 23.3572 17.8661 23.3571 17.8661 23.357C17.8661 23.357 17.8661 23.3569 17.8661 23.3569C17.8661 23.3569 17.8661 23.3568 17.3663 23.3718ZM15.2708 6.92175C15.7105 6.92175 16.1428 6.95274 16.5655 7.01258L16.7056 6.02245C16.2366 5.95606 15.7576 5.92175 15.2708 5.92175V6.92175ZM23.291 15.116C23.536 15.6704 23.7417 15.8909 23.8179 16.4484L24.8087 16.313C24.7072 15.5701 24.3586 15.0579 24.2056 14.7117L23.291 15.116ZM24.3339 14.7995C24.3918 15.2153 24.4217 15.6404 24.4217 16.0727H25.4217C25.4217 15.5941 25.3886 15.1231 25.3244 14.6617L24.3339 14.7995ZM16.5652 10.4412C15.7957 10.5505 14.6025 10.7816 13.3046 11.2632L13.6525 12.2007C14.8647 11.7509 15.9843 11.5338 16.7059 11.4312L16.5652 10.4412ZM18.9978 17.6739C19.4319 17.9219 19.432 17.9218 19.432 17.9217C19.432 17.9217 19.4321 17.9216 19.4321 17.9215C19.4322 17.9214 19.4323 17.9212 19.4324 17.921C19.4327 17.9206 19.4329 17.9202 19.4332 17.9196C19.4338 17.9186 19.4346 17.9172 19.4355 17.9155C19.4374 17.9122 19.44 17.9076 19.4432 17.9018C19.4496 17.8903 19.4585 17.874 19.4698 17.8531C19.4922 17.8113 19.5238 17.7512 19.5622 17.6744C19.639 17.5209 19.7434 17.3 19.8574 17.0251C20.0847 16.4768 20.353 15.7057 20.5127 14.8192L19.5285 14.642C19.3849 15.4393 19.1419 16.1398 18.9336 16.6422C18.8298 16.8926 18.7354 17.0919 18.6678 17.2271C18.634 17.2947 18.6069 17.3461 18.5888 17.3798C18.5798 17.3967 18.573 17.409 18.5687 17.4168C18.5666 17.4206 18.565 17.4234 18.5642 17.4249C18.5638 17.4256 18.5635 17.4261 18.5634 17.4262C18.5634 17.4263 18.5634 17.4263 18.5634 17.4263C18.5634 17.4262 18.5635 17.4262 18.5635 17.4261C18.5635 17.4261 18.5636 17.426 18.5636 17.426C18.5636 17.4259 18.5637 17.4258 18.9978 17.6739ZM23.3788 10.6474C22.5888 10.6474 21.988 10.3672 21.5806 9.91599C21.168 9.45913 20.9157 8.78385 20.9157 7.93488H19.9157C19.9157 8.97912 20.2279 9.91009 20.8384 10.5862C21.454 11.2679 22.3348 11.6474 23.3788 11.6474V10.6474ZM20.9157 7.93488C20.9157 7.08612 21.1679 6.41717 21.579 5.96615C21.9854 5.52034 22.5862 5.24365 23.3788 5.24365V4.24365C22.3374 4.24365 21.4567 4.61598 20.84 5.29248C20.228 5.96378 19.9157 6.89045 19.9157 7.93488H20.9157ZM23.3788 5.24365C24.1722 5.24365 24.7843 5.52098 25.2009 5.96954C25.621 6.42201 25.8801 7.09048 25.8801 7.93488H26.8801C26.8801 6.88609 26.5557 5.95894 25.9337 5.28909C25.308 4.61534 24.4196 4.24365 23.3788 4.24365V5.24365ZM25.848 9.52522C25.4498 10.0231 25.0491 10.2946 24.6566 10.4475C24.2576 10.6028 23.837 10.6474 23.3788 10.6474V11.6474C23.8968 11.6474 24.4571 11.5983 25.0194 11.3793C25.5882 11.1578 26.1293 10.7745 26.6289 10.1499L25.848 9.52522ZM26.3801 7.43488H20.4157V8.43488H26.3801V7.43488Z" fill="black"/>
</svg>
