<svg width="32" height="32" viewBox="0 0 32 32" fill="none" xmlns="http://www.w3.org/2000/svg">
<path d="M17.344 6H14.656L14.5504 6C9.53045 5.99986 7.32158 5.9998 6.46761 8.85899C6.29211 9.44658 6.77218 10 7.38542 10H24.6146C25.2278 10 25.7079 9.44658 25.5324 8.85899C24.6784 5.9998 22.4696 5.99986 17.4497 6L17.344 6Z" stroke="black"/>
<path d="M17.344 26H14.656L14.5504 26C9.53045 26.0001 7.32158 26.0002 6.46761 23.141C6.29211 22.5534 6.77218 22 7.38542 22H24.6146C25.2278 22 25.7079 22.5534 25.5324 23.141C24.6784 26.0002 22.4696 26.0001 17.4497 26L17.344 26Z" stroke="black"/>
<rect x="6" y="14" width="20" height="4" rx="1" stroke="black"/>
</svg>
