<svg width="32" height="32" viewBox="0 0 32 32" fill="none" xmlns="http://www.w3.org/2000/svg">
<path d="M25.5 12.5769L7.23077 12.5769M11.6154 8.92308V6M20.3846 8.92308L20.3846 6M16 15.5L16 18.423M16 18.423L16 21.3462M16 18.423L13.0769 18.423M16 18.423H18.9231M6.5 10.3846L6.5 22.0769C6.5 23.6913 7.8087 25 9.42308 25L22.5769 25C24.1913 25 25.5 23.6913 25.5 22.0769V10.3846C25.5 8.77028 24.1913 7.46157 22.5769 7.46157L9.42308 7.46154C7.80871 7.46154 6.5 8.77025 6.5 10.3846Z" stroke="black" stroke-linecap="round" stroke-linejoin="round"/>
</svg>
