<svg width="32" height="32" viewBox="0 0 32 32" fill="none" xmlns="http://www.w3.org/2000/svg">
<path d="M13.9438 27C13.9438 20.4165 13.9438 12.1418 13.9438 12.1418C13.9438 11.8466 14.0633 11.5635 14.2759 11.3548C14.4886 11.1461 14.7769 11.0288 15.0776 11.0288H24.866C25.1667 11.0288 25.4551 11.1461 25.6677 11.3548C25.8803 11.5635 25.9998 11.8466 25.9998 12.1418C25.9998 12.1418 25.9998 20.4165 25.9998 27" stroke="black" stroke-linecap="round" stroke-linejoin="round"/>
<path d="M6 26.9998V20.8044C6 20.5092 6.11945 20.2261 6.33208 20.0174C6.54471 19.8087 6.83309 19.6914 7.13379 19.6914H12.0166" stroke="black" stroke-linecap="round" stroke-linejoin="round"/>
<path d="M17.7764 8.87323V5" stroke="black" stroke-miterlimit="10" stroke-linecap="round"/>
<path d="M22.1641 8.87323V5" stroke="black" stroke-miterlimit="10" stroke-linecap="round"/>
<path d="M21.9825 6.93652H17.9727" stroke="black" stroke-miterlimit="10" stroke-linecap="round"/>
<path d="M16.1929 13.9077H23.7477" stroke="black" stroke-miterlimit="10" stroke-linecap="round"/>
<path d="M16.1929 16.7793H23.7477" stroke="black" stroke-miterlimit="10" stroke-linecap="round"/>
<path d="M16.1929 19.6543H23.7477" stroke="black" stroke-miterlimit="10" stroke-linecap="round"/>
<path d="M16.1929 22.5259H23.7477" stroke="black" stroke-miterlimit="10" stroke-linecap="round"/>
<path d="M16.1929 25.3975H23.7477" stroke="black" stroke-miterlimit="10" stroke-linecap="round"/>
<path d="M8.08252 22.5259H12.013" stroke="black" stroke-miterlimit="10" stroke-linecap="round"/>
<path d="M8.08252 25.3975H12.013" stroke="black" stroke-miterlimit="10" stroke-linecap="round"/>
</svg>
