<svg width="32" height="32" viewBox="0 0 32 32" fill="none" xmlns="http://www.w3.org/2000/svg">
<g filter="url(#filter0_d_4798_4682)">
<path d="M12.115 16.4052C12.0087 16.0121 11.9025 15.5127 11.6793 14.7584C11.4987 14.174 11.3181 13.8446 11.18 13.4515C11.0418 13.0584 10.8612 12.6865 10.6487 12.1977C10.4562 11.6987 10.2965 11.1876 10.1706 10.6677C10.1254 10.4521 10.1277 10.2293 10.1772 10.0146C10.2268 9.79995 10.3224 9.59863 10.4575 9.42461C10.6442 9.24085 10.8762 9.10969 11.13 9.04439C11.3837 8.97909 11.6502 8.98196 11.9025 9.05273C12.3034 9.22646 12.641 9.51956 12.8693 9.89211C13.1878 10.3921 13.448 10.9268 13.645 11.4859C13.9413 12.2515 14.1585 13.0454 14.2931 13.8552L14.3887 14.3334C14.3887 14.3334 14.3356 13.1434 14.3356 13.1009C14.3356 12.0384 14.2718 11.1671 14.3356 9.97711C14.3356 9.84961 14.41 9.36086 14.4312 9.22273C14.4447 8.99834 14.5178 8.78159 14.6429 8.59484C14.768 8.40808 14.9407 8.25806 15.1431 8.16023C15.3768 8.05462 15.6304 8 15.8868 8C16.1433 8 16.3969 8.05462 16.6306 8.16023C16.8384 8.25324 17.0166 8.4015 17.1459 8.58886C17.2752 8.77622 17.3505 8.99548 17.3637 9.22273C17.3637 9.33961 17.4593 10.2852 17.4593 10.4021C17.4593 11.4646 17.4593 12.1446 17.4593 12.7184C17.4593 12.9627 17.4593 14.4396 17.4593 14.2696C17.4934 12.8677 17.6176 11.4694 17.8312 10.0834C17.8941 9.86903 18.0013 9.67031 18.1459 9.50008C18.2905 9.32986 18.4693 9.19192 18.6706 9.09523C18.9189 9.0157 19.184 9.00431 19.4382 9.06225C19.6923 9.12019 19.9263 9.24533 20.1156 9.42461C20.4196 9.76207 20.5995 10.1931 20.6256 10.6465C20.6256 11.0715 20.6256 11.6027 20.6256 11.964C20.6256 12.8884 20.6256 13.3771 20.6256 14.2271C20.6256 14.2271 20.6256 14.5352 20.6256 14.4184C20.7318 14.1209 20.8275 13.8446 20.9125 13.6215C20.9975 13.3984 21.1675 12.9734 21.295 12.7077C21.4235 12.4572 21.5691 12.2158 21.7306 11.9852C21.8978 11.7131 22.1471 11.501 22.4425 11.3796C22.5749 11.3289 22.7161 11.3053 22.8578 11.31C22.9994 11.3148 23.1387 11.3478 23.2675 11.4072C23.3962 11.4666 23.5117 11.5512 23.6072 11.6559C23.7028 11.7607 23.7764 11.8835 23.8237 12.0171C23.8866 12.4042 23.8866 12.7988 23.8237 13.1859C23.7469 13.7801 23.6189 14.3667 23.4412 14.939C23.3137 15.4171 23.1543 16.2459 23.08 16.639C23.0056 17.0321 22.8356 18.1052 22.6975 18.5727C22.5163 19.0979 22.2624 19.595 21.9431 20.0496C21.4266 20.6268 21.0003 21.2787 20.6787 21.9834C20.5951 22.331 20.5594 22.6885 20.5725 23.0459C20.5729 23.3758 20.6157 23.7043 20.7 24.0234C20.2657 24.0712 19.8274 24.0712 19.3931 24.0234C18.9787 23.9596 18.4581 23.1309 18.3306 22.8759C18.2983 22.8058 18.2466 22.7466 18.1816 22.705C18.1166 22.6634 18.0411 22.6414 17.964 22.6414C17.8869 22.6414 17.8114 22.6634 17.7465 22.705C17.6815 22.7466 17.6298 22.8058 17.5975 22.8759C17.3637 23.2796 16.8537 24.0127 16.4818 24.0552C15.7806 24.1402 14.3037 24.0552 13.1456 24.0552C13.1456 24.0552 13.3475 22.9927 12.9118 22.6102C12.4762 22.2277 12.03 21.7815 11.69 21.484L10.8081 20.5065C10.5106 20.124 10.1387 19.3484 9.4906 18.3815C9.11872 17.8396 8.4281 17.2234 8.11997 16.7027C7.87175 16.2758 7.79936 15.769 7.9181 15.2896C8.00757 14.9816 8.20809 14.7176 8.48089 14.5488C8.75368 14.3801 9.07937 14.3184 9.39497 14.3759C9.88371 14.4107 10.3454 14.6134 10.7018 14.9496C10.9881 15.1899 11.2546 15.4529 11.4987 15.7359C11.6793 15.9484 11.7218 16.0334 11.9025 16.2777C12.0831 16.5221 12.2212 16.7665 12.1362 16.4052" fill="white"/>
<path d="M12.2141 16.5234C12.1078 16.1303 12.0016 15.6309 11.7785 14.8765C11.5978 14.2921 11.4172 13.9628 11.2791 13.5696C11.141 13.1765 10.9603 12.8046 10.7478 12.3159C10.5553 11.8168 10.3956 11.3058 10.2697 10.7859C10.2246 10.5703 10.2268 10.3474 10.2764 10.1328C10.3259 9.91811 10.4215 9.71679 10.5566 9.54277C10.7434 9.35902 10.9754 9.22785 11.2291 9.16255C11.4828 9.09725 11.7493 9.10013 12.0016 9.1709C12.4025 9.34463 12.7401 9.63773 12.9685 10.0103C13.2869 10.5102 13.5471 11.045 13.7441 11.604C14.0404 12.3696 14.2576 13.1636 14.3922 13.9734L14.4878 14.4515C14.4878 14.4515 14.4347 13.2615 14.4347 13.219C14.4347 12.1565 14.371 11.2853 14.4347 10.0953C14.4347 9.96777 14.5091 9.47902 14.5303 9.3409C14.5438 9.1165 14.6169 8.89976 14.742 8.713C14.8672 8.52624 15.0398 8.37622 15.2422 8.2784C15.4759 8.17279 15.7295 8.11816 15.986 8.11816C16.2424 8.11816 16.496 8.17279 16.7297 8.2784C16.9375 8.3714 17.1157 8.51967 17.245 8.70703C17.3743 8.89439 17.4496 9.11365 17.4628 9.3409C17.4628 9.45777 17.5585 10.4034 17.5585 10.5203C17.5585 11.5828 17.5585 12.2628 17.5585 12.8365C17.5585 13.0809 17.5585 14.5578 17.5585 14.3878C17.5925 12.9858 17.7167 11.5875 17.9303 10.2015C17.9932 9.9872 18.1004 9.78848 18.245 9.61825C18.3896 9.44802 18.5684 9.31009 18.7697 9.2134C19.018 9.13386 19.2831 9.12247 19.5373 9.18041C19.7915 9.23835 20.0254 9.3635 20.2147 9.54277C20.5187 9.88024 20.6986 10.3112 20.7247 10.7646C20.7247 11.1896 20.7247 11.7209 20.7247 12.0821C20.7247 13.0065 20.7247 13.4953 20.7247 14.3453C20.7247 14.3453 20.7247 14.6534 20.7247 14.5365C20.831 14.239 20.9266 13.9628 21.0116 13.7396C21.0966 13.5165 21.2666 13.0915 21.3941 12.8259C21.5227 12.5754 21.6682 12.334 21.8297 12.1034C21.9969 11.8313 22.2462 11.6192 22.5416 11.4978C22.674 11.4471 22.8152 11.4234 22.9569 11.4282C23.0986 11.4329 23.2379 11.466 23.3666 11.5254C23.4953 11.5848 23.6108 11.6694 23.7064 11.7741C23.8019 11.8788 23.8755 12.0016 23.9228 12.1353C23.9857 12.5223 23.9857 12.917 23.9228 13.304C23.846 13.8983 23.718 14.4849 23.5403 15.0571C23.4128 15.5353 23.2535 16.364 23.1791 16.7571C23.1047 17.1503 22.9347 18.2234 22.7966 18.6909C22.6154 19.216 22.3615 19.7132 22.0422 20.1678C21.5257 20.7449 21.0994 21.3969 20.7778 22.1015C20.6943 22.4492 20.6585 22.8067 20.6716 23.164C20.672 23.494 20.7148 23.8225 20.7991 24.1415C20.3648 24.1893 19.9265 24.1893 19.4922 24.1415C19.0778 24.0778 18.5572 23.249 18.4297 22.994C18.3974 22.924 18.3457 22.8647 18.2807 22.8232C18.2158 22.7816 18.1403 22.7595 18.0632 22.7595C17.986 22.7595 17.9105 22.7816 17.8456 22.8232C17.7806 22.8647 17.7289 22.924 17.6966 22.994C17.4628 23.3978 16.9528 24.1309 16.581 24.1734C15.8797 24.2584 14.4028 24.1734 13.2447 24.1734C13.2447 24.1734 13.4466 23.1109 13.011 22.7284C12.5753 22.3459 12.1291 21.8996 11.7891 21.6021L10.9072 20.6246C10.6097 20.2421 10.2378 19.4665 9.58972 18.4996C9.21784 17.9578 8.52722 17.3415 8.21909 16.8209C7.97087 16.3939 7.89848 15.8872 8.01722 15.4078C8.10669 15.0997 8.30721 14.8358 8.58001 14.667C8.8528 14.4982 9.17849 14.4366 9.49409 14.494C9.98284 14.5289 10.4445 14.7316 10.801 15.0678C11.0872 15.3081 11.3537 15.571 11.5978 15.854C11.7785 16.0665 11.821 16.1515 12.0016 16.3959C12.1822 16.6403 12.3203 16.8846 12.2353 16.5234" stroke="black" stroke-width="0.75" stroke-linecap="round" stroke-linejoin="round"/>
<path d="M19.5635 20.8359V17.1597" stroke="black" stroke-width="0.75" stroke-linecap="round"/>
<path d="M17.4169 20.8465L17.4062 17.1597" stroke="black" stroke-width="0.75" stroke-linecap="round"/>
<path d="M15.3027 17.1914L15.324 20.8252" stroke="black" stroke-width="0.75" stroke-linecap="round"/>
</g>
<defs>
<filter id="filter0_d_4798_4682" x="-2" y="0" width="36" height="36" filterUnits="userSpaceOnUse" color-interpolation-filters="sRGB">
<feFlood flood-opacity="0" result="BackgroundImageFix"/>
<feColorMatrix in="SourceAlpha" type="matrix" values="0 0 0 0 0 0 0 0 0 0 0 0 0 0 0 0 0 0 127 0" result="hardAlpha"/>
<feOffset dy="2"/>
<feGaussianBlur stdDeviation="1"/>
<feColorMatrix type="matrix" values="0 0 0 0 0 0 0 0 0 0 0 0 0 0 0 0 0 0 0.25 0"/>
<feBlend mode="normal" in2="BackgroundImageFix" result="effect1_dropShadow_4798_4682"/>
<feBlend mode="normal" in="SourceGraphic" in2="effect1_dropShadow_4798_4682" result="shape"/>
</filter>
</defs>
</svg>
