<svg width="629" height="168" viewBox="0 0 629 168" fill="none" xmlns="http://www.w3.org/2000/svg">
<rect x="312.267" y="128.171" width="12.164" height="112.733" rx="6.08199" transform="rotate(-165 312.267 128.171)" fill="#0CD664"/>
<rect opacity="0.6" x="285.073" y="112.165" width="12.164" height="134.114" rx="6.08199" transform="rotate(-165 285.073 112.165)" fill="#0CD664"/>
<rect opacity="0.4" width="12.164" height="97.3741" rx="6.08199" transform="matrix(-0.965926 -0.258819 -0.258819 0.965926 286.435 -10.4146)" fill="#0CD664"/>
<rect opacity="0.2" width="12.164" height="142.537" rx="6.08199" transform="matrix(-0.965926 -0.258819 -0.258819 0.965926 261.036 -33.1211)" fill="#0CD664"/>
<rect opacity="0.4" width="12.164" height="101.467" rx="6.08199" transform="matrix(-0.965926 -0.258819 -0.258819 0.965926 221.033 -1.32129)" fill="#0CD664"/>
<rect opacity="0.2" width="12.164" height="123.467" rx="6.08199" transform="matrix(-0.965926 -0.258819 -0.258819 0.965926 202.289 -48.8623)" fill="#0CD664"/>
<rect opacity="0.6" width="12.164" height="128.283" rx="6.08199" transform="matrix(-0.965926 -0.258819 -0.258819 0.965926 169.226 -42.9653)" fill="#0CD664"/>
<rect opacity="0.3" width="12.164" height="168.73" rx="6.08199" transform="matrix(-0.965926 -0.258819 -0.258819 0.965926 143.541 -64.6035)" fill="#0CD664"/>
<rect opacity="0.2" width="12.164" height="130.874" rx="6.08199" transform="matrix(-0.965926 -0.258819 -0.258819 0.965926 114.167 -72.4741)" fill="#0CD664"/>
<rect opacity="0.4" width="12.164" height="130.874" rx="6.08199" transform="matrix(-0.965926 -0.258819 -0.258819 0.965926 84.7935 -80.3452)" fill="#0CD664"/>
<rect opacity="0.6" width="12.164" height="110.142" rx="6.08199" transform="matrix(-0.965926 -0.258819 -0.258819 0.965926 50.0542 -68.1895)" fill="#0CD664"/>
<rect x="635.378" y="214.748" width="12.164" height="112.733" rx="6.08199" transform="rotate(-165 635.378 214.748)" fill="#0CD664"/>
<rect opacity="0.6" x="608.184" y="198.742" width="12.164" height="134.114" rx="6.08199" transform="rotate(-165 608.184 198.742)" fill="#0CD664"/>
<rect opacity="0.4" width="12.164" height="112.733" rx="6.08199" transform="matrix(-0.965926 -0.258819 -0.258819 0.965926 613.521 61.3271)" fill="#0CD664"/>
<rect opacity="0.2" width="12.164" height="142.537" rx="6.08199" transform="matrix(-0.965926 -0.258819 -0.258819 0.965926 584.148 53.4565)" fill="#0CD664"/>
<rect opacity="0.4" width="12.164" height="142.537" rx="6.08199" transform="matrix(-0.965926 -0.258819 -0.258819 0.965926 554.774 45.5859)" fill="#0CD664"/>
<rect opacity="0.2" width="12.164" height="142.537" rx="6.08199" transform="matrix(-0.965926 -0.258819 -0.258819 0.965926 525.4 37.7153)" fill="#0CD664"/>
<rect opacity="0.6" width="12.164" height="160.794" rx="6.08199" transform="matrix(-0.965926 -0.258819 -0.258819 0.965926 500.752 12.2085)" fill="#0CD664"/>
<rect opacity="0.3" width="12.164" height="123.593" rx="6.08199" transform="matrix(-0.965926 -0.258819 -0.258819 0.965926 461.75 40.2725)" fill="#0CD664"/>
<rect opacity="0.2" width="12.164" height="130.874" rx="6.08199" transform="matrix(-0.965926 -0.258819 -0.258819 0.965926 437.279 14.103)" fill="#0CD664"/>
<rect opacity="0.4" width="12.164" height="130.874" rx="6.08199" transform="matrix(-0.965926 -0.258819 -0.258819 0.965926 407.905 6.23242)" fill="#0CD664"/>
<rect opacity="0.6" width="12.164" height="110.142" rx="6.08199" transform="matrix(-0.965926 -0.258819 -0.258819 0.965926 373.166 18.3877)" fill="#0CD664"/>
</svg>
