<svg width="25" height="30" viewBox="0 0 25 30" fill="none" xmlns="http://www.w3.org/2000/svg">
<g id="024_change_arrow_scale">
<path id="Path" opacity="0.1" d="M21.7777 4.34709C21.8032 4.40809 21.8167 4.47309 21.8162 4.53859V11.5381C21.8162 11.8141 21.5927 12.0381 21.3167 12.0381C21.0402 12.0381 20.8167 11.8141 20.8167 11.5381V5.74509L2.0548 25.6608C1.9573 25.7583 1.8293 25.8073 1.7013 25.8073C1.5733 25.8073 1.4453 25.7583 1.3478 25.6608C1.1523 25.4653 1.1523 25.1493 1.3478 24.9538L20.1097 5.03809H14.3167C14.0407 5.03809 13.8167 4.81409 13.8167 4.53809C13.8167 4.26209 14.0407 4.03809 14.3167 4.03809H21.3162C21.3817 4.03809 21.4462 4.05159 21.5077 4.07659C21.6297 4.12759 21.7272 4.22459 21.7777 4.34709Z" fill="white" stroke="white" stroke-width="2"/>
<path id="Shape" fill-rule="evenodd" clip-rule="evenodd" d="M24.9321 0.5005C24.9326 0.435 24.9191 0.37 24.8936 0.309C24.8431 0.1865 24.7456 0.0895 24.6236 0.0385C24.5621 0.0135 24.4976 0 24.4321 0H17.4326C17.1566 0 16.9326 0.224 16.9326 0.5C16.9326 0.776 17.1566 0.999999 17.4326 0.999999H23.2256L9.07908 15.1465C8.88358 15.342 8.88358 15.658 9.07908 15.8535C9.17658 15.951 9.30458 16 9.43258 16C9.56058 16 9.68858 15.951 9.78608 15.8535L23.9326 1.707V7.5C23.9326 7.776 24.1561 8 24.4326 8C24.7086 8 24.9321 7.776 24.9321 7.5V0.5005ZM18.7861 14.8535C18.9816 14.658 18.9816 14.342 18.7861 14.1465C18.5906 13.951 18.2741 13.951 18.0791 14.1465L3.93262 28.293V22.5C3.93262 22.224 3.70862 22 3.43262 22C3.15662 22 2.93262 22.224 2.93262 22.5V29.5C2.93262 29.5015 2.93299 29.5028 2.93337 29.5042C2.93374 29.5056 2.93412 29.507 2.93412 29.5085C2.93512 29.5705 2.94712 29.6325 2.97112 29.691C3.02212 29.8135 3.11912 29.9104 3.24162 29.9615C3.30262 29.9865 3.36762 30 3.43262 30H10.4326C10.7086 30 10.9326 29.776 10.9326 29.5C10.9326 29.224 10.7086 29 10.4326 29H4.63962L18.7861 14.8535Z" fill="#8697A2"/>
</g>
</svg>
