<svg width="32" height="30" viewBox="0 0 32 30" fill="none" xmlns="http://www.w3.org/2000/svg">
<g id="014_coin_coins_gold_money_cash_finance_currency">
<path id="Path" fill-rule="evenodd" clip-rule="evenodd" d="M16 21.4595C7.02848 21.4595 0 18.4034 0 14.5027C0 10.602 7.02848 7.5459 16 7.5459C24.9722 7.5459 32 10.602 32 14.5027C32 18.4034 24.9722 21.4595 16 21.4595Z" fill="white" fill-opacity="0.1"/>
<path id="Shape" fill-rule="evenodd" clip-rule="evenodd" d="M28.6064 20.3477V22.5757C28.6064 23.9556 27.8428 25.224 26.5293 26.2844C26.5257 26.2882 26.5218 26.2914 26.518 26.2944C26.5156 26.2964 26.5131 26.2983 26.5109 26.3004C24.3639 28.0231 20.7454 29.181 16.5043 29.3386C16.5011 29.3388 16.4982 29.3396 16.4954 29.3405C16.4922 29.3415 16.489 29.3424 16.4854 29.3424C16.4826 29.3424 16.4801 29.3417 16.4777 29.3409C16.4754 29.3402 16.4732 29.3395 16.4708 29.3395L16.3486 29.3439L16.3485 29.3439C16.0727 29.3538 15.7969 29.3638 15.5156 29.3638C15.2343 29.3638 14.9585 29.3538 14.6828 29.3439L14.6827 29.3439L14.5604 29.3395C14.5581 29.3395 14.5558 29.3402 14.5535 29.3409C14.5511 29.3417 14.5486 29.3424 14.5459 29.3424C14.5425 29.3424 14.5395 29.3415 14.5365 29.3405L14.5364 29.3405C14.5334 29.3395 14.5304 29.3386 14.527 29.3386C10.2854 29.181 6.66687 28.0231 4.52038 26.3004C4.51751 26.2978 4.51465 26.2955 4.51182 26.2933L4.51179 26.2933L4.51176 26.2932C4.5084 26.2906 4.50511 26.288 4.50196 26.2849C3.18846 25.2245 2.4248 23.9556 2.4248 22.5757V18.6968C2.4248 17.4158 3.09925 16.1837 4.36426 15.1175V14.5197C3.14143 13.4855 2.4248 12.266 2.4248 10.9395V7.06054C2.4248 3.25437 8.17528 0.272461 15.5156 0.272461C22.8565 0.272461 28.6064 3.25437 28.6064 7.06054V9.29916C29.8715 10.3654 30.5459 11.5974 30.5459 12.8789V16.7573C30.5459 18.0868 29.8322 19.3116 28.6064 20.3477ZM26.667 24.8147C27.2901 24.1218 27.6367 23.364 27.6367 22.5756V21.2917C27.3647 21.6398 27.0389 21.971 26.667 22.2847V24.8147ZM26.6966 20.4714C26.6865 20.4764 26.6765 20.4815 26.667 20.4869V17.7406C27.0093 17.5661 27.3337 17.3828 27.6367 17.1893V19.857C27.6247 19.8658 27.6134 19.875 27.6021 19.8841C27.5898 19.8941 27.5774 19.9041 27.564 19.9138C27.3022 20.1033 27.0239 20.2847 26.7262 20.4558L26.7143 20.4623L26.6966 20.4714ZM24.7275 26.3053C25.08 26.106 25.4015 25.8951 25.6972 25.6749V22.9912C25.3927 23.1856 25.0708 23.3718 24.7275 23.5469V26.3053ZM25.6972 18.1852V20.9727L25.6845 20.9784L25.6845 20.9784L25.6845 20.9784L25.6845 20.9785L25.6845 20.9785L25.6844 20.9785L25.6844 20.9785L25.6844 20.9785L25.6844 20.9785L25.6843 20.9785L25.6843 20.9785L25.6843 20.9785L25.6843 20.9786L25.6842 20.9786L25.6842 20.9786L25.6842 20.9786L25.6842 20.9786L25.6842 20.9786L25.6841 20.9786L25.6841 20.9786L25.6841 20.9786L25.6841 20.9787L25.684 20.9787L25.684 20.9787L25.684 20.9787L25.684 20.9787L25.6839 20.9787L25.6839 20.9787L25.6839 20.9787L25.6839 20.9788L25.6839 20.9788L25.6838 20.9788L25.6838 20.9788L25.6838 20.9788L25.6838 20.9788L25.6837 20.9788L25.6837 20.9788L25.6837 20.9788L25.6837 20.9789L25.6836 20.9789L25.6836 20.9789C25.5224 21.052 25.3613 21.1249 25.192 21.1938L25.1687 21.2033C25.1339 21.2176 25.0993 21.2318 25.064 21.2456C24.9955 21.2727 24.9235 21.298 24.8516 21.3232C24.81 21.3378 24.7684 21.3524 24.7275 21.3673V18.5522C25.063 18.4378 25.3855 18.3151 25.6972 18.1852ZM22.7881 27.1858C23.1256 27.0617 23.449 26.9303 23.7578 26.7906V23.9905C23.4461 24.1205 23.1227 24.2427 22.7881 24.3571V27.1858ZM21.8184 27.5082C21.5037 27.6028 21.1813 27.6906 20.8491 27.7715V24.906C21.1798 24.8308 21.5027 24.7484 21.8184 24.6592V27.5082ZM18.9096 28.1483C19.2393 28.1003 19.5613 28.0435 19.8794 27.9824V25.1028C19.5613 25.16 19.2379 25.2109 18.9096 25.2556V28.1483ZM17.94 28.2709C17.6214 28.3034 17.2966 28.3257 16.9702 28.3456V25.4393C17.297 25.4209 17.6204 25.3971 17.94 25.3666V28.2709ZM15.2271 28.3875L15.2272 28.3875C15.3228 28.3907 15.4185 28.394 15.5156 28.394C15.6127 28.394 15.7084 28.3907 15.804 28.3875L15.8041 28.3875C15.8695 28.3853 15.9348 28.3831 16.0005 28.3819V25.4746C15.9465 25.4758 15.8927 25.4773 15.8389 25.4788L15.8385 25.4788H15.8385H15.8385H15.8385H15.8385H15.8385C15.7312 25.4818 15.624 25.4848 15.5156 25.4848C15.4183 25.4848 15.323 25.4816 15.2275 25.4783C15.1622 25.4761 15.0968 25.4739 15.0307 25.4727V28.3819C15.0964 28.3831 15.1617 28.3853 15.2271 28.3875ZM14.0611 28.3455C13.7347 28.3257 13.4099 28.3034 13.0913 28.2709V25.368C13.4109 25.3981 13.7333 25.4247 14.0611 25.4427V28.3455ZM11.1524 27.9824C11.47 28.0435 11.7924 28.1002 12.1216 28.1482V25.255C11.7929 25.2109 11.4695 25.161 11.1524 25.1047V27.9824ZM10.1828 27.7715C9.85062 27.6905 9.5277 27.6027 9.21254 27.5082V24.6727C9.52673 24.7605 9.85305 24.838 10.1828 24.9122V27.7715ZM7.27348 26.7911C7.58234 26.9302 7.90623 27.0616 8.24321 27.1858V24.3702C7.90768 24.2562 7.58525 24.1331 7.27348 24.0036V26.7911ZM6.3037 26.3051C5.9512 26.1058 5.62974 25.8949 5.33397 25.6747V23.0075C5.63701 23.2005 5.96138 23.3843 6.3037 23.5583V26.3051ZM3.39457 22.5757C3.39457 23.3641 3.74125 24.1219 4.3643 24.8153V22.2872C3.99386 21.974 3.66416 21.6462 3.39457 21.3005V22.5757ZM15.5157 24.5151C8.94529 24.5151 3.39457 21.8507 3.39457 18.6967C3.39457 17.8089 3.83289 17.0486 4.3643 16.4537V16.7572C4.3643 16.9686 4.38806 17.1757 4.42297 17.3813C4.43199 17.4346 4.44388 17.4874 4.4558 17.5403L4.46418 17.5776C4.49618 17.7192 4.53643 17.8589 4.58443 17.9975L4.6026 18.0519C4.6202 18.105 4.63776 18.1579 4.6591 18.2104C4.73086 18.3854 4.8128 18.558 4.90929 18.7268C4.95685 18.8108 5.012 18.8923 5.06729 18.9741L5.11099 19.039L5.12766 19.0639C5.16764 19.1236 5.20775 19.1834 5.2516 19.2422C5.3413 19.3634 5.4373 19.4831 5.53961 19.601C5.552 19.6152 5.56495 19.629 5.57788 19.6428L5.57794 19.6429L5.60119 19.6679C7.5387 21.8318 11.5878 23.3388 16.4665 23.5201C16.468 23.5202 16.4694 23.5205 16.4708 23.5208L16.4753 23.5221C16.4786 23.523 16.4818 23.524 16.4854 23.524C16.4881 23.524 16.4904 23.5233 16.4927 23.5225C16.495 23.5218 16.4973 23.5211 16.4999 23.5211L16.6222 23.5255L16.6223 23.5255C16.898 23.5354 17.1738 23.5453 17.4551 23.5453C18.0423 23.5453 18.6144 23.5196 19.1788 23.4828C19.2652 23.4767 19.3508 23.4697 19.4367 23.4627L19.4465 23.4619C21.4034 23.3126 23.2104 22.9538 24.7688 22.418C22.5055 23.7116 19.1444 24.5151 15.5157 24.5151ZM23.7578 21.6904V18.8544C23.4441 18.9421 23.1178 19.0197 22.7881 19.0944V21.9531C22.8266 21.9439 22.8655 21.935 22.9044 21.9262L22.9048 21.9261L22.9049 21.9261L22.9049 21.9261L22.905 21.9261L22.905 21.9261L22.905 21.9261L22.9051 21.9261L22.9051 21.9261L22.9052 21.9261L22.9052 21.926L22.9052 21.926L22.9053 21.926L22.9053 21.926L22.9054 21.926L22.9054 21.926L22.9054 21.926L22.9055 21.926L22.9055 21.926L22.9056 21.9259L22.9056 21.9259L22.9056 21.9259L22.9057 21.9259L22.9057 21.9259L22.9058 21.9259L22.9058 21.9259C22.9641 21.9127 23.0223 21.8995 23.079 21.8848C23.1405 21.869 23.2011 21.8523 23.2615 21.8357L23.3088 21.8227C23.4244 21.7913 23.5363 21.7574 23.6482 21.7235L23.6484 21.7234L23.7578 21.6904ZM21.8184 19.2863V22.1645C21.7139 22.1846 21.6077 22.2031 21.5015 22.2216L21.5012 22.2217L21.4373 22.2328C21.3899 22.2409 21.3427 22.2492 21.2954 22.2575C21.1536 22.2823 21.0117 22.3071 20.8666 22.3279L20.8562 22.3288L20.8491 22.3298V19.4366C21.1779 19.3925 21.5013 19.3426 21.8184 19.2863ZM19.8794 22.4487V19.5501C19.5594 19.5797 19.2374 19.6064 18.9096 19.6248V22.5272C19.0471 22.5187 19.1827 22.5077 19.3184 22.4967L19.378 22.4918C19.4495 22.4854 19.5213 22.4795 19.593 22.4736H19.5931C19.6887 22.4657 19.7844 22.4578 19.8794 22.4487ZM17.94 19.6544V22.5636C17.8785 22.5649 17.8174 22.5669 17.7563 22.569H17.7563H17.7563H17.7562H17.7562H17.7561H17.7561H17.7561H17.756H17.756H17.756H17.7559H17.7559H17.7558H17.7558H17.7558H17.7557H17.7557H17.7557H17.7556H17.7556H17.7555H17.7555H17.7555H17.7554C17.6558 22.5723 17.5562 22.5757 17.4551 22.5757C17.354 22.5757 17.2544 22.5723 17.1548 22.569H17.1547H17.1547H17.1547H17.1546H17.1546H17.1546H17.1545H17.1545H17.1544H17.1544H17.1544H17.1543H17.1543H17.1543H17.1542H17.1542H17.1541H17.1541H17.1541H17.154H17.154H17.154H17.1539H17.1539C17.0928 22.5669 17.0317 22.5649 16.9702 22.5636V19.6568C17.0292 19.6579 17.0879 19.6594 17.1466 19.661C17.2491 19.6638 17.3515 19.6665 17.4551 19.6665C17.5524 19.6665 17.6477 19.6633 17.7432 19.66C17.8085 19.6578 17.8739 19.6556 17.94 19.6544ZM16.0005 22.5272V19.6209C15.6737 19.6025 15.3503 19.5788 15.0307 19.5487V22.4458C15.3507 22.4787 15.6732 22.5073 16.0005 22.5272ZM14.0611 19.4371V22.3245C13.7318 22.2765 13.4089 22.2212 13.0913 22.1601V19.2849C13.4094 19.3421 13.7328 19.3925 14.0611 19.4371ZM12.1216 21.9487V19.0875C11.791 19.0124 11.468 18.9299 11.1524 18.8412V21.683C11.4675 21.7775 11.789 21.8682 12.1216 21.9487ZM10.1828 18.5387V21.362C9.8448 21.2379 9.52237 21.1056 9.21254 20.9659V18.1721C9.52479 18.3021 9.8482 18.4243 10.1828 18.5387ZM8.24321 20.4785V17.7283C7.89992 17.5533 7.57797 17.3676 7.27348 17.1727V19.8457C7.5707 20.0659 7.88877 20.2792 8.24321 20.4785ZM8.24321 12.7208V15.5437C7.90574 15.42 7.58282 15.2872 7.27348 15.148V12.3518C7.58622 12.4818 7.90671 12.6064 8.24321 12.7208ZM5.33397 15.4734V16.7573C5.33397 17.5398 5.68744 18.2885 6.3037 18.9755V16.4664C5.93181 16.1531 5.60598 15.822 5.33397 15.4734ZM6.3037 11.9057V14.6602C5.94926 14.4609 5.63119 14.2481 5.33397 14.0279V11.3515C5.63895 11.5449 5.95944 11.7311 6.3037 11.9057ZM3.39457 10.9394C3.39457 11.722 3.74804 12.4701 4.3643 13.1572V10.6378C3.9958 10.3285 3.66173 10.0065 3.39457 9.66421V10.9394ZM3.39457 7.06047C3.39457 3.90643 8.94529 1.24211 15.5157 1.24211C22.0861 1.24211 27.6368 3.90643 27.6368 7.06047C27.6368 10.2145 22.0861 12.8788 15.5157 12.8788C8.94529 12.8788 3.39457 10.2145 3.39457 7.06047ZM9.21254 13.023V15.8653C9.52819 15.9598 9.84965 16.05 10.1828 16.1305V13.2713C9.85014 13.1961 9.52916 13.1113 9.21254 13.023ZM11.1524 16.3423V13.4661C11.4705 13.5228 11.7924 13.5757 12.1216 13.6198V16.5062C11.7929 16.4587 11.47 16.4029 11.1524 16.3423ZM13.0913 13.7307V16.6278C13.4113 16.6603 13.7338 16.6889 14.0611 16.7088V13.8039C13.7333 13.786 13.4109 13.7608 13.0913 13.7307ZM15.0307 16.7451V13.8389C15.0897 13.8399 15.1483 13.8415 15.2069 13.8431C15.3093 13.8458 15.4117 13.8486 15.5156 13.8486C15.6195 13.8486 15.7219 13.8458 15.8243 13.8431C15.8829 13.8415 15.9415 13.8399 16.0005 13.8389V16.7451C15.939 16.7464 15.8779 16.7485 15.8168 16.7505H15.8168H15.8167H15.8167H15.8167H15.8166H15.8166H15.8166H15.8165H15.8165H15.8164C15.7167 16.7539 15.6169 16.7573 15.5156 16.7573C15.4143 16.7573 15.3145 16.7539 15.2147 16.7505H15.2147H15.2147H15.2146H15.2146H15.2146H15.2145H15.2145H15.2144H15.2144H15.2144C15.1533 16.7485 15.0922 16.7464 15.0307 16.7451ZM16.9702 13.8039V16.7088C17.2975 16.6889 17.62 16.6603 17.94 16.6278V13.7307C17.6204 13.7608 17.298 13.786 16.9702 13.8039ZM18.9096 16.5062V13.6198C19.2389 13.5757 19.5608 13.5228 19.8794 13.4661V16.3423C19.5613 16.4029 19.2389 16.4587 18.9096 16.5062ZM20.8491 13.2708V16.1305C21.1818 16.05 21.5032 15.9598 21.8184 15.8653V13.023C21.5023 13.1113 21.1813 13.1961 20.8491 13.2708ZM22.7881 15.5437V12.7208C23.1246 12.6064 23.4451 12.4818 23.7578 12.3518V15.148C23.4485 15.2872 23.126 15.42 22.7881 15.5437ZM24.7275 11.9057V14.6602C25.0819 14.4609 25.4 14.2481 25.6972 14.0279V11.3515C25.3922 11.5449 25.0718 11.7311 24.7275 11.9057ZM26.667 10.6378C27.0355 10.3285 27.3696 10.0065 27.6367 9.66421V10.9394C27.6367 11.7215 27.2833 12.4701 26.667 13.1572V10.6378ZM28.6064 10.6355V10.9395C28.6064 11.1505 28.5827 11.358 28.5478 11.5631C28.5387 11.6164 28.5269 11.6692 28.5149 11.722L28.5065 11.7594C28.4745 11.901 28.4343 12.0407 28.3863 12.1793C28.38 12.198 28.3738 12.2167 28.3676 12.2354L28.3676 12.2355C28.3501 12.2882 28.3327 12.3408 28.3116 12.3927C28.2399 12.5672 28.1579 12.7398 28.0614 12.909C28.0125 12.995 27.9556 13.079 27.8988 13.163L27.8597 13.2208L27.8559 13.2266C27.8116 13.293 27.7677 13.3589 27.7191 13.424C27.6294 13.5457 27.5334 13.665 27.4311 13.7828C27.418 13.7979 27.4042 13.8127 27.3904 13.8275L27.3695 13.8502C25.432 16.0141 21.3825 17.5211 16.5042 17.7024C16.5008 17.7024 16.4978 17.7033 16.4948 17.7041L16.4904 17.7052C16.4888 17.7056 16.4871 17.7058 16.4853 17.7058C16.4838 17.7058 16.4824 17.7056 16.481 17.7053L16.477 17.7043C16.4749 17.7037 16.4729 17.7031 16.4708 17.7029L16.402 17.7054H16.402H16.402H16.4019C16.1084 17.7163 15.8151 17.7271 15.5156 17.7271C15.2681 17.7271 15.024 17.7177 14.7801 17.7082H14.7801H14.78H14.78C14.7115 17.7056 14.643 17.7029 14.5745 17.7005C14.5696 17.7007 14.5652 17.7019 14.5608 17.7031C14.556 17.7045 14.5512 17.7058 14.5459 17.7058C14.5385 17.7058 14.5318 17.7039 14.5252 17.7021C14.5196 17.7005 14.514 17.699 14.5081 17.6985C13.1597 17.6457 11.8588 17.4886 10.635 17.2374C10.5802 17.2335 10.5264 17.2258 10.4779 17.2054L10.4648 17.2024L10.4517 17.1991C10.4431 17.1969 10.4345 17.1948 10.4255 17.1928C10.1264 17.1283 9.83155 17.0609 9.54355 16.9853C9.46288 16.9645 9.38433 16.9418 9.30583 16.9191C9.25977 16.9058 9.21373 16.8925 9.16729 16.8796C8.79201 16.7724 8.42885 16.6556 8.07393 16.5319C10.3378 17.8673 13.7604 18.6969 17.4551 18.6969C24.0254 18.6969 29.5762 16.0325 29.5762 12.879C29.5762 11.9907 29.1378 11.2309 28.6064 10.6355ZM28.6064 16.4687C28.9768 16.1555 29.3065 15.8282 29.5761 15.4825V16.7572C29.5761 17.5456 29.2295 18.3034 28.6064 18.9968V16.4687ZM15.5156 11.9091C9.26279 11.9091 4.36422 9.77912 4.36422 7.0605C4.36422 4.34187 9.26279 2.21187 15.5156 2.21187C21.7689 2.21187 26.667 4.34187 26.667 7.0605C26.667 9.77912 21.7689 11.9091 15.5156 11.9091ZM5.33397 7.06053C5.33397 5.1875 9.42525 3.18162 15.5156 3.18162C21.606 3.18162 25.6973 5.1875 25.6973 7.06053C25.6973 8.93355 21.606 10.9394 15.5156 10.9394C9.42525 10.9394 5.33397 8.93355 5.33397 7.06053Z" fill="#8697A2"/>
</g>
</svg>
