<svg width="22" height="22" viewBox="0 0 22 22" fill="none" xmlns="http://www.w3.org/2000/svg">
  <path fill-rule="evenodd" clip-rule="evenodd" d="M3.22183 18.7782C2.29761 17.854 2.03247 16.4442 2.32231 14.5944C0.809377 13.4914 0 12.307 0 11C0 9.69297 0.809377 8.50862 2.32231 7.40558C2.03247 5.55582 2.29761 4.14604 3.22183 3.22183C4.14604 2.29761 5.55582 2.03247 7.40558 2.32231C8.50862 0.809377 9.69297 0 11 0C12.307 0 13.4914 0.809377 14.5944 2.32231C16.4442 2.03247 17.854 2.29761 18.7782 3.22183C19.7024 4.14604 19.9675 5.55582 19.6777 7.40558C21.1906 8.50862 22 9.69297 22 11C22 12.307 21.1906 13.4914 19.6777 14.5944C19.9675 16.4442 19.7024 17.854 18.7782 18.7782C17.854 19.7024 16.4442 19.9675 14.5944 19.6777C13.4914 21.1906 12.307 22 11 22C9.69297 22 8.50862 21.1906 7.40558 19.6777C5.55582 19.9675 4.14604 19.7024 3.22183 18.7782Z" fill="#0CD664"/>
  <path fill-rule="evenodd" clip-rule="evenodd" d="M9.29297 10.8788C9.68349 11.2693 10.3167 11.2693 10.7072 10.8788L13.5859 8.00007C13.9764 7.60955 14.6096 7.60955 15.0001 8.00008V8.00008C15.3906 8.3906 15.3906 9.02376 15.0001 9.41429L10.7072 13.7072C10.3167 14.0977 9.68349 14.0977 9.29297 13.7072L7.00007 11.4143C6.60955 11.0238 6.60955 10.3906 7.00008 10.0001V10.0001C7.3906 9.60955 8.02376 9.60955 8.41429 10.0001L9.29297 10.8788Z" fill="white"/>
</svg>
