<svg width="32" height="30" viewBox="0 0 32 30" fill="none" xmlns="http://www.w3.org/2000/svg">
<g id="Chat_HelpCenter">
<path id="Path" fill-rule="evenodd" clip-rule="evenodd" d="M26.1639 25.1004H21.0342V29.2046C21.0342 29.4118 20.9091 29.5991 20.7172 29.6786C20.6536 29.7048 20.5869 29.7176 20.5207 29.7176C20.3873 29.7176 20.2565 29.6653 20.158 29.5673L15.6912 25.1004H2.56509C1.1507 25.1004 0 23.9497 0 22.5354V6.1188C0 4.70441 1.1507 3.55371 2.56509 3.55371H26.1639C27.5783 3.55371 28.7295 4.70441 28.7295 6.1188V22.5354C28.7295 23.9497 27.5783 25.1004 26.1639 25.1004Z" fill="white" fill-opacity="0.1"/>
<path id="Shape" fill-rule="evenodd" clip-rule="evenodd" d="M24.3047 21.8299H29.4344C30.8488 21.8299 32 20.6792 32 19.2648V2.84829C32 1.4339 30.8488 0.283203 29.4344 0.283203H5.8356C4.42121 0.283203 3.27051 1.4339 3.27051 2.84829V19.2648C3.27051 20.6792 4.42121 21.8299 5.8356 21.8299H18.9617L23.4285 26.2968C23.527 26.3948 23.6578 26.4471 23.7912 26.4471C23.8574 26.4471 23.9241 26.4343 23.9877 26.4081C24.1796 26.3286 24.3047 26.1413 24.3047 25.9341V21.8299ZM29.4344 1.30924C30.2834 1.30924 30.9734 1.99976 30.9734 2.84829V19.2648C30.9734 20.1134 30.2834 20.8039 29.4344 20.8039H23.7912C23.508 20.8039 23.2782 21.0337 23.2782 21.3169V24.6957L19.5367 20.9542C19.4408 20.8578 19.3105 20.8039 19.174 20.8039H5.83556C4.98703 20.8039 4.29651 20.1134 4.29651 19.2648V2.84829C4.29651 1.99976 4.98703 1.30924 5.83556 1.30924H29.4344ZM23.7911 12.5956C22.6599 12.5956 21.739 11.6752 21.739 10.5435C21.739 9.41179 22.6599 8.49144 23.7911 8.49144C24.9228 8.49144 25.8432 9.41179 25.8432 10.5435C25.8432 11.6752 24.9228 12.5956 23.7911 12.5956ZM22.7651 10.5434C22.7651 9.97756 23.2253 9.51739 23.7911 9.51739C24.357 9.51739 24.8172 9.97756 24.8172 10.5434C24.8172 11.1093 24.357 11.5695 23.7911 11.5695C23.2253 11.5695 22.7651 11.1093 22.7651 10.5434ZM17.6348 12.5956C16.5036 12.5956 15.5827 11.6752 15.5827 10.5435C15.5827 9.41179 16.5036 8.49144 17.6348 8.49144C18.7665 8.49144 19.6868 9.41179 19.6868 10.5435C19.6868 11.6752 18.7665 12.5956 17.6348 12.5956ZM16.6089 10.5434C16.6089 9.97756 17.0696 9.51739 17.635 9.51739C18.2008 9.51739 18.6615 9.97756 18.6615 10.5434C18.6615 11.1093 18.2008 11.5695 17.635 11.5695C17.0696 11.5695 16.6089 11.1093 16.6089 10.5434ZM11.4786 12.5956C10.3474 12.5956 9.42653 11.6752 9.42653 10.5435C9.42653 9.41179 10.3474 8.49144 11.4786 8.49144C12.6103 8.49144 13.5307 9.41179 13.5307 10.5435C13.5307 11.6752 12.6103 12.5956 11.4786 12.5956ZM10.4527 10.5434C10.4527 9.97756 10.9128 9.51739 11.4787 9.51739C12.0446 9.51739 12.5053 9.97756 12.5053 10.5434C12.5053 11.1093 12.0446 11.5695 11.4787 11.5695C10.9128 11.5695 10.4527 11.1093 10.4527 10.5434Z" fill="#8697A2"/>
</g>
</svg>
