<svg width="196" height="151" viewBox="0 0 196 151" fill="none" xmlns="http://www.w3.org/2000/svg">
<path d="M28.0411 114.907L26.6966 116.024L26.2276 116.295L25.8571 116.736L25.5406 116.976L25.1209 117.332L24.7683 117.706L24.2453 118.179L24.2273 118.246L23.9715 118.394L23.5157 118.884L22.9434 119.271L22.5302 119.737L21.6481 120.474L21.3136 120.781L20.6873 121.37L19.733 122.376L18.8395 123.289L18.4575 123.908L18.2756 124.183L18.0708 124.813L18.0119 125.302L18.1415 125.625L18.2646 125.838L18.5042 126.155L19.0734 126.451L20.2575 126.336L20.9463 126.052L21.817 125.493L22.522 124.745L22.7106 124.579L23.6942 123.329L24.4041 122.294L25.5156 120.97L27.0241 119.644L27.298 119.429L28.9884 117.828C29.5541 117.331 30.4296 116.484 30.6969 116.159L31.4199 115.344L31.815 114.945L32.3447 114.583L32.4906 114.441L33.4136 113.283L35.3779 111.467C35.7796 111.178 36.0469 110.853 36.4486 110.565L36.5945 110.424L38.4933 108.986L39.0836 108.532L40.4413 107.634L40.8791 107.211C41.5367 106.774 42.145 106.253 42.8452 105.791C42.9731 105.718 43.1436 105.619 43.2961 105.588L43.152 106.126L43.0997 106.725L42.8624 108.283L42.8118 109.278L42.277 113.964C42.259 114.032 42.241 114.099 42.2656 114.141L42.0054 116.054L42.0156 116.958L41.9044 118.045C41.9061 118.442 41.8226 118.888 41.8244 119.285L41.7475 119.841L41.6658 120.684L41.7792 121.471C41.7159 123.725 41.7283 126.503 41.8866 129.14L41.9082 129.867L41.9328 129.91L41.9495 130.923L41.9939 131.296L42.0335 131.955L42.0436 132.859L42.0454 133.255L42.0621 134.269L42.1689 134.946L42.1527 135.411L42.3057 136.857L42.58 138.12L42.9563 140.347L43.1009 141.287L43.2323 142.007L43.5902 142.823L43.7805 143.055L44.0134 143.261L44.6187 143.423L44.9664 143.336L45.1189 143.305L45.3927 143.09L45.5861 142.637L45.7483 142.032L45.812 141.256L45.7676 140.884L45.7707 140.2L45.6933 139.278L45.5126 138.473L45.2941 137.406L44.7754 136.113L44.6796 133.781C44.5991 133.543 44.5301 133.128 44.4251 132.848L44.4576 131.92L44.3393 131.419L44.1503 130.107C44.0879 129.802 44.1533 129.423 44.0909 129.118L44.0483 129.143L43.9955 128.264L43.8329 127.391L43.839 126.024C43.7832 125.828 43.788 125.541 43.7322 125.346L43.7581 124.308L43.5888 123.326L43.5937 123.039L43.5721 122.312L43.6011 120.59C43.5452 120.395 43.5501 120.108 43.4942 119.913C43.4745 119.583 43.4907 119.119 43.5382 118.807L43.6889 118.379C43.743 118.177 43.6986 117.805 43.728 117.561L43.895 116.668L44.0189 114.323L44.3314 111.812L44.4984 110.92L44.7471 109.184L44.7502 108.5L44.8697 107.92L45.0187 107.095L44.9677 106.612L45.3312 104.584L45.5606 103.996C45.5606 103.996 45.6393 103.837 45.6573 103.77L49.614 100.974L49.7599 100.833C49.9731 100.71 50.2715 100.537 50.4175 100.396L50.6306 100.273C52.2622 99.1608 53.9364 98.0236 55.5926 96.9537L55.8484 96.806L56.5059 96.3696L56.9077 96.0808C57.5652 95.6443 58.2654 95.1832 58.9902 94.7647L59.4592 94.494L60.0315 94.1067L60.653 93.8047L60.9694 93.5652L62.2305 92.894L62.4617 92.7036L62.8273 92.5493L63.0585 92.359L65.0624 91.2021L65.8544 90.8017L66.3414 90.4636L66.5973 90.3159L68.2846 89.3986L68.5405 89.2509L70.3804 88.3023C71.0625 87.9085 71.215 87.8773 71.3856 87.7788C71.5561 87.6803 71.7513 87.6245 72.3482 87.2799L72.9697 86.9779L73.414 86.6645L74.3094 86.1476C74.3947 86.0983 74.8456 85.8948 75.1014 85.7471C75.3392 85.6667 75.8082 85.3959 75.9787 85.2975C76.4297 85.0939 76.9413 84.7986 77.1545 84.6755C78.0318 84.2258 78.0564 84.2684 79.1962 83.781L80.0555 83.3985C80.1834 83.3247 80.4212 83.2443 80.5917 83.1458L84.0355 81.726C84.1027 81.744 84.188 81.6948 84.2733 81.6456L84.3585 81.5963L85.1146 81.3304C85.8033 81.0464 86.6872 80.7066 87.5892 80.2996C87.7171 80.2257 87.845 80.1519 87.9711 79.6812L87.8102 79.2056L87.1131 78.9827L82.5296 80.89L82.2918 80.9705L81.9441 81.0575L81.3472 81.4021C81.1521 81.4579 81.0668 81.5072 80.9389 81.581L80.5126 81.8272L80.4453 81.8091L78.6529 82.4461L78.1839 82.7169L77.2147 83.1059L76.5932 83.4079L76.075 83.5934L75.642 83.7296L74.6548 84.1859L74.3564 84.3582L73.9661 84.4699L73.8135 84.5011L73.3872 84.7472L72.9068 85.1951L72.3705 85.4479C72.2426 85.5217 72.0048 85.6022 71.8769 85.676C70.993 86.0158 69.8779 86.5459 68.3431 87.4321L68.1905 87.4633L67.8314 87.7274L66.0408 88.7613L65.5045 89.014L62.8185 90.5648L61.0459 91.5314L60.2538 91.9318L60.1505 92.0483C58.8715 92.7868 57.1907 93.814 55.9362 94.5951L54.4374 95.3468L53.3109 96.054L52.7698 96.5938C52.0696 97.0549 51.8565 97.178 51.6433 97.3011C51.3875 97.4488 51.0218 97.603 50.3889 98.0822L50.2363 98.1134L47.6668 99.7674L47.211 100.258L46.6994 100.553L46.5108 100.719L46.4075 100.836L46.0911 101.075L46.1974 100.275L46.4479 98.9363L46.6527 98.3064L46.9327 96.7236L47.5748 94.1927L47.7616 93.6301L47.7436 93.6973L47.8763 93.3365L48.1826 92.1932L48.689 90.7071L48.8085 90.1265L49.0133 89.4966L49.4933 87.571L49.7275 86.6967L49.8849 86.3785L50.2813 84.899L50.7155 83.6818L51.0008 83.2898L51.3089 82.5434C51.3269 82.4762 51.435 82.0727 51.5137 81.9135L51.9545 80.8063L52.0675 80.1158L52.5083 79.0086L52.587 78.8495L53.154 77.2715L53.2867 76.9106L53.3834 76.6843L53.3654 76.7515L54.0735 75.3195L54.1636 74.9832L54.5455 74.3648L55.2338 72.6031C55.5665 71.8993 55.9665 71.2137 56.3418 70.4853L56.8499 69.3961L56.9286 69.237C57.0499 69.0533 57.2072 68.735 57.3532 68.5939L57.5417 68.4282L58.0024 67.6507C58.7122 66.6155 58.9056 66.1628 58.9596 65.961C59.9055 64.4486 59.9662 64.3567 60.6826 63.4314L60.8465 63.2231L61.7449 62.0222L61.9876 61.6548L62.3401 61.2807C62.468 61.2069 62.6319 60.9985 62.7352 60.882L63.3435 60.3603L63.9272 59.7959C64.1764 59.5383 64.4929 59.2988 64.6634 59.2003C64.6634 59.2003 65.1816 59.0148 65.4621 58.9097C65.6999 58.8293 65.9803 58.7243 66.1935 58.6012L66.9921 58.3106L67.2479 58.1629C67.7481 58.0447 68.2975 58.0117 68.6764 58.0772C68.7437 58.0952 68.8602 58.1985 69.0259 58.387L69.2342 58.551C69.3507 58.6543 69.5344 58.7756 69.6083 58.9035C69.7001 58.9642 69.7494 59.0494 69.756 59.1593C69.8052 59.2446 69.861 59.4397 69.8856 59.4824C70.181 59.994 70.4944 60.4384 70.7274 60.6449C70.9357 60.8089 71.3639 60.9596 71.6329 61.0317C71.9871 61.0546 72.3102 60.9249 72.5414 60.7346C73.1005 60.1275 73.0609 59.4682 72.9246 59.0353C72.7259 58.2973 72.2534 57.7743 71.8301 57.3365L71.4315 56.9413L70.8983 56.5102L70.5669 56.133L70.3585 55.9691L70.1928 55.7805L69.5744 55.3986C69.5317 55.4232 69.4891 55.4478 69.3792 55.4544L68.8412 55.3103L68.5115 55.33L67.8768 55.4123L67.5292 55.4993C67.4439 55.5485 67.1208 55.6782 67.0109 55.6848C66.8584 55.716 66.6452 55.8391 66.56 55.8883C66.5173 55.9129 66.7191 55.967 66.0844 56.0492L65.1038 56.6153C65.0185 56.6646 64.9152 56.7811 64.7873 56.8549L64.4889 57.0272C63.1492 57.8575 62.2262 59.0158 61.5638 59.7393L61.6064 59.7146L61.108 60.2298C60.7555 60.6039 60.4522 61.0632 60.0997 61.4372L59.8685 61.6276L59.4685 62.3133L58.8914 62.9875L58.6242 63.3124C58.6062 63.3796 58.5029 63.4961 58.5029 63.4961L58.0357 64.1638C57.8291 64.3967 56.6389 65.8798 56.3488 66.5589L55.6047 68.1254L54.8095 69.2098L54.4948 69.8463L54.3261 70.3416L53.436 72.0493L52.8018 73.6092L51.3088 77.0294L51.1154 77.4821L50.8794 77.9594L50.722 78.2777L50.4992 78.9748L50.1796 79.8983L49.6338 80.7251L49.5437 81.0613L49.2043 81.6551L48.9226 82.841L48.3244 84.2665L47.3694 87.8308L47.158 88.3508L46.9334 88.651L46.4697 90.1125L46.1766 91.4755L46.0948 92.3185L45.8654 92.9058L45.1872 95.5712L45.0136 96.3536L44.7746 97.5148L44.2472 99.7521L44.0441 100.779L43.8819 101.384L43.7576 102.252C43.7708 102.472 43.7593 102.649 43.7233 102.783L43.6807 102.808C41.9884 104.012 40.2356 105.308 38.6106 106.531L36.8331 107.785L33.6997 110.333L31.8255 111.813C31.1499 112.316 30.517 112.795 29.5316 113.649L28.0411 114.907Z" fill="white"/>
<path d="M93.1929 89.2295C93.2175 89.2721 93.2488 89.4246 93.2734 89.4673C93.3358 89.7723 93.5507 90.0461 93.8263 90.2281L93.9674 90.374L94.7991 90.6329C94.8843 90.5837 95.0795 90.5278 95.1221 90.5032L95.2074 90.454C95.4452 90.3735 95.8043 90.1094 96.0781 89.8944C96.206 89.8206 96.3093 89.7041 96.4798 89.6056L96.9062 89.3595L97.3866 88.9116L97.849 88.5309C97.9343 88.4817 98.0622 88.4078 98.1228 88.316L98.3967 88.101L98.841 87.7876L99.2968 87.2971L99.4427 87.156L99.8871 86.8426L101.066 85.5367L101.546 85.0888L101.899 84.7147L102.514 84.3029L102.617 84.1864L102.891 83.9714L103.096 83.3416L102.941 82.9759L102.641 82.7513L101.995 83.0106L101.721 83.2256C101.636 83.2748 101.593 83.2994 101.533 83.3913L101.174 83.6554L100.644 84.0181L100.395 84.2757L99.4699 85.037L99.1895 85.142L98.6911 85.6572L98.5025 85.8229C98.4173 85.8721 98.314 85.9886 98.2287 86.0378C97.8089 86.3939 97.4498 86.658 97.1088 86.855L96.8103 87.0273L96.5299 87.1323L96.1888 87.3293C96.0609 87.4031 95.9084 87.4343 95.7805 87.5082C95.4148 87.6624 95.195 87.6756 94.9933 87.6216L94.944 87.5363C94.8702 87.4084 94.7897 87.1706 94.7273 86.8656L94.8174 86.5293L94.8091 86.0225C94.7844 85.9799 94.7532 85.8274 94.704 85.7421L94.653 85.2599C94.6284 85.2173 94.6218 85.1074 94.5726 85.0221L94.6183 84.3136L94.569 84.2283L94.6705 83.7149L94.6196 83.2327L94.5439 82.7079L94.6011 81.8223C94.6011 81.8223 94.5206 81.5845 94.514 81.4746L94.4925 80.748L94.6397 79.5261L94.5953 79.1538L94.5082 78.8061L94.3606 78.5503L93.9931 78.3077L93.5223 78.1815C93.1927 78.2013 92.8696 78.331 92.6991 78.4295L92.5105 78.5952L92.176 78.902L91.9334 79.2695L91.2482 80.3472L91.1335 80.6408L91.0122 80.8246L89.9859 82.0993L89.8465 82.3503L89.7679 82.5094L89.3367 83.0426L89.1793 83.3608L88.858 83.8874L88.6418 84.6944L88.3025 85.2882L88.0304 85.9L87.1698 87.3633L86.642 88.1228L86.4732 88.6182C86.4371 88.7527 86.3519 88.8019 86.3158 88.9364L85.7225 90.0749L85.6798 90.0995L85.4913 90.2652L84.7208 91.3922L84.3766 92.2731L84.1947 92.5487L84.0307 92.757L83.6848 93.241C83.6242 93.3328 83.6128 93.51 83.5521 93.6018L82.2718 95.4211L82.0898 95.6967L81.8406 95.9543L81.2881 96.6712L80.711 97.3455C80.6503 97.4373 80.3405 97.7868 80.006 98.0936C79.6961 98.443 79.4223 98.658 79.2517 98.7564L79.0812 98.8549C78.9893 98.7942 79.0812 98.8549 79.0073 98.727C78.9581 98.6417 78.9581 98.6417 78.9761 98.5745L78.8939 97.9398L78.8495 97.5675L78.6935 96.8049L78.6917 96.408L78.7734 95.5649C78.7717 95.168 78.8125 94.7465 78.8534 94.325L78.9417 93.5918L79.1298 91.9484L79.1659 91.8139L79.2986 91.453L79.3821 91.0069L79.4722 90.6706L79.5557 90.2245L79.7359 89.552L79.8128 88.9959L79.9011 88.2628L79.873 87.4263L79.8826 86.8523L79.7152 86.2668L79.2229 85.4141C78.9587 85.055 78.6585 84.8304 78.4075 84.6911L77.8268 84.5715L77.5464 84.6766L77.2299 84.9162L76.8414 85.4247L76.7482 86.4449L76.8551 87.1222L77.0472 87.7503L77.2261 88.1587C77.2999 88.2866 77.2885 88.4637 77.3131 88.5063L77.4133 89.0738L77.4265 89.2936L77.4037 89.6478L77.3285 90.6008L77.3123 91.0649L77.296 91.5291L77.2257 92.195L77.1242 92.7084L77.1097 93.5694L77.0689 93.991L77.01 94.4797L77.079 94.8947L77.0843 96.0854L76.9647 96.666L76.9371 97.3073L76.9617 97.35L77.0307 97.7649L76.9652 98.1438L77.1393 98.8391L77.2887 99.4918L77.4857 99.8329C77.658 100.131 77.8057 100.387 78.3503 100.641C78.6193 100.713 78.7111 100.774 79.4737 100.618L80.0838 100.493L81.4367 99.8825L81.7105 99.6676L82.045 99.3607L82.2516 99.1278L83.1091 98.3485L83.4124 97.8891L83.4665 97.6874L83.6238 97.3691L83.7271 97.2527L84.0009 97.0377L84.1205 96.4571L84.2058 96.4078L84.3697 96.1995L84.7697 95.5138L85.0549 95.1217L85.1336 94.9626L85.2351 94.4492L85.2958 94.3574L86.417 92.4594L86.8236 91.8836L87.6661 90.4876L87.8169 90.0594L87.9136 89.8331L89.5495 86.9558L89.7315 86.6802L90.2281 85.7681L90.956 84.6657L91.1314 84.2803L91.3806 84.0227L91.5445 83.8143L92.6807 82.533L92.6825 82.9299C92.7317 83.0152 92.7383 83.1251 92.7629 83.1677L92.7713 83.6745C92.8337 83.9796 92.7796 84.1813 92.8109 84.3338L92.7814 84.5782C92.806 84.6209 92.8306 84.6635 92.8372 84.7734C92.8324 85.0604 92.8162 85.5246 92.8294 85.7443L92.8461 86.7579C92.8527 86.8678 92.8347 86.9351 92.8839 87.0203L92.8856 87.4172L92.9349 87.5025C92.9925 88.0946 93.0795 88.4422 93.0681 88.6194L93.1929 89.2295Z" fill="white"/>
<path d="M103.05 51.7042L102.496 52.0242L101.845 52.5706L101.607 52.651L101.504 52.7675L100.828 53.2712L100.572 53.4189L100.323 53.6765L99.3198 54.5969L99.1919 54.6708L98.9181 54.8857L98.7656 54.9169L97.9194 55.5191L96.8241 56.3789L96.7208 56.4954L95.1385 57.6932L94.8335 57.7556L94.1333 58.2167L93.6234 58.909L93.1184 59.3142C92.5101 59.836 92.2002 60.1854 91.6904 60.8777L91.4658 61.1779C91.1199 61.6619 91.1577 61.9243 91.1709 62.1441L91.3071 62.577L91.6698 63.1066L92.1651 63.2754L92.5686 63.3835L93.0934 63.3079L93.9101 62.9501L94.707 62.2626L94.9922 61.8706L96.0612 60.5713L96.371 60.2218L96.6203 59.9642L96.8875 59.6394L98.7419 57.8298L99.0337 57.5476L99.9946 56.6518L100.268 56.4368L100.627 56.1726L101.808 55.2636L103.038 54.4399L103.5 54.0593L103.713 53.9362L103.769 54.1313L103.571 54.8711L103.573 55.268L103.453 55.8486L103.311 56.7835L103.211 57.6938L103.224 57.9136L103.096 57.9875L102.992 59.1848L103.049 59.7768L102.851 60.5166L102.817 61.048C102.794 61.4023 102.783 61.5794 102.657 62.0502L102.455 63.4739L102.365 63.8101C102.247 64.7877 102.185 65.9604 102.092 66.9805L101.906 67.5432L101.901 67.8302C101.788 68.5207 101.753 69.0521 101.695 69.5409L101.588 70.3413L101.336 71.2828L101.326 71.8568L101.172 72.9689C101.197 73.0115 101.154 73.0361 101.179 73.0788L101.084 73.702L101.05 74.2335L101.022 74.8747L100.988 75.4062L100.893 76.0294L100.846 76.3411L100.737 76.7446C100.762 76.7872 100.769 76.8971 100.818 76.9824L100.698 77.563L100.603 78.1863L100.581 78.5405L100.461 79.1212L100.42 79.5427L100.325 80.166L100.279 80.8745L100.239 81.296C100.203 81.4305 100.258 81.6257 100.222 81.7602L100.157 82.1391L100.073 82.5852C100.098 82.6279 100.111 82.8476 100.16 82.9329L100.12 83.3544L100.143 84.4779L100.218 85.0027L100.142 85.5587L100.179 85.8211L100.253 85.9491L100.212 86.3706C100.262 86.4558 100.324 86.7609 100.373 86.8462C100.529 87.6088 100.623 88.0663 100.753 88.3894C100.777 88.432 100.833 88.6272 100.882 88.7124L101.178 89.2241L101.484 89.5585L101.968 89.9045L102.603 89.8222L102.884 89.7172L103.231 89.6302L103.469 89.5497L103.999 89.1871L105.305 87.8073L106.192 86.7836L106.678 86.0487L107.055 85.7173L107.527 84.7626L108.061 84.1129L108.34 83.6109L108.468 83.5371L108.715 82.8826L109.019 82.4233L109.6 81.462L109.782 81.1864C109.782 81.1864 109.861 81.0273 109.904 81.0027L110.22 80.7631L110.384 80.5547L110.651 80.2299L110.883 80.0396C110.901 79.9723 111.004 79.8559 111.04 79.7214C111.058 79.6541 111.112 79.4524 111.173 79.3605L111.215 79.3359L111.628 78.8699L111.878 78.6124L112.161 77.8234L112.981 76.7816L113.156 76.3962L113.556 75.7105L113.592 75.576L113.792 75.2331L114.217 74.5901L114.551 74.2833L114.897 73.7993L115.358 73.0217L115.655 72.4525L115.897 72.0851L115.915 72.0178L116.623 70.5858L116.659 70.4513L116.841 70.1757L117.12 69.6737L116.966 69.308L116.701 68.9489L116.323 68.8834L115.836 69.2214L115.636 69.5643L115.575 69.6562L115.472 69.7726L115.308 69.981L114.847 70.7586L114.714 71.1194L114.611 71.2359L113.847 72.4728L113.373 73.0306L112.96 73.4965L112.524 74.3167L112.477 74.6283L112.027 75.2288L111.657 75.6701L111.432 75.9703L111.093 76.5641L109.691 78.5672L109.545 78.7082L109.206 79.3021L108.29 80.5702L108.168 80.7539L107.834 81.0607L107.555 81.5627L106.967 82.4141L106.178 83.6084L105.922 83.756L105.783 84.007L105.473 84.3565L105.199 84.5714L104.981 84.9815L104.714 85.3063L104.447 85.6312L104.229 86.0413L103.937 86.3235L103.688 86.581L103.019 87.1947L102.976 87.2193L102.797 86.8109C102.699 86.6404 102.722 86.2861 102.623 86.1156L102.644 85.3644L102.515 85.0413L102.392 84.8282L102.345 84.059L102.297 82.8929L102.379 82.0498C102.317 81.7448 102.346 81.5004 102.284 81.1953L102.261 80.0719L102.283 79.7176L102.449 78.4284C102.453 78.1414 102.545 78.2021 102.507 77.9396L102.66 76.4307L102.762 74.8365L103.083 72.8321L103.268 71.8726L103.517 70.1373L103.466 69.6551L103.477 69.478L103.554 68.922L103.68 68.4512L103.782 67.9378L103.865 67.4917L103.85 66.875C103.862 66.6979 103.849 66.4781 103.885 66.3436L103.993 65.9401L103.973 65.6104L104.192 64.1195L104.269 63.5635L104.6 60.9851L104.893 59.6221L104.981 58.8889L105.079 57.5817L105.318 56.4204C105.318 56.4204 105.287 56.2679 105.262 56.2253C105.303 55.8038 105.375 55.5348 105.459 55.0886L105.616 54.7704L105.572 54.3981L105.708 53.3533L105.821 52.6628L107.183 51.4782L107.67 51.1402L108.882 50.3837L109.149 50.0588L109.295 49.9178C110.635 49.0874 111.999 48.2997 113.363 47.512L113.662 47.3397C113.79 47.2659 113.942 47.2347 114.07 47.1608L114.223 47.1296L114.369 46.9885C114.667 46.8162 115.008 46.6193 115.374 46.465L115.977 46.2303L116.361 46.0087C116.446 45.9595 116.599 45.9283 116.727 45.8544L117.568 45.5393L117.885 45.2997L118.311 45.0536C118.354 45.0289 118.506 44.9977 118.591 44.9485L119.39 44.658C119.603 44.5349 119.993 44.4232 120.249 44.2755C120.81 44.0654 121.261 43.8619 121.804 43.719L122.542 43.5203L123.201 43.4808L123.634 43.3445C123.847 43.2214 124.238 43.1098 124.451 42.9867L125.238 42.8733C125.556 43.0306 125.947 42.919 126.032 42.8697L126.337 42.8073L126.911 42.817C126.911 42.817 126.978 42.835 127.021 42.8104C127.021 42.8104 127.308 42.8152 127.46 42.784L128.371 42.8838L128.413 42.8591L128.994 42.9787L129.581 43.2081L130.175 43.5474L130.8 44.0393C130.959 44.1179 131.351 44.4032 131.56 44.5671C131.609 44.6524 131.725 44.7557 131.775 44.841L132.321 45.4919L132.682 45.6246L133.029 45.5376L133.07 45.1161L132.95 44.219L132.655 43.7074L132.305 43.3975L131.625 42.7105L131.233 42.4252L130.639 42.0859L130.571 42.0679L129.641 41.6385C129.599 41.6631 129.531 41.6451 129.446 41.6943L129.244 41.6403L128.664 41.5207L128.077 41.2913L127.778 41.4636L127.424 41.4408L127.081 41.2408L126.312 41.2869L125.989 41.4166C126.031 41.392 125.964 41.374 125.897 41.356C125.854 41.3806 125.854 41.3806 125.744 41.3872L124.695 41.5384C124.652 41.563 124.542 41.5696 124.475 41.5516L122.681 41.7916C122.486 41.8474 122.51 41.8901 122.51 41.8901L122.131 41.8246C122.089 41.8492 121.979 41.8558 121.894 41.905L120.992 42.3121L120.527 42.2958L119.845 42.6897C119.803 42.7143 119.608 42.7701 119.54 42.7521L118.217 43.1183L117.766 43.3218C117.723 43.3464 117.571 43.3776 117.528 43.4022L116.943 43.5697L116.449 43.7978L116.151 43.9701C115.937 44.0932 115.773 44.3016 115.56 44.4246L114.89 44.6413L114.47 44.9974C114.384 45.0466 114.061 45.1763 113.952 45.1829L113.323 45.375L113.025 45.5473L112.567 45.6409L111.374 46.3302L110.211 47.1719L108.609 48.04L107.404 48.9064L106.746 49.3429L106.344 49.6317L106.457 48.9412L107.001 46.2397L107.398 44.7602L107.528 44.0024L107.855 43.1888L107.913 42.7L108.051 42.0522L108.128 41.4961L108.357 40.9089L108.416 40.4201L108.004 39.8052L107.655 39.4953L106.915 39.2971L106.507 39.476L106.087 39.8321L105.889 40.5718L105.758 41.3296L105.686 41.5986L105.571 41.8922L105.452 42.4729L105.229 43.17L105.213 43.6341L105.237 43.6768L105.196 44.0983L105.142 44.3L105.095 44.6117L104.969 45.0824C104.969 45.0824 104.975 45.1923 105 45.235L104.946 45.4367L104.846 46.347L104.799 46.6586L104.625 47.441L104.507 48.4186L104.478 48.663L104.237 50.9051L104.269 51.0576L103.665 51.2923L103.05 51.7042Z" fill="white"/>
<path d="M129.728 68.1357C129.753 68.1783 129.784 68.3309 129.809 68.3735C129.871 68.6785 130.086 68.9524 130.362 69.1343L130.503 69.2803L131.334 69.5391C131.42 69.4899 131.615 69.4341 131.658 69.4095L131.743 69.3602C131.981 69.2798 132.34 69.0156 132.614 68.8007C132.741 68.7268 132.845 68.6103 133.015 68.5119L133.442 68.2657L133.922 67.8178L134.384 67.4372C134.47 67.3879 134.598 67.3141 134.658 67.2222L134.932 67.0073L135.376 66.6939L135.832 66.2033L135.978 66.0622L136.423 65.7488L137.601 64.4429L138.082 63.995L138.434 63.621L139.049 63.2091L139.153 63.0926L139.426 62.8777L139.631 62.2478L139.477 61.8821L139.177 61.6575L138.531 61.9169L138.257 62.1318C138.171 62.181 138.129 62.2057 138.068 62.2975L137.709 62.5617L137.179 62.9243L136.93 63.1819L136.005 63.9432L135.725 64.0483L135.227 64.5634L135.038 64.7291C134.953 64.7784 134.849 64.8948 134.764 64.9441C134.344 65.3001 133.985 65.5643 133.644 65.7612L133.346 65.9335L133.065 66.0386L132.724 66.2355C132.596 66.3094 132.444 66.3406 132.316 66.4144C131.95 66.5687 131.73 66.5819 131.529 66.5278L131.479 66.4426C131.406 66.3147 131.325 66.0769 131.263 65.7718L131.353 65.4356L131.344 64.9288C131.32 64.8861 131.289 64.7336 131.239 64.6483L131.188 64.1662C131.164 64.1235 131.157 64.0136 131.108 63.9284L131.154 63.2198L131.104 63.1346L131.206 62.6212L131.155 62.139L131.079 61.6142L131.137 60.7285C131.137 60.7285 131.056 60.4907 131.049 60.3808L131.028 59.6543L131.175 58.4323L131.131 58.06L131.044 57.7124L130.896 57.4566L130.529 57.2139L130.058 57.0878C129.728 57.1076 129.405 57.2373 129.235 57.3357L129.046 57.5014L128.711 57.8082L128.469 58.1757L127.784 59.2535L127.669 59.5471L127.548 59.7308L126.521 61.0055L126.382 61.2565L126.303 61.4156L125.872 61.9488L125.715 62.267L125.393 62.7936L125.177 63.6006L124.838 64.1944L124.566 64.8063L123.705 66.2696L123.177 67.0291L123.009 67.5245C122.973 67.659 122.887 67.7082 122.851 67.8427L122.258 68.9811L122.215 69.0057L122.027 69.1715L121.256 70.2985L120.912 71.1793L120.73 71.4549L120.566 71.6633L120.22 72.1472C120.16 72.2391 120.148 72.4162 120.088 72.5081L118.807 74.3274L118.625 74.603L118.376 74.8605L117.824 75.5775L117.246 76.2517C117.186 76.3436 116.876 76.693 116.541 76.9998C116.232 77.3493 115.958 77.5642 115.787 77.6627L115.617 77.7612C115.525 77.7005 115.617 77.7612 115.543 77.6332C115.494 77.548 115.494 77.548 115.512 77.4807L115.429 76.846L115.385 76.4737L115.229 75.7111L115.227 75.3142L115.309 74.4712C115.307 74.0743 115.348 73.6528 115.389 73.2312L115.477 72.4981L115.665 70.8546L115.701 70.7201L115.834 70.3592L115.918 69.9131L116.008 69.5769L116.091 69.1307L116.271 68.4582L116.348 67.9022L116.437 67.169L116.408 66.3326L116.418 65.7585L116.251 65.1731L115.758 64.3204C115.494 63.9613 115.194 63.7367 114.943 63.5973L114.362 63.4778L114.082 63.5829L113.765 63.8224L113.377 64.331L113.284 65.3512L113.391 66.0285L113.583 66.6566L113.762 67.0649C113.835 67.1928 113.824 67.37 113.849 67.4126L113.949 67.98L113.962 68.1998L113.939 68.5541L113.864 69.507L113.848 69.9712L113.831 70.4353L113.761 71.1012L113.66 71.6146L113.645 72.4757L113.604 72.8972L113.545 73.386L113.614 73.8009L113.62 74.9916L113.5 75.5723L113.473 76.2136L113.497 76.2562L113.566 76.6711L113.501 77.05L113.675 77.7454L113.824 78.3981L114.021 78.7392C114.193 79.0376 114.341 79.2934 114.886 79.5475C115.155 79.6196 115.247 79.6802 116.009 79.5242L116.619 79.3993L117.972 78.7887L118.246 78.5738L118.58 78.267L118.787 78.034L119.645 77.2547L119.948 76.7954L120.002 76.5936L120.159 76.2754L120.263 76.1589L120.536 75.944L120.656 75.3633L120.741 75.3141L120.905 75.1058L121.305 74.4201L121.59 74.028L121.669 73.8689L121.771 73.3555L121.831 73.2636L122.952 71.3656L123.359 70.7898L124.202 69.3938L124.352 68.9657L124.449 68.7393L126.085 65.862L126.267 65.5864L126.764 64.6744L127.491 63.572L127.667 63.1865L127.916 62.9289L128.08 62.7206L129.216 61.4393L129.218 61.8362C129.267 61.9215 129.274 62.0314 129.298 62.074L129.307 62.5808C129.369 62.8858 129.315 63.0876 129.346 63.2401L129.317 63.4845C129.341 63.5271 129.366 63.5698 129.373 63.6796C129.368 63.9667 129.352 64.4308 129.365 64.6506L129.382 65.6642C129.388 65.7741 129.37 65.8413 129.419 65.9266L129.421 66.3235L129.47 66.4088C129.528 67.0008 129.615 67.3485 129.604 67.5256L129.728 68.1357Z" fill="white"/>
<path d="M139.615 56.4586L139.636 55.7075L139.612 55.6648L139.731 55.0842L139.752 54.333L139.726 53.8935L139.83 52.6962C139.871 52.2746 139.924 51.676 139.906 51.7432L139.904 51.3463L139.915 51.1692L140.053 50.5213L140.382 49.0238C140.495 48.3332 140.559 47.5574 140.189 46.9179L140.042 46.6621C139.784 46.4129 139.399 46.2375 138.654 46.3263L138.331 46.456L138.124 46.689L137.713 47.5518L137.479 48.4261L137.456 48.7803L137.512 48.9755L137.701 50.2875L137.7 51.3684L137.746 52.1375L137.872 53.1445L137.897 53.1872L137.849 53.4988L137.9 53.981L137.896 54.268L137.906 55.1717L137.831 56.1246L137.796 56.656C137.749 56.9677 137.8 57.4499 137.752 57.7615L137.698 57.9633L137.531 58.8555L137.618 59.2032L137.512 60.0036L137.563 60.4858L137.529 61.0172L137.477 61.6158L137.359 62.5934L137.282 63.1494L137.169 63.8399L137.15 64.988L137.252 65.9524C137.316 66.6543 137.887 67.3479 138.113 67.4446C138.346 67.6512 138.743 67.6494 139.127 67.4279C139.34 67.3048 139.571 67.1145 139.692 66.9307L139.976 66.1418L140.089 65.4512L140.187 64.144L140.454 62.3415L140.658 61.7116L140.706 61.4L140.839 61.0391L140.843 60.7521L141.048 60.1222L141.163 59.8286L141.253 59.4923L141.391 58.8444L141.577 58.2818C141.571 58.1719 141.667 57.9456 141.703 57.8111L141.921 57.401L142.241 56.4775L142.433 55.6278L142.608 55.2424L143.065 53.671L143.607 52.0504L144.376 50.5265L144.484 50.123L144.878 49.3274L145.064 48.7648L145.186 48.581L145.75 47.687L145.9 47.2589L146.276 46.5305L147.464 44.6506L147.554 44.3143C147.597 44.2897 147.718 44.106 147.736 44.0387C148.168 43.5056 148.635 42.8379 149.041 42.2621C149.461 41.906 149.917 41.4155 150.379 41.0348L150.738 40.7707L151.084 40.2867L151.322 40.2063L151.596 39.9913L152.045 39.3909L152.386 39.194L152.644 39.4432L152.859 39.717L153.116 39.9663L153.239 40.1794L153.405 40.368L153.595 40.5992L154.268 40.7794L154.634 40.6251L154.865 40.4348L155.157 40.1526L155.375 39.7425L155.519 39.2045L155.535 38.7403L155.41 38.1302L154.88 37.0151L154.439 36.6446C154.322 36.5413 153.986 36.4512 153.852 36.4152C153.583 36.3431 153.253 36.3629 152.813 36.3893C152.685 36.4631 152.533 36.4943 152.38 36.5255C151.716 36.8521 151.065 37.3985 150.421 38.0547L149.934 38.3928L149.667 38.7176L149.296 39.1589L148.337 40.4516L147.699 41.2177C147.221 42.0626 146.996 42.3628 146.875 42.5465C146.796 42.7056 146.511 43.0977 146.511 43.0977L146.468 43.1223L145.588 44.2559L145.231 44.917L145.008 45.6141L144.534 46.1719L144.377 46.4901L144.214 47.0954L143.657 48.0993C143.621 48.2338 143.5 48.4176 143.421 48.5767L143.232 48.7424L143.106 49.2131L142.785 49.7397L142.688 49.9661L141.908 51.6671L141.364 52.8908L140.923 53.9981L140.469 54.8855L140.197 55.4973L140.035 56.1026L139.655 57.118L139.558 57.3443L139.615 56.4586Z" fill="white"/>
<path d="M157.98 47.9024L158.178 47.1626L158.23 46.5639C158.266 46.4294 158.228 46.167 158.265 46.0325L158.391 45.5618L158.546 44.8466L158.756 43.9298L158.979 43.2326L159.105 42.7619L159.4 41.7957C159.418 41.7285 159.472 41.5267 159.465 41.4169C159.501 41.2824 159.587 41.2331 159.623 41.0986L160.009 40.1932L160.113 40.0767L160.573 39.2991L160.857 38.5101L161.353 37.5981L161.475 37.4143L162.167 36.4464L162.203 36.312L162.567 35.7608L162.791 35.4605C163.234 34.7502 163.968 33.7577 164.783 33.003L165.014 32.8127L165.288 32.5977L165.757 32.327C165.8 32.3024 165.867 32.3204 165.977 32.3138L166.441 32.33C166.466 32.3727 166.508 32.3481 166.576 32.3661L166.707 33.086L166.745 33.3485C166.794 33.4337 166.794 33.4337 166.801 33.5436C166.807 33.6535 166.735 33.9225 166.717 33.9897L165.757 36.3633L165.527 36.9505L165.327 37.2934C165.024 37.7527 164.649 38.481 164.345 38.9404L163.672 39.841L163.029 40.8942L162.263 41.7341L161.936 42.1508L161.583 42.5249L161.188 42.9236C160.786 43.2124 160.306 43.6603 159.904 43.9491C159.861 43.9737 159.825 44.1082 159.783 44.1328C159.248 44.7825 158.963 45.1745 158.748 46.3785L158.903 46.7441L159.192 47.1459L159.893 47.0817L160.277 46.8601L160.977 46.3991L162.133 45.4474L162.728 44.7059L163.584 43.5296L163.917 42.8259L164.809 41.5152L164.948 41.2642C165.633 40.1864 166.251 39.0906 166.881 37.8177L167.112 37.6274L167.245 37.2665L168.099 35.6934L168.413 35.0569L168.618 34.427L168.908 33.7479L169.093 32.7884L168.944 32.1357L168.826 31.6355L168.597 31.1419L168.456 30.996L168.1 30.5762C167.818 30.2844 167.506 30.2369 167.128 30.1714L166.511 30.1864C166.401 30.193 166.224 30.1816 165.919 30.244C165.748 30.3424 165.468 30.4475 165.297 30.546L164.658 30.9152C164.53 30.989 164.427 31.1055 164.299 31.1794L163.872 31.4255L163.057 32.1802C162.808 32.4378 162.608 32.7807 162.049 33.3877L161.544 33.7929L161.356 33.9587L161.095 34.3934L160.306 35.5876L160.016 36.2667C159.338 37.4544 158.818 38.7207 158.292 39.8772L158.195 40.1035L158.135 40.1954L157.692 40.9057L157.474 41.3158L157.305 41.8112C157.312 41.9211 157.233 42.0802 157.24 42.1901L157.204 42.3246L156.927 43.2235L156.74 43.7861L156.499 44.5504L156.149 45.3214L155.898 46.6598L155.713 47.6193L155.687 48.6575C155.75 48.9626 155.695 49.1643 155.758 49.4694L155.779 50.1959L156.096 51.4341L156.318 51.8178L156.472 52.1835L156.884 52.7985L157.357 53.3215L157.89 53.7527L158.979 54.2608L160.34 54.157L161.505 53.7122L162.265 53.1592L162.977 52.521L163.208 52.3306L163.81 51.699C164.144 51.3922 164.418 51.1772 164.54 50.9935L164.746 50.7606L165.397 50.2142L165.974 49.5399L166.533 48.9329L167.288 48.27L168.258 46.8002C168.422 46.5918 168.537 46.2982 168.701 46.0899C169.132 45.5567 169.606 44.9989 169.994 44.4904L170.279 44.0983L170.614 43.7915L171.434 42.7497L172.853 40.6794L172.907 40.4777C173.175 40.1529 173.393 39.7428 173.635 39.3753L173.999 38.8241L175.201 37.1639C175.297 36.9376 175.522 36.6374 175.583 36.5455L175.886 36.0862C175.886 36.0862 175.983 35.8598 176.043 35.7679L176.832 34.5737L176.917 34.5244L177.124 34.2915L177.238 33.9979L177.438 33.655L177.656 33.2449L178.256 32.2164L178.317 32.1245L178.65 31.4208L179.225 30.3496L179.382 30.0314L179.625 29.6639C179.825 29.3211 179.853 28.6798 179.577 28.4978C179.277 28.2732 178.936 28.4701 178.68 28.6178C178.406 28.8328 178.303 28.9492 178.206 29.1756C178.085 29.3593 178.042 29.384 177.867 29.7694L177.285 30.7307L176.013 33.0568L175.88 33.4177L174.946 34.753L174.429 35.3354L174.126 35.7948L173.98 35.9359L173.556 36.5789L172.318 38.3736C171.869 38.974 171.426 39.6844 170.856 40.4685L170.752 40.585L169.598 41.9335L169.178 42.2896L168.832 42.7735L166.932 45.2917L166.701 45.482L166.44 45.9167L165.201 47.3145L164.648 48.0314L162.058 50.4367L161.468 50.8912L160.913 51.2112L160.218 51.3852C159.505 51.6266 159.267 51.707 159.108 51.6283C158.832 51.4464 158.66 51.1479 158.629 50.9954C158.481 50.7396 158.179 50.1181 158.007 49.8196L157.941 48.7208C157.916 48.6782 157.916 48.6782 157.959 48.6535L157.98 47.9024Z" fill="white"/>
</svg>
