<?xml version="1.0" standalone="no"?>
<!DOCTYPE svg PUBLIC "-//W3C//DTD SVG 20010904//EN"
 "http://www.w3.org/TR/2001/REC-SVG-20010904/DTD/svg10.dtd">
<svg version="1.0" xmlns="http://www.w3.org/2000/svg"
 width="395.000000pt" height="395.000000pt" viewBox="0 0 395.000000 395.000000"
 preserveAspectRatio="xMidYMid meet">
<metadata>
Created by potrace 1.14, written by Peter Selinger 2001-2017
</metadata>
<g transform="translate(0.000000,395.000000) scale(0.100000,-0.100000)"
fill="#000000" stroke="none">
<path d="M1225 3598 c-266 -42 -480 -133 -665 -283 -271 -218 -437 -503 -495
-848 -14 -81 -14 -331 0 -407 51 -291 169 -521 369 -726 187 -191 399 -312
646 -372 119 -28 169 -34 300 -37 658 -14 1218 434 1356 1085 19 88 26 361 12
445 -48 292 -167 532 -370 746 -36 38 -110 102 -188 162 -32 25 -138 86 -200
115 -106 50 -192 78 -330 108 -104 22 -332 29 -435 12z m288 -898 c64 -13 132
-49 190 -100 222 -196 196 -550 -52 -709 -81 -52 -162 -73 -266 -68 -111 5
-181 31 -261 96 -214 173 -227 489 -26 672 117 107 252 142 415 109z"/>
<path d="M3321 3595 c-127 -36 -232 -123 -287 -240 -18 -38 -36 -86 -39 -105
-7 -38 -8 -136 -2 -160 2 -8 7 -31 11 -50 13 -60 73 -156 128 -205 256 -230
656 -112 744 220 16 59 18 123 4 193 -9 52 -48 144 -62 150 -4 2 -8 9 -8 16 0
14 -80 93 -126 124 -91 62 -254 88 -363 57z"/>
</g>
</svg>
