<?xml version="1.0" encoding="UTF-8"?>
<svg width="20" height="20" viewBox="0 0 20 20" fill="none" xmlns="http://www.w3.org/2000/svg">
<path d="M8.7645 10.1871V11.309H10.6134V12.1127H8.7645V13.2402H10.4889C11.0697 13.2402 11.4983 13.1156 11.7749 12.8662C12.0553 12.6132 12.1956 12.2281 12.1956 11.7109C12.1956 11.1899 12.0553 10.8067 11.7749 10.5611C11.4983 10.3118 11.0697 10.1871 10.4889 10.1871H8.7645V10.1871ZM8.7645 6.76003V9.27173H10.3586C10.884 9.27173 11.2751 9.1694 11.5319 8.96474C11.7926 8.75637 11.923 8.44008 11.923 8.01588C11.923 7.59541 11.7926 7.28098 11.5319 7.0726C11.2751 6.86423 10.884 6.76004 10.3586 6.76003H8.7645V6.76003ZM7.68599 5.8335H10.4356C11.2573 5.8335 11.8894 6.01211 12.3319 6.36932C12.7783 6.72655 13.0015 7.23447 13.0015 7.89309C13.0015 8.40287 12.8869 8.80847 12.6578 9.10986C12.4326 9.41127 12.0988 9.59918 11.6563 9.6736C12.1896 9.79268 12.6025 10.042 12.8948 10.4215C13.1872 10.7974 13.3333 11.2681 13.3333 11.8337C13.3333 12.5779 13.0904 13.1528 12.6045 13.5584C12.1225 13.9639 11.4351 14.1667 10.5423 14.1667H7.68599V12.1127H6.66675V11.309H7.68599V5.8335" fill="#DE1E7E"/>
</svg>
