<svg width="20" height="20" viewBox="0 0 20 20" fill="none" xmlns="http://www.w3.org/2000/svg">
  <path d="M12.3203 3.23819C12.3203 4.14835 13.0039 4.83194 13.9141 4.83194C14.8242 4.83194 15.5078 4.14835 15.5078 3.23819C15.5078 2.32803 14.8242 1.64444 13.9141 1.64444C13.1172 1.64444 12.3203 2.32803 12.3203 3.23819Z" fill="#DE1E7E"/>
  <path d="M5.82812 19.9727C5.82812 19.9727 15.7383 19.9727 16.9922 19.9727C17.6758 19.9727 18.3594 19.6328 18.8164 19.2891C19.2734 18.832 19.6133 18.3789 19.8398 17.9219C19.9531 17.6953 19.8398 17.4648 19.6133 17.3516C19.3867 17.2383 19.1562 17.3516 19.043 17.5781C18.8164 18.0352 18.5859 18.375 18.2461 18.7187C17.9062 18.9453 17.4492 19.1758 16.9922 19.1758C16.5352 19.1758 17.2188 19.1758 14.9414 19.1758L18.8164 10.9727C19.1562 10.8594 19.3867 10.6328 19.3867 10.2891C19.3867 9.83203 19.0469 9.60547 18.7031 9.60547H15.8555C15.8555 9.60547 14.0312 6.53125 13.8047 6.1875C13.5781 5.84766 13.4648 5.50391 13.1211 5.39062C12.4375 5.05078 11.6406 5.39062 11.2969 6.07422L6.73828 15.7578L1.95312 17.2383C1.38281 17.4648 1.04297 18.0352 1.26953 18.4922C1.38281 18.832 1.60938 19.0625 1.95312 19.1758C1.72656 19.1758 1.49609 19.1758 1.26953 19.1758C-0.210938 19.1758 0.699219 19.1758 0.699219 19.1758C0.472656 19.1758 0.242188 19.4023 0.242188 19.6328C0.242188 19.8633 0.59375 19.9883 0.820312 19.9883L5.82812 19.9727ZM13.2305 8.00781L14.9375 10.9687H18.3594L14.4844 19.1719C14.1445 19.1719 13.8008 19.1719 13.3438 19.1719C13.457 19.0586 13.457 18.9453 13.5703 18.832L15.9609 13.8203L11.6328 11.3125L13.2305 8.00781ZM2.52344 19.1719L8.10547 17.4648L10.3828 13.0234L13.3438 14.7305L11.75 18.0352C11.5234 18.4922 11.6367 18.9453 11.9766 19.1758C11.1797 19.1758 10.3828 19.1758 9.69922 19.1758C10.1562 18.8359 10.3828 18.2656 10.6094 17.9219C10.7227 17.6953 10.6094 17.4648 10.3828 17.3516C10.1562 17.2383 9.92578 17.3516 9.8125 17.5781C9.58594 18.0352 9.35547 18.375 9.01562 18.7187C8.67578 18.9453 8.33203 19.1758 7.875 19.1758C6.625 19.1719 3.77734 19.1719 2.52344 19.1719Z" fill="#DE1E7E"/>
  <path d="M12.7773 0.390535C12.8906 0.277254 12.7773 0.0506916 12.664 0.0506916C12.5508 -0.0625897 12.3242 0.0506915 12.3242 0.163973L10.3867 4.15225L9.70312 4.37882L8.22265 7.45304L5.375 11.4413L7.08203 12.2382L12.7773 0.390535Z" fill="#DE1E7E"/>
</svg>
