<svg width="32" height="32" viewBox="0 0 32 32" fill="none" xmlns="http://www.w3.org/2000/svg">
<path d="M4.00006 6.00006V9C4.00006 9.55228 4.44777 10 5.00006 10C5.55234 10 6.00006 9.55228 6.00006 9V4.01036C6.00109 3.91662 5.989 3.8224 5.96337 3.73066C5.92228 3.5834 5.84833 3.44985 5.74993 3.3384C5.5667 3.13088 5.29866 3 5.00006 3H4.99898C4.95068 3.00002 4.90228 3.00352 4.85419 3.01056C4.68064 3.03593 4.52157 3.10586 4.38897 3.20838L2.40006 4.70006C1.95823 5.03143 1.86869 5.65823 2.20006 6.10006C2.53143 6.54189 3.15823 6.63143 3.60006 6.30006L4.00006 6.00006Z" fill="#DE1E7E"/>
<path d="M29.0001 8C29.5523 8 30.0001 7.55228 30.0001 7C30.0001 6.44772 29.5523 6 29.0001 6H10.0001C9.44777 6 9.00006 6.44772 9.00006 7C9.00006 7.55228 9.44777 8 10.0001 8H29.0001Z" fill="#DE1E7E"/>
<path d="M30.0001 16C30.0001 16.5523 29.5523 17 29.0001 17H10.0001C9.44777 17 9.00006 16.5523 9.00006 16C9.00006 15.4477 9.44777 15 10.0001 15H29.0001C29.5523 15 30.0001 15.4477 30.0001 16Z" fill="#DE1E7E"/>
<path d="M30.0001 25C30.0001 25.5523 29.5523 26 29.0001 26H10.0001C9.44777 26 9.00006 25.5523 9.00006 25C9.00006 24.4477 9.44777 24 10.0001 24H29.0001C29.5523 24 30.0001 24.4477 30.0001 25Z" fill="#DE1E7E"/>
<path d="M4.50006 14C4.22391 14 4.00006 14.2239 4.00006 14.5C4.00006 15.0523 3.55234 15.5 3.00006 15.5C2.44777 15.5 2.00006 15.0523 2.00006 14.5C2.00006 13.1193 3.11934 12 4.50006 12C5.1098 12 5.74498 12.1852 6.23817 12.6394C6.74482 13.1061 7.00006 13.7635 7.00006 14.5C7.00006 14.8608 6.87003 15.1717 6.75288 15.3907C6.62982 15.6207 6.47059 15.8407 6.31218 16.0388C6.0619 16.3516 5.74359 16.6936 5.44521 17.0142C5.37366 17.091 5.3029 17.1671 5.23486 17.2408C4.9888 17.5073 4.76249 17.76 4.56953 18H6.00006C6.55234 18 7.00006 18.4477 7.00006 19C7.00006 19.5523 6.55234 20 6.00006 20H3.00006C2.44777 20 2.00006 19.5523 2.00006 19C2.00006 18.3171 2.32908 17.7029 2.64159 17.2428C2.96897 16.7608 3.39003 16.2907 3.76525 15.8842C3.84936 15.7931 3.93066 15.7057 4.00894 15.6215C4.3012 15.3072 4.55159 15.0379 4.75044 14.7894C4.87327 14.6358 4.94842 14.5238 4.98942 14.4472C5.03636 14.3595 4.95254 14.1744 4.88327 14.1106C4.83356 14.0648 4.71874 14 4.50006 14Z" fill="#DE1E7E"/>
<path d="M3.00006 22C2.44777 22 2.00006 22.4477 2.00006 23C2.00006 23.5523 2.44777 24 3.00006 24H4.4997C4.29478 24.2728 4.06699 24.5326 3.81914 24.7676C3.41743 25.1411 3.39153 25.7686 3.76122 26.1739C3.96761 26.4002 4.13986 26.5802 4.29151 26.7387C4.47884 26.9344 4.63472 27.0973 4.78468 27.274C4.93626 27.4526 5.11105 27.6796 4.88327 27.8894C4.83356 27.9352 4.71874 28 4.50006 28C4.22391 28 4.00006 27.7761 4.00006 27.5C4.00006 26.9477 3.55234 26.5 3.00006 26.5C2.44777 26.5 2.00006 26.9477 2.00006 27.5C2.00006 28.8807 3.11934 30 4.50006 30C5.1098 30 5.74498 29.8148 6.23817 29.3606C6.74482 28.8939 7.00006 28.2365 7.00006 27.5C7.00006 26.8316 6.57719 26.2952 6.30955 25.9799C6.18761 25.8362 6.03193 25.668 5.86771 25.494C5.92495 25.4248 5.98345 25.3518 6.04213 25.2757C6.25408 25.0007 6.4834 24.6648 6.66324 24.2987C6.83852 23.9418 7.00006 23.4898 7.00006 23C7.00006 22.7348 6.8947 22.4804 6.70716 22.2929C6.51963 22.1054 6.26527 22 6.00006 22H3.00006Z" fill="#DE1E7E"/>
</svg>
