<svg width="32" height="32" viewBox="0 0 32 32" fill="none" xmlns="http://www.w3.org/2000/svg">
<path d="M18.4001 30H9.3001C8.0001 30 6.1001 29.3 5.2001 26C5.2001 25.9 4.6001 24.1 4.6001 16.1C4.6001 8.09999 5.1001 6.29999 5.2001 6.09999C5.9001 3.69999 7.2001 2.39999 9.3001 2.19999C9.4001 2.19999 11.4001 1.89999 15.9001 1.89999C20.4001 1.89999 23.0001 2.19999 23.1001 2.19999C25.3001 2.39999 27.0001 3.99999 27.2001 6.29999C27.2001 6.39999 27.5001 9.09999 27.5001 15.9C27.5001 19.6 27.2001 20.8 27.2001 20.9L27.1001 21.2L18.4001 30ZM15.9001 3.99999C11.5001 3.99999 9.5001 4.19999 9.5001 4.29999C8.7001 4.29999 7.7001 4.69999 7.1001 6.79999C7.1001 6.89999 6.6001 8.6 6.6001 16.2C6.6001 23.8 7.1001 25.5 7.1001 25.5C7.8001 28 9.0001 28 9.3001 28H17.6001L25.2001 20.4C25.3001 19.9 25.4001 18.6 25.4001 16.1C25.4001 9.39999 25.1001 6.69999 25.1001 6.69999C25.0001 5.39999 24.1001 4.49999 22.8001 4.39999C22.8001 4.29999 20.3001 3.99999 15.9001 3.99999Z" fill="#DE1E7E"/>
<path d="M17.2002 29H15.2002V22C15.2002 20.2 16.7002 18.7 18.5002 18.7H25.5002V20.7H18.5002C17.8002 20.7 17.2002 21.3 17.2002 22V29Z" fill="#DE1E7E"/>
<path d="M16.1002 10.5C15.6002 10.3 15.1002 9.99999 15.1002 9.39999C15.1002 8.79999 15.5002 8.39999 16.1002 8.39999C16.7002 8.39999 16.9002 8.59999 17.3002 8.99999C17.4002 9.09999 17.7002 9.19999 17.8002 9.19999C18.2002 9.19999 18.5002 8.79999 18.5002 8.49999C18.5002 8.29999 18.4002 8.09999 18.3002 7.99999C17.8002 7.39999 17.2002 7.19999 16.5002 6.99999V6.29999C16.5002 6.09999 16.3002 5.79999 16.0002 5.79999C15.8002 5.79999 15.5002 5.99999 15.5002 6.29999V7.09999C14.2002 7.29999 13.3002 8.19999 13.3002 9.59999C13.3002 11.2 14.6002 11.8 15.8002 12.4C16.3002 12.6 16.9002 12.9 16.9002 13.6C16.9002 14.2 16.4002 14.8 15.8002 14.8C15.1002 14.8 14.8002 14.4 14.4002 14.1C14.3002 14 14.0002 13.9 13.9002 13.9C13.4002 13.9 13.2002 14.3 13.2002 14.6C13.2002 14.8 13.3002 15.1 13.4002 15.2C14.0002 15.8 14.7002 16.2 15.6002 16.3V17.3C15.6002 17.5 15.8002 17.8 16.1002 17.8C16.3002 17.8 16.6002 17.6 16.6002 17.3V16.3C17.9002 16.1 18.8002 14.9 18.8002 13.5C18.8002 11.6 17.4002 11 16.1002 10.5Z" fill="#DE1E7E"/>
</svg>
