<svg width="32" height="32" viewBox="0 0 32 32" fill="none" xmlns="http://www.w3.org/2000/svg">
<path d="M3.64064 10.7679C7.29659 7.71777 11.5209 6 16 6C20.4791 6 24.7035 7.71777 28.3594 10.7679C28.7835 11.1217 29.4141 11.0647 29.7679 10.6406C30.1217 10.2165 30.0647 9.58594 29.6406 9.23214C25.6819 5.92946 21.0164 4 16 4C10.9836 4 6.31811 5.92946 2.35941 9.23214C1.93533 9.58594 1.87836 10.2165 2.23216 10.6406C2.58596 11.0647 3.21656 11.1217 3.64064 10.7679Z" fill="#DE1E7E"/>
<path fill-rule="evenodd" clip-rule="evenodd" d="M6.01607 12.8401C8.38011 10.8442 11.7265 9 15.5 9C19.2735 9 22.6199 10.8442 24.9839 12.8401C26.1733 13.8442 27.1455 14.9124 27.8289 15.8606C28.1701 16.334 28.4501 16.7924 28.6491 17.2109C28.8353 17.6023 29 18.0595 29 18.5C29 18.9405 28.8353 19.3977 28.6491 19.7891C28.4501 20.2076 28.1701 20.666 27.8289 21.1394C27.1455 22.0876 26.1733 23.1558 24.9839 24.1599C22.6199 26.1558 19.2735 28 15.5 28C11.7265 28 8.38011 26.1558 6.01607 24.1599C4.82668 23.1558 3.85451 22.0876 3.17107 21.1394C2.82986 20.666 2.54985 20.2076 2.35087 19.7891C2.1647 19.3977 2 18.9405 2 18.5C2 18.0595 2.1647 17.6023 2.35087 17.2109C2.54985 16.7924 2.82986 16.334 3.17107 15.8606C3.85451 14.9124 4.82668 13.8442 6.01607 12.8401ZM4.00019 18.5L4.00066 18.5026C4.00443 18.5242 4.02785 18.6586 4.15704 18.9302C4.29108 19.2121 4.50223 19.5658 4.79356 19.97C5.37518 20.7769 6.23359 21.7261 7.30626 22.6317C9.46633 24.4553 12.3699 26 15.5 26C18.6301 26 21.5337 24.4553 23.6937 22.6317C24.7664 21.7261 25.6248 20.7769 26.2064 19.97C26.4978 19.5658 26.7089 19.2121 26.843 18.9302C26.9722 18.6586 26.9956 18.5242 26.9993 18.5026L26.9998 18.5L26.9993 18.4974C26.9956 18.4758 26.9722 18.3414 26.843 18.0698C26.7089 17.7879 26.4978 17.4342 26.2064 17.03C25.6248 16.2231 24.7664 15.2739 23.6937 14.3683C22.9949 13.7783 22.2183 13.2176 21.3814 12.7288C21.7781 13.5694 22 14.5088 22 15.5C22 19.0899 19.0899 22 15.5 22C11.9101 22 9 19.0899 9 15.5C9 14.5088 9.22186 13.5694 9.61863 12.7288C8.78169 13.2176 8.00506 13.7783 7.30626 14.3683C6.23359 15.2739 5.37518 16.2231 4.79356 17.03C4.50223 17.4342 4.29108 17.7879 4.15704 18.0698C4.02785 18.3414 4.00443 18.4758 4.00066 18.4974L4.00019 18.5ZM11 15.5C11 13.0147 13.0147 11 15.5 11C17.9853 11 20 13.0147 20 15.5C20 17.9853 17.9853 20 15.5 20C13.0147 20 11 17.9853 11 15.5Z" fill="#DE1E7E"/>
</svg>
