<svg width="20" height="24" viewBox="0 0 20 24" fill="none" xmlns="http://www.w3.org/2000/svg">
<path d="M18.2696 18.1106C18.1908 18.1106 18.1128 18.0953 18.0401 18.0655C17.9673 18.0357 17.9012 17.992 17.8455 17.937C17.7898 17.8819 17.7456 17.8165 17.7155 17.7446C17.6853 17.6727 17.6698 17.5956 17.6698 17.5177V12.1814C17.6698 7.92917 14.1517 4.32298 9.8547 4.40262C7.84263 4.43864 5.92564 5.25564 4.51781 6.67716C3.10998 8.09868 2.32432 10.0106 2.33053 12V17.5177C2.33053 17.5956 2.31501 17.6727 2.28487 17.7446C2.25473 17.8165 2.21055 17.8819 2.15485 17.937C2.09916 17.992 2.03304 18.0357 1.96027 18.0655C1.8875 18.0953 1.80951 18.1106 1.73074 18.1106C1.46508 18.1034 1.20595 18.1926 1.00227 18.3613C0.79858 18.5301 0.664438 18.7667 0.625167 19.0265C0.607992 19.172 0.622358 19.3194 0.667308 19.4589C0.712258 19.5984 0.78676 19.7269 0.885855 19.8358C0.984949 19.9446 1.10636 20.0313 1.24201 20.0902C1.37766 20.149 1.52443 20.1786 1.67255 20.177H18.3278C18.4755 20.178 18.6218 20.1479 18.7569 20.0888C18.892 20.0297 19.0129 19.9429 19.1115 19.8341C19.2101 19.7253 19.2842 19.5971 19.3289 19.4579C19.3736 19.3186 19.3878 19.1716 19.3707 19.0265C19.3315 18.7675 19.198 18.5315 18.9953 18.3628C18.7925 18.1942 18.5345 18.1045 18.2696 18.1106Z" fill="url(#paint0_linear)"/>
<path opacity="0.7" d="M9.99765 23.9999C10.3877 24.0005 10.7741 23.925 11.1347 23.7779C11.4952 23.6307 11.8229 23.4147 12.099 23.1422C12.375 22.8698 12.594 22.5462 12.7434 22.19C12.8928 21.8337 12.9697 21.4519 12.9697 21.0663H7.03006C7.03006 21.8443 7.34272 22.5905 7.89925 23.1407C8.45578 23.6908 9.2106 23.9999 9.99765 23.9999Z" fill="url(#paint1_linear)"/>
<path d="M18.4127 18.1106H1.58734C1.05586 18.1106 0.625 18.5365 0.625 19.0619V19.2256C0.625 19.751 1.05586 20.177 1.58734 20.177H18.4127C18.9441 20.177 19.375 19.751 19.375 19.2256V19.0619C19.375 18.5365 18.9441 18.1106 18.4127 18.1106Z" fill="url(#paint2_linear)"/>
<path d="M14.5225 11.848C15.2962 11.848 15.9233 11.2208 15.9233 10.4472C15.9233 9.67354 15.2962 9.04639 14.5225 9.04639C13.7489 9.04639 13.1217 9.67354 13.1217 10.4472C13.1217 11.2208 13.7489 11.848 14.5225 11.848Z" fill="white"/>
<path d="M10.6597 23.3222C11.0252 23.3222 11.3215 23.0293 11.3215 22.668C11.3215 22.3067 11.0252 22.0138 10.6597 22.0138C10.2942 22.0138 9.99792 22.3067 9.99792 22.668C9.99792 23.0293 10.2942 23.3222 10.6597 23.3222Z" fill="white"/>
<path d="M9.99755 5.49907C11.5161 5.49907 12.7471 4.26806 12.7471 2.74953C12.7471 1.23101 11.5161 0 9.99755 0C8.47902 0 7.24802 1.23101 7.24802 2.74953C7.24802 4.26806 8.47902 5.49907 9.99755 5.49907Z" fill="url(#paint3_linear)"/>
<path d="M11.3056 2.4574C11.6891 2.4574 12 2.14653 12 1.76306C12 1.37959 11.6891 1.06873 11.3056 1.06873C10.9222 1.06873 10.6113 1.37959 10.6113 1.76306C10.6113 2.14653 10.9222 2.4574 11.3056 2.4574Z" fill="white"/>
<defs>
<linearGradient id="paint0_linear" x1="14.5044" y1="2.99636" x2="4.5009" y2="19.7062" gradientUnits="userSpaceOnUse">
<stop offset="0.0520833" stop-color="#CACEEE"/>
<stop offset="1" stop-color="#CFD3F1" stop-opacity="0.2"/>
</linearGradient>
<linearGradient id="paint1_linear" x1="6.49979" y1="21" x2="8.37156" y2="26.5622" gradientUnits="userSpaceOnUse">
<stop stop-color="#E6C570"/>
<stop offset="1" stop-color="#F4E1AC" stop-opacity="0.5"/>
</linearGradient>
<linearGradient id="paint2_linear" x1="-4.97965" y1="20.177" x2="-0.101337" y2="28.173" gradientUnits="userSpaceOnUse">
<stop offset="0.0520833" stop-color="#CCBCE4"/>
<stop offset="1" stop-color="#D3C1F2" stop-opacity="0.3"/>
</linearGradient>
<linearGradient id="paint3_linear" x1="8.11463" y1="5.13549" x2="12.5266" y2="2.0405" gradientUnits="userSpaceOnUse">
<stop offset="0.0520833" stop-color="#C9CDF4"/>
<stop offset="1" stop-color="#CDCCF8" stop-opacity="0.2"/>
</linearGradient>
</defs>
</svg>
