<svg width="24" height="24" viewBox="0 0 24 24" fill="none" xmlns="http://www.w3.org/2000/svg">
<path d="M4.00827 4.23728C4.04922 4.14393 4.17013 4.04471 4.27264 4.02028C4.35152 4.00147 9.75126 3.99613 9.75126 4.01486C9.75126 4.02302 9.14308 5.59891 8.39976 7.51682C7.65645 9.43473 7.04828 11.0354 7.04828 11.0739C7.04828 11.1855 7.13567 11.3305 7.23385 11.3817C7.31593 11.4245 7.51084 11.4302 9.32021 11.4427L11.316 11.4566L8.58432 16.3123C7.08188 18.983 5.82493 21.1962 5.79113 21.2306C5.62029 21.4045 5.29437 21.3496 5.17384 21.1266C5.1219 21.0305 5.13413 21.1959 4.51974 12.3053C4.03324 5.26563 3.97313 4.31735 4.00827 4.23728Z" stroke="#8D9DA8"/>
<path d="M13.5088 6.31029C13.9332 5.21463 14.3087 4.2466 14.3431 4.15909L14.4057 4H17.0349C19.2034 4 19.6809 4.0067 19.7599 4.03815C19.8731 4.08317 19.9706 4.19254 19.9962 4.30316C20.0159 4.38871 20.0262 4.34533 18.2335 11.7609C17.6412 14.2109 17.1392 16.2557 17.1178 16.3048C17.0964 16.354 17.0357 16.4193 16.9827 16.4499C16.8884 16.5047 16.8421 16.5058 14.6123 16.5059C13.3614 16.5059 12.338 16.5003 12.338 16.4933C12.338 16.4863 13.2713 14.8211 14.4119 12.7927C15.5526 10.7643 16.5204 9.03981 16.5627 8.96041C16.6539 8.78893 16.6598 8.66647 16.5825 8.54587C16.467 8.36534 16.5403 8.37156 14.5307 8.37156C13.0859 8.37156 12.7124 8.36443 12.7234 8.33698C12.7309 8.31797 13.0844 7.40595 13.5088 6.31029Z" stroke="#8D9DA8"/>
</svg>
