<svg width="32" height="32" viewBox="0 0 32 32" fill="none" xmlns="http://www.w3.org/2000/svg">
<path fill-rule="evenodd" clip-rule="evenodd" d="M27.3361 19.7893C27.5783 18.8298 27.7068 17.8258 27.7068 16.7931C27.7068 11.57 24.4271 7.11537 19.8171 5.37184C19.3358 3.43522 17.5855 2 15.4999 2C13.4144 2 11.6641 3.43521 11.1828 5.37182C6.57276 7.11534 3.29303 11.57 3.29303 16.7931C3.29303 17.8259 3.42152 18.8299 3.66374 19.7894C2.6493 20.6047 2 21.8558 2 23.2586C2 25.7153 3.99156 27.7069 6.44828 27.7069C7.32379 27.7069 8.14022 27.4539 8.8285 27.0171C10.7463 28.2708 13.0391 29 15.4999 29C17.9607 29 20.2536 28.2708 22.1714 27.0171C22.8597 27.4539 23.6762 27.7069 24.5518 27.7069C27.0085 27.7069 29 25.7153 29 23.2586C29 21.8558 28.3507 20.6046 27.3361 19.7893ZM13.0517 6.44828C13.0517 5.09613 14.1478 4 15.4999 4C16.8521 4 17.9482 5.09613 17.9482 6.44828C17.9482 7.80042 16.8521 8.89655 15.4999 8.89655C14.1478 8.89655 13.0517 7.80042 13.0517 6.44828ZM11.1865 7.5394C7.70444 9.16528 5.29303 12.6986 5.29303 16.7931C5.29303 17.5193 5.36871 18.2269 5.51241 18.9089C5.81415 18.8443 6.12724 18.8103 6.44828 18.8103C8.90499 18.8103 10.8966 20.8019 10.8966 23.2586C10.8966 24.0984 10.6638 24.8838 10.2594 25.5539C11.7909 26.4722 13.5828 27 15.4999 27C17.4171 27 19.209 26.4722 20.7406 25.5538C20.3362 24.8837 20.1035 24.0983 20.1035 23.2586C20.1035 20.8019 22.095 18.8103 24.5518 18.8103C24.8727 18.8103 25.1858 18.8443 25.4875 18.9089C25.6311 18.2269 25.7068 17.5192 25.7068 16.7931C25.7068 12.6986 23.2954 9.1653 19.8134 7.53941C19.3269 9.4686 17.5802 10.8966 15.4999 10.8966C13.4197 10.8966 11.673 9.46859 11.1865 7.5394ZM6.44828 20.8103C5.09613 20.8103 4 21.9064 4 23.2586C4 24.6107 5.09613 25.7069 6.44828 25.7069C7.80042 25.7069 8.89655 24.6107 8.89655 23.2586C8.89655 21.9064 7.80042 20.8103 6.44828 20.8103ZM22.1035 23.2586C22.1035 21.9064 23.1996 20.8103 24.5518 20.8103C25.9039 20.8103 27 21.9064 27 23.2586C27 24.6107 25.9039 25.7069 24.5518 25.7069C23.1996 25.7069 22.1035 24.6107 22.1035 23.2586Z" fill="#DE1E7E"/>
</svg>
