<svg width="20" height="22" viewBox="0 0 20 22" fill="none" xmlns="http://www.w3.org/2000/svg">
<path d="M5.78796 18.1609C5.12244 16.9674 4.77047 15.5044 4.77047 13.9204C4.77047 11.2584 7.07496 9.09143 9.90197 9.09143C12.7345 9.09143 15.0335 11.2584 15.0335 13.9204C15.0335 14.2229 15.281 14.4704 15.5835 14.4704C15.886 14.4704 16.1335 14.2229 16.1335 13.9204C16.1335 10.6479 13.3395 7.99139 9.90202 7.99139C6.46456 7.99139 3.67044 10.6534 3.67044 13.9204C3.67044 15.6914 4.07196 17.3469 4.83096 18.6999C5.57346 20.0254 6.09047 20.6359 7.04196 21.5984C7.15194 21.7084 7.28946 21.7634 7.43244 21.7634C7.56995 21.7634 7.71294 21.7139 7.81194 21.5984C8.03195 21.3894 8.03196 21.0374 7.81746 20.8229C6.97044 19.9704 6.49746 19.4259 5.78796 18.1609Z" fill="#DE1E7E"/>
<path d="M3.78592 2.65098C5.67243 1.62246 7.72941 1.09998 9.91293 1.09998C12.1019 1.09998 13.9334 1.5675 16.0399 2.6565C16.1224 2.69501 16.2049 2.71698 16.293 2.71698C16.491 2.71698 16.6834 2.607 16.7824 2.41998C16.92 2.15046 16.8154 1.815 16.5459 1.67748C14.3019 0.517017 12.2559 0 9.91293 0C7.54791 0 5.30943 0.566517 3.25792 1.683C2.9884 1.8315 2.89492 2.1615 3.0379 2.43102C3.1864 2.70048 3.5164 2.79401 3.78592 2.65098Z" fill="#DE1E7E"/>
<path d="M9.86346 5.31299C6.31596 5.31299 3.07098 7.2985 1.60248 10.3675C1.10196 11.407 0.848999 12.606 0.848999 13.926C0.848999 15.411 1.113 16.83 1.65198 18.2764C1.76196 18.5625 2.07546 18.7054 2.36148 18.6009C2.6475 18.4909 2.79048 18.1774 2.68596 17.8914C2.03143 16.137 1.95445 14.784 1.95445 13.926C1.95445 12.771 2.16895 11.7315 2.59795 10.8405C3.88495 8.14546 6.73944 6.4075 9.86892 6.4075C14.2634 6.4075 17.8384 9.77901 17.8384 13.926C17.8384 15.1084 16.8099 16.0654 15.5504 16.0654C14.291 16.0654 13.2625 15.1029 13.2625 13.926C13.2625 12.1385 11.7445 10.6865 9.87444 10.6865C8.00442 10.6865 6.48643 12.1385 6.48643 13.926C6.48643 16.0984 7.33344 18.139 8.86794 19.668C10.0559 20.8504 11.2 21.4994 12.9544 21.9779C12.9984 21.9944 13.0479 22 13.0974 22C13.3394 22 13.5594 21.8405 13.6254 21.5984C13.7079 21.307 13.5319 21.0044 13.2404 20.9219C11.6894 20.4985 10.6774 19.9264 9.63787 18.8925C8.31236 17.5725 7.58089 15.807 7.58089 13.9315C7.58089 12.749 8.60941 11.792 9.86887 11.792C11.1283 11.792 12.1569 12.7545 12.1569 13.9315C12.1569 15.719 13.6804 17.171 15.5449 17.171C17.4094 17.171 18.9329 15.719 18.9329 13.9315C18.9329 9.1795 14.863 5.31299 9.86346 5.31299Z" fill="#DE1E7E"/>
<path d="M19.7029 7.58993C18.6084 6.06095 17.2224 4.86191 15.5779 4.01495C12.1129 2.23295 7.69093 2.23847 4.23145 4.02593C2.58145 4.87841 1.18994 6.08843 0.100937 7.62845C-0.0750458 7.87595 -0.0145631 8.21693 0.232937 8.39296C0.331937 8.45896 0.441919 8.49196 0.551954 8.49196C0.722471 8.49196 0.892936 8.41498 1.00297 8.26648C1.98745 6.8695 3.24697 5.77498 4.73748 5.005C7.88898 3.37702 11.9205 3.3715 15.0775 4.99402C16.5625 5.75302 17.8165 6.84202 18.8065 8.22801C18.9824 8.47551 19.3289 8.53053 19.5764 8.3545C19.8239 8.17841 19.879 7.83743 19.7029 7.58993Z" fill="#DE1E7E"/>
<path d="M16.4635 18.5239C16.0235 18.6009 15.578 18.6284 15.314 18.6284C14.214 18.6284 13.301 18.3699 12.5255 17.8419C11.189 16.9344 10.3915 15.4715 10.3915 13.9259C10.3915 13.6234 10.144 13.3759 9.84146 13.3759C9.53894 13.3759 9.29144 13.6234 9.29144 13.9259C9.29144 15.8399 10.2705 17.6439 11.904 18.7549C12.8554 19.3984 14.005 19.7284 15.3139 19.7284C15.468 19.7284 16.0125 19.7229 16.656 19.6074C16.953 19.5524 17.1565 19.2664 17.1015 18.9694C17.0464 18.6724 16.7605 18.4689 16.4635 18.5239Z" fill="#DE1E7E"/>
</svg>