<svg width="20" height="16" viewBox="0 0 20 16" fill="none" xmlns="http://www.w3.org/2000/svg">
<path fill-rule="evenodd" clip-rule="evenodd" d="M0 8C0 7.44772 0.447715 7 1 7H19C19.5523 7 20 7.44772 20 8C20 8.55228 19.5523 9 19 9H1C0.447715 9 0 8.55228 0 8Z" fill="#DE1E7E"/>
<path fill-rule="evenodd" clip-rule="evenodd" d="M0.792662 1.02167C3.54138 0.439931 6.6503 0 9.99972 0C13.315 0 16.4449 0.28971 19.2555 1.03326C19.7894 1.17451 20.1077 1.72183 19.9665 2.25575C19.8252 2.78967 19.2779 3.10799 18.744 2.96674C16.1546 2.28172 13.2094 2 9.99972 2C6.82413 2 3.85805 2.41721 1.20677 2.97833C0.666453 3.09268 0.135739 2.74737 0.0213866 2.20705C-0.0929661 1.66674 0.252346 1.13602 0.792662 1.02167Z" fill="#DE1E7E"/>
<path fill-rule="evenodd" clip-rule="evenodd" d="M0.0330155 13.7442C0.174263 13.2103 0.721593 12.892 1.25551 13.0333C3.8449 13.7183 6.79008 14 9.99976 14C13.1753 14 16.1414 13.5828 18.7927 13.0217C19.333 12.9073 19.8637 13.2526 19.9781 13.7929C20.0924 14.3333 19.7471 14.864 19.2068 14.9783C16.4581 15.5601 13.3492 16 9.99976 16C6.68444 16 3.55461 15.7103 0.744006 14.9667C0.210089 14.8255 -0.108233 14.2782 0.0330155 13.7442Z" fill="#DE1E7E"/>
</svg>
