<svg width="32" height="32" viewBox="0 0 32 32" fill="none" xmlns="http://www.w3.org/2000/svg">
<path fill-rule="evenodd" clip-rule="evenodd" d="M29.0071 17.3033L25.6147 11.2178C25.2668 10.7703 24.832 10.4124 24.3971 10.3229C24.0491 10.2334 23.7011 10.3229 23.3532 10.5914C23.0053 10.8598 22.8313 11.2178 22.7443 11.6653L25.8758 17.3928C28.0502 21.42 27.3544 25.2682 23.8752 28.848C23.6142 29.1164 23.4402 29.2954 23.1792 29.4744C24.6579 29.2954 26.0497 28.5795 27.0934 27.4162C30.6597 23.7469 30.4857 19.8092 29.0071 17.3033ZM24.832 18.0193L21.7005 12.3812C21.4397 12.0233 21.0917 11.7548 20.6568 11.6653C20.3958 11.5758 20.1349 11.6653 19.8739 11.8443C19.352 12.2917 19.1781 12.9182 19.613 13.7236L21.1787 17.2138C21.2656 17.4823 21.1787 17.7508 21.0047 17.9298C20.8307 18.1088 20.4829 18.0193 20.3088 17.8403L12.1325 9.33846C11.6976 8.89099 10.9148 8.89099 10.4799 9.33846C10.2189 9.60693 10.1319 9.87541 10.1319 10.2334C10.1319 10.5914 10.2189 10.8598 10.4799 11.0388L15.3509 16.0504C15.6118 16.2294 15.6118 16.5874 15.4378 16.7664C15.2639 17.0348 14.916 17.0348 14.742 16.8559C14.742 16.8559 14.655 16.8559 14.655 16.7664L9.78402 11.8443L8.3923 10.4124C7.87041 9.87541 7.17455 9.87541 6.73965 10.4124C6.30473 10.8598 6.30473 11.6653 6.73965 12.1127L8.13136 13.5446L13.0023 18.5563C13.1763 18.7353 13.1763 19.0933 13.0023 19.3618C12.8284 19.6302 12.4805 19.5407 12.2195 19.3618L7.34852 14.3501C6.9136 13.9026 6.13077 13.9026 5.69586 14.3501C5.43491 14.6186 5.34793 14.887 5.34793 15.1555C5.34793 15.5135 5.43491 15.782 5.69586 15.961L7.78343 18.1088L10.8278 21.241C11.0018 21.5095 11.0018 21.778 10.7408 21.957C10.5669 22.136 10.3059 22.136 10.045 21.957L7.00059 18.8248C6.73965 18.5563 6.47869 18.4668 6.13077 18.4668C5.52189 18.4668 5 19.0038 5 19.6302C5 19.9881 5.08698 20.2566 5.34793 20.5251L11.2627 26.6107C14.4811 29.9219 19.352 31.6223 23.0053 27.8636C26.0497 24.7313 26.6585 21.5095 24.832 18.0193ZM13.5242 8.89099C13.6112 8.6225 13.6982 8.35402 13.9592 8.08555C14.568 7.54858 15.4378 7.54858 16.0467 8.08555L18.8301 10.9493C18.1343 11.6653 17.8734 12.6497 18.1343 13.6341L13.5242 8.89099ZM14.829 2.44747L13.1763 3.25291L15.2639 5.75872L14.829 2.44747ZM22.1355 3.25291L20.4829 2.44747L20.1349 5.75872L22.1355 3.25291ZM17.6124 4.95328L16.7426 2H18.4822L17.6124 4.95328Z" fill="#DE1E7E"/>
</svg>
