<svg width="48" height="48" viewBox="0 0 48 48" fill="none" xmlns="http://www.w3.org/2000/svg">
<path d="M5.6497 42.4518C6.58713 43.3546 7.93747 43.6521 9.22945 43.8088C12.9874 44.2647 18.9966 44.1424 25.8716 40.733C32.304 37.5328 37.5372 32.2961 40.7352 25.8592C44.1802 18.9339 44.2668 12.8683 43.7935 9.09544C43.6426 7.89196 43.4877 7.09026 42.6461 6.21675V6.21675C41.6797 5.21359 39.9823 4.31224 38.5975 4.16127C34.8109 3.74842 28.8782 3.91391 22.1284 7.27611C15.696 10.4763 10.4628 15.7131 7.26477 22.1499C3.89394 28.9262 3.73844 34.8795 4.17672 38.6671C4.33691 40.0514 4.64592 41.4851 5.6497 42.4518V42.4518Z" stroke="#DE1E7E" stroke-width="1.5" stroke-miterlimit="10" stroke-linecap="round" stroke-linejoin="round"/>
<path d="M25.503 27.4485L22.23 24.1778" stroke="#DE1E7E" stroke-width="1.5" stroke-miterlimit="10" stroke-linecap="round" stroke-linejoin="round"/>
<path d="M27.7747 25.0214L24.5018 21.7507" stroke="#DE1E7E" stroke-width="1.5" stroke-miterlimit="10" stroke-linecap="round" stroke-linejoin="round"/>
<path d="M22.8878 30.0355L19.6325 26.5912" stroke="#DE1E7E" stroke-width="1.5" stroke-miterlimit="10" stroke-linecap="round" stroke-linejoin="round"/>
<path d="M26.8302 19.3632L30.1741 22.7236" stroke="#DE1E7E" stroke-width="1.5" stroke-miterlimit="10" stroke-linecap="round" stroke-linejoin="round"/>
<path d="M41.9017 6.43365C40.3005 9.63822 26.2083 23.1421 23.6731 25.6791C21.1379 28.216 9.20238 40.3977 5.99999 42" stroke="#DE1E7E" stroke-width="1.6" stroke-miterlimit="10" stroke-linecap="round" stroke-linejoin="round"/>
</svg>
