<svg width="32" height="32" viewBox="0 0 32 32" fill="none" xmlns="http://www.w3.org/2000/svg">
<path fill-rule="evenodd" clip-rule="evenodd" d="M12.0079 5.7471C12.1383 3.65578 13.8758 2 16 2C18.1242 2 19.8617 3.65578 19.9921 5.7471C20.1386 5.80417 20.2836 5.86428 20.4269 5.92736C21.998 4.54072 24.3974 4.59844 25.8995 6.10051C27.4016 7.60258 27.4593 10.0021 26.0727 11.5731C26.1357 11.7165 26.1958 11.8614 26.2529 12.0079C28.3442 12.1383 30 13.8758 30 16C30 18.1242 28.3442 19.8617 26.2529 19.9921C26.1958 20.1386 26.1357 20.2836 26.0726 20.4269C27.4593 21.9979 27.4016 24.3974 25.8995 25.8995C24.3974 27.4016 21.998 27.4593 20.4269 26.0726C20.2836 26.1357 20.1386 26.1958 19.9921 26.2529C19.8617 28.3442 18.1242 30 16 30C13.8758 30 12.1383 28.3442 12.0079 26.2529C11.8614 26.1958 11.7164 26.1357 11.5731 26.0726C10.0021 27.4593 7.60258 27.4016 6.10051 25.8995C4.59844 24.3974 4.54072 21.998 5.92737 20.4269C5.86428 20.2836 5.80417 20.1386 5.74709 19.9921C3.65578 19.8617 2 18.1242 2 16C2 13.8758 3.65577 12.1383 5.74709 12.0079C5.80416 11.8614 5.86427 11.7165 5.92735 11.5731C4.54074 10.002 4.59843 7.60259 6.10051 6.10051C7.60258 4.59844 10.0021 4.54072 11.5731 5.92735C11.7164 5.86427 11.8614 5.80417 12.0079 5.7471ZM7.51474 10.3432C8.02333 10.8518 8.11644 11.6037 7.83547 12.2074C7.72884 12.4365 7.63159 12.6708 7.54421 12.9099C7.31581 13.5347 6.71875 14 6 14C4.89542 14 4 14.8954 4 16C4 17.1046 4.89542 18 6 18C6.71875 18 7.3158 18.4653 7.54421 19.0901C7.63159 19.3292 7.72885 19.5635 7.83549 19.7926C8.11647 20.3964 8.02334 21.1483 7.51472 21.6569C6.73368 22.4379 6.73368 23.7042 7.51472 24.4853C8.29577 25.2663 9.56211 25.2663 10.3432 24.4853C10.8518 23.9767 11.6037 23.8836 12.2074 24.1645C12.4365 24.2711 12.6708 24.3684 12.9098 24.4557C13.5347 24.6842 14 25.2812 14 26C14 27.1046 14.8954 28 16 28C17.1046 28 18 27.1046 18 26C18 25.2812 18.4653 24.6841 19.0902 24.4557C19.3292 24.3684 19.5635 24.2711 19.7926 24.1645C20.3963 23.8836 21.1482 23.9767 21.6568 24.4852C22.4379 25.2663 23.7042 25.2663 24.4853 24.4853C25.2663 23.7042 25.2663 22.4379 24.4853 21.6569C23.9767 21.1483 23.8835 20.3964 24.1645 19.7926C24.2712 19.5635 24.3684 19.3292 24.4558 19.0901C24.6842 18.4653 25.2813 18 26 18C27.1046 18 28 17.1046 28 16C28 14.8954 27.1046 14 26 14C25.2813 14 24.6842 13.5347 24.4558 12.9099C24.3684 12.6709 24.2712 12.4365 24.1645 12.2074C23.8836 11.6037 23.9767 10.8518 24.4853 10.3432C25.2664 9.56214 25.2664 8.29577 24.4853 7.51472C23.7043 6.73368 22.4379 6.73368 21.6569 7.51472C21.1482 8.02331 20.3963 8.11642 19.7926 7.83547C19.5635 7.72886 19.3292 7.63163 19.0902 7.54425C18.4653 7.31585 18 6.71876 18 6C18 4.89542 17.1046 4 16 4C14.8954 4 14 4.89542 14 6C14 6.71876 13.5347 7.31585 12.9098 7.54425C12.6708 7.63163 12.4365 7.72886 12.2074 7.83548C11.6037 8.11643 10.8518 8.02334 10.3432 7.51472C9.56211 6.73368 8.29577 6.73368 7.51472 7.51472C6.73369 8.29576 6.73366 9.56208 7.51474 10.3432Z" fill="#DE1E7E"/>
<path fill-rule="evenodd" clip-rule="evenodd" d="M16 12C13.7909 12 12 13.7909 12 16C12 18.2091 13.7909 20 16 20C18.2091 20 20 18.2091 20 16C20 13.7909 18.2091 12 16 12ZM10 16C10 12.6863 12.6863 10 16 10C19.3137 10 22 12.6863 22 16C22 19.3137 19.3137 22 16 22C12.6863 22 10 19.3137 10 16Z" fill="#DE1E7E"/>
</svg>
