<svg width="20" height="24" viewBox="0 0 20 24" fill="none" xmlns="http://www.w3.org/2000/svg">
  <path d="M0 0H20V24L10 21L0 24V0Z" fill="#DE1E7E" />
  <path
    d="M8.70491 10.1211C8.65642 10.3208 8.51098 10.4206 8.31705 10.4705C7.49285 10.5204 6.86258 10.6202 6.37775 10.72C6.03838 10.7699 5.89293 11.2191 6.08686 11.4687C6.42624 11.8679 6.86258 12.4169 7.49285 12.916C7.63829 13.0158 7.73526 13.2155 7.68678 13.4151C7.58981 13.8643 7.39588 14.6628 7.29892 15.4614C7.25044 15.8108 7.63829 16.0603 7.92919 15.9605C8.55946 15.7109 9.48062 15.2618 9.96545 14.8625C10.4503 15.2618 11.4199 15.661 12.0017 15.9605C12.3411 16.1102 12.6805 15.8108 12.632 15.4614C12.5835 14.6628 12.3896 13.8643 12.2441 13.4151C12.1956 13.2155 12.2441 13.0158 12.438 12.916C13.0198 12.4669 13.5047 11.8679 13.844 11.4687C14.1349 11.2191 13.9895 10.8199 13.6501 10.72C13.2138 10.6202 12.535 10.5204 11.7108 10.4705C11.5169 10.4705 11.3714 10.3208 11.2745 10.171C11.1775 9.72186 10.8866 8.97322 10.4503 8.22459C10.2563 7.92514 9.82 7.92514 9.62607 8.22459C9.33518 8.67377 8.94732 9.42241 8.70491 10.1211Z"
    fill="white"
  />
</svg>
