<svg width="24" height="24" viewBox="0 0 24 24" fill="none" xmlns="http://www.w3.org/2000/svg">
<path fill-rule="evenodd" clip-rule="evenodd" d="M17.712 17.9595C18.3843 17.9595 18.9021 17.3663 18.8113 16.7001L17.6544 8.21604C17.4952 7.04855 16.498 6.17814 15.3197 6.17814L8.68028 6.17813C7.50198 6.17813 6.50482 7.04855 6.34561 8.21604L5.1887 16.7001C5.09786 17.3662 5.61569 17.9595 6.28802 17.9595C6.69095 17.9595 7.06221 17.741 7.25789 17.3888L9.38121 13.5668C9.69289 13.0058 10.2842 12.6579 10.926 12.6579L13.074 12.6579C13.7158 12.6579 14.3071 13.0058 14.6188 13.5668L16.7421 17.3888C16.9378 17.741 17.309 17.9595 17.712 17.9595ZM19.9786 16.5409C20.1659 17.9145 19.0982 19.1376 17.712 19.1376C16.8812 19.1376 16.1157 18.6872 15.7122 17.961L13.5889 14.139C13.485 13.952 13.2879 13.836 13.074 13.836L10.926 13.836C10.7121 13.836 10.515 13.952 10.4111 14.139L8.28777 17.961C7.8843 18.6872 7.11881 19.1376 6.28802 19.1376C4.90175 19.1376 3.83407 17.9144 4.02137 16.5409L5.17828 8.05686C5.41709 6.30561 6.91283 5 8.68028 5L15.3197 5C17.0872 5 18.5829 6.30562 18.8217 8.05686L19.9786 16.5409Z" stroke="#DE1E7E" stroke-width="0.3" stroke-linecap="round" stroke-linejoin="round"/>
</svg>
