<svg width="24" height="24" viewBox="0 0 24 24" fill="none" xmlns="http://www.w3.org/2000/svg">
<path d="M10.0251 15.149C9.95656 14.9389 9.73076 14.8242 9.52074 14.8928C9.31072 14.9613 9.19601 15.1871 9.26454 15.3971L10.0251 15.149ZM11.8396 22L11.4593 22.1241C11.4981 22.2429 11.5901 22.3367 11.7082 22.3778C11.8262 22.4189 11.9566 22.4024 12.0607 22.3333L11.8396 22ZM15.5545 19.5348L15.5787 19.1356C15.4919 19.1303 15.4057 19.1535 15.3333 19.2015L15.5545 19.5348ZM20 19.8043L19.9758 20.2036C20.1095 20.2117 20.2383 20.1524 20.3191 20.0455C20.3999 19.9387 20.4218 19.7985 20.3775 19.6721L20 19.8043ZM18.027 12.961C17.954 12.7525 17.7258 12.6427 17.5173 12.7157C17.3088 12.7887 17.199 13.017 17.272 13.2255L18.027 12.961ZM15.05 19.5782C15.1216 19.7872 15.3491 19.8985 15.5581 19.8269C15.767 19.7553 15.8784 19.5278 15.8068 19.3188L15.05 19.5782ZM14.4615 15.3939C14.3899 15.1849 14.1624 15.0736 13.9535 15.1452C13.7445 15.2168 13.6331 15.4443 13.7048 15.6533L14.4615 15.3939ZM11.5344 22.3245C11.7185 22.4466 11.9667 22.3964 12.0888 22.2123C12.2109 22.0282 12.1607 21.7799 11.9766 21.6578L11.5344 22.3245ZM8.44554 19.7955L8.66665 19.4621C8.59422 19.4141 8.5081 19.391 8.42133 19.3962L8.44554 19.7955ZM4 20.065L3.61805 19.9462C3.57901 20.0717 3.60412 20.2083 3.6852 20.3118C3.76629 20.4152 3.89301 20.4722 4.0242 20.4642L4 20.065ZM6.75724 12.5483C6.82286 12.3373 6.70505 12.1131 6.49411 12.0475C6.28317 11.9819 6.05897 12.0997 5.99334 12.3106L6.75724 12.5483ZM8.25429 19.6356C8.18684 19.846 8.30268 20.0712 8.51305 20.1387C8.72341 20.2061 8.94863 20.0903 9.01608 19.8799L8.25429 19.6356ZM10.2128 16.148C10.2803 15.9377 10.1644 15.7125 9.95404 15.645C9.74368 15.5775 9.51846 15.6934 9.451 15.9038L10.2128 16.148ZM18.5318 8.82525C18.5318 12.3756 15.6676 15.2505 12.1384 15.2505V16.0505C16.113 16.0505 19.3318 12.8139 19.3318 8.82525H18.5318ZM12.1384 15.2505C8.6092 15.2505 5.74502 12.3756 5.74502 8.82525H4.94502C4.94502 12.8139 8.16385 16.0505 12.1384 16.0505V15.2505ZM5.74502 8.82525C5.74502 5.27492 8.6092 2.4 12.1384 2.4V1.6C8.16385 1.6 4.94502 4.83662 4.94502 8.82525H5.74502ZM12.1384 2.4C15.6676 2.4 18.5318 5.27492 18.5318 8.82525H19.3318C19.3318 4.83662 16.113 1.6 12.1384 1.6V2.4ZM16.5281 8.82523C16.5281 11.2572 14.5643 13.2261 12.145 13.2261V14.0261C15.0089 14.0261 17.3281 11.6962 17.3281 8.82523H16.5281ZM12.145 13.2261C9.72561 13.2261 7.76181 11.2572 7.76181 8.82523H6.96181C6.96181 11.6962 9.28099 14.0261 12.145 14.0261V13.2261ZM7.76181 8.82523C7.76181 6.39327 9.72561 4.42432 12.145 4.42432V3.62432C9.28099 3.62432 6.96181 5.95424 6.96181 8.82523H7.76181ZM12.145 4.42432C14.5643 4.42432 16.5281 6.39327 16.5281 8.82523H17.3281C17.3281 5.95424 15.0089 3.62432 12.145 3.62432V4.42432ZM9.86801 8.8254C9.86801 8.82799 9.86757 8.8294 9.86717 8.83034C9.86666 8.83155 9.8658 8.8329 9.86457 8.83414C9.86334 8.83538 9.86219 8.83604 9.86147 8.83635C9.86103 8.83654 9.8603 8.83682 9.85852 8.83682V9.63682C10.3074 9.63682 10.668 9.27177 10.668 8.8254H9.86801ZM9.85852 8.83682C9.85674 8.83682 9.85602 8.83654 9.85557 8.83635C9.85485 8.83604 9.85371 8.83538 9.85247 8.83414C9.85124 8.8329 9.85038 8.83155 9.84987 8.83034C9.84948 8.8294 9.84903 8.82799 9.84903 8.8254H9.04903C9.04903 9.27177 9.40969 9.63682 9.85852 9.63682V8.83682ZM9.84903 8.8254C9.84903 8.82282 9.84948 8.82141 9.84987 8.82047C9.85038 8.81926 9.85124 8.81791 9.85247 8.81667C9.85371 8.81543 9.85485 8.81477 9.85557 8.81446C9.85602 8.81427 9.85674 8.81399 9.85852 8.81399V8.01399C9.40969 8.01399 9.04903 8.37904 9.04903 8.8254H9.84903ZM9.85852 8.81399C9.8603 8.81399 9.86103 8.81427 9.86147 8.81446C9.86219 8.81477 9.86334 8.81543 9.86457 8.81667C9.8658 8.81791 9.86666 8.81926 9.86717 8.82047C9.86757 8.82141 9.86801 8.82282 9.86801 8.8254H10.668C10.668 8.37904 10.3074 8.01399 9.85852 8.01399V8.81399ZM12.1119 8.8254C12.1119 8.82799 12.1114 8.8294 12.111 8.83034C12.1105 8.83155 12.1097 8.8329 12.1084 8.83414C12.1072 8.83538 12.1061 8.83604 12.1053 8.83635C12.1049 8.83654 12.1042 8.83682 12.1024 8.83682V9.63682C12.5512 9.63682 12.9119 9.27177 12.9119 8.8254H12.1119ZM12.1024 8.83682C12.1006 8.83682 12.0999 8.83654 12.0994 8.83635C12.0987 8.83604 12.0976 8.83538 12.0963 8.83414C12.0951 8.8329 12.0943 8.83155 12.0937 8.83034C12.0934 8.8294 12.0929 8.82799 12.0929 8.8254H11.2929C11.2929 9.27177 11.6536 9.63682 12.1024 9.63682V8.83682ZM12.0929 8.8254C12.0929 8.82282 12.0934 8.82141 12.0937 8.82047C12.0943 8.81926 12.0951 8.81791 12.0963 8.81667C12.0976 8.81543 12.0987 8.81477 12.0994 8.81446C12.0999 8.81427 12.1006 8.81399 12.1024 8.81399V8.01399C11.6536 8.01399 11.2929 8.37904 11.2929 8.8254H12.0929ZM12.1024 8.81399C12.1042 8.81399 12.1049 8.81427 12.1053 8.81446C12.1061 8.81477 12.1072 8.81543 12.1084 8.81667C12.1097 8.81791 12.1105 8.81926 12.111 8.82047C12.1114 8.82141 12.1119 8.82282 12.1119 8.8254H12.9119C12.9119 8.37904 12.5512 8.01399 12.1024 8.01399V8.81399ZM14.3558 8.8254C14.3558 8.82799 14.3553 8.8294 14.3549 8.83034C14.3544 8.83155 14.3536 8.8329 14.3523 8.83414C14.3511 8.83538 14.35 8.83604 14.3493 8.83635C14.3488 8.83654 14.3481 8.83682 14.3463 8.83682V9.63682C14.7951 9.63682 15.1558 9.27177 15.1558 8.8254H14.3558ZM14.3463 8.83682C14.3445 8.83682 14.3438 8.83654 14.3433 8.83635C14.3426 8.83604 14.3415 8.83538 14.3403 8.83414C14.339 8.8329 14.3382 8.83155 14.3377 8.83034C14.3373 8.8294 14.3368 8.82799 14.3368 8.8254H13.5368C13.5368 9.27177 13.8975 9.63682 14.3463 9.63682V8.83682ZM14.3368 8.8254C14.3368 8.82282 14.3373 8.82141 14.3377 8.82047C14.3382 8.81926 14.339 8.81791 14.3403 8.81667C14.3415 8.81543 14.3426 8.81477 14.3433 8.81446C14.3438 8.81427 14.3445 8.81399 14.3463 8.81399V8.01399C13.8975 8.01399 13.5368 8.37904 13.5368 8.8254H14.3368ZM14.3463 8.81399C14.3481 8.81399 14.3488 8.81427 14.3493 8.81446C14.35 8.81477 14.3511 8.81543 14.3523 8.81667C14.3536 8.81791 14.3544 8.81926 14.3549 8.82047C14.3553 8.82141 14.3558 8.82282 14.3558 8.8254H15.1558C15.1558 8.37904 14.7951 8.01399 14.3463 8.01399V8.81399ZM9.26454 15.3971L11.4593 22.1241L12.2198 21.8759L10.0251 15.149L9.26454 15.3971ZM12.0607 22.3333L15.7756 19.8681L15.3333 19.2015L11.6184 21.6667L12.0607 22.3333ZM15.5303 19.9341L19.9758 20.2036L20.0242 19.4051L15.5787 19.1356L15.5303 19.9341ZM20.3775 19.6721L18.027 12.961L17.272 13.2255L19.6225 19.9365L20.3775 19.6721ZM15.8068 19.3188L14.4615 15.3939L13.7048 15.6533L15.05 19.5782L15.8068 19.3188ZM11.9766 21.6578L8.66665 19.4621L8.22442 20.1288L11.5344 22.3245L11.9766 21.6578ZM8.42133 19.3962L3.9758 19.6657L4.0242 20.4642L8.46974 20.1947L8.42133 19.3962ZM4.38195 20.1838L6.75724 12.5483L5.99334 12.3106L3.61805 19.9462L4.38195 20.1838ZM9.01608 19.8799L10.2128 16.148L9.451 15.9038L8.25429 19.6356L9.01608 19.8799Z" fill="#DE1E7E"/>
</svg>