<svg width="40" height="24" viewBox="0 0 40 24" fill="none" xmlns="http://www.w3.org/2000/svg">
<path d="M22.5741 3.69879H33.3073C34.6678 3.69879 35.7712 4.80221 35.7712 6.16268V20.3567" stroke="#DE1E7E" stroke-miterlimit="10" stroke-linecap="round" stroke-linejoin="round"/>
<path d="M5.60267 20.3567H38.7681C38.8935 20.3567 39.0001 20.4633 39.0001 20.5887V21.2469C39.0001 22.1309 38.2854 22.8457 37.4014 22.8457H6.97568C6.09169 22.8457 5.37697 22.1309 5.37697 21.2469V20.5887C5.3707 20.4633 5.47728 20.3567 5.60267 20.3567Z" stroke="#DE1E7E" stroke-miterlimit="10" stroke-linecap="round" stroke-linejoin="round"/>
<path d="M25.5679 6.95886H35.7713" stroke="#DE1E7E" stroke-miterlimit="10" stroke-linecap="round" stroke-linejoin="round"/>
<path d="M15.9913 5.48732C15.7057 5.86328 15.6869 6.43801 15.805 6.80635C15.9467 7.24836 16.3449 7.73 17.1128 7.9712L18.2463 8.3389L18.4826 9.07558L20.1922 9.33977L20.6926 8.36685C20.6926 8.36685 19.1688 3.61526 19.0507 3.24692C18.9326 2.87858 18.3766 2.28505 17.7547 2.11891L18.0355 1.09455L16.5621 1.56703L14.6468 2.18127C12.8787 2.74825 11.9863 3.76564 11.2461 5.38417C10.2112 7.0972 9.86087 7.77824 8.09284 8.34523L4.77778 9.40833" stroke="#DE1E7E" stroke-width="0.831656" stroke-miterlimit="10"/>
<path d="M7.09211 10.291L8.93381 9.70044C11.4385 8.89721 11.734 7.66505 12.3949 6.5594C13.0559 5.45374 13.0935 4.30427 14.751 3.77272" stroke="#DE1E7E" stroke-width="0.831656" stroke-miterlimit="10"/>
<path d="M17.4335 4.53734L18.4064 5.03777" stroke="#DE1E7E" stroke-width="0.831656" stroke-miterlimit="10"/>
<path d="M12.7706 8.9981C11.9519 9.99185 11.0269 10.6541 9.81135 11.0439L4.61776 12.7094" stroke="#DE1E7E" stroke-width="0.831656" stroke-miterlimit="10"/>
<path d="M16.5368 8.07466C16.1615 8.80435 16.1768 9.61191 16.5603 10.3013C17.0516 11.2 16.8486 11.8338 16.3864 12.6726L20.611 14.4457L21.3337 15.4326L20.7012 17.2603" stroke="#DE1E7E" stroke-width="0.831656" stroke-miterlimit="10"/>
<path d="M18.5029 18.0059L18.7671 16.2963L15.2298 15.3996L12.5333 15.8581L10.101 14.607" stroke="#DE1E7E" stroke-width="0.831656" stroke-miterlimit="10"/>
<rect x="3.25" y="4.3559" width="0.5" height="0.5" rx="0.25" fill="#DE1E7E" stroke="#DE1E7E" stroke-width="0.5"/>
<rect x="-0.25" y="0.25" width="0.5" height="0.5" rx="0.25" transform="matrix(-1 0 0 1 4.5 7.1059)" fill="#DE1E7E" stroke="#DE1E7E" stroke-width="0.5"/>
<rect x="2.25" y="15.3559" width="0.5" height="0.5" rx="0.25" fill="#DE1E7E" stroke="#DE1E7E" stroke-width="0.5"/>
<rect x="5.25" y="4.3559" width="2.5" height="0.5" rx="0.25" fill="#118BFF" stroke="#DE1E7E" stroke-width="0.5"/>
<rect x="-0.25" y="0.25" width="2.5" height="0.5" rx="0.25" transform="matrix(-1 0 0 1 2.5 7.1059)" fill="#118BFF" stroke="#DE1E7E" stroke-width="0.5"/>
<rect x="4.25" y="15.3559" width="2.5" height="0.5" rx="0.25" fill="#118BFF" stroke="#DE1E7E" stroke-width="0.5"/>
</svg>
