<svg width="48" height="48" viewBox="0 0 48 48" fill="none" xmlns="http://www.w3.org/2000/svg">
<path d="M5.20309 29.0748C8.67552 34.6416 13.3527 39.3219 18.9156 42.7967" stroke="#DE1E7E" stroke-width="1.5" stroke-miterlimit="10" stroke-linecap="round" stroke-linejoin="round"/>
<path d="M15.4702 24.4389C12.931 28.4294 12.2825 32.3313 14.1703 34.1935C16.073 36.0703 20.0123 35.3427 23.9999 32.6986" stroke="#DE1E7E" stroke-width="1.5" stroke-miterlimit="10" stroke-linecap="round" stroke-linejoin="round"/>
<path d="M29.0489 5.21222C34.6119 8.68701 39.289 13.3673 42.7614 18.9341" stroke="#DE1E7E" stroke-width="1.5" stroke-miterlimit="10" stroke-linecap="round" stroke-linejoin="round"/>
<path d="M25.0363 15.4388C28.7737 13.1702 32.3634 12.6322 34.1525 14.397C35.8973 16.1181 35.4755 19.5816 33.3968 23.247" stroke="#DE1E7E" stroke-width="1.5" stroke-miterlimit="10" stroke-linecap="round" stroke-linejoin="round"/>
<path d="M7.71858 43.0094C11.0138 43.6831 17.817 44.2859 25.8248 40.3147C32.0964 37.1945 37.1988 32.0887 40.3169 25.8128C44.2853 17.8349 43.683 11.0272 43.0098 7.69421C42.7263 6.31139 41.6633 5.24768 40.2814 4.96402C36.9507 4.32579 30.1476 3.72302 22.1752 7.69421C15.9036 10.8144 10.8012 15.9202 7.68315 22.1961C3.71466 30.174 4.31702 36.9817 4.99025 40.3147C5.27371 41.6621 6.3367 42.7258 7.71858 43.0094Z" stroke="#DE1E7E" stroke-width="1.5" stroke-miterlimit="10" stroke-linecap="round" stroke-linejoin="round"/>
<path d="M18.9155 29.0682L28.5132 19.6533" stroke="#DE1E7E" stroke-width="1.5" stroke-miterlimit="10" stroke-linecap="round" stroke-linejoin="round"/>
</svg>
