<svg width="16" height="16" viewBox="0 0 16 16" fill="none" xmlns="http://www.w3.org/2000/svg">
  <path fill-rule="evenodd" clip-rule="evenodd" d="M13.5443 14.3681H13.555H13.5443ZM7.82807 3.25235C9.62434 3.25235 11.1923 4.19848 12.1289 5.84862C13.2691 7.85822 13.2819 10.4715 12.1598 12.3489L11.9977 12.6102C11.875 12.8054 11.7491 12.9995 11.6606 13.2129C11.5497 13.4827 11.5305 13.743 11.6115 13.9265C11.7299 14.1953 12.0734 14.3585 12.3411 14.4481C12.5982 14.5334 12.7806 14.5505 12.8947 14.4939C13.0078 14.4406 13.1134 14.2923 13.2115 14.1452C14.6441 12.0043 15.1539 9.07635 14.5395 6.50248C14.0254 4.35422 12.7731 2.62622 11.0131 1.63635C9.13047 0.578216 6.72621 0.515283 4.88834 1.47315C3.74594 2.06728 2.73367 3.08168 2.03607 4.33075C0.816873 6.51528 0.473407 9.27475 1.11767 11.711C1.26914 12.287 1.48461 12.7958 1.75661 13.2257C1.99341 13.5958 2.38487 14.0652 2.91074 14.1942C3.30114 14.2892 3.82487 14.1121 3.93687 13.7313C4.03607 13.3995 3.83554 12.9782 3.65954 12.6081C3.30007 11.8507 2.90754 10.9451 2.72621 9.97128C2.41901 8.32222 2.92354 6.45982 4.04461 5.11048C5.03981 3.91262 6.38381 3.25235 7.82807 3.25235ZM12.7273 15.327C12.4862 15.327 12.2611 15.2651 12.0873 15.2065C11.4761 15.0017 11.0697 14.6785 10.8798 14.2486C10.7091 13.8593 10.7241 13.3835 10.9214 12.9067C11.0323 12.6401 11.1795 12.4075 11.3214 12.1825L11.4729 11.9393C12.4371 10.3254 12.4201 7.98408 11.4334 6.24328C10.6313 4.83102 9.35021 4.05235 7.82807 4.05235C6.62594 4.05235 5.50061 4.61022 4.66007 5.62248C3.68727 6.79262 3.24887 8.40328 3.51341 9.82515C3.67767 10.7073 4.04567 11.5532 4.38274 12.2635C4.60887 12.7414 4.89047 13.3334 4.70381 13.9595C4.45527 14.7926 3.47714 15.1542 2.72194 14.9707C2.10007 14.8193 1.53367 14.3638 1.08141 13.6545C0.765673 13.1553 0.51714 12.5697 0.34434 11.9148C-0.351127 9.28222 0.0200732 6.30195 1.33847 3.94142C2.12141 2.53662 3.22114 1.43902 4.51927 0.76275C6.59181 -0.314583 9.29474 -0.246317 11.4046 0.93875C13.3619 2.03955 14.7518 3.94888 15.3171 6.31688C15.9817 9.10088 15.4302 12.2699 13.8771 14.591C13.7235 14.8203 13.5337 15.0763 13.2382 15.2171C13.0675 15.2971 12.8937 15.327 12.7273 15.327Z" fill="#DE1E7E"/>
</svg>
