<svg width="32" height="32" viewBox="0 0 32 32" fill="none" xmlns="http://www.w3.org/2000/svg">
<path fill-rule="evenodd" clip-rule="evenodd" d="M11.9834 5C10.6305 5.00124 9.3334 5.54014 8.37687 6.49837C7.42034 7.45661 6.88258 8.75586 6.88165 10.1109C6.88258 11.4658 7.42034 12.7651 8.37687 13.7233C9.3334 14.6816 10.6305 15.2205 11.9834 15.2217C13.3365 15.2208 14.6339 14.682 15.5907 13.7237C16.5475 12.7655 17.0854 11.466 17.0863 10.1109C17.0854 8.75565 16.5475 7.45623 15.5907 6.49796C14.6339 5.53969 13.3365 5.00093 11.9834 5V5ZM8.15679 10.1109C8.15679 12.2246 9.87177 13.9434 11.9834 13.9434C14.095 13.9434 15.81 12.2258 15.81 10.1109C15.81 7.99594 14.095 6.2783 11.9834 6.2783C10.9688 6.27923 9.99603 6.68331 9.2786 7.40185C8.56118 8.12039 8.15772 9.09468 8.15679 10.1109V10.1109ZM22.1892 8.83255C20.0776 8.83255 18.3626 10.5502 18.3626 12.6651C18.3626 14.78 20.0776 16.4988 22.1892 16.4988C24.3009 16.4988 26.0158 14.7812 26.0158 12.6663C26.0158 10.5514 24.302 8.83372 22.1892 8.83372V8.83255ZM19.6378 12.6651C19.6378 14.0754 20.7811 15.2217 22.1892 15.2217C23.5962 15.2217 24.7407 14.0766 24.7407 12.6663C24.7407 11.2571 23.5974 10.1109 22.1892 10.1109C20.7822 10.1109 19.6378 11.2559 19.6378 12.6663V12.6651ZM22.1892 19.0543C22.0248 19.0472 21.8695 18.9769 21.7557 18.8579C21.6419 18.7389 21.5783 18.5805 21.5783 18.4157C21.5783 18.2509 21.6419 18.0925 21.7557 17.9735C21.8695 17.8545 22.0248 17.7842 22.1892 17.7771C23.9474 17.7771 25.7055 17.9197 27.4625 18.2048C27.9411 18.2826 28.3876 18.4954 28.7498 18.8182C29.112 19.141 29.3749 19.5605 29.5076 20.0276L29.9043 21.4227C29.9183 21.473 29.9311 21.5232 29.9428 21.5746C30.2379 22.9219 29.3606 24.2492 28.0283 24.6103C26.753 24.9517 25.4546 25.1993 24.1434 25.3511C23.9777 25.3649 23.8131 25.3134 23.6848 25.2075C23.5564 25.1017 23.4744 24.9498 23.4561 24.7843C23.4379 24.6188 23.4849 24.4526 23.5871 24.3213C23.6893 24.1899 23.8386 24.1037 24.0034 24.081C25.0977 23.9606 26.4801 23.7071 27.6946 23.3776C28.3911 23.1883 28.8414 22.5082 28.6968 21.848C28.691 21.8225 28.6844 21.7972 28.6769 21.7721L28.2803 20.377C28.214 20.1435 28.0827 19.9337 27.9017 19.7723C27.7207 19.6109 27.4975 19.5045 27.2583 19.4656C25.5824 19.1924 23.8872 19.0549 22.1892 19.0543V19.0543ZM11.9834 26.7217C15.6303 26.7217 18.2763 26.3805 19.8979 25.7168C20.4637 25.4855 20.7869 24.8837 20.6679 24.2843L20.1709 21.7943C20.0358 21.1151 19.684 20.4983 19.1685 20.0367C18.6529 19.5752 18.0016 19.294 17.3126 19.2354C15.9022 19.1162 14.1254 19.0554 11.9834 19.0554C9.8426 19.0554 8.0658 19.1162 6.65415 19.2365C5.96533 19.2951 5.31413 19.5761 4.79862 20.0374C4.28312 20.4988 3.9312 21.1153 3.79587 21.7943L3.30121 24.2831C3.24283 24.5742 3.28752 24.8766 3.42762 25.1382C3.56772 25.3999 3.79447 25.6045 4.06886 25.7168C5.6905 26.3805 8.33646 26.7217 11.9834 26.7217ZM3.58704 26.8993C5.39534 27.6389 8.18596 28 11.9846 28C15.782 28 18.5738 27.6389 20.3809 26.8993C20.9295 26.6749 21.3831 26.2662 21.6636 25.7434C21.9442 25.2206 22.0344 24.6163 21.9186 24.0342L21.4216 21.5442C21.2324 20.5939 20.7401 19.7308 20.0189 19.0849C19.2976 18.439 18.3863 18.0452 17.4223 17.9629C15.971 17.8391 14.1592 17.7783 11.9846 17.7783C9.80993 17.7783 7.99696 17.8391 6.54566 17.9629C5.58161 18.0452 4.67036 18.439 3.94909 19.0849C3.22781 19.7308 2.73554 20.5939 2.54639 21.5442L2.0494 24.0331C1.93331 24.6153 2.02329 25.2199 2.30389 25.743C2.58449 26.266 3.03818 26.6749 3.58704 26.8993V26.8993Z" fill="#DE1E7E" stroke="#DE1E7E" stroke-width="0.5" stroke-linejoin="round"/>
</svg>
