<svg width="32" height="32" viewBox="0 0 32 32" fill="none" xmlns="http://www.w3.org/2000/svg">
<path d="M22.0657 24.0049L22.0657 24.005C22.1883 24.6212 22.0929 25.2609 21.7958 25.8144C21.4988 26.3678 21.0186 26.8005 20.4377 27.0381C18.6024 27.7893 15.7862 28.15 11.9846 28.15C8.1817 28.15 5.36671 27.7893 3.53025 27.0381C2.94911 26.8005 2.46877 26.3676 2.17171 25.8139C1.87465 25.2602 1.7794 24.6201 1.90229 24.0037L1.9023 24.0037L2.39928 21.515L22.0657 24.0049ZM22.0657 24.0049L21.5687 21.515C21.5687 21.5149 21.5687 21.5149 21.5687 21.5149C21.3732 20.5327 20.8644 19.6407 20.1189 18.9732C19.3734 18.3056 18.4316 17.8986 17.4351 17.8135L17.4351 17.8135M22.0657 24.0049L17.4351 17.8135M17.4351 17.8135C15.9779 17.6891 14.1615 17.6283 11.9846 17.6283C9.80761 17.6283 7.99002 17.6891 6.5329 17.8135L6.53289 17.8135M17.4351 17.8135L6.53289 17.8135M6.53289 17.8135C5.5364 17.8986 4.59452 18.3056 3.84902 18.9732M6.53289 17.8135L3.84902 18.9732M3.84902 18.9732C3.10355 19.6407 2.59479 20.5327 2.39929 21.5149L3.84902 18.9732ZM12.1334 4.85224V4.84986L11.9835 4.85L11.9833 4.85C10.5906 4.85127 9.25532 5.40603 8.27071 6.3924C7.28611 7.37876 6.7326 8.71609 6.73165 10.1107V10.111C6.7326 11.5056 7.28611 12.8429 8.27071 13.8293C9.25532 14.8157 10.5906 15.3704 11.9833 15.3717L11.9835 15.3717C13.3764 15.3707 14.712 14.8161 15.6968 13.8297C16.6817 12.8433 17.2354 11.5058 17.2363 10.111L17.2363 10.1107C17.2354 8.71588 16.6817 7.37837 15.6968 6.39198C14.7473 5.44101 13.4719 4.89137 12.1334 4.85224ZM11.9834 13.7934C9.9549 13.7934 8.30687 12.1421 8.30679 10.111C8.30768 9.13448 8.6954 8.19826 9.38475 7.50783C10.0741 6.81742 11.0087 6.42919 11.9835 6.4283C14.012 6.42837 15.66 8.0786 15.66 10.1109C15.66 12.1431 14.012 13.7934 11.9834 13.7934ZM22.3392 8.68651V8.68255H22.1892C19.9945 8.68255 18.2126 10.4676 18.2126 12.6651C18.2126 14.8626 19.9945 16.6488 22.1892 16.6488C24.3839 16.6488 26.1658 14.8638 26.1658 12.6663C26.1658 10.519 24.4656 8.76559 22.3392 8.68651ZM22.1892 17.6271V17.627L22.1828 17.6273C21.9797 17.636 21.7879 17.7229 21.6473 17.8698C21.5068 18.0167 21.4283 18.2123 21.4283 18.4157C21.4283 18.6191 21.5068 18.8146 21.6473 18.9616C21.7879 19.1085 21.9797 19.1954 22.1828 19.2041L22.1892 19.0543L22.1892 19.2043C23.8791 19.2049 25.5662 19.3417 27.2342 19.6136L27.2342 19.6136C27.4452 19.648 27.6421 19.7418 27.8019 19.8843C27.9616 20.0267 28.0775 20.2118 28.136 20.4179L28.136 20.418L28.5326 21.8131L28.5331 21.8147C28.5396 21.8365 28.5454 21.8586 28.5504 21.8809C28.6754 22.453 28.2843 23.0618 27.6553 23.2328C26.4485 23.5602 25.0737 23.8124 23.987 23.9319L23.987 23.9318L23.9829 23.9324C23.7794 23.9605 23.5949 24.067 23.4687 24.2292C23.3425 24.3913 23.2845 24.5964 23.307 24.8007C23.3295 25.005 23.4308 25.1925 23.5893 25.3233C23.7478 25.454 23.9511 25.5176 24.1558 25.5006L24.1558 25.5007L24.1606 25.5001C25.4791 25.3474 26.7848 25.0985 28.0671 24.7552L28.0675 24.7551C29.4706 24.3748 30.403 22.9743 30.0893 21.5425L30.089 21.5414C30.0768 21.4874 30.0633 21.4348 30.0487 21.3825L30.0485 21.3817L29.6519 19.9866C29.6519 19.9866 29.6519 19.9866 29.6519 19.9866C29.5114 19.4921 29.2331 19.048 28.8496 18.7062C28.4661 18.3644 27.9933 18.1391 27.4865 18.0567L27.4865 18.0567C25.7217 17.7703 23.9555 17.6271 22.1892 17.6271ZM19.8412 25.578L19.8411 25.578C18.248 26.23 15.6269 26.5717 11.9834 26.5717C8.33986 26.5717 5.71877 26.23 4.1257 25.578C3.88361 25.4789 3.68351 25.2984 3.55986 25.0674C3.4362 24.8365 3.39674 24.5696 3.44828 24.3126L3.44833 24.3124L3.94298 21.8236C3.94298 21.8236 3.94299 21.8236 3.94299 21.8235C4.07199 21.1764 4.40739 20.5888 4.89865 20.1492C5.38993 19.7096 6.01048 19.4418 6.66685 19.386L6.6669 19.386C8.07277 19.2661 9.84498 19.2054 11.9834 19.2054C14.1229 19.2054 15.8952 19.2661 17.2999 19.3848C17.9565 19.4407 18.5771 19.7087 19.0684 20.1485C19.5597 20.5883 19.895 21.1762 20.0238 21.8236L20.0238 21.8237L20.5208 24.3135C20.6258 24.8426 20.3405 25.3738 19.8412 25.578ZM11.9834 19.0554C9.8426 19.0554 8.0658 19.1162 6.65415 19.2365L17.3126 19.2354C15.9022 19.1162 14.1254 19.0554 11.9834 19.0554ZM22.1892 15.0717C20.8644 15.0717 19.7881 13.9932 19.7878 12.6657C19.7881 11.3383 20.8655 10.2609 22.1892 10.2609C23.5143 10.2609 24.5907 11.3397 24.5907 12.6663C24.5907 13.9939 23.5132 15.0717 22.1892 15.0717Z" fill="#DE1E7E" stroke="#DE1E7E" stroke-width="0.3"/>
</svg>
