<svg width="22" height="21" viewBox="0 0 22 21" fill="none" xmlns="http://www.w3.org/2000/svg">
<path d="M1.74748 13.5202C1.31792 13.5979 1.03496 14.0184 1.11494 14.4607C1.19489 14.9028 1.60724 15.1977 2.03681 15.1201L4.93889 14.5952L3.24632 13.2492L1.74748 13.5202Z" fill="#DE1E7E"/>
<path d="M20.7639 10.9089L19.403 7.3279C18.7437 5.77277 17.4796 5.13491 16.3703 5.09191L15.5277 4.16322C15.3274 3.89288 14.975 3.87 14.8371 3.92983C14.6301 4.01969 14.5597 4.08998 14.4098 4.49859L14.2086 5.56274C13.3529 6.23092 12.9843 7.27051 12.6759 8.15239C13.2751 8.28039 13.7519 8.70644 13.9727 9.2635C14.3936 8.05874 14.5547 7.05188 15.697 6.73718C16.6228 6.48659 17.5807 6.98541 17.9304 7.9055L19.2913 11.4866C19.3303 11.5892 19.2849 11.7023 19.1855 11.7461C19.1144 11.7735 19.0371 11.7624 18.9793 11.7108L17.2859 10.2003C16.9552 9.90603 16.4546 9.93768 16.1709 10.2761C15.8863 10.6139 15.925 11.1265 16.256 11.4224C17.8491 12.8429 18.5432 13.7984 19.8171 13.2413C20.6992 12.8567 21.1151 11.832 20.7639 10.9089Z" fill="#DE1E7E"/>
<path d="M12.1633 11.7495L11.4455 11.672L11.4104 11.7727L9.52963 12.1128L10.1421 12.5999C10.4543 12.8483 10.6941 13.1688 10.8535 13.5256L12.146 13.2919C12.4222 13.2419 12.6505 13.0441 12.7459 12.7736L13.1736 11.5499C12.8745 11.712 12.5269 11.7885 12.1633 11.7495Z" fill="#DE1E7E"/>
<path d="M10.8888 3.22859C11.4341 2.46316 11.2551 1.40109 10.4906 0.85651C9.72585 0.311261 8.66487 0.489202 8.12019 1.25376C7.57554 2.01827 7.75207 3.07926 8.5174 3.62371C9.28013 4.17009 10.3432 3.99177 10.8888 3.22859Z" fill="#DE1E7E"/>
<path d="M12.3947 8.9557L10.1851 8.21787L8.98561 5.85803L9.55601 6.51561C9.6702 5.91255 9.44337 5.26463 8.92172 4.88061L8.37389 4.47791C8.03297 4.22724 7.6118 4.12522 7.20092 4.1939C6.79012 4.26252 6.42483 4.4964 6.18424 4.84321L3.13137 8.9557C2.44816 9.94155 2.66257 11.3477 3.6552 12.0781C4.5574 12.7411 3.8378 12.1862 7.4693 15.0736L7.1 17.9736C7.04794 18.6437 7.53432 19.2358 8.18732 19.2968C8.83678 19.356 9.41151 18.8674 9.46442 18.193L9.88478 14.631C9.91677 14.2186 9.74277 13.8153 9.42245 13.5609L6.3404 11.1109C7.15012 9.94155 7.43743 9.82725 7.81579 9.27967L7.23568 6.78293L8.68356 9.63174C8.83829 9.93694 9.13259 10.1427 9.46442 10.1787L12.2064 10.9745C12.3007 10.9848 12.3932 10.981 12.4821 10.9649C12.9041 10.8886 13.241 10.5325 13.2839 10.0721C13.3358 9.51404 12.993 9.14089 12.3947 8.9557Z" fill="#DE1E7E"/>
</svg>