<svg width="20" height="20" viewBox="0 0 20 20" fill="none" xmlns="http://www.w3.org/2000/svg">
<path d="M6.34775 9.06329L7.1043 7.62331L8.32228 8.95375M13.7893 9.06329L13.0735 7.54392L11.7219 9.10775M4.68465 13.7452H15.3155M15.0546 15.625L16.5824 8.32187C16.803 8.22829 16.9974 8.08437 17.1489 7.90227C17.3005 7.72017 17.4048 7.50523 17.453 7.27561C17.6487 6.45957 17.215 5.62288 16.4862 5.40379C15.7573 5.1847 15.0057 5.66575 14.81 6.4818C14.7528 6.71933 14.7489 6.96608 14.7984 7.20525C14.8479 7.44442 14.9497 7.67039 15.097 7.8678L12.3838 10.6414L10.7696 7.16607C10.9615 7.01221 11.1151 6.81797 11.2187 6.59797C11.3224 6.37797 11.3734 6.13794 11.368 5.89596C11.368 5.05927 10.755 4.375 10.0001 4.375C9.24514 4.375 8.63207 5.05927 8.63207 5.90231C8.62668 6.14429 8.67773 6.38432 8.78137 6.60432C8.88502 6.82432 9.03857 7.01856 9.23046 7.17242L7.61627 10.6478L4.90313 7.8678C5.0513 7.66962 5.15367 7.44257 5.20321 7.20222C5.25274 6.96188 5.24827 6.71395 5.1901 6.47544C4.99444 5.6594 4.24441 5.17676 3.51395 5.39426C2.78349 5.61177 2.35141 6.45639 2.54707 7.27244C2.59508 7.50216 2.6993 7.71721 2.85087 7.89935C3.00245 8.08149 3.19691 8.22534 3.41775 8.31869L4.94552 15.6218H15.0546V15.625Z" stroke="#8697A2" stroke-linecap="round" stroke-linejoin="round"/>
</svg>
