<svg width="18" height="18" viewBox="0 0 18 18" fill="none" xmlns="http://www.w3.org/2000/svg">
<path d="M17.7303 11.1781C16.5289 15.9991 11.6445 18.9334 6.82203 17.7302C1.99954 16.5271 -0.933354 11.6451 0.269883 6.82355C1.47312 2.00203 6.3551 -0.933578 11.1765 0.269755C15.9979 1.47309 18.9335 6.35536 17.7303 11.1781Z" fill="#F7931A"/>
<path d="M12.9765 7.8238C13.1635 6.56294 12.2105 5.88509 10.9072 5.43294L11.3305 3.72504L10.2981 3.46599L9.88572 5.12897C9.61464 5.06094 9.33603 4.99632 9.05912 4.93303L9.47299 3.25905L8.44162 3L8.01957 4.70723L5.93783 4.18781L5.66317 5.29839C5.66317 5.29839 6.42901 5.4752 6.41283 5.48619C6.83084 5.59136 6.90665 5.86993 6.89386 6.09089L5.7356 10.7697C5.68443 10.8976 5.55482 11.0894 5.26266 11.0161C5.27301 11.0312 4.51244 10.8266 4.51244 10.8266L4 12.0185L6.07873 12.5472L5.65151 14.275L6.68241 14.534L7.10568 12.8248C7.38786 12.9017 7.66063 12.9728 7.92795 13.0397L7.50638 14.741L8.53859 15L8.96581 13.2755C10.726 13.6109 12.0496 13.4756 12.6059 11.8732C13.0548 10.5822 12.5839 9.83746 11.6578 9.35158C12.3322 9.19429 12.8402 8.74763 12.9757 7.82446L12.9765 7.8238ZM10.6175 11.1552C10.2977 12.4462 8.14044 11.7485 7.44044 11.5732L8.00725 9.28449C8.70687 9.46035 10.9503 9.80866 10.6179 11.155L10.6175 11.1552ZM10.9377 7.80551C10.6467 8.98043 8.8504 8.3835 8.26742 8.23701L8.78061 6.16063C9.36378 6.3073 11.2404 6.58038 10.9369 7.80542" fill="white"/>
</svg>
