<svg width="24" height="24" viewBox="0 0 24 24" fill="none" xmlns="http://www.w3.org/2000/svg">
  <path fill-rule="evenodd" clip-rule="evenodd" d="M3.03022 13.8987C3.77561 17.4376 6.56239 20.2244 10.1013 20.9698C10.1099 21.005 10.1189 21.0398 10.1282 21.0744C10.2749 21.6204 10.7699 22 11.3354 22L12.6552 22C13.2207 22 13.7157 21.6203 13.8624 21.0742C13.8715 21.0403 13.8803 21.0062 13.8889 20.9718C17.4324 20.2296 20.2237 17.4409 20.9698 13.8987C21.005 13.8901 21.0398 13.8811 21.0744 13.8718C21.6204 13.7251 22 13.2301 22 12.6646L22 11.3448C22 10.7793 21.6203 10.2843 21.0742 10.1376C21.0403 10.1285 21.0062 10.1197 20.9718 10.1111C20.2289 6.56428 17.4357 3.77113 13.8889 3.02816C13.8803 2.99384 13.8715 2.95972 13.8624 2.92581C13.7157 2.37966 13.2207 2 12.6552 2L11.3354 2.00001C10.77 2.00001 10.275 2.37956 10.1282 2.9256C10.1189 2.96014 10.1099 2.99502 10.1013 3.03023C6.55911 3.7763 3.77044 6.56756 3.02816 10.1111C2.99384 10.1197 2.95972 10.1285 2.92581 10.1376C2.37966 10.2843 2 10.7793 2 11.3448L2.00001 12.6646C2.00001 13.23 2.37956 13.725 2.9256 13.8718C2.96014 13.8811 2.99502 13.89 3.03022 13.8987ZM11.4156 15.75C11.1583 15.75 10.9163 15.8285 10.715 15.9648C9.44729 15.5542 8.44564 14.5526 8.0351 13.2849C8.17141 13.0836 8.24989 12.8416 8.24989 12.5842L8.24989 11.4211C8.24989 11.1629 8.17094 10.9203 8.03394 10.7187C8.44374 9.44929 9.44609 8.44613 10.715 8.0352C10.9163 8.17151 11.1583 8.25 11.4156 8.25L12.5788 8.24999C12.837 8.24999 13.0796 8.17104 13.2812 8.03404C14.5518 8.44423 15.5557 9.4481 15.9658 10.7187C15.8288 10.9203 15.7499 11.1629 15.7499 11.4211L15.7499 12.5842C15.7499 12.8416 15.8284 13.0836 15.9647 13.2849C15.5538 14.5538 14.5506 15.5561 13.2811 15.966C13.0796 15.829 12.837 15.75 12.5788 15.75L11.4156 15.75ZM14.0425 20.0812C17.0026 19.3353 19.3331 17.0058 20.0802 14.0462C19.8211 14.071 19.5483 14.0833 19.2619 14.0833C18.4815 14.0833 17.6443 13.9917 16.7498 13.809C16.7229 13.8035 16.6963 13.7971 16.67 13.79C16.1626 15.1131 15.1089 16.1658 13.7851 16.6719C13.7925 16.6994 13.7991 16.7272 13.8047 16.7554C13.9901 17.6846 14.0833 18.5197 14.0833 19.2619C14.0833 19.545 14.0697 19.8181 14.0425 20.0812ZM9.9167 19.2619C9.9167 19.5484 9.92905 19.8212 9.95389 20.0803C6.99547 19.3335 4.66658 17.0046 3.91976 14.0461C4.17889 14.071 4.45167 14.0833 4.73813 14.0833C5.51845 14.0833 6.35572 13.9917 7.25018 13.809C7.27713 13.8035 7.30374 13.7971 7.32996 13.79C7.83681 15.1115 8.88851 16.1632 10.2101 16.6701C10.2029 16.6963 10.1966 16.7229 10.1911 16.7499C10.0084 17.6443 9.9167 18.4816 9.9167 19.2619ZM14.0425 3.91884C14.0697 4.18193 14.0833 4.45503 14.0833 4.73811C14.0833 5.4803 13.9901 6.31545 13.8047 7.24463C13.7991 7.27285 13.7925 7.30068 13.7851 7.3281C15.1105 7.83485 16.1651 8.88944 16.6719 10.2149C16.6993 10.2074 16.7271 10.2009 16.7553 10.1953C17.6845 10.0099 18.5197 9.91669 19.2619 9.91669C19.5449 9.91669 19.818 9.93024 20.0811 9.95743C19.335 6.99614 17.0038 4.665 14.0425 3.91884ZM3.91854 9.95745C4.6644 6.99734 6.99397 4.66688 9.95357 3.91976C9.92873 4.17889 9.91638 4.45167 9.91638 4.73813C9.91638 5.51845 10.0081 6.35572 10.1907 7.25018C10.1963 7.27713 10.2026 7.30374 10.2098 7.32996C8.88658 7.83743 7.83393 8.89106 7.32779 10.2149C7.30037 10.2075 7.27254 10.2009 7.24433 10.1953C6.31515 10.0099 5.48 9.9167 4.73781 9.9167C4.45472 9.9167 4.18162 9.93025 3.91854 9.95745ZM7.08154 11.0125C6.20311 10.8372 5.42161 10.75 4.7381 10.75C4.15017 10.75 3.61825 10.8145 3.14194 10.9424C2.95989 10.9913 2.83333 11.1563 2.83333 11.3448L2.83334 12.6646C2.83334 12.8531 2.95986 13.0181 3.14187 13.067C3.5936 13.1884 4.12583 13.25 4.7381 13.25C5.4599 13.25 6.24173 13.1644 7.08338 12.9925C7.27736 12.9529 7.41667 12.7822 7.41667 12.5842L7.41667 11.4211C7.41667 11.2224 7.27638 11.0513 7.08154 11.0125ZM19.2619 10.75C19.8498 10.75 20.3818 10.8145 20.8581 10.9424C21.0401 10.9913 21.1667 11.1563 21.1667 11.3448L21.1667 12.6646C21.1667 12.8531 21.0401 13.0181 20.8581 13.067C20.4064 13.1884 19.8742 13.25 19.2619 13.25C18.5401 13.25 17.7583 13.1644 16.9166 12.9925C16.7226 12.9529 16.5833 12.7822 16.5833 12.5842L16.5833 11.4211C16.5833 11.2224 16.7236 11.0513 16.9185 11.0125C17.7969 10.8372 18.5784 10.75 19.2619 10.75ZM12.9875 7.08154C13.1628 6.20311 13.25 5.42161 13.25 4.7381C13.25 4.15017 13.1855 3.61825 13.0576 3.14194C13.0087 2.95989 12.8437 2.83333 12.6552 2.83333L11.3354 2.83334C11.1469 2.83334 10.9819 2.95986 10.933 3.14187C10.8116 3.5936 10.75 4.12583 10.75 4.7381C10.75 5.45989 10.8356 6.24173 11.0075 7.08338C11.0471 7.27736 11.2178 7.41667 11.4158 7.41667L12.5789 7.41667C12.7776 7.41667 12.9487 7.27638 12.9875 7.08154ZM13.25 19.2619C13.25 19.8498 13.1855 20.3818 13.0576 20.8581C13.0087 21.0401 12.8437 21.1667 12.6552 21.1667L11.3354 21.1667C11.1469 21.1667 10.9819 21.0401 10.933 20.8581C10.8116 20.4064 10.75 19.8742 10.75 19.2619C10.75 18.5401 10.8356 17.7583 11.0075 16.9166C11.0471 16.7226 11.2178 16.5833 11.4158 16.5833L12.5789 16.5833C12.7776 16.5833 12.9487 16.7236 12.9875 16.9185C13.1628 17.7969 13.25 18.5784 13.25 19.2619Z" fill="#DE1E7E"/>
  <path d="M10.1013 20.9698L10.2955 20.922L10.2654 20.8L10.1425 20.7741L10.1013 20.9698ZM3.03022 13.8987L3.22593 13.8575L3.20004 13.7345L3.07803 13.7045L3.03022 13.8987ZM10.1282 21.0744L10.3213 21.0225L10.3213 21.0225L10.1282 21.0744ZM11.3354 22L11.3354 21.8H11.3354V22ZM12.6552 22L12.6552 22.2H12.6552V22ZM13.8624 21.0742L14.0555 21.1261L14.0555 21.1261L13.8624 21.0742ZM13.8889 20.9718L13.8479 20.7761L13.7251 20.8018L13.6948 20.9235L13.8889 20.9718ZM20.9698 13.8987L20.922 13.7045L20.8 13.7346L20.7741 13.8575L20.9698 13.8987ZM21.0744 13.8718L21.1263 14.0649L21.1263 14.0649L21.0744 13.8718ZM22 12.6646L21.8 12.6646V12.6646H22ZM22 11.3448L22.2 11.3448V11.3448H22ZM21.0742 10.1376L21.1261 9.94445L21.1261 9.94445L21.0742 10.1376ZM20.9718 10.1111L20.7761 10.1521L20.8018 10.2749L20.9235 10.3052L20.9718 10.1111ZM13.8889 3.02816L13.6948 3.07645L13.7251 3.19819L13.8479 3.22391L13.8889 3.02816ZM13.8624 2.92581L14.0556 2.87394L14.0556 2.87394L13.8624 2.92581ZM12.6552 2L12.6552 1.8L12.6552 1.8L12.6552 2ZM11.3354 2.00001L11.3354 2.20001L11.3354 2.20001L11.3354 2.00001ZM10.1282 2.9256L9.93506 2.87369L9.93506 2.8737L10.1282 2.9256ZM10.1013 3.03023L10.1425 3.22593L10.2655 3.20004L10.2955 3.07803L10.1013 3.03023ZM3.02816 10.1111L3.07646 10.3052L3.19819 10.2749L3.22391 10.1521L3.02816 10.1111ZM2.92581 10.1376L2.97768 10.3308L2.97768 10.3308L2.92581 10.1376ZM2 11.3448L1.8 11.3448L1.8 11.3448L2 11.3448ZM2.00001 12.6646L2.20001 12.6646L2.20001 12.6646L2.00001 12.6646ZM2.9256 13.8718L2.87369 14.0649L2.8737 14.0649L2.9256 13.8718ZM10.715 15.9648L10.6534 16.1551L10.7463 16.1851L10.8272 16.1304L10.715 15.9648ZM11.4156 15.75L11.4156 15.55H11.4156V15.75ZM8.0351 13.2849L7.8695 13.1727L7.81474 13.2536L7.84483 13.3465L8.0351 13.2849ZM8.24989 12.5842L8.44989 12.5842L8.44989 12.5842L8.24989 12.5842ZM8.24989 11.4211L8.04989 11.4211L8.04989 11.4211L8.24989 11.4211ZM8.03394 10.7187L7.84361 10.6573L7.81358 10.7503L7.86853 10.8311L8.03394 10.7187ZM10.715 8.0352L10.8272 7.8696L10.7463 7.81484L10.6534 7.84493L10.715 8.0352ZM11.4156 8.25L11.4156 8.45L11.4156 8.45L11.4156 8.25ZM12.5788 8.24999L12.5788 8.04999L12.5788 8.04999L12.5788 8.24999ZM13.2812 8.03404L13.3426 7.84371L13.2496 7.81368L13.1687 7.86863L13.2812 8.03404ZM15.9658 10.7187L16.1313 10.8312L16.1862 10.7503L16.1562 10.6573L15.9658 10.7187ZM15.7499 11.4211L15.9499 11.4211V11.4211H15.7499ZM15.7499 12.5842L15.5499 12.5842V12.5842H15.7499ZM15.9647 13.2849L16.155 13.3465L16.185 13.2536L16.1303 13.1727L15.9647 13.2849ZM13.2811 15.966L13.1687 16.1314L13.2496 16.1863L13.3426 16.1563L13.2811 15.966ZM12.5788 15.75L12.5788 15.95H12.5788V15.75ZM20.0802 14.0462L20.2741 14.0951L20.3436 13.82L20.0611 13.8471L20.0802 14.0462ZM14.0425 20.0812L13.8436 20.0606L13.8142 20.345L14.0914 20.2751L14.0425 20.0812ZM16.7498 13.809L16.7899 13.613L16.7898 13.613L16.7498 13.809ZM16.67 13.79L16.7227 13.597L16.5481 13.5493L16.4833 13.7183L16.67 13.79ZM13.7851 16.6719L13.7137 16.4851L13.5447 16.5497L13.5921 16.7243L13.7851 16.6719ZM13.8047 16.7554L13.6086 16.7945L13.6086 16.7945L13.8047 16.7554ZM9.95389 20.0803L9.90494 20.2742L10.1801 20.3437L10.153 20.0612L9.95389 20.0803ZM3.91976 14.0461L3.93885 13.8471L3.65639 13.82L3.72584 14.0951L3.91976 14.0461ZM7.25018 13.809L7.2902 14.0049L7.29021 14.0049L7.25018 13.809ZM7.32996 13.79L7.5167 13.7183L7.45189 13.5493L7.27728 13.597L7.32996 13.79ZM10.2101 16.6701L10.403 16.7228L10.4507 16.5482L10.2817 16.4833L10.2101 16.6701ZM10.1911 16.7499L10.387 16.7899L10.387 16.7899L10.1911 16.7499ZM14.0425 3.91884L14.0914 3.72491L13.8142 3.65506L13.8436 3.93941L14.0425 3.91884ZM13.8047 7.24463L13.6086 7.2055L13.6086 7.2055L13.8047 7.24463ZM13.7851 7.3281L13.5921 7.27571L13.5447 7.4503L13.7137 7.51491L13.7851 7.3281ZM16.6719 10.2149L16.4851 10.2863L16.5497 10.4553L16.7242 10.4079L16.6719 10.2149ZM16.7553 10.1953L16.7162 9.99913L16.7162 9.99913L16.7553 10.1953ZM20.0811 9.95743L20.0606 10.1564L20.3449 10.1858L20.2751 9.90857L20.0811 9.95743ZM9.95357 3.91976L10.1527 3.93885L10.1797 3.65639L9.90462 3.72584L9.95357 3.91976ZM3.91854 9.95745L3.7246 9.90858L3.65475 10.1858L3.9391 10.1564L3.91854 9.95745ZM10.1907 7.25018L9.99479 7.2902L9.99479 7.2902L10.1907 7.25018ZM10.2098 7.32996L10.2814 7.5167L10.4504 7.45189L10.4027 7.27728L10.2098 7.32996ZM7.32779 10.2149L7.27541 10.4079L7.45 10.4553L7.51461 10.2863L7.32779 10.2149ZM7.24433 10.1953L7.28347 9.99915L7.28347 9.99915L7.24433 10.1953ZM7.08154 11.0125L7.12068 10.8163L7.12068 10.8163L7.08154 11.0125ZM3.14194 10.9424L3.09007 10.7493L3.09007 10.7493L3.14194 10.9424ZM2.83333 11.3448L2.63333 11.3448L2.63333 11.3448L2.83333 11.3448ZM2.83334 12.6646L3.03334 12.6646L3.03334 12.6646L2.83334 12.6646ZM3.14187 13.067L3.08996 13.2602L3.08997 13.2602L3.14187 13.067ZM7.08338 12.9925L7.04336 12.7965L7.04336 12.7965L7.08338 12.9925ZM7.41667 12.5842L7.61667 12.5842L7.61667 12.5842L7.41667 12.5842ZM7.41667 11.4211L7.21667 11.4211L7.21667 11.4211L7.41667 11.4211ZM20.8581 10.9424L20.9099 10.7493L20.9099 10.7493L20.8581 10.9424ZM21.1667 11.3448L21.3667 11.3448V11.3448H21.1667ZM21.1667 12.6646L20.9667 12.6646V12.6646H21.1667ZM20.8581 13.067L20.91 13.2602L20.91 13.2602L20.8581 13.067ZM16.9166 12.9925L16.9566 12.7965L16.9566 12.7965L16.9166 12.9925ZM16.5833 12.5842L16.3833 12.5842V12.5842H16.5833ZM16.5833 11.4211L16.7833 11.4211V11.4211H16.5833ZM16.9185 11.0125L16.8793 10.8163L16.8793 10.8163L16.9185 11.0125ZM12.9875 7.08154L13.1837 7.12068L13.1837 7.12068L12.9875 7.08154ZM13.0576 3.14194L13.2507 3.09007L13.2507 3.09007L13.0576 3.14194ZM12.6552 2.83333L12.6552 2.63333L12.6552 2.63333L12.6552 2.83333ZM11.3354 2.83334L11.3354 3.03334L11.3354 3.03334L11.3354 2.83334ZM10.933 3.14187L10.7398 3.08996L10.7398 3.08996L10.933 3.14187ZM11.0075 7.08338L10.8116 7.12341L10.8116 7.12341L11.0075 7.08338ZM11.4158 7.41667L11.4158 7.61667L11.4158 7.61667L11.4158 7.41667ZM12.5789 7.41667L12.5789 7.21667L12.5789 7.21667L12.5789 7.41667ZM13.0576 20.8581L13.2507 20.9099L13.2507 20.9099L13.0576 20.8581ZM12.6552 21.1667L12.6552 21.3667H12.6552V21.1667ZM11.3354 21.1667L11.3354 20.9667H11.3354V21.1667ZM10.933 20.8581L10.7398 20.91L10.7398 20.91L10.933 20.8581ZM11.0075 16.9166L11.2035 16.9566L11.2035 16.9566L11.0075 16.9166ZM11.4158 16.5833L11.4158 16.3833H11.4158V16.5833ZM12.5789 16.5833L12.5789 16.7833H12.5789V16.5833ZM12.9875 16.9185L13.1837 16.8793L13.1837 16.8793L12.9875 16.9185ZM10.1425 20.7741C6.68117 20.045 3.95498 17.3188 3.22593 13.8575L2.83452 13.9399C3.59624 17.5564 6.44361 20.4038 10.0601 21.1655L10.1425 20.7741ZM10.3213 21.0225C10.3124 20.9893 10.3038 20.9558 10.2955 20.922L9.90707 21.0176C9.91607 21.0541 9.9254 21.0904 9.93505 21.1263L10.3213 21.0225ZM11.3354 21.8C10.8604 21.8 10.4446 21.4812 10.3213 21.0225L9.93505 21.1263C10.1053 21.7597 10.6795 22.2 11.3354 22.2V21.8ZM12.6552 21.8L11.3354 21.8L11.3354 22.2L12.6552 22.2L12.6552 21.8ZM13.6692 21.0223C13.546 21.4811 13.1302 21.8 12.6552 21.8V22.2C13.3111 22.2 13.8854 21.7596 14.0555 21.1261L13.6692 21.0223ZM13.6948 20.9235C13.6865 20.9567 13.678 20.9896 13.6692 21.0223L14.0555 21.1261C14.065 21.091 14.0741 21.0556 14.0829 21.0201L13.6948 20.9235ZM20.7741 13.8575C20.0443 17.322 17.3138 20.0501 13.8479 20.7761L13.9299 21.1676C17.5511 20.409 20.403 17.5597 21.1655 13.9399L20.7741 13.8575ZM21.0225 13.6786C20.9893 13.6876 20.9558 13.6962 20.922 13.7045L21.0176 14.0929C21.0541 14.0839 21.0904 14.0746 21.1263 14.0649L21.0225 13.6786ZM21.8 12.6646C21.8 13.1396 21.4812 13.5554 21.0225 13.6787L21.1263 14.0649C21.7597 13.8947 22.2 13.3205 22.2 12.6646H21.8ZM21.8 11.3448L21.8 12.6646L22.2 12.6646L22.2 11.3448L21.8 11.3448ZM21.0223 10.3308C21.4811 10.454 21.8 10.8698 21.8 11.3448H22.2C22.2 10.6889 21.7596 10.1146 21.1261 9.94445L21.0223 10.3308ZM20.9235 10.3052C20.9567 10.3135 20.9896 10.322 21.0223 10.3308L21.1261 9.94445C21.091 9.93502 21.0557 9.92589 21.0201 9.91705L20.9235 10.3052ZM13.8479 3.22391C17.317 3.9506 20.0494 6.68302 20.7761 10.1521L21.1676 10.0701C20.4083 6.44555 17.5545 3.59166 13.9299 2.83241L13.8479 3.22391ZM13.6692 2.97768C13.678 3.01039 13.6865 3.04331 13.6948 3.07645L14.083 2.97986C14.0741 2.94436 14.065 2.90905 14.0556 2.87394L13.6692 2.97768ZM12.6552 2.2C13.1302 2.2 13.546 2.51891 13.6692 2.97768L14.0556 2.87394C13.8854 2.24041 13.3111 1.8 12.6552 1.8V2.2ZM11.3354 2.20001L12.6552 2.2L12.6552 1.8L11.3354 1.80001L11.3354 2.20001ZM10.3214 2.9775C10.4446 2.51883 10.8604 2.20001 11.3354 2.20001L11.3354 1.80001C10.6795 1.80001 10.1053 2.24028 9.93506 2.87369L10.3214 2.9775ZM10.2955 3.07803C10.3038 3.04418 10.3124 3.01067 10.3214 2.97749L9.93506 2.8737C9.92541 2.90962 9.91608 2.94586 9.90708 2.98242L10.2955 3.07803ZM3.22391 10.1521C3.94993 6.68623 6.67796 3.95566 10.1425 3.22593L10.0601 2.83452C6.44027 3.59695 3.59096 6.4489 2.83241 10.0701L3.22391 10.1521ZM2.97768 10.3308C3.01039 10.322 3.04332 10.3135 3.07646 10.3052L2.97986 9.91705C2.94436 9.92588 2.90905 9.93501 2.87394 9.94444L2.97768 10.3308ZM2.2 11.3448C2.2 10.8698 2.51891 10.454 2.97768 10.3308L2.87394 9.94444C2.24041 10.1146 1.8 10.6888 1.8 11.3448H2.2ZM2.20001 12.6646L2.2 11.3448L1.8 11.3448L1.80001 12.6646L2.20001 12.6646ZM2.97751 13.6786C2.51883 13.5554 2.20001 13.1396 2.20001 12.6646L1.80001 12.6646C1.80001 13.3205 2.24029 13.8947 2.87369 14.0649L2.97751 13.6786ZM3.07803 13.7045C3.04418 13.6962 3.01067 13.6876 2.9775 13.6786L2.8737 14.0649C2.90962 14.0746 2.94586 14.0839 2.98242 14.0929L3.07803 13.7045ZM10.8272 16.1304C10.9963 16.0159 11.1993 15.95 11.4156 15.95V15.55C11.1172 15.55 10.8363 15.6411 10.6029 15.7992L10.8272 16.1304ZM7.84483 13.3465C8.27513 14.6752 9.32464 15.7248 10.6534 16.1551L10.7766 15.7745C9.56995 15.3837 8.61614 14.4299 8.22537 13.2233L7.84483 13.3465ZM8.04989 12.5842C8.04989 12.8005 7.98402 13.0036 7.8695 13.1727L8.2007 13.397C8.3588 13.1636 8.44989 12.8827 8.44989 12.5842H8.04989ZM8.04989 11.4211L8.04989 12.5842L8.44989 12.5842L8.44989 11.4211L8.04989 11.4211ZM7.86853 10.8311C7.98363 11.0005 8.04989 11.2041 8.04989 11.4211H8.44989C8.44989 11.1217 8.35825 10.8401 8.19935 10.6063L7.86853 10.8311ZM10.6534 7.84493C9.32338 8.27564 8.27314 9.32673 7.84361 10.6573L8.22426 10.7802C8.61434 9.57186 9.5688 8.61662 10.7766 8.22547L10.6534 7.84493ZM11.4156 8.05C11.1994 8.05 10.9963 7.98412 10.8272 7.8696L10.6029 8.2008C10.8363 8.3589 11.1172 8.45 11.4156 8.45V8.05ZM12.5788 8.04999L11.4156 8.05L11.4156 8.45L12.5788 8.44999L12.5788 8.04999ZM13.1687 7.86863C12.9994 7.98373 12.7958 8.04999 12.5788 8.04999V8.44999C12.8782 8.44999 13.1598 8.35836 13.3936 8.19945L13.1687 7.86863ZM16.1562 10.6573C15.7262 9.32548 14.6744 8.27365 13.3426 7.84371L13.2197 8.22437C14.4292 8.61481 15.3851 9.57072 15.7755 10.7802L16.1562 10.6573ZM15.9499 11.4211C15.9499 11.2041 16.0162 11.0005 16.1313 10.8312L15.8004 10.6063C15.6415 10.8401 15.5499 11.1217 15.5499 11.4211H15.9499ZM15.9499 12.5842L15.9499 11.4211L15.5499 11.4211L15.5499 12.5842L15.9499 12.5842ZM16.1303 13.1727C16.0158 13.0036 15.9499 12.8005 15.9499 12.5842H15.5499C15.5499 12.8827 15.641 13.1636 15.7991 13.397L16.1303 13.1727ZM13.3426 16.1563C14.6731 15.7267 15.7242 14.6765 16.155 13.3465L15.7744 13.2232C15.3833 14.4311 14.428 15.3856 13.2197 15.7756L13.3426 16.1563ZM12.5788 15.95C12.7958 15.95 12.9994 16.0163 13.1687 16.1314L13.3936 15.8005C13.1598 15.6416 12.8782 15.55 12.5788 15.55V15.95ZM11.4156 15.95L12.5788 15.95L12.5788 15.55L11.4156 15.55L11.4156 15.95ZM19.8863 13.9972C19.1572 16.8855 16.8824 19.1594 13.9937 19.8872L14.0914 20.2751C17.1228 19.5113 19.509 17.126 20.2741 14.0951L19.8863 13.9972ZM19.2619 14.2833C19.554 14.2833 19.8332 14.2707 20.0993 14.2452L20.0611 13.8471C19.809 13.8712 19.5426 13.8833 19.2619 13.8833V14.2833ZM16.7098 14.0049C17.6152 14.1899 18.466 14.2833 19.2619 14.2833V13.8833C18.4971 13.8833 17.6733 13.7935 16.7899 13.613L16.7098 14.0049ZM16.6173 13.9829C16.6478 13.9912 16.6786 13.9986 16.7098 14.0049L16.7898 13.613C16.7671 13.6084 16.7448 13.603 16.7227 13.597L16.6173 13.9829ZM13.8565 16.8587C15.2334 16.3323 16.329 15.2378 16.8568 13.8616L16.4833 13.7183C15.9962 14.9885 14.9844 15.9993 13.7137 16.4851L13.8565 16.8587ZM14.0008 16.7163C13.9943 16.6836 13.9867 16.6513 13.9781 16.6195L13.5921 16.7243C13.5983 16.7474 13.6038 16.7708 13.6086 16.7945L14.0008 16.7163ZM14.2833 19.2619C14.2833 18.5035 14.1881 17.6549 14.0008 16.7163L13.6086 16.7945C13.7921 17.7143 13.8833 18.536 13.8833 19.2619H14.2833ZM14.2415 20.1017C14.2694 19.8314 14.2833 19.5514 14.2833 19.2619H13.8833C13.8833 19.5386 13.87 19.8048 13.8436 20.0606L14.2415 20.1017ZM10.153 20.0612C10.1288 19.809 10.1167 19.5427 10.1167 19.2619H9.7167C9.7167 19.5541 9.7293 19.8333 9.75481 20.0994L10.153 20.0612ZM3.72584 14.0951C4.49066 17.1248 6.87523 19.5094 9.90494 20.2742L10.0028 19.8864C7.11572 19.1575 4.8425 16.8843 4.11368 13.9972L3.72584 14.0951ZM4.73813 13.8833C4.45739 13.8833 4.19101 13.8712 3.93885 13.8471L3.90067 14.2452C4.16677 14.2707 4.44596 14.2833 4.73813 14.2833V13.8833ZM7.21016 13.613C6.32665 13.7935 5.50291 13.8833 4.73813 13.8833V14.2833C5.53398 14.2833 6.38479 14.1899 7.2902 14.0049L7.21016 13.613ZM7.27728 13.597C7.25523 13.603 7.23285 13.6084 7.21016 13.613L7.29021 14.0049C7.32142 13.9986 7.35224 13.9912 7.38265 13.9829L7.27728 13.597ZM10.2817 16.4833C9.01309 15.9968 8.00324 14.987 7.5167 13.7183L7.14322 13.8616C7.67039 15.2361 8.76393 16.3297 10.1385 16.8568L10.2817 16.4833ZM10.387 16.7899C10.3917 16.7672 10.397 16.7448 10.403 16.7228L10.0172 16.6174C10.0088 16.6478 10.0015 16.6787 9.99511 16.7099L10.387 16.7899ZM10.1167 19.2619C10.1167 18.4971 10.2066 17.6734 10.387 16.7899L9.99511 16.7099C9.81019 17.6153 9.7167 18.4661 9.7167 19.2619H10.1167ZM14.2833 4.73811C14.2833 4.44866 14.2694 4.16867 14.2415 3.89828L13.8436 3.93941C13.87 4.19518 13.8833 4.4614 13.8833 4.73811H14.2833ZM14.0008 7.28377C14.1881 6.34514 14.2833 5.49654 14.2833 4.73811H13.8833C13.8833 5.46407 13.7921 6.28577 13.6086 7.2055L14.0008 7.28377ZM13.9781 7.38049C13.9867 7.34869 13.9943 7.31644 14.0008 7.28377L13.6086 7.2055C13.6038 7.22925 13.5983 7.25266 13.5921 7.27571L13.9781 7.38049ZM16.8587 10.1435C16.3316 8.7649 15.2351 7.66835 13.8565 7.14129L13.7137 7.51491C14.986 8.00136 15.9986 9.01398 16.4851 10.2863L16.8587 10.1435ZM16.7162 9.99913C16.6835 10.0056 16.6513 10.0132 16.6195 10.0219L16.7242 10.4079C16.7473 10.4017 16.7707 10.3961 16.7945 10.3914L16.7162 9.99913ZM19.2619 9.71669C18.5034 9.71669 17.6548 9.81183 16.7162 9.99913L16.7945 10.3914C17.7142 10.2079 18.5359 10.1167 19.2619 10.1167V9.71669ZM20.1017 9.75849C19.8313 9.73054 19.5513 9.71669 19.2619 9.71669V10.1167C19.5386 10.1167 19.8048 10.1299 20.0606 10.1564L20.1017 9.75849ZM13.9937 4.11278C16.8836 4.84096 19.159 7.11637 19.8872 10.0063L20.2751 9.90857C19.5109 6.87591 17.1241 4.48904 14.0914 3.72491L13.9937 4.11278ZM9.90462 3.72584C6.87369 4.49097 4.48843 6.87714 3.7246 9.90858L4.11248 10.0063C4.84036 7.11755 7.11425 4.84279 10.0025 4.11368L9.90462 3.72584ZM10.1164 4.73813C10.1164 4.45739 10.1285 4.19101 10.1527 3.93885L9.75449 3.90067C9.72897 4.16677 9.71638 4.44596 9.71638 4.73813H10.1164ZM10.3867 7.21016C10.2063 6.32665 10.1164 5.50291 10.1164 4.73813H9.71638C9.71638 5.53398 9.80987 6.38479 9.99479 7.2902L10.3867 7.21016ZM10.4027 7.27728C10.3967 7.25523 10.3913 7.23285 10.3867 7.21016L9.99479 7.2902C10.0012 7.32142 10.0085 7.35224 10.0168 7.38265L10.4027 7.27728ZM7.51461 10.2863C8.00046 9.01554 9.01122 8.00383 10.2814 7.5167L10.1381 7.14322C8.76194 7.67103 7.6674 8.76658 7.14098 10.1435L7.51461 10.2863ZM7.20519 10.3914C7.22894 10.3962 7.25236 10.4017 7.27541 10.4079L7.38017 10.0219C7.34838 10.0133 7.31614 10.0057 7.28347 9.99915L7.20519 10.3914ZM4.73781 10.1167C5.46376 10.1167 6.28546 10.2079 7.20519 10.3914L7.28347 9.99915C6.34484 9.81185 5.49623 9.7167 4.73781 9.7167V10.1167ZM3.9391 10.1564C4.19488 10.13 4.46109 10.1167 4.73781 10.1167V9.7167C4.44835 9.7167 4.16837 9.73056 3.89797 9.75851L3.9391 10.1564ZM4.7381 10.95C5.40523 10.95 6.17324 11.0352 7.0424 11.2086L7.12068 10.8163C6.23299 10.6392 5.438 10.55 4.7381 10.55V10.95ZM3.19381 11.1356C3.65046 11.0129 4.1646 10.95 4.7381 10.95V10.55C4.13575 10.55 3.58604 10.6161 3.09007 10.7493L3.19381 11.1356ZM3.03333 11.3448C3.03333 11.2468 3.09914 11.161 3.19381 11.1356L3.09007 10.7493C2.82063 10.8216 2.63333 11.0658 2.63333 11.3448H3.03333ZM3.03334 12.6646L3.03333 11.3448L2.63333 11.3448L2.63334 12.6646L3.03334 12.6646ZM3.19377 12.8739C3.09913 12.8484 3.03334 12.7626 3.03334 12.6646H2.63334C2.63334 12.9436 2.82059 13.1878 3.08996 13.2602L3.19377 12.8739ZM4.7381 13.05C4.13854 13.05 3.62448 12.9896 3.19377 12.8739L3.08997 13.2602C3.56272 13.3872 4.11313 13.45 4.7381 13.45V13.05ZM7.04336 12.7965C6.21254 12.9662 5.44426 13.05 4.7381 13.05V13.45C5.47553 13.45 6.27092 13.3626 7.12341 13.1884L7.04336 12.7965ZM7.21667 12.5842C7.21667 12.6872 7.14423 12.7759 7.04336 12.7965L7.12341 13.1884C7.41049 13.1298 7.61667 12.8772 7.61667 12.5842H7.21667ZM7.21667 11.4211L7.21667 12.5842L7.61667 12.5842L7.61667 11.4211L7.21667 11.4211ZM7.0424 11.2086C7.14372 11.2288 7.21667 11.3178 7.21667 11.4211H7.61667C7.61667 11.127 7.40905 10.8739 7.12068 10.8163L7.0424 11.2086ZM20.9099 10.7493C20.414 10.6161 19.8643 10.55 19.2619 10.55V10.95C19.8354 10.95 20.3495 11.0129 20.8062 11.1356L20.9099 10.7493ZM21.3667 11.3448C21.3667 11.0659 21.1794 10.8216 20.9099 10.7493L20.8062 11.1356C20.9009 11.161 20.9667 11.2468 20.9667 11.3448H21.3667ZM21.3667 12.6646L21.3667 11.3448L20.9667 11.3448L20.9667 12.6646L21.3667 12.6646ZM20.91 13.2602C21.1794 13.1878 21.3667 12.9436 21.3667 12.6646H20.9667C20.9667 12.7626 20.9009 12.8484 20.8062 12.8739L20.91 13.2602ZM19.2619 13.45C19.8869 13.45 20.4373 13.3872 20.91 13.2602L20.8062 12.8739C20.3755 12.9896 19.8615 13.05 19.2619 13.05V13.45ZM16.8766 13.1884C17.7291 13.3626 18.5245 13.45 19.2619 13.45V13.05C18.5557 13.05 17.7875 12.9662 16.9566 12.7965L16.8766 13.1884ZM16.3833 12.5842C16.3833 12.8773 16.5895 13.1298 16.8766 13.1884L16.9566 12.7965C16.8558 12.7759 16.7833 12.6872 16.7833 12.5842H16.3833ZM16.3833 11.4211L16.3833 12.5842L16.7833 12.5842L16.7833 11.4211L16.3833 11.4211ZM16.8793 10.8163C16.591 10.8739 16.3833 11.127 16.3833 11.4211H16.7833C16.7833 11.3178 16.8563 11.2288 16.9576 11.2086L16.8793 10.8163ZM19.2619 10.55C18.562 10.55 17.767 10.6392 16.8793 10.8163L16.9576 11.2086C17.8268 11.0352 18.5948 10.95 19.2619 10.95V10.55ZM13.05 4.7381C13.05 5.40523 12.9648 6.17324 12.7914 7.0424L13.1837 7.12068C13.3608 6.23299 13.45 5.438 13.45 4.7381H13.05ZM12.8644 3.19381C12.9871 3.65046 13.05 4.1646 13.05 4.7381H13.45C13.45 4.13575 13.3839 3.58604 13.2507 3.09007L12.8644 3.19381ZM12.6552 3.03333C12.7532 3.03333 12.839 3.09914 12.8644 3.19381L13.2507 3.09007C13.1784 2.82063 12.9342 2.63333 12.6552 2.63333V3.03333ZM11.3354 3.03334L12.6552 3.03333L12.6552 2.63333L11.3354 2.63334L11.3354 3.03334ZM11.1261 3.19377C11.1516 3.09913 11.2374 3.03334 11.3354 3.03334V2.63334C11.0564 2.63334 10.8122 2.82059 10.7398 3.08996L11.1261 3.19377ZM10.95 4.7381C10.95 4.13854 11.0104 3.62448 11.1261 3.19377L10.7398 3.08996C10.6128 3.56272 10.55 4.11313 10.55 4.7381H10.95ZM11.2035 7.04336C11.0338 6.21254 10.95 5.44426 10.95 4.7381H10.55C10.55 5.47553 10.6374 6.27092 10.8116 7.12341L11.2035 7.04336ZM11.4158 7.21667C11.3128 7.21667 11.2241 7.14423 11.2035 7.04336L10.8116 7.12341C10.8702 7.41049 11.1227 7.61667 11.4158 7.61667V7.21667ZM12.5789 7.21667L11.4158 7.21667L11.4158 7.61667L12.5789 7.61667L12.5789 7.21667ZM12.7914 7.0424C12.7712 7.14372 12.6822 7.21667 12.5789 7.21667V7.61667C12.873 7.61667 13.1261 7.40905 13.1837 7.12068L12.7914 7.0424ZM13.2507 20.9099C13.3839 20.414 13.45 19.8643 13.45 19.2619H13.05C13.05 19.8354 12.9871 20.3495 12.8644 20.8062L13.2507 20.9099ZM12.6552 21.3667C12.9341 21.3667 13.1784 21.1794 13.2507 20.9099L12.8644 20.8062C12.839 20.9009 12.7532 20.9667 12.6552 20.9667V21.3667ZM11.3354 21.3667L12.6552 21.3667L12.6552 20.9667L11.3354 20.9667L11.3354 21.3667ZM10.7398 20.91C10.8122 21.1794 11.0564 21.3667 11.3354 21.3667V20.9667C11.2374 20.9667 11.1516 20.9009 11.1261 20.8062L10.7398 20.91ZM10.55 19.2619C10.55 19.8869 10.6128 20.4373 10.7398 20.91L11.1261 20.8062C11.0104 20.3755 10.95 19.8615 10.95 19.2619H10.55ZM10.8116 16.8766C10.6374 17.7291 10.55 18.5245 10.55 19.2619H10.95C10.95 18.5557 11.0338 17.7875 11.2035 16.9566L10.8116 16.8766ZM11.4158 16.3833C11.1227 16.3833 10.8702 16.5895 10.8116 16.8766L11.2035 16.9566C11.2241 16.8558 11.3128 16.7833 11.4158 16.7833V16.3833ZM12.5789 16.3833L11.4158 16.3833L11.4158 16.7833L12.5789 16.7833L12.5789 16.3833ZM13.1837 16.8793C13.1261 16.591 12.873 16.3833 12.5789 16.3833V16.7833C12.6822 16.7833 12.7712 16.8563 12.7914 16.9576L13.1837 16.8793ZM13.45 19.2619C13.45 18.562 13.3608 17.767 13.1837 16.8793L12.7914 16.9576C12.9648 17.8268 13.05 18.5948 13.05 19.2619H13.45Z" fill="#DE1E7E"/>
</svg>
