<svg width="32" height="32" viewBox="0 0 32 32" fill="none" xmlns="http://www.w3.org/2000/svg">
<path fill-rule="evenodd" clip-rule="evenodd" d="M22.8182 5H8.27273C4.8084 5 2 7.8084 2 11.2727V20C2 23.4643 4.8084 26.2727 8.27273 26.2727H22.8182C26.2825 26.2727 29.0909 23.4643 29.0909 20V11.2727C29.0909 7.8084 26.2825 5 22.8182 5ZM8.27273 4H22.8182C26.8348 4 30.0909 7.25611 30.0909 11.2727V20C30.0909 24.0166 26.8348 27.2727 22.8182 27.2727H8.27273C4.25611 27.2727 1 24.0166 1 20V11.2727C1 7.25611 4.25611 4 8.27273 4Z" fill="#DE1E7E" stroke="#DE1E7E" stroke-miterlimit="10" stroke-linecap="round" stroke-linejoin="round"/>
</svg>
