<svg width="32" height="32" viewBox="0 0 32 32" fill="none" xmlns="http://www.w3.org/2000/svg">
<path fill-rule="evenodd" clip-rule="evenodd" d="M8.45 8.5C8.45 4.56872 11.8693 1.45001 16 1.45001C20.1306 1.45001 23.55 4.56872 23.55 8.5C23.55 12.4313 20.1306 15.55 16 15.55C11.8693 15.55 8.45 12.4313 8.45 8.5ZM16 2.55001C12.3987 2.55001 9.55 5.25159 9.55 8.5C9.55 11.7484 12.3987 14.45 16 14.45C19.6013 14.45 22.45 11.7484 22.45 8.5C22.45 5.25159 19.6013 2.55001 16 2.55001Z" fill="#DE1E7E" stroke="#DE1E7E" stroke-miterlimit="10" stroke-linecap="round"/>
<path fill-rule="evenodd" clip-rule="evenodd" d="M20.7706 17.45L23.5625 17.45C26.1369 17.45 28.4125 19.5194 28.9741 22.4742L28.9753 22.4805L29.4966 25.4068C29.7087 26.5292 29.2762 27.5152 28.3419 28.0067L28.3297 28.0131L28.3172 28.0189C17.8403 32.8774 7.39172 29.5118 3.86417 28.0269L3.8424 28.0177L3.82149 28.0067C2.97112 27.5594 2.2655 26.6185 2.49222 25.4097L3.01547 22.2895L3.0184 22.2761C3.58527 19.6911 5.68727 17.6331 8.42687 17.6331H11.2105C11.2301 17.6331 11.2497 17.633 11.2694 17.633C11.7287 17.6326 12.188 17.6322 12.6448 17.8591C13.6131 18.1949 14.5873 18.3654 15.9077 18.3654C17.19 18.3654 18.3255 18.0322 19.3455 17.6759C19.5997 17.5516 19.8803 17.5004 20.1125 17.4759C20.3588 17.45 20.6002 17.45 20.7706 17.45ZM20.2276 18.5699C20.0373 18.5899 19.9006 18.626 19.8173 18.6698L19.7814 18.6887L19.7432 18.7021C18.6839 19.0735 17.3949 19.4654 15.9077 19.4654C14.4602 19.4654 13.3541 19.2738 12.2462 18.8851L12.208 18.8717L12.1722 18.8529C11.9657 18.7442 11.762 18.7331 11.2105 18.7331H8.42687C6.29949 18.7331 4.57675 20.3302 4.09574 22.4987L3.57417 25.6089C3.45796 26.2203 3.78552 26.7365 4.31402 27.0227C7.76576 28.4712 17.8158 31.6692 27.841 27.0273C28.2907 26.7852 28.5486 26.3101 28.4153 25.6089L28.4141 25.6026L27.8929 22.6765C27.4096 20.1409 25.5107 18.55 23.5625 18.55H20.7789C20.6017 18.55 20.4121 18.5505 20.2276 18.5699Z" fill="#DE1E7E" stroke="#DE1E7E" stroke-miterlimit="10" stroke-linecap="round"/>
</svg>
