<svg width="32" height="32" viewBox="0 0 32 32" fill="none" xmlns="http://www.w3.org/2000/svg">
<path d="M16 30C15.2 30 14.3 29.7 13.7 29L3.3 18.6C2.9 18.2 2.9 17.6 3.3 17.2C3.7 16.8 4.3 16.8 4.7 17.2L15.1 27.6C15.6 28.1 16.5 28.1 16.9 27.6L27.3 17.2C27.7 16.8 28.3 16.8 28.7 17.2C29.1 17.6 29.1 18.2 28.7 18.6L18.3 29C17.7 29.6 16.8 30 16 30Z" fill="#DE1E7E"/>
<path d="M16 29.9C15.4 29.9 15 29.5 15 28.9V3C15 2.4 15.4 2 16 2C16.6 2 17 2.4 17 3V28.8C17 29.4 16.6 29.9 16 29.9Z" fill="#DE1E7E"/>
</svg>
