<svg width="18" height="20" viewBox="0 0 18 20" fill="none" xmlns="http://www.w3.org/2000/svg">
<path fill-rule="evenodd" clip-rule="evenodd" d="M17.3101 10.9265L14.8641 6.58147C14.6132 6.26198 14.2997 6.00639 13.9861 5.94249C13.7352 5.87859 13.4843 5.94249 13.2334 6.13419C12.9826 6.32588 12.8571 6.58147 12.7944 6.90096L15.0523 10.9904C16.6202 13.8658 16.1185 16.6134 13.6098 19.1693C13.4216 19.361 13.2962 19.4888 13.108 19.6166C14.1742 19.4888 15.1777 18.9776 15.9303 18.147C18.5017 15.5272 18.3763 12.7157 17.3101 10.9265ZM14.2997 11.4377L12.0418 7.41214C11.8537 7.15655 11.6028 6.96486 11.2892 6.90096C11.101 6.83706 10.9129 6.90096 10.7247 7.02875C10.3484 7.34824 10.223 7.79553 10.5366 8.37061L11.6655 10.8626C11.7282 11.0543 11.6655 11.246 11.5401 11.3738C11.4146 11.5016 11.1638 11.4377 11.0383 11.3099L5.14286 5.23962C4.82927 4.92013 4.26481 4.92013 3.95122 5.23962C3.76307 5.43131 3.70035 5.623 3.70035 5.87859C3.70035 6.13418 3.76307 6.32588 3.95122 6.45367L7.46341 10.0319C7.65157 10.1597 7.65157 10.4153 7.52613 10.5431C7.4007 10.7348 7.14983 10.7348 7.02439 10.607C7.02439 10.607 6.96167 10.607 6.96167 10.5431L3.44948 7.02875L2.44599 6.00639C2.06969 5.623 1.56794 5.623 1.25436 6.00639C0.940766 6.32588 0.940766 6.90096 1.25436 7.22045L2.25784 8.24281L5.77003 11.8211C5.89547 11.9489 5.89547 12.2045 5.77003 12.3962C5.6446 12.5879 5.39373 12.524 5.20557 12.3962L1.69338 8.81789C1.37979 8.4984 0.815331 8.4984 0.501742 8.81789C0.313589 9.00958 0.250871 9.20128 0.250871 9.39297C0.250871 9.64856 0.313589 9.84025 0.501742 9.96805L2.00697 11.5016L4.20209 13.738C4.32753 13.9297 4.32753 14.1214 4.13937 14.2492C4.01394 14.377 3.82578 14.377 3.63763 14.2492L1.44251 12.0128C1.25436 11.8211 1.0662 11.7572 0.815331 11.7572C0.376307 11.7572 0 12.1406 0 12.5879C0 12.8434 0.0627178 13.0351 0.250871 13.2268L4.51568 17.5719C6.83624 19.9361 10.3484 21.1502 12.9826 18.4665C15.1777 16.23 15.6167 13.9297 14.2997 11.4377ZM6.14634 4.92013C6.20906 4.72843 6.27178 4.53674 6.45993 4.34505C6.89895 3.96166 7.52613 3.96166 7.96516 4.34505L9.97212 6.38978C9.47038 6.90096 9.28223 7.60383 9.47038 8.30671L6.14634 4.92013ZM7.08711 0.319489L5.89547 0.894569L7.4007 2.68371L7.08711 0.319489ZM12.3554 0.894569L11.1638 0.319489L10.9129 2.68371L12.3554 0.894569ZM9.09408 2.10863L8.4669 0H9.72125L9.09408 2.10863Z" fill="#DE1E7E"/>
</svg>
