<svg width="65" height="24" viewBox="0 0 65 24" fill="none" xmlns="http://www.w3.org/2000/svg">
<g clip-path="url(#clip0_3422_86352)">
<path fill-rule="evenodd" clip-rule="evenodd" d="M12 24C14.1857 24 16.235 23.4156 18 22.3946C14.4132 20.3198 12 16.4417 12 12C12 7.55831 14.4132 3.68024 18 1.60539C16.235 0.584366 14.1857 0 12 0C5.37258 0 0 5.37258 0 12C0 18.6274 5.37258 24 12 24Z" fill="#017AFF"/>
<mask id="mask0_3422_86352" style="mask-type:alpha" maskUnits="userSpaceOnUse" x="0" y="0" width="18" height="24">
<path fill-rule="evenodd" clip-rule="evenodd" d="M12 24C14.1857 24 16.235 23.4156 18 22.3946C14.4132 20.3198 12 16.4417 12 12C12 7.55831 14.4132 3.68024 18 1.60539C16.235 0.584366 14.1857 0 12 0C5.37258 0 0 5.37258 0 12C0 18.6274 5.37258 24 12 24Z" fill="#017AFF"/>
</mask>
<g mask="url(#mask0_3422_86352)">
<path d="M15.7502 14.5503C15.6752 14.0253 15.6002 13.5753 15.5252 13.0503L15.0752 14.5503H15.7502Z" fill="white"/>
<path d="M9.74985 10.425C10.2749 10.425 10.7249 10.65 11.0999 11.025L11.3999 10.425C10.9499 10.05 10.3499 9.75 9.74985 9.75C8.69985 9.75 7.87485 10.35 7.49985 11.25H6.89985L6.59985 11.925H7.27485C7.27485 12 7.27485 12.075 7.27485 12.15C7.27485 12.225 7.27485 12.3 7.27485 12.375H6.89985L6.59985 13.05H7.42485C7.79985 13.875 8.62485 14.475 9.67485 14.475C10.1999 14.475 10.6499 14.325 11.0249 14.1V13.275C10.7249 13.65 10.2749 13.875 9.74985 13.875C9.14985 13.875 8.62485 13.575 8.32485 13.125H10.1249L10.4249 12.45H8.09985C8.09985 12.375 8.09985 12.3 8.09985 12.225C8.09985 12.15 8.09985 12.075 8.09985 12.075H10.6499L10.9499 11.25H8.24985C8.54985 10.725 9.07485 10.425 9.74985 10.425Z" fill="#FFBE00"/>
<path d="M6.225 11.25H5.025C5.025 11.025 5.025 10.95 4.95 10.875C4.875 10.8 4.65 10.725 4.35 10.725C4.05 10.725 3.825 10.725 3.75 10.8C3.675 10.875 3.6 10.95 3.6 11.175C3.6 11.325 3.675 11.475 3.75 11.55C3.825 11.625 3.9 11.625 3.975 11.625H4.2C4.725 11.625 5.025 11.7 5.175 11.7C5.55 11.775 5.85 11.85 6.075 12C6.225 12.15 6.3 12.3 6.3 12.525C6.3 12.675 6.3 12.825 6.3 12.975C6.3 13.35 6.3 13.65 6.225 13.8C6.075 14.1 5.775 14.325 5.325 14.4C5.1 14.4 4.8 14.475 4.425 14.475C3.75 14.475 3.3 14.4 3 14.325C2.7 14.25 2.475 14.025 2.325 13.725C2.25 13.575 2.25 13.275 2.25 12.9H3.45C3.45 12.975 3.45 12.975 3.45 12.975C3.45 13.2 3.525 13.35 3.6 13.35C3.825 13.5 3.9 13.5 4.05 13.5H4.5C4.725 13.5 4.875 13.5 4.95 13.5C5.025 13.425 5.1 13.35 5.175 13.275C5.175 13.2 5.175 13.125 5.175 13.05C5.175 12.825 5.1 12.675 4.95 12.675C4.875 12.675 4.65 12.6 4.125 12.6C3.75 12.6 3.45 12.525 3.3 12.525C2.925 12.45 2.625 12.3 2.55 12.075C2.4 11.85 2.4 11.55 2.4 11.175C2.4 10.875 2.4 10.65 2.475 10.425C2.55 10.275 2.625 10.125 2.775 9.975C3 9.825 3.225 9.75 3.525 9.75C3.75 9.75 4.05 9.75 4.425 9.75C4.95 9.75 5.25 9.75 5.475 9.825C6 9.975 6.225 10.35 6.225 11.025C6.3 11.025 6.3 11.175 6.225 11.25Z" fill="white"/>
<path d="M11.5503 14.55V9.75H13.4253H13.7253H13.9503C14.2503 9.75 14.5503 9.75 14.7003 9.825C15.0753 9.975 15.3753 10.2 15.5253 10.575C15.6003 10.8 15.6003 11.1 15.6003 11.475C15.6003 11.925 15.5253 12.3 15.4503 12.525C15.3003 12.975 15.0003 13.2 14.4753 13.275C14.4003 13.275 14.1753 13.275 13.7253 13.275H13.5003H12.7503V14.55H11.5503ZM12.8253 12.15H13.6503C13.8753 12.15 14.0253 12.15 14.1003 12.075C14.1753 12 14.2503 11.925 14.2503 11.85C14.2503 11.775 14.2503 11.625 14.2503 11.475C14.2503 11.25 14.2503 11.1 14.1753 11.025C14.1003 10.875 14.0253 10.8 13.8753 10.8C13.8753 10.8 13.7253 10.8 13.6503 10.8H12.8253V12.15Z" fill="white"/>
</g>
<path fill-rule="evenodd" clip-rule="evenodd" d="M25.5 24C27.6857 24 29.735 23.4156 31.5 22.3946C27.9132 20.3198 25.5 16.4417 25.5 12C25.5 7.55831 27.9132 3.68024 31.5 1.60539C29.735 0.584366 27.6857 0 25.5 0C18.8726 0 13.5 5.37258 13.5 12C13.5 18.6274 18.8726 24 25.5 24Z" fill="#3A79BE"/>
<mask id="mask1_3422_86352" style="mask-type:alpha" maskUnits="userSpaceOnUse" x="13" y="0" width="19" height="24">
<path fill-rule="evenodd" clip-rule="evenodd" d="M25.5 24C27.6857 24 29.735 23.4156 31.5 22.3946C27.9132 20.3198 25.5 16.4417 25.5 12C25.5 7.55831 27.9132 3.68024 31.5 1.60539C29.735 0.584366 27.6857 0 25.5 0C18.8726 0 13.5 5.37258 13.5 12C13.5 18.6274 18.8726 24 25.5 24Z" fill="#3A79BE"/>
</mask>
<g mask="url(#mask1_3422_86352)">
<path d="M29.1 5.925C28.425 5.175 27.225 4.875 25.725 4.875H21.225C20.925 4.875 20.625 5.1 20.625 5.4L18.75 17.1C18.75 17.325 18.9 17.55 19.125 17.55H21.9L21.675 18.75C21.675 18.975 21.825 19.125 21.975 19.125H24.3C24.6 19.125 24.825 18.9 24.825 18.675V18.525L25.275 15.75V15.6C25.35 15.3 25.575 15.15 25.8 15.15H26.175C27.525 15.15 28.725 14.775 29.55 13.95C29.55 13.35 29.475 12.675 29.475 12C29.475 10.875 29.625 9.75 30 8.625C29.925 8.55 29.85 8.475 29.7 8.475C29.85 7.35 29.7 6.6 29.1 5.925Z" fill="#3A79BE"/>
<path opacity="0.8" d="M29.1 5.925C28.425 5.175 27.225 4.875 25.725 4.875H21.225C20.925 4.875 20.625 5.1 20.625 5.4L18.75 17.1C18.75 17.325 18.9 17.55 19.125 17.55H21.9L21.675 18.75C21.675 18.975 21.825 19.125 21.975 19.125H24.3C24.6 19.125 24.825 18.9 24.825 18.675V18.525L25.275 15.75V15.6C25.35 15.3 25.575 15.15 25.8 15.15H26.175C27.525 15.15 28.725 14.775 29.55 13.95C29.55 13.35 29.475 12.675 29.475 12C29.475 10.875 29.625 9.75 30 8.625C29.925 8.55 29.85 8.475 29.7 8.475C29.85 7.35 29.7 6.6 29.1 5.925Z" fill="white"/>
<path d="M29.7 8.475C29.85 7.35 29.7 6.6 29.1 5.925C28.425 5.175 27.225 4.875 25.725 4.875H21.225C20.925 4.875 20.625 5.1 20.625 5.4L18.75 17.1C18.75 17.325 18.9 17.55 19.125 17.55H21.9L22.575 13.2V13.35C22.65 13.05 22.875 12.825 23.175 12.825H24.45C27 12.825 29.025 11.775 29.625 8.775C29.625 8.625 29.7 8.55 29.7 8.475Z" fill="white"/>
<path d="M23.325 8.475C23.325 8.325 23.475 8.1 23.625 8.025C23.7 8.025 23.775 7.95 23.85 7.95H27.3C27.75 7.95 28.125 7.95 28.425 8.025C28.5 8.025 28.65 8.025 28.725 8.1C28.8 8.1 28.95 8.175 29.025 8.175C29.1 8.175 29.1 8.175 29.175 8.25C29.325 8.325 29.475 8.4 29.625 8.475C29.775 7.35 29.625 6.6 29.025 5.925C28.35 5.175 27.15 4.875 25.65 4.875H21.225C20.925 4.875 20.625 5.1 20.625 5.4L18.75 17.1C18.75 17.325 18.9 17.55 19.125 17.55H21.9L22.575 13.2L23.325 8.475Z" fill="white"/>
</g>
<path fill-rule="evenodd" clip-rule="evenodd" d="M39 24C41.1857 24 43.235 23.4156 45 22.3946C41.4132 20.3198 39 16.4417 39 12C39 7.55831 41.4132 3.68024 45 1.60539C43.235 0.584366 41.1857 0 39 0C32.3726 0 27 5.37258 27 12C27 18.6274 32.3726 24 39 24Z" fill="#1A1F71"/>
<mask id="mask2_3422_86352" style="mask-type:alpha" maskUnits="userSpaceOnUse" x="27" y="0" width="18" height="24">
<path fill-rule="evenodd" clip-rule="evenodd" d="M39 24C41.1857 24 43.235 23.4156 45 22.3946C41.4132 20.3198 39 16.4417 39 12C39 7.55831 41.4132 3.68024 45 1.60539C43.235 0.584366 41.1857 0 39 0C32.3726 0 27 5.37258 27 12C27 18.6274 32.3726 24 39 24Z" fill="#1A1F71"/>
</mask>
<g mask="url(#mask2_3422_86352)">
<path d="M40.725 15.0744L41.025 14.3244H41.175C41.1 13.7244 41.025 13.0494 41.025 12.4494C41.025 11.8494 41.1 11.2494 41.175 10.6494L39.375 15.0744H40.725Z" fill="white"/>
<path d="M34.8001 15.0747H33.5251L34.3501 9.82471H35.7001L34.8001 15.0747Z" fill="white"/>
<path d="M32.4 9.82471L31.125 13.4247L30.975 12.6747L30.525 10.2747C30.525 10.2747 30.45 9.82471 29.925 9.82471H27.75V9.89971C27.75 9.89971 28.425 10.0497 29.175 10.4997L30.375 15.0747H31.8L33.9 9.82471H32.4Z" fill="white"/>
<path d="M39.4497 11.1L39.6747 9.975C39.6747 9.975 39.0747 9.75 38.4747 9.75C37.7997 9.75 36.2247 10.05 36.2247 11.475C36.2247 12.825 38.0997 12.825 38.0997 13.575C38.0997 14.325 36.4497 14.175 35.9247 13.725L35.6997 14.925C35.6997 14.925 36.2997 15.225 37.1997 15.225C38.0997 15.225 39.5247 14.775 39.5247 13.425C39.5247 12.075 37.6497 11.925 37.6497 11.325C37.5747 10.65 38.9247 10.725 39.4497 11.1Z" fill="white"/>
</g>
<path fill-rule="evenodd" clip-rule="evenodd" d="M52.5 24C54.6857 24 56.735 23.4156 58.5 22.3946C54.9132 20.3198 52.5 16.4417 52.5 12C52.5 7.55831 54.9132 3.68024 58.5 1.60539C56.735 0.584366 54.6857 0 52.5 0C45.8726 0 40.5 5.37258 40.5 12C40.5 18.6274 45.8726 24 52.5 24Z" fill="black"/>
<path d="M54 12C54 16.151 56.4087 19.7394 59.9047 21.4437C62.7026 19.2468 64.5 15.8333 64.5 12C64.5 8.16671 62.7026 4.75323 59.9047 2.55632C56.4087 4.26064 54 7.84903 54 12Z" fill="black"/>
<path d="M59.9047 21.4437C56.4087 19.7394 54 16.151 54 12C54 7.84903 56.4087 4.26064 59.9047 2.55632C59.4606 2.20763 58.9913 1.88959 58.5 1.60539C54.9132 3.68024 52.5 7.55831 52.5 12C52.5 16.4417 54.9132 20.3198 58.5 22.3946C58.9913 22.1104 59.4606 21.7924 59.9047 21.4437Z" fill="black"/>
<path d="M54.6749 8.41895H50.4749V15.3189H54.6749V8.41895Z" fill="#FF5F00"/>
<path d="M50.85 11.8688C50.85 11.1938 51 10.5187 51.3 9.91875C51.6 9.31875 51.975 8.79375 52.5 8.41875C51.825 7.89375 51.075 7.59375 50.25 7.51875C49.425 7.44375 48.6 7.59375 47.85 7.96875C47.1 8.34375 46.5 8.86875 46.05 9.61875C45.6 10.2938 45.375 11.1188 45.375 11.9438C45.375 12.7688 45.6 13.5938 46.05 14.2688C46.5 14.9438 47.1 15.5438 47.85 15.9188C48.6 16.2938 49.425 16.4438 50.25 16.3688C51.075 16.2938 51.825 15.9937 52.5 15.4687C51.975 15.0937 51.525 14.5687 51.3 13.9687C51 13.2187 50.85 12.5438 50.85 11.8688Z" fill="#EB001B"/>
<path d="M59.1749 14.6441V14.4941H59.2499H59.0999H59.1749V14.6441ZM59.4749 14.6441V14.4941H59.3999L59.3249 14.6441L59.2499 14.4941H59.1749V14.6441V14.4941L59.2499 14.5691L59.3249 14.4941L59.4749 14.6441Z" fill="#F79E1B"/>
<path d="M59.625 11.8689C59.625 12.6939 59.4 13.5189 58.95 14.1939C58.5 14.8689 57.9 15.4689 57.15 15.8439C56.4 16.2189 55.575 16.3689 54.75 16.2939C53.925 16.2189 53.175 15.9189 52.5 15.3939C53.025 15.0189 53.475 14.4939 53.7 13.8939C54 13.2939 54.15 12.6189 54.15 11.9439C54.15 11.2689 54 10.5939 53.7 9.99395C53.4 9.39395 53.025 8.86895 52.5 8.49395C53.175 7.96895 53.925 7.66895 54.75 7.59395C55.575 7.51895 56.4 7.66894 57.15 8.04394C57.9 8.41894 58.5 8.94395 58.95 9.69395C59.4 10.2939 59.625 11.0439 59.625 11.8689Z" fill="#F79E1B"/>
</g>
<defs>
<clipPath id="clip0_3422_86352">
<rect width="64.5" height="24" fill="white"/>
</clipPath>
</defs>
</svg>
