<svg width="28" height="30" viewBox="0 0 28 30" fill="none" xmlns="http://www.w3.org/2000/svg">
  <path d="M1.64064 9.76786C5.29659 6.71777 9.5209 5 14 5C18.4791 5 22.7035 6.71777 26.3594 9.76786C26.7835 10.1217 27.4141 10.0647 27.7679 9.64061C28.1217 9.21654 28.0647 8.58594 27.6406 8.23214C23.6819 4.92946 19.0164 3 14 3C8.98364 3 4.31811 4.92946 0.35941 8.23214C-0.0646685 8.58594 -0.12164 9.21654 0.232162 9.64061C0.585964 10.0647 1.21656 10.1217 1.64064 9.76786Z" fill="#DE1E7E"/>
  <path fill-rule="evenodd" clip-rule="evenodd" d="M4.01607 11.8401C6.38011 9.84425 9.7265 8 13.5 8C17.2735 8 20.6199 9.84425 22.9839 11.8401C24.1733 12.8442 25.1455 13.9124 25.8289 14.8606C26.1701 15.334 26.4501 15.7924 26.6491 16.2109C26.8353 16.6023 27 17.0595 27 17.5C27 17.9405 26.8353 18.3977 26.6491 18.7891C26.4501 19.2076 26.1701 19.666 25.8289 20.1394C25.1455 21.0876 24.1733 22.1558 22.9839 23.1599C20.6199 25.1558 17.2735 27 13.5 27C9.7265 27 6.38011 25.1558 4.01607 23.1599C2.82668 22.1558 1.85451 21.0876 1.17107 20.1394C0.829864 19.666 0.549852 19.2076 0.350868 18.7891C0.164702 18.3977 0 17.9405 0 17.5C0 17.0595 0.164702 16.6023 0.350868 16.2109C0.549852 15.7924 0.829864 15.334 1.17107 14.8606C1.85451 13.9124 2.82668 12.8442 4.01607 11.8401ZM2.00019 17.5L2.00066 17.5026C2.00443 17.5242 2.02785 17.6586 2.15704 17.9302C2.29108 18.2121 2.50223 18.5658 2.79356 18.97C3.37518 19.7769 4.23359 20.7261 5.30626 21.6317C7.46633 23.4553 10.3699 25 13.5 25C16.6301 25 19.5337 23.4553 21.6937 21.6317C22.7664 20.7261 23.6248 19.7769 24.2064 18.97C24.4978 18.5658 24.7089 18.2121 24.843 17.9302C24.9722 17.6586 24.9956 17.5242 24.9993 17.5026L24.9998 17.5L24.9993 17.4974C24.9956 17.4758 24.9722 17.3414 24.843 17.0698C24.7089 16.7879 24.4978 16.4342 24.2064 16.03C23.6248 15.2231 22.7664 14.2739 21.6937 13.3683C20.9949 12.7783 20.2183 12.2176 19.3814 11.7288C19.7781 12.5694 20 13.5088 20 14.5C20 18.0899 17.0899 21 13.5 21C9.91015 21 7 18.0899 7 14.5C7 13.5088 7.22186 12.5694 7.61863 11.7288C6.78169 12.2176 6.00506 12.7783 5.30626 13.3683C4.23359 14.2739 3.37518 15.2231 2.79356 16.03C2.50223 16.4342 2.29108 16.7879 2.15704 17.0698C2.02785 17.3414 2.00443 17.4758 2.00066 17.4974L2.00019 17.5ZM9 14.5C9 12.0147 11.0147 10 13.5 10C15.9853 10 18 12.0147 18 14.5C18 16.9853 15.9853 19 13.5 19C11.0147 19 9 16.9853 9 14.5Z" fill="#DE1E7E"/>
</svg>
