<svg width="32" height="32" viewBox="0 0 32 32" fill="none" xmlns="http://www.w3.org/2000/svg">
<path fill-rule="evenodd" clip-rule="evenodd" d="M13.4492 4.05582C14.474 1.59194 17.9644 1.59195 18.9891 4.05583L21.1699 9.29907C21.3139 9.6453 21.6395 9.88187 22.0133 9.91184L27.6739 10.3656C30.3338 10.5789 31.4124 13.8984 29.3858 15.6344L25.0731 19.3287C24.7883 19.5727 24.6639 19.9555 24.7509 20.3202L26.0685 25.8439C26.6877 28.4396 23.8639 30.4912 21.5866 29.1002L16.7404 26.1402C16.4204 25.9447 16.0179 25.9447 15.6979 26.1402L10.8517 29.1002C8.57443 30.4912 5.75068 28.4396 6.36984 25.8439L7.68745 20.3202C7.77446 19.9555 7.65009 19.5727 7.3653 19.3287L3.05258 15.6344C1.02596 13.8984 2.10455 10.5789 4.76451 10.3656L10.425 9.91184C10.7988 9.88187 11.1244 9.6453 11.2684 9.29907L13.4492 4.05582ZM17.1425 4.82389C16.8009 4.00259 15.6375 4.0026 15.2959 4.82388L13.1151 10.0671C12.6831 11.1058 11.7062 11.8155 10.5849 11.9054L4.92434 12.3592C4.03768 12.4303 3.67816 13.5368 4.35369 14.1155L8.66641 17.8098C9.52078 18.5417 9.89389 19.69 9.63287 20.7843L8.31526 26.308C8.10887 27.1732 9.05013 27.857 9.80922 27.3934L14.6554 24.4334C15.6155 23.847 16.8229 23.847 17.7829 24.4334L22.6291 27.3934C23.3882 27.8571 24.3295 27.1732 24.1231 26.308L22.8055 20.7843C22.5445 19.69 22.9176 18.5417 23.772 17.8098L28.0847 14.1155C28.7602 13.5368 28.4007 12.4303 27.514 12.3592L21.8535 11.9054C20.7321 11.8155 19.7553 11.1058 19.3233 10.0671L17.1425 4.82389Z" fill="#DE1E7E"/>
</svg>
