<svg width="32" height="32" viewBox="0 0 32 32" fill="none" xmlns="http://www.w3.org/2000/svg">
<path fill-rule="evenodd" clip-rule="evenodd" d="M4.74927 19.974L4.55835 19.8638C3.75509 19.4 3.31049 18.6563 3.25839 17.8284C3.20895 17.0429 3.51536 16.2815 3.99302 15.6766C4.20879 15.4034 4.46679 15.2172 4.68505 15.0875L8.73437 12.6823L12.1621 7.91685C12.2545 7.81168 12.837 7.02537 14.5264 5.95024C15.8225 5.12541 17.659 4.30855 19.8037 4.37603C20.9166 2.48653 23.3471 1.84392 25.25 2.94257C27.1529 4.04123 27.8116 6.46734 26.7317 8.37589C27.8625 10.1995 28.0733 12.1985 28.0071 13.7333C27.9642 14.7266 27.7348 16.0293 27.4699 16.8118L24.5769 21.8226L24.9769 26.633C25.0052 26.9731 24.9892 27.4076 24.7996 27.8404C24.5001 28.524 23.9911 29.1358 23.2941 29.4597C22.5615 29.8 21.7203 29.7722 20.9416 29.3226L13.2282 24.8693C11.684 26.6 9.08802 27.0715 7.0001 25.8661C4.91218 24.6606 4.02259 22.1767 4.74927 19.974ZM21.5179 5.40667C22.0702 4.45009 23.2934 4.12234 24.25 4.67462C25.2066 5.22691 25.5343 6.45009 24.982 7.40667L24.3575 8.48842L24.7503 9.01599C25.8339 10.4714 26.0712 12.2046 26.0089 13.6471C25.9748 14.4365 25.8587 15.2344 25.633 15.9934L22.532 21.3646L22.9838 26.7987C22.9964 26.9508 22.9762 27.0183 22.9677 27.0379C22.8163 27.3834 22.61 27.5722 22.4515 27.6458C22.3286 27.7029 22.1742 27.7249 21.9416 27.5906L14.3189 23.1896L14.3302 23.1699L5.66997 18.1699L5.65861 18.1896L5.55835 18.1317C5.32111 17.9947 5.26346 17.8462 5.25444 17.7028C5.24275 17.517 5.31633 17.228 5.56263 16.9161C5.57364 16.9022 5.61008 16.8643 5.70642 16.8071L10.1144 14.1888L13.724 9.17051C14.2723 8.57887 14.9217 8.06927 15.6001 7.63755C16.8182 6.86238 18.4378 6.20128 20.2401 6.41202L20.8934 6.48841L21.5179 5.40667ZM6.54554 21.0111L11.4319 23.8322C10.4931 24.6219 9.12395 24.7829 8.0001 24.134C6.87625 23.4852 6.33105 22.219 6.54554 21.0111Z" fill="#DE1E7E"/>
</svg>
