<svg width="32" height="32" viewBox="0 0 32 32" fill="none" xmlns="http://www.w3.org/2000/svg">
<path fill-rule="evenodd" clip-rule="evenodd" d="M2.06469 14.6454C2.02289 14.7556 2 14.8751 2 15C2 15.0886 2.00675 15.1745 2.01934 15.2577C2.0065 15.5035 2 15.751 2 16C2 23.732 8.26801 30 16 30C23.732 30 30 23.732 30 16C30 15.751 29.9935 15.5035 29.9807 15.2577C29.9933 15.1745 30 15.0886 30 15C30 14.8751 29.9771 14.7556 29.9353 14.6454C29.254 7.54901 23.275 2 16 2C8.72499 2 2.74602 7.549 2.06469 14.6454ZM16 4C14.9683 4 13.717 4.94804 12.6653 7.22667C11.6528 9.42035 11 12.5212 11 16C11 16.2576 11.0036 16.5131 11.0106 16.7664C12.5349 16.9161 14.2211 17 16 17C17.7789 17 19.4651 16.9161 20.9894 16.7664C20.9964 16.5131 21 16.2576 21 16C21 12.5212 20.3472 9.42035 19.3347 7.22667C18.283 4.94804 17.0317 4 16 4ZM20.8565 18.7879C19.3456 18.9253 17.7072 19 16 19C14.2928 19 12.6544 18.9253 11.1435 18.7879C11.3885 21.1243 11.9328 23.1862 12.6653 24.7733C13.717 27.052 14.9683 28 16 28C17.0317 28 18.283 27.052 19.3347 24.7733C20.0672 23.1862 20.6115 21.1243 20.8565 18.7879ZM9.00452 16.5179C9.00151 16.346 9 16.1733 9 16C9 12.2991 9.6903 8.89994 10.8494 6.38855C11.1118 5.81994 11.4088 5.27683 11.7391 4.77849C7.52017 6.38134 4.43956 10.2951 4.04327 14.9737C4.12164 15.0512 4.26402 15.1608 4.50056 15.2899C5.04333 15.586 5.89484 15.8844 7.03247 16.1469C7.6295 16.2847 8.29021 16.4092 9.00452 16.5179ZM4.06998 17.3036C4.76839 17.6116 5.62504 17.8747 6.58275 18.0957C7.34561 18.2718 8.19438 18.426 9.11178 18.5548C9.35082 21.2514 9.96304 23.691 10.8494 25.6114C11.1118 26.1801 11.4088 26.7232 11.7391 27.2215C7.60377 25.6504 4.5621 21.8591 4.06998 17.3036ZM27.9567 14.9737C27.5604 10.2951 24.4798 6.38134 20.2609 4.77849C20.5912 5.27683 20.8882 5.81994 21.1506 6.38855C22.3097 8.89994 23 12.2991 23 16C23 16.1733 22.9985 16.346 22.9955 16.5179C23.7098 16.4092 24.3705 16.2847 24.9675 16.1469C26.1052 15.8844 26.9567 15.586 27.4994 15.2899C27.736 15.1608 27.8784 15.0512 27.9567 14.9737ZM27.93 17.3036C27.2316 17.6116 26.375 17.8747 25.4172 18.0957C24.6544 18.2718 23.8056 18.426 22.8882 18.5548C22.6492 21.2514 22.037 23.691 21.1506 25.6114C20.8882 26.1801 20.5912 26.7232 20.2609 27.2215C24.3962 25.6504 27.4379 21.8591 27.93 17.3036Z" fill="#DE1E7E"/>
</svg>
