<svg viewBox="0 0 24 23" fill="none" xmlns="http://www.w3.org/2000/svg">
  <path opacity="0.85" d="M0.692842 20.3833L15.87 4.58085L17.6031 6.3854L2.42599 22.1878L0.692842 20.3833Z" stroke="#DE1E7E"/>
  <path d="M19.017 6.37603L15.8822 3.11207C15.6534 2.87381 15.311 2.84402 15.1175 3.04553L11.8685 6.42833C11.675 6.62984 11.7036 6.98634 11.9324 7.2246L15.0672 10.4886C15.2961 10.7268 15.6385 10.7566 15.832 10.5551L19.0809 7.17231C19.2745 6.97079 19.2459 6.61429 19.017 6.37603Z" fill="#DE1E7E"/>
  <path opacity="0.85" d="M16.0133 0.0696989C16.1732 0.331515 16.2582 0.635391 16.2582 0.945699C16.2582 1.25601 16.1732 1.55988 16.0133 1.8217C16.0067 1.82859 16.0029 1.83795 16.0029 1.8477C16.0029 1.85745 16.0067 1.8668 16.0133 1.8737C16.0199 1.88059 16.0289 1.88447 16.0383 1.88447C16.0476 1.88447 16.0566 1.88059 16.0632 1.8737C16.3133 1.70333 16.6057 1.61259 16.9046 1.61259C17.2034 1.61259 17.4958 1.70333 17.7459 1.8737C17.7525 1.88059 17.7615 1.88447 17.7709 1.88447C17.7802 1.88447 17.7892 1.88059 17.7958 1.8737C17.8025 1.8668 17.8062 1.85745 17.8062 1.8477C17.8062 1.83795 17.8025 1.82859 17.7958 1.8217C17.6322 1.5613 17.5451 1.25688 17.5451 0.945699C17.5451 0.63452 17.6322 0.330095 17.7958 0.0696989C17.7996 0.0662845 17.8027 0.0621276 17.805 0.0574655C17.8072 0.0528034 17.8085 0.0477274 17.8089 0.0425273C17.8093 0.0373272 17.8086 0.0321049 17.807 0.0271585C17.8055 0.0222121 17.803 0.0176385 17.7997 0.0136989C17.7964 0.00975921 17.7924 0.00653064 17.7879 0.0041975C17.7835 0.00186435 17.7786 0.000472324 17.7736 0.000100889C17.7686 -0.000270545 17.7636 0.00038589 17.7588 0.00203271C17.7541 0.00367954 17.7497 0.0062845 17.7459 0.00969887C17.4944 0.176261 17.2026 0.264728 16.9046 0.264728C16.6065 0.264728 16.3147 0.176261 16.0632 0.00969887C16.0594 0.0062845 16.055 0.00367954 16.0503 0.00203271C16.0455 0.00038589 16.0405 -0.000270545 16.0355 0.000100889C16.0305 0.000472324 16.0257 0.00186435 16.0212 0.0041975C16.0167 0.00653064 16.0127 0.00975921 16.0094 0.0136989C16.0062 0.0176385 16.0037 0.0222121 16.0021 0.0271585C16.0005 0.0321049 15.9999 0.0373272 16.0002 0.0425273C16.0006 0.0477274 16.0019 0.0528034 16.0042 0.0574655C16.0064 0.0621276 16.0095 0.0662845 16.0133 0.0696989Z" fill="#DE1E7E"/>
  <path opacity="0.85" d="M17.4979 10.0275C17.4261 10.4064 17.248 10.7545 16.986 11.0279C16.7241 11.3013 16.3902 11.4877 16.0265 11.5635C16.0189 11.5661 16.0122 11.5712 16.0074 11.5781C16.0027 11.5849 16.0001 11.5931 16.0001 11.6015C16.0001 11.6099 16.0027 11.6181 16.0074 11.625C16.0122 11.6318 16.0189 11.6369 16.0265 11.6395C16.3902 11.7153 16.7241 11.9017 16.986 12.1751C17.248 12.4485 17.4261 12.7967 17.4979 13.1755C17.5004 13.1835 17.5053 13.1905 17.5119 13.1954C17.5184 13.2004 17.5263 13.203 17.5344 13.203C17.5425 13.203 17.5504 13.2004 17.5569 13.1954C17.5635 13.1905 17.5684 13.1835 17.5709 13.1755C17.6444 12.7968 17.8236 12.449 18.086 12.1758C18.3484 11.9026 18.6824 11.7161 19.0461 11.6395C19.0538 11.6369 19.0605 11.6318 19.0653 11.625C19.07 11.6181 19.0726 11.6099 19.0726 11.6015C19.0726 11.5931 19.07 11.5849 19.0653 11.5781C19.0605 11.5712 19.0538 11.5661 19.0461 11.5635C18.6824 11.487 18.3484 11.3004 18.086 11.0272C17.8236 10.754 17.6444 10.4062 17.5709 10.0275C17.5684 10.0195 17.5635 10.0125 17.5569 10.0076C17.5504 10.0027 17.5425 10 17.5344 10C17.5263 10 17.5184 10.0027 17.5119 10.0076C17.5053 10.0125 17.5004 10.0195 17.4979 10.0275Z" fill="#DE1E7E"/>
  <path opacity="0.85" d="M22.3788 4.12798C22.3065 4.50686 22.1277 4.8548 21.865 5.12759C21.6023 5.40038 21.2677 5.58569 20.9036 5.65998C20.8959 5.66262 20.8892 5.66771 20.8845 5.67453C20.8798 5.68135 20.8772 5.68956 20.8772 5.69798C20.8772 5.70641 20.8798 5.71462 20.8845 5.72144C20.8892 5.72827 20.8959 5.73335 20.9036 5.73599C21.2676 5.81204 21.6018 5.99844 21.8643 6.27174C22.1268 6.54503 22.3058 6.89304 22.3788 7.27199C22.3814 7.27999 22.3863 7.28696 22.3928 7.2919C22.3994 7.29684 22.4072 7.2995 22.4153 7.2995C22.4234 7.2995 22.4313 7.29684 22.4379 7.2919C22.4444 7.28696 22.4493 7.27999 22.4518 7.27199C22.5258 6.89348 22.7051 6.546 22.9675 6.27287C23.2298 5.99973 23.5635 5.81302 23.9271 5.73599C23.9347 5.73335 23.9414 5.72827 23.9462 5.72144C23.9509 5.71462 23.9535 5.70641 23.9535 5.69798C23.9535 5.68956 23.9509 5.68135 23.9462 5.67453C23.9414 5.66771 23.9347 5.66262 23.9271 5.65998C23.5657 5.5821 23.2343 5.39536 22.9741 5.12298C22.7139 4.85061 22.5363 4.5046 22.4634 4.12798C22.4634 4.11631 22.4589 4.10512 22.451 4.09687C22.4431 4.08862 22.4323 4.08398 22.4211 4.08398C22.4099 4.08398 22.3991 4.08862 22.3912 4.09687C22.3833 4.10512 22.3788 4.11631 22.3788 4.12798Z" fill="#DE1E7E"/>
  <path opacity="0.85" d="M12.6571 2.0317C12.6118 2.18621 12.53 2.32644 12.4193 2.43963C12.3086 2.55281 12.1724 2.63534 12.0232 2.6797C12.0164 2.68216 12.0106 2.68675 12.0064 2.69284C12.0022 2.69893 12 2.70622 12 2.7137C12 2.72117 12.0022 2.72846 12.0064 2.73456C12.0106 2.74065 12.0164 2.74524 12.0232 2.7477C12.1741 2.79248 12.3115 2.8766 12.4224 2.99209C12.5333 3.10758 12.6141 3.25063 12.6571 3.4077C12.6571 3.4477 12.7147 3.4477 12.7224 3.4077C12.7661 3.25097 12.8471 3.10829 12.9579 2.9929C13.0687 2.87751 13.2058 2.79316 13.3563 2.7477C13.3631 2.74524 13.3689 2.74065 13.3731 2.73456C13.3773 2.72846 13.3795 2.72117 13.3795 2.7137C13.3795 2.70622 13.3773 2.69893 13.3731 2.69284C13.3689 2.68675 13.3631 2.68216 13.3563 2.6797C13.2061 2.63357 13.0694 2.549 12.9587 2.43371C12.8479 2.31842 12.7667 2.17608 12.7224 2.0197C12.7147 1.9917 12.6686 1.9917 12.6571 2.0317Z" fill="#DE1E7E"/>
  <path d="M17.3615 7.12786C17.7116 7.12786 17.9954 6.83237 17.9954 6.46786C17.9954 6.10335 17.7116 5.80786 17.3615 5.80786C17.0115 5.80786 16.7277 6.10335 16.7277 6.46786C16.7277 6.83237 17.0115 7.12786 17.3615 7.12786Z" fill="white"/>
</svg>
