<svg width="32" height="32" viewBox="0 0 32 32" fill="none" xmlns="http://www.w3.org/2000/svg">
<path fill-rule="evenodd" clip-rule="evenodd" d="M13.4643 9C13.4643 8.72386 13.6881 8.5 13.9643 8.5L20.0714 8.5C21.8612 8.5 23.2857 9.99223 23.2857 11.8L23.2857 21.7659L25.141 19.852C25.3332 19.6537 25.6497 19.6488 25.848 19.841C26.0463 20.0332 26.0512 20.3497 25.859 20.548L23.1447 23.348C23.0505 23.4452 22.921 23.5 22.7857 23.5C22.6504 23.5 22.5209 23.4452 22.4267 23.348L19.7124 20.548C19.5202 20.3497 19.5251 20.0332 19.7234 19.841C19.9217 19.6488 20.2382 19.6537 20.4304 19.852L22.2857 21.7659V11.8C22.2857 10.515 21.2798 9.5 20.0714 9.5L13.9643 9.5C13.6881 9.5 13.4643 9.27614 13.4643 9ZM9.21429 8.5C9.34959 8.5 9.47912 8.55484 9.57329 8.65198L12.2876 11.452C12.4798 11.6503 12.4749 11.9668 12.2766 12.159C12.0783 12.3512 11.7618 12.3463 11.5696 12.148L9.71429 10.2341V20.2C9.71429 21.485 10.7202 22.5 11.9286 22.5H18.0357C18.3119 22.5 18.5357 22.7239 18.5357 23C18.5357 23.2761 18.3119 23.5 18.0357 23.5H11.9286C10.1388 23.5 8.71429 22.0078 8.71429 20.2V10.2341L6.85901 12.148C6.6668 12.3463 6.35026 12.3512 6.15198 12.159C5.95371 11.9668 5.94879 11.6503 6.14099 11.452L8.85528 8.65198C8.94946 8.55484 9.07898 8.5 9.21429 8.5Z" fill="black"/>
</svg>
